<?xml version="1.0" encoding="UTF-8" standalone="no"?><svg xmlns="http://www.w3.org/2000/svg" xmlns:xlink="http://www.w3.org/1999/xlink" contentStyleType="text/css" height="1025px" preserveAspectRatio="none" style="width:655px;height:1025px;background:#FFFFFF;" version="1.1" viewBox="0 0 655 1025" width="655px" zoomAndPan="magnify"><defs/><g><text fill="#000000" font-family="sans-serif" font-size="14" font-weight="bold" lengthAdjust="spacing" textLength="300" x="179" y="28.5352">System Sequence Diagram (SSD) - US 001</text><rect fill="#FFFFFF" height="792.3125" style="stroke:#181818;stroke-width:1.0;" width="10" x="114" y="136.043"/><rect fill="#FFFFFF" height="37.5547" style="stroke:#181818;stroke-width:1.0;" width="10" x="580" y="165.5977"/><rect fill="#FFFFFF" height="37.5547" style="stroke:#181818;stroke-width:1.0;" width="10" x="580" y="281.8164"/><rect fill="#FFFFFF" height="44.5547" style="stroke:#181818;stroke-width:1.0;" width="10" x="580" y="398.0352"/><rect fill="#FFFFFF" height="44.5547" style="stroke:#181818;stroke-width:1.0;" width="10" x="580" y="521.2539"/><rect fill="#FFFFFF" height="44.5547" style="stroke:#181818;stroke-width:1.0;" width="10" x="580" y="644.4727"/><rect fill="#FFFFFF" height="44.5547" style="stroke:#181818;stroke-width:1.0;" width="10" x="580" y="767.6914"/><rect fill="#FFFFFF" height="37.5547" style="stroke:#181818;stroke-width:1.0;" width="10" x="580" y="849.8008"/><rect fill="none" height="702.2031" style="stroke:#000000;stroke-width:1.5;" width="639" x="10" y="218.1523"/><rect fill="none" height="71.6641" style="stroke:#000000;stroke-width:1.5;" width="619" x="20" y="334.3711"/><rect fill="none" height="71.6641" style="stroke:#000000;stroke-width:1.5;" width="619" x="20" y="457.5898"/><rect fill="none" height="71.6641" style="stroke:#000000;stroke-width:1.5;" width="619" x="20" y="580.8086"/><rect fill="none" height="71.6641" style="stroke:#000000;stroke-width:1.5;" width="619" x="20" y="704.0273"/><line style="stroke:#181818;stroke-width:0.5;stroke-dasharray:5.0,5.0;" x1="119" x2="119" y1="126.043" y2="937.3555"/><line style="stroke:#181818;stroke-width:0.5;stroke-dasharray:5.0,5.0;" x1="585" x2="585" y1="126.043" y2="937.3555"/><text fill="#000000" font-family="sans-serif" font-size="20" lengthAdjust="spacing" textLength="172" x="30" y="121.8242">Unregistered User</text><ellipse cx="119" cy="50.9883" fill="#E3E3E3" rx="8" ry="8" style="stroke:#181818;stroke-width:0.5;"/><path d="M119,58.9883 L119,85.9883 M106,66.9883 L132,66.9883 M119,85.9883 L106,100.9883 M119,85.9883 L132,100.9883 " fill="none" style="stroke:#181818;stroke-width:0.5;"/><text fill="#000000" font-family="sans-serif" font-size="20" lengthAdjust="spacing" textLength="172" x="30" y="955.6914">Unregistered User</text><ellipse cx="119" cy="968.4102" fill="#E3E3E3" rx="8" ry="8" style="stroke:#181818;stroke-width:0.5;"/><path d="M119,976.4102 L119,1003.4102 M106,984.4102 L132,984.4102 M119,1003.4102 L106,1018.4102 M119,1003.4102 L132,1018.4102 " fill="none" style="stroke:#181818;stroke-width:0.5;"/><rect fill="#E3E3E3" height="37.5547" rx="2.5" ry="2.5" style="stroke:#181818;stroke-width:0.5;" width="88" x="541" y="87.4883"/><text fill="#000000" font-family="sans-serif" font-size="20" lengthAdjust="spacing" textLength="74" x="548" y="113.8242">:System</text><rect fill="#E3E3E3" height="37.5547" rx="2.5" ry="2.5" style="stroke:#181818;stroke-width:0.5;" width="88" x="541" y="936.3555"/><text fill="#000000" font-family="sans-serif" font-size="20" lengthAdjust="spacing" textLength="74" x="548" y="962.6914">:System</text><rect fill="#FFFFFF" height="792.3125" style="stroke:#181818;stroke-width:1.0;" width="10" x="114" y="136.043"/><rect fill="#FFFFFF" height="37.5547" style="stroke:#181818;stroke-width:1.0;" width="10" x="580" y="165.5977"/><rect fill="#FFFFFF" height="37.5547" style="stroke:#181818;stroke-width:1.0;" width="10" x="580" y="281.8164"/><rect fill="#FFFFFF" height="44.5547" style="stroke:#181818;stroke-width:1.0;" width="10" x="580" y="398.0352"/><rect fill="#FFFFFF" height="44.5547" style="stroke:#181818;stroke-width:1.0;" width="10" x="580" y="521.2539"/><rect fill="#FFFFFF" height="44.5547" style="stroke:#181818;stroke-width:1.0;" width="10" x="580" y="644.4727"/><rect fill="#FFFFFF" height="44.5547" style="stroke:#181818;stroke-width:1.0;" width="10" x="580" y="767.6914"/><rect fill="#FFFFFF" height="37.5547" style="stroke:#181818;stroke-width:1.0;" width="10" x="580" y="849.8008"/><polygon fill="#181818" points="568,161.5977,578,165.5977,568,169.5977,572,165.5977" style="stroke:#181818;stroke-width:1.0;"/><line style="stroke:#181818;stroke-width:1.0;" x1="124" x2="574" y1="165.5977" y2="165.5977"/><text fill="#000000" font-family="sans-serif" font-size="20" font-weight="bold" lengthAdjust="spacing" textLength="13" x="131" y="159.3789">1</text><text fill="#000000" font-family="sans-serif" font-size="20" lengthAdjust="spacing" textLength="211" x="148" y="159.3789">Asks to list properties</text><polygon fill="#181818" points="135,199.1523,125,203.1523,135,207.1523,131,203.1523" style="stroke:#181818;stroke-width:1.0;"/><line style="stroke:#181818;stroke-width:1.0;stroke-dasharray:2.0,2.0;" x1="129" x2="584" y1="203.1523" y2="203.1523"/><text fill="#000000" font-family="sans-serif" font-size="20" font-weight="bold" lengthAdjust="spacing" textLength="13" x="141" y="196.9336">2</text><text fill="#000000" font-family="sans-serif" font-size="20" lengthAdjust="spacing" textLength="398" x="158" y="196.9336">Displays  properties by most recent order</text><path d="M10,218.1523 L89,218.1523 L89,233.707 L79,243.707 L10,243.707 L10,218.1523 " fill="#EEEEEE" style="stroke:#000000;stroke-width:1.5;"/><rect fill="none" height="702.2031" style="stroke:#000000;stroke-width:1.5;" width="639" x="10" y="218.1523"/><text fill="#000000" font-family="sans-serif" font-size="20" font-weight="bold" lengthAdjust="spacing" textLength="34" x="25" y="238.4883">opt</text><text fill="#000000" font-family="sans-serif" font-size="20" font-weight="bold" lengthAdjust="spacing" textLength="79" x="104" y="239.4883">[Filters]</text><polygon fill="#181818" points="568,277.8164,578,281.8164,568,285.8164,572,281.8164" style="stroke:#181818;stroke-width:1.0;"/><line style="stroke:#181818;stroke-width:1.0;" x1="124" x2="574" y1="281.8164" y2="281.8164"/><text fill="#000000" font-family="sans-serif" font-size="20" font-weight="bold" lengthAdjust="spacing" textLength="13" x="131" y="275.5977">3</text><text fill="#000000" font-family="sans-serif" font-size="20" lengthAdjust="spacing" textLength="227" x="148" y="275.5977">Asks to filter properties</text><polygon fill="#181818" points="135,315.3711,125,319.3711,135,323.3711,131,319.3711" style="stroke:#181818;stroke-width:1.0;"/><line style="stroke:#181818;stroke-width:1.0;stroke-dasharray:2.0,2.0;" x1="129" x2="584" y1="319.3711" y2="319.3711"/><text fill="#000000" font-family="sans-serif" font-size="20" font-weight="bold" lengthAdjust="spacing" textLength="13" x="141" y="313.1523">4</text><text fill="#000000" font-family="sans-serif" font-size="20" lengthAdjust="spacing" textLength="278" x="158" y="313.1523">Displays  sorting criterias list</text><path d="M20,334.3711 L92,334.3711 L92,349.9258 L82,359.9258 L20,359.9258 L20,334.3711 " fill="#EEEEEE" style="stroke:#000000;stroke-width:1.5;"/><rect fill="none" height="71.6641" style="stroke:#000000;stroke-width:1.5;" width="619" x="20" y="334.3711"/><text fill="#000000" font-family="sans-serif" font-size="20" font-weight="bold" lengthAdjust="spacing" textLength="27" x="35" y="354.707">alt</text><text fill="#000000" font-family="sans-serif" font-size="20" font-weight="bold" lengthAdjust="spacing" textLength="170" x="107" y="355.707">[sorting criteria]</text><polygon fill="#181818" points="568,394.0352,578,398.0352,568,402.0352,572,398.0352" style="stroke:#181818;stroke-width:1.0;"/><line style="stroke:#181818;stroke-width:1.0;" x1="124" x2="574" y1="398.0352" y2="398.0352"/><text fill="#000000" font-family="sans-serif" font-size="20" font-weight="bold" lengthAdjust="spacing" textLength="13" x="131" y="391.8164">5</text><text fill="#000000" font-family="sans-serif" font-size="20" lengthAdjust="spacing" textLength="212" x="148" y="391.8164">Selects sorting criteria</text><polygon fill="#181818" points="135,438.5898,125,442.5898,135,446.5898,131,442.5898" style="stroke:#181818;stroke-width:1.0;"/><line style="stroke:#181818;stroke-width:1.0;stroke-dasharray:2.0,2.0;" x1="129" x2="584" y1="442.5898" y2="442.5898"/><text fill="#000000" font-family="sans-serif" font-size="20" font-weight="bold" lengthAdjust="spacing" textLength="13" x="141" y="436.3711">6</text><text fill="#000000" font-family="sans-serif" font-size="20" lengthAdjust="spacing" textLength="292" x="158" y="436.3711">Displays type of property filter</text><path d="M20,457.5898 L92,457.5898 L92,473.1445 L82,483.1445 L20,483.1445 L20,457.5898 " fill="#EEEEEE" style="stroke:#000000;stroke-width:1.5;"/><rect fill="none" height="71.6641" style="stroke:#000000;stroke-width:1.5;" width="619" x="20" y="457.5898"/><text fill="#000000" font-family="sans-serif" font-size="20" font-weight="bold" lengthAdjust="spacing" textLength="27" x="35" y="477.9258">alt</text><text fill="#000000" font-family="sans-serif" font-size="20" font-weight="bold" lengthAdjust="spacing" textLength="183" x="107" y="478.9258">[type of property]</text><polygon fill="#181818" points="568,517.2539,578,521.2539,568,525.2539,572,521.2539" style="stroke:#181818;stroke-width:1.0;"/><line style="stroke:#181818;stroke-width:1.0;" x1="124" x2="574" y1="521.2539" y2="521.2539"/><text fill="#000000" font-family="sans-serif" font-size="20" font-weight="bold" lengthAdjust="spacing" textLength="13" x="131" y="515.0352">7</text><text fill="#000000" font-family="sans-serif" font-size="20" lengthAdjust="spacing" textLength="205" x="148" y="515.0352">Selects property filter</text><polygon fill="#181818" points="135,561.8086,125,565.8086,135,569.8086,131,565.8086" style="stroke:#181818;stroke-width:1.0;"/><line style="stroke:#181818;stroke-width:1.0;stroke-dasharray:2.0,2.0;" x1="129" x2="584" y1="565.8086" y2="565.8086"/><text fill="#000000" font-family="sans-serif" font-size="20" font-weight="bold" lengthAdjust="spacing" textLength="13" x="141" y="559.5898">8</text><text fill="#000000" font-family="sans-serif" font-size="20" lengthAdjust="spacing" textLength="294" x="158" y="559.5898">Displays type of business filter</text><path d="M20,580.8086 L92,580.8086 L92,596.3633 L82,606.3633 L20,606.3633 L20,580.8086 " fill="#EEEEEE" style="stroke:#000000;stroke-width:1.5;"/><rect fill="none" height="71.6641" style="stroke:#000000;stroke-width:1.5;" width="619" x="20" y="580.8086"/><text fill="#000000" font-family="sans-serif" font-size="20" font-weight="bold" lengthAdjust="spacing" textLength="27" x="35" y="601.1445">alt</text><text fill="#000000" font-family="sans-serif" font-size="20" font-weight="bold" lengthAdjust="spacing" textLength="185" x="107" y="602.1445">[type of business]</text><polygon fill="#181818" points="568,640.4727,578,644.4727,568,648.4727,572,644.4727" style="stroke:#181818;stroke-width:1.0;"/><line style="stroke:#181818;stroke-width:1.0;" x1="124" x2="574" y1="644.4727" y2="644.4727"/><text fill="#000000" font-family="sans-serif" font-size="20" font-weight="bold" lengthAdjust="spacing" textLength="13" x="131" y="638.2539">9</text><text fill="#000000" font-family="sans-serif" font-size="20" lengthAdjust="spacing" textLength="207" x="148" y="638.2539">Selects business filter</text><polygon fill="#181818" points="135,685.0273,125,689.0273,135,693.0273,131,689.0273" style="stroke:#181818;stroke-width:1.0;"/><line style="stroke:#181818;stroke-width:1.0;stroke-dasharray:2.0,2.0;" x1="129" x2="584" y1="689.0273" y2="689.0273"/><text fill="#000000" font-family="sans-serif" font-size="20" font-weight="bold" lengthAdjust="spacing" textLength="26" x="141" y="682.8086">10</text><text fill="#000000" font-family="sans-serif" font-size="20" lengthAdjust="spacing" textLength="289" x="171" y="682.8086">Displays number of rooms list</text><path d="M20,704.0273 L92,704.0273 L92,719.582 L82,729.582 L20,729.582 L20,704.0273 " fill="#EEEEEE" style="stroke:#000000;stroke-width:1.5;"/><rect fill="none" height="71.6641" style="stroke:#000000;stroke-width:1.5;" width="619" x="20" y="704.0273"/><text fill="#000000" font-family="sans-serif" font-size="20" font-weight="bold" lengthAdjust="spacing" textLength="27" x="35" y="724.3633">alt</text><text fill="#000000" font-family="sans-serif" font-size="20" font-weight="bold" lengthAdjust="spacing" textLength="193" x="107" y="725.3633">[number of rooms]</text><polygon fill="#181818" points="568,763.6914,578,767.6914,568,771.6914,572,767.6914" style="stroke:#181818;stroke-width:1.0;"/><line style="stroke:#181818;stroke-width:1.0;" x1="124" x2="574" y1="767.6914" y2="767.6914"/><text fill="#000000" font-family="sans-serif" font-size="20" font-weight="bold" lengthAdjust="spacing" textLength="26" x="131" y="761.4727">11</text><text fill="#000000" font-family="sans-serif" font-size="20" lengthAdjust="spacing" textLength="239" x="161" y="761.4727">Selects number of rooms</text><polygon fill="#181818" points="135,808.2461,125,812.2461,135,816.2461,131,812.2461" style="stroke:#181818;stroke-width:1.0;"/><line style="stroke:#181818;stroke-width:1.0;stroke-dasharray:2.0,2.0;" x1="129" x2="584" y1="812.2461" y2="812.2461"/><text fill="#000000" font-family="sans-serif" font-size="20" font-weight="bold" lengthAdjust="spacing" textLength="26" x="141" y="806.0273">12</text><text fill="#000000" font-family="sans-serif" font-size="20" lengthAdjust="spacing" textLength="214" x="171" y="806.0273">Displays selected data</text><polygon fill="#181818" points="568,845.8008,578,849.8008,568,853.8008,572,849.8008" style="stroke:#181818;stroke-width:1.0;"/><line style="stroke:#181818;stroke-width:1.0;" x1="124" x2="574" y1="849.8008" y2="849.8008"/><text fill="#000000" font-family="sans-serif" font-size="20" font-weight="bold" lengthAdjust="spacing" textLength="26" x="131" y="843.582">13</text><text fill="#000000" font-family="sans-serif" font-size="20" lengthAdjust="spacing" textLength="126" x="161" y="843.582">Submits data</text><polygon fill="#181818" points="135,883.3555,125,887.3555,135,891.3555,131,887.3555" style="stroke:#181818;stroke-width:1.0;"/><line style="stroke:#181818;stroke-width:1.0;stroke-dasharray:2.0,2.0;" x1="129" x2="584" y1="887.3555" y2="887.3555"/><text fill="#000000" font-family="sans-serif" font-size="20" font-weight="bold" lengthAdjust="spacing" textLength="26" x="141" y="881.1367">14</text><text fill="#000000" font-family="sans-serif" font-size="20" lengthAdjust="spacing" textLength="402" x="171" y="881.1367">Displays  all properties that suit the filters</text><!--SRC=[hPHDReD038NtdCBAgbr4IhlCebAbA1T0EO01XumopD2nQKMLmzT0I6b2Klh3QYJytlli-U6zSIK6BAnFzvH1HbkihAozazYy4pmk8kvBeF3EfxlW2m895Gt-b9ZkCQTOQaiGA1LqkHqMy0up_sPS3bkqJ54aHhGqhbceW9XUAd8fmSfWtfJVnV7g7kQmYM6nU8WYhCIxgaWew3eL7s2sSO5oe_AWs1kcC0FaTX5ff9ZKbEW4Piike_tRBLiByuf2NNa4-ZKhc3_rH4juvZs3UB2Q0MNm9QafSLjyqlU6SFoEwhaQjOPBxOXBYpN3m0EIMcUfjZefKaOVCiLezBuKM1khJNL16Or6NONTjjh9kDyXirSJtRCq6BKrEi5c6YVv9LsRPkL2-2NnWZucgqU6hwl6OiXbKyOkTKdWj_r8wkE8RastQU1SDgs1iP1_uaygDewOVyZVowRnZuNSuf_IG7Tj6vRWVJ4uGTTFpvba6lirqL_OkVLkdaKKl3NoSR8gAOoIdSI_UZRGsk7J8JlKwrKPtU8T7VVfvbjnE1m-U_u0]--></g></svg>