<?xml version="1.0" encoding="UTF-8" standalone="no"?><svg xmlns="http://www.w3.org/2000/svg" xmlns:xlink="http://www.w3.org/1999/xlink" contentStyleType="text/css" height="639px" preserveAspectRatio="none" style="width:1360px;height:639px;background:#FFFFFF;" version="1.1" viewBox="0 0 1360 639" width="1360px" zoomAndPan="magnify"><defs/><g><rect fill="#FFFFFF" height="425.1016" style="stroke:#181818;stroke-width:1.0;" width="10" x="599" y="130.2188"/><rect fill="#FFFFFF" height="37.5547" style="stroke:#181818;stroke-width:1.0;" width="10" x="855" y="322.9922"/><rect fill="#FFFFFF" height="37.5547" style="stroke:#181818;stroke-width:1.0;" width="10" x="1004" y="398.1016"/><rect fill="#FFFFFF" height="37.5547" style="stroke:#181818;stroke-width:1.0;" width="10" x="1170.5" y="473.2109"/><rect fill="none" height="373.5469" style="stroke:#000000;stroke-width:1.5;" width="836.5" x="518" y="145.2188"/><line style="stroke:#181818;stroke-width:0.5;stroke-dasharray:5.0,5.0;" x1="604" x2="604" y1="67.1094" y2="573.3203"/><line style="stroke:#181818;stroke-width:0.5;stroke-dasharray:5.0,5.0;" x1="859.5" x2="859.5" y1="67.1094" y2="573.3203"/><line style="stroke:#181818;stroke-width:0.5;stroke-dasharray:5.0,5.0;" x1="1008.5" x2="1008.5" y1="67.1094" y2="573.3203"/><line style="stroke:#181818;stroke-width:0.5;stroke-dasharray:5.0,5.0;" x1="1175.5" x2="1175.5" y1="67.1094" y2="573.3203"/><line style="stroke:#181818;stroke-width:0.5;stroke-dasharray:5.0,5.0;" x1="1308.5" x2="1308.5" y1="216.8281" y2="573.3203"/><rect fill="#E3E3E3" height="61.1094" rx="2.5" ry="2.5" style="stroke:#181818;stroke-width:0.5;" width="152" x="528" y="5"/><text fill="#000000" font-family="sans-serif" font-size="20" lengthAdjust="spacing" textLength="138" x="535" y="31.3359">manageClient:</text><text fill="#000000" font-family="sans-serif" font-size="20" lengthAdjust="spacing" textLength="130" x="539" y="54.8906">ManageClient</text><rect fill="#E3E3E3" height="61.1094" rx="2.5" ry="2.5" style="stroke:#181818;stroke-width:0.5;" width="152" x="528" y="572.3203"/><text fill="#000000" font-family="sans-serif" font-size="20" lengthAdjust="spacing" textLength="138" x="535" y="598.6563">manageClient:</text><text fill="#000000" font-family="sans-serif" font-size="20" lengthAdjust="spacing" textLength="130" x="539" y="622.2109">ManageClient</text><rect fill="#E3E3E3" height="37.5547" rx="2.5" ry="2.5" style="stroke:#181818;stroke-width:0.5;" width="139" x="790.5" y="28.5547"/><text fill="#000000" font-family="sans-serif" font-size="20" lengthAdjust="spacing" textLength="125" x="797.5" y="54.8906">:Repositories</text><rect fill="#E3E3E3" height="37.5547" rx="2.5" ry="2.5" style="stroke:#181818;stroke-width:0.5;" width="139" x="790.5" y="572.3203"/><text fill="#000000" font-family="sans-serif" font-size="20" lengthAdjust="spacing" textLength="125" x="797.5" y="598.6563">:Repositories</text><rect fill="#E3E3E3" height="61.1094" rx="2.5" ry="2.5" style="stroke:#181818;stroke-width:0.5;" width="139" x="939.5" y="5"/><text fill="#000000" font-family="sans-serif" font-size="20" lengthAdjust="spacing" textLength="114" x="952" y="31.3359">repositories</text><text fill="#000000" font-family="sans-serif" font-size="20" lengthAdjust="spacing" textLength="125" x="946.5" y="54.8906">:Repositories</text><rect fill="#E3E3E3" height="61.1094" rx="2.5" ry="2.5" style="stroke:#181818;stroke-width:0.5;" width="139" x="939.5" y="572.3203"/><text fill="#000000" font-family="sans-serif" font-size="20" lengthAdjust="spacing" textLength="114" x="952" y="598.6563">repositories</text><text fill="#000000" font-family="sans-serif" font-size="20" lengthAdjust="spacing" textLength="125" x="946.5" y="622.2109">:Repositories</text><rect fill="#E3E3E3" height="61.1094" rx="2.5" ry="2.5" style="stroke:#181818;stroke-width:0.5;" width="174" x="1088.5" y="5"/><text fill="#000000" font-family="sans-serif" font-size="20" lengthAdjust="spacing" textLength="160" x="1095.5" y="31.3359">clientRepository:</text><text fill="#000000" font-family="sans-serif" font-size="20" lengthAdjust="spacing" textLength="158" x="1096.5" y="54.8906">ClientRepository</text><rect fill="#E3E3E3" height="61.1094" rx="2.5" ry="2.5" style="stroke:#181818;stroke-width:0.5;" width="174" x="1088.5" y="572.3203"/><text fill="#000000" font-family="sans-serif" font-size="20" lengthAdjust="spacing" textLength="160" x="1095.5" y="598.6563">clientRepository:</text><text fill="#000000" font-family="sans-serif" font-size="20" lengthAdjust="spacing" textLength="158" x="1096.5" y="622.2109">ClientRepository</text><rect fill="#E3E3E3" height="61.1094" rx="2.5" ry="2.5" style="stroke:#181818;stroke-width:0.5;" width="72" x="1272.5" y="572.3203"/><text fill="#000000" font-family="sans-serif" font-size="20" lengthAdjust="spacing" textLength="58" x="1279.5" y="598.6563">client:</text><text fill="#000000" font-family="sans-serif" font-size="20" lengthAdjust="spacing" textLength="56" x="1280.5" y="622.2109">Client</text><rect fill="#FFFFFF" height="425.1016" style="stroke:#181818;stroke-width:1.0;" width="10" x="599" y="130.2188"/><rect fill="#FFFFFF" height="37.5547" style="stroke:#181818;stroke-width:1.0;" width="10" x="855" y="322.9922"/><rect fill="#FFFFFF" height="37.5547" style="stroke:#181818;stroke-width:1.0;" width="10" x="1004" y="398.1016"/><rect fill="#FFFFFF" height="37.5547" style="stroke:#181818;stroke-width:1.0;" width="10" x="1170.5" y="473.2109"/><polygon fill="#181818" points="587,126.2188,597,130.2188,587,134.2188,591,130.2188" style="stroke:#181818;stroke-width:1.0;"/><line style="stroke:#181818;stroke-width:1.0;" x1="0" x2="593" y1="130.2188" y2="130.2188"/><text fill="#000000" font-family="sans-serif" font-size="20" font-weight="bold" lengthAdjust="spacing" textLength="13" x="7" y="112.2227">7</text><text fill="#000000" font-family="sans-serif" font-size="20" lengthAdjust="spacing" textLength="402" x="24" y="100.4453">registerUser(name, passportCardNumber,</text><text fill="#000000" font-family="sans-serif" font-size="20" lengthAdjust="spacing" textLength="557" x="30" y="124">taxNumber, address, email, telephoneNumber, password)</text><path d="M518,145.2188 L703,145.2188 L703,160.7734 L693,170.7734 L518,170.7734 L518,145.2188 " fill="#EEEEEE" style="stroke:#000000;stroke-width:1.5;"/><rect fill="none" height="373.5469" style="stroke:#000000;stroke-width:1.5;" width="836.5" x="518" y="145.2188"/><text fill="#000000" font-family="sans-serif" font-size="20" font-weight="bold" lengthAdjust="spacing" textLength="140" x="533" y="165.5547">Register User</text><polygon fill="#181818" points="1260.5,219.8828,1270.5,223.8828,1260.5,227.8828,1264.5,223.8828" style="stroke:#181818;stroke-width:1.0;"/><line style="stroke:#181818;stroke-width:1.0;" x1="609" x2="1266.5" y1="223.8828" y2="223.8828"/><text fill="#000000" font-family="sans-serif" font-size="20" font-weight="bold" lengthAdjust="spacing" textLength="31" x="616" y="205.8867">7.1</text><text fill="#000000" font-family="sans-serif" font-size="20" lengthAdjust="spacing" textLength="402" x="651" y="194.1094">registerUser(name, passportCardNumber,</text><text fill="#000000" font-family="sans-serif" font-size="20" lengthAdjust="spacing" textLength="453" x="657" y="217.6641">taxNumber, address, email, telephoneNumber)</text><rect fill="#E3E3E3" height="61.1094" rx="2.5" ry="2.5" style="stroke:#181818;stroke-width:0.5;" width="72" x="1272.5" y="170.7734"/><text fill="#000000" font-family="sans-serif" font-size="20" lengthAdjust="spacing" textLength="58" x="1279.5" y="197.1094">client:</text><text fill="#000000" font-family="sans-serif" font-size="20" lengthAdjust="spacing" textLength="56" x="1280.5" y="220.6641">Client</text><line style="stroke:#181818;stroke-width:1.0;" x1="609" x2="651" y1="272.4375" y2="272.4375"/><line style="stroke:#181818;stroke-width:1.0;" x1="651" x2="651" y1="272.4375" y2="285.4375"/><line style="stroke:#181818;stroke-width:1.0;" x1="610" x2="651" y1="285.4375" y2="285.4375"/><polygon fill="#181818" points="620,281.4375,610,285.4375,620,289.4375,616,285.4375" style="stroke:#181818;stroke-width:1.0;"/><text fill="#000000" font-family="sans-serif" font-size="20" font-weight="bold" lengthAdjust="spacing" textLength="31" x="616" y="266.2188">7.2</text><text fill="#000000" font-family="sans-serif" font-size="20" lengthAdjust="spacing" textLength="197" x="651" y="266.2188">validateClient(client)</text><polygon fill="#181818" points="843,318.9922,853,322.9922,843,326.9922,847,322.9922" style="stroke:#181818;stroke-width:1.0;"/><line style="stroke:#181818;stroke-width:1.0;" x1="609" x2="849" y1="322.9922" y2="322.9922"/><text fill="#000000" font-family="sans-serif" font-size="20" font-weight="bold" lengthAdjust="spacing" textLength="31" x="616" y="316.7734">7.3</text><text fill="#000000" font-family="sans-serif" font-size="20" lengthAdjust="spacing" textLength="123" x="651" y="316.7734">getInstance()</text><polygon fill="#181818" points="620,356.5469,610,360.5469,620,364.5469,616,360.5469" style="stroke:#181818;stroke-width:1.0;"/><line style="stroke:#181818;stroke-width:1.0;stroke-dasharray:2.0,2.0;" x1="614" x2="859" y1="360.5469" y2="360.5469"/><text fill="#000000" font-family="sans-serif" font-size="20" font-weight="bold" lengthAdjust="spacing" textLength="31" x="626" y="354.3281">7.4</text><text fill="#000000" font-family="sans-serif" font-size="20" lengthAdjust="spacing" textLength="114" x="661" y="354.3281">repositories</text><polygon fill="#181818" points="992,394.1016,1002,398.1016,992,402.1016,996,398.1016" style="stroke:#181818;stroke-width:1.0;"/><line style="stroke:#181818;stroke-width:1.0;" x1="609" x2="998" y1="398.1016" y2="398.1016"/><text fill="#000000" font-family="sans-serif" font-size="20" font-weight="bold" lengthAdjust="spacing" textLength="31" x="616" y="391.8828">7.5</text><text fill="#000000" font-family="sans-serif" font-size="20" lengthAdjust="spacing" textLength="202" x="651" y="391.8828">getClientRepository()</text><polygon fill="#181818" points="620,431.6563,610,435.6563,620,439.6563,616,435.6563" style="stroke:#181818;stroke-width:1.0;"/><line style="stroke:#181818;stroke-width:1.0;stroke-dasharray:2.0,2.0;" x1="614" x2="1008" y1="435.6563" y2="435.6563"/><text fill="#000000" font-family="sans-serif" font-size="20" font-weight="bold" lengthAdjust="spacing" textLength="31" x="626" y="429.4375">7.6</text><text fill="#000000" font-family="sans-serif" font-size="20" lengthAdjust="spacing" textLength="158" x="661" y="429.4375">ClientRepository</text><polygon fill="#181818" points="1158.5,469.2109,1168.5,473.2109,1158.5,477.2109,1162.5,473.2109" style="stroke:#181818;stroke-width:1.0;"/><line style="stroke:#181818;stroke-width:1.0;" x1="609" x2="1164.5" y1="473.2109" y2="473.2109"/><text fill="#000000" font-family="sans-serif" font-size="20" font-weight="bold" lengthAdjust="spacing" textLength="31" x="616" y="466.9922">7.7</text><text fill="#000000" font-family="sans-serif" font-size="20" lengthAdjust="spacing" textLength="159" x="651" y="466.9922">addClient(client)</text><polygon fill="#181818" points="620,506.7656,610,510.7656,620,514.7656,616,510.7656" style="stroke:#181818;stroke-width:1.0;"/><line style="stroke:#181818;stroke-width:1.0;stroke-dasharray:2.0,2.0;" x1="614" x2="1174.5" y1="510.7656" y2="510.7656"/><text fill="#000000" font-family="sans-serif" font-size="20" font-weight="bold" lengthAdjust="spacing" textLength="31" x="626" y="504.5469">7.8</text><text fill="#000000" font-family="sans-serif" font-size="20" lengthAdjust="spacing" textLength="6" x="661" y="504.5469"> </text><polygon fill="#181818" points="11,551.3203,1,555.3203,11,559.3203,7,555.3203" style="stroke:#181818;stroke-width:1.0;"/><line style="stroke:#181818;stroke-width:1.0;stroke-dasharray:2.0,2.0;" x1="5" x2="603" y1="555.3203" y2="555.3203"/><text fill="#000000" font-family="sans-serif" font-size="20" font-weight="bold" lengthAdjust="spacing" textLength="13" x="17" y="549.1016">8</text><text fill="#000000" font-family="sans-serif" font-size="20" lengthAdjust="spacing" textLength="236" x="34" y="549.1016">shows operation success</text><!--SRC=[jLCzRzim4DtrAmvPwWHsq7PfOHHT31Jea0mDkdcva6U9iCGJZgSuwQylRTKIfJYE4g2SHFBUlG-UmjRv6WMhaisMB5ZQO5Fg3_Pwv_uGVFwOXMC9LEpP5C8LWKf3oKsDPeivtUbJII1a57rUfWMXGCixvtFOO1aeox1HzarrJv9b7mfd2JRCUi-FWvi8LcTSZLxXea8VELQb8w_BjRz9jXU00MwmtGnHorzKSt3AuYWSwjA3OQqaDsl_72al8is1kGCyHNshqT6XGtTu2jw1ZgLPcXDyYLiuhiNtpYyiex3S1INv7KXc7YkQnoS9eMRH5OgzFJIOhpqeFlxR05eh5C8Sg49Npa6ffBfWJyU2VOSTYxtiMD6eUq2bFkfKtlMdNbyktDGnwLOMx7NrbvtmQ29-NLtz7mUNfncJs1wmT3RwQGzcxIky04k78K9pqfy-n3atDEi3Ehsws0QJzmfemBSOFtVIvtmRI-zYJvtBC-VZqPwUW4pN86S260l8fcRm1lxHbBPyaJjEtMXUfbdlV_tpW9uhDJtPuGaQyhRV97_irxDDloqMVGRHToXu5u1h4bJ77a9ZJFpx9WlhdEpNNm00]--></g></svg>