<?xml version="1.0" encoding="UTF-8" standalone="no"?><svg xmlns="http://www.w3.org/2000/svg" xmlns:xlink="http://www.w3.org/1999/xlink" contentStyleType="text/css" height="704px" preserveAspectRatio="none" style="width:2006px;height:704px;background:#FFFFFF;" version="1.1" viewBox="0 0 2006 704" width="2006px" zoomAndPan="magnify"><defs/><g><rect fill="#FFFFFF" height="509.3203" style="stroke:#181818;stroke-width:1.0;" width="10" x="89" y="98.5547"/><rect fill="#FFFFFF" height="37.5547" style="stroke:#181818;stroke-width:1.0;" width="10" x="698" y="128.1094"/><rect fill="#FFFFFF" height="37.5547" style="stroke:#181818;stroke-width:1.0;" width="10" x="698" y="226.7734"/><rect fill="#FFFFFF" height="296.9922" style="stroke:#181818;stroke-width:1.0;" width="10" x="698" y="301.8828"/><rect fill="#FFFFFF" height="244.8828" style="stroke:#181818;stroke-width:1.0;" width="10" x="1307" y="362.9922"/><rect fill="#FFFFFF" height="99.6641" style="stroke:#181818;stroke-width:1.0;" width="10" x="1916" y="424.1016"/><line style="stroke:#181818;stroke-width:0.5;stroke-dasharray:5.0,5.0;" x1="94" x2="94" y1="88.5547" y2="616.875"/><line style="stroke:#181818;stroke-width:0.5;stroke-dasharray:5.0,5.0;" x1="702.5" x2="702.5" y1="88.5547" y2="616.875"/><line style="stroke:#181818;stroke-width:0.5;stroke-dasharray:5.0,5.0;" x1="1311.5" x2="1311.5" y1="88.5547" y2="616.875"/><line style="stroke:#181818;stroke-width:0.5;stroke-dasharray:5.0,5.0;" x1="1921" x2="1921" y1="88.5547" y2="616.875"/><text fill="#000000" font-family="sans-serif" font-size="20" lengthAdjust="spacing" textLength="172" x="5" y="84.3359">Unregistered User</text><ellipse cx="94" cy="13.5" fill="#E3E3E3" rx="8" ry="8" style="stroke:#181818;stroke-width:0.5;"/><path d="M94,21.5 L94,48.5 M81,29.5 L107,29.5 M94,48.5 L81,63.5 M94,48.5 L107,63.5 " fill="none" style="stroke:#181818;stroke-width:0.5;"/><text fill="#000000" font-family="sans-serif" font-size="20" lengthAdjust="spacing" textLength="172" x="5" y="635.2109">Unregistered User</text><ellipse cx="94" cy="647.9297" fill="#E3E3E3" rx="8" ry="8" style="stroke:#181818;stroke-width:0.5;"/><path d="M94,655.9297 L94,682.9297 M81,663.9297 L107,663.9297 M94,682.9297 L81,697.9297 M94,682.9297 L107,697.9297 " fill="none" style="stroke:#181818;stroke-width:0.5;"/><rect fill="#E3E3E3" height="37.5547" rx="2.5" ry="2.5" style="stroke:#181818;stroke-width:0.5;" width="161" x="622.5" y="50"/><text fill="#000000" font-family="sans-serif" font-size="20" lengthAdjust="spacing" textLength="147" x="629.5" y="76.3359">:RegisterUserUI</text><rect fill="#E3E3E3" height="37.5547" rx="2.5" ry="2.5" style="stroke:#181818;stroke-width:0.5;" width="161" x="622.5" y="615.875"/><text fill="#000000" font-family="sans-serif" font-size="20" lengthAdjust="spacing" textLength="147" x="629.5" y="642.2109">:RegisterUserUI</text><rect fill="#E3E3E3" height="37.5547" rx="2.5" ry="2.5" style="stroke:#181818;stroke-width:0.5;" width="237" x="1193.5" y="50"/><text fill="#000000" font-family="sans-serif" font-size="20" lengthAdjust="spacing" textLength="223" x="1200.5" y="76.3359">:RegisterUserController</text><rect fill="#E3E3E3" height="37.5547" rx="2.5" ry="2.5" style="stroke:#181818;stroke-width:0.5;" width="237" x="1193.5" y="615.875"/><text fill="#000000" font-family="sans-serif" font-size="20" lengthAdjust="spacing" textLength="223" x="1200.5" y="642.2109">:RegisterUserController</text><rect fill="#E3E3E3" height="61.1094" rx="2.5" ry="2.5" style="stroke:#181818;stroke-width:0.5;" width="152" x="1845" y="26.4453"/><text fill="#000000" font-family="sans-serif" font-size="20" lengthAdjust="spacing" textLength="138" x="1852" y="52.7813">manageClient:</text><text fill="#000000" font-family="sans-serif" font-size="20" lengthAdjust="spacing" textLength="130" x="1856" y="76.3359">ManageClient</text><rect fill="#E3E3E3" height="61.1094" rx="2.5" ry="2.5" style="stroke:#181818;stroke-width:0.5;" width="152" x="1845" y="615.875"/><text fill="#000000" font-family="sans-serif" font-size="20" lengthAdjust="spacing" textLength="138" x="1852" y="642.2109">manageClient:</text><text fill="#000000" font-family="sans-serif" font-size="20" lengthAdjust="spacing" textLength="130" x="1856" y="665.7656">ManageClient</text><rect fill="#FFFFFF" height="509.3203" style="stroke:#181818;stroke-width:1.0;" width="10" x="89" y="98.5547"/><rect fill="#FFFFFF" height="37.5547" style="stroke:#181818;stroke-width:1.0;" width="10" x="698" y="128.1094"/><rect fill="#FFFFFF" height="37.5547" style="stroke:#181818;stroke-width:1.0;" width="10" x="698" y="226.7734"/><rect fill="#FFFFFF" height="296.9922" style="stroke:#181818;stroke-width:1.0;" width="10" x="698" y="301.8828"/><rect fill="#FFFFFF" height="244.8828" style="stroke:#181818;stroke-width:1.0;" width="10" x="1307" y="362.9922"/><rect fill="#FFFFFF" height="99.6641" style="stroke:#181818;stroke-width:1.0;" width="10" x="1916" y="424.1016"/><polygon fill="#181818" points="686,124.1094,696,128.1094,686,132.1094,690,128.1094" style="stroke:#181818;stroke-width:1.0;"/><line style="stroke:#181818;stroke-width:1.0;" x1="99" x2="692" y1="128.1094" y2="128.1094"/><text fill="#000000" font-family="sans-serif" font-size="20" font-weight="bold" lengthAdjust="spacing" textLength="13" x="106" y="121.8906">1</text><text fill="#000000" font-family="sans-serif" font-size="20" lengthAdjust="spacing" textLength="280" x="123" y="121.8906">asks to register in the system</text><polygon fill="#181818" points="110,161.6641,100,165.6641,110,169.6641,106,165.6641" style="stroke:#181818;stroke-width:1.0;"/><line style="stroke:#181818;stroke-width:1.0;stroke-dasharray:2.0,2.0;" x1="104" x2="702" y1="165.6641" y2="165.6641"/><text fill="#000000" font-family="sans-serif" font-size="20" font-weight="bold" lengthAdjust="spacing" textLength="13" x="116" y="159.4453">2</text><text fill="#000000" font-family="sans-serif" font-size="20" lengthAdjust="spacing" textLength="130" x="133" y="159.4453">requests data</text><polygon fill="#181818" points="686,222.7734,696,226.7734,686,230.7734,690,226.7734" style="stroke:#181818;stroke-width:1.0;"/><line style="stroke:#181818;stroke-width:1.0;" x1="99" x2="692" y1="226.7734" y2="226.7734"/><text fill="#000000" font-family="sans-serif" font-size="20" font-weight="bold" lengthAdjust="spacing" textLength="13" x="106" y="208.7773">3</text><text fill="#000000" font-family="sans-serif" font-size="20" lengthAdjust="spacing" textLength="493" x="123" y="197">types requested data (name, passportCardNumber,</text><text fill="#000000" font-family="sans-serif" font-size="20" lengthAdjust="spacing" textLength="557" x="129" y="220.5547">taxNumber, address, email, telephoneNumber, password)</text><polygon fill="#181818" points="110,260.3281,100,264.3281,110,268.3281,106,264.3281" style="stroke:#181818;stroke-width:1.0;"/><line style="stroke:#181818;stroke-width:1.0;stroke-dasharray:2.0,2.0;" x1="104" x2="702" y1="264.3281" y2="264.3281"/><text fill="#000000" font-family="sans-serif" font-size="20" font-weight="bold" lengthAdjust="spacing" textLength="13" x="116" y="258.1094">4</text><text fill="#000000" font-family="sans-serif" font-size="20" lengthAdjust="spacing" textLength="209" x="133" y="258.1094">shows requested data</text><polygon fill="#181818" points="686,297.8828,696,301.8828,686,305.8828,690,301.8828" style="stroke:#181818;stroke-width:1.0;"/><line style="stroke:#181818;stroke-width:1.0;" x1="99" x2="692" y1="301.8828" y2="301.8828"/><text fill="#000000" font-family="sans-serif" font-size="20" font-weight="bold" lengthAdjust="spacing" textLength="13" x="106" y="295.6641">5</text><text fill="#000000" font-family="sans-serif" font-size="20" lengthAdjust="spacing" textLength="125" x="123" y="295.6641">submits data</text><polygon fill="#181818" points="1295,358.9922,1305,362.9922,1295,366.9922,1299,362.9922" style="stroke:#181818;stroke-width:1.0;"/><line style="stroke:#181818;stroke-width:1.0;" x1="708" x2="1301" y1="362.9922" y2="362.9922"/><text fill="#000000" font-family="sans-serif" font-size="20" font-weight="bold" lengthAdjust="spacing" textLength="13" x="715" y="344.9961">6</text><text fill="#000000" font-family="sans-serif" font-size="20" lengthAdjust="spacing" textLength="402" x="732" y="333.2188">registerUser(name, passportCardNumber,</text><text fill="#000000" font-family="sans-serif" font-size="20" lengthAdjust="spacing" textLength="557" x="738" y="356.7734">taxNumber, address, email, telephoneNumber, password)</text><polygon fill="#181818" points="1904,420.1016,1914,424.1016,1904,428.1016,1908,424.1016" style="stroke:#181818;stroke-width:1.0;"/><line style="stroke:#181818;stroke-width:1.0;" x1="1317" x2="1910" y1="424.1016" y2="424.1016"/><text fill="#000000" font-family="sans-serif" font-size="20" font-weight="bold" lengthAdjust="spacing" textLength="13" x="1324" y="406.1055">7</text><text fill="#000000" font-family="sans-serif" font-size="20" lengthAdjust="spacing" textLength="402" x="1341" y="394.3281">registerUser(name, passportCardNumber,</text><text fill="#000000" font-family="sans-serif" font-size="20" lengthAdjust="spacing" textLength="557" x="1347" y="417.8828">taxNumber, address, email, telephoneNumber, password)</text><rect fill="none" height="57.1094" style="stroke:#000000;stroke-width:1.5;" width="158" x="1842" y="432.1016"/><path d="M1842,432.1016 L1916,432.1016 L1916,447.1016 L1906,457.1016 L1842,457.1016 L1842,432.1016 " fill="#EEEEEE" style="stroke:#000000;stroke-width:2.0;"/><text fill="#000000" font-family="sans-serif" font-size="20" font-weight="bold" lengthAdjust="spacing" textLength="29" x="1855" y="453.4375">ref</text><text fill="#000000" font-family="sans-serif" font-size="20" lengthAdjust="spacing" textLength="127" x="1857.5" y="480.4375">Register User</text><polygon fill="#181818" points="1328,519.7656,1318,523.7656,1328,527.7656,1324,523.7656" style="stroke:#181818;stroke-width:1.0;"/><line style="stroke:#181818;stroke-width:1.0;stroke-dasharray:2.0,2.0;" x1="1322" x2="1920" y1="523.7656" y2="523.7656"/><text fill="#000000" font-family="sans-serif" font-size="20" font-weight="bold" lengthAdjust="spacing" textLength="13" x="1334" y="517.5469">8</text><text fill="#000000" font-family="sans-serif" font-size="20" lengthAdjust="spacing" textLength="236" x="1351" y="517.5469">shows operation success</text><polygon fill="#181818" points="719,557.3203,709,561.3203,719,565.3203,715,561.3203" style="stroke:#181818;stroke-width:1.0;"/><line style="stroke:#181818;stroke-width:1.0;stroke-dasharray:2.0,2.0;" x1="713" x2="1306" y1="561.3203" y2="561.3203"/><text fill="#000000" font-family="sans-serif" font-size="20" font-weight="bold" lengthAdjust="spacing" textLength="13" x="725" y="555.1016">9</text><text fill="#000000" font-family="sans-serif" font-size="20" lengthAdjust="spacing" textLength="236" x="742" y="555.1016">shows operation success</text><polygon fill="#181818" points="110,594.875,100,598.875,110,602.875,106,598.875" style="stroke:#181818;stroke-width:1.0;"/><line style="stroke:#181818;stroke-width:1.0;stroke-dasharray:2.0,2.0;" x1="104" x2="702" y1="598.875" y2="598.875"/><text fill="#000000" font-family="sans-serif" font-size="20" font-weight="bold" lengthAdjust="spacing" textLength="26" x="116" y="592.6563">10</text><text fill="#000000" font-family="sans-serif" font-size="20" lengthAdjust="spacing" textLength="236" x="146" y="592.6563">shows operation success</text><!--SRC=[nLInRjim4Dtv5GSlRG4RA3fwo6AWG8TqgE4jorayMuGfdiexnN6_lXHjEP9Y2m6Ae3U9VCV7zyX7oS656YDMdei3MR2qmyRhTmwwTdy8ldqrqhL0nO6BCd95eB6X7b9ZSS0zhVNa2I8LYc7l-mrIekMZ2tlOeHSo1Xlbq5HRYiPyAfqbs37hbby621RA4MQR46dlH2acYHkXE0CKsBHV9l6hAroDGM6s_7NfQw7DZzmsd9heNoNJaRs_q5-XTHyQhgym9DihxoZeyYayzeQPun7F0vEjk6TKkiWsa2f_mk9Xf16MQUr1G1awt-02Q4aWfpIgyk8huSXW1jiQaIxIFkSDbudsTqEY0XOLym9BatptbUgf9ka8smGbHlWSiA9vYeL8pL5N6EtFVANpf-G3Nou3G6iZYSo1AdH-3agUwf83TGqjmv6Z_J9jETSxV4l9nx7OVxClpRPo_OESv1bBUxYJidn5hwqVT9otvGxZ_lPKXqAJXIxa_q7qw_lge4WxuESax0h1i3eV-Jyo1YdObi6CvuTrDRoOki1prhYcYEeufAGKHV8vJTtBuLjlD-lUlTmCwnr9xtywj-rCl1xp5m00]--></g></svg>