<?xml version="1.0" encoding="UTF-8" standalone="no"?><svg xmlns="http://www.w3.org/2000/svg" xmlns:xlink="http://www.w3.org/1999/xlink" contentStyleType="text/css" height="1114px" preserveAspectRatio="none" style="width:739px;height:1114px;background:#FFFFFF;" version="1.1" viewBox="0 0 739 1114" width="739px" zoomAndPan="magnify"><defs/><g><!--class Client--><g id="elem_Client"><rect codeLine="11" fill="#F1F1F1" height="238.4375" id="Client" rx="2.5" ry="2.5" style="stroke:#181818;stroke-width:0.5;" width="490" x="175" y="869"/><ellipse cx="387.5" cy="886" fill="#ADD1B2" rx="12" ry="12" style="stroke:#181818;stroke-width:1.0;"/><path d="M390.3066,893.0801 Q389.623,893.4316 388.8711,893.6074 Q388.1191,893.7832 387.2891,893.7832 Q384.3398,893.7832 382.7871,891.8398 Q381.2344,889.8965 381.2344,886.2246 Q381.2344,882.543 382.7871,880.5996 Q384.3398,878.6563 387.2891,878.6563 Q388.1191,878.6563 388.8809,878.832 Q389.6426,879.0078 390.3066,879.3594 L390.3066,882.5625 Q389.5645,881.8789 388.8662,881.5615 Q388.168,881.2441 387.4258,881.2441 Q385.8438,881.2441 385.0381,882.499 Q384.2324,883.7539 384.2324,886.2246 Q384.2324,888.6855 385.0381,889.9404 Q385.8438,891.1953 387.4258,891.1953 Q388.168,891.1953 388.8662,890.8779 Q389.5645,890.5605 390.3066,889.877 Z " fill="#000000"/><text fill="#000000" font-family="sans-serif" font-size="20" lengthAdjust="spacing" textLength="56" x="409.5" y="893.5586">Client</text><line style="stroke:#181818;stroke-width:0.5;" x1="176" x2="664" y1="903" y2="903"/><text fill="#000000" font-family="sans-serif" font-size="20" lengthAdjust="spacing" textLength="127" x="181" y="926.3359">-String name</text><text fill="#000000" font-family="sans-serif" font-size="20" lengthAdjust="spacing" textLength="247" x="181" y="949.8906">-String telephoneNumber</text><text fill="#000000" font-family="sans-serif" font-size="20" lengthAdjust="spacing" textLength="124" x="181" y="973.4453">-Email email</text><text fill="#000000" font-family="sans-serif" font-size="20" lengthAdjust="spacing" textLength="354" x="181" y="997">-PassportCard passportCardNumber</text><text fill="#000000" font-family="sans-serif" font-size="20" lengthAdjust="spacing" textLength="303" x="181" y="1020.5547">-SocialSecurityCard taxNumber</text><text fill="#000000" font-family="sans-serif" font-size="20" lengthAdjust="spacing" textLength="173" x="181" y="1044.1094">-Address address</text><line style="stroke:#181818;stroke-width:0.5;" x1="176" x2="664" y1="1052.3281" y2="1052.3281"/><text fill="#000000" font-family="sans-serif" font-size="20" lengthAdjust="spacing" textLength="478" x="181" y="1075.6641">+Client(name, passportCardNumber, taxNumber,</text><text fill="#000000" font-family="sans-serif" font-size="20" lengthAdjust="spacing" textLength="412" x="187" y="1099.2188">address, emailAddress, telephoneNumber)</text></g><!--class ClientRepository--><g id="elem_ClientRepository"><rect codeLine="22" fill="#F1F1F1" height="97.1094" id="ClientRepository" rx="2.5" ry="2.5" style="stroke:#181818;stroke-width:0.5;" width="326" x="149" y="711"/><ellipse cx="228.5" cy="728" fill="#ADD1B2" rx="12" ry="12" style="stroke:#181818;stroke-width:1.0;"/><path d="M231.3066,735.0801 Q230.623,735.4316 229.8711,735.6074 Q229.1191,735.7832 228.2891,735.7832 Q225.3398,735.7832 223.7871,733.8398 Q222.2344,731.8965 222.2344,728.2246 Q222.2344,724.543 223.7871,722.5996 Q225.3398,720.6563 228.2891,720.6563 Q229.1191,720.6563 229.8809,720.832 Q230.6426,721.0078 231.3066,721.3594 L231.3066,724.5625 Q230.5645,723.8789 229.8662,723.5615 Q229.168,723.2441 228.4258,723.2441 Q226.8438,723.2441 226.0381,724.499 Q225.2324,725.7539 225.2324,728.2246 Q225.2324,730.6855 226.0381,731.9404 Q226.8438,733.1953 228.4258,733.1953 Q229.168,733.1953 229.8662,732.8779 Q230.5645,732.5605 231.3066,731.877 Z " fill="#000000"/><text fill="#000000" font-family="sans-serif" font-size="20" lengthAdjust="spacing" textLength="158" x="250.5" y="735.5586">ClientRepository</text><line style="stroke:#181818;stroke-width:0.5;" x1="150" x2="474" y1="745" y2="745"/><line style="stroke:#181818;stroke-width:0.5;" x1="150" x2="474" y1="753" y2="753"/><text fill="#000000" font-family="sans-serif" font-size="20" lengthAdjust="spacing" textLength="314" x="155" y="776.3359">+ManageClient(clientRepository)</text><text fill="#000000" font-family="sans-serif" font-size="20" lengthAdjust="spacing" textLength="171" x="155" y="799.8906">-addClient(client)</text></g><!--class Repositories--><g id="elem_Repositories"><rect codeLine="27" fill="#F1F1F1" height="120.6641" id="Repositories" rx="2.5" ry="2.5" style="stroke:#181818;stroke-width:0.5;" width="288" x="7" y="529"/><ellipse cx="87" cy="546" fill="#ADD1B2" rx="12" ry="12" style="stroke:#181818;stroke-width:1.0;"/><path d="M89.8066,553.0801 Q89.123,553.4316 88.3711,553.6074 Q87.6191,553.7832 86.7891,553.7832 Q83.8398,553.7832 82.2871,551.8398 Q80.7344,549.8965 80.7344,546.2246 Q80.7344,542.543 82.2871,540.5996 Q83.8398,538.6563 86.7891,538.6563 Q87.6191,538.6563 88.3809,538.832 Q89.1426,539.0078 89.8066,539.3594 L89.8066,542.5625 Q89.0645,541.8789 88.3662,541.5615 Q87.668,541.2441 86.9258,541.2441 Q85.3438,541.2441 84.5381,542.499 Q83.7324,543.7539 83.7324,546.2246 Q83.7324,548.6855 84.5381,549.9404 Q85.3438,551.1953 86.9258,551.1953 Q87.668,551.1953 88.3662,550.8779 Q89.0645,550.5605 89.8066,549.877 Z " fill="#000000"/><text fill="#000000" font-family="sans-serif" font-size="20" lengthAdjust="spacing" textLength="119" x="109" y="553.5586">Repositories</text><line style="stroke:#181818;stroke-width:0.5;" x1="8" x2="294" y1="563" y2="563"/><line style="stroke:#181818;stroke-width:0.5;" x1="8" x2="294" y1="571" y2="571"/><text fill="#000000" font-family="sans-serif" font-size="20" lengthAdjust="spacing" textLength="145" x="13" y="594.3359">-Repositories()</text><text fill="#000000" font-family="sans-serif" font-size="20" lengthAdjust="spacing" textLength="276" x="13" y="617.8906">+getInstance() : Repositories</text><text fill="#000000" font-family="sans-serif" font-size="20" lengthAdjust="spacing" textLength="218" x="13" y="641.4453">+getClientRepository()</text></g><!--class RegisterClientController--><g id="elem_RegisterClientController"><rect codeLine="33" fill="#F1F1F1" height="120.6641" id="RegisterClientController" rx="2.5" ry="2.5" style="stroke:#181818;stroke-width:0.5;" width="550" x="182" y="118"/><ellipse cx="337.5" cy="135" fill="#ADD1B2" rx="12" ry="12" style="stroke:#181818;stroke-width:1.0;"/><path d="M340.3066,142.0801 Q339.623,142.4316 338.8711,142.6074 Q338.1191,142.7832 337.2891,142.7832 Q334.3398,142.7832 332.7871,140.8398 Q331.2344,138.8965 331.2344,135.2246 Q331.2344,131.543 332.7871,129.5996 Q334.3398,127.6563 337.2891,127.6563 Q338.1191,127.6563 338.8809,127.832 Q339.6426,128.0078 340.3066,128.3594 L340.3066,131.5625 Q339.5645,130.8789 338.8662,130.5615 Q338.168,130.2441 337.4258,130.2441 Q335.8438,130.2441 335.0381,131.499 Q334.2324,132.7539 334.2324,135.2246 Q334.2324,137.6855 335.0381,138.9404 Q335.8438,140.1953 337.4258,140.1953 Q338.168,140.1953 338.8662,139.8779 Q339.5645,139.5605 340.3066,138.877 Z " fill="#000000"/><text fill="#000000" font-family="sans-serif" font-size="20" lengthAdjust="spacing" textLength="230" x="359.5" y="142.5586">RegisterClientController</text><line style="stroke:#181818;stroke-width:0.5;" x1="183" x2="731" y1="152" y2="152"/><line style="stroke:#181818;stroke-width:0.5;" x1="183" x2="731" y1="160" y2="160"/><text fill="#000000" font-family="sans-serif" font-size="20" lengthAdjust="spacing" textLength="494" x="188" y="183.3359">+RegisterClientController(manageClientRepository)</text><text fill="#000000" font-family="sans-serif" font-size="20" lengthAdjust="spacing" textLength="538" x="188" y="206.8906">+registerUser(name, passportCardNumber, taxNumber,</text><text fill="#000000" font-family="sans-serif" font-size="20" lengthAdjust="spacing" textLength="516" x="194" y="230.4453">address, emailAddress, telephoneNumber, password)</text></g><!--class RegisterClientUI--><g id="elem_RegisterClientUI"><rect codeLine="38" fill="#F1F1F1" height="50" id="RegisterClientUI" rx="2.5" ry="2.5" style="stroke:#181818;stroke-width:0.5;" width="188" x="363" y="7"/><ellipse cx="379" cy="24" fill="#ADD1B2" rx="12" ry="12" style="stroke:#181818;stroke-width:1.0;"/><path d="M381.8066,31.0801 Q381.123,31.4316 380.3711,31.6074 Q379.6191,31.7832 378.7891,31.7832 Q375.8398,31.7832 374.2871,29.8398 Q372.7344,27.8965 372.7344,24.2246 Q372.7344,20.543 374.2871,18.5996 Q375.8398,16.6563 378.7891,16.6563 Q379.6191,16.6563 380.3809,16.832 Q381.1426,17.0078 381.8066,17.3594 L381.8066,20.5625 Q381.0645,19.8789 380.3662,19.5615 Q379.668,19.2441 378.9258,19.2441 Q377.3438,19.2441 376.5381,20.499 Q375.7324,21.7539 375.7324,24.2246 Q375.7324,26.6855 376.5381,27.9404 Q377.3438,29.1953 378.9258,29.1953 Q379.668,29.1953 380.3662,28.8779 Q381.0645,28.5605 381.8066,27.877 Z " fill="#000000"/><text fill="#000000" font-family="sans-serif" font-size="20" lengthAdjust="spacing" textLength="154" x="394" y="31.5586">RegisterClientUI</text><line style="stroke:#181818;stroke-width:0.5;" x1="364" x2="550" y1="41" y2="41"/><line style="stroke:#181818;stroke-width:0.5;" x1="364" x2="550" y1="49" y2="49"/></g><!--class ManageClientRepository--><g id="elem_ManageClientRepository"><rect codeLine="42" fill="#F1F1F1" height="144.2188" id="ManageClientRepository" rx="2.5" ry="2.5" style="stroke:#181818;stroke-width:0.5;" width="550" x="182" y="300"/><ellipse cx="336.5" cy="317" fill="#ADD1B2" rx="12" ry="12" style="stroke:#181818;stroke-width:1.0;"/><path d="M339.3066,324.0801 Q338.623,324.4316 337.8711,324.6074 Q337.1191,324.7832 336.2891,324.7832 Q333.3398,324.7832 331.7871,322.8398 Q330.2344,320.8965 330.2344,317.2246 Q330.2344,313.543 331.7871,311.5996 Q333.3398,309.6563 336.2891,309.6563 Q337.1191,309.6563 337.8809,309.832 Q338.6426,310.0078 339.3066,310.3594 L339.3066,313.5625 Q338.5645,312.8789 337.8662,312.5615 Q337.168,312.2441 336.4258,312.2441 Q334.8438,312.2441 334.0381,313.499 Q333.2324,314.7539 333.2324,317.2246 Q333.2324,319.6855 334.0381,320.9404 Q334.8438,322.1953 336.4258,322.1953 Q337.168,322.1953 337.8662,321.8779 Q338.5645,321.5605 339.3066,320.877 Z " fill="#000000"/><text fill="#000000" font-family="sans-serif" font-size="20" lengthAdjust="spacing" textLength="232" x="358.5" y="324.5586">ManageClientRepository</text><line style="stroke:#181818;stroke-width:0.5;" x1="183" x2="731" y1="334" y2="334"/><line style="stroke:#181818;stroke-width:0.5;" x1="183" x2="731" y1="342" y2="342"/><text fill="#000000" font-family="sans-serif" font-size="20" lengthAdjust="spacing" textLength="314" x="188" y="365.3359">+ManageClient(clientRepository)</text><text fill="#000000" font-family="sans-serif" font-size="20" lengthAdjust="spacing" textLength="538" x="188" y="388.8906">+registerUser(name, passportCardNumber, taxNumber,</text><text fill="#000000" font-family="sans-serif" font-size="20" lengthAdjust="spacing" textLength="516" x="194" y="412.4453">address, emailAddress, telephoneNumber, password)</text><text fill="#000000" font-family="sans-serif" font-size="20" lengthAdjust="spacing" textLength="209" x="188" y="436">-validateClient(client)</text></g><!--link RegisterClientUI to RegisterClientController--><g id="link_RegisterClientUI_RegisterClientController"><path codeLine="49" d="M457,57.19 C457,72.52 457,93.13 457,112.97 " fill="none" id="RegisterClientUI-to-RegisterClientController" style="stroke:#181818;stroke-width:1.0;stroke-dasharray:7.0,7.0;"/><polygon fill="#181818" points="457,117.99,461,108.99,457,112.99,453,108.99,457,117.99" style="stroke:#181818;stroke-width:1.0;"/></g><!--link Repositories to Repositories--><g id="link_Repositories_Repositories"><path codeLine="51" d="M295.32,574.31 C316.06,576.75 330,581.81 330,589.5 C330,596.53 318.35,601.36 300.51,604 " fill="none" id="Repositories-to-Repositories" style="stroke:#181818;stroke-width:1.0;"/><polygon fill="#181818" points="295.32,604.69,304.7676,607.4726,300.2766,604.0329,303.7163,599.542,295.32,604.69" style="stroke:#181818;stroke-width:1.0;"/><text fill="#000000" font-family="sans-serif" font-size="20" lengthAdjust="spacing" textLength="79" x="336" y="597.3359">instance</text></g><!--link RegisterClientController to ManageClientRepository--><g id="link_RegisterClientController_ManageClientRepository"><path codeLine="53" d="M457,239.04 C457,256.61 457,276.07 457,294.54 " fill="none" id="RegisterClientController-to-ManageClientRepository" style="stroke:#181818;stroke-width:1.0;stroke-dasharray:7.0,7.0;"/><polygon fill="#181818" points="457,299.72,461,290.72,457,294.72,453,290.72,457,299.72" style="stroke:#181818;stroke-width:1.0;"/></g><!--link ManageClientRepository to Repositories--><g id="link_ManageClientRepository_Repositories"><path codeLine="55" d="M355.96,444.16 C318.48,470.55 276.29,500.26 239.98,525.84 " fill="none" id="ManageClientRepository-to-Repositories" style="stroke:#181818;stroke-width:1.0;stroke-dasharray:7.0,7.0;"/><polygon fill="#181818" points="235.58,528.94,245.2434,527.0376,239.6708,526.065,240.6434,520.4924,235.58,528.94" style="stroke:#181818;stroke-width:1.0;"/><text fill="#000000" font-family="sans-serif" font-size="20" lengthAdjust="spacing" textLength="114" x="315" y="494.3359">repositories</text></g><!--link Repositories to ClientRepository--><g id="link_Repositories_ClientRepository"><path codeLine="57" d="M208.22,650.2 C225.95,668.7 245.32,688.93 262.49,706.83 " fill="none" id="Repositories-to-ClientRepository" style="stroke:#181818;stroke-width:1.0;"/><polygon fill="#181818" points="266.34,710.85,262.9722,701.5949,262.8693,707.2508,257.2134,707.1479,266.34,710.85" style="stroke:#181818;stroke-width:1.0;"/><text fill="#000000" font-family="sans-serif" font-size="20" lengthAdjust="spacing" textLength="13" x="246.005" y="698.7587">1</text></g><!--link ManageClientRepository to ClientRepository--><g id="link_ManageClientRepository_ClientRepository"><path codeLine="59" d="M447.73,444.33 C437.06,526.41 421,650 421,650 C421,650 391.78,679.09 363.6,707.14 " fill="none" id="ManageClientRepository-to-ClientRepository" style="stroke:#181818;stroke-width:1.0;stroke-dasharray:7.0,7.0;"/><polygon fill="#181818" points="359.81,710.91,369.0095,707.393,363.3527,707.3816,363.3641,701.7248,359.81,710.91" style="stroke:#181818;stroke-width:1.0;"/></g><!--link ManageClientRepository to Client--><g id="link_ManageClientRepository_Client"><path codeLine="61" d="M465.46,444.24 C467.45,460.96 469,474 469,474 C469,474 493,711 493,711 C493,711 493,808 493,808 C493,808 482.83,832.94 470.08,864.2 " fill="none" id="ManageClientRepository-to-Client" style="stroke:#181818;stroke-width:1.0;"/><polygon fill="#181818" points="468.18,868.85,475.28,862.0244,470.0665,864.2195,467.8713,859.006,468.18,868.85" style="stroke:#181818;stroke-width:1.0;"/><text fill="#000000" font-family="sans-serif" font-size="20" lengthAdjust="spacing" textLength="13" x="452.6468" y="471.5734">1</text><text fill="#000000" font-family="sans-serif" font-size="20" lengthAdjust="spacing" textLength="10" x="460.9462" y="856.8199">*</text></g><!--link ClientRepository to Client--><g id="link_ClientRepository_Client"><path codeLine="63" d="M334.77,808.26 C342.71,824.91 352.02,844.44 361.52,864.36 " fill="none" id="ClientRepository-to-Client" style="stroke:#181818;stroke-width:1.0;"/><polygon fill="#181818" points="363.68,868.88,363.4341,859.0342,361.5359,864.3631,356.207,862.4648,363.68,868.88" style="stroke:#181818;stroke-width:1.0;"/><text fill="#000000" font-family="sans-serif" font-size="20" lengthAdjust="spacing" textLength="13" x="323.8546" y="835.3453">1</text><text fill="#000000" font-family="sans-serif" font-size="20" lengthAdjust="spacing" textLength="10" x="349.7517" y="856.8518">*</text></g><!--SRC=[lLHDRzim3BthLmYz95bIezsnXm91q04vT1XYzBQBQZEE45ao96QTD-o_Z_978dyaQO5XESIM-FZu7adOxQKkX1MvCiaUKfx2LXmKVZ4QO_aB-ESxDd4jXkT6csHdJGuSxG7OALA8P2yoYB5Km2qaA7IcGe3RYTIyIPtnhL0kZ2Yf0Si2U65KwGzXnMFGM3Gio4gKS6w9QENh0M6T65tflMDiec2B70stCjiXJwMN8urchChXAoL18__DEFrkUKmKf4gB7Bet20gAdT7mzP2_Wcs2JxcGYeF_Rsw-4Mb1ybR2fjI7qw6J5vj42XL3Sh0IomgBucS7ianJ2oHGr4zMNSyRlLClS372lpZnBBxhDdbHIrosfvwP6VlJRSS62kCa6bisZPdpPw5featrf8UQDPgfN0SH41_14jons-7bTDPKoW3Nsj7A932TyOSEw0Jf2vrsQcNI8TWQiwBjjKOfi4Spvm3JF73PjpUdJQxJNXn1_-a4Qg8tOzEpDbxM99zYJV1vLEb7nlM__5IZ_Y6KJ0N2S3tOm6P4dmOTFPwTaay9bkdsiRjS3rmswzFd3ZOX8lxn5Z9sfhLHD2XamzNigI9PD_St_4FqxmPxvgh2fxO2O-y2qGUnxSbJNYXJ0eHTkU9mCcenfZC4eiTH6wEkWrfDOGik2YR5lV8aUaJGHOQkDF_96MYzc3zKJHmZLYPzgU64gXZbEV-aabrD8TA7_6ZeSQqxRNkkmpOrsuWLNxQzfhBGl0RWaxhxWOyHJ1JrJJ3s5m00]--></g></svg>