<?xml version="1.0" encoding="UTF-8" standalone="no"?><svg xmlns="http://www.w3.org/2000/svg" xmlns:xlink="http://www.w3.org/1999/xlink" contentStyleType="text/css" height="982px" preserveAspectRatio="none" style="width:1741px;height:982px;background:#FFFFFF;" version="1.1" viewBox="0 0 1741 982" width="1741px" zoomAndPan="magnify"><defs/><g><text fill="#000000" font-family="sans-serif" font-size="14" font-weight="bold" lengthAdjust="spacing" textLength="235" x="752.25" y="28.5352">Sequence Diagram (SD) - US 015</text><rect fill="#FFFFFF" height="749.0938" style="stroke:#181818;stroke-width:1.0;" width="10" x="31" y="136.043"/><rect fill="#FFFFFF" height="37.5547" style="stroke:#181818;stroke-width:1.0;" width="10" x="533" y="165.5977"/><rect fill="#FFFFFF" height="635.4297" style="stroke:#181818;stroke-width:1.0;" width="10" x="533" y="240.707"/><rect fill="#FFFFFF" height="558.3203" style="stroke:#181818;stroke-width:1.0;" width="10" x="1012" y="326.8164"/><rect fill="#FFFFFF" height="37.5547" style="stroke:#181818;stroke-width:1.0;" width="10" x="1244" y="364.3711"/><rect fill="#FFFFFF" height="37.5547" style="stroke:#181818;stroke-width:1.0;" width="10" x="1393" y="439.4805"/><rect fill="#FFFFFF" height="37.5547" style="stroke:#181818;stroke-width:1.0;" width="10" x="1393" y="514.5898"/><rect fill="#FFFFFF" height="37.5547" style="stroke:#181818;stroke-width:1.0;" width="10" x="1393" y="589.6992"/><rect fill="#FFFFFF" height="37.5547" style="stroke:#181818;stroke-width:1.0;" width="10" x="1601.5" y="664.8086"/><rect fill="#FFFFFF" height="37.5547" style="stroke:#181818;stroke-width:1.0;" width="10" x="1601.5" y="763.4727"/><line style="stroke:#181818;stroke-width:0.5;stroke-dasharray:5.0,5.0;" x1="36" x2="36" y1="126.043" y2="894.1367"/><line style="stroke:#181818;stroke-width:0.5;stroke-dasharray:5.0,5.0;" x1="537.5" x2="537.5" y1="126.043" y2="894.1367"/><line style="stroke:#181818;stroke-width:0.5;stroke-dasharray:5.0,5.0;" x1="1016.5" x2="1016.5" y1="282.9844" y2="894.1367"/><line style="stroke:#181818;stroke-width:0.5;stroke-dasharray:5.0,5.0;" x1="1248.5" x2="1248.5" y1="126.043" y2="894.1367"/><line style="stroke:#181818;stroke-width:0.5;stroke-dasharray:5.0,5.0;" x1="1397.5" x2="1397.5" y1="126.043" y2="894.1367"/><line style="stroke:#181818;stroke-width:0.5;stroke-dasharray:5.0,5.0;" x1="1606.5" x2="1606.5" y1="126.043" y2="894.1367"/><text fill="#000000" font-family="sans-serif" font-size="20" lengthAdjust="spacing" textLength="56" x="5" y="121.8242">Agent</text><ellipse cx="36" cy="50.9883" fill="#E3E3E3" rx="8" ry="8" style="stroke:#181818;stroke-width:0.5;"/><path d="M36,58.9883 L36,85.9883 M23,66.9883 L49,66.9883 M36,85.9883 L23,100.9883 M36,85.9883 L49,100.9883 " fill="none" style="stroke:#181818;stroke-width:0.5;"/><text fill="#000000" font-family="sans-serif" font-size="20" lengthAdjust="spacing" textLength="56" x="5" y="912.4727">Agent</text><ellipse cx="36" cy="925.1914" fill="#E3E3E3" rx="8" ry="8" style="stroke:#181818;stroke-width:0.5;"/><path d="M36,933.1914 L36,960.1914 M23,941.1914 L49,941.1914 M36,960.1914 L23,975.1914 M36,960.1914 L49,975.1914 " fill="none" style="stroke:#181818;stroke-width:0.5;"/><rect fill="#E3E3E3" height="37.5547" rx="2.5" ry="2.5" style="stroke:#181818;stroke-width:0.5;" width="229" x="423.5" y="87.4883"/><text fill="#000000" font-family="sans-serif" font-size="20" lengthAdjust="spacing" textLength="215" x="430.5" y="113.8242">:ListBookingRequestUI</text><rect fill="#E3E3E3" height="37.5547" rx="2.5" ry="2.5" style="stroke:#181818;stroke-width:0.5;" width="229" x="423.5" y="893.1367"/><text fill="#000000" font-family="sans-serif" font-size="20" lengthAdjust="spacing" textLength="215" x="430.5" y="919.4727">:ListBookingRequestUI</text><rect fill="#E3E3E3" height="37.5547" rx="2.5" ry="2.5" style="stroke:#181818;stroke-width:0.5;" width="305" x="864.5" y="893.1367"/><text fill="#000000" font-family="sans-serif" font-size="20" lengthAdjust="spacing" textLength="291" x="871.5" y="919.4727">:ListBookingRequestController</text><rect fill="#E3E3E3" height="37.5547" rx="2.5" ry="2.5" style="stroke:#181818;stroke-width:0.5;" width="139" x="1179.5" y="87.4883"/><text fill="#000000" font-family="sans-serif" font-size="20" lengthAdjust="spacing" textLength="125" x="1186.5" y="113.8242">:Repositories</text><rect fill="#E3E3E3" height="37.5547" rx="2.5" ry="2.5" style="stroke:#181818;stroke-width:0.5;" width="139" x="1179.5" y="893.1367"/><text fill="#000000" font-family="sans-serif" font-size="20" lengthAdjust="spacing" textLength="125" x="1186.5" y="919.4727">:Repositories</text><rect fill="#E3E3E3" height="61.1094" rx="2.5" ry="2.5" style="stroke:#181818;stroke-width:0.5;" width="139" x="1328.5" y="63.9336"/><text fill="#000000" font-family="sans-serif" font-size="20" lengthAdjust="spacing" textLength="114" x="1341" y="90.2695">repositories</text><text fill="#000000" font-family="sans-serif" font-size="20" lengthAdjust="spacing" textLength="125" x="1335.5" y="113.8242">:Repositories</text><rect fill="#E3E3E3" height="61.1094" rx="2.5" ry="2.5" style="stroke:#181818;stroke-width:0.5;" width="139" x="1328.5" y="893.1367"/><text fill="#000000" font-family="sans-serif" font-size="20" lengthAdjust="spacing" textLength="114" x="1341" y="919.4727">repositories</text><text fill="#000000" font-family="sans-serif" font-size="20" lengthAdjust="spacing" textLength="125" x="1335.5" y="943.0273">:Repositories</text><rect fill="#E3E3E3" height="61.1094" rx="2.5" ry="2.5" style="stroke:#181818;stroke-width:0.5;" width="258" x="1477.5" y="63.9336"/><text fill="#000000" font-family="sans-serif" font-size="20" lengthAdjust="spacing" textLength="244" x="1484.5" y="90.2695">advertisementRepository:</text><text fill="#000000" font-family="sans-serif" font-size="20" lengthAdjust="spacing" textLength="241" x="1486" y="113.8242">AdvertisementRepository</text><rect fill="#E3E3E3" height="61.1094" rx="2.5" ry="2.5" style="stroke:#181818;stroke-width:0.5;" width="258" x="1477.5" y="893.1367"/><text fill="#000000" font-family="sans-serif" font-size="20" lengthAdjust="spacing" textLength="244" x="1484.5" y="919.4727">advertisementRepository:</text><text fill="#000000" font-family="sans-serif" font-size="20" lengthAdjust="spacing" textLength="241" x="1486" y="943.0273">AdvertisementRepository</text><rect fill="#FFFFFF" height="749.0938" style="stroke:#181818;stroke-width:1.0;" width="10" x="31" y="136.043"/><rect fill="#FFFFFF" height="37.5547" style="stroke:#181818;stroke-width:1.0;" width="10" x="533" y="165.5977"/><rect fill="#FFFFFF" height="635.4297" style="stroke:#181818;stroke-width:1.0;" width="10" x="533" y="240.707"/><rect fill="#FFFFFF" height="558.3203" style="stroke:#181818;stroke-width:1.0;" width="10" x="1012" y="326.8164"/><rect fill="#FFFFFF" height="37.5547" style="stroke:#181818;stroke-width:1.0;" width="10" x="1244" y="364.3711"/><rect fill="#FFFFFF" height="37.5547" style="stroke:#181818;stroke-width:1.0;" width="10" x="1393" y="439.4805"/><rect fill="#FFFFFF" height="37.5547" style="stroke:#181818;stroke-width:1.0;" width="10" x="1393" y="514.5898"/><rect fill="#FFFFFF" height="37.5547" style="stroke:#181818;stroke-width:1.0;" width="10" x="1393" y="589.6992"/><rect fill="#FFFFFF" height="37.5547" style="stroke:#181818;stroke-width:1.0;" width="10" x="1601.5" y="664.8086"/><rect fill="#FFFFFF" height="37.5547" style="stroke:#181818;stroke-width:1.0;" width="10" x="1601.5" y="763.4727"/><polygon fill="#181818" points="521,161.5977,531,165.5977,521,169.5977,525,165.5977" style="stroke:#181818;stroke-width:1.0;"/><line style="stroke:#181818;stroke-width:1.0;" x1="41" x2="527" y1="165.5977" y2="165.5977"/><text fill="#000000" font-family="sans-serif" font-size="20" font-weight="bold" lengthAdjust="spacing" textLength="13" x="48" y="159.3789">1</text><text fill="#000000" font-family="sans-serif" font-size="20" lengthAdjust="spacing" textLength="400" x="65" y="159.3789">asks to list the property booking requests</text><polygon fill="#181818" points="52,199.1523,42,203.1523,52,207.1523,48,203.1523" style="stroke:#181818;stroke-width:1.0;"/><line style="stroke:#181818;stroke-width:1.0;stroke-dasharray:2.0,2.0;" x1="46" x2="537" y1="203.1523" y2="203.1523"/><text fill="#000000" font-family="sans-serif" font-size="20" font-weight="bold" lengthAdjust="spacing" textLength="13" x="58" y="196.9336">2</text><text fill="#000000" font-family="sans-serif" font-size="20" lengthAdjust="spacing" textLength="346" x="75" y="196.9336">requests beginning and ending date</text><polygon fill="#181818" points="521,236.707,531,240.707,521,244.707,525,240.707" style="stroke:#181818;stroke-width:1.0;"/><line style="stroke:#181818;stroke-width:1.0;" x1="41" x2="527" y1="240.707" y2="240.707"/><text fill="#000000" font-family="sans-serif" font-size="20" font-weight="bold" lengthAdjust="spacing" textLength="13" x="48" y="234.4883">3</text><text fill="#000000" font-family="sans-serif" font-size="20" lengthAdjust="spacing" textLength="341" x="65" y="234.4883">submits beginning and ending date</text><polygon fill="#181818" points="852.5,274.2617,862.5,278.2617,852.5,282.2617,856.5,278.2617" style="stroke:#181818;stroke-width:1.0;"/><line style="stroke:#181818;stroke-width:1.0;" x1="543" x2="858.5" y1="278.2617" y2="278.2617"/><text fill="#000000" font-family="sans-serif" font-size="20" font-weight="bold" lengthAdjust="spacing" textLength="13" x="550" y="272.043">4</text><text fill="#000000" font-family="sans-serif" font-size="20" lengthAdjust="spacing" textLength="58" x="567" y="272.043">create</text><rect fill="#E3E3E3" height="37.5547" rx="2.5" ry="2.5" style="stroke:#181818;stroke-width:0.5;" width="305" x="864.5" y="248.707"/><text fill="#000000" font-family="sans-serif" font-size="20" lengthAdjust="spacing" textLength="291" x="871.5" y="275.043">:ListBookingRequestController</text><polygon fill="#181818" points="1000,322.8164,1010,326.8164,1000,330.8164,1004,326.8164" style="stroke:#181818;stroke-width:1.0;"/><line style="stroke:#181818;stroke-width:1.0;" x1="543" x2="1006" y1="326.8164" y2="326.8164"/><text fill="#000000" font-family="sans-serif" font-size="20" font-weight="bold" lengthAdjust="spacing" textLength="13" x="550" y="320.5977">5</text><text fill="#000000" font-family="sans-serif" font-size="20" lengthAdjust="spacing" textLength="433" x="567" y="320.5977">getVisitRequest(beginning date, ending date)</text><polygon fill="#181818" points="1232,360.3711,1242,364.3711,1232,368.3711,1236,364.3711" style="stroke:#181818;stroke-width:1.0;"/><line style="stroke:#181818;stroke-width:1.0;" x1="1022" x2="1238" y1="364.3711" y2="364.3711"/><text fill="#000000" font-family="sans-serif" font-size="20" font-weight="bold" lengthAdjust="spacing" textLength="13" x="1029" y="358.1523">6</text><text fill="#000000" font-family="sans-serif" font-size="20" lengthAdjust="spacing" textLength="123" x="1046" y="358.1523">getInstance()</text><polygon fill="#181818" points="1033,397.9258,1023,401.9258,1033,405.9258,1029,401.9258" style="stroke:#181818;stroke-width:1.0;"/><line style="stroke:#181818;stroke-width:1.0;stroke-dasharray:2.0,2.0;" x1="1027" x2="1248" y1="401.9258" y2="401.9258"/><text fill="#000000" font-family="sans-serif" font-size="20" font-weight="bold" lengthAdjust="spacing" textLength="13" x="1039" y="395.707">7</text><text fill="#000000" font-family="sans-serif" font-size="20" lengthAdjust="spacing" textLength="114" x="1056" y="395.707">repositories</text><polygon fill="#181818" points="1381,435.4805,1391,439.4805,1381,443.4805,1385,439.4805" style="stroke:#181818;stroke-width:1.0;"/><line style="stroke:#181818;stroke-width:1.0;" x1="1022" x2="1387" y1="439.4805" y2="439.4805"/><text fill="#000000" font-family="sans-serif" font-size="20" font-weight="bold" lengthAdjust="spacing" textLength="13" x="1029" y="433.2617">8</text><text fill="#000000" font-family="sans-serif" font-size="20" lengthAdjust="spacing" textLength="159" x="1046" y="433.2617">getUserSession()</text><polygon fill="#181818" points="1386,473.0352,1396,477.0352,1386,481.0352,1390,477.0352" style="stroke:#181818;stroke-width:1.0;"/><line style="stroke:#181818;stroke-width:1.0;" x1="1022" x2="1392" y1="477.0352" y2="477.0352"/><text fill="#000000" font-family="sans-serif" font-size="20" font-weight="bold" lengthAdjust="spacing" textLength="13" x="1029" y="470.8164">9</text><text fill="#000000" font-family="sans-serif" font-size="20" lengthAdjust="spacing" textLength="115" x="1046" y="470.8164">UserSession</text><polygon fill="#181818" points="1381,510.5898,1391,514.5898,1381,518.5898,1385,514.5898" style="stroke:#181818;stroke-width:1.0;"/><line style="stroke:#181818;stroke-width:1.0;" x1="1022" x2="1387" y1="514.5898" y2="514.5898"/><text fill="#000000" font-family="sans-serif" font-size="20" font-weight="bold" lengthAdjust="spacing" textLength="26" x="1029" y="508.3711">10</text><text fill="#000000" font-family="sans-serif" font-size="20" lengthAdjust="spacing" textLength="140" x="1059" y="508.3711">getUserEmail()</text><polygon fill="#181818" points="1033,548.1445,1023,552.1445,1033,556.1445,1029,552.1445" style="stroke:#181818;stroke-width:1.0;"/><line style="stroke:#181818;stroke-width:1.0;stroke-dasharray:2.0,2.0;" x1="1027" x2="1397" y1="552.1445" y2="552.1445"/><text fill="#000000" font-family="sans-serif" font-size="20" font-weight="bold" lengthAdjust="spacing" textLength="26" x="1039" y="545.9258">11</text><text fill="#000000" font-family="sans-serif" font-size="20" lengthAdjust="spacing" textLength="53" x="1069" y="545.9258">email</text><polygon fill="#181818" points="1381,585.6992,1391,589.6992,1381,593.6992,1385,589.6992" style="stroke:#181818;stroke-width:1.0;"/><line style="stroke:#181818;stroke-width:1.0;" x1="1022" x2="1387" y1="589.6992" y2="589.6992"/><text fill="#000000" font-family="sans-serif" font-size="20" font-weight="bold" lengthAdjust="spacing" textLength="26" x="1029" y="583.4805">12</text><text fill="#000000" font-family="sans-serif" font-size="20" lengthAdjust="spacing" textLength="285" x="1059" y="583.4805">getAdvertisementRepository()</text><polygon fill="#181818" points="1033,623.2539,1023,627.2539,1033,631.2539,1029,627.2539" style="stroke:#181818;stroke-width:1.0;"/><line style="stroke:#181818;stroke-width:1.0;stroke-dasharray:2.0,2.0;" x1="1027" x2="1397" y1="627.2539" y2="627.2539"/><text fill="#000000" font-family="sans-serif" font-size="20" font-weight="bold" lengthAdjust="spacing" textLength="26" x="1039" y="621.0352">13</text><text fill="#000000" font-family="sans-serif" font-size="20" lengthAdjust="spacing" textLength="241" x="1069" y="621.0352">AdvertisementRepository</text><polygon fill="#181818" points="1589.5,660.8086,1599.5,664.8086,1589.5,668.8086,1593.5,664.8086" style="stroke:#181818;stroke-width:1.0;"/><line style="stroke:#181818;stroke-width:1.0;" x1="1022" x2="1595.5" y1="664.8086" y2="664.8086"/><text fill="#000000" font-family="sans-serif" font-size="20" font-weight="bold" lengthAdjust="spacing" textLength="26" x="1029" y="658.5898">14</text><text fill="#000000" font-family="sans-serif" font-size="20" lengthAdjust="spacing" textLength="302" x="1059" y="658.5898">getAgentAdvertisements(email)</text><polygon fill="#181818" points="1033,698.3633,1023,702.3633,1033,706.3633,1029,702.3633" style="stroke:#181818;stroke-width:1.0;"/><line style="stroke:#181818;stroke-width:1.0;stroke-dasharray:2.0,2.0;" x1="1027" x2="1605.5" y1="702.3633" y2="702.3633"/><text fill="#000000" font-family="sans-serif" font-size="20" font-weight="bold" lengthAdjust="spacing" textLength="26" x="1039" y="696.1445">15</text><text fill="#000000" font-family="sans-serif" font-size="20" lengthAdjust="spacing" textLength="229" x="1069" y="696.1445">AgentAdvertisementList</text><polygon fill="#181818" points="1589.5,759.4727,1599.5,763.4727,1589.5,767.4727,1593.5,763.4727" style="stroke:#181818;stroke-width:1.0;"/><line style="stroke:#181818;stroke-width:1.0;" x1="1022" x2="1595.5" y1="763.4727" y2="763.4727"/><text fill="#000000" font-family="sans-serif" font-size="20" font-weight="bold" lengthAdjust="spacing" textLength="26" x="1029" y="745.4766">16</text><text fill="#000000" font-family="sans-serif" font-size="20" lengthAdjust="spacing" textLength="425" x="1059" y="733.6992">getVisitRequestList(AgentAdvertisementList,</text><text fill="#000000" font-family="sans-serif" font-size="20" lengthAdjust="spacing" textLength="277" x="1059" y="757.2539">beginning date, ending date)</text><polygon fill="#181818" points="1033,797.0273,1023,801.0273,1033,805.0273,1029,801.0273" style="stroke:#181818;stroke-width:1.0;"/><line style="stroke:#181818;stroke-width:1.0;stroke-dasharray:2.0,2.0;" x1="1027" x2="1605.5" y1="801.0273" y2="801.0273"/><text fill="#000000" font-family="sans-serif" font-size="20" font-weight="bold" lengthAdjust="spacing" textLength="26" x="1039" y="794.8086">17</text><text fill="#000000" font-family="sans-serif" font-size="20" lengthAdjust="spacing" textLength="73" x="1069" y="794.8086">visitList</text><polygon fill="#181818" points="554,834.582,544,838.582,554,842.582,550,838.582" style="stroke:#181818;stroke-width:1.0;"/><line style="stroke:#181818;stroke-width:1.0;stroke-dasharray:2.0,2.0;" x1="548" x2="1011" y1="838.582" y2="838.582"/><text fill="#000000" font-family="sans-serif" font-size="20" font-weight="bold" lengthAdjust="spacing" textLength="26" x="560" y="832.3633">18</text><text fill="#000000" font-family="sans-serif" font-size="20" lengthAdjust="spacing" textLength="73" x="590" y="832.3633">visitList</text><polygon fill="#181818" points="52,872.1367,42,876.1367,52,880.1367,48,876.1367" style="stroke:#181818;stroke-width:1.0;"/><line style="stroke:#181818;stroke-width:1.0;stroke-dasharray:2.0,2.0;" x1="46" x2="537" y1="876.1367" y2="876.1367"/><text fill="#000000" font-family="sans-serif" font-size="20" font-weight="bold" lengthAdjust="spacing" textLength="26" x="58" y="869.918">19</text><text fill="#000000" font-family="sans-serif" font-size="20" lengthAdjust="spacing" textLength="438" x="88" y="869.918">shows booking request list for specific period</text><!--SRC=[fPKzRzim48Pt_Og39pc8WBH05mq1qYO117IAu4vUQEei4vP8bQGSkB- -HyeVr8VZkDLWIEJTSozVacUp5R9XcjMLubiieC0rQolxggJDnH-4hm-HEOP0hQJY6wrg1AjR36OQnhUinDpkAmIDt39PLc60sR12lGjPmffL1gF82akXEVvkKNA4Py5A5nVdptD8O973mvTlKSHQgsHRhr3JExTAm-ofH6bdm0mi30qJtWek6YOjpDAVmjZlIb7PyisXZLraNMnsDV87hLchgaBjCywVWymtR9GHf4MWyP7XG3zM1pDBESxK5pDPiKFwD5ZJQazv-tGfdwPdF8_cQ2JoNeaTizXv504zxWsIHt82KehT6h0AAd81x0QXqQeXx1vMdISapPjYVEuPbtKm3ymWSJp7JK_niC9IIEaGJ1Q0id2l1INxn0835ameC-sg5bSn8q5Ep6EmPt1tHp2kqMLCHwHGelqboBx30OZFDLsX-x3gl5ysE1nktFy4Q2eKxdLAXJ9fw59mZESd0yFdHEuT9XyQZYIz9QJz0pJmTqpgAmnpEpFSHkHeZ50o7YnOtmOBIAVb1jBqFqbxgPce0ly-mFK0oN3VqO6Y_zPquIPUj-vZTHUmj-hjUi51gUkPFQw9lGa3gSV-uGOF-MDv8vPhfKDr8Ucohl3sEKey3RzVoizVpS-iOUVgtYBxs9tEYLDjaBhNHhsROG_jkkoQ_hnCWroi1GVgjK8LantnBm00]--></g></svg>