<?xml version="1.0" encoding="UTF-8" standalone="no"?><svg xmlns="http://www.w3.org/2000/svg" xmlns:xlink="http://www.w3.org/1999/xlink" contentStyleType="text/css" height="951px" preserveAspectRatio="none" style="width:867px;height:951px;background:#FFFFFF;" version="1.1" viewBox="0 0 867 951" width="867px" zoomAndPan="magnify"><defs/><g><!--class ListBookingRequestUI--><g id="elem_ListBookingRequestUI"><rect codeLine="8" fill="#F1F1F1" height="50" id="ListBookingRequestUI" rx="2.5" ry="2.5" style="stroke:#181818;stroke-width:0.5;" width="243" x="564" y="7"/><ellipse cx="580" cy="24" fill="#ADD1B2" rx="12" ry="12" style="stroke:#181818;stroke-width:1.0;"/><path d="M582.8066,31.0801 Q582.123,31.4316 581.3711,31.6074 Q580.6191,31.7832 579.7891,31.7832 Q576.8398,31.7832 575.2871,29.8398 Q573.7344,27.8965 573.7344,24.2246 Q573.7344,20.543 575.2871,18.5996 Q576.8398,16.6563 579.7891,16.6563 Q580.6191,16.6563 581.3809,16.832 Q582.1426,17.0078 582.8066,17.3594 L582.8066,20.5625 Q582.0645,19.8789 581.3662,19.5615 Q580.668,19.2441 579.9258,19.2441 Q578.3438,19.2441 577.5381,20.499 Q576.7324,21.7539 576.7324,24.2246 Q576.7324,26.6855 577.5381,27.9404 Q578.3438,29.1953 579.9258,29.1953 Q580.668,29.1953 581.3662,28.8779 Q582.0645,28.5605 582.8066,27.877 Z " fill="#000000"/><text fill="#000000" font-family="sans-serif" font-size="20" lengthAdjust="spacing" textLength="209" x="595" y="31.5586">ListBookingRequestUI</text><line style="stroke:#181818;stroke-width:0.5;" x1="565" x2="806" y1="41" y2="41"/><line style="stroke:#181818;stroke-width:0.5;" x1="565" x2="806" y1="49" y2="49"/></g><!--class ListBookingRequestController--><g id="elem_ListBookingRequestController"><rect codeLine="10" fill="#F1F1F1" height="97.1094" id="ListBookingRequestController" rx="2.5" ry="2.5" style="stroke:#181818;stroke-width:0.5;" width="350" x="510.5" y="117"/><ellipse cx="540.45" cy="134" fill="#ADD1B2" rx="12" ry="12" style="stroke:#181818;stroke-width:1.0;"/><path d="M543.2566,141.0801 Q542.573,141.4316 541.8211,141.6074 Q541.0691,141.7832 540.2391,141.7832 Q537.2898,141.7832 535.7371,139.8398 Q534.1844,137.8965 534.1844,134.2246 Q534.1844,130.543 535.7371,128.5996 Q537.2898,126.6563 540.2391,126.6563 Q541.0691,126.6563 541.8309,126.832 Q542.5926,127.0078 543.2566,127.3594 L543.2566,130.5625 Q542.5145,129.8789 541.8162,129.5615 Q541.118,129.2441 540.3758,129.2441 Q538.7938,129.2441 537.9881,130.499 Q537.1824,131.7539 537.1824,134.2246 Q537.1824,136.6855 537.9881,137.9404 Q538.7938,139.1953 540.3758,139.1953 Q541.118,139.1953 541.8162,138.8779 Q542.5145,138.5605 543.2566,137.877 Z " fill="#000000"/><text fill="#000000" font-family="sans-serif" font-size="20" lengthAdjust="spacing" textLength="285" x="558.55" y="141.5586">ListBookingRequestController</text><line style="stroke:#181818;stroke-width:0.5;" x1="511.5" x2="859.5" y1="151" y2="151"/><line style="stroke:#181818;stroke-width:0.5;" x1="511.5" x2="859.5" y1="159" y2="159"/><text fill="#000000" font-family="sans-serif" font-size="20" lengthAdjust="spacing" textLength="318" x="516.5" y="182.3359">+getAgentAdvertisements(email)</text><text fill="#000000" font-family="sans-serif" font-size="20" lengthAdjust="spacing" textLength="338" x="516.5" y="205.8906">+getVisitRequest(list, dStart, dEnd)</text></g><!--class Repositories--><g id="elem_Repositories"><rect codeLine="15" fill="#F1F1F1" height="97.1094" id="Repositories" rx="2.5" ry="2.5" style="stroke:#181818;stroke-width:0.5;" width="313" x="7" y="286"/><ellipse cx="99.5" cy="303" fill="#ADD1B2" rx="12" ry="12" style="stroke:#181818;stroke-width:1.0;"/><path d="M102.3066,310.0801 Q101.623,310.4316 100.8711,310.6074 Q100.1191,310.7832 99.2891,310.7832 Q96.3398,310.7832 94.7871,308.8398 Q93.2344,306.8965 93.2344,303.2246 Q93.2344,299.543 94.7871,297.5996 Q96.3398,295.6563 99.2891,295.6563 Q100.1191,295.6563 100.8809,295.832 Q101.6426,296.0078 102.3066,296.3594 L102.3066,299.5625 Q101.5645,298.8789 100.8662,298.5615 Q100.168,298.2441 99.4258,298.2441 Q97.8438,298.2441 97.0381,299.499 Q96.2324,300.7539 96.2324,303.2246 Q96.2324,305.6855 97.0381,306.9404 Q97.8438,308.1953 99.4258,308.1953 Q100.168,308.1953 100.8662,307.8779 Q101.5645,307.5605 102.3066,306.877 Z " fill="#000000"/><text fill="#000000" font-family="sans-serif" font-size="20" lengthAdjust="spacing" textLength="119" x="121.5" y="310.5586">Repositories</text><line style="stroke:#181818;stroke-width:0.5;" x1="8" x2="319" y1="320" y2="320"/><line style="stroke:#181818;stroke-width:0.5;" x1="8" x2="319" y1="328" y2="328"/><text fill="#000000" font-family="sans-serif" font-size="20" lengthAdjust="spacing" textLength="139" x="13" y="351.3359">+getInstance()</text><text fill="#000000" font-family="sans-serif" font-size="20" lengthAdjust="spacing" textLength="301" x="13" y="374.8906">+getAdvertisementRepository()</text></g><!--class AdvertisementRepository--><g id="elem_AdvertisementRepository"><rect codeLine="20" fill="#F1F1F1" height="120.6641" id="AdvertisementRepository" rx="2.5" ry="2.5" style="stroke:#181818;stroke-width:0.5;" width="405" x="355" y="274"/><ellipse cx="432.5" cy="291" fill="#ADD1B2" rx="12" ry="12" style="stroke:#181818;stroke-width:1.0;"/><path d="M435.3066,298.0801 Q434.623,298.4316 433.8711,298.6074 Q433.1191,298.7832 432.2891,298.7832 Q429.3398,298.7832 427.7871,296.8398 Q426.2344,294.8965 426.2344,291.2246 Q426.2344,287.543 427.7871,285.5996 Q429.3398,283.6563 432.2891,283.6563 Q433.1191,283.6563 433.8809,283.832 Q434.6426,284.0078 435.3066,284.3594 L435.3066,287.5625 Q434.5645,286.8789 433.8662,286.5615 Q433.168,286.2441 432.4258,286.2441 Q430.8438,286.2441 430.0381,287.499 Q429.2324,288.7539 429.2324,291.2246 Q429.2324,293.6855 430.0381,294.9404 Q430.8438,296.1953 432.4258,296.1953 Q433.168,296.1953 433.8662,295.8779 Q434.5645,295.5605 435.3066,294.877 Z " fill="#000000"/><text fill="#000000" font-family="sans-serif" font-size="20" lengthAdjust="spacing" textLength="241" x="454.5" y="298.5586">AdvertisementRepository</text><line style="stroke:#181818;stroke-width:0.5;" x1="356" x2="759" y1="308" y2="308"/><text fill="#000000" font-family="sans-serif" font-size="20" lengthAdjust="spacing" textLength="393" x="361" y="331.3359">-List&lt;Advertisement&gt; advertisementList</text><line style="stroke:#181818;stroke-width:0.5;" x1="356" x2="759" y1="339.5547" y2="339.5547"/><text fill="#000000" font-family="sans-serif" font-size="20" lengthAdjust="spacing" textLength="372" x="361" y="362.8906">+getVisitRequestList(list, dStart, dEnd)</text><text fill="#000000" font-family="sans-serif" font-size="20" lengthAdjust="spacing" textLength="318" x="361" y="386.4453">+getAgentAdvertisements(email)</text></g><!--class Advertisement--><g id="elem_Advertisement"><rect codeLine="26" fill="#F1F1F1" height="214.8828" id="Advertisement" rx="2.5" ry="2.5" style="stroke:#181818;stroke-width:0.5;" width="465" x="366" y="455"/><ellipse cx="524.5" cy="472" fill="#ADD1B2" rx="12" ry="12" style="stroke:#181818;stroke-width:1.0;"/><path d="M527.3066,479.0801 Q526.623,479.4316 525.8711,479.6074 Q525.1191,479.7832 524.2891,479.7832 Q521.3398,479.7832 519.7871,477.8398 Q518.2344,475.8965 518.2344,472.2246 Q518.2344,468.543 519.7871,466.5996 Q521.3398,464.6563 524.2891,464.6563 Q525.1191,464.6563 525.8809,464.832 Q526.6426,465.0078 527.3066,465.3594 L527.3066,468.5625 Q526.5645,467.8789 525.8662,467.5615 Q525.168,467.2441 524.4258,467.2441 Q522.8438,467.2441 522.0381,468.499 Q521.2324,469.7539 521.2324,472.2246 Q521.2324,474.6855 522.0381,475.9404 Q522.8438,477.1953 524.4258,477.1953 Q525.168,477.1953 525.8662,476.8779 Q526.5645,476.5605 527.3066,475.877 Z " fill="#000000"/><text fill="#000000" font-family="sans-serif" font-size="20" lengthAdjust="spacing" textLength="139" x="546.5" y="479.5586">Advertisement</text><line style="stroke:#181818;stroke-width:0.5;" x1="367" x2="830" y1="489" y2="489"/><text fill="#000000" font-family="sans-serif" font-size="20" lengthAdjust="spacing" textLength="278" x="372" y="512.3359">-String dateOfAdvertisement</text><text fill="#000000" font-family="sans-serif" font-size="20" lengthAdjust="spacing" textLength="167" x="372" y="535.8906">-Request request</text><text fill="#000000" font-family="sans-serif" font-size="20" lengthAdjust="spacing" textLength="254" x="372" y="559.4453">-Commission commission</text><text fill="#000000" font-family="sans-serif" font-size="20" lengthAdjust="spacing" textLength="453" x="372" y="583">-ArrayList&lt;PurchaseOrder&gt; purchaseOrderList</text><text fill="#000000" font-family="sans-serif" font-size="20" lengthAdjust="spacing" textLength="404" x="372" y="606.5547">-ArrayList&lt;VisitRequest&gt; visitRequestList</text><text fill="#000000" font-family="sans-serif" font-size="20" lengthAdjust="spacing" textLength="131" x="372" y="630.1094">-String status</text><text fill="#000000" font-family="sans-serif" font-size="20" lengthAdjust="spacing" textLength="115" x="372" y="653.6641">-Store store</text><line style="stroke:#181818;stroke-width:0.5;" x1="367" x2="830" y1="661.8828" y2="661.8828"/></g><!--class VisitRequest--><g id="elem_VisitRequest"><rect codeLine="37" fill="#F1F1F1" height="214.8828" id="VisitRequest" rx="2.5" ry="2.5" style="stroke:#181818;stroke-width:0.5;" width="224" x="629.5" y="730"/><ellipse cx="677.5" cy="747" fill="#ADD1B2" rx="12" ry="12" style="stroke:#181818;stroke-width:1.0;"/><path d="M680.3066,754.0801 Q679.623,754.4316 678.8711,754.6074 Q678.1191,754.7832 677.2891,754.7832 Q674.3398,754.7832 672.7871,752.8398 Q671.2344,750.8965 671.2344,747.2246 Q671.2344,743.543 672.7871,741.5996 Q674.3398,739.6563 677.2891,739.6563 Q678.1191,739.6563 678.8809,739.832 Q679.6426,740.0078 680.3066,740.3594 L680.3066,743.5625 Q679.5645,742.8789 678.8662,742.5615 Q678.168,742.2441 677.4258,742.2441 Q675.8438,742.2441 675.0381,743.499 Q674.2324,744.7539 674.2324,747.2246 Q674.2324,749.6855 675.0381,750.9404 Q675.8438,752.1953 677.4258,752.1953 Q678.168,752.1953 678.8662,751.8779 Q679.5645,751.5605 680.3066,750.877 Z " fill="#000000"/><text fill="#000000" font-family="sans-serif" font-size="20" lengthAdjust="spacing" textLength="119" x="699.5" y="754.5586">VisitRequest</text><line style="stroke:#181818;stroke-width:0.5;" x1="630.5" x2="852.5" y1="764" y2="764"/><text fill="#000000" font-family="sans-serif" font-size="20" lengthAdjust="spacing" textLength="127" x="635.5" y="787.3359">-String name</text><text fill="#000000" font-family="sans-serif" font-size="20" lengthAdjust="spacing" textLength="212" x="635.5" y="810.8906">-String phoneNumber</text><text fill="#000000" font-family="sans-serif" font-size="20" lengthAdjust="spacing" textLength="181" x="635.5" y="834.4453">-String dateOfVisit</text><text fill="#000000" font-family="sans-serif" font-size="20" lengthAdjust="spacing" textLength="197" x="635.5" y="858">-String timeSlotStart</text><text fill="#000000" font-family="sans-serif" font-size="20" lengthAdjust="spacing" textLength="189" x="635.5" y="881.5547">-String timeSlotEnd</text><text fill="#000000" font-family="sans-serif" font-size="20" lengthAdjust="spacing" textLength="158" x="635.5" y="905.1094">-String message</text><text fill="#000000" font-family="sans-serif" font-size="20" lengthAdjust="spacing" textLength="131" x="635.5" y="928.6641">-String status</text><line style="stroke:#181818;stroke-width:0.5;" x1="630.5" x2="852.5" y1="936.8828" y2="936.8828"/></g><!--link ListBookingRequestUI to ListBookingRequestController--><g id="link_ListBookingRequestUI_ListBookingRequestController"><path codeLine="47" d="M685.5,57.12 C685.5,72.37 685.5,92.69 685.5,111.55 " fill="none" id="ListBookingRequestUI-to-ListBookingRequestController" style="stroke:#181818;stroke-width:1.0;stroke-dasharray:7.0,7.0;"/><polygon fill="#181818" points="685.5,116.83,689.5,107.83,685.5,111.83,681.5,107.83,685.5,116.83" style="stroke:#181818;stroke-width:1.0;"/></g><!--link ListBookingRequestController to Repositories--><g id="link_ListBookingRequestController_Repositories"><path codeLine="48" d="M531.6,214.04 C438.44,242.82 337.5,274 337.5,274 C337.5,274 325.52,278.1 307.84,284.14 " fill="none" id="ListBookingRequestController-to-Repositories" style="stroke:#181818;stroke-width:1.0;stroke-dasharray:7.0,7.0;"/><polygon fill="#181818" points="302.71,285.9,312.5189,286.7868,307.4433,284.289,309.9412,279.2134,302.71,285.9" style="stroke:#181818;stroke-width:1.0;"/></g><!--link ListBookingRequestController to AdvertisementRepository--><g id="link_ListBookingRequestController_AdvertisementRepository"><path codeLine="49" d="M648.82,214.36 C635.63,231.56 620.54,251.25 606.48,269.6 " fill="none" id="ListBookingRequestController-to-AdvertisementRepository" style="stroke:#181818;stroke-width:1.0;stroke-dasharray:7.0,7.0;"/><polygon fill="#181818" points="603.3,273.74,611.9571,269.0437,606.3479,269.7763,605.6152,264.1671,603.3,273.74" style="stroke:#181818;stroke-width:1.0;"/></g><!--link Repositories to AdvertisementRepository--><g id="link_Repositories_AdvertisementRepository"><path codeLine="51" d="M320.16,334.5 C328.8,334.5 338.98,334.5 349.54,334.5 " fill="none" id="Repositories-to-AdvertisementRepository" style="stroke:#181818;stroke-width:1.0;"/><polygon fill="#181818" points="354.75,334.5,345.75,330.5,349.75,334.5,345.75,338.5,354.75,334.5" style="stroke:#181818;stroke-width:1.0;"/><text fill="#000000" font-family="sans-serif" font-size="20" lengthAdjust="spacing" textLength="13" x="334.2301" y="330.4387">1</text></g><!--link AdvertisementRepository to Advertisement--><g id="link_AdvertisementRepository_Advertisement"><path codeLine="53" d="M568.33,395.17 C571.36,411.91 574.77,430.67 578.16,449.4 " fill="none" id="AdvertisementRepository-to-Advertisement" style="stroke:#181818;stroke-width:1.0;"/><polygon fill="#181818" points="579.12,454.68,581.4333,445.1067,578.2193,449.7618,573.5641,446.5478,579.12,454.68" style="stroke:#181818;stroke-width:1.0;"/><text fill="#000000" font-family="sans-serif" font-size="20" lengthAdjust="spacing" textLength="13" x="555.7765" y="421.9944">1</text><text fill="#000000" font-family="sans-serif" font-size="20" lengthAdjust="spacing" textLength="10" x="567.4058" y="442.6499">*</text></g><!--link Advertisement to VisitRequest--><g id="link_Advertisement_VisitRequest"><path codeLine="55" d="M654.4,670.22 C663.86,688.28 673.71,707.07 683.22,725.25 " fill="none" id="Advertisement-to-VisitRequest" style="stroke:#181818;stroke-width:1.0;"/><polygon fill="#181818" points="685.64,729.85,684.9919,720.0225,683.313,725.4245,677.911,723.7456,685.64,729.85" style="stroke:#181818;stroke-width:1.0;"/><text fill="#000000" font-family="sans-serif" font-size="20" lengthAdjust="spacing" textLength="13" x="644.5647" y="697.215">1</text><text fill="#000000" font-family="sans-serif" font-size="20" lengthAdjust="spacing" textLength="10" x="671.3608" y="717.8318">*</text></g><!--link ListBookingRequestController to Advertisement--><g id="link_ListBookingRequestController_Advertisement"><path codeLine="57" d="M726.39,214.28 C750.96,242.99 777.5,274 777.5,274 C777.5,274 777.5,395 777.5,395 C777.5,395 750.13,420.46 716.8,451.46 " fill="none" id="ListBookingRequestController-to-Advertisement" style="stroke:#181818;stroke-width:1.0;stroke-dasharray:7.0,7.0;"/><polygon fill="#181818" points="713.13,454.88,722.445,451.6815,716.7919,451.4756,716.9979,445.8224,713.13,454.88" style="stroke:#181818;stroke-width:1.0;"/></g><!--link ListBookingRequestController to VisitRequest--><g id="link_ListBookingRequestController_VisitRequest"><path codeLine="59" d="M737.94,214.28 C769.46,242.99 803.5,274 803.5,274 C803.5,274 848.5,455 848.5,455 C848.5,455 848.5,670 848.5,670 C848.5,670 832.61,694.72 813.08,725.12 " fill="none" id="ListBookingRequestController-to-VisitRequest" style="stroke:#181818;stroke-width:1.0;stroke-dasharray:7.0,7.0;"/><polygon fill="#181818" points="810.17,729.64,818.3932,724.2197,812.8673,725.4299,811.6571,719.9041,810.17,729.64" style="stroke:#181818;stroke-width:1.0;"/></g><!--SRC=[bLDDJyCm3BtdLqGxZOzEm1bL6XD8an0W2jn3wtNHyb5Y5rGc_Zjf62KhAnENjlPxjjzpKbn9KmadjBBv2WfUm4BKYgwieKo-0pyxOVXDuPN8LwA4Z1e5t45EmfGA8W8kHM7Vf2dvGYYC4IKDF3GLyCggfWqOYz1S2SGfaPFFDS4yjoOCFs4i8FnQ8brOw_dbFRpKWFGuNtyCepCltrcbmAtPKGaqBS7Gj7W5Hn91-m37e8LK1m5-aYXfKpfMljinBp8IhdrVckA0TQFkeRAUQvq4_6ezD-ZNaCFugzNMa8xTZACU0vGrIreZvrjmoaKSjeHVYjlaJjLxdEyMv6La_Xpy4HQ2u7Qn1R9aCzEVVdYpP6QrbeZI6fvtdooPEYUQuEUkTlbI8Dow0bpAgpWCVY9kR2lbhpsJdJA_SQgn3Qq37_ad-x4JD_bnOuI6BgYMri1DhP_1zUo6uYv7KaEcB8Mr_ihw9NSv3OZ-r-XBzA9stLq-cQH_Nbls5nYguvkudprmvnYBs_0avQFJqJ1v06YBaYGT7VPAUmMXzuONdn7xf_oz_BPYUy0d]--></g></svg>