<?xml version="1.0" encoding="UTF-8" standalone="no"?><svg xmlns="http://www.w3.org/2000/svg" xmlns:xlink="http://www.w3.org/1999/xlink" contentStyleType="text/css" height="645px" preserveAspectRatio="none" style="width:908px;height:645px;background:#FFFFFF;" version="1.1" viewBox="0 0 908 645" width="908px" zoomAndPan="magnify"><defs/><g><text fill="#000000" font-family="sans-serif" font-size="14" font-weight="bold" lengthAdjust="spacing" textLength="300" x="305.25" y="28.5352">System Sequence Diagram (SSD) - US 018</text><rect fill="#FFFFFF" height="412.6563" style="stroke:#181818;stroke-width:1.0;" width="10" x="86.5" y="136.043"/><rect fill="#FFFFFF" height="37.5547" style="stroke:#181818;stroke-width:1.0;" width="10" x="842.5" y="165.5977"/><rect fill="#FFFFFF" height="141.7734" style="stroke:#181818;stroke-width:1.0;" width="10" x="842.5" y="240.707"/><rect fill="#FFFFFF" height="37.5547" style="stroke:#181818;stroke-width:1.0;" width="10" x="842.5" y="427.0352"/><rect fill="#FFFFFF" height="37.5547" style="stroke:#181818;stroke-width:1.0;" width="10" x="842.5" y="502.1445"/><rect fill="none" height="134.7734" style="stroke:#000000;stroke-width:1.5;" width="891.5" x="10" y="255.707"/><line style="stroke:#181818;stroke-width:0.5;stroke-dasharray:5.0,5.0;" x1="91" x2="91" y1="126.043" y2="557.6992"/><line style="stroke:#181818;stroke-width:0.5;stroke-dasharray:5.0,5.0;" x1="847.5" x2="847.5" y1="126.043" y2="557.6992"/><text fill="#000000" font-family="sans-serif" font-size="20" lengthAdjust="spacing" textLength="137" x="20" y="121.8242">Store Manager</text><ellipse cx="91.5" cy="50.9883" fill="#E3E3E3" rx="8" ry="8" style="stroke:#181818;stroke-width:0.5;"/><path d="M91.5,58.9883 L91.5,85.9883 M78.5,66.9883 L104.5,66.9883 M91.5,85.9883 L78.5,100.9883 M91.5,85.9883 L104.5,100.9883 " fill="none" style="stroke:#181818;stroke-width:0.5;"/><text fill="#000000" font-family="sans-serif" font-size="20" lengthAdjust="spacing" textLength="137" x="20" y="576.0352">Store Manager</text><ellipse cx="91.5" cy="588.7539" fill="#E3E3E3" rx="8" ry="8" style="stroke:#181818;stroke-width:0.5;"/><path d="M91.5,596.7539 L91.5,623.7539 M78.5,604.7539 L104.5,604.7539 M91.5,623.7539 L78.5,638.7539 M91.5,623.7539 L104.5,638.7539 " fill="none" style="stroke:#181818;stroke-width:0.5;"/><rect fill="#E3E3E3" height="37.5547" rx="2.5" ry="2.5" style="stroke:#181818;stroke-width:0.5;" width="88" x="803.5" y="87.4883"/><text fill="#000000" font-family="sans-serif" font-size="20" lengthAdjust="spacing" textLength="74" x="810.5" y="113.8242">:System</text><rect fill="#E3E3E3" height="37.5547" rx="2.5" ry="2.5" style="stroke:#181818;stroke-width:0.5;" width="88" x="803.5" y="556.6992"/><text fill="#000000" font-family="sans-serif" font-size="20" lengthAdjust="spacing" textLength="74" x="810.5" y="583.0352">:System</text><rect fill="#FFFFFF" height="412.6563" style="stroke:#181818;stroke-width:1.0;" width="10" x="86.5" y="136.043"/><rect fill="#FFFFFF" height="37.5547" style="stroke:#181818;stroke-width:1.0;" width="10" x="842.5" y="165.5977"/><rect fill="#FFFFFF" height="141.7734" style="stroke:#181818;stroke-width:1.0;" width="10" x="842.5" y="240.707"/><rect fill="#FFFFFF" height="37.5547" style="stroke:#181818;stroke-width:1.0;" width="10" x="842.5" y="427.0352"/><rect fill="#FFFFFF" height="37.5547" style="stroke:#181818;stroke-width:1.0;" width="10" x="842.5" y="502.1445"/><polygon fill="#181818" points="830.5,161.5977,840.5,165.5977,830.5,169.5977,834.5,165.5977" style="stroke:#181818;stroke-width:1.0;"/><line style="stroke:#181818;stroke-width:1.0;" x1="96.5" x2="836.5" y1="165.5977" y2="165.5977"/><text fill="#000000" font-family="sans-serif" font-size="20" font-weight="bold" lengthAdjust="spacing" textLength="13" x="103.5" y="159.3789">1</text><text fill="#000000" font-family="sans-serif" font-size="20" lengthAdjust="spacing" textLength="202" x="120.5" y="159.3789">asks to analyse deals</text><polygon fill="#181818" points="107.5,199.1523,97.5,203.1523,107.5,207.1523,103.5,203.1523" style="stroke:#181818;stroke-width:1.0;"/><line style="stroke:#181818;stroke-width:1.0;stroke-dasharray:2.0,2.0;" x1="101.5" x2="846.5" y1="203.1523" y2="203.1523"/><text fill="#000000" font-family="sans-serif" font-size="20" font-weight="bold" lengthAdjust="spacing" textLength="13" x="113.5" y="196.9336">2</text><text fill="#000000" font-family="sans-serif" font-size="20" lengthAdjust="spacing" textLength="382" x="130.5" y="196.9336">requests data (type of linear regression)</text><polygon fill="#181818" points="830.5,236.707,840.5,240.707,830.5,244.707,834.5,240.707" style="stroke:#181818;stroke-width:1.0;"/><line style="stroke:#181818;stroke-width:1.0;" x1="96.5" x2="836.5" y1="240.707" y2="240.707"/><text fill="#000000" font-family="sans-serif" font-size="20" font-weight="bold" lengthAdjust="spacing" textLength="13" x="103.5" y="234.4883">3</text><text fill="#000000" font-family="sans-serif" font-size="20" lengthAdjust="spacing" textLength="303" x="120.5" y="234.4883">selects type of linear regression</text><path d="M10,255.707 L82,255.707 L82,271.2617 L72,281.2617 L10,281.2617 L10,255.707 " fill="#EEEEEE" style="stroke:#000000;stroke-width:1.5;"/><rect fill="none" height="134.7734" style="stroke:#000000;stroke-width:1.5;" width="891.5" x="10" y="255.707"/><text fill="#000000" font-family="sans-serif" font-size="20" font-weight="bold" lengthAdjust="spacing" textLength="27" x="25" y="276.043">alt</text><text fill="#000000" font-family="sans-serif" font-size="20" font-weight="bold" lengthAdjust="spacing" textLength="504" x="97" y="277.043">[type of linear regression = multiple regression]</text><polygon fill="#181818" points="107.5,338.9258,97.5,342.9258,107.5,346.9258,103.5,342.9258" style="stroke:#181818;stroke-width:1.0;"/><line style="stroke:#181818;stroke-width:1.0;stroke-dasharray:2.0,2.0;" x1="101.5" x2="841.5" y1="342.9258" y2="342.9258"/><text fill="#000000" font-family="sans-serif" font-size="20" font-weight="bold" lengthAdjust="spacing" textLength="13" x="113.5" y="324.9297">4</text><text fill="#000000" font-family="sans-serif" font-size="20" lengthAdjust="spacing" textLength="598" x="130.5" y="313.1523">requests data(confidence interval, area, distance to city center,</text><text fill="#000000" font-family="sans-serif" font-size="20" lengthAdjust="spacing" textLength="696" x="136.5" y="336.707">number of bedrooms, number of bathrooms, number of parking spaces)</text><line style="stroke:#000000;stroke-width:1.0;stroke-dasharray:2.0,2.0;" x1="10" x2="901.5" y1="351.9258" y2="351.9258"/><polygon fill="#181818" points="107.5,378.4805,97.5,382.4805,107.5,386.4805,103.5,382.4805" style="stroke:#181818;stroke-width:1.0;"/><line style="stroke:#181818;stroke-width:1.0;stroke-dasharray:2.0,2.0;" x1="101.5" x2="846.5" y1="382.4805" y2="382.4805"/><text fill="#000000" font-family="sans-serif" font-size="20" font-weight="bold" lengthAdjust="spacing" textLength="13" x="113.5" y="376.2617">5</text><text fill="#000000" font-family="sans-serif" font-size="20" lengthAdjust="spacing" textLength="705" x="130.5" y="376.2617">requests data(confidence interval, independent variable in study,  spaces)</text><polygon fill="#181818" points="830.5,423.0352,840.5,427.0352,830.5,431.0352,834.5,427.0352" style="stroke:#181818;stroke-width:1.0;"/><line style="stroke:#181818;stroke-width:1.0;" x1="96.5" x2="836.5" y1="427.0352" y2="427.0352"/><text fill="#000000" font-family="sans-serif" font-size="20" font-weight="bold" lengthAdjust="spacing" textLength="13" x="103.5" y="420.8164">6</text><text fill="#000000" font-family="sans-serif" font-size="20" lengthAdjust="spacing" textLength="99" x="120.5" y="420.8164">types data</text><polygon fill="#181818" points="107.5,460.5898,97.5,464.5898,107.5,468.5898,103.5,464.5898" style="stroke:#181818;stroke-width:1.0;"/><line style="stroke:#181818;stroke-width:1.0;stroke-dasharray:2.0,2.0;" x1="101.5" x2="846.5" y1="464.5898" y2="464.5898"/><text fill="#000000" font-family="sans-serif" font-size="20" font-weight="bold" lengthAdjust="spacing" textLength="13" x="113.5" y="458.3711">7</text><text fill="#000000" font-family="sans-serif" font-size="20" lengthAdjust="spacing" textLength="586" x="130.5" y="458.3711">shows linear regression operations list and asks to select one</text><polygon fill="#181818" points="830.5,498.1445,840.5,502.1445,830.5,506.1445,834.5,502.1445" style="stroke:#181818;stroke-width:1.0;"/><line style="stroke:#181818;stroke-width:1.0;" x1="96.5" x2="836.5" y1="502.1445" y2="502.1445"/><text fill="#000000" font-family="sans-serif" font-size="20" font-weight="bold" lengthAdjust="spacing" textLength="13" x="103.5" y="495.9258">8</text><text fill="#000000" font-family="sans-serif" font-size="20" lengthAdjust="spacing" textLength="454" x="120.5" y="495.9258">selects linear regression operation and submits</text><polygon fill="#181818" points="107.5,535.6992,97.5,539.6992,107.5,543.6992,103.5,539.6992" style="stroke:#181818;stroke-width:1.0;"/><line style="stroke:#181818;stroke-width:1.0;stroke-dasharray:2.0,2.0;" x1="101.5" x2="846.5" y1="539.6992" y2="539.6992"/><text fill="#000000" font-family="sans-serif" font-size="20" font-weight="bold" lengthAdjust="spacing" textLength="13" x="113.5" y="533.4805">9</text><text fill="#000000" font-family="sans-serif" font-size="20" lengthAdjust="spacing" textLength="323" x="130.5" y="533.4805">shows linear regression operation</text><!--SRC=[jLDDRzim3BthLn0v9O03j3iD0RPJqTjEHc-xC1RZ29ObJwHJUBz-jDouNbgtXs4w208_7X_99svSw31XwsFLa0LB9-ozFCOWfVjDyENEy3K4sXXYTKwn9P3KqyBJOTLWJQKCdY1H9HXglmpWCzhux48D9_HCneWJ3Iq75cgXf5yzXOhWmM4zXc_Byc47UtWguUx-gp7OImnzUwIaxqfYWasfDy4F35etRG0PikN5OBIikCfr60GsXwdE59MV6SPTKEZlD0DwbXROVx-oF6Xwmo0HrEK79fsMDfDJNj5Uu3FEbBSV8PQG1nsHDip2O54GjZ9q1F44tWN2fDuw4REBOPTnjCoxy6iqcRokG9ckmURqLThPuMKz7Rv1go9nNLxs33edh_Hzq_QsYk7aRDwx2qBfWhu0J8G5MCSg8NNei2id0rGqHXG_0qmo67aToQOOMowMDfJp6wDgeHcbnofJufrvPKfPYt1p_eM_2vOwqajrTy7ayEX7Dx3qTYXWvd1Ry-sEPux1BaQxjlDnMHElpvUxhai-nsT-P-6neuIYhz79eX_0pfzXKXl4G6QzcSyRk8hsW-AvBFV7rWd_rou_QiJy0G00]--></g></svg>