<?xml version="1.0" encoding="UTF-8" standalone="no"?><svg xmlns="http://www.w3.org/2000/svg" xmlns:xlink="http://www.w3.org/1999/xlink" contentStyleType="text/css" height="810px" preserveAspectRatio="none" style="width:813px;height:810px;background:#FFFFFF;" version="1.1" viewBox="0 0 813 810" width="813px" zoomAndPan="magnify"><defs/><g><g id="cluster_##6"><rect fill="none" height="797" rx="2.5" ry="2.5" style="stroke:#181818;stroke-width:1.0;" width="550" x="257" y="7"/></g><g id="elem_UC1"><ellipse cx="532.0543" cy="156.9109" fill="#F1F1F1" rx="172.5543" ry="36.9109" style="stroke:#181818;stroke-width:0.5;"/><text fill="#000000" font-family="sans-serif" font-size="20" lengthAdjust="spacing" textLength="306" x="379.0543" y="162.4694">UC1 - Consult List of Properties</text></g><g id="elem_UC2"><ellipse cx="532.0296" cy="271.8059" fill="#F1F1F1" rx="199.5296" ry="42.3059" style="stroke:#181818;stroke-width:0.5;"/><text fill="#000000" font-family="sans-serif" font-size="20" lengthAdjust="spacing" textLength="363" x="350.5296" y="277.3645">UC2 - Create Property Announcement</text></g><g id="elem_UC3"><ellipse cx="532.1484" cy="386.1297" fill="#F1F1F1" rx="171.1484" ry="36.6297" style="stroke:#181818;stroke-width:0.5;"/><text fill="#000000" font-family="sans-serif" font-size="20" lengthAdjust="spacing" textLength="303" x="380.6484" y="391.6883">UC3 - Register a new Employee</text></g><g id="elem_UC4"><ellipse cx="531.8684" cy="734.1737" fill="#F1F1F1" rx="258.8684" ry="54.1737" style="stroke:#181818;stroke-width:0.5;"/><text fill="#000000" font-family="sans-serif" font-size="20" lengthAdjust="spacing" textLength="486" x="288.8684" y="739.7323">UC4 - Request Announcement Choosing the Agent</text></g><g id="elem_UC5"><ellipse cx="531.8223" cy="489.0645" fill="#F1F1F1" rx="143.3223" ry="31.0645" style="stroke:#181818;stroke-width:0.5;"/><text fill="#000000" font-family="sans-serif" font-size="20" lengthAdjust="spacing" textLength="242" x="407.8223" y="495.9824">UC5 - Register new Store</text></g><g id="elem_UC6"><ellipse cx="531.9686" cy="599.7937" fill="#F1F1F1" rx="211.9686" ry="44.7937" style="stroke:#181818;stroke-width:0.5;"/><text fill="#000000" font-family="sans-serif" font-size="20" lengthAdjust="spacing" textLength="389" x="337.4686" y="605.3523">UC6 - Specify States, Districts and Cities</text></g><g id="elem_UC7"><ellipse cx="532.2067" cy="54.2413" fill="#F1F1F1" rx="144.2067" ry="31.2413" style="stroke:#181818;stroke-width:0.5;"/><text fill="#000000" font-family="sans-serif" font-size="20" lengthAdjust="spacing" textLength="244" x="407.2067" y="61.1593">UC7 - Registers as a user</text></g><!--entity Unregistered User--><g id="elem_Unregistered User"><ellipse cx="109.5" cy="70.5" fill="#F1F1F1" rx="8" ry="8" style="stroke:#181818;stroke-width:0.5;"/><path d="M109.5,78.5 L109.5,105.5 M96.5,86.5 L122.5,86.5 M109.5,105.5 L96.5,120.5 M109.5,105.5 L122.5,120.5 " fill="none" style="stroke:#181818;stroke-width:0.5;"/><text fill="#000000" font-family="sans-serif" font-size="20" lengthAdjust="spacing" textLength="172" x="23.5" y="141.3359">Unregistered User</text></g><!--entity Agent--><g id="elem_Agent"><ellipse cx="109.5" cy="238.5" fill="#F1F1F1" rx="8" ry="8" style="stroke:#181818;stroke-width:0.5;"/><path d="M109.5,246.5 L109.5,273.5 M96.5,254.5 L122.5,254.5 M109.5,273.5 L96.5,288.5 M109.5,273.5 L122.5,288.5 " fill="none" style="stroke:#181818;stroke-width:0.5;"/><text fill="#000000" font-family="sans-serif" font-size="20" lengthAdjust="spacing" textLength="56" x="81.5" y="309.3359">Agent</text></g><!--entity System Administrator--><g id="elem_System Administrator"><ellipse cx="109.5" cy="455.5" fill="#F1F1F1" rx="8" ry="8" style="stroke:#181818;stroke-width:0.5;"/><path d="M109.5,463.5 L109.5,490.5 M96.5,471.5 L122.5,471.5 M109.5,490.5 L96.5,505.5 M109.5,490.5 L122.5,505.5 " fill="none" style="stroke:#181818;stroke-width:0.5;"/><text fill="#000000" font-family="sans-serif" font-size="20" lengthAdjust="spacing" textLength="207" x="6" y="526.3359">System Administrator</text></g><!--entity Owner--><g id="elem_Owner"><ellipse cx="109.5" cy="700.5" fill="#F1F1F1" rx="8" ry="8" style="stroke:#181818;stroke-width:0.5;"/><path d="M109.5,708.5 L109.5,735.5 M96.5,716.5 L122.5,716.5 M109.5,735.5 L96.5,750.5 M109.5,735.5 L122.5,750.5 " fill="none" style="stroke:#181818;stroke-width:0.5;"/><text fill="#000000" font-family="sans-serif" font-size="20" lengthAdjust="spacing" textLength="62" x="78.5" y="771.3359">Owner</text></g><!--link Unregistered User to UC1--><g id="link_Unregistered User_UC1"><path d="M195.59,114.73 C247.76,121.3 316.1,129.91 377.46,137.65 " fill="none" id="Unregistered User-to-UC1" style="stroke:#181818;stroke-width:1.0;"/><polygon fill="#181818" points="382.62,138.3,374.1947,133.1996,377.6597,137.671,373.1883,141.1361,382.62,138.3" style="stroke:#181818;stroke-width:1.0;"/></g><!--link Agent to UC2--><g id="link_Agent_UC2"><path d="M137.77,272 C176.87,272 252.39,272 326.89,272 " fill="none" id="Agent-to-UC2" style="stroke:#181818;stroke-width:1.0;"/><polygon fill="#181818" points="332.25,272,323.25,268,327.25,272,323.25,276,332.25,272" style="stroke:#181818;stroke-width:1.0;"/></g><!--link System Administrator to UC3--><g id="link_System Administrator_UC3"><path d="M213.19,450.74 C225.18,446.85 237.31,443.17 249,440 C294.26,427.74 344.34,417.19 389.58,408.76 " fill="none" id="System Administrator-to-UC3" style="stroke:#181818;stroke-width:1.0;"/><polygon fill="#181818" points="394.5,407.85,384.9202,405.5637,389.5843,408.7645,386.3835,413.4287,394.5,407.85" style="stroke:#181818;stroke-width:1.0;"/></g><!--link Owner to UC4--><g id="link_Owner_UC4"><path d="M140.74,734 C169.69,734 216.43,734 267.68,734 " fill="none" id="Owner-to-UC4" style="stroke:#181818;stroke-width:1.0;"/><polygon fill="#181818" points="272.97,734,263.97,730,267.97,734,263.97,738,272.97,734" style="stroke:#181818;stroke-width:1.0;"/></g><!--link System Administrator to UC5--><g id="link_System Administrator_UC5"><path d="M213.1,489 C264.19,489 326.9,489 383.08,489 " fill="none" id="System Administrator-to-UC5" style="stroke:#181818;stroke-width:1.0;"/><polygon fill="#181818" points="388.15,489,379.15,485,383.15,489,379.15,493,388.15,489" style="stroke:#181818;stroke-width:1.0;"/></g><!--link System Administrator to UC6--><g id="link_System Administrator_UC6"><path d="M213.32,526.08 C225.29,529.97 237.37,533.7 249,537 C288.76,548.29 332.15,558.84 372.7,567.96 " fill="none" id="System Administrator-to-UC6" style="stroke:#181818;stroke-width:1.0;"/><polygon fill="#181818" points="377.63,569.06,369.712,563.2029,372.7491,567.9753,367.9766,571.0124,377.63,569.06" style="stroke:#181818;stroke-width:1.0;"/></g><!--link Unregistered User to UC7--><g id="link_Unregistered User_UC7"><path d="M195.59,93.88 C254.3,86.9 333.48,77.49 400.16,69.56 " fill="none" id="Unregistered User-to-UC7" style="stroke:#181818;stroke-width:1.0;"/><polygon fill="#181818" points="405.34,68.94,395.9256,66.0472,400.376,69.5391,396.8841,73.9896,405.34,68.94" style="stroke:#181818;stroke-width:1.0;"/></g><!--SRC=[XP7TQiCm38NlynIYroji_RqRb6ox6cmiz06CeoIcYPpP2YKRU_V9ZLlIKAWlfU_eo4V-OAXLJZMrrGVC8ST2TJM_MUBC_20i7XD_Hg1L-g1ApBYl4HngLbJMc2Gr5WnimPcoOiXDQ1bB2SXJcgs3sPuSbiOpEZ7PUtIpSNTN8l5L9Uk5RM2NDuP4vfHKhu2F8uKXoMKD-3srEuzQUHJ7z0dca5hoyXzubo5W2_XqjaN71lqCb0U1fgf5K3bKZ6UuXnsHxKXZ4zOST8kfRYcwh_X7K41uXDUchMsF62NBgMHradntABkDBI2jhFM6Ik0AOGXd6B6QZbYFNODd9kcS3TTJUYDqrg8sHI-WVD4_m4k8rsZse2Y7r8oosKprsv6R3umANHVnRNBYRzmQvlFdIzRnsh4sv7ZxtX4PSeiNZxNLVTdwFhAvi_0s-Vi7]--></g></svg>