<?xml version="1.0" encoding="us-ascii" standalone="no"?><svg xmlns="http://www.w3.org/2000/svg" xmlns:xlink="http://www.w3.org/1999/xlink" contentStyleType="text/css" height="987px" preserveAspectRatio="none" style="width:1340px;height:987px;background:#FFFFFF;" version="1.1" viewBox="0 0 1340 987" width="1340px" zoomAndPan="magnify"><defs/><g><rect fill="#FFFFFF" height="792.4883" style="stroke:#181818;stroke-width:1.0;" width="10" x="60" y="93.6211"/><rect fill="#FFFFFF" height="203.0371" style="stroke:#181818;stroke-width:1.0;" width="10" x="419" y="116.9121"/><rect fill="#FFFFFF" height="75.582" style="stroke:#181818;stroke-width:1.0;" width="10" x="419" y="351.2402"/><rect fill="#FFFFFF" height="427.9961" style="stroke:#181818;stroke-width:1.0;" width="10" x="419" y="458.1133"/><rect fill="#FFFFFF" height="79.543" style="stroke:#181818;stroke-width:1.0;" width="10" x="642" y="191.8242"/><rect fill="#FFFFFF" height="313.541" style="stroke:#181818;stroke-width:1.0;" width="10" x="642" y="541.2773"/><rect fill="#FFFFFF" height="233.668" style="stroke:#181818;stroke-width:1.0;" width="10" x="991" y="589.8594"/><rect fill="#FFFFFF" height="90.543" style="stroke:#181818;stroke-width:1.0;" width="10" x="996" y="694.6934"/><line style="stroke:#181818;stroke-width:0.5;stroke-dasharray:5.0,5.0;" x1="65" x2="65" y1="83.6211" y2="904.1094"/><line style="stroke:#181818;stroke-width:0.5;stroke-dasharray:5.0,5.0;" x1="424" x2="424" y1="83.6211" y2="904.1094"/><line style="stroke:#181818;stroke-width:0.5;stroke-dasharray:5.0,5.0;" x1="647" x2="647" y1="156.7227" y2="904.1094"/><line style="stroke:#181818;stroke-width:0.5;stroke-dasharray:5.0,5.0;" x1="995.5" x2="995.5" y1="83.6211" y2="904.1094"/><text fill="#000000" font-family="sans-serif" font-size="14" lengthAdjust="spacing" textLength="114" x="5" y="80.1074">Unregistered User</text><ellipse cx="65" cy="13.5" fill="#E3E3E3" rx="8" ry="8" style="stroke:#181818;stroke-width:0.5;"/><path d="M65,21.5 L65,48.5 M52,29.5 L78,29.5 M65,48.5 L52,63.5 M65,48.5 L78,63.5 " fill="none" style="stroke:#181818;stroke-width:0.5;"/><text fill="#000000" font-family="sans-serif" font-size="14" lengthAdjust="spacing" textLength="114" x="5" y="918.2168">Unregistered User</text><ellipse cx="65" cy="930.2305" fill="#E3E3E3" rx="8" ry="8" style="stroke:#181818;stroke-width:0.5;"/><path d="M65,938.2305 L65,965.2305 M52,946.2305 L78,946.2305 M65,965.2305 L52,980.2305 M65,965.2305 L78,980.2305 " fill="none" style="stroke:#181818;stroke-width:0.5;"/><rect fill="#E3E3E3" height="32.6211" rx="2.5" ry="2.5" style="stroke:#181818;stroke-width:0.5;" width="106" x="371" y="50"/><text fill="#000000" font-family="sans-serif" font-size="14" lengthAdjust="spacing" textLength="92" x="378" y="72.1074">:ListPropertyUI</text><rect fill="#E3E3E3" height="32.6211" rx="2.5" ry="2.5" style="stroke:#181818;stroke-width:0.5;" width="106" x="371" y="903.1094"/><text fill="#000000" font-family="sans-serif" font-size="14" lengthAdjust="spacing" textLength="92" x="378" y="925.2168">:ListPropertyUI</text><rect fill="#E3E3E3" height="32.6211" rx="2.5" ry="2.5" style="stroke:#181818;stroke-width:0.5;" width="156" x="569" y="903.1094"/><text fill="#000000" font-family="sans-serif" font-size="14" lengthAdjust="spacing" textLength="142" x="576" y="925.2168">:ListPropertyController</text><rect fill="#E3E3E3" height="51.2422" rx="2.5" ry="2.5" style="stroke:#181818;stroke-width:0.5;" width="123" x="934.5" y="31.3789"/><text fill="#000000" font-family="sans-serif" font-size="14" lengthAdjust="spacing" textLength="105" x="943.5" y="53.4863">manageProperty</text><text fill="#000000" font-family="sans-serif" font-size="14" lengthAdjust="spacing" textLength="109" x="941.5" y="72.1074">:ManageProperty</text><rect fill="#E3E3E3" height="51.2422" rx="2.5" ry="2.5" style="stroke:#181818;stroke-width:0.5;" width="123" x="934.5" y="903.1094"/><text fill="#000000" font-family="sans-serif" font-size="14" lengthAdjust="spacing" textLength="105" x="943.5" y="925.2168">manageProperty</text><text fill="#000000" font-family="sans-serif" font-size="14" lengthAdjust="spacing" textLength="109" x="941.5" y="943.8379">:ManageProperty</text><rect fill="#FFFFFF" height="792.4883" style="stroke:#181818;stroke-width:1.0;" width="10" x="60" y="93.6211"/><rect fill="#FFFFFF" height="203.0371" style="stroke:#181818;stroke-width:1.0;" width="10" x="419" y="116.9121"/><rect fill="#FFFFFF" height="75.582" style="stroke:#181818;stroke-width:1.0;" width="10" x="419" y="351.2402"/><rect fill="#FFFFFF" height="427.9961" style="stroke:#181818;stroke-width:1.0;" width="10" x="419" y="458.1133"/><rect fill="#FFFFFF" height="79.543" style="stroke:#181818;stroke-width:1.0;" width="10" x="642" y="191.8242"/><rect fill="#FFFFFF" height="313.541" style="stroke:#181818;stroke-width:1.0;" width="10" x="642" y="541.2773"/><rect fill="#FFFFFF" height="233.668" style="stroke:#181818;stroke-width:1.0;" width="10" x="991" y="589.8594"/><rect fill="#FFFFFF" height="90.543" style="stroke:#181818;stroke-width:1.0;" width="10" x="996" y="694.6934"/><polygon fill="#181818" points="407,112.9121,417,116.9121,407,120.9121,411,116.9121" style="stroke:#181818;stroke-width:1.0;"/><line style="stroke:#181818;stroke-width:1.0;" x1="70" x2="413" y1="116.9121" y2="116.9121"/><text fill="#000000" font-family="sans-serif" font-size="13" font-weight="bold" lengthAdjust="spacing" textLength="7" x="77" y="111.6494">1</text><text fill="#000000" font-family="sans-serif" font-size="13" lengthAdjust="spacing" textLength="127" x="88" y="111.6494">Asks to list properties</text><polygon fill="#181818" points="557,144.2031,567,148.2031,557,152.2031,561,148.2031" style="stroke:#181818;stroke-width:1.0;"/><line style="stroke:#181818;stroke-width:1.0;" x1="429" x2="563" y1="148.2031" y2="148.2031"/><text fill="#000000" font-family="sans-serif" font-size="13" font-weight="bold" lengthAdjust="spacing" textLength="7" x="436" y="142.9404">2</text><text fill="#000000" font-family="sans-serif" font-size="13" lengthAdjust="spacing" textLength="36" x="447" y="142.9404">create</text><rect fill="#E3E3E3" height="32.6211" rx="2.5" ry="2.5" style="stroke:#181818;stroke-width:0.5;" width="156" x="569" y="124.9121"/><text fill="#000000" font-family="sans-serif" font-size="14" lengthAdjust="spacing" textLength="142" x="576" y="147.0195">:ListPropertyController</text><polygon fill="#181818" points="630,187.8242,640,191.8242,630,195.8242,634,191.8242" style="stroke:#181818;stroke-width:1.0;"/><line style="stroke:#181818;stroke-width:1.0;" x1="429" x2="636" y1="191.8242" y2="191.8242"/><text fill="#000000" font-family="sans-serif" font-size="13" font-weight="bold" lengthAdjust="spacing" textLength="7" x="436" y="186.5615">3</text><text fill="#000000" font-family="sans-serif" font-size="13" lengthAdjust="spacing" textLength="62" x="447" y="186.5615">getFilters()</text><rect fill="none" height="43.252" style="stroke:#000000;stroke-width:1.5;" width="162" x="566" y="199.8242"/><path d="M566,199.8242 L628,199.8242 L628,208.8242 L618,218.8242 L566,218.8242 L566,199.8242 " fill="#EEEEEE" style="stroke:#000000;stroke-width:2.0;"/><text fill="#000000" font-family="sans-serif" font-size="13" font-weight="bold" lengthAdjust="spacing" textLength="17" x="579" y="215.8525">ref</text><text fill="#000000" font-family="sans-serif" font-size="12" lengthAdjust="spacing" textLength="94" x="600" y="235.7734">Get List Of Filters</text><polygon fill="#181818" points="440,267.3672,430,271.3672,440,275.3672,436,271.3672" style="stroke:#181818;stroke-width:1.0;"/><line style="stroke:#181818;stroke-width:1.0;stroke-dasharray:2.0,2.0;" x1="434" x2="646" y1="271.3672" y2="271.3672"/><text fill="#000000" font-family="sans-serif" font-size="13" font-weight="bold" lengthAdjust="spacing" textLength="7" x="446" y="266.1045">4</text><text fill="#000000" font-family="sans-serif" font-size="13" lengthAdjust="spacing" textLength="57" x="457" y="266.1045">FiltersList</text><polygon fill="#181818" points="81,315.9492,71,319.9492,81,323.9492,77,319.9492" style="stroke:#181818;stroke-width:1.0;"/><line style="stroke:#181818;stroke-width:1.0;stroke-dasharray:2.0,2.0;" x1="75" x2="423" y1="319.9492" y2="319.9492"/><text fill="#000000" font-family="sans-serif" font-size="13" font-weight="bold" lengthAdjust="spacing" textLength="7" x="87" y="306.041">5</text><text fill="#000000" font-family="sans-serif" font-size="13" lengthAdjust="spacing" textLength="181" x="98" y="297.3955">Shows list of (type of business,</text><text fill="#000000" font-family="sans-serif" font-size="13" lengthAdjust="spacing" textLength="314" x="98" y="314.6865">type of property , number of rooms and sorting criteria)</text><polygon fill="#181818" points="407,347.2402,417,351.2402,407,355.2402,411,351.2402" style="stroke:#181818;stroke-width:1.0;"/><line style="stroke:#181818;stroke-width:1.0;" x1="70" x2="413" y1="351.2402" y2="351.2402"/><text fill="#000000" font-family="sans-serif" font-size="13" font-weight="bold" lengthAdjust="spacing" textLength="7" x="77" y="345.9775">6</text><text fill="#000000" font-family="sans-serif" font-size="13" lengthAdjust="spacing" textLength="123" x="88" y="345.9775">Selects data required</text><line style="stroke:#181818;stroke-width:1.0;stroke-dasharray:2.0,2.0;" x1="429" x2="471" y1="382.5313" y2="382.5313"/><line style="stroke:#181818;stroke-width:1.0;stroke-dasharray:2.0,2.0;" x1="471" x2="471" y1="382.5313" y2="395.5313"/><line style="stroke:#181818;stroke-width:1.0;stroke-dasharray:2.0,2.0;" x1="430" x2="471" y1="395.5313" y2="395.5313"/><polygon fill="#181818" points="440,391.5313,430,395.5313,440,399.5313,436,395.5313" style="stroke:#181818;stroke-width:1.0;"/><text fill="#000000" font-family="sans-serif" font-size="13" font-weight="bold" lengthAdjust="spacing" textLength="7" x="436" y="377.2686">7</text><text fill="#000000" font-family="sans-serif" font-size="13" lengthAdjust="spacing" textLength="183" x="447" y="377.2686">Validate selected specifications</text><polygon fill="#181818" points="81,422.8223,71,426.8223,81,430.8223,77,426.8223" style="stroke:#181818;stroke-width:1.0;"/><line style="stroke:#181818;stroke-width:1.0;stroke-dasharray:2.0,2.0;" x1="75" x2="423" y1="426.8223" y2="426.8223"/><text fill="#000000" font-family="sans-serif" font-size="13" font-weight="bold" lengthAdjust="spacing" textLength="7" x="87" y="421.5596">8</text><text fill="#000000" font-family="sans-serif" font-size="13" lengthAdjust="spacing" textLength="175" x="98" y="421.5596">Shows selected specifications</text><polygon fill="#181818" points="407,454.1133,417,458.1133,407,462.1133,411,458.1133" style="stroke:#181818;stroke-width:1.0;"/><line style="stroke:#181818;stroke-width:1.0;" x1="70" x2="413" y1="458.1133" y2="458.1133"/><text fill="#000000" font-family="sans-serif" font-size="13" font-weight="bold" lengthAdjust="spacing" textLength="7" x="77" y="452.8506">9</text><text fill="#000000" font-family="sans-serif" font-size="13" lengthAdjust="spacing" textLength="77" x="88" y="452.8506">Submits data</text><polygon fill="#181818" points="630,537.2773,640,541.2773,630,545.2773,634,541.2773" style="stroke:#181818;stroke-width:1.0;"/><line style="stroke:#181818;stroke-width:1.0;" x1="429" x2="636" y1="541.2773" y2="541.2773"/><text fill="#000000" font-family="sans-serif" font-size="13" font-weight="bold" lengthAdjust="spacing" textLength="14" x="436" y="510.0781">10</text><text fill="#000000" font-family="sans-serif" font-size="13" lengthAdjust="spacing" textLength="176" x="454" y="484.1416">listProperties(typeOfBusiness,</text><text fill="#000000" font-family="sans-serif" font-size="13" lengthAdjust="spacing" textLength="91" x="454" y="501.4326">typeOfProperty,</text><text fill="#000000" font-family="sans-serif" font-size="13" lengthAdjust="spacing" textLength="119" x="454" y="518.7236">numberOfBedrooms,</text><text fill="#000000" font-family="sans-serif" font-size="13" lengthAdjust="spacing" textLength="84" x="454" y="536.0146">sortingCriteria)</text><polygon fill="#181818" points="979,585.8594,989,589.8594,979,593.8594,983,589.8594" style="stroke:#181818;stroke-width:1.0;"/><line style="stroke:#181818;stroke-width:1.0;" x1="652" x2="985" y1="589.8594" y2="589.8594"/><text fill="#000000" font-family="sans-serif" font-size="13" font-weight="bold" lengthAdjust="spacing" textLength="14" x="659" y="575.9512">11</text><text fill="#000000" font-family="sans-serif" font-size="13" lengthAdjust="spacing" textLength="263" x="677" y="567.3057">getListOfPropertiesByFilters(typeOfBusiness,</text><text fill="#000000" font-family="sans-serif" font-size="13" lengthAdjust="spacing" textLength="302" x="677" y="584.5967">typeOfProperty, numberOfBedrooms, sortingCriteria)</text><rect fill="none" height="43.252" style="stroke:#000000;stroke-width:1.5;" width="129" x="931.5" y="597.8594"/><path d="M931.5,597.8594 L993.5,597.8594 L993.5,606.8594 L983.5,616.8594 L931.5,616.8594 L931.5,597.8594 " fill="#EEEEEE" style="stroke:#000000;stroke-width:2.0;"/><text fill="#000000" font-family="sans-serif" font-size="13" font-weight="bold" lengthAdjust="spacing" textLength="17" x="944.5" y="613.8877">ref</text><text fill="#000000" font-family="sans-serif" font-size="12" lengthAdjust="spacing" textLength="117" x="937.5" y="633.8086">Get List Of Properties</text><line style="stroke:#181818;stroke-width:1.0;" x1="1001" x2="1048" y1="681.6934" y2="681.6934"/><line style="stroke:#181818;stroke-width:1.0;" x1="1048" x2="1048" y1="681.6934" y2="694.6934"/><line style="stroke:#181818;stroke-width:1.0;" x1="1007" x2="1048" y1="694.6934" y2="694.6934"/><polygon fill="#181818" points="1017,690.6934,1007,694.6934,1017,698.6934,1013,694.6934" style="stroke:#181818;stroke-width:1.0;"/><text fill="#000000" font-family="sans-serif" font-size="13" font-weight="bold" lengthAdjust="spacing" textLength="14" x="1013" y="667.7852">12</text><text fill="#000000" font-family="sans-serif" font-size="13" lengthAdjust="spacing" textLength="263" x="1031" y="659.1396">getListOfPropertiesByFilters(typeOfBusiness,</text><text fill="#000000" font-family="sans-serif" font-size="13" lengthAdjust="spacing" textLength="302" x="1031" y="676.4307">typeOfProperty, numberOfBedrooms, sortingCriteria)</text><rect fill="none" height="43.252" style="stroke:#000000;stroke-width:1.5;" width="169" x="931.5" y="707.6934"/><path d="M931.5,707.6934 L993.5,707.6934 L993.5,716.6934 L983.5,726.6934 L931.5,726.6934 L931.5,707.6934 " fill="#EEEEEE" style="stroke:#000000;stroke-width:2.0;"/><text fill="#000000" font-family="sans-serif" font-size="13" font-weight="bold" lengthAdjust="spacing" textLength="17" x="944.5" y="723.7217">ref</text><text fill="#000000" font-family="sans-serif" font-size="12" lengthAdjust="spacing" textLength="161" x="935.5" y="743.6426">Get List Of Properties Filtered</text><line style="stroke:#181818;stroke-width:1.0;stroke-dasharray:2.0,2.0;" x1="1006" x2="1048" y1="784.2363" y2="784.2363"/><line style="stroke:#181818;stroke-width:1.0;stroke-dasharray:2.0,2.0;" x1="1048" x2="1048" y1="784.2363" y2="797.2363"/><line style="stroke:#181818;stroke-width:1.0;stroke-dasharray:2.0,2.0;" x1="1001" x2="1048" y1="797.2363" y2="797.2363"/><polygon fill="#181818" points="1011,793.2363,1001,797.2363,1011,801.2363,1007,797.2363" style="stroke:#181818;stroke-width:1.0;"/><text fill="#000000" font-family="sans-serif" font-size="13" font-weight="bold" lengthAdjust="spacing" textLength="14" x="1013" y="778.9736">13</text><text fill="#000000" font-family="sans-serif" font-size="13" lengthAdjust="spacing" textLength="132" x="1031" y="778.9736">listOfPropertiesFiltered</text><polygon fill="#181818" points="663,819.5273,653,823.5273,663,827.5273,659,823.5273" style="stroke:#181818;stroke-width:1.0;"/><line style="stroke:#181818;stroke-width:1.0;stroke-dasharray:2.0,2.0;" x1="657" x2="995" y1="823.5273" y2="823.5273"/><text fill="#000000" font-family="sans-serif" font-size="13" font-weight="bold" lengthAdjust="spacing" textLength="14" x="669" y="818.2646">14</text><text fill="#000000" font-family="sans-serif" font-size="13" lengthAdjust="spacing" textLength="132" x="687" y="818.2646">listOfPropertiesFiltered</text><polygon fill="#181818" points="440,850.8184,430,854.8184,440,858.8184,436,854.8184" style="stroke:#181818;stroke-width:1.0;"/><line style="stroke:#181818;stroke-width:1.0;stroke-dasharray:2.0,2.0;" x1="434" x2="646" y1="854.8184" y2="854.8184"/><text fill="#000000" font-family="sans-serif" font-size="13" font-weight="bold" lengthAdjust="spacing" textLength="14" x="446" y="849.5557">15</text><text fill="#000000" font-family="sans-serif" font-size="13" lengthAdjust="spacing" textLength="132" x="464" y="849.5557">listOfPropertiesFiltered</text><polygon fill="#181818" points="76,882.1094,66,886.1094,76,890.1094,72,886.1094" style="stroke:#181818;stroke-width:1.0;"/><line style="stroke:#181818;stroke-width:1.0;stroke-dasharray:2.0,2.0;" x1="70" x2="423" y1="886.1094" y2="886.1094"/><text fill="#000000" font-family="sans-serif" font-size="13" font-weight="bold" lengthAdjust="spacing" textLength="14" x="82" y="880.8467">16</text><text fill="#000000" font-family="sans-serif" font-size="13" lengthAdjust="spacing" textLength="236" x="100" y="880.8467">Displays all properties that suit the filters</text><!--SRC=[nLPBRzim3BxhLn2vD2kIFv13W3xG8K2B3CkoKo-AJIT2PCaJvNRvzwFyIFnCszDqaYcA-lJn8sKwAfD99rD8hR7HmTaKmRiS1PrNCXaTvHut_gGH74PUchrkEj11nlPTcJqaKXCA8NDlJPxkq0bnSr0nGcAjtzc_GaRUEfXiZSEz8eyEOzWIkWb8AYQ2GteLgKmQ3vF5CplzS3P3vq_RLUcrkkBpO8rtLkiguiEldyzjxrGQlalj_ceMBor3iQjj4YAWLc_IOubGG3N25yoNZ0WMS4T70cz1Cnh8ohqAwU9z2R9YLg0nUF-Smzmzld0SXtzo94yGIozXwZ1Xaao4CuYH8gSohwoP0IYJM9TA3Q-clU8nEXWLyKhB7ETEbhF8alyccW1k8eS1MK5N5zcoCD_UChRIJOouiCCU_PFId5QQjayuNxuuehKK1jyIx1kpsKDGZ-_e8IGQrWbKH_JyqCJzq0MoUPsbQck8rFACyGh2AZz5kXUmETXtAjDi4vZwKuPXiij96IIQSK9gMoM34yoWB8TWTDQc1DB4G9ObmbN3IM9GIbueQy09QXaKt0OrrsAbaw0QnSKaUahhNY9i_IsrYeC35J6u1Yd3I2MicY0H5gsuTlUnNGF8Hw3dkrHLqFk8gqqjOUbBZNDH5QIla_kQyfBnTLANB1jAlja7uu9mDbLqFxJPlgRCKZlBJaCeTHuaT3wHCTsVQkLtm44F7VJ0mJ2s5hvkLngjeOxZHzLqkSBd2ghBnl_XfmThZAUXwt-5gd6wgcPI5TqGTp0-kYGEiQWx59xF6mpSgBpU0_P918rY6ppt2qUEzU2FeeysudOZWaT5cPOdRgHQDvvRy0VfWNBbUSQ_7OsNOgWpTMpDp-Ab5_y0]--></g></svg>