<?xml version="1.0" encoding="UTF-8" standalone="no"?><svg xmlns="http://www.w3.org/2000/svg" xmlns:xlink="http://www.w3.org/1999/xlink" contentStyleType="text/css" height="1589px" preserveAspectRatio="none" style="width:2274px;height:1589px;background:#FFFFFF;" version="1.1" viewBox="0 0 2274 1589" width="2274px" zoomAndPan="magnify"><defs/><g><!--class ListPropertyUI--><g id="elem_ListPropertyUI"><rect codeLine="11" fill="#F1F1F1" height="50" id="ListPropertyUI" rx="2.5" ry="2.5" style="stroke:#181818;stroke-width:0.5;" width="168" x="1726.5" y="7"/><ellipse cx="1742.5" cy="24" fill="#ADD1B2" rx="12" ry="12" style="stroke:#181818;stroke-width:1.0;"/><path d="M1745.3066,31.0801 Q1744.623,31.4316 1743.8711,31.6074 Q1743.1191,31.7832 1742.2891,31.7832 Q1739.3398,31.7832 1737.7871,29.8398 Q1736.2344,27.8965 1736.2344,24.2246 Q1736.2344,20.543 1737.7871,18.5996 Q1739.3398,16.6563 1742.2891,16.6563 Q1743.1191,16.6563 1743.8809,16.832 Q1744.6426,17.0078 1745.3066,17.3594 L1745.3066,20.5625 Q1744.5645,19.8789 1743.8662,19.5615 Q1743.168,19.2441 1742.4258,19.2441 Q1740.8438,19.2441 1740.0381,20.499 Q1739.2324,21.7539 1739.2324,24.2246 Q1739.2324,26.6855 1740.0381,27.9404 Q1740.8438,29.1953 1742.4258,29.1953 Q1743.168,29.1953 1743.8662,28.8779 Q1744.5645,28.5605 1745.3066,27.877 Z " fill="#000000"/><text fill="#000000" font-family="sans-serif" font-size="20" lengthAdjust="spacing" textLength="134" x="1757.5" y="31.5586">ListPropertyUI</text><line style="stroke:#181818;stroke-width:0.5;" x1="1727.5" x2="1893.5" y1="41" y2="41"/><line style="stroke:#181818;stroke-width:0.5;" x1="1727.5" x2="1893.5" y1="49" y2="49"/></g><!--class ListPropertyController--><g id="elem_ListPropertyController"><rect codeLine="13" fill="#F1F1F1" height="191.3281" id="ListPropertyController" rx="2.5" ry="2.5" style="stroke:#181818;stroke-width:0.5;" width="595" x="1513" y="118"/><ellipse cx="1701" cy="135" fill="#ADD1B2" rx="12" ry="12" style="stroke:#181818;stroke-width:1.0;"/><path d="M1703.8066,142.0801 Q1703.123,142.4316 1702.3711,142.6074 Q1701.6191,142.7832 1700.7891,142.7832 Q1697.8398,142.7832 1696.2871,140.8398 Q1694.7344,138.8965 1694.7344,135.2246 Q1694.7344,131.543 1696.2871,129.5996 Q1697.8398,127.6563 1700.7891,127.6563 Q1701.6191,127.6563 1702.3809,127.832 Q1703.1426,128.0078 1703.8066,128.3594 L1703.8066,131.5625 Q1703.0645,130.8789 1702.3662,130.5615 Q1701.668,130.2441 1700.9258,130.2441 Q1699.3438,130.2441 1698.5381,131.499 Q1697.7324,132.7539 1697.7324,135.2246 Q1697.7324,137.6855 1698.5381,138.9404 Q1699.3438,140.1953 1700.9258,140.1953 Q1701.668,140.1953 1702.3662,139.8779 Q1703.0645,139.5605 1703.8066,138.877 Z " fill="#000000"/><text fill="#000000" font-family="sans-serif" font-size="20" lengthAdjust="spacing" textLength="210" x="1723" y="142.5586">ListPropertyController</text><line style="stroke:#181818;stroke-width:0.5;" x1="1514" x2="2107" y1="152" y2="152"/><line style="stroke:#181818;stroke-width:0.5;" x1="1514" x2="2107" y1="160" y2="160"/><text fill="#000000" font-family="sans-serif" font-size="20" lengthAdjust="spacing" textLength="583" x="1519" y="183.3359">+ListPropertyController(filterRepository, propertyRepository)</text><text fill="#000000" font-family="sans-serif" font-size="20" lengthAdjust="spacing" textLength="119" x="1519" y="206.8906">+getFilters()</text><text fill="#000000" font-family="sans-serif" font-size="20" lengthAdjust="spacing" textLength="452" x="1519" y="230.4453">+listProperties(typeOfBusiness,typeOfProperty,</text><text fill="#000000" font-family="sans-serif" font-size="20" lengthAdjust="spacing" textLength="346" x="1519" y="254">numberOfBedrooms,sortingCriteria)</text><text fill="#000000" font-family="sans-serif" font-size="20" lengthAdjust="spacing" textLength="437" x="1519" y="277.5547">-getListOfPropertiesByFilters(typeOfBusiness,</text><text fill="#000000" font-family="sans-serif" font-size="20" lengthAdjust="spacing" textLength="508" x="1519" y="301.1094">typeOfProperty, numberOfBedrooms, sortingCriteria)</text></g><!--class Repositories--><g id="elem_Repositories"><rect codeLine="20" fill="#F1F1F1" height="144.2188" id="Repositories" rx="2.5" ry="2.5" style="stroke:#181818;stroke-width:0.5;" width="288" x="1419.5" y="417.5"/><ellipse cx="1499.5" cy="434.5" fill="#ADD1B2" rx="12" ry="12" style="stroke:#181818;stroke-width:1.0;"/><path d="M1502.3066,441.5801 Q1501.623,441.9316 1500.8711,442.1074 Q1500.1191,442.2832 1499.2891,442.2832 Q1496.3398,442.2832 1494.7871,440.3398 Q1493.2344,438.3965 1493.2344,434.7246 Q1493.2344,431.043 1494.7871,429.0996 Q1496.3398,427.1563 1499.2891,427.1563 Q1500.1191,427.1563 1500.8809,427.332 Q1501.6426,427.5078 1502.3066,427.8594 L1502.3066,431.0625 Q1501.5645,430.3789 1500.8662,430.0615 Q1500.168,429.7441 1499.4258,429.7441 Q1497.8438,429.7441 1497.0381,430.999 Q1496.2324,432.2539 1496.2324,434.7246 Q1496.2324,437.1855 1497.0381,438.4404 Q1497.8438,439.6953 1499.4258,439.6953 Q1500.168,439.6953 1500.8662,439.3779 Q1501.5645,439.0605 1502.3066,438.377 Z " fill="#000000"/><text fill="#000000" font-family="sans-serif" font-size="20" lengthAdjust="spacing" textLength="119" x="1521.5" y="442.0586">Repositories</text><line style="stroke:#181818;stroke-width:0.5;" x1="1420.5" x2="1706.5" y1="451.5" y2="451.5"/><line style="stroke:#181818;stroke-width:0.5;" x1="1420.5" x2="1706.5" y1="459.5" y2="459.5"/><text fill="#000000" font-family="sans-serif" font-size="20" lengthAdjust="spacing" textLength="145" x="1425.5" y="482.8359">-Repositories()</text><text fill="#000000" font-family="sans-serif" font-size="20" lengthAdjust="spacing" textLength="276" x="1425.5" y="506.3906">+getInstance() : Repositories</text><text fill="#000000" font-family="sans-serif" font-size="20" lengthAdjust="spacing" textLength="242" x="1425.5" y="529.9453">+getPropertyRepository()</text><text fill="#000000" font-family="sans-serif" font-size="20" lengthAdjust="spacing" textLength="211" x="1425.5" y="553.5">+getFilterRepository()</text></g><!--class TypeOfBusinessRepository--><g id="elem_TypeOfBusinessRepository"><rect codeLine="27" fill="#F1F1F1" height="73.5547" id="TypeOfBusinessRepository" rx="2.5" ry="2.5" style="stroke:#181818;stroke-width:0.5;" width="289" x="1449" y="670"/><ellipse cx="1465" cy="687" fill="#ADD1B2" rx="12" ry="12" style="stroke:#181818;stroke-width:1.0;"/><path d="M1467.8066,694.0801 Q1467.123,694.4316 1466.3711,694.6074 Q1465.6191,694.7832 1464.7891,694.7832 Q1461.8398,694.7832 1460.2871,692.8398 Q1458.7344,690.8965 1458.7344,687.2246 Q1458.7344,683.543 1460.2871,681.5996 Q1461.8398,679.6563 1464.7891,679.6563 Q1465.6191,679.6563 1466.3809,679.832 Q1467.1426,680.0078 1467.8066,680.3594 L1467.8066,683.5625 Q1467.0645,682.8789 1466.3662,682.5615 Q1465.668,682.2441 1464.9258,682.2441 Q1463.3438,682.2441 1462.5381,683.499 Q1461.7324,684.7539 1461.7324,687.2246 Q1461.7324,689.6855 1462.5381,690.9404 Q1463.3438,692.1953 1464.9258,692.1953 Q1465.668,692.1953 1466.3662,691.8779 Q1467.0645,691.5605 1467.8066,690.877 Z " fill="#000000"/><text fill="#000000" font-family="sans-serif" font-size="20" lengthAdjust="spacing" textLength="255" x="1480" y="694.5586">TypeOfBusinessRepository</text><line style="stroke:#181818;stroke-width:0.5;" x1="1450" x2="1737" y1="704" y2="704"/><line style="stroke:#181818;stroke-width:0.5;" x1="1450" x2="1737" y1="712" y2="712"/><text fill="#000000" font-family="sans-serif" font-size="20" lengthAdjust="spacing" textLength="247" x="1455" y="735.3359">+getListTypeOfBusiness()</text></g><!--class TypeOfPropertyRepository--><g id="elem_TypeOfPropertyRepository"><rect codeLine="31" fill="#F1F1F1" height="73.5547" id="TypeOfPropertyRepository" rx="2.5" ry="2.5" style="stroke:#181818;stroke-width:0.5;" width="286" x="1127.5" y="670"/><ellipse cx="1143.5" cy="687" fill="#ADD1B2" rx="12" ry="12" style="stroke:#181818;stroke-width:1.0;"/><path d="M1146.3066,694.0801 Q1145.623,694.4316 1144.8711,694.6074 Q1144.1191,694.7832 1143.2891,694.7832 Q1140.3398,694.7832 1138.7871,692.8398 Q1137.2344,690.8965 1137.2344,687.2246 Q1137.2344,683.543 1138.7871,681.5996 Q1140.3398,679.6563 1143.2891,679.6563 Q1144.1191,679.6563 1144.8809,679.832 Q1145.6426,680.0078 1146.3066,680.3594 L1146.3066,683.5625 Q1145.5645,682.8789 1144.8662,682.5615 Q1144.168,682.2441 1143.4258,682.2441 Q1141.8438,682.2441 1141.0381,683.499 Q1140.2324,684.7539 1140.2324,687.2246 Q1140.2324,689.6855 1141.0381,690.9404 Q1141.8438,692.1953 1143.4258,692.1953 Q1144.168,692.1953 1144.8662,691.8779 Q1145.5645,691.5605 1146.3066,690.877 Z " fill="#000000"/><text fill="#000000" font-family="sans-serif" font-size="20" lengthAdjust="spacing" textLength="252" x="1158.5" y="694.5586">TypeOfPropertyRepository</text><line style="stroke:#181818;stroke-width:0.5;" x1="1128.5" x2="1412.5" y1="704" y2="704"/><line style="stroke:#181818;stroke-width:0.5;" x1="1128.5" x2="1412.5" y1="712" y2="712"/><text fill="#000000" font-family="sans-serif" font-size="20" lengthAdjust="spacing" textLength="244" x="1133.5" y="735.3359">+getListTypeOfProperty()</text></g><!--class NumberOfBedroomsRepository--><g id="elem_NumberOfBedroomsRepository"><rect codeLine="35" fill="#F1F1F1" height="73.5547" id="NumberOfBedroomsRepository" rx="2.5" ry="2.5" style="stroke:#181818;stroke-width:0.5;" width="334" x="1050.5" y="452.5"/><ellipse cx="1066.5" cy="469.5" fill="#ADD1B2" rx="12" ry="12" style="stroke:#181818;stroke-width:1.0;"/><path d="M1069.3066,476.5801 Q1068.623,476.9316 1067.8711,477.1074 Q1067.1191,477.2832 1066.2891,477.2832 Q1063.3398,477.2832 1061.7871,475.3398 Q1060.2344,473.3965 1060.2344,469.7246 Q1060.2344,466.043 1061.7871,464.0996 Q1063.3398,462.1563 1066.2891,462.1563 Q1067.1191,462.1563 1067.8809,462.332 Q1068.6426,462.5078 1069.3066,462.8594 L1069.3066,466.0625 Q1068.5645,465.3789 1067.8662,465.0615 Q1067.168,464.7441 1066.4258,464.7441 Q1064.8438,464.7441 1064.0381,465.999 Q1063.2324,467.2539 1063.2324,469.7246 Q1063.2324,472.1855 1064.0381,473.4404 Q1064.8438,474.6953 1066.4258,474.6953 Q1067.168,474.6953 1067.8662,474.3779 Q1068.5645,474.0605 1069.3066,473.377 Z " fill="#000000"/><text fill="#000000" font-family="sans-serif" font-size="20" lengthAdjust="spacing" textLength="300" x="1081.5" y="477.0586">NumberOfBedroomsRepository</text><line style="stroke:#181818;stroke-width:0.5;" x1="1051.5" x2="1383.5" y1="486.5" y2="486.5"/><line style="stroke:#181818;stroke-width:0.5;" x1="1051.5" x2="1383.5" y1="494.5" y2="494.5"/><text fill="#000000" font-family="sans-serif" font-size="20" lengthAdjust="spacing" textLength="292" x="1056.5" y="517.8359">+getListNumberOfBedrooms()</text></g><!--class SortingMethodsRepository--><g id="elem_SortingMethodsRepository"><rect codeLine="39" fill="#F1F1F1" height="50" id="SortingMethodsRepository" rx="2.5" ry="2.5" style="stroke:#181818;stroke-width:0.5;" width="286" x="729.5" y="464.5"/><ellipse cx="745.5" cy="481.5" fill="#ADD1B2" rx="12" ry="12" style="stroke:#181818;stroke-width:1.0;"/><path d="M748.3066,488.5801 Q747.623,488.9316 746.8711,489.1074 Q746.1191,489.2832 745.2891,489.2832 Q742.3398,489.2832 740.7871,487.3398 Q739.2344,485.3965 739.2344,481.7246 Q739.2344,478.043 740.7871,476.0996 Q742.3398,474.1563 745.2891,474.1563 Q746.1191,474.1563 746.8809,474.332 Q747.6426,474.5078 748.3066,474.8594 L748.3066,478.0625 Q747.5645,477.3789 746.8662,477.0615 Q746.168,476.7441 745.4258,476.7441 Q743.8438,476.7441 743.0381,477.999 Q742.2324,479.2539 742.2324,481.7246 Q742.2324,484.1855 743.0381,485.4404 Q743.8438,486.6953 745.4258,486.6953 Q746.168,486.6953 746.8662,486.3779 Q747.5645,486.0605 748.3066,485.377 Z " fill="#000000"/><text fill="#000000" font-family="sans-serif" font-size="20" lengthAdjust="spacing" textLength="252" x="760.5" y="489.0586">SortingMethodsRepository</text><line style="stroke:#181818;stroke-width:0.5;" x1="730.5" x2="1014.5" y1="498.5" y2="498.5"/><line style="stroke:#181818;stroke-width:0.5;" x1="730.5" x2="1014.5" y1="506.5" y2="506.5"/></g><!--class ComparatorAscendingPrice--><g id="elem_ComparatorAscendingPrice"><rect codeLine="41" fill="#F1F1F1" height="73.5547" id="ComparatorAscendingPrice" rx="2.5" ry="2.5" style="stroke:#181818;stroke-width:0.5;" width="295" x="893" y="176.5"/><ellipse cx="909" cy="193.5" fill="#ADD1B2" rx="12" ry="12" style="stroke:#181818;stroke-width:1.0;"/><path d="M911.8066,200.5801 Q911.123,200.9316 910.3711,201.1074 Q909.6191,201.2832 908.7891,201.2832 Q905.8398,201.2832 904.2871,199.3398 Q902.7344,197.3965 902.7344,193.7246 Q902.7344,190.043 904.2871,188.0996 Q905.8398,186.1563 908.7891,186.1563 Q909.6191,186.1563 910.3809,186.332 Q911.1426,186.5078 911.8066,186.8594 L911.8066,190.0625 Q911.0645,189.3789 910.3662,189.0615 Q909.668,188.7441 908.9258,188.7441 Q907.3438,188.7441 906.5381,189.999 Q905.7324,191.2539 905.7324,193.7246 Q905.7324,196.1855 906.5381,197.4404 Q907.3438,198.6953 908.9258,198.6953 Q909.668,198.6953 910.3662,198.3779 Q911.0645,198.0605 911.8066,197.377 Z " fill="#000000"/><text fill="#000000" font-family="sans-serif" font-size="20" lengthAdjust="spacing" textLength="261" x="924" y="201.0586">ComparatorAscendingPrice</text><line style="stroke:#181818;stroke-width:0.5;" x1="894" x2="1187" y1="210.5" y2="210.5"/><line style="stroke:#181818;stroke-width:0.5;" x1="894" x2="1187" y1="218.5" y2="218.5"/><text fill="#000000" font-family="sans-serif" font-size="20" lengthAdjust="spacing" textLength="114" x="899" y="241.8359">+compare()</text></g><!--class ComparatorDescendingPrice--><g id="elem_ComparatorDescendingPrice"><rect codeLine="45" fill="#F1F1F1" height="73.5547" id="ComparatorDescendingPrice" rx="2.5" ry="2.5" style="stroke:#181818;stroke-width:0.5;" width="307" x="551" y="176.5"/><ellipse cx="567" cy="193.5" fill="#ADD1B2" rx="12" ry="12" style="stroke:#181818;stroke-width:1.0;"/><path d="M569.8066,200.5801 Q569.123,200.9316 568.3711,201.1074 Q567.6191,201.2832 566.7891,201.2832 Q563.8398,201.2832 562.2871,199.3398 Q560.7344,197.3965 560.7344,193.7246 Q560.7344,190.043 562.2871,188.0996 Q563.8398,186.1563 566.7891,186.1563 Q567.6191,186.1563 568.3809,186.332 Q569.1426,186.5078 569.8066,186.8594 L569.8066,190.0625 Q569.0645,189.3789 568.3662,189.0615 Q567.668,188.7441 566.9258,188.7441 Q565.3438,188.7441 564.5381,189.999 Q563.7324,191.2539 563.7324,193.7246 Q563.7324,196.1855 564.5381,197.4404 Q565.3438,198.6953 566.9258,198.6953 Q567.668,198.6953 568.3662,198.3779 Q569.0645,198.0605 569.8066,197.377 Z " fill="#000000"/><text fill="#000000" font-family="sans-serif" font-size="20" lengthAdjust="spacing" textLength="273" x="582" y="201.0586">ComparatorDescendingPrice</text><line style="stroke:#181818;stroke-width:0.5;" x1="552" x2="857" y1="210.5" y2="210.5"/><line style="stroke:#181818;stroke-width:0.5;" x1="552" x2="857" y1="218.5" y2="218.5"/><text fill="#000000" font-family="sans-serif" font-size="20" lengthAdjust="spacing" textLength="114" x="557" y="241.8359">+compare()</text></g><!--class ComparatorCityAlphabetic--><g id="elem_ComparatorCityAlphabetic"><rect codeLine="49" fill="#F1F1F1" height="73.5547" id="ComparatorCityAlphabetic" rx="2.5" ry="2.5" style="stroke:#181818;stroke-width:0.5;" width="289" x="405" y="452.5"/><ellipse cx="421" cy="469.5" fill="#ADD1B2" rx="12" ry="12" style="stroke:#181818;stroke-width:1.0;"/><path d="M423.8066,476.5801 Q423.123,476.9316 422.3711,477.1074 Q421.6191,477.2832 420.7891,477.2832 Q417.8398,477.2832 416.2871,475.3398 Q414.7344,473.3965 414.7344,469.7246 Q414.7344,466.043 416.2871,464.0996 Q417.8398,462.1563 420.7891,462.1563 Q421.6191,462.1563 422.3809,462.332 Q423.1426,462.5078 423.8066,462.8594 L423.8066,466.0625 Q423.0645,465.3789 422.3662,465.0615 Q421.668,464.7441 420.9258,464.7441 Q419.3438,464.7441 418.5381,465.999 Q417.7324,467.2539 417.7324,469.7246 Q417.7324,472.1855 418.5381,473.4404 Q419.3438,474.6953 420.9258,474.6953 Q421.668,474.6953 422.3662,474.3779 Q423.0645,474.0605 423.8066,473.377 Z " fill="#000000"/><text fill="#000000" font-family="sans-serif" font-size="20" lengthAdjust="spacing" textLength="255" x="436" y="477.0586">ComparatorCityAlphabetic</text><line style="stroke:#181818;stroke-width:0.5;" x1="406" x2="693" y1="486.5" y2="486.5"/><line style="stroke:#181818;stroke-width:0.5;" x1="406" x2="693" y1="494.5" y2="494.5"/><text fill="#000000" font-family="sans-serif" font-size="20" lengthAdjust="spacing" textLength="114" x="411" y="517.8359">+compare()</text></g><!--class ComparatorCityAlphabeticReverse--><g id="elem_ComparatorCityAlphabeticReverse"><rect codeLine="53" fill="#F1F1F1" height="73.5547" id="ComparatorCityAlphabeticReverse" rx="2.5" ry="2.5" style="stroke:#181818;stroke-width:0.5;" width="363" x="7" y="452.5"/><ellipse cx="23" cy="469.5" fill="#ADD1B2" rx="12" ry="12" style="stroke:#181818;stroke-width:1.0;"/><path d="M25.8066,476.5801 Q25.123,476.9316 24.3711,477.1074 Q23.6191,477.2832 22.7891,477.2832 Q19.8398,477.2832 18.2871,475.3398 Q16.7344,473.3965 16.7344,469.7246 Q16.7344,466.043 18.2871,464.0996 Q19.8398,462.1563 22.7891,462.1563 Q23.6191,462.1563 24.3809,462.332 Q25.1426,462.5078 25.8066,462.8594 L25.8066,466.0625 Q25.0645,465.3789 24.3662,465.0615 Q23.668,464.7441 22.9258,464.7441 Q21.3438,464.7441 20.5381,465.999 Q19.7324,467.2539 19.7324,469.7246 Q19.7324,472.1855 20.5381,473.4404 Q21.3438,474.6953 22.9258,474.6953 Q23.668,474.6953 24.3662,474.3779 Q25.0645,474.0605 25.8066,473.377 Z " fill="#000000"/><text fill="#000000" font-family="sans-serif" font-size="20" lengthAdjust="spacing" textLength="329" x="38" y="477.0586">ComparatorCityAlphabeticReverse</text><line style="stroke:#181818;stroke-width:0.5;" x1="8" x2="369" y1="486.5" y2="486.5"/><line style="stroke:#181818;stroke-width:0.5;" x1="8" x2="369" y1="494.5" y2="494.5"/><text fill="#000000" font-family="sans-serif" font-size="20" lengthAdjust="spacing" textLength="114" x="13" y="517.8359">+compare()</text></g><!--class ComparatorStateAlphabetic--><g id="elem_ComparatorStateAlphabetic"><rect codeLine="57" fill="#F1F1F1" height="73.5547" id="ComparatorStateAlphabetic" rx="2.5" ry="2.5" style="stroke:#181818;stroke-width:0.5;" width="299" x="384" y="670"/><ellipse cx="400" cy="687" fill="#ADD1B2" rx="12" ry="12" style="stroke:#181818;stroke-width:1.0;"/><path d="M402.8066,694.0801 Q402.123,694.4316 401.3711,694.6074 Q400.6191,694.7832 399.7891,694.7832 Q396.8398,694.7832 395.2871,692.8398 Q393.7344,690.8965 393.7344,687.2246 Q393.7344,683.543 395.2871,681.5996 Q396.8398,679.6563 399.7891,679.6563 Q400.6191,679.6563 401.3809,679.832 Q402.1426,680.0078 402.8066,680.3594 L402.8066,683.5625 Q402.0645,682.8789 401.3662,682.5615 Q400.668,682.2441 399.9258,682.2441 Q398.3438,682.2441 397.5381,683.499 Q396.7324,684.7539 396.7324,687.2246 Q396.7324,689.6855 397.5381,690.9404 Q398.3438,692.1953 399.9258,692.1953 Q400.668,692.1953 401.3662,691.8779 Q402.0645,691.5605 402.8066,690.877 Z " fill="#000000"/><text fill="#000000" font-family="sans-serif" font-size="20" lengthAdjust="spacing" textLength="265" x="415" y="694.5586">ComparatorStateAlphabetic</text><line style="stroke:#181818;stroke-width:0.5;" x1="385" x2="682" y1="704" y2="704"/><line style="stroke:#181818;stroke-width:0.5;" x1="385" x2="682" y1="712" y2="712"/><text fill="#000000" font-family="sans-serif" font-size="20" lengthAdjust="spacing" textLength="114" x="390" y="735.3359">+compare()</text></g><!--class ComparatorStateAlphabeticReverse--><g id="elem_ComparatorStateAlphabeticReverse"><rect codeLine="61" fill="#F1F1F1" height="73.5547" id="ComparatorStateAlphabeticReverse" rx="2.5" ry="2.5" style="stroke:#181818;stroke-width:0.5;" width="373" x="718" y="670"/><ellipse cx="734" cy="687" fill="#ADD1B2" rx="12" ry="12" style="stroke:#181818;stroke-width:1.0;"/><path d="M736.8066,694.0801 Q736.123,694.4316 735.3711,694.6074 Q734.6191,694.7832 733.7891,694.7832 Q730.8398,694.7832 729.2871,692.8398 Q727.7344,690.8965 727.7344,687.2246 Q727.7344,683.543 729.2871,681.5996 Q730.8398,679.6563 733.7891,679.6563 Q734.6191,679.6563 735.3809,679.832 Q736.1426,680.0078 736.8066,680.3594 L736.8066,683.5625 Q736.0645,682.8789 735.3662,682.5615 Q734.668,682.2441 733.9258,682.2441 Q732.3438,682.2441 731.5381,683.499 Q730.7324,684.7539 730.7324,687.2246 Q730.7324,689.6855 731.5381,690.9404 Q732.3438,692.1953 733.9258,692.1953 Q734.668,692.1953 735.3662,691.8779 Q736.0645,691.5605 736.8066,690.877 Z " fill="#000000"/><text fill="#000000" font-family="sans-serif" font-size="20" lengthAdjust="spacing" textLength="339" x="749" y="694.5586">ComparatorStateAlphabeticReverse</text><line style="stroke:#181818;stroke-width:0.5;" x1="719" x2="1090" y1="704" y2="704"/><line style="stroke:#181818;stroke-width:0.5;" x1="719" x2="1090" y1="712" y2="712"/><text fill="#000000" font-family="sans-serif" font-size="20" lengthAdjust="spacing" textLength="114" x="724" y="735.3359">+compare()</text></g><!--class ManageAdvertisement--><g id="elem_ManageAdvertisement"><rect codeLine="65" fill="#F1F1F1" height="191.3281" id="ManageAdvertisement" rx="2.5" ry="2.5" style="stroke:#181818;stroke-width:0.5;" width="520" x="1742.5" y="394"/><ellipse cx="1891.5" cy="411" fill="#ADD1B2" rx="12" ry="12" style="stroke:#181818;stroke-width:1.0;"/><path d="M1894.3066,418.0801 Q1893.623,418.4316 1892.8711,418.6074 Q1892.1191,418.7832 1891.2891,418.7832 Q1888.3398,418.7832 1886.7871,416.8398 Q1885.2344,414.8965 1885.2344,411.2246 Q1885.2344,407.543 1886.7871,405.5996 Q1888.3398,403.6563 1891.2891,403.6563 Q1892.1191,403.6563 1892.8809,403.832 Q1893.6426,404.0078 1894.3066,404.3594 L1894.3066,407.5625 Q1893.5645,406.8789 1892.8662,406.5615 Q1892.168,406.2441 1891.4258,406.2441 Q1889.8438,406.2441 1889.0381,407.499 Q1888.2324,408.7539 1888.2324,411.2246 Q1888.2324,413.6855 1889.0381,414.9404 Q1889.8438,416.1953 1891.4258,416.1953 Q1892.168,416.1953 1892.8662,415.8779 Q1893.5645,415.5605 1894.3066,414.877 Z " fill="#000000"/><text fill="#000000" font-family="sans-serif" font-size="20" lengthAdjust="spacing" textLength="213" x="1913.5" y="418.5586">ManageAdvertisement</text><line style="stroke:#181818;stroke-width:0.5;" x1="1743.5" x2="2261.5" y1="428" y2="428"/><line style="stroke:#181818;stroke-width:0.5;" x1="1743.5" x2="2261.5" y1="436" y2="436"/><text fill="#000000" font-family="sans-serif" font-size="20" lengthAdjust="spacing" textLength="157" x="1748.5" y="459.3359">+getProperties()</text><text fill="#000000" font-family="sans-serif" font-size="20" lengthAdjust="spacing" textLength="383" x="1748.5" y="482.8906">+getSortedListByFilters(typeOfBusiness,</text><text fill="#000000" font-family="sans-serif" font-size="20" lengthAdjust="spacing" textLength="503" x="1748.5" y="506.4453">typeOfProperty,numberOfBedrooms, sortingMethod)</text><text fill="#000000" font-family="sans-serif" font-size="20" lengthAdjust="spacing" textLength="321" x="1748.5" y="530">+getListByFilters(typeOfBusiness,</text><text fill="#000000" font-family="sans-serif" font-size="20" lengthAdjust="spacing" textLength="508" x="1748.5" y="553.5547">typeOfProperty, numberOfBedrooms, sortingCriteria)</text><text fill="#000000" font-family="sans-serif" font-size="20" lengthAdjust="spacing" textLength="335" x="1748.5" y="577.1094">+getSortedList(list, sortingCriteria)</text></g><!--class AdvertisementRepository--><g id="elem_AdvertisementRepository"><rect codeLine="72" fill="#F1F1F1" height="73.5547" id="AdvertisementRepository" rx="2.5" ry="2.5" style="stroke:#181818;stroke-width:0.5;" width="275" x="1834" y="670"/><ellipse cx="1850" cy="687" fill="#ADD1B2" rx="12" ry="12" style="stroke:#181818;stroke-width:1.0;"/><path d="M1852.8066,694.0801 Q1852.123,694.4316 1851.3711,694.6074 Q1850.6191,694.7832 1849.7891,694.7832 Q1846.8398,694.7832 1845.2871,692.8398 Q1843.7344,690.8965 1843.7344,687.2246 Q1843.7344,683.543 1845.2871,681.5996 Q1846.8398,679.6563 1849.7891,679.6563 Q1850.6191,679.6563 1851.3809,679.832 Q1852.1426,680.0078 1852.8066,680.3594 L1852.8066,683.5625 Q1852.0645,682.8789 1851.3662,682.5615 Q1850.668,682.2441 1849.9258,682.2441 Q1848.3438,682.2441 1847.5381,683.499 Q1846.7324,684.7539 1846.7324,687.2246 Q1846.7324,689.6855 1847.5381,690.9404 Q1848.3438,692.1953 1849.9258,692.1953 Q1850.668,692.1953 1851.3662,691.8779 Q1852.0645,691.5605 1852.8066,690.877 Z " fill="#000000"/><text fill="#000000" font-family="sans-serif" font-size="20" lengthAdjust="spacing" textLength="241" x="1865" y="694.5586">AdvertisementRepository</text><line style="stroke:#181818;stroke-width:0.5;" x1="1835" x2="2108" y1="704" y2="704"/><line style="stroke:#181818;stroke-width:0.5;" x1="1835" x2="2108" y1="712" y2="712"/><text fill="#000000" font-family="sans-serif" font-size="20" lengthAdjust="spacing" textLength="209" x="1840" y="735.3359">+getAdvertisements()</text></g><!--class Advertisement--><g id="elem_Advertisement"><rect codeLine="77" fill="#F1F1F1" height="73.5547" id="Advertisement" rx="2.5" ry="2.5" style="stroke:#181818;stroke-width:0.5;" width="290" x="1826.5" y="805"/><ellipse cx="1897.5" cy="822" fill="#ADD1B2" rx="12" ry="12" style="stroke:#181818;stroke-width:1.0;"/><path d="M1900.3066,829.0801 Q1899.623,829.4316 1898.8711,829.6074 Q1898.1191,829.7832 1897.2891,829.7832 Q1894.3398,829.7832 1892.7871,827.8398 Q1891.2344,825.8965 1891.2344,822.2246 Q1891.2344,818.543 1892.7871,816.5996 Q1894.3398,814.6563 1897.2891,814.6563 Q1898.1191,814.6563 1898.8809,814.832 Q1899.6426,815.0078 1900.3066,815.3594 L1900.3066,818.5625 Q1899.5645,817.8789 1898.8662,817.5615 Q1898.168,817.2441 1897.4258,817.2441 Q1895.8438,817.2441 1895.0381,818.499 Q1894.2324,819.7539 1894.2324,822.2246 Q1894.2324,824.6855 1895.0381,825.9404 Q1895.8438,827.1953 1897.4258,827.1953 Q1898.168,827.1953 1898.8662,826.8779 Q1899.5645,826.5605 1900.3066,825.877 Z " fill="#000000"/><text fill="#000000" font-family="sans-serif" font-size="20" lengthAdjust="spacing" textLength="139" x="1919.5" y="829.5586">Advertisement</text><line style="stroke:#181818;stroke-width:0.5;" x1="1827.5" x2="2115.5" y1="839" y2="839"/><text fill="#000000" font-family="sans-serif" font-size="20" lengthAdjust="spacing" textLength="278" x="1832.5" y="862.3359">-String dateOfAdvertisement</text><line style="stroke:#181818;stroke-width:0.5;" x1="1827.5" x2="2115.5" y1="870.5547" y2="870.5547"/></g><!--class RequestAdvertisement--><g id="elem_RequestAdvertisement"><rect codeLine="81" fill="#F1F1F1" height="97.1094" id="RequestAdvertisement" rx="2.5" ry="2.5" style="stroke:#181818;stroke-width:0.5;" width="250" x="1846.5" y="940"/><ellipse cx="1862.5" cy="957" fill="#ADD1B2" rx="12" ry="12" style="stroke:#181818;stroke-width:1.0;"/><path d="M1865.3066,964.0801 Q1864.623,964.4316 1863.8711,964.6074 Q1863.1191,964.7832 1862.2891,964.7832 Q1859.3398,964.7832 1857.7871,962.8398 Q1856.2344,960.8965 1856.2344,957.2246 Q1856.2344,953.543 1857.7871,951.5996 Q1859.3398,949.6563 1862.2891,949.6563 Q1863.1191,949.6563 1863.8809,949.832 Q1864.6426,950.0078 1865.3066,950.3594 L1865.3066,953.5625 Q1864.5645,952.8789 1863.8662,952.5615 Q1863.168,952.2441 1862.4258,952.2441 Q1860.8438,952.2441 1860.0381,953.499 Q1859.2324,954.7539 1859.2324,957.2246 Q1859.2324,959.6855 1860.0381,960.9404 Q1860.8438,962.1953 1862.4258,962.1953 Q1863.168,962.1953 1863.8662,961.8779 Q1864.5645,961.5605 1865.3066,960.877 Z " fill="#000000"/><text fill="#000000" font-family="sans-serif" font-size="20" lengthAdjust="spacing" textLength="216" x="1877.5" y="964.5586">RequestAdvertisement</text><line style="stroke:#181818;stroke-width:0.5;" x1="1847.5" x2="2095.5" y1="974" y2="974"/><text fill="#000000" font-family="sans-serif" font-size="20" lengthAdjust="spacing" textLength="133" x="1852.5" y="997.3359">-double price</text><text fill="#000000" font-family="sans-serif" font-size="20" lengthAdjust="spacing" textLength="216" x="1852.5" y="1020.8906">-String dateOfRequest</text><line style="stroke:#181818;stroke-width:0.5;" x1="1847.5" x2="2095.5" y1="1029.1094" y2="1029.1094"/></g><!--class Property--><g id="elem_Property"><rect codeLine="86" fill="#F1F1F1" height="97.1094" id="Property" rx="2.5" ry="2.5" style="stroke:#181818;stroke-width:0.5;" width="233" x="1855" y="1110"/><ellipse cx="1927" cy="1127" fill="#ADD1B2" rx="12" ry="12" style="stroke:#181818;stroke-width:1.0;"/><path d="M1929.8066,1134.0801 Q1929.123,1134.4316 1928.3711,1134.6074 Q1927.6191,1134.7832 1926.7891,1134.7832 Q1923.8398,1134.7832 1922.2871,1132.8398 Q1920.7344,1130.8965 1920.7344,1127.2246 Q1920.7344,1123.543 1922.2871,1121.5996 Q1923.8398,1119.6563 1926.7891,1119.6563 Q1927.6191,1119.6563 1928.3809,1119.832 Q1929.1426,1120.0078 1929.8066,1120.3594 L1929.8066,1123.5625 Q1929.0645,1122.8789 1928.3662,1122.5615 Q1927.668,1122.2441 1926.9258,1122.2441 Q1925.3438,1122.2441 1924.5381,1123.499 Q1923.7324,1124.7539 1923.7324,1127.2246 Q1923.7324,1129.6855 1924.5381,1130.9404 Q1925.3438,1132.1953 1926.9258,1132.1953 Q1927.668,1132.1953 1928.3662,1131.8779 Q1929.0645,1131.5605 1929.8066,1130.877 Z " fill="#000000"/><text fill="#000000" font-family="sans-serif" font-size="20" lengthAdjust="spacing" textLength="80" x="1949" y="1134.5586">Property</text><line style="stroke:#181818;stroke-width:0.5;" x1="1856" x2="2087" y1="1144" y2="1144"/><text fill="#000000" font-family="sans-serif" font-size="20" lengthAdjust="spacing" textLength="126" x="1861" y="1167.3359">-double area</text><text fill="#000000" font-family="sans-serif" font-size="20" lengthAdjust="spacing" textLength="221" x="1861" y="1190.8906">-double distCityCenter</text><line style="stroke:#181818;stroke-width:0.5;" x1="1856" x2="2087" y1="1199.1094" y2="1199.1094"/></g><!--class Address--><g id="elem_Address"><rect codeLine="91" fill="#F1F1F1" height="120.6641" id="Address" rx="2.5" ry="2.5" style="stroke:#181818;stroke-width:0.5;" width="155" x="1665" y="1098"/><ellipse cx="1699.9" cy="1115" fill="#ADD1B2" rx="12" ry="12" style="stroke:#181818;stroke-width:1.0;"/><path d="M1702.7066,1122.0801 Q1702.023,1122.4316 1701.2711,1122.6074 Q1700.5191,1122.7832 1699.6891,1122.7832 Q1696.7398,1122.7832 1695.1871,1120.8398 Q1693.6344,1118.8965 1693.6344,1115.2246 Q1693.6344,1111.543 1695.1871,1109.5996 Q1696.7398,1107.6563 1699.6891,1107.6563 Q1700.5191,1107.6563 1701.2809,1107.832 Q1702.0426,1108.0078 1702.7066,1108.3594 L1702.7066,1111.5625 Q1701.9645,1110.8789 1701.2662,1110.5615 Q1700.568,1110.2441 1699.8258,1110.2441 Q1698.2438,1110.2441 1697.4381,1111.499 Q1696.6324,1112.7539 1696.6324,1115.2246 Q1696.6324,1117.6855 1697.4381,1118.9404 Q1698.2438,1120.1953 1699.8258,1120.1953 Q1700.568,1120.1953 1701.2662,1119.8779 Q1701.9645,1119.5605 1702.7066,1118.877 Z " fill="#000000"/><text fill="#000000" font-family="sans-serif" font-size="20" lengthAdjust="spacing" textLength="79" x="1719.1" y="1122.5586">Address</text><line style="stroke:#181818;stroke-width:0.5;" x1="1666" x2="1819" y1="1132" y2="1132"/><text fill="#000000" font-family="sans-serif" font-size="20" lengthAdjust="spacing" textLength="121" x="1671" y="1155.3359">-String State</text><text fill="#000000" font-family="sans-serif" font-size="20" lengthAdjust="spacing" textLength="111" x="1671" y="1178.8906">-String City</text><text fill="#000000" font-family="sans-serif" font-size="20" lengthAdjust="spacing" textLength="143" x="1671" y="1202.4453">-String District</text><line style="stroke:#181818;stroke-width:0.5;" x1="1666" x2="1819" y1="1210.6641" y2="1210.6641"/></g><!--class Photograph--><g id="elem_Photograph"><rect codeLine="97" fill="#F1F1F1" height="73.5547" id="Photograph" rx="2.5" ry="2.5" style="stroke:#181818;stroke-width:0.5;" width="144" x="2123.5" y="1121.5"/><ellipse cx="2139.5" cy="1138.5" fill="#ADD1B2" rx="12" ry="12" style="stroke:#181818;stroke-width:1.0;"/><path d="M2142.3066,1145.5801 Q2141.623,1145.9316 2140.8711,1146.1074 Q2140.1191,1146.2832 2139.2891,1146.2832 Q2136.3398,1146.2832 2134.7871,1144.3398 Q2133.2344,1142.3965 2133.2344,1138.7246 Q2133.2344,1135.043 2134.7871,1133.0996 Q2136.3398,1131.1563 2139.2891,1131.1563 Q2140.1191,1131.1563 2140.8809,1131.332 Q2141.6426,1131.5078 2142.3066,1131.8594 L2142.3066,1135.0625 Q2141.5645,1134.3789 2140.8662,1134.0615 Q2140.168,1133.7441 2139.4258,1133.7441 Q2137.8438,1133.7441 2137.0381,1134.999 Q2136.2324,1136.2539 2136.2324,1138.7246 Q2136.2324,1141.1855 2137.0381,1142.4404 Q2137.8438,1143.6953 2139.4258,1143.6953 Q2140.168,1143.6953 2140.8662,1143.3779 Q2141.5645,1143.0605 2142.3066,1142.377 Z " fill="#000000"/><text fill="#000000" font-family="sans-serif" font-size="20" lengthAdjust="spacing" textLength="110" x="2154.5" y="1146.0586">Photograph</text><line style="stroke:#181818;stroke-width:0.5;" x1="2124.5" x2="2266.5" y1="1155.5" y2="1155.5"/><text fill="#000000" font-family="sans-serif" font-size="20" lengthAdjust="spacing" textLength="107" x="2129.5" y="1178.8359">-String URI</text><line style="stroke:#181818;stroke-width:0.5;" x1="2124.5" x2="2266.5" y1="1187.0547" y2="1187.0547"/></g><!--class Land--><g id="elem_Land"><rect codeLine="101" fill="#F1F1F1" height="50" id="Land" rx="2.5" ry="2.5" style="stroke:#181818;stroke-width:0.5;" width="81" x="1997" y="1315.5"/><ellipse cx="2013" cy="1332.5" fill="#ADD1B2" rx="12" ry="12" style="stroke:#181818;stroke-width:1.0;"/><path d="M2015.8066,1339.5801 Q2015.123,1339.9316 2014.3711,1340.1074 Q2013.6191,1340.2832 2012.7891,1340.2832 Q2009.8398,1340.2832 2008.2871,1338.3398 Q2006.7344,1336.3965 2006.7344,1332.7246 Q2006.7344,1329.043 2008.2871,1327.0996 Q2009.8398,1325.1563 2012.7891,1325.1563 Q2013.6191,1325.1563 2014.3809,1325.332 Q2015.1426,1325.5078 2015.8066,1325.8594 L2015.8066,1329.0625 Q2015.0645,1328.3789 2014.3662,1328.0615 Q2013.668,1327.7441 2012.9258,1327.7441 Q2011.3438,1327.7441 2010.5381,1328.999 Q2009.7324,1330.2539 2009.7324,1332.7246 Q2009.7324,1335.1855 2010.5381,1336.4404 Q2011.3438,1337.6953 2012.9258,1337.6953 Q2013.668,1337.6953 2014.3662,1337.3779 Q2015.0645,1337.0605 2015.8066,1336.377 Z " fill="#000000"/><text fill="#000000" font-family="sans-serif" font-size="20" lengthAdjust="spacing" textLength="47" x="2028" y="1340.0586">Land</text><line style="stroke:#181818;stroke-width:0.5;" x1="1998" x2="2077" y1="1349.5" y2="1349.5"/><line style="stroke:#181818;stroke-width:0.5;" x1="1998" x2="2077" y1="1357.5" y2="1357.5"/></g><!--class Residence--><g id="elem_Residence"><rect codeLine="105" fill="#F1F1F1" height="120.6641" id="Residence" rx="2.5" ry="2.5" style="stroke:#181818;stroke-width:0.5;" width="291" x="1671" y="1280"/><ellipse cx="1763.5" cy="1297" fill="#ADD1B2" rx="12" ry="12" style="stroke:#181818;stroke-width:1.0;"/><path d="M1766.3066,1304.0801 Q1765.623,1304.4316 1764.8711,1304.6074 Q1764.1191,1304.7832 1763.2891,1304.7832 Q1760.3398,1304.7832 1758.7871,1302.8398 Q1757.2344,1300.8965 1757.2344,1297.2246 Q1757.2344,1293.543 1758.7871,1291.5996 Q1760.3398,1289.6563 1763.2891,1289.6563 Q1764.1191,1289.6563 1764.8809,1289.832 Q1765.6426,1290.0078 1766.3066,1290.3594 L1766.3066,1293.5625 Q1765.5645,1292.8789 1764.8662,1292.5615 Q1764.168,1292.2441 1763.4258,1292.2441 Q1761.8438,1292.2441 1761.0381,1293.499 Q1760.2324,1294.7539 1760.2324,1297.2246 Q1760.2324,1299.6855 1761.0381,1300.9404 Q1761.8438,1302.1953 1763.4258,1302.1953 Q1764.168,1302.1953 1764.8662,1301.8779 Q1765.5645,1301.5605 1766.3066,1300.877 Z " fill="#000000"/><text fill="#000000" font-family="sans-serif" font-size="20" lengthAdjust="spacing" textLength="97" x="1785.5" y="1304.5586">Residence</text><line style="stroke:#181818;stroke-width:0.5;" x1="1672" x2="1961" y1="1314" y2="1314"/><text fill="#000000" font-family="sans-serif" font-size="20" lengthAdjust="spacing" textLength="244" x="1677" y="1337.3359">-int numberOfBathrooms</text><text fill="#000000" font-family="sans-serif" font-size="20" lengthAdjust="spacing" textLength="238" x="1677" y="1360.8906">-int numberOfBedrooms</text><text fill="#000000" font-family="sans-serif" font-size="20" lengthAdjust="spacing" textLength="279" x="1677" y="1384.4453">-int numberOfParkingSpaces</text><line style="stroke:#181818;stroke-width:0.5;" x1="1672" x2="1961" y1="1392.6641" y2="1392.6641"/></g><!--class Equipment--><g id="elem_Equipment"><rect codeLine="111" fill="#F1F1F1" height="73.5547" id="Equipment" rx="2.5" ry="2.5" style="stroke:#181818;stroke-width:0.5;" width="198" x="1437.5" y="1303.5"/><ellipse cx="1480.5" cy="1320.5" fill="#ADD1B2" rx="12" ry="12" style="stroke:#181818;stroke-width:1.0;"/><path d="M1483.3066,1327.5801 Q1482.623,1327.9316 1481.8711,1328.1074 Q1481.1191,1328.2832 1480.2891,1328.2832 Q1477.3398,1328.2832 1475.7871,1326.3398 Q1474.2344,1324.3965 1474.2344,1320.7246 Q1474.2344,1317.043 1475.7871,1315.0996 Q1477.3398,1313.1563 1480.2891,1313.1563 Q1481.1191,1313.1563 1481.8809,1313.332 Q1482.6426,1313.5078 1483.3066,1313.8594 L1483.3066,1317.0625 Q1482.5645,1316.3789 1481.8662,1316.0615 Q1481.168,1315.7441 1480.4258,1315.7441 Q1478.8438,1315.7441 1478.0381,1316.999 Q1477.2324,1318.2539 1477.2324,1320.7246 Q1477.2324,1323.1855 1478.0381,1324.4404 Q1478.8438,1325.6953 1480.4258,1325.6953 Q1481.168,1325.6953 1481.8662,1325.3779 Q1482.5645,1325.0605 1483.3066,1324.377 Z " fill="#000000"/><text fill="#000000" font-family="sans-serif" font-size="20" lengthAdjust="spacing" textLength="104" x="1501.5" y="1328.0586">Equipment</text><line style="stroke:#181818;stroke-width:0.5;" x1="1438.5" x2="1634.5" y1="1337.5" y2="1337.5"/><text fill="#000000" font-family="sans-serif" font-size="20" lengthAdjust="spacing" textLength="186" x="1443.5" y="1360.8359">-String designation</text><line style="stroke:#181818;stroke-width:0.5;" x1="1438.5" x2="1634.5" y1="1369.0547" y2="1369.0547"/></g><!--class House--><g id="elem_House"><rect codeLine="115" fill="#F1F1F1" height="120.6641" id="House" rx="2.5" ry="2.5" style="stroke:#181818;stroke-width:0.5;" width="201" x="1614" y="1462"/><ellipse cx="1680" cy="1479" fill="#ADD1B2" rx="12" ry="12" style="stroke:#181818;stroke-width:1.0;"/><path d="M1682.8066,1486.0801 Q1682.123,1486.4316 1681.3711,1486.6074 Q1680.6191,1486.7832 1679.7891,1486.7832 Q1676.8398,1486.7832 1675.2871,1484.8398 Q1673.7344,1482.8965 1673.7344,1479.2246 Q1673.7344,1475.543 1675.2871,1473.5996 Q1676.8398,1471.6563 1679.7891,1471.6563 Q1680.6191,1471.6563 1681.3809,1471.832 Q1682.1426,1472.0078 1682.8066,1472.3594 L1682.8066,1475.5625 Q1682.0645,1474.8789 1681.3662,1474.5615 Q1680.668,1474.2441 1679.9258,1474.2441 Q1678.3438,1474.2441 1677.5381,1475.499 Q1676.7324,1476.7539 1676.7324,1479.2246 Q1676.7324,1481.6855 1677.5381,1482.9404 Q1678.3438,1484.1953 1679.9258,1484.1953 Q1680.668,1484.1953 1681.3662,1483.8779 Q1682.0645,1483.5605 1682.8066,1482.877 Z " fill="#000000"/><text fill="#000000" font-family="sans-serif" font-size="20" lengthAdjust="spacing" textLength="60" x="1702" y="1486.5586">House</text><line style="stroke:#181818;stroke-width:0.5;" x1="1615" x2="1814" y1="1496" y2="1496"/><text fill="#000000" font-family="sans-serif" font-size="20" lengthAdjust="spacing" textLength="127" x="1620" y="1519.3359">-boolean loft</text><text fill="#000000" font-family="sans-serif" font-size="20" lengthAdjust="spacing" textLength="189" x="1620" y="1542.8906">-boolean basement</text><text fill="#000000" font-family="sans-serif" font-size="20" lengthAdjust="spacing" textLength="185" x="1620" y="1566.4453">-String sunExposer</text><line style="stroke:#181818;stroke-width:0.5;" x1="1615" x2="1814" y1="1574.6641" y2="1574.6641"/></g><!--class Apartment--><g id="elem_Apartment"><rect codeLine="121" fill="#F1F1F1" height="50" id="Apartment" rx="2.5" ry="2.5" style="stroke:#181818;stroke-width:0.5;" width="136" x="1850.5" y="1497.5"/><ellipse cx="1866.5" cy="1514.5" fill="#ADD1B2" rx="12" ry="12" style="stroke:#181818;stroke-width:1.0;"/><path d="M1869.3066,1521.5801 Q1868.623,1521.9316 1867.8711,1522.1074 Q1867.1191,1522.2832 1866.2891,1522.2832 Q1863.3398,1522.2832 1861.7871,1520.3398 Q1860.2344,1518.3965 1860.2344,1514.7246 Q1860.2344,1511.043 1861.7871,1509.0996 Q1863.3398,1507.1563 1866.2891,1507.1563 Q1867.1191,1507.1563 1867.8809,1507.332 Q1868.6426,1507.5078 1869.3066,1507.8594 L1869.3066,1511.0625 Q1868.5645,1510.3789 1867.8662,1510.0615 Q1867.168,1509.7441 1866.4258,1509.7441 Q1864.8438,1509.7441 1864.0381,1510.999 Q1863.2324,1512.2539 1863.2324,1514.7246 Q1863.2324,1517.1855 1864.0381,1518.4404 Q1864.8438,1519.6953 1866.4258,1519.6953 Q1867.168,1519.6953 1867.8662,1519.3779 Q1868.5645,1519.0605 1869.3066,1518.377 Z " fill="#000000"/><text fill="#000000" font-family="sans-serif" font-size="20" lengthAdjust="spacing" textLength="102" x="1881.5" y="1522.0586">Apartment</text><line style="stroke:#181818;stroke-width:0.5;" x1="1851.5" x2="1985.5" y1="1531.5" y2="1531.5"/><line style="stroke:#181818;stroke-width:0.5;" x1="1851.5" x2="1985.5" y1="1539.5" y2="1539.5"/></g><!--link ListPropertyUI to ListPropertyController--><g id="link_ListPropertyUI_ListPropertyController"><path codeLine="124" d="M1810.5,57.21 C1810.5,71.94 1810.5,91.85 1810.5,112.5 " fill="none" id="ListPropertyUI-to-ListPropertyController" style="stroke:#181818;stroke-width:1.0;stroke-dasharray:7.0,7.0;"/><polygon fill="#181818" points="1810.5,117.76,1814.5,108.76,1810.5,112.76,1806.5,108.76,1810.5,117.76" style="stroke:#181818;stroke-width:1.0;"/></g><!--link ListPropertyController to Repositories--><g id="link_ListPropertyController_Repositories"><path codeLine="127" d="M1725.15,309.18 C1694.47,343.22 1660.3,381.12 1631.31,413.28 " fill="none" id="ListPropertyController-to-Repositories" style="stroke:#181818;stroke-width:1.0;stroke-dasharray:7.0,7.0;"/><polygon fill="#181818" points="1627.8,417.17,1636.7939,413.1562,1631.1448,413.4535,1630.8475,407.8045,1627.8,417.17" style="stroke:#181818;stroke-width:1.0;"/><text fill="#000000" font-family="sans-serif" font-size="20" lengthAdjust="spacing" textLength="114" x="1694.5" y="359.3359">repositories</text></g><!--link ListPropertyController to ManageAdvertisement--><g id="link_ListPropertyController_ManageAdvertisement"><path codeLine="128" d="M1876.84,309.18 C1895.06,335.17 1914.85,363.41 1933.22,389.63 " fill="none" id="ListPropertyController-to-ManageAdvertisement" style="stroke:#181818;stroke-width:1.0;stroke-dasharray:7.0,7.0;"/><polygon fill="#181818" points="1936.15,393.82,1934.2635,384.1535,1933.2817,389.7245,1927.7107,388.7427,1936.15,393.82" style="stroke:#181818;stroke-width:1.0;"/><text fill="#000000" font-family="sans-serif" font-size="20" lengthAdjust="spacing" textLength="86" x="1912.5" y="359.3359">manages</text></g><!--link Repositories to TypeOfBusinessRepository--><g id="link_Repositories_TypeOfBusinessRepository"><path codeLine="130" d="M1573.41,561.66 C1578.16,595.82 1583.69,635.55 1587.75,664.67 " fill="none" id="Repositories-to-TypeOfBusinessRepository" style="stroke:#181818;stroke-width:1.0;"/><polygon fill="#181818" points="1588.49,669.98,1591.2191,660.5168,1587.8049,665.0272,1583.2945,661.613,1588.49,669.98" style="stroke:#181818;stroke-width:1.0;"/><text fill="#000000" font-family="sans-serif" font-size="20" lengthAdjust="spacing" textLength="13" x="1573.4398" y="657.7624">1</text></g><!--link Repositories to TypeOfPropertyRepository--><g id="link_Repositories_TypeOfPropertyRepository"><path codeLine="131" d="M1466.75,561.66 C1419.14,596.67 1363.59,637.54 1323.76,666.83 " fill="none" id="Repositories-to-TypeOfPropertyRepository" style="stroke:#181818;stroke-width:1.0;"/><polygon fill="#181818" points="1319.47,669.98,1329.0921,667.8789,1323.5007,667.0213,1324.3582,661.4299,1319.47,669.98" style="stroke:#181818;stroke-width:1.0;"/><text fill="#000000" font-family="sans-serif" font-size="20" lengthAdjust="spacing" textLength="13" x="1314.035" y="657.7624">1</text></g><!--reverse link NumberOfBedroomsRepository to Repositories--><g id="link_NumberOfBedroomsRepository_Repositories"><path codeLine="132" d="M1389.77,489.5 C1399.99,489.5 1410.24,489.5 1419.23,489.5 " fill="none" id="NumberOfBedroomsRepository-backto-Repositories" style="stroke:#181818;stroke-width:1.0;"/><polygon fill="#181818" points="1384.76,489.5,1393.76,493.5,1389.76,489.5,1393.76,485.5,1384.76,489.5" style="stroke:#181818;stroke-width:1.0;"/><text fill="#000000" font-family="sans-serif" font-size="20" lengthAdjust="spacing" textLength="13" x="1392.6335" y="485.3375">1</text></g><!--link Repositories to AdvertisementRepository--><g id="link_Repositories_AdvertisementRepository"><path codeLine="133" d="M1685.46,561.64 C1708.47,575.07 1725.5,585 1725.5,585 C1725.5,585 1821.28,632.11 1893.32,667.54 " fill="none" id="Repositories-to-AdvertisementRepository" style="stroke:#181818;stroke-width:1.0;"/><polygon fill="#181818" points="1898.03,669.86,1891.7109,662.3056,1893.5408,667.6583,1888.1882,669.4883,1898.03,669.86" style="stroke:#181818;stroke-width:1.0;"/><text fill="#000000" font-family="sans-serif" font-size="20" lengthAdjust="spacing" textLength="13" x="1871.2852" y="657.9219">1</text></g><!--reverse link SortingMethodsRepository to Repositories--><g id="link_SortingMethodsRepository_Repositories"><path codeLine="134" d="M909.25,461.09 C961.5,420.7 1051,351.5 1051,351.5 C1051,351.5 1385,351.5 1385,351.5 C1385,351.5 1427.05,384.01 1470.33,417.47 " fill="none" id="SortingMethodsRepository-backto-Repositories" style="stroke:#181818;stroke-width:1.0;"/><polygon fill="#181818" points="905.24,464.19,914.7981,461.8148,909.1845,461.1173,909.8819,455.5036,905.24,464.19" style="stroke:#181818;stroke-width:1.0;"/><text fill="#000000" font-family="sans-serif" font-size="20" lengthAdjust="spacing" textLength="13" x="898.308" y="452.0778">1</text></g><!--reverse link ComparatorAscendingPrice to SortingMethodsRepository--><g id="link_ComparatorAscendingPrice_SortingMethodsRepository"><path codeLine="136" d="M1015.65,255.03 C980.16,312.91 916.08,417.42 887.25,464.44 " fill="none" id="ComparatorAscendingPrice-backto-SortingMethodsRepository" style="stroke:#181818;stroke-width:1.0;"/><polygon fill="#181818" points="1018.36,250.6,1010.2417,256.1761,1015.7435,254.8607,1017.0589,260.3625,1018.36,250.6" style="stroke:#181818;stroke-width:1.0;"/></g><!--reverse link ComparatorDescendingPrice to SortingMethodsRepository--><g id="link_ComparatorDescendingPrice_SortingMethodsRepository"><path codeLine="137" d="M729.35,255.03 C764.84,312.91 828.92,417.42 857.75,464.44 " fill="none" id="ComparatorDescendingPrice-backto-SortingMethodsRepository" style="stroke:#181818;stroke-width:1.0;"/><polygon fill="#181818" points="726.64,250.6,727.9411,260.3625,729.2565,254.8607,734.7583,256.1761,726.64,250.6" style="stroke:#181818;stroke-width:1.0;"/></g><!--reverse link ComparatorCityAlphabetic to SortingMethodsRepository--><g id="link_ComparatorCityAlphabetic_SortingMethodsRepository"><path codeLine="138" d="M699.32,489.5 C709.19,489.5 719.61,489.5 729.17,489.5 " fill="none" id="ComparatorCityAlphabetic-backto-SortingMethodsRepository" style="stroke:#181818;stroke-width:1.0;"/><polygon fill="#181818" points="694.22,489.5,703.22,493.5,699.22,489.5,703.22,485.5,694.22,489.5" style="stroke:#181818;stroke-width:1.0;"/></g><!--reverse link ComparatorCityAlphabeticReverse to SortingMethodsRepository--><g id="link_ComparatorCityAlphabeticReverse_SortingMethodsRepository"><path codeLine="139" d="M251.36,449.43 C315.28,408.69 405,351.5 405,351.5 C405,351.5 694,351.5 694,351.5 C694,351.5 788.23,424.35 839.76,464.19 " fill="none" id="ComparatorCityAlphabeticReverse-backto-SortingMethodsRepository" style="stroke:#181818;stroke-width:1.0;"/><polygon fill="#181818" points="246.8,452.34,256.5417,450.8913,251.0207,449.6593,252.2526,444.1382,246.8,452.34" style="stroke:#181818;stroke-width:1.0;"/></g><!--link SortingMethodsRepository to ComparatorStateAlphabetic--><g id="link_SortingMethodsRepository_ComparatorStateAlphabetic"><path codeLine="140" d="M834.6,514.59 C776.44,551.56 664.61,622.65 594.82,667.02 " fill="none" id="SortingMethodsRepository-to-ComparatorStateAlphabetic" style="stroke:#181818;stroke-width:1.0;"/><polygon fill="#181818" points="590.28,669.9,600.0217,668.4513,594.5007,667.2193,595.7326,661.6982,590.28,669.9" style="stroke:#181818;stroke-width:1.0;"/></g><!--link SortingMethodsRepository to ComparatorStateAlphabeticReverse--><g id="link_SortingMethodsRepository_ComparatorStateAlphabeticReverse"><path codeLine="141" d="M876.11,514.8 C881.52,551.26 891.81,620.57 898.41,664.96 " fill="none" id="SortingMethodsRepository-to-ComparatorStateAlphabeticReverse" style="stroke:#181818;stroke-width:1.0;"/><polygon fill="#181818" points="899.15,669.98,901.7948,660.4929,898.4209,665.0334,893.8803,661.6595,899.15,669.98" style="stroke:#181818;stroke-width:1.0;"/></g><!--link ManageAdvertisement to AdvertisementRepository--><g id="link_ManageAdvertisement_AdvertisementRepository"><path codeLine="143" d="M1988.9,585.02 C1984.88,612.99 1980.68,642.16 1977.42,664.85 " fill="none" id="ManageAdvertisement-to-AdvertisementRepository" style="stroke:#181818;stroke-width:1.0;stroke-dasharray:7.0,7.0;"/><polygon fill="#181818" points="1976.69,669.89,1981.9327,661.5525,1977.4031,664.9411,1974.0145,660.4115,1976.69,669.89" style="stroke:#181818;stroke-width:1.0;"/><text fill="#000000" font-family="sans-serif" font-size="20" lengthAdjust="spacing" textLength="238" x="1984.5" y="635.3359">advertisementRepository</text></g><!--reverse link Repositories to ManageAdvertisement--><g id="link_Repositories_ManageAdvertisement"><path codeLine="144" d="M1712.89,489.5 C1718.84,489.5 1729.32,489.5 1742.31,489.5 " fill="none" id="Repositories-backto-ManageAdvertisement" style="stroke:#181818;stroke-width:1.0;stroke-dasharray:7.0,7.0;"/><polygon fill="#181818" points="1707.76,489.5,1716.76,493.5,1712.76,489.5,1716.76,485.5,1707.76,489.5" style="stroke:#181818;stroke-width:1.0;"/></g><!--link AdvertisementRepository to Advertisement--><g id="link_AdvertisementRepository_Advertisement"><path codeLine="145" d="M1971.5,744.34 C1971.5,761.35 1971.5,781.7 1971.5,799.32 " fill="none" id="AdvertisementRepository-to-Advertisement" style="stroke:#181818;stroke-width:1.0;"/><polygon fill="#181818" points="1971.5,804.7,1975.5,795.7,1971.5,799.7,1967.5,795.7,1971.5,804.7" style="stroke:#181818;stroke-width:1.0;"/></g><!--link Advertisement to RequestAdvertisement--><g id="link_Advertisement_RequestAdvertisement"><path codeLine="147" d="M1971.5,879.09 C1971.5,895.9 1971.5,916.23 1971.5,934.72 " fill="none" id="Advertisement-to-RequestAdvertisement" style="stroke:#181818;stroke-width:1.0;"/><polygon fill="#181818" points="1971.5,939.88,1975.5,930.88,1971.5,934.88,1967.5,930.88,1971.5,939.88" style="stroke:#181818;stroke-width:1.0;"/></g><!--link RequestAdvertisement to Property--><g id="link_RequestAdvertisement_Property"><path codeLine="149" d="M1971.5,1037.19 C1971.5,1058.3 1971.5,1083.19 1971.5,1104.84 " fill="none" id="RequestAdvertisement-to-Property" style="stroke:#181818;stroke-width:1.0;"/><polygon fill="#181818" points="1971.5,1109.98,1975.5,1100.98,1971.5,1104.98,1967.5,1100.98,1971.5,1109.98" style="stroke:#181818;stroke-width:1.0;"/></g><!--link Property to Residence--><g id="link_Property_Residence"><path codeLine="151" d="M1930.37,1207.26 C1912.23,1228.33 1890.64,1253.4 1871.17,1276.01 " fill="none" id="Property-to-Residence" style="stroke:#181818;stroke-width:1.0;"/><polygon fill="#181818" points="1867.82,1279.91,1876.722,1275.6964,1871.081,1276.1198,1870.6577,1270.4788,1867.82,1279.91" style="stroke:#181818;stroke-width:1.0;"/></g><!--link Property to Photograph--><g id="link_Property_Photograph"><path codeLine="152" d="M2088.3,1158.5 C2100.21,1158.5 2111.45,1158.5 2117.95,1158.5 " fill="none" id="Property-to-Photograph" style="stroke:#181818;stroke-width:1.0;"/><polygon fill="#181818" points="2123.32,1158.5,2114.32,1154.5,2118.32,1158.5,2114.32,1162.5,2123.32,1158.5" style="stroke:#181818;stroke-width:1.0;"/></g><!--reverse link Address to Property--><g id="link_Address_Property"><path codeLine="153" d="M1825.29,1158.5 C1832.08,1158.5 1843.35,1158.5 1854.88,1158.5 " fill="none" id="Address-backto-Property" style="stroke:#181818;stroke-width:1.0;"/><polygon fill="#181818" points="1820.16,1158.5,1829.16,1162.5,1825.16,1158.5,1829.16,1154.5,1820.16,1158.5" style="stroke:#181818;stroke-width:1.0;"/></g><!--link Property to Land--><g id="link_Property_Land"><path codeLine="154" d="M1989.01,1207.26 C2001.02,1240.01 2016.57,1282.41 2026.78,1310.25 " fill="none" id="Property-to-Land" style="stroke:#181818;stroke-width:1.0;"/><polygon fill="#181818" points="2028.62,1315.28,2029.2676,1305.4525,2026.8941,1310.5873,2021.7593,1308.2139,2028.62,1315.28" style="stroke:#181818;stroke-width:1.0;"/></g><!--reverse link Equipment to Residence--><g id="link_Equipment_Residence"><path codeLine="156" d="M1640.91,1340.5 C1648.64,1340.5 1659.57,1340.5 1670.95,1340.5 " fill="none" id="Equipment-backto-Residence" style="stroke:#181818;stroke-width:1.0;"/><polygon fill="#181818" points="1635.67,1340.5,1644.67,1344.5,1640.67,1340.5,1644.67,1336.5,1635.67,1340.5" style="stroke:#181818;stroke-width:1.0;"/></g><!--link Residence to House--><g id="link_Residence_House"><path codeLine="157" d="M1782.54,1401.44 C1772.38,1419.35 1761.22,1439.06 1750.92,1457.24 " fill="none" id="Residence-to-House" style="stroke:#181818;stroke-width:1.0;"/><polygon fill="#181818" points="1748.32,1461.82,1756.2479,1455.9763,1750.793,1457.4744,1749.2949,1452.0195,1748.32,1461.82" style="stroke:#181818;stroke-width:1.0;"/></g><!--link Residence to Apartment--><g id="link_Residence_Apartment"><path codeLine="158" d="M1850.46,1401.44 C1867.92,1432.25 1888.39,1468.36 1902.28,1492.88 " fill="none" id="Residence-to-Apartment" style="stroke:#181818;stroke-width:1.0;"/><polygon fill="#181818" points="1904.8,1497.32,1903.8251,1487.5195,1902.327,1492.9744,1896.8721,1491.4763,1904.8,1497.32" style="stroke:#181818;stroke-width:1.0;"/></g><!--SRC=[hLPDKzim4BthLsXw8Kn3fksHGsP2W6bce6H8kN5Hx8sZmP6C9DEccVxthlmfsLOAj9p8xdkxgzNghVKJ5nbJR9VAw0bY6iE6vQcvbiAi-2-WNpwH4rrZw4uA6MsLt04rAWVIUZ8MFR44LcQV0bKG6IQIr0NeBOlb3ouIkc6fTZqf5s3s6T1CfdlxmytOEAKoaZYiA6LQpunHV9qRM4HI5FLYkIbi33MIAfvi3OsvhOPBGGWfEFI6QxDKCWDbzWyBUlWzv9XZ0vHCKr3qG2Z-VGouHnkU6b3ta4dDZLJxCSqgK6ixhK8aOAuBk1xLfhIDoa6Fx5dlDXUvndDhFIv_rbd7ZqBakpKeH42ifDpfiSR6O5VdYcDOpigmPpQJhRVXOkoBVPsxauG-YauUsaj3UtcQjZN7n1nLiyuyuyWv_a9e78q8HgVqt0Era6MlVQDU_pnVKybtxrmjvj3IRLDyM3z0lu3103NC3V2jqxTWY2xG3R8gMtqBPYjZDqI3cCkTVGLedEa8H8pefU8Hr4cYmWzkq9Po2M_dpBdPpz9iozPWUFGEoZsyuEIzBjdAC0DlpDRX_3tTBHEeLxFunJuE3JiGXXvwGzYPNdip4Dlx2pwctbiAFgNoVa_zkVZFZtIWyf5Ld6FlsUl9u01x2DkW0BbMWnMgD0f_Z5Tqj_4Gheeyvw3D83-M-HhNIcR7TI1YHMrZrIsgnQZYumGmtn9ZA-oSpZ4PAFSKiSAc- -KN8-PPBDKpN68yBD8jPIkDJ1JBjfrcFDmlMjGD4_61kCtGF0QKoKPFENQZkMzcjiM53_cgMHXmBPd2xPciS5MZt3QvhfvpdWtT5jQG25QipWRyLUQwAMejPGfCq5HkZ6zPi-fwtO0w5rS_SPgyHkEpD1PfjOrqDlDaWbyCOXfOlEJ4MpndKtyHdUFPorNZntKM-sHIV2BqYCfTIq5kMTkGZ9pJNM7LXFWbOeqVFdy8hgbZwFvEwgBjPq_922-XBgSwloK5NdquIsXB4HBo83tFfi7bzNfUPuCT8vRrXhRI-vdLWZaMe1oGu8hw1sgTd0nDtsGo3LqcJYOBNFDmfB87tcTQABGTLr_QVMW1619v-qW6fD_2ww4dfFwlYbAfeskkHhdLMzTPdgDITJ-ObLvRGYsuDRYHHSytBHMmOsjKZ90_]--></g></svg>