<?xml version="1.0" encoding="UTF-8" standalone="no"?><svg xmlns="http://www.w3.org/2000/svg" xmlns:xlink="http://www.w3.org/1999/xlink" contentStyleType="text/css" height="1396px" preserveAspectRatio="none" style="width:2060px;height:1396px;background:#FFFFFF;" version="1.1" viewBox="0 0 2060 1396" width="2060px" zoomAndPan="magnify"><defs/><g><rect fill="#FFFFFF" height="1201.1953" style="stroke:#181818;stroke-width:1.0;" width="10" x="87" y="98.5547"/><rect fill="#FFFFFF" height="37.5547" style="stroke:#181818;stroke-width:1.0;" width="10" x="588" y="128.1094"/><rect fill="#FFFFFF" height="1087.5313" style="stroke:#181818;stroke-width:1.0;" width="10" x="588" y="203.2188"/><rect fill="#FFFFFF" height="963.8672" style="stroke:#181818;stroke-width:1.0;" width="10" x="810" y="289.3281"/><rect fill="#FFFFFF" height="648.4297" style="stroke:#181818;stroke-width:1.0;" width="10" x="815" y="560.2109"/><rect fill="#FFFFFF" height="397.1016" style="stroke:#181818;stroke-width:1.0;" width="10" x="820" y="610.7656"/><rect fill="#FFFFFF" height="37.5547" style="stroke:#181818;stroke-width:1.0;" width="10" x="1163" y="326.8828"/><rect fill="#FFFFFF" height="37.5547" style="stroke:#181818;stroke-width:1.0;" width="10" x="1163" y="653.3203"/><rect fill="#FFFFFF" height="37.5547" style="stroke:#181818;stroke-width:1.0;" width="10" x="1312" y="401.9922"/><rect fill="#FFFFFF" height="37.5547" style="stroke:#181818;stroke-width:1.0;" width="10" x="1312" y="728.4297"/><rect fill="#FFFFFF" height="37.5547" style="stroke:#181818;stroke-width:1.0;" width="10" x="1520.5" y="919.7578"/><rect fill="#FFFFFF" height="37.5547" style="stroke:#181818;stroke-width:1.0;" width="10" x="1744.5" y="477.1016"/><rect fill="#FFFFFF" height="37.5547" style="stroke:#181818;stroke-width:1.0;" width="10" x="1900.5" y="1052.4219"/><rect fill="#FFFFFF" height="37.5547" style="stroke:#181818;stroke-width:1.0;" width="10" x="1900.5" y="1127.5313"/><rect fill="#FFFFFF" height="37.5547" style="stroke:#181818;stroke-width:1.0;" width="10" x="2005.5" y="844.6484"/><rect fill="none" height="184.3281" style="stroke:#000000;stroke-width:1.5;" width="1367.5" x="687" y="780.9844"/><line style="stroke:#181818;stroke-width:0.5;stroke-dasharray:5.0,5.0;" x1="92" x2="92" y1="88.5547" y2="1308.75"/><line style="stroke:#181818;stroke-width:0.5;stroke-dasharray:5.0,5.0;" x1="593" x2="593" y1="88.5547" y2="1308.75"/><line style="stroke:#181818;stroke-width:0.5;stroke-dasharray:5.0,5.0;" x1="815" x2="815" y1="245.4961" y2="1308.75"/><line style="stroke:#181818;stroke-width:0.5;stroke-dasharray:5.0,5.0;" x1="1167.5" x2="1167.5" y1="88.5547" y2="1308.75"/><line style="stroke:#181818;stroke-width:0.5;stroke-dasharray:5.0,5.0;" x1="1316.5" x2="1316.5" y1="88.5547" y2="1308.75"/><line style="stroke:#181818;stroke-width:0.5;stroke-dasharray:5.0,5.0;" x1="1525.5" x2="1525.5" y1="88.5547" y2="1308.75"/><line style="stroke:#181818;stroke-width:0.5;stroke-dasharray:5.0,5.0;" x1="1749.5" x2="1749.5" y1="88.5547" y2="1308.75"/><line style="stroke:#181818;stroke-width:0.5;stroke-dasharray:5.0,5.0;" x1="1905.5" x2="1905.5" y1="88.5547" y2="1308.75"/><line style="stroke:#181818;stroke-width:0.5;stroke-dasharray:5.0,5.0;" x1="2010.5" x2="2010.5" y1="88.5547" y2="1308.75"/><text fill="#000000" font-family="sans-serif" font-size="20" lengthAdjust="spacing" textLength="168" x="5" y="84.3359">Network Manager</text><ellipse cx="92" cy="13.5" fill="#E3E3E3" rx="8" ry="8" style="stroke:#181818;stroke-width:0.5;"/><path d="M92,21.5 L92,48.5 M79,29.5 L105,29.5 M92,48.5 L79,63.5 M92,48.5 L105,63.5 " fill="none" style="stroke:#181818;stroke-width:0.5;"/><text fill="#000000" font-family="sans-serif" font-size="20" lengthAdjust="spacing" textLength="168" x="5" y="1327.0859">Network Manager</text><ellipse cx="92" cy="1339.8047" fill="#E3E3E3" rx="8" ry="8" style="stroke:#181818;stroke-width:0.5;"/><path d="M92,1347.8047 L92,1374.8047 M79,1355.8047 L105,1355.8047 M92,1374.8047 L79,1389.8047 M92,1374.8047 L105,1389.8047 " fill="none" style="stroke:#181818;stroke-width:0.5;"/><rect fill="#E3E3E3" height="37.5547" rx="2.5" ry="2.5" style="stroke:#181818;stroke-width:0.5;" width="160" x="513" y="50"/><text fill="#000000" font-family="sans-serif" font-size="20" lengthAdjust="spacing" textLength="146" x="520" y="76.3359">:DivideStoresUI</text><rect fill="#E3E3E3" height="37.5547" rx="2.5" ry="2.5" style="stroke:#181818;stroke-width:0.5;" width="160" x="513" y="1307.75"/><text fill="#000000" font-family="sans-serif" font-size="20" lengthAdjust="spacing" textLength="146" x="520" y="1334.0859">:DivideStoresUI</text><rect fill="#E3E3E3" height="37.5547" rx="2.5" ry="2.5" style="stroke:#181818;stroke-width:0.5;" width="236" x="697" y="1307.75"/><text fill="#000000" font-family="sans-serif" font-size="20" lengthAdjust="spacing" textLength="222" x="704" y="1334.0859">:DivideStoresController</text><rect fill="#E3E3E3" height="37.5547" rx="2.5" ry="2.5" style="stroke:#181818;stroke-width:0.5;" width="139" x="1098.5" y="50"/><text fill="#000000" font-family="sans-serif" font-size="20" lengthAdjust="spacing" textLength="125" x="1105.5" y="76.3359">:Repositories</text><rect fill="#E3E3E3" height="37.5547" rx="2.5" ry="2.5" style="stroke:#181818;stroke-width:0.5;" width="139" x="1098.5" y="1307.75"/><text fill="#000000" font-family="sans-serif" font-size="20" lengthAdjust="spacing" textLength="125" x="1105.5" y="1334.0859">:Repositories</text><rect fill="#E3E3E3" height="61.1094" rx="2.5" ry="2.5" style="stroke:#181818;stroke-width:0.5;" width="139" x="1247.5" y="26.4453"/><text fill="#000000" font-family="sans-serif" font-size="20" lengthAdjust="spacing" textLength="114" x="1260" y="52.7813">repositories</text><text fill="#000000" font-family="sans-serif" font-size="20" lengthAdjust="spacing" textLength="125" x="1254.5" y="76.3359">:Repositories</text><rect fill="#E3E3E3" height="61.1094" rx="2.5" ry="2.5" style="stroke:#181818;stroke-width:0.5;" width="139" x="1247.5" y="1307.75"/><text fill="#000000" font-family="sans-serif" font-size="20" lengthAdjust="spacing" textLength="114" x="1260" y="1334.0859">repositories</text><text fill="#000000" font-family="sans-serif" font-size="20" lengthAdjust="spacing" textLength="125" x="1254.5" y="1357.6406">:Repositories</text><rect fill="#E3E3E3" height="61.1094" rx="2.5" ry="2.5" style="stroke:#181818;stroke-width:0.5;" width="258" x="1396.5" y="26.4453"/><text fill="#000000" font-family="sans-serif" font-size="20" lengthAdjust="spacing" textLength="244" x="1403.5" y="52.7813">advertisementRepository:</text><text fill="#000000" font-family="sans-serif" font-size="20" lengthAdjust="spacing" textLength="241" x="1405" y="76.3359">AdvertisementRepository</text><rect fill="#E3E3E3" height="61.1094" rx="2.5" ry="2.5" style="stroke:#181818;stroke-width:0.5;" width="258" x="1396.5" y="1307.75"/><text fill="#000000" font-family="sans-serif" font-size="20" lengthAdjust="spacing" textLength="244" x="1403.5" y="1334.0859">advertisementRepository:</text><text fill="#000000" font-family="sans-serif" font-size="20" lengthAdjust="spacing" textLength="241" x="1405" y="1357.6406">AdvertisementRepository</text><rect fill="#E3E3E3" height="61.1094" rx="2.5" ry="2.5" style="stroke:#181818;stroke-width:0.5;" width="170" x="1664.5" y="26.4453"/><text fill="#000000" font-family="sans-serif" font-size="20" lengthAdjust="spacing" textLength="156" x="1671.5" y="52.7813">storeRepository:</text><text fill="#000000" font-family="sans-serif" font-size="20" lengthAdjust="spacing" textLength="151" x="1674" y="76.3359">StoreRepository</text><rect fill="#E3E3E3" height="61.1094" rx="2.5" ry="2.5" style="stroke:#181818;stroke-width:0.5;" width="170" x="1664.5" y="1307.75"/><text fill="#000000" font-family="sans-serif" font-size="20" lengthAdjust="spacing" textLength="156" x="1671.5" y="1334.0859">storeRepository:</text><text fill="#000000" font-family="sans-serif" font-size="20" lengthAdjust="spacing" textLength="151" x="1674" y="1357.6406">StoreRepository</text><rect fill="#E3E3E3" height="37.5547" rx="2.5" ry="2.5" style="stroke:#181818;stroke-width:0.5;" width="122" x="1844.5" y="50"/><text fill="#000000" font-family="sans-serif" font-size="20" lengthAdjust="spacing" textLength="108" x="1851.5" y="76.3359">:BruteForce</text><rect fill="#E3E3E3" height="37.5547" rx="2.5" ry="2.5" style="stroke:#181818;stroke-width:0.5;" width="122" x="1844.5" y="1307.75"/><text fill="#000000" font-family="sans-serif" font-size="20" lengthAdjust="spacing" textLength="108" x="1851.5" y="1334.0859">:BruteForce</text><rect fill="#E3E3E3" height="61.1094" rx="2.5" ry="2.5" style="stroke:#181818;stroke-width:0.5;" width="68" x="1976.5" y="26.4453"/><text fill="#000000" font-family="sans-serif" font-size="20" lengthAdjust="spacing" textLength="54" x="1983.5" y="52.7813">store:</text><text fill="#000000" font-family="sans-serif" font-size="20" lengthAdjust="spacing" textLength="49" x="1986" y="76.3359">Store</text><rect fill="#E3E3E3" height="61.1094" rx="2.5" ry="2.5" style="stroke:#181818;stroke-width:0.5;" width="68" x="1976.5" y="1307.75"/><text fill="#000000" font-family="sans-serif" font-size="20" lengthAdjust="spacing" textLength="54" x="1983.5" y="1334.0859">store:</text><text fill="#000000" font-family="sans-serif" font-size="20" lengthAdjust="spacing" textLength="49" x="1986" y="1357.6406">Store</text><rect fill="#FFFFFF" height="1201.1953" style="stroke:#181818;stroke-width:1.0;" width="10" x="87" y="98.5547"/><rect fill="#FFFFFF" height="37.5547" style="stroke:#181818;stroke-width:1.0;" width="10" x="588" y="128.1094"/><rect fill="#FFFFFF" height="1087.5313" style="stroke:#181818;stroke-width:1.0;" width="10" x="588" y="203.2188"/><rect fill="#FFFFFF" height="963.8672" style="stroke:#181818;stroke-width:1.0;" width="10" x="810" y="289.3281"/><rect fill="#FFFFFF" height="648.4297" style="stroke:#181818;stroke-width:1.0;" width="10" x="815" y="560.2109"/><rect fill="#FFFFFF" height="397.1016" style="stroke:#181818;stroke-width:1.0;" width="10" x="820" y="610.7656"/><rect fill="#FFFFFF" height="37.5547" style="stroke:#181818;stroke-width:1.0;" width="10" x="1163" y="326.8828"/><rect fill="#FFFFFF" height="37.5547" style="stroke:#181818;stroke-width:1.0;" width="10" x="1163" y="653.3203"/><rect fill="#FFFFFF" height="37.5547" style="stroke:#181818;stroke-width:1.0;" width="10" x="1312" y="401.9922"/><rect fill="#FFFFFF" height="37.5547" style="stroke:#181818;stroke-width:1.0;" width="10" x="1312" y="728.4297"/><rect fill="#FFFFFF" height="37.5547" style="stroke:#181818;stroke-width:1.0;" width="10" x="1520.5" y="919.7578"/><rect fill="#FFFFFF" height="37.5547" style="stroke:#181818;stroke-width:1.0;" width="10" x="1744.5" y="477.1016"/><rect fill="#FFFFFF" height="37.5547" style="stroke:#181818;stroke-width:1.0;" width="10" x="1900.5" y="1052.4219"/><rect fill="#FFFFFF" height="37.5547" style="stroke:#181818;stroke-width:1.0;" width="10" x="1900.5" y="1127.5313"/><rect fill="#FFFFFF" height="37.5547" style="stroke:#181818;stroke-width:1.0;" width="10" x="2005.5" y="844.6484"/><polygon fill="#181818" points="576,124.1094,586,128.1094,576,132.1094,580,128.1094" style="stroke:#181818;stroke-width:1.0;"/><line style="stroke:#181818;stroke-width:1.0;" x1="97" x2="582" y1="128.1094" y2="128.1094"/><text fill="#000000" font-family="sans-serif" font-size="20" font-weight="bold" lengthAdjust="spacing" textLength="13" x="104" y="121.8906">1</text><text fill="#000000" font-family="sans-serif" font-size="20" lengthAdjust="spacing" textLength="273" x="121" y="121.8906">asks to divide a set of stores</text><polygon fill="#181818" points="108,161.6641,98,165.6641,108,169.6641,104,165.6641" style="stroke:#181818;stroke-width:1.0;"/><line style="stroke:#181818;stroke-width:1.0;stroke-dasharray:2.0,2.0;" x1="102" x2="592" y1="165.6641" y2="165.6641"/><text fill="#000000" font-family="sans-serif" font-size="20" font-weight="bold" lengthAdjust="spacing" textLength="13" x="114" y="159.4453">2</text><text fill="#000000" font-family="sans-serif" font-size="20" lengthAdjust="spacing" textLength="450" x="131" y="159.4453">requests data (number os stores to be divided)</text><polygon fill="#181818" points="576,199.2188,586,203.2188,576,207.2188,580,203.2188" style="stroke:#181818;stroke-width:1.0;"/><line style="stroke:#181818;stroke-width:1.0;" x1="97" x2="582" y1="203.2188" y2="203.2188"/><text fill="#000000" font-family="sans-serif" font-size="20" font-weight="bold" lengthAdjust="spacing" textLength="13" x="104" y="197">3</text><text fill="#000000" font-family="sans-serif" font-size="20" lengthAdjust="spacing" textLength="125" x="121" y="197">submits data</text><polygon fill="#181818" points="685,236.7734,695,240.7734,685,244.7734,689,240.7734" style="stroke:#181818;stroke-width:1.0;"/><line style="stroke:#181818;stroke-width:1.0;" x1="598" x2="691" y1="240.7734" y2="240.7734"/><text fill="#000000" font-family="sans-serif" font-size="20" font-weight="bold" lengthAdjust="spacing" textLength="13" x="605" y="234.5547">4</text><text fill="#000000" font-family="sans-serif" font-size="20" lengthAdjust="spacing" textLength="58" x="622" y="234.5547">create</text><rect fill="#E3E3E3" height="37.5547" rx="2.5" ry="2.5" style="stroke:#181818;stroke-width:0.5;" width="236" x="697" y="211.2188"/><text fill="#000000" font-family="sans-serif" font-size="20" lengthAdjust="spacing" textLength="222" x="704" y="237.5547">:DivideStoresController</text><polygon fill="#181818" points="798,285.3281,808,289.3281,798,293.3281,802,289.3281" style="stroke:#181818;stroke-width:1.0;"/><line style="stroke:#181818;stroke-width:1.0;" x1="598" x2="804" y1="289.3281" y2="289.3281"/><text fill="#000000" font-family="sans-serif" font-size="20" font-weight="bold" lengthAdjust="spacing" textLength="13" x="605" y="283.1094">5</text><text fill="#000000" font-family="sans-serif" font-size="20" lengthAdjust="spacing" textLength="103" x="622" y="283.1094">getStores()</text><polygon fill="#181818" points="1151,322.8828,1161,326.8828,1151,330.8828,1155,326.8828" style="stroke:#181818;stroke-width:1.0;"/><line style="stroke:#181818;stroke-width:1.0;" x1="820" x2="1157" y1="326.8828" y2="326.8828"/><text fill="#000000" font-family="sans-serif" font-size="20" font-weight="bold" lengthAdjust="spacing" textLength="13" x="827" y="320.6641">6</text><text fill="#000000" font-family="sans-serif" font-size="20" lengthAdjust="spacing" textLength="123" x="844" y="320.6641">getInstance()</text><polygon fill="#181818" points="831,360.4375,821,364.4375,831,368.4375,827,364.4375" style="stroke:#181818;stroke-width:1.0;"/><line style="stroke:#181818;stroke-width:1.0;stroke-dasharray:2.0,2.0;" x1="825" x2="1167" y1="364.4375" y2="364.4375"/><text fill="#000000" font-family="sans-serif" font-size="20" font-weight="bold" lengthAdjust="spacing" textLength="13" x="837" y="358.2188">7</text><text fill="#000000" font-family="sans-serif" font-size="20" lengthAdjust="spacing" textLength="114" x="854" y="358.2188">repositories</text><polygon fill="#181818" points="1300,397.9922,1310,401.9922,1300,405.9922,1304,401.9922" style="stroke:#181818;stroke-width:1.0;"/><line style="stroke:#181818;stroke-width:1.0;" x1="820" x2="1306" y1="401.9922" y2="401.9922"/><text fill="#000000" font-family="sans-serif" font-size="20" font-weight="bold" lengthAdjust="spacing" textLength="13" x="827" y="395.7734">8</text><text fill="#000000" font-family="sans-serif" font-size="20" lengthAdjust="spacing" textLength="195" x="844" y="395.7734">getStoreRepository()</text><polygon fill="#181818" points="831,435.5469,821,439.5469,831,443.5469,827,439.5469" style="stroke:#181818;stroke-width:1.0;"/><line style="stroke:#181818;stroke-width:1.0;stroke-dasharray:2.0,2.0;" x1="825" x2="1316" y1="439.5469" y2="439.5469"/><text fill="#000000" font-family="sans-serif" font-size="20" font-weight="bold" lengthAdjust="spacing" textLength="13" x="837" y="433.3281">9</text><text fill="#000000" font-family="sans-serif" font-size="20" lengthAdjust="spacing" textLength="151" x="854" y="433.3281">StoreRepository</text><polygon fill="#181818" points="1732.5,473.1016,1742.5,477.1016,1732.5,481.1016,1736.5,477.1016" style="stroke:#181818;stroke-width:1.0;"/><line style="stroke:#181818;stroke-width:1.0;" x1="820" x2="1738.5" y1="477.1016" y2="477.1016"/><text fill="#000000" font-family="sans-serif" font-size="20" font-weight="bold" lengthAdjust="spacing" textLength="26" x="827" y="470.8828">10</text><text fill="#000000" font-family="sans-serif" font-size="20" lengthAdjust="spacing" textLength="59" x="857" y="470.8828">copy()</text><polygon fill="#181818" points="831,510.6563,821,514.6563,831,518.6563,827,514.6563" style="stroke:#181818;stroke-width:1.0;"/><line style="stroke:#181818;stroke-width:1.0;stroke-dasharray:2.0,2.0;" x1="825" x2="1748.5" y1="514.6563" y2="514.6563"/><text fill="#000000" font-family="sans-serif" font-size="20" font-weight="bold" lengthAdjust="spacing" textLength="26" x="837" y="508.4375">11</text><text fill="#000000" font-family="sans-serif" font-size="20" lengthAdjust="spacing" textLength="82" x="867" y="508.4375">storeList</text><line style="stroke:#181818;stroke-width:1.0;" x1="820" x2="867" y1="547.2109" y2="547.2109"/><line style="stroke:#181818;stroke-width:1.0;" x1="867" x2="867" y1="547.2109" y2="560.2109"/><line style="stroke:#181818;stroke-width:1.0;" x1="826" x2="867" y1="560.2109" y2="560.2109"/><polygon fill="#181818" points="836,556.2109,826,560.2109,836,564.2109,832,560.2109" style="stroke:#181818;stroke-width:1.0;"/><text fill="#000000" font-family="sans-serif" font-size="20" font-weight="bold" lengthAdjust="spacing" textLength="26" x="832" y="540.9922">12</text><text fill="#000000" font-family="sans-serif" font-size="20" lengthAdjust="spacing" textLength="214" x="862" y="540.9922">divideStores(storeList)</text><line style="stroke:#181818;stroke-width:1.0;" x1="825" x2="872" y1="597.7656" y2="597.7656"/><line style="stroke:#181818;stroke-width:1.0;" x1="872" x2="872" y1="597.7656" y2="610.7656"/><line style="stroke:#181818;stroke-width:1.0;" x1="831" x2="872" y1="610.7656" y2="610.7656"/><polygon fill="#181818" points="841,606.7656,831,610.7656,841,614.7656,837,610.7656" style="stroke:#181818;stroke-width:1.0;"/><text fill="#000000" font-family="sans-serif" font-size="20" font-weight="bold" lengthAdjust="spacing" textLength="26" x="837" y="591.5469">13</text><text fill="#000000" font-family="sans-serif" font-size="20" lengthAdjust="spacing" textLength="294" x="867" y="591.5469">getPropertyNumbers(storeList)</text><polygon fill="#181818" points="1151,649.3203,1161,653.3203,1151,657.3203,1155,653.3203" style="stroke:#181818;stroke-width:1.0;"/><line style="stroke:#181818;stroke-width:1.0;" x1="830" x2="1157" y1="653.3203" y2="653.3203"/><text fill="#000000" font-family="sans-serif" font-size="20" font-weight="bold" lengthAdjust="spacing" textLength="26" x="837" y="647.1016">14</text><text fill="#000000" font-family="sans-serif" font-size="20" lengthAdjust="spacing" textLength="123" x="867" y="647.1016">getInstance()</text><polygon fill="#181818" points="841,686.875,831,690.875,841,694.875,837,690.875" style="stroke:#181818;stroke-width:1.0;"/><line style="stroke:#181818;stroke-width:1.0;stroke-dasharray:2.0,2.0;" x1="835" x2="1167" y1="690.875" y2="690.875"/><text fill="#000000" font-family="sans-serif" font-size="20" font-weight="bold" lengthAdjust="spacing" textLength="26" x="847" y="684.6563">15</text><text fill="#000000" font-family="sans-serif" font-size="20" lengthAdjust="spacing" textLength="114" x="877" y="684.6563">repositories</text><polygon fill="#181818" points="1300,724.4297,1310,728.4297,1300,732.4297,1304,728.4297" style="stroke:#181818;stroke-width:1.0;"/><line style="stroke:#181818;stroke-width:1.0;" x1="830" x2="1306" y1="728.4297" y2="728.4297"/><text fill="#000000" font-family="sans-serif" font-size="20" font-weight="bold" lengthAdjust="spacing" textLength="26" x="837" y="722.2109">16</text><text fill="#000000" font-family="sans-serif" font-size="20" lengthAdjust="spacing" textLength="285" x="867" y="722.2109">getAdvertisementRepository()</text><polygon fill="#181818" points="841,761.9844,831,765.9844,841,769.9844,837,765.9844" style="stroke:#181818;stroke-width:1.0;"/><line style="stroke:#181818;stroke-width:1.0;stroke-dasharray:2.0,2.0;" x1="835" x2="1316" y1="765.9844" y2="765.9844"/><text fill="#000000" font-family="sans-serif" font-size="20" font-weight="bold" lengthAdjust="spacing" textLength="26" x="847" y="759.7656">17</text><text fill="#000000" font-family="sans-serif" font-size="20" lengthAdjust="spacing" textLength="241" x="877" y="759.7656">AdvertisementRepository</text><path d="M687,780.9844 L778,780.9844 L778,796.5391 L768,806.5391 L687,806.5391 L687,780.9844 " fill="#EEEEEE" style="stroke:#000000;stroke-width:1.5;"/><rect fill="none" height="184.3281" style="stroke:#000000;stroke-width:1.5;" width="1367.5" x="687" y="780.9844"/><text fill="#000000" font-family="sans-serif" font-size="20" font-weight="bold" lengthAdjust="spacing" textLength="46" x="702" y="801.3203">loop</text><text fill="#000000" font-family="sans-serif" font-size="20" font-weight="bold" lengthAdjust="spacing" textLength="284" x="793" y="802.3203">[for each store in storeList]</text><polygon fill="#181818" points="1993.5,840.6484,2003.5,844.6484,1993.5,848.6484,1997.5,844.6484" style="stroke:#181818;stroke-width:1.0;"/><line style="stroke:#181818;stroke-width:1.0;" x1="830" x2="1999.5" y1="844.6484" y2="844.6484"/><text fill="#000000" font-family="sans-serif" font-size="20" font-weight="bold" lengthAdjust="spacing" textLength="26" x="837" y="838.4297">18</text><text fill="#000000" font-family="sans-serif" font-size="20" lengthAdjust="spacing" textLength="206" x="867" y="838.4297">getDesignation(store)</text><polygon fill="#181818" points="841,878.2031,831,882.2031,841,886.2031,837,882.2031" style="stroke:#181818;stroke-width:1.0;"/><line style="stroke:#181818;stroke-width:1.0;stroke-dasharray:2.0,2.0;" x1="835" x2="2009.5" y1="882.2031" y2="882.2031"/><text fill="#000000" font-family="sans-serif" font-size="20" font-weight="bold" lengthAdjust="spacing" textLength="26" x="847" y="875.9844">19</text><text fill="#000000" font-family="sans-serif" font-size="20" lengthAdjust="spacing" textLength="112" x="877" y="875.9844">designation</text><polygon fill="#181818" points="1508.5,915.7578,1518.5,919.7578,1508.5,923.7578,1512.5,919.7578" style="stroke:#181818;stroke-width:1.0;"/><line style="stroke:#181818;stroke-width:1.0;" x1="830" x2="1514.5" y1="919.7578" y2="919.7578"/><text fill="#000000" font-family="sans-serif" font-size="20" font-weight="bold" lengthAdjust="spacing" textLength="26" x="837" y="913.5391">20</text><text fill="#000000" font-family="sans-serif" font-size="20" lengthAdjust="spacing" textLength="435" x="867" y="913.5391">getNumPropertiesByDesignation(designation)</text><polygon fill="#181818" points="841,953.3125,831,957.3125,841,961.3125,837,957.3125" style="stroke:#181818;stroke-width:1.0;"/><line style="stroke:#181818;stroke-width:1.0;stroke-dasharray:2.0,2.0;" x1="835" x2="1524.5" y1="957.3125" y2="957.3125"/><text fill="#000000" font-family="sans-serif" font-size="20" font-weight="bold" lengthAdjust="spacing" textLength="26" x="847" y="951.0938">21</text><text fill="#000000" font-family="sans-serif" font-size="20" lengthAdjust="spacing" textLength="246" x="877" y="951.0938">storeNumberOfProperties</text><line style="stroke:#181818;stroke-width:1.0;" x1="830" x2="872" y1="1006.8672" y2="1006.8672"/><line style="stroke:#181818;stroke-width:1.0;" x1="872" x2="872" y1="1006.8672" y2="1019.8672"/><line style="stroke:#181818;stroke-width:1.0;" x1="825" x2="872" y1="1019.8672" y2="1019.8672"/><polygon fill="#181818" points="835,1015.8672,825,1019.8672,835,1023.8672,831,1019.8672" style="stroke:#181818;stroke-width:1.0;"/><text fill="#000000" font-family="sans-serif" font-size="20" font-weight="bold" lengthAdjust="spacing" textLength="26" x="837" y="1000.6484">22</text><text fill="#000000" font-family="sans-serif" font-size="20" lengthAdjust="spacing" textLength="170" x="867" y="1000.6484">propertyNumbers</text><polygon fill="#181818" points="1888.5,1048.4219,1898.5,1052.4219,1888.5,1056.4219,1892.5,1052.4219" style="stroke:#181818;stroke-width:1.0;"/><line style="stroke:#181818;stroke-width:1.0;" x1="825" x2="1894.5" y1="1052.4219" y2="1052.4219"/><text fill="#000000" font-family="sans-serif" font-size="20" font-weight="bold" lengthAdjust="spacing" textLength="26" x="832" y="1046.2031">23</text><text fill="#000000" font-family="sans-serif" font-size="20" lengthAdjust="spacing" textLength="221" x="862" y="1046.2031">sort(propertyNumbers)</text><polygon fill="#181818" points="836,1085.9766,826,1089.9766,836,1093.9766,832,1089.9766" style="stroke:#181818;stroke-width:1.0;"/><line style="stroke:#181818;stroke-width:1.0;stroke-dasharray:2.0,2.0;" x1="830" x2="1904.5" y1="1089.9766" y2="1089.9766"/><text fill="#000000" font-family="sans-serif" font-size="20" font-weight="bold" lengthAdjust="spacing" textLength="26" x="842" y="1083.7578">24</text><text fill="#000000" font-family="sans-serif" font-size="20" lengthAdjust="spacing" textLength="229" x="872" y="1083.7578">sortedPropertyNumbers</text><polygon fill="#181818" points="1888.5,1123.5313,1898.5,1127.5313,1888.5,1131.5313,1892.5,1127.5313" style="stroke:#181818;stroke-width:1.0;"/><line style="stroke:#181818;stroke-width:1.0;" x1="825" x2="1894.5" y1="1127.5313" y2="1127.5313"/><text fill="#000000" font-family="sans-serif" font-size="20" font-weight="bold" lengthAdjust="spacing" textLength="26" x="832" y="1121.3125">25</text><text fill="#000000" font-family="sans-serif" font-size="20" lengthAdjust="spacing" textLength="503" x="862" y="1121.3125">formatBruteForce(sortedPropertyNumbers, storeList)</text><polygon fill="#181818" points="836,1161.0859,826,1165.0859,836,1169.0859,832,1165.0859" style="stroke:#181818;stroke-width:1.0;"/><line style="stroke:#181818;stroke-width:1.0;stroke-dasharray:2.0,2.0;" x1="830" x2="1904.5" y1="1165.0859" y2="1165.0859"/><text fill="#000000" font-family="sans-serif" font-size="20" font-weight="bold" lengthAdjust="spacing" textLength="26" x="842" y="1158.8672">26</text><text fill="#000000" font-family="sans-serif" font-size="20" lengthAdjust="spacing" textLength="64" x="872" y="1158.8672">results</text><line style="stroke:#181818;stroke-width:1.0;stroke-dasharray:2.0,2.0;" x1="825" x2="867" y1="1207.6406" y2="1207.6406"/><line style="stroke:#181818;stroke-width:1.0;stroke-dasharray:2.0,2.0;" x1="867" x2="867" y1="1207.6406" y2="1220.6406"/><line style="stroke:#181818;stroke-width:1.0;stroke-dasharray:2.0,2.0;" x1="820" x2="867" y1="1220.6406" y2="1220.6406"/><polygon fill="#181818" points="830,1216.6406,820,1220.6406,830,1224.6406,826,1220.6406" style="stroke:#181818;stroke-width:1.0;"/><text fill="#000000" font-family="sans-serif" font-size="20" font-weight="bold" lengthAdjust="spacing" textLength="26" x="832" y="1201.4219">27</text><text fill="#000000" font-family="sans-serif" font-size="20" lengthAdjust="spacing" textLength="64" x="862" y="1201.4219">results</text><polygon fill="#181818" points="609,1249.1953,599,1253.1953,609,1257.1953,605,1253.1953" style="stroke:#181818;stroke-width:1.0;"/><line style="stroke:#181818;stroke-width:1.0;stroke-dasharray:2.0,2.0;" x1="603" x2="814" y1="1253.1953" y2="1253.1953"/><text fill="#000000" font-family="sans-serif" font-size="20" font-weight="bold" lengthAdjust="spacing" textLength="26" x="615" y="1246.9766">28</text><text fill="#000000" font-family="sans-serif" font-size="20" lengthAdjust="spacing" textLength="64" x="645" y="1246.9766">results</text><polygon fill="#181818" points="108,1286.75,98,1290.75,108,1294.75,104,1290.75" style="stroke:#181818;stroke-width:1.0;"/><line style="stroke:#181818;stroke-width:1.0;stroke-dasharray:2.0,2.0;" x1="102" x2="592" y1="1290.75" y2="1290.75"/><text fill="#000000" font-family="sans-serif" font-size="20" font-weight="bold" lengthAdjust="spacing" textLength="26" x="114" y="1284.5313">29</text><text fill="#000000" font-family="sans-serif" font-size="20" lengthAdjust="spacing" textLength="323" x="144" y="1284.5313">displays the two subsets of stores</text><!--SRC=[nLSxRzim4DxrAmvPwWGrK7JK4A1f4C10cmOricMXnRDDM29Laaxg_lgUACKY9Vd5EAqsaNVVVVSaQLP2baop8bVP2ZbmdBDrRk-Kj5Fn1-7pfyIyYa2XfCgMMXK8Lg_HsobPjc8BdDfDZg0niqmkSb_0B1bNBq8kOCvoWqd2rbR9TJ53dIGVbe8Zp9MoC_KxOPbL6YxkqRuelOBlJ1AolW1ce5bhbXA2jY8J9PCMBj9RyKmmKr96ypXnye-JFJ9VoKUjyhp1RdyxEZ-nL4QGYa3Z9Fs5K5PxEq-ohwbtQZB-ZFHhi41fjtgRz4b-6TvnUBH7Ao6IgPmB4ARXYjESMjtJJ6_qskATqXawcVPtmC8hxYjQKkLDF3EBtImbG5-u1kDheEH0Iieh0rO1Tua11WOjg3au6yQfRd6hTBgLIdLC41tGbEBxQut66k3CCXZLzGNAD72LeHasjlYbm-BOnzz5rgndXMZGQoB3z1g6rrvDmTKL0MGQIRALwekbi41Rr-VeifNR6l6gjDtrz0dDhxgKq2RIK3jcwEFj-xQsWZeVrlL5ne4dQLZiWzfUx8-m5NhfetjHQyjybxjRa_gmoS38k9kfZi63FkfJVQoRjAeRLHxsfsdfOQa6gkU3QunlmjY3xFV2Xxm32zmRkQEjkKFE3DRvaHQf5XwqAcbgRkxT13YdtVVek3UtuJlqvXaQDggBTnnt9uNob8wBwFiT5EFY64inLwgaAvC6WbhMRGn2UlsSn6U5MhrEnYqQiP3C2YNh5ehAWhiT7AzNMU_5dBTCukBiI4H7fBverK6XcTAC5qhPpSQFaSSoAbBDVUu4rOROy5olfz-FUKitBdQdqqB9uuCTE5A6appEWIEd-bvMxMsu2g_ITjIX5fLnxuvzWhh7fPzveeRyuHnXYoEt9smqhmfcswNH8DcFSEYu_jSnfQiBFOh_MnJFIkVjlK1qt7FeR3I2ishNsuuBK-PiGu-u9GBjLQynUYoQpcjnw4tt5m00]--></g></svg>