<?xml version="1.0" encoding="UTF-8" standalone="no"?><svg xmlns="http://www.w3.org/2000/svg" xmlns:xlink="http://www.w3.org/1999/xlink" contentStyleType="text/css" height="1156px" preserveAspectRatio="none" style="width:1082px;height:1156px;background:#FFFFFF;" version="1.1" viewBox="0 0 1082 1156" width="1082px" zoomAndPan="magnify"><defs/><g><!--class DivideStoresUI--><g id="elem_DivideStoresUI"><rect codeLine="8" fill="#F1F1F1" height="50" id="DivideStoresUI" rx="2.5" ry="2.5" style="stroke:#181818;stroke-width:0.5;" width="174" x="532.5" y="7"/><ellipse cx="548.5" cy="24" fill="#ADD1B2" rx="12" ry="12" style="stroke:#181818;stroke-width:1.0;"/><path d="M551.3066,31.0801 Q550.623,31.4316 549.8711,31.6074 Q549.1191,31.7832 548.2891,31.7832 Q545.3398,31.7832 543.7871,29.8398 Q542.2344,27.8965 542.2344,24.2246 Q542.2344,20.543 543.7871,18.5996 Q545.3398,16.6563 548.2891,16.6563 Q549.1191,16.6563 549.8809,16.832 Q550.6426,17.0078 551.3066,17.3594 L551.3066,20.5625 Q550.5645,19.8789 549.8662,19.5615 Q549.168,19.2441 548.4258,19.2441 Q546.8438,19.2441 546.0381,20.499 Q545.2324,21.7539 545.2324,24.2246 Q545.2324,26.6855 546.0381,27.9404 Q546.8438,29.1953 548.4258,29.1953 Q549.168,29.1953 549.8662,28.8779 Q550.5645,28.5605 551.3066,27.877 Z " fill="#000000"/><text fill="#000000" font-family="sans-serif" font-size="20" lengthAdjust="spacing" textLength="140" x="563.5" y="31.5586">DivideStoresUI</text><line style="stroke:#181818;stroke-width:0.5;" x1="533.5" x2="705.5" y1="41" y2="41"/><line style="stroke:#181818;stroke-width:0.5;" x1="533.5" x2="705.5" y1="49" y2="49"/></g><!--class DivideStoresController--><g id="elem_DivideStoresController"><rect codeLine="10" fill="#F1F1F1" height="120.6641" id="DivideStoresController" rx="2.5" ry="2.5" style="stroke:#181818;stroke-width:0.5;" width="322" x="458.5" y="117"/><ellipse cx="507" cy="134" fill="#ADD1B2" rx="12" ry="12" style="stroke:#181818;stroke-width:1.0;"/><path d="M509.8066,141.0801 Q509.123,141.4316 508.3711,141.6074 Q507.6191,141.7832 506.7891,141.7832 Q503.8398,141.7832 502.2871,139.8398 Q500.7344,137.8965 500.7344,134.2246 Q500.7344,130.543 502.2871,128.5996 Q503.8398,126.6563 506.7891,126.6563 Q507.6191,126.6563 508.3809,126.832 Q509.1426,127.0078 509.8066,127.3594 L509.8066,130.5625 Q509.0645,129.8789 508.3662,129.5615 Q507.668,129.2441 506.9258,129.2441 Q505.3438,129.2441 504.5381,130.499 Q503.7324,131.7539 503.7324,134.2246 Q503.7324,136.6855 504.5381,137.9404 Q505.3438,139.1953 506.9258,139.1953 Q507.668,139.1953 508.3662,138.8779 Q509.0645,138.5605 509.8066,137.877 Z " fill="#000000"/><text fill="#000000" font-family="sans-serif" font-size="20" lengthAdjust="spacing" textLength="216" x="529" y="141.5586">DivideStoresController</text><line style="stroke:#181818;stroke-width:0.5;" x1="459.5" x2="779.5" y1="151" y2="151"/><line style="stroke:#181818;stroke-width:0.5;" x1="459.5" x2="779.5" y1="159" y2="159"/><text fill="#000000" font-family="sans-serif" font-size="20" lengthAdjust="spacing" textLength="119" x="464.5" y="182.3359">+getStores()</text><text fill="#000000" font-family="sans-serif" font-size="20" lengthAdjust="spacing" textLength="230" x="464.5" y="205.8906">+divideStores(storeList)</text><text fill="#000000" font-family="sans-serif" font-size="20" lengthAdjust="spacing" textLength="310" x="464.5" y="229.4453">+getPropertyNumbers(storeList)</text></g><!--class Repositories--><g id="elem_Repositories"><rect codeLine="16" fill="#F1F1F1" height="120.6641" id="Repositories" rx="2.5" ry="2.5" style="stroke:#181818;stroke-width:0.5;" width="313" x="253" y="298"/><ellipse cx="345.5" cy="315" fill="#ADD1B2" rx="12" ry="12" style="stroke:#181818;stroke-width:1.0;"/><path d="M348.3066,322.0801 Q347.623,322.4316 346.8711,322.6074 Q346.1191,322.7832 345.2891,322.7832 Q342.3398,322.7832 340.7871,320.8398 Q339.2344,318.8965 339.2344,315.2246 Q339.2344,311.543 340.7871,309.5996 Q342.3398,307.6563 345.2891,307.6563 Q346.1191,307.6563 346.8809,307.832 Q347.6426,308.0078 348.3066,308.3594 L348.3066,311.5625 Q347.5645,310.8789 346.8662,310.5615 Q346.168,310.2441 345.4258,310.2441 Q343.8438,310.2441 343.0381,311.499 Q342.2324,312.7539 342.2324,315.2246 Q342.2324,317.6855 343.0381,318.9404 Q343.8438,320.1953 345.4258,320.1953 Q346.168,320.1953 346.8662,319.8779 Q347.5645,319.5605 348.3066,318.877 Z " fill="#000000"/><text fill="#000000" font-family="sans-serif" font-size="20" lengthAdjust="spacing" textLength="119" x="367.5" y="322.5586">Repositories</text><line style="stroke:#181818;stroke-width:0.5;" x1="254" x2="565" y1="332" y2="332"/><line style="stroke:#181818;stroke-width:0.5;" x1="254" x2="565" y1="340" y2="340"/><text fill="#000000" font-family="sans-serif" font-size="20" lengthAdjust="spacing" textLength="139" x="259" y="363.3359">+getInstance()</text><text fill="#000000" font-family="sans-serif" font-size="20" lengthAdjust="spacing" textLength="301" x="259" y="386.8906">+getAdvertisementRepository()</text><text fill="#000000" font-family="sans-serif" font-size="20" lengthAdjust="spacing" textLength="211" x="259" y="410.4453">+getStoreRepository()</text></g><!--class AdvertisementRepository--><g id="elem_AdvertisementRepository"><rect codeLine="22" fill="#F1F1F1" height="97.1094" id="AdvertisementRepository" rx="2.5" ry="2.5" style="stroke:#181818;stroke-width:0.5;" width="463" x="7" y="502.5"/><ellipse cx="113.5" cy="519.5" fill="#ADD1B2" rx="12" ry="12" style="stroke:#181818;stroke-width:1.0;"/><path d="M116.3066,526.5801 Q115.623,526.9316 114.8711,527.1074 Q114.1191,527.2832 113.2891,527.2832 Q110.3398,527.2832 108.7871,525.3398 Q107.2344,523.3965 107.2344,519.7246 Q107.2344,516.043 108.7871,514.0996 Q110.3398,512.1563 113.2891,512.1563 Q114.1191,512.1563 114.8809,512.332 Q115.6426,512.5078 116.3066,512.8594 L116.3066,516.0625 Q115.5645,515.3789 114.8662,515.0615 Q114.168,514.7441 113.4258,514.7441 Q111.8438,514.7441 111.0381,515.999 Q110.2324,517.2539 110.2324,519.7246 Q110.2324,522.1855 111.0381,523.4404 Q111.8438,524.6953 113.4258,524.6953 Q114.168,524.6953 114.8662,524.3779 Q115.5645,524.0605 116.3066,523.377 Z " fill="#000000"/><text fill="#000000" font-family="sans-serif" font-size="20" lengthAdjust="spacing" textLength="241" x="135.5" y="527.0586">AdvertisementRepository</text><line style="stroke:#181818;stroke-width:0.5;" x1="8" x2="469" y1="536.5" y2="536.5"/><text fill="#000000" font-family="sans-serif" font-size="20" lengthAdjust="spacing" textLength="396" x="13" y="559.8359">-List&lt;Advertisement&gt; AdvertisementList</text><line style="stroke:#181818;stroke-width:0.5;" x1="8" x2="469" y1="568.0547" y2="568.0547"/><text fill="#000000" font-family="sans-serif" font-size="20" lengthAdjust="spacing" textLength="451" x="13" y="591.3906">+getNumPropertiesByDesignation(designation)</text></g><!--class StoreRepository--><g id="elem_StoreRepository"><rect codeLine="28" fill="#F1F1F1" height="144.2188" id="StoreRepository" rx="2.5" ry="2.5" style="stroke:#181818;stroke-width:0.5;" width="228" x="505.5" y="479"/><ellipse cx="540.85" cy="496" fill="#ADD1B2" rx="12" ry="12" style="stroke:#181818;stroke-width:1.0;"/><path d="M543.6566,503.0801 Q542.973,503.4316 542.2211,503.6074 Q541.4691,503.7832 540.6391,503.7832 Q537.6898,503.7832 536.1371,501.8398 Q534.5844,499.8965 534.5844,496.2246 Q534.5844,492.543 536.1371,490.5996 Q537.6898,488.6563 540.6391,488.6563 Q541.4691,488.6563 542.2309,488.832 Q542.9926,489.0078 543.6566,489.3594 L543.6566,492.5625 Q542.9145,491.8789 542.2162,491.5615 Q541.518,491.2441 540.7758,491.2441 Q539.1938,491.2441 538.3881,492.499 Q537.5824,493.7539 537.5824,496.2246 Q537.5824,498.6855 538.3881,499.9404 Q539.1938,501.1953 540.7758,501.1953 Q541.518,501.1953 542.2162,500.8779 Q542.9145,500.5605 543.6566,499.877 Z " fill="#000000"/><text fill="#000000" font-family="sans-serif" font-size="20" lengthAdjust="spacing" textLength="151" x="560.15" y="503.5586">StoreRepository</text><line style="stroke:#181818;stroke-width:0.5;" x1="506.5" x2="732.5" y1="513" y2="513"/><text fill="#000000" font-family="sans-serif" font-size="20" lengthAdjust="spacing" textLength="216" x="511.5" y="536.3359">-List&lt;Store&gt; StoreList</text><text fill="#000000" font-family="sans-serif" font-size="20" lengthAdjust="spacing" textLength="6" x="511.5" y="559.8906"> </text><text fill="#000000" font-family="sans-serif" font-size="20" lengthAdjust="spacing" textLength="215" x="511.5" y="583.4453">-List&lt;Store&gt; storeList</text><line style="stroke:#181818;stroke-width:0.5;" x1="506.5" x2="732.5" y1="591.6641" y2="591.6641"/><text fill="#000000" font-family="sans-serif" font-size="20" lengthAdjust="spacing" textLength="75" x="511.5" y="615">+copy()</text></g><!--class BruteForce--><g id="elem_BruteForce"><rect codeLine="35" fill="#F1F1F1" height="97.1094" id="BruteForce" rx="2.5" ry="2.5" style="stroke:#181818;stroke-width:0.5;" width="385" x="673" y="310"/><ellipse cx="810" cy="327" fill="#ADD1B2" rx="12" ry="12" style="stroke:#181818;stroke-width:1.0;"/><path d="M812.8066,334.0801 Q812.123,334.4316 811.3711,334.6074 Q810.6191,334.7832 809.7891,334.7832 Q806.8398,334.7832 805.2871,332.8398 Q803.7344,330.8965 803.7344,327.2246 Q803.7344,323.543 805.2871,321.5996 Q806.8398,319.6563 809.7891,319.6563 Q810.6191,319.6563 811.3809,319.832 Q812.1426,320.0078 812.8066,320.3594 L812.8066,323.5625 Q812.0645,322.8789 811.3662,322.5615 Q810.668,322.2441 809.9258,322.2441 Q808.3438,322.2441 807.5381,323.499 Q806.7324,324.7539 806.7324,327.2246 Q806.7324,329.6855 807.5381,330.9404 Q808.3438,332.1953 809.9258,332.1953 Q810.668,332.1953 811.3662,331.8779 Q812.0645,331.5605 812.8066,330.877 Z " fill="#000000"/><text fill="#000000" font-family="sans-serif" font-size="20" lengthAdjust="spacing" textLength="102" x="832" y="334.5586">BruteForce</text><line style="stroke:#181818;stroke-width:0.5;" x1="674" x2="1057" y1="344" y2="344"/><line style="stroke:#181818;stroke-width:0.5;" x1="674" x2="1057" y1="352" y2="352"/><text fill="#000000" font-family="sans-serif" font-size="20" lengthAdjust="spacing" textLength="94" x="679" y="375.3359">+sort(arr)</text><text fill="#000000" font-family="sans-serif" font-size="20" lengthAdjust="spacing" textLength="373" x="679" y="398.8906">+formatBruteForce(arrString, storeList)</text></g><!--class Store--><g id="elem_Store"><rect codeLine="40" fill="#F1F1F1" height="191.3281" id="Store" rx="2.5" ry="2.5" style="stroke:#181818;stroke-width:0.5;" width="353" x="443" y="958"/><ellipse cx="590.5" cy="975" fill="#ADD1B2" rx="12" ry="12" style="stroke:#181818;stroke-width:1.0;"/><path d="M593.3066,982.0801 Q592.623,982.4316 591.8711,982.6074 Q591.1191,982.7832 590.2891,982.7832 Q587.3398,982.7832 585.7871,980.8398 Q584.2344,978.8965 584.2344,975.2246 Q584.2344,971.543 585.7871,969.5996 Q587.3398,967.6563 590.2891,967.6563 Q591.1191,967.6563 591.8809,967.832 Q592.6426,968.0078 593.3066,968.3594 L593.3066,971.5625 Q592.5645,970.8789 591.8662,970.5615 Q591.168,970.2441 590.4258,970.2441 Q588.8438,970.2441 588.0381,971.499 Q587.2324,972.7539 587.2324,975.2246 Q587.2324,977.6855 588.0381,978.9404 Q588.8438,980.1953 590.4258,980.1953 Q591.168,980.1953 591.8662,979.8779 Q592.5645,979.5605 593.3066,978.877 Z " fill="#000000"/><text fill="#000000" font-family="sans-serif" font-size="20" lengthAdjust="spacing" textLength="49" x="612.5" y="982.5586">Store</text><line style="stroke:#181818;stroke-width:0.5;" x1="444" x2="795" y1="992" y2="992"/><text fill="#000000" font-family="sans-serif" font-size="20" lengthAdjust="spacing" textLength="173" x="449" y="1015.3359">-Address address</text><text fill="#000000" font-family="sans-serif" font-size="20" lengthAdjust="spacing" textLength="186" x="449" y="1038.8906">-String designation</text><text fill="#000000" font-family="sans-serif" font-size="20" lengthAdjust="spacing" textLength="127" x="449" y="1062.4453">-String email</text><text fill="#000000" font-family="sans-serif" font-size="20" lengthAdjust="spacing" textLength="247" x="449" y="1086">-String telephoneNumber</text><line style="stroke:#181818;stroke-width:0.5;" x1="444" x2="795" y1="1094.2188" y2="1094.2188"/><text fill="#000000" font-family="sans-serif" font-size="20" lengthAdjust="spacing" textLength="174" x="449" y="1117.5547">+getDesignation()</text><text fill="#000000" font-family="sans-serif" font-size="20" lengthAdjust="spacing" textLength="341" x="449" y="1141.1094">+hasSameDesignation(designation)</text></g><!--class Advertisement--><g id="elem_Advertisement"><rect codeLine="50" fill="#F1F1F1" height="214.8828" id="Advertisement" rx="2.5" ry="2.5" style="stroke:#181818;stroke-width:0.5;" width="465" x="54" y="683"/><ellipse cx="212.5" cy="700" fill="#ADD1B2" rx="12" ry="12" style="stroke:#181818;stroke-width:1.0;"/><path d="M215.3066,707.0801 Q214.623,707.4316 213.8711,707.6074 Q213.1191,707.7832 212.2891,707.7832 Q209.3398,707.7832 207.7871,705.8398 Q206.2344,703.8965 206.2344,700.2246 Q206.2344,696.543 207.7871,694.5996 Q209.3398,692.6563 212.2891,692.6563 Q213.1191,692.6563 213.8809,692.832 Q214.6426,693.0078 215.3066,693.3594 L215.3066,696.5625 Q214.5645,695.8789 213.8662,695.5615 Q213.168,695.2441 212.4258,695.2441 Q210.8438,695.2441 210.0381,696.499 Q209.2324,697.7539 209.2324,700.2246 Q209.2324,702.6855 210.0381,703.9404 Q210.8438,705.1953 212.4258,705.1953 Q213.168,705.1953 213.8662,704.8779 Q214.5645,704.5605 215.3066,703.877 Z " fill="#000000"/><text fill="#000000" font-family="sans-serif" font-size="20" lengthAdjust="spacing" textLength="139" x="234.5" y="707.5586">Advertisement</text><line style="stroke:#181818;stroke-width:0.5;" x1="55" x2="518" y1="717" y2="717"/><text fill="#000000" font-family="sans-serif" font-size="20" lengthAdjust="spacing" textLength="278" x="60" y="740.3359">-String dateOfAdvertisement</text><text fill="#000000" font-family="sans-serif" font-size="20" lengthAdjust="spacing" textLength="167" x="60" y="763.8906">-Request request</text><text fill="#000000" font-family="sans-serif" font-size="20" lengthAdjust="spacing" textLength="254" x="60" y="787.4453">-Commission commission</text><text fill="#000000" font-family="sans-serif" font-size="20" lengthAdjust="spacing" textLength="453" x="60" y="811">-ArrayList&lt;PurchaseOrder&gt; purchaseOrderList</text><text fill="#000000" font-family="sans-serif" font-size="20" lengthAdjust="spacing" textLength="404" x="60" y="834.5547">-ArrayList&lt;VisitRequest&gt; visitRequestList</text><text fill="#000000" font-family="sans-serif" font-size="20" lengthAdjust="spacing" textLength="131" x="60" y="858.1094">-String status</text><line style="stroke:#181818;stroke-width:0.5;" x1="55" x2="518" y1="866.3281" y2="866.3281"/><text fill="#000000" font-family="sans-serif" font-size="20" lengthAdjust="spacing" textLength="109" x="60" y="889.6641">+getStore()</text></g><!--link DivideStoresUI to DivideStoresController--><g id="link_DivideStoresUI_DivideStoresController"><path codeLine="61" d="M619.5,57.02 C619.5,71.97 619.5,91.98 619.5,111.35 " fill="none" id="DivideStoresUI-to-DivideStoresController" style="stroke:#181818;stroke-width:1.0;stroke-dasharray:7.0,7.0;"/><polygon fill="#181818" points="619.5,116.79,623.5,107.79,619.5,111.79,615.5,107.79,619.5,116.79" style="stroke:#181818;stroke-width:1.0;"/></g><!--link DivideStoresController to Repositories--><g id="link_DivideStoresController_Repositories"><path codeLine="63" d="M549.57,238.1 C528.34,256.2 504.95,276.14 483.47,294.45 " fill="none" id="DivideStoresController-to-Repositories" style="stroke:#181818;stroke-width:1.0;stroke-dasharray:7.0,7.0;"/><polygon fill="#181818" points="479.48,297.85,488.9226,295.0504,483.2833,294.6043,483.7294,288.9651,479.48,297.85" style="stroke:#181818;stroke-width:1.0;"/></g><!--link DivideStoresController to AdvertisementRepository--><g id="link_DivideStoresController_AdvertisementRepository"><path codeLine="64" d="M458.32,228.66 C353.23,261.36 235.5,298 235.5,298 C235.5,298 235.5,419 235.5,419 C235.5,419 236.45,460.68 237.29,497.02 " fill="none" id="DivideStoresController-to-AdvertisementRepository" style="stroke:#181818;stroke-width:1.0;stroke-dasharray:7.0,7.0;"/><polygon fill="#181818" points="237.41,502.34,241.2033,493.2509,237.2957,497.3413,233.2054,493.4338,237.41,502.34" style="stroke:#181818;stroke-width:1.0;"/></g><!--link DivideStoresController to StoreRepository--><g id="link_DivideStoresController_StoreRepository"><path codeLine="65" d="M619.5,238.19 C619.5,302.06 619.5,403.57 619.5,473.32 " fill="none" id="DivideStoresController-to-StoreRepository" style="stroke:#181818;stroke-width:1.0;stroke-dasharray:7.0,7.0;"/><polygon fill="#181818" points="619.5,478.7,623.5,469.7,619.5,473.7,615.5,469.7,619.5,478.7" style="stroke:#181818;stroke-width:1.0;"/></g><!--link Repositories to AdvertisementRepository--><g id="link_Repositories_AdvertisementRepository"><path codeLine="67" d="M355.86,419.25 C333.09,444.63 306.79,473.93 284.86,498.35 " fill="none" id="Repositories-to-AdvertisementRepository" style="stroke:#181818;stroke-width:1.0;"/><polygon fill="#181818" points="281.38,502.23,290.3576,498.1799,284.7098,498.5001,284.3897,492.8523,281.38,502.23" style="stroke:#181818;stroke-width:1.0;"/><text fill="#000000" font-family="sans-serif" font-size="20" lengthAdjust="spacing" textLength="13" x="273.4959" y="490.1218">1</text></g><!--link Repositories to StoreRepository--><g id="link_Repositories_StoreRepository"><path codeLine="68" d="M475.37,419.25 C494.96,437.02 516.67,456.72 537.17,475.31 " fill="none" id="Repositories-to-StoreRepository" style="stroke:#181818;stroke-width:1.0;"/><polygon fill="#181818" points="540.98,478.77,537.0216,469.7516,537.2842,475.4024,531.6334,475.6649,540.98,478.77" style="stroke:#181818;stroke-width:1.0;"/><text fill="#000000" font-family="sans-serif" font-size="20" lengthAdjust="spacing" textLength="13" x="519.6108" y="466.8803">1</text></g><!--link StoreRepository to Store--><g id="link_StoreRepository_Store"><path codeLine="70" d="M619.5,623.18 C619.5,709.35 619.5,855 619.5,952.44 " fill="none" id="StoreRepository-to-Store" style="stroke:#181818;stroke-width:1.0;"/><polygon fill="#181818" points="619.5,957.63,623.5,948.63,619.5,952.63,615.5,948.63,619.5,957.63" style="stroke:#181818;stroke-width:1.0;"/><text fill="#000000" font-family="sans-serif" font-size="20" lengthAdjust="spacing" textLength="13" x="605.8805" y="650.5077">1</text><text fill="#000000" font-family="sans-serif" font-size="20" lengthAdjust="spacing" textLength="10" x="609.1172" y="945.7541">*</text></g><!--link AdvertisementRepository to Advertisement--><g id="link_AdvertisementRepository_Advertisement"><path codeLine="71" d="M248.16,599.78 C252.72,622.35 258.37,650.32 263.92,677.79 " fill="none" id="AdvertisementRepository-to-Advertisement" style="stroke:#181818;stroke-width:1.0;"/><polygon fill="#181818" points="264.96,682.91,267.1065,673.2979,263.9739,678.0082,259.2636,674.8756,264.96,682.91" style="stroke:#181818;stroke-width:1.0;"/><text fill="#000000" font-family="sans-serif" font-size="20" lengthAdjust="spacing" textLength="13" x="235.5649" y="626.8678">1</text><text fill="#000000" font-family="sans-serif" font-size="20" lengthAdjust="spacing" textLength="10" x="253.0939" y="670.896">*</text></g><!--link DivideStoresController to Store--><g id="link_DivideStoresController_Store"><path codeLine="73" d="M780.59,220.72 C911.82,255.11 1075.5,298 1075.5,298 C1075.5,298 1075.5,419 1075.5,419 C1075.5,419 819.03,775.3 690.77,953.48 " fill="none" id="DivideStoresController-to-Store" style="stroke:#181818;stroke-width:1.0;stroke-dasharray:7.0,7.0;"/><polygon fill="#181818" points="687.77,957.66,696.2693,952.6839,690.687,953.5991,689.7719,948.0167,687.77,957.66" style="stroke:#181818;stroke-width:1.0;"/></g><!--link DivideStoresController to BruteForce--><g id="link_DivideStoresController_BruteForce"><path codeLine="74" d="M701.41,238.1 C731.92,260.3 766.24,285.27 795.57,306.62 " fill="none" id="DivideStoresController-to-BruteForce" style="stroke:#181818;stroke-width:1.0;stroke-dasharray:7.0,7.0;"/><polygon fill="#181818" points="799.86,309.74,794.9376,301.2094,795.8176,306.7974,790.2296,307.6774,799.86,309.74" style="stroke:#181818;stroke-width:1.0;"/></g><!--link Advertisement to Store--><g id="link_Advertisement_Store"><path codeLine="76" d="M422.42,898.04 C446.31,916.76 471.06,936.16 494.63,954.63 " fill="none" id="Advertisement-to-Store" style="stroke:#181818;stroke-width:1.0;"/><polygon fill="#181818" points="498.71,957.83,494.0877,949.1332,494.7725,954.7485,489.1572,955.4332,498.71,957.83" style="stroke:#181818;stroke-width:1.0;"/><text fill="#000000" font-family="sans-serif" font-size="20" lengthAdjust="spacing" textLength="13" x="418.1154" y="925.3965">1</text><text fill="#000000" font-family="sans-serif" font-size="20" lengthAdjust="spacing" textLength="13" x="475.5666" y="945.6349">1</text></g><!--SRC=[XLF1Rjim3BthAuISt6Kksfq70scB0W66jMYstLMPSOJ8aYVA6RnW_pxQIcmfIp9VPF4zyJsI4cwLQOGJjRPo2oKlOIrQxP-jyIlr6_YdEuP72c-4t8eALhxJm1r8Bqob8IBWHfJsbp8LNmkDCQALWMzT0xonkkitZ4Mer09nuRrJxws7fRHc4BzZR43uazgfadIj0_o-vFi_vu17ykoirk3udiqhy26StR1v6T4ox9Sl2ltDm7frjW7dkwzj_GukWKUPDsWiAW8KOCYzD4ZLIyX2aaMvenmAeGRZHtPtG0VX93fcld1mp_BUmkS4Bb9sJs13Vh9-g8ByFNHFWAeomYjhidBwZrHF31tLXd0Hq90zYO-TONDfcwIC1qTpUxPE0hK7hVEPS8wANrjN2p-XVNX5OpRLHtwkqOCIsLcK9OqAkGWhoyCX7fKpng0MIeyx3ngQZJKGvXaQ57U4N6q4haGD_-zJqk_zv49uU5ad8ClVu6SBwEbT32lB7srTAqJAoENuIwKv9xgXhQ-jasG5Nbm9hk1Dl1tQ775_A1hLGQBWksWNc0TdT2bzYsowTM589-_dzhQuy79IQlIY-YFnAxZ6kt2dhnqvkP2CnLeypmi-kvzTodkE-q_2aq3F8Uhimoneiml98ruwxolLX8HNgftU0qjrZshtHrVzznS0]--></g></svg>