<?xml version="1.0" encoding="UTF-8" standalone="no"?><svg xmlns="http://www.w3.org/2000/svg" xmlns:xlink="http://www.w3.org/1999/xlink" contentStyleType="text/css" height="2019px" preserveAspectRatio="none" style="width:2196px;height:2019px;background:#FFFFFF;" version="1.1" viewBox="0 0 2196 2019" width="2196px" zoomAndPan="magnify"><defs/><g><!--class MakeAdvertisementUI--><g id="elem_MakeAdvertisementUI"><rect codeLine="7" fill="#F1F1F1" height="50" id="MakeAdvertisementUI" rx="2.5" ry="2.5" style="stroke:#181818;stroke-width:0.5;" width="244" x="1266.5" y="7"/><ellipse cx="1282.5" cy="24" fill="#ADD1B2" rx="12" ry="12" style="stroke:#181818;stroke-width:1.0;"/><path d="M1285.3066,31.0801 Q1284.623,31.4316 1283.8711,31.6074 Q1283.1191,31.7832 1282.2891,31.7832 Q1279.3398,31.7832 1277.7871,29.8398 Q1276.2344,27.8965 1276.2344,24.2246 Q1276.2344,20.543 1277.7871,18.5996 Q1279.3398,16.6563 1282.2891,16.6563 Q1283.1191,16.6563 1283.8809,16.832 Q1284.6426,17.0078 1285.3066,17.3594 L1285.3066,20.5625 Q1284.5645,19.8789 1283.8662,19.5615 Q1283.168,19.2441 1282.4258,19.2441 Q1280.8438,19.2441 1280.0381,20.499 Q1279.2324,21.7539 1279.2324,24.2246 Q1279.2324,26.6855 1280.0381,27.9404 Q1280.8438,29.1953 1282.4258,29.1953 Q1283.168,29.1953 1283.8662,28.8779 Q1284.5645,28.5605 1285.3066,27.877 Z " fill="#000000"/><text fill="#000000" font-family="sans-serif" font-size="20" lengthAdjust="spacing" textLength="210" x="1297.5" y="31.5586">MakeAdvertisementUI</text><line style="stroke:#181818;stroke-width:0.5;" x1="1267.5" x2="1509.5" y1="41" y2="41"/><line style="stroke:#181818;stroke-width:0.5;" x1="1267.5" x2="1509.5" y1="49" y2="49"/></g><!--class MakeAdvertisementController--><g id="elem_MakeAdvertisementController"><rect codeLine="8" fill="#F1F1F1" height="214.8828" id="MakeAdvertisementController" rx="2.5" ry="2.5" style="stroke:#181818;stroke-width:0.5;" width="920" x="928.5" y="118"/><ellipse cx="1241" cy="135" fill="#ADD1B2" rx="12" ry="12" style="stroke:#181818;stroke-width:1.0;"/><path d="M1243.8066,142.0801 Q1243.123,142.4316 1242.3711,142.6074 Q1241.6191,142.7832 1240.7891,142.7832 Q1237.8398,142.7832 1236.2871,140.8398 Q1234.7344,138.8965 1234.7344,135.2246 Q1234.7344,131.543 1236.2871,129.5996 Q1237.8398,127.6563 1240.7891,127.6563 Q1241.6191,127.6563 1242.3809,127.832 Q1243.1426,128.0078 1243.8066,128.3594 L1243.8066,131.5625 Q1243.0645,130.8789 1242.3662,130.5615 Q1241.668,130.2441 1240.9258,130.2441 Q1239.3438,130.2441 1238.5381,131.499 Q1237.7324,132.7539 1237.7324,135.2246 Q1237.7324,137.6855 1238.5381,138.9404 Q1239.3438,140.1953 1240.9258,140.1953 Q1241.668,140.1953 1242.3662,139.8779 Q1243.0645,139.5605 1243.8066,138.877 Z " fill="#000000"/><text fill="#000000" font-family="sans-serif" font-size="20" lengthAdjust="spacing" textLength="286" x="1263" y="142.5586">MakeAdvertisementController</text><line style="stroke:#181818;stroke-width:0.5;" x1="929.5" x2="1847.5" y1="152" y2="152"/><line style="stroke:#181818;stroke-width:0.5;" x1="929.5" x2="1847.5" y1="160" y2="160"/><text fill="#000000" font-family="sans-serif" font-size="20" lengthAdjust="spacing" textLength="316" x="934.5" y="183.3359">+MakeAdvertisementController()</text><text fill="#000000" font-family="sans-serif" font-size="20" lengthAdjust="spacing" textLength="199" x="934.5" y="206.8906">+getAdvertisement()</text><text fill="#000000" font-family="sans-serif" font-size="20" lengthAdjust="spacing" textLength="315" x="934.5" y="230.4453">+registerClient(client, password)</text><text fill="#000000" font-family="sans-serif" font-size="20" lengthAdjust="spacing" textLength="572" x="934.5" y="254">+submitAdvertisement(price, area, distCityCenter, address,</text><text fill="#000000" font-family="sans-serif" font-size="20" lengthAdjust="spacing" textLength="538" x="934.5" y="277.5547">photograph, numberOfBedrooms, numberOfBathrooms,</text><text fill="#000000" font-family="sans-serif" font-size="20" lengthAdjust="spacing" textLength="607" x="940.5" y="301.1094">numberOfParkingSpaces, equipmentDesignation, sunExposure,</text><text fill="#000000" font-family="sans-serif" font-size="20" lengthAdjust="spacing" textLength="902" x="940.5" y="324.6641">basement, loft, typeOfBusiness, typeOfProperty, typeOfCommission, commissionValue, agent)</text></g><!--class Repositories--><g id="elem_Repositories"><rect codeLine="14" fill="#F1F1F1" height="191.3281" id="Repositories" rx="2.5" ry="2.5" style="stroke:#181818;stroke-width:0.5;" width="313" x="1069" y="741"/><ellipse cx="1161.5" cy="758" fill="#ADD1B2" rx="12" ry="12" style="stroke:#181818;stroke-width:1.0;"/><path d="M1164.3066,765.0801 Q1163.623,765.4316 1162.8711,765.6074 Q1162.1191,765.7832 1161.2891,765.7832 Q1158.3398,765.7832 1156.7871,763.8398 Q1155.2344,761.8965 1155.2344,758.2246 Q1155.2344,754.543 1156.7871,752.5996 Q1158.3398,750.6563 1161.2891,750.6563 Q1162.1191,750.6563 1162.8809,750.832 Q1163.6426,751.0078 1164.3066,751.3594 L1164.3066,754.5625 Q1163.5645,753.8789 1162.8662,753.5615 Q1162.168,753.2441 1161.4258,753.2441 Q1159.8438,753.2441 1159.0381,754.499 Q1158.2324,755.7539 1158.2324,758.2246 Q1158.2324,760.6855 1159.0381,761.9404 Q1159.8438,763.1953 1161.4258,763.1953 Q1162.168,763.1953 1162.8662,762.8779 Q1163.5645,762.5605 1164.3066,761.877 Z " fill="#000000"/><text fill="#000000" font-family="sans-serif" font-size="20" lengthAdjust="spacing" textLength="119" x="1183.5" y="765.5586">Repositories</text><line style="stroke:#181818;stroke-width:0.5;" x1="1070" x2="1381" y1="775" y2="775"/><line style="stroke:#181818;stroke-width:0.5;" x1="1070" x2="1381" y1="783" y2="783"/><text fill="#000000" font-family="sans-serif" font-size="20" lengthAdjust="spacing" textLength="145" x="1075" y="806.3359">-Repositories()</text><text fill="#000000" font-family="sans-serif" font-size="20" lengthAdjust="spacing" textLength="276" x="1075" y="829.8906">+getInstance() : Repositories</text><text fill="#000000" font-family="sans-serif" font-size="20" lengthAdjust="spacing" textLength="301" x="1075" y="853.4453">+getAdvertisementRepository()</text><text fill="#000000" font-family="sans-serif" font-size="20" lengthAdjust="spacing" textLength="255" x="1075" y="877">+getEmployeeRepository()</text><text fill="#000000" font-family="sans-serif" font-size="20" lengthAdjust="spacing" textLength="218" x="1075" y="900.5547">+getClientRepository()</text><text fill="#000000" font-family="sans-serif" font-size="20" lengthAdjust="spacing" textLength="301" x="1075" y="924.1094">+getAuthenticationRepository()</text></g><!--class ManageAdvertisementRepository--><g id="elem_ManageAdvertisementRepository"><rect codeLine="22" fill="#F1F1F1" height="285.5469" id="ManageAdvertisementRepository" rx="2.5" ry="2.5" style="stroke:#181818;stroke-width:0.5;" width="693" x="213" y="394"/><ellipse cx="397.5" cy="411" fill="#ADD1B2" rx="12" ry="12" style="stroke:#181818;stroke-width:1.0;"/><path d="M400.3066,418.0801 Q399.623,418.4316 398.8711,418.6074 Q398.1191,418.7832 397.2891,418.7832 Q394.3398,418.7832 392.7871,416.8398 Q391.2344,414.8965 391.2344,411.2246 Q391.2344,407.543 392.7871,405.5996 Q394.3398,403.6563 397.2891,403.6563 Q398.1191,403.6563 398.8809,403.832 Q399.6426,404.0078 400.3066,404.3594 L400.3066,407.5625 Q399.5645,406.8789 398.8662,406.5615 Q398.168,406.2441 397.4258,406.2441 Q395.8438,406.2441 395.0381,407.499 Q394.2324,408.7539 394.2324,411.2246 Q394.2324,413.6855 395.0381,414.9404 Q395.8438,416.1953 397.4258,416.1953 Q398.168,416.1953 398.8662,415.8779 Q399.5645,415.5605 400.3066,414.877 Z " fill="#000000"/><text fill="#000000" font-family="sans-serif" font-size="20" lengthAdjust="spacing" textLength="315" x="419.5" y="418.5586">ManageAdvertisementRepository</text><line style="stroke:#181818;stroke-width:0.5;" x1="214" x2="905" y1="428" y2="428"/><line style="stroke:#181818;stroke-width:0.5;" x1="214" x2="905" y1="436" y2="436"/><text fill="#000000" font-family="sans-serif" font-size="20" lengthAdjust="spacing" textLength="585" x="219" y="459.3359">+manageAdvertisementRepository(advertisementRepository)</text><text fill="#000000" font-family="sans-serif" font-size="20" lengthAdjust="spacing" textLength="504" x="219" y="482.8906">+createProperty(price, area, distCityCenter, address,</text><text fill="#000000" font-family="sans-serif" font-size="20" lengthAdjust="spacing" textLength="538" x="219" y="506.4453">photograph, numberOfBedrooms, numberOfBathrooms,</text><text fill="#000000" font-family="sans-serif" font-size="20" lengthAdjust="spacing" textLength="607" x="225" y="530">numberOfParkingSpaces, equipmentDesignation, sunExposure,</text><text fill="#000000" font-family="sans-serif" font-size="20" lengthAdjust="spacing" textLength="460" x="225" y="553.5547">basement, loft, typeOfBusiness, typeOfProperty)</text><text fill="#000000" font-family="sans-serif" font-size="20" lengthAdjust="spacing" textLength="466" x="219" y="577.1094">+createRequest(property, agent, dateOfRequest)</text><text fill="#000000" font-family="sans-serif" font-size="20" lengthAdjust="spacing" textLength="681" x="219" y="600.6641">+createAdvertisement( request, typeOfCommission, commissionValue,</text><text fill="#000000" font-family="sans-serif" font-size="20" lengthAdjust="spacing" textLength="211" x="219" y="624.2188">dateOfAdvertisement)</text><text fill="#000000" font-family="sans-serif" font-size="20" lengthAdjust="spacing" textLength="100" x="219" y="647.7734">-getDate()</text><text fill="#000000" font-family="sans-serif" font-size="20" lengthAdjust="spacing" textLength="376" x="219" y="671.3281">-validateAdvertisement(advertisement)</text></g><!--class Advertisement--><g id="elem_Advertisement"><rect codeLine="30" fill="#F1F1F1" height="191.3281" id="Advertisement" rx="2.5" ry="2.5" style="stroke:#181818;stroke-width:0.5;" width="596" x="337.5" y="1198.5"/><ellipse cx="561.5" cy="1215.5" fill="#ADD1B2" rx="12" ry="12" style="stroke:#181818;stroke-width:1.0;"/><path d="M564.3066,1222.5801 Q563.623,1222.9316 562.8711,1223.1074 Q562.1191,1223.2832 561.2891,1223.2832 Q558.3398,1223.2832 556.7871,1221.3398 Q555.2344,1219.3965 555.2344,1215.7246 Q555.2344,1212.043 556.7871,1210.0996 Q558.3398,1208.1563 561.2891,1208.1563 Q562.1191,1208.1563 562.8809,1208.332 Q563.6426,1208.5078 564.3066,1208.8594 L564.3066,1212.0625 Q563.5645,1211.3789 562.8662,1211.0615 Q562.168,1210.7441 561.4258,1210.7441 Q559.8438,1210.7441 559.0381,1211.999 Q558.2324,1213.2539 558.2324,1215.7246 Q558.2324,1218.1855 559.0381,1219.4404 Q559.8438,1220.6953 561.4258,1220.6953 Q562.168,1220.6953 562.8662,1220.3779 Q563.5645,1220.0605 564.3066,1219.377 Z " fill="#000000"/><text fill="#000000" font-family="sans-serif" font-size="20" lengthAdjust="spacing" textLength="139" x="583.5" y="1223.0586">Advertisement</text><line style="stroke:#181818;stroke-width:0.5;" x1="338.5" x2="932.5" y1="1232.5" y2="1232.5"/><text fill="#000000" font-family="sans-serif" font-size="20" lengthAdjust="spacing" textLength="278" x="343.5" y="1255.8359">-String dateOfAdvertisement</text><text fill="#000000" font-family="sans-serif" font-size="20" lengthAdjust="spacing" textLength="167" x="343.5" y="1279.3906">-Request request</text><text fill="#000000" font-family="sans-serif" font-size="20" lengthAdjust="spacing" textLength="254" x="343.5" y="1302.9453">-Commission commission</text><text fill="#000000" font-family="sans-serif" font-size="20" lengthAdjust="spacing" textLength="459" x="343.5" y="1326.5">-ArrayList &lt;PurchaseOrder&gt; purchaseOrderList</text><line style="stroke:#181818;stroke-width:0.5;" x1="338.5" x2="932.5" y1="1334.7188" y2="1334.7188"/><text fill="#000000" font-family="sans-serif" font-size="20" lengthAdjust="spacing" textLength="584" x="343.5" y="1358.0547">+Advertisement(dateOfAdvertisement, request, commission,</text><text fill="#000000" font-family="sans-serif" font-size="20" lengthAdjust="spacing" textLength="184" x="343.5" y="1381.6094">purchaseOrderList)</text></g><!--class Request--><g id="elem_Request"><rect codeLine="37" fill="#F1F1F1" height="261.9922" id="Request" rx="2.5" ry="2.5" style="stroke:#181818;stroke-width:0.5;" width="478" x="396.5" y="1498"/><ellipse cx="592.5" cy="1515" fill="#ADD1B2" rx="12" ry="12" style="stroke:#181818;stroke-width:1.0;"/><path d="M595.3066,1522.0801 Q594.623,1522.4316 593.8711,1522.6074 Q593.1191,1522.7832 592.2891,1522.7832 Q589.3398,1522.7832 587.7871,1520.8398 Q586.2344,1518.8965 586.2344,1515.2246 Q586.2344,1511.543 587.7871,1509.5996 Q589.3398,1507.6563 592.2891,1507.6563 Q593.1191,1507.6563 593.8809,1507.832 Q594.6426,1508.0078 595.3066,1508.3594 L595.3066,1511.5625 Q594.5645,1510.8789 593.8662,1510.5615 Q593.168,1510.2441 592.4258,1510.2441 Q590.8438,1510.2441 590.0381,1511.499 Q589.2324,1512.7539 589.2324,1515.2246 Q589.2324,1517.6855 590.0381,1518.9404 Q590.8438,1520.1953 592.4258,1520.1953 Q593.168,1520.1953 593.8662,1519.8779 Q594.5645,1519.5605 595.3066,1518.877 Z " fill="#000000"/><text fill="#000000" font-family="sans-serif" font-size="20" lengthAdjust="spacing" textLength="77" x="614.5" y="1522.5586">Request</text><line style="stroke:#181818;stroke-width:0.5;" x1="397.5" x2="873.5" y1="1532" y2="1532"/><text fill="#000000" font-family="sans-serif" font-size="20" lengthAdjust="spacing" textLength="180" x="402.5" y="1555.3359">-Property property</text><text fill="#000000" font-family="sans-serif" font-size="20" lengthAdjust="spacing" textLength="126" x="402.5" y="1578.8906">-Client client</text><text fill="#000000" font-family="sans-serif" font-size="20" lengthAdjust="spacing" textLength="164" x="402.5" y="1602.4453">-Employee agent</text><text fill="#000000" font-family="sans-serif" font-size="20" lengthAdjust="spacing" textLength="216" x="402.5" y="1626">-String dateOfRequest</text><text fill="#000000" font-family="sans-serif" font-size="20" lengthAdjust="spacing" textLength="221" x="402.5" y="1649.5547">-String typeOfBusiness</text><text fill="#000000" font-family="sans-serif" font-size="20" lengthAdjust="spacing" textLength="122" x="402.5" y="1673.1094">-String price</text><text fill="#000000" font-family="sans-serif" font-size="20" lengthAdjust="spacing" textLength="131" x="402.5" y="1696.6641">-String status</text><line style="stroke:#181818;stroke-width:0.5;" x1="397.5" x2="873.5" y1="1704.8828" y2="1704.8828"/><text fill="#000000" font-family="sans-serif" font-size="20" lengthAdjust="spacing" textLength="466" x="402.5" y="1728.2188">+request(property, client, agent, dateOfRequest,</text><text fill="#000000" font-family="sans-serif" font-size="20" lengthAdjust="spacing" textLength="283" x="402.5" y="1751.7734">typeOfBusiness, price, status)</text></g><!--class Property--><g id="elem_Property"><rect codeLine="47" fill="#F1F1F1" height="191.3281" id="Property" rx="2.5" ry="2.5" style="stroke:#181818;stroke-width:0.5;" width="595" x="7" y="1821"/><ellipse cx="260" cy="1838" fill="#ADD1B2" rx="12" ry="12" style="stroke:#181818;stroke-width:1.0;"/><path d="M262.8066,1845.0801 Q262.123,1845.4316 261.3711,1845.6074 Q260.6191,1845.7832 259.7891,1845.7832 Q256.8398,1845.7832 255.2871,1843.8398 Q253.7344,1841.8965 253.7344,1838.2246 Q253.7344,1834.543 255.2871,1832.5996 Q256.8398,1830.6563 259.7891,1830.6563 Q260.6191,1830.6563 261.3809,1830.832 Q262.1426,1831.0078 262.8066,1831.3594 L262.8066,1834.5625 Q262.0645,1833.8789 261.3662,1833.5615 Q260.668,1833.2441 259.9258,1833.2441 Q258.3438,1833.2441 257.5381,1834.499 Q256.7324,1835.7539 256.7324,1838.2246 Q256.7324,1840.6855 257.5381,1841.9404 Q258.3438,1843.1953 259.9258,1843.1953 Q260.668,1843.1953 261.3662,1842.8779 Q262.0645,1842.5605 262.8066,1841.877 Z " fill="#000000"/><text fill="#000000" font-family="sans-serif" font-size="20" lengthAdjust="spacing" textLength="80" x="282" y="1845.5586">Property</text><line style="stroke:#181818;stroke-width:0.5;" x1="8" x2="601" y1="1855" y2="1855"/><text fill="#000000" font-family="sans-serif" font-size="20" lengthAdjust="spacing" textLength="217" x="13" y="1878.3359">-PropertyInfo property</text><text fill="#000000" font-family="sans-serif" font-size="20" lengthAdjust="spacing" textLength="244" x="13" y="1901.8906">-ResidenceInfo residence</text><text fill="#000000" font-family="sans-serif" font-size="20" lengthAdjust="spacing" textLength="189" x="13" y="1925.4453">-boolean basement</text><text fill="#000000" font-family="sans-serif" font-size="20" lengthAdjust="spacing" textLength="127" x="13" y="1949">-boolean loft</text><text fill="#000000" font-family="sans-serif" font-size="20" lengthAdjust="spacing" textLength="197" x="13" y="1972.5547">-String sunExposure</text><line style="stroke:#181818;stroke-width:0.5;" x1="8" x2="601" y1="1980.7734" y2="1980.7734"/><text fill="#000000" font-family="sans-serif" font-size="20" lengthAdjust="spacing" textLength="583" x="13" y="2004.1094">+property(property, residence, basement, loft, sunExposure)</text></g><!--class AdvertisementRepository--><g id="elem_AdvertisementRepository"><rect codeLine="55" fill="#F1F1F1" height="97.1094" id="AdvertisementRepository" rx="2.5" ry="2.5" style="stroke:#181818;stroke-width:0.5;" width="388" x="545.5" y="993"/><ellipse cx="614.5" cy="1010" fill="#ADD1B2" rx="12" ry="12" style="stroke:#181818;stroke-width:1.0;"/><path d="M617.3066,1017.0801 Q616.623,1017.4316 615.8711,1017.6074 Q615.1191,1017.7832 614.2891,1017.7832 Q611.3398,1017.7832 609.7871,1015.8398 Q608.2344,1013.8965 608.2344,1010.2246 Q608.2344,1006.543 609.7871,1004.5996 Q611.3398,1002.6563 614.2891,1002.6563 Q615.1191,1002.6563 615.8809,1002.832 Q616.6426,1003.0078 617.3066,1003.3594 L617.3066,1006.5625 Q616.5645,1005.8789 615.8662,1005.5615 Q615.168,1005.2441 614.4258,1005.2441 Q612.8438,1005.2441 612.0381,1006.499 Q611.2324,1007.7539 611.2324,1010.2246 Q611.2324,1012.6855 612.0381,1013.9404 Q612.8438,1015.1953 614.4258,1015.1953 Q615.168,1015.1953 615.8662,1014.8779 Q616.5645,1014.5605 617.3066,1013.877 Z " fill="#000000"/><text fill="#000000" font-family="sans-serif" font-size="20" lengthAdjust="spacing" textLength="241" x="636.5" y="1017.5586">AdvertisementRepository</text><line style="stroke:#181818;stroke-width:0.5;" x1="546.5" x2="932.5" y1="1027" y2="1027"/><text fill="#000000" font-family="sans-serif" font-size="20" lengthAdjust="spacing" textLength="375" x="551.5" y="1050.3359">-List &lt;Advertisement&gt; advertisements</text><line style="stroke:#181818;stroke-width:0.5;" x1="546.5" x2="932.5" y1="1058.5547" y2="1058.5547"/><text fill="#000000" font-family="sans-serif" font-size="20" lengthAdjust="spacing" textLength="376" x="551.5" y="1081.8906">+setPurchaseOrderStatus(String status)</text></g><!--class EmployeeRepository--><g id="elem_EmployeeRepository"><rect codeLine="59" fill="#F1F1F1" height="73.5547" id="EmployeeRepository" rx="2.5" ry="2.5" style="stroke:#181818;stroke-width:0.5;" width="240" x="1168.5" y="1004.5"/><ellipse cx="1189.45" cy="1021.5" fill="#ADD1B2" rx="12" ry="12" style="stroke:#181818;stroke-width:1.0;"/><path d="M1192.2566,1028.5801 Q1191.573,1028.9316 1190.8211,1029.1074 Q1190.0691,1029.2832 1189.2391,1029.2832 Q1186.2898,1029.2832 1184.7371,1027.3398 Q1183.1844,1025.3965 1183.1844,1021.7246 Q1183.1844,1018.043 1184.7371,1016.0996 Q1186.2898,1014.1563 1189.2391,1014.1563 Q1190.0691,1014.1563 1190.8309,1014.332 Q1191.5926,1014.5078 1192.2566,1014.8594 L1192.2566,1018.0625 Q1191.5145,1017.3789 1190.8162,1017.0615 Q1190.118,1016.7441 1189.3758,1016.7441 Q1187.7938,1016.7441 1186.9881,1017.999 Q1186.1824,1019.2539 1186.1824,1021.7246 Q1186.1824,1024.1855 1186.9881,1025.4404 Q1187.7938,1026.6953 1189.3758,1026.6953 Q1190.118,1026.6953 1190.8162,1026.3779 Q1191.5145,1026.0605 1192.2566,1025.377 Z " fill="#000000"/><text fill="#000000" font-family="sans-serif" font-size="20" lengthAdjust="spacing" textLength="195" x="1205.55" y="1029.0586">EmployeeRepository</text><line style="stroke:#181818;stroke-width:0.5;" x1="1169.5" x2="1407.5" y1="1038.5" y2="1038.5"/><line style="stroke:#181818;stroke-width:0.5;" x1="1169.5" x2="1407.5" y1="1046.5" y2="1046.5"/><text fill="#000000" font-family="sans-serif" font-size="20" lengthAdjust="spacing" textLength="228" x="1174.5" y="1069.8359">+getEmployeeByEmail()</text></g><!--class ClientRepository--><g id="elem_ClientRepository"><rect codeLine="62" fill="#F1F1F1" height="73.5547" id="ClientRepository" rx="2.5" ry="2.5" style="stroke:#181818;stroke-width:0.5;" width="192" x="1912.5" y="1004.5"/><ellipse cx="1928.5" cy="1021.5" fill="#ADD1B2" rx="12" ry="12" style="stroke:#181818;stroke-width:1.0;"/><path d="M1931.3066,1028.5801 Q1930.623,1028.9316 1929.8711,1029.1074 Q1929.1191,1029.2832 1928.2891,1029.2832 Q1925.3398,1029.2832 1923.7871,1027.3398 Q1922.2344,1025.3965 1922.2344,1021.7246 Q1922.2344,1018.043 1923.7871,1016.0996 Q1925.3398,1014.1563 1928.2891,1014.1563 Q1929.1191,1014.1563 1929.8809,1014.332 Q1930.6426,1014.5078 1931.3066,1014.8594 L1931.3066,1018.0625 Q1930.5645,1017.3789 1929.8662,1017.0615 Q1929.168,1016.7441 1928.4258,1016.7441 Q1926.8438,1016.7441 1926.0381,1017.999 Q1925.2324,1019.2539 1925.2324,1021.7246 Q1925.2324,1024.1855 1926.0381,1025.4404 Q1926.8438,1026.6953 1928.4258,1026.6953 Q1929.168,1026.6953 1929.8662,1026.3779 Q1930.5645,1026.0605 1931.3066,1025.377 Z " fill="#000000"/><text fill="#000000" font-family="sans-serif" font-size="20" lengthAdjust="spacing" textLength="158" x="1943.5" y="1029.0586">ClientRepository</text><line style="stroke:#181818;stroke-width:0.5;" x1="1913.5" x2="2103.5" y1="1038.5" y2="1038.5"/><line style="stroke:#181818;stroke-width:0.5;" x1="1913.5" x2="2103.5" y1="1046.5" y2="1046.5"/><text fill="#000000" font-family="sans-serif" font-size="20" lengthAdjust="spacing" textLength="123" x="1918.5" y="1069.8359">+addClient()</text></g><!--class AuthenticationRepository--><g id="elem_AuthenticationRepository"><rect codeLine="65" fill="#F1F1F1" height="97.1094" id="AuthenticationRepository" rx="2.5" ry="2.5" style="stroke:#181818;stroke-width:0.5;" width="275" x="1531" y="788"/><ellipse cx="1547" cy="805" fill="#ADD1B2" rx="12" ry="12" style="stroke:#181818;stroke-width:1.0;"/><path d="M1549.8066,812.0801 Q1549.123,812.4316 1548.3711,812.6074 Q1547.6191,812.7832 1546.7891,812.7832 Q1543.8398,812.7832 1542.2871,810.8398 Q1540.7344,808.8965 1540.7344,805.2246 Q1540.7344,801.543 1542.2871,799.5996 Q1543.8398,797.6563 1546.7891,797.6563 Q1547.6191,797.6563 1548.3809,797.832 Q1549.1426,798.0078 1549.8066,798.3594 L1549.8066,801.5625 Q1549.0645,800.8789 1548.3662,800.5615 Q1547.668,800.2441 1546.9258,800.2441 Q1545.3438,800.2441 1544.5381,801.499 Q1543.7324,802.7539 1543.7324,805.2246 Q1543.7324,807.6855 1544.5381,808.9404 Q1545.3438,810.1953 1546.9258,810.1953 Q1547.668,810.1953 1548.3662,809.8779 Q1549.0645,809.5605 1549.8066,808.877 Z " fill="#000000"/><text fill="#000000" font-family="sans-serif" font-size="20" lengthAdjust="spacing" textLength="241" x="1562" y="812.5586">AuthenticationRepository</text><line style="stroke:#181818;stroke-width:0.5;" x1="1532" x2="1805" y1="822" y2="822"/><line style="stroke:#181818;stroke-width:0.5;" x1="1532" x2="1805" y1="830" y2="830"/><text fill="#000000" font-family="sans-serif" font-size="20" lengthAdjust="spacing" textLength="247" x="1537" y="853.3359">+getCurrentUserSession()</text><text fill="#000000" font-family="sans-serif" font-size="20" lengthAdjust="spacing" textLength="194" x="1537" y="876.8906">+addUserWithRole()</text></g><!--class ManageEmployeeRepository--><g id="elem_ManageEmployeeRepository"><rect codeLine="69" fill="#F1F1F1" height="73.5547" id="ManageEmployeeRepository" rx="2.5" ry="2.5" style="stroke:#181818;stroke-width:0.5;" width="303" x="1071" y="500"/><ellipse cx="1087" cy="517" fill="#ADD1B2" rx="12" ry="12" style="stroke:#181818;stroke-width:1.0;"/><path d="M1089.8066,524.0801 Q1089.123,524.4316 1088.3711,524.6074 Q1087.6191,524.7832 1086.7891,524.7832 Q1083.8398,524.7832 1082.2871,522.8398 Q1080.7344,520.8965 1080.7344,517.2246 Q1080.7344,513.543 1082.2871,511.5996 Q1083.8398,509.6563 1086.7891,509.6563 Q1087.6191,509.6563 1088.3809,509.832 Q1089.1426,510.0078 1089.8066,510.3594 L1089.8066,513.5625 Q1089.0645,512.8789 1088.3662,512.5615 Q1087.668,512.2441 1086.9258,512.2441 Q1085.3438,512.2441 1084.5381,513.499 Q1083.7324,514.7539 1083.7324,517.2246 Q1083.7324,519.6855 1084.5381,520.9404 Q1085.3438,522.1953 1086.9258,522.1953 Q1087.668,522.1953 1088.3662,521.8779 Q1089.0645,521.5605 1089.8066,520.877 Z " fill="#000000"/><text fill="#000000" font-family="sans-serif" font-size="20" lengthAdjust="spacing" textLength="269" x="1102" y="524.5586">ManageEmployeeRepository</text><line style="stroke:#181818;stroke-width:0.5;" x1="1072" x2="1373" y1="534" y2="534"/><line style="stroke:#181818;stroke-width:0.5;" x1="1072" x2="1373" y1="542" y2="542"/><text fill="#000000" font-family="sans-serif" font-size="20" lengthAdjust="spacing" textLength="228" x="1077" y="565.3359">+getEmployeeByEmail()</text></g><!--class ManageClientRepository--><g id="elem_ManageClientRepository"><rect codeLine="72" fill="#F1F1F1" height="73.5547" id="ManageClientRepository" rx="2.5" ry="2.5" style="stroke:#181818;stroke-width:0.5;" width="266" x="1780.5" y="500"/><ellipse cx="1796.5" cy="517" fill="#ADD1B2" rx="12" ry="12" style="stroke:#181818;stroke-width:1.0;"/><path d="M1799.3066,524.0801 Q1798.623,524.4316 1797.8711,524.6074 Q1797.1191,524.7832 1796.2891,524.7832 Q1793.3398,524.7832 1791.7871,522.8398 Q1790.2344,520.8965 1790.2344,517.2246 Q1790.2344,513.543 1791.7871,511.5996 Q1793.3398,509.6563 1796.2891,509.6563 Q1797.1191,509.6563 1797.8809,509.832 Q1798.6426,510.0078 1799.3066,510.3594 L1799.3066,513.5625 Q1798.5645,512.8789 1797.8662,512.5615 Q1797.168,512.2441 1796.4258,512.2441 Q1794.8438,512.2441 1794.0381,513.499 Q1793.2324,514.7539 1793.2324,517.2246 Q1793.2324,519.6855 1794.0381,520.9404 Q1794.8438,522.1953 1796.4258,522.1953 Q1797.168,522.1953 1797.8662,521.8779 Q1798.5645,521.5605 1799.3066,520.877 Z " fill="#000000"/><text fill="#000000" font-family="sans-serif" font-size="20" lengthAdjust="spacing" textLength="232" x="1811.5" y="524.5586">ManageClientRepository</text><line style="stroke:#181818;stroke-width:0.5;" x1="1781.5" x2="2045.5" y1="534" y2="534"/><line style="stroke:#181818;stroke-width:0.5;" x1="1781.5" x2="2045.5" y1="542" y2="542"/><text fill="#000000" font-family="sans-serif" font-size="20" lengthAdjust="spacing" textLength="175" x="1786.5" y="565.3359">+addClient(client)</text></g><!--class UserSession--><g id="elem_UserSession"><rect codeLine="75" fill="#F1F1F1" height="73.5547" id="UserSession" rx="2.5" ry="2.5" style="stroke:#181818;stroke-width:0.5;" width="149" x="1596" y="500"/><ellipse cx="1612" cy="517" fill="#ADD1B2" rx="12" ry="12" style="stroke:#181818;stroke-width:1.0;"/><path d="M1614.8066,524.0801 Q1614.123,524.4316 1613.3711,524.6074 Q1612.6191,524.7832 1611.7891,524.7832 Q1608.8398,524.7832 1607.2871,522.8398 Q1605.7344,520.8965 1605.7344,517.2246 Q1605.7344,513.543 1607.2871,511.5996 Q1608.8398,509.6563 1611.7891,509.6563 Q1612.6191,509.6563 1613.3809,509.832 Q1614.1426,510.0078 1614.8066,510.3594 L1614.8066,513.5625 Q1614.0645,512.8789 1613.3662,512.5615 Q1612.668,512.2441 1611.9258,512.2441 Q1610.3438,512.2441 1609.5381,513.499 Q1608.7324,514.7539 1608.7324,517.2246 Q1608.7324,519.6855 1609.5381,520.9404 Q1610.3438,522.1953 1611.9258,522.1953 Q1612.668,522.1953 1613.3662,521.8779 Q1614.0645,521.5605 1614.8066,520.877 Z " fill="#000000"/><text fill="#000000" font-family="sans-serif" font-size="20" lengthAdjust="spacing" textLength="115" x="1627" y="524.5586">UserSession</text><line style="stroke:#181818;stroke-width:0.5;" x1="1597" x2="1744" y1="534" y2="534"/><line style="stroke:#181818;stroke-width:0.5;" x1="1597" x2="1744" y1="542" y2="542"/><text fill="#000000" font-family="sans-serif" font-size="20" lengthAdjust="spacing" textLength="122" x="1602" y="565.3359">+getUserId()</text></g><!--class Employee--><g id="elem_Employee"><rect codeLine="78" fill="#F1F1F1" height="285.5469" id="Employee" rx="2.5" ry="2.5" style="stroke:#181818;stroke-width:0.5;" width="539" x="1040" y="1151"/><ellipse cx="1258.5" cy="1168" fill="#ADD1B2" rx="12" ry="12" style="stroke:#181818;stroke-width:1.0;"/><path d="M1261.3066,1175.0801 Q1260.623,1175.4316 1259.8711,1175.6074 Q1259.1191,1175.7832 1258.2891,1175.7832 Q1255.3398,1175.7832 1253.7871,1173.8398 Q1252.2344,1171.8965 1252.2344,1168.2246 Q1252.2344,1164.543 1253.7871,1162.5996 Q1255.3398,1160.6563 1258.2891,1160.6563 Q1259.1191,1160.6563 1259.8809,1160.832 Q1260.6426,1161.0078 1261.3066,1161.3594 L1261.3066,1164.5625 Q1260.5645,1163.8789 1259.8662,1163.5615 Q1259.168,1163.2441 1258.4258,1163.2441 Q1256.8438,1163.2441 1256.0381,1164.499 Q1255.2324,1165.7539 1255.2324,1168.2246 Q1255.2324,1170.6855 1256.0381,1171.9404 Q1256.8438,1173.1953 1258.4258,1173.1953 Q1259.168,1173.1953 1259.8662,1172.8779 Q1260.5645,1172.5605 1261.3066,1171.877 Z " fill="#000000"/><text fill="#000000" font-family="sans-serif" font-size="20" lengthAdjust="spacing" textLength="93" x="1280.5" y="1175.5586">Employee</text><line style="stroke:#181818;stroke-width:0.5;" x1="1041" x2="1578" y1="1185" y2="1185"/><text fill="#000000" font-family="sans-serif" font-size="20" lengthAdjust="spacing" textLength="127" x="1046" y="1208.3359">-String name</text><text fill="#000000" font-family="sans-serif" font-size="20" lengthAdjust="spacing" textLength="247" x="1046" y="1231.8906">-String telephoneNumber</text><text fill="#000000" font-family="sans-serif" font-size="20" lengthAdjust="spacing" textLength="124" x="1046" y="1255.4453">-Email email</text><text fill="#000000" font-family="sans-serif" font-size="20" lengthAdjust="spacing" textLength="354" x="1046" y="1279">-PassportCard passportCardNumber</text><text fill="#000000" font-family="sans-serif" font-size="20" lengthAdjust="spacing" textLength="303" x="1046" y="1302.5547">-SocialSecurityCard taxNumber</text><text fill="#000000" font-family="sans-serif" font-size="20" lengthAdjust="spacing" textLength="173" x="1046" y="1326.1094">-Address address</text><text fill="#000000" font-family="sans-serif" font-size="20" lengthAdjust="spacing" textLength="115" x="1046" y="1349.6641">-Store store</text><text fill="#000000" font-family="sans-serif" font-size="20" lengthAdjust="spacing" textLength="97" x="1046" y="1373.2188">-Role role</text><line style="stroke:#181818;stroke-width:0.5;" x1="1041" x2="1578" y1="1381.4375" y2="1381.4375"/><text fill="#000000" font-family="sans-serif" font-size="20" lengthAdjust="spacing" textLength="515" x="1046" y="1404.7734">+Employee(name, passportCardNumber, taxNumber,</text><text fill="#000000" font-family="sans-serif" font-size="20" lengthAdjust="spacing" textLength="521" x="1052" y="1428.3281">address, emailAddress, telephoneNumber, store, role)</text></g><!--class Client--><g id="elem_Client"><rect codeLine="89" fill="#F1F1F1" height="238.4375" id="Client" rx="2.5" ry="2.5" style="stroke:#181818;stroke-width:0.5;" width="527" x="1662" y="1175"/><ellipse cx="1893" cy="1192" fill="#ADD1B2" rx="12" ry="12" style="stroke:#181818;stroke-width:1.0;"/><path d="M1895.8066,1199.0801 Q1895.123,1199.4316 1894.3711,1199.6074 Q1893.6191,1199.7832 1892.7891,1199.7832 Q1889.8398,1199.7832 1888.2871,1197.8398 Q1886.7344,1195.8965 1886.7344,1192.2246 Q1886.7344,1188.543 1888.2871,1186.5996 Q1889.8398,1184.6563 1892.7891,1184.6563 Q1893.6191,1184.6563 1894.3809,1184.832 Q1895.1426,1185.0078 1895.8066,1185.3594 L1895.8066,1188.5625 Q1895.0645,1187.8789 1894.3662,1187.5615 Q1893.668,1187.2441 1892.9258,1187.2441 Q1891.3438,1187.2441 1890.5381,1188.499 Q1889.7324,1189.7539 1889.7324,1192.2246 Q1889.7324,1194.6855 1890.5381,1195.9404 Q1891.3438,1197.1953 1892.9258,1197.1953 Q1893.668,1197.1953 1894.3662,1196.8779 Q1895.0645,1196.5605 1895.8066,1195.877 Z " fill="#000000"/><text fill="#000000" font-family="sans-serif" font-size="20" lengthAdjust="spacing" textLength="56" x="1915" y="1199.5586">Client</text><line style="stroke:#181818;stroke-width:0.5;" x1="1663" x2="2188" y1="1209" y2="1209"/><text fill="#000000" font-family="sans-serif" font-size="20" lengthAdjust="spacing" textLength="127" x="1668" y="1232.3359">-String name</text><text fill="#000000" font-family="sans-serif" font-size="20" lengthAdjust="spacing" textLength="247" x="1668" y="1255.8906">-String telephoneNumber</text><text fill="#000000" font-family="sans-serif" font-size="20" lengthAdjust="spacing" textLength="124" x="1668" y="1279.4453">-Email email</text><text fill="#000000" font-family="sans-serif" font-size="20" lengthAdjust="spacing" textLength="354" x="1668" y="1303">-PassportCard passportCardNumber</text><text fill="#000000" font-family="sans-serif" font-size="20" lengthAdjust="spacing" textLength="303" x="1668" y="1326.5547">-SocialSecurityCard taxNumber</text><text fill="#000000" font-family="sans-serif" font-size="20" lengthAdjust="spacing" textLength="173" x="1668" y="1350.1094">-Address address</text><line style="stroke:#181818;stroke-width:0.5;" x1="1663" x2="2188" y1="1358.3281" y2="1358.3281"/><text fill="#000000" font-family="sans-serif" font-size="20" lengthAdjust="spacing" textLength="515" x="1668" y="1381.6641">+Employee(name, passportCardNumber, taxNumber,</text><text fill="#000000" font-family="sans-serif" font-size="20" lengthAdjust="spacing" textLength="412" x="1674" y="1405.2188">address, emailAddress, telephoneNumber)</text></g><!--class stupid--><!--link MakeAdvertisementUI to MakeAdvertisementController--><g id="link_MakeAdvertisementUI_MakeAdvertisementController"><path codeLine="101" d="M1388.5,57.25 C1388.5,71.88 1388.5,91.68 1388.5,112.54 " fill="none" id="MakeAdvertisementUI-to-MakeAdvertisementController" style="stroke:#181818;stroke-width:1.0;"/><polygon fill="#181818" points="1388.5,117.58,1392.5,108.58,1388.5,112.58,1384.5,108.58,1388.5,117.58" style="stroke:#181818;stroke-width:1.0;"/></g><!--link MakeAdvertisementController to UserSession--><g id="link_MakeAdvertisementController_UserSession"><path codeLine="103" d="M1503.01,333.05 C1538.51,366.09 1568.5,394 1568.5,394 C1568.5,394 1611.29,453.57 1641.44,495.54 " fill="none" id="MakeAdvertisementController-to-UserSession" style="stroke:#181818;stroke-width:1.0;stroke-dasharray:7.0,7.0;"/><polygon fill="#181818" points="1644.5,499.8,1642.4981,490.1567,1641.583,495.7391,1636.0007,494.8239,1644.5,499.8" style="stroke:#181818;stroke-width:1.0;"/></g><!--link MakeAdvertisementController to stupid--><!--link stupid to Repositories--><!--link MakeAdvertisementController to Repositories--><g id="link_MakeAdvertisementController_Repositories"><path codeLine="106" d="M1390.41,333.05 C1391,366.09 1391.5,394 1391.5,394 C1391.5,394 1391.5,680 1391.5,680 C1391.5,680 1363.71,706.03 1330.87,736.79 " fill="none" id="MakeAdvertisementController-to-Repositories" style="stroke:#181818;stroke-width:1.0;stroke-dasharray:7.0,7.0;"/><polygon fill="#181818" points="1326.84,740.57,1336.142,737.3339,1330.4881,737.1508,1330.6713,731.4969,1326.84,740.57" style="stroke:#181818;stroke-width:1.0;"/><text fill="#000000" font-family="sans-serif" font-size="20" lengthAdjust="spacing" textLength="114" x="1392.5" y="544.8359">repositories</text></g><!--link MakeAdvertisementController to ManageAdvertisementRepository--><g id="link_MakeAdvertisementController_ManageAdvertisementRepository"><path codeLine="107" d="M1092.69,333.05 C1000.98,366.09 923.5,394 923.5,394 C923.5,394 919.06,395.73 911.17,398.81 " fill="none" id="MakeAdvertisementController-to-ManageAdvertisementRepository" style="stroke:#181818;stroke-width:1.0;stroke-dasharray:7.0,7.0;"/><polygon fill="#181818" points="906.43,400.66,916.2693,401.094,911.0841,398.8326,913.3455,393.6474,906.43,400.66" style="stroke:#181818;stroke-width:1.0;"/></g><!--link MakeAdvertisementController to ManageClientRepository--><g id="link_MakeAdvertisementController_ManageClientRepository"><path codeLine="108" d="M1626.42,333.05 C1700.18,366.09 1762.5,394 1762.5,394 C1762.5,394 1826.61,454.29 1871.29,496.3 " fill="none" id="MakeAdvertisementController-to-ManageClientRepository" style="stroke:#181818;stroke-width:1.0;stroke-dasharray:7.0,7.0;"/><polygon fill="#181818" points="1875.01,499.8,1871.1977,490.7189,1871.369,496.3732,1865.7147,496.5445,1875.01,499.8" style="stroke:#181818;stroke-width:1.0;"/></g><!--link MakeAdvertisementController to ManageEmployeeRepository--><g id="link_MakeAdvertisementController_ManageEmployeeRepository"><path codeLine="109" d="M1331.37,333.01 C1301.39,388.91 1266.41,454.14 1244.35,495.26 " fill="none" id="MakeAdvertisementController-to-ManageEmployeeRepository" style="stroke:#181818;stroke-width:1.0;stroke-dasharray:7.0,7.0;"/><polygon fill="#181818" points="1241.86,499.9,1249.6278,493.8451,1244.2152,495.4894,1242.5708,490.0768,1241.86,499.9" style="stroke:#181818;stroke-width:1.0;"/></g><!--link ManageAdvertisementRepository to Repositories--><g id="link_ManageAdvertisementRepository_Repositories"><path codeLine="111" d="M906.43,673.34 C917.27,677.57 923.5,680 923.5,680 C923.5,680 1012.5,710 1012.5,710 C1012.5,710 1034.46,722.94 1064.29,740.51 " fill="none" id="ManageAdvertisementRepository-to-Repositories" style="stroke:#181818;stroke-width:1.0;stroke-dasharray:7.0,7.0;"/><polygon fill="#181818" points="1068.74,743.14,1062.9979,735.1382,1064.4263,740.6118,1058.9527,742.0401,1068.74,743.14" style="stroke:#181818;stroke-width:1.0;"/></g><!--link ManageEmployeeRepository to Repositories--><g id="link_ManageEmployeeRepository_Repositories"><path codeLine="112" d="M1222.86,574.18 C1223.27,614.09 1223.93,680.03 1224.49,735.69 " fill="none" id="ManageEmployeeRepository-to-Repositories" style="stroke:#181818;stroke-width:1.0;stroke-dasharray:7.0,7.0;"/><polygon fill="#181818" points="1224.54,740.7,1228.4369,731.6549,1224.4829,735.7003,1220.4374,731.7463,1224.54,740.7" style="stroke:#181818;stroke-width:1.0;"/></g><!--link Repositories to AdvertisementRepository--><g id="link_Repositories_AdvertisementRepository"><path codeLine="114" d="M1068.72,902.99 C1000.45,931.5 921.75,964.37 858.42,990.83 " fill="none" id="Repositories-to-AdvertisementRepository" style="stroke:#181818;stroke-width:1.0;"/><polygon fill="#181818" points="853.5,992.88,863.3464,993.1,858.1133,990.9519,860.2614,985.7187,853.5,992.88" style="stroke:#181818;stroke-width:1.0;"/></g><!--link Repositories to EmployeeRepository--><g id="link_Repositories_EmployeeRepository"><path codeLine="115" d="M1254.88,932.17 C1262.21,955.8 1269.7,979.93 1275.74,999.39 " fill="none" id="Repositories-to-EmployeeRepository" style="stroke:#181818;stroke-width:1.0;"/><polygon fill="#181818" points="1277.25,1004.24,1278.4284,994.4619,1275.7806,999.4608,1270.7817,996.813,1277.25,1004.24" style="stroke:#181818;stroke-width:1.0;"/></g><!--link Repositories to ClientRepository--><g id="link_Repositories_ClientRepository"><path codeLine="116" d="M1382.14,888.9 C1449.69,911.06 1513.5,932 1513.5,932 C1513.5,932 1762.58,986.6 1907.37,1018.33 " fill="none" id="Repositories-to-ClientRepository" style="stroke:#181818;stroke-width:1.0;"/><polygon fill="#181818" points="1912.47,1019.45,1904.5357,1013.615,1907.5861,1018.379,1902.8221,1021.4293,1912.47,1019.45" style="stroke:#181818;stroke-width:1.0;"/></g><!--link Repositories to Repositories--><g id="link_Repositories_Repositories"><path codeLine="117" d="M1382.16,815.6 C1403.09,819.14 1417,826.1 1417,836.5 C1417,846 1405.38,852.64 1387.39,856.41 " fill="none" id="Repositories-to-Repositories" style="stroke:#181818;stroke-width:1.0;"/><polygon fill="#181818" points="1382.16,857.4,1391.7462,859.6594,1387.0731,856.4717,1390.2608,851.7985,1382.16,857.4" style="stroke:#181818;stroke-width:1.0;"/><text fill="#000000" font-family="sans-serif" font-size="20" lengthAdjust="spacing" textLength="79" x="1423" y="844.3359">instance</text></g><!--link Repositories to AuthenticationRepository--><g id="link_Repositories_AuthenticationRepository"><path codeLine="118" d="M1382.4,836.5 C1414.73,836.5 1520.83,836.5 1520.83,836.5 C1520.83,836.5 1522.62,836.5 1525.81,836.5 " fill="none" id="Repositories-to-AuthenticationRepository" style="stroke:#181818;stroke-width:1.0;"/><polygon fill="#181818" points="1530.98,836.5,1521.98,832.5,1525.98,836.5,1521.98,840.5,1530.98,836.5" style="stroke:#181818;stroke-width:1.0;"/></g><!--reverse link UserSession to AuthenticationRepository--><g id="link_UserSession_AuthenticationRepository"><path codeLine="120" d="M1670.22,579.34 C1669.85,634 1669.21,730.12 1668.82,787.8 " fill="none" id="UserSession-backto-AuthenticationRepository" style="stroke:#181818;stroke-width:1.0;"/><polygon fill="#181818" points="1670.26,574.18,1666.2086,583.157,1670.2314,579.1799,1674.2085,583.2027,1670.26,574.18" style="stroke:#181818;stroke-width:1.0;"/></g><!--reverse link ManageClientRepository to AuthenticationRepository--><g id="link_ManageClientRepository_AuthenticationRepository"><path codeLine="121" d="M1880.27,578.35 C1835.4,632.84 1755.57,729.77 1707.78,787.8 " fill="none" id="ManageClientRepository-backto-AuthenticationRepository" style="stroke:#181818;stroke-width:1.0;stroke-dasharray:7.0,7.0;"/><polygon fill="#181818" points="1883.7,574.18,1874.9024,578.6074,1880.5315,578.0479,1881.091,583.677,1883.7,574.18" style="stroke:#181818;stroke-width:1.0;"/></g><!--link ManageClientRepository to ClientRepository--><g id="link_ManageClientRepository_ClientRepository"><path codeLine="122" d="M1920.33,574.14 C1937.53,665.11 1982.54,903.17 2000.72,999.33 " fill="none" id="ManageClientRepository-to-ClientRepository" style="stroke:#181818;stroke-width:1.0;"/><polygon fill="#181818" points="2001.67,1004.35,2003.9294,994.7638,2000.7417,999.4369,1996.0685,996.2492,2001.67,1004.35" style="stroke:#181818;stroke-width:1.0;"/></g><!--link ManageClientRepository to Client--><g id="link_ManageClientRepository_Client"><path codeLine="123" d="M1912.07,574.08 C1907.82,681.7 1895.5,993 1895.5,993 C1895.5,993 1895.5,1090 1895.5,1090 C1895.5,1090 1901.02,1127.32 1907.32,1169.96 " fill="none" id="ManageClientRepository-to-Client" style="stroke:#181818;stroke-width:1.0;stroke-dasharray:7.0,7.0;"/><polygon fill="#181818" points="1908.05,1174.91,1910.6948,1165.4229,1907.3209,1169.9634,1902.7803,1166.5895,1908.05,1174.91" style="stroke:#181818;stroke-width:1.0;"/></g><!--link EmployeeRepository to Employee--><g id="link_EmployeeRepository_Employee"><path codeLine="125" d="M1291.53,1078.66 C1293.08,1097.08 1295.07,1120.82 1297.16,1145.77 " fill="none" id="EmployeeRepository-to-Employee" style="stroke:#181818;stroke-width:1.0;"/><polygon fill="#181818" points="1297.58,1150.78,1300.8188,1141.4789,1297.1648,1145.7973,1292.8464,1142.1433,1297.58,1150.78" style="stroke:#181818;stroke-width:1.0;"/></g><!--link ClientRepository to Client--><g id="link_ClientRepository_Client"><path codeLine="126" d="M1996.52,1078.66 C1988.48,1102.94 1977.36,1136.47 1966.32,1169.82 " fill="none" id="ClientRepository-to-Client" style="stroke:#181818;stroke-width:1.0;"/><polygon fill="#181818" points="1964.69,1174.73,1971.3176,1167.4448,1966.2626,1169.9837,1963.7236,1164.9287,1964.69,1174.73" style="stroke:#181818;stroke-width:1.0;"/></g><!--link AdvertisementRepository to Advertisement--><g id="link_AdvertisementRepository_Advertisement"><path codeLine="128" d="M719.69,1090.21 C707.57,1119.42 691.59,1157.9 676.81,1193.49 " fill="none" id="AdvertisementRepository-to-Advertisement" style="stroke:#181818;stroke-width:1.0;"/><polygon fill="#181818" points="674.83,1198.26,681.9838,1191.4908,676.7531,1193.6446,674.5992,1188.4138,674.83,1198.26" style="stroke:#181818;stroke-width:1.0;"/></g><!--link Advertisement to Request--><g id="link_Advertisement_Request"><path codeLine="129" d="M635.5,1389.53 C635.5,1421.61 635.5,1458.09 635.5,1492.71 " fill="none" id="Advertisement-to-Request" style="stroke:#181818;stroke-width:1.0;"/><polygon fill="#181818" points="635.5,1497.8,639.5,1488.8,635.5,1492.8,631.5,1488.8,635.5,1497.8" style="stroke:#181818;stroke-width:1.0;"/></g><!--link Request to Property--><g id="link_Request_Property"><path codeLine="130" d="M484.53,1760.22 C462.22,1779.46 439.55,1799.01 418.17,1817.46 " fill="none" id="Request-to-Property" style="stroke:#181818;stroke-width:1.0;"/><polygon fill="#181818" points="414.19,1820.89,423.6212,1818.0523,417.9802,1817.629,418.4036,1811.988,414.19,1820.89" style="stroke:#181818;stroke-width:1.0;"/></g><!--link ManageAdvertisementRepository to AdvertisementRepository--><g id="link_ManageAdvertisementRepository_AdvertisementRepository"><path codeLine="132" d="M610.48,680.32 C647.23,782.9 694.74,915.54 720.63,987.82 " fill="none" id="ManageAdvertisementRepository-to-AdvertisementRepository" style="stroke:#181818;stroke-width:1.0;stroke-dasharray:7.0,7.0;"/><polygon fill="#181818" points="722.46,992.92,723.1962,983.0987,720.7765,988.2119,715.6633,985.7923,722.46,992.92" style="stroke:#181818;stroke-width:1.0;"/></g><!--link ManageAdvertisementRepository to Advertisement--><g id="link_ManageAdvertisementRepository_Advertisement"><path codeLine="133" d="M549.51,680.09 C540.12,813.6 527.5,993 527.5,993 C527.5,993 527.5,1090 527.5,1090 C527.5,1090 555.28,1142.21 582.66,1193.68 " fill="none" id="ManageAdvertisementRepository-to-Advertisement" style="stroke:#181818;stroke-width:1.0;"/><polygon fill="#181818" points="585.14,1198.33,584.4539,1188.5051,582.796,1193.9135,577.3875,1192.2555,585.14,1198.33" style="stroke:#181818;stroke-width:1.0;"/></g><!--link ManageAdvertisementRepository to Request--><g id="link_ManageAdvertisementRepository_Request"><path codeLine="134" d="M763.62,680.22 C873.4,756.7 986.5,835.5 986.5,835.5 C986.5,835.5 986.5,835.5 986.5,1295 C986.5,1295 950.5,1437 950.5,1437 C950.5,1437 908.15,1462.68 854.52,1495.2 " fill="none" id="ManageAdvertisementRepository-to-Request" style="stroke:#181818;stroke-width:1.0;stroke-dasharray:7.0,7.0;"/><polygon fill="#181818" points="849.97,1497.96,859.7376,1496.6973,854.241,1495.3603,855.578,1489.8637,849.97,1497.96" style="stroke:#181818;stroke-width:1.0;"/></g><!--link ManageAdvertisementRepository to Property--><g id="link_ManageAdvertisementRepository_Property"><path codeLine="135" d="M428.04,680.22 C357.34,756.7 284.5,835.5 284.5,835.5 C284.5,835.5 284.5,835.5 284.5,1630 C284.5,1630 291.73,1733.14 297.49,1815.44 " fill="none" id="ManageAdvertisementRepository-to-Property" style="stroke:#181818;stroke-width:1.0;stroke-dasharray:7.0,7.0;"/><polygon fill="#181818" points="297.87,1820.83,301.2431,1811.5768,297.527,1815.8418,293.262,1812.1256,297.87,1820.83" style="stroke:#181818;stroke-width:1.0;"/></g><!--SRC=[tLTBR-Cs4BxhL_3ee7AmwB4837YzAM2WRG8RRI-vqD9O9aAHAadjhhheV- -G8YLH3yUxm1xQ76np7fpNDyE9VcMYeegMN6Qla9CSphJcvcSfp97z3UJ7TuaE8gIYsIiju6WQ3aH1PgWeE0m4z8NcyXCJ1JbJheSSpWIOfW9IITxOGp9WPfnglJL6iLDjO9z9uMo_InB78R_ILzZc7q4Pfg44ONxVao__B35twBkId8CYNnA2VpzSardTUPa2J2JICHGKJ1jGEyuiENDVAIP3wqzIvK5CrwUIZQwe5CiW9LG1JKcEj-oOQNR80ONKF5UWTKfUH7MHHXQALfUKYBeyWNewluTSILdg0OMQYoUzY8xwJ1KciZXYSG0vy5VDAcly0sXM26gO52aw9nu_LrBN2fpoYROUfeJBCtxQqg21McDbh4lj-Ld92gDfmdadov9fxMxCkjz_K5xR80kyxou9PJa0ccD6AWRQrs4T4OU9tmkDMCfWTKT-YeGMQjE9DCDR7ikAomPWdjkMRvwthSq5cInpwOfaUfW9Z731Yu2pyfhGYixJWnyPeiH0oFd_1JjnT0Sq0TesHa2MWmq6YCodisV7Ed5BOJiwcLim-IBQQwCRxZmMiUmVaBiAvu-KitnYZiQg0GsHK0Vl8qumd7qpHZlyEzz339xQXp28eELjbQBDBrXyyl1Sg-o2gNzIEQWDgOP7A-5p5hi_uqhQPx2tXgcQN3ZiPQSGmWob9Q6A8GxNOQGTa9uMUhAjyroU3b4kF2l6LCnpZH6JS7gOMdVpUeonCBBdi8QHZm7iEw-zjCz227kSXhquot4g3jX0EU14SqmLJfvxaf83xJjfHBPjDOglRq4VPDMFYH1bPoMTjEX0Vm73urcsRa4NoMn8r0qXtnfCXCsZozigAarlTJga_V0S3F3tpMD96HzCt_7mzZeu1lshF0XhOPRtPdQrKdQ9qEWhEFY7jm3lizG_cRaSi1QJyVzjphUwRuRGehHN6_ZNMx74VRwQvdCyX0GjHqrYW0C-5W9-SzE_Qr1qbe3z3BZ6Qokfp8wgt6qvuH3f7MN6A3z2LYlxBbbPGpz78jlsaGgFLUUDL82ma2huPrDDS1iBs0uXhMmCwOmBQMyAsxT_35qKst0QnPksDbDdQOoi_qZslbTk-dHeKrSin-NwWhF4dv9aRW5VhpVNzkePfS5YVd-_6UBxJLdlIFlbAD6MU5rz98qhfhfTUNDzyxjHUzpyDwfDvurDwnLtvb8pVz5KCecIPCkx5FD4SCRFYSma1R74f4RC_qymaLiQy4aoG1HvMA-N9UUBGXxkxxzQPpQq1LcRyfQO93CL6MOokM8eIPQgFobQBEduOTyAkwYbXLNc5dGjDy8rpQbdj-2uzVHjoSx_Vm40]--></g></svg>