<?xml version="1.0" encoding="UTF-8" standalone="no"?><svg xmlns="http://www.w3.org/2000/svg" xmlns:xlink="http://www.w3.org/1999/xlink" contentStyleType="text/css" height="1806px" preserveAspectRatio="none" style="width:2781px;height:1806px;background:#FFFFFF;" version="1.1" viewBox="0 0 2781 1806" width="2781px" zoomAndPan="magnify"><defs/><g><rect fill="#FFFFFF" height="1601.7344" style="stroke:#181818;stroke-width:1.0;" width="10" x="66" y="98.5547"/><rect fill="#FFFFFF" height="658.5391" style="stroke:#181818;stroke-width:1.0;" width="10" x="830" y="128.1094"/><rect fill="#FFFFFF" height="37.5547" style="stroke:#181818;stroke-width:1.0;" width="10" x="830" y="824.2031"/><rect fill="#FFFFFF" height="119.7734" style="stroke:#181818;stroke-width:1.0;" width="10" x="830" y="922.8672"/><rect fill="#FFFFFF" height="78.6641" style="stroke:#181818;stroke-width:1.0;" width="10" x="830" y="1103.75"/><rect fill="#FFFFFF" height="51.5547" style="stroke:#181818;stroke-width:1.0;" width="10" x="830" y="1219.9688"/><rect fill="#FFFFFF" height="391.2109" style="stroke:#181818;stroke-width:1.0;" width="10" x="830" y="1309.0781"/><rect fill="#FFFFFF" height="99.6641" style="stroke:#181818;stroke-width:1.0;" width="10" x="1715" y="214.2188"/><rect fill="#FFFFFF" height="99.6641" style="stroke:#181818;stroke-width:1.0;" width="10" x="1715" y="351.4375"/><rect fill="#FFFFFF" height="99.6641" style="stroke:#181818;stroke-width:1.0;" width="10" x="1715" y="488.6563"/><rect fill="#FFFFFF" height="99.6641" style="stroke:#181818;stroke-width:1.0;" width="10" x="1715" y="625.875"/><rect fill="#FFFFFF" height="245.4375" style="stroke:#181818;stroke-width:1.0;" width="10" x="1715" y="1417.2969"/><rect fill="#FFFFFF" height="99.6641" style="stroke:#181818;stroke-width:1.0;" width="10" x="2600" y="1525.5156"/><rect fill="none" height="255.9922" style="stroke:#000000;stroke-width:1.5;" width="1011" x="20" y="978.9766"/><rect fill="none" height="109.2188" style="stroke:#000000;stroke-width:1.5;" width="991" x="30" y="1118.75"/><line style="stroke:#181818;stroke-width:0.5;stroke-dasharray:5.0,5.0;" x1="71" x2="71" y1="88.5547" y2="1718.2891"/><line style="stroke:#181818;stroke-width:0.5;stroke-dasharray:5.0,5.0;" x1="835" x2="835" y1="88.5547" y2="1718.2891"/><line style="stroke:#181818;stroke-width:0.5;stroke-dasharray:5.0,5.0;" x1="1720" x2="1720" y1="170.3867" y2="1718.2891"/><line style="stroke:#181818;stroke-width:0.5;stroke-dasharray:5.0,5.0;" x1="2604.5" x2="2604.5" y1="88.5547" y2="1718.2891"/><text fill="#000000" font-family="sans-serif" font-size="20" lengthAdjust="spacing" textLength="56" x="40" y="84.3359">Agent</text><ellipse cx="71" cy="13.5" fill="#E3E3E3" rx="8" ry="8" style="stroke:#181818;stroke-width:0.5;"/><path d="M71,21.5 L71,48.5 M58,29.5 L84,29.5 M71,48.5 L58,63.5 M71,48.5 L84,63.5 " fill="none" style="stroke:#181818;stroke-width:0.5;"/><text fill="#000000" font-family="sans-serif" font-size="20" lengthAdjust="spacing" textLength="56" x="40" y="1736.625">Agent</text><ellipse cx="71" cy="1749.3438" fill="#E3E3E3" rx="8" ry="8" style="stroke:#181818;stroke-width:0.5;"/><path d="M71,1757.3438 L71,1784.3438 M58,1765.3438 L84,1765.3438 M71,1784.3438 L58,1799.3438 M71,1784.3438 L84,1799.3438 " fill="none" style="stroke:#181818;stroke-width:0.5;"/><rect fill="#E3E3E3" height="37.5547" rx="2.5" ry="2.5" style="stroke:#181818;stroke-width:0.5;" width="352" x="659" y="50"/><text fill="#000000" font-family="sans-serif" font-size="20" lengthAdjust="spacing" textLength="338" x="666" y="76.3359">:CreateAdvertisementForPropertyUI</text><rect fill="#E3E3E3" height="37.5547" rx="2.5" ry="2.5" style="stroke:#181818;stroke-width:0.5;" width="352" x="659" y="1717.2891"/><text fill="#000000" font-family="sans-serif" font-size="20" lengthAdjust="spacing" textLength="338" x="666" y="1743.625">:CreateAdvertisementForPropertyUI</text><rect fill="#E3E3E3" height="37.5547" rx="2.5" ry="2.5" style="stroke:#181818;stroke-width:0.5;" width="428" x="1506" y="1717.2891"/><text fill="#000000" font-family="sans-serif" font-size="20" lengthAdjust="spacing" textLength="414" x="1513" y="1743.625">:CreateAdvertisementForPropertyController</text><rect fill="#E3E3E3" height="61.1094" rx="2.5" ry="2.5" style="stroke:#181818;stroke-width:0.5;" width="335" x="2437.5" y="26.4453"/><text fill="#000000" font-family="sans-serif" font-size="20" lengthAdjust="spacing" textLength="317" x="2446.5" y="52.7813">manageAdvertisementRepository</text><text fill="#000000" font-family="sans-serif" font-size="20" lengthAdjust="spacing" textLength="321" x="2444.5" y="76.3359">:ManageAdvertisementRepository</text><rect fill="#E3E3E3" height="61.1094" rx="2.5" ry="2.5" style="stroke:#181818;stroke-width:0.5;" width="335" x="2437.5" y="1717.2891"/><text fill="#000000" font-family="sans-serif" font-size="20" lengthAdjust="spacing" textLength="317" x="2446.5" y="1743.625">manageAdvertisementRepository</text><text fill="#000000" font-family="sans-serif" font-size="20" lengthAdjust="spacing" textLength="321" x="2444.5" y="1767.1797">:ManageAdvertisementRepository</text><rect fill="#FFFFFF" height="1601.7344" style="stroke:#181818;stroke-width:1.0;" width="10" x="66" y="98.5547"/><rect fill="#FFFFFF" height="658.5391" style="stroke:#181818;stroke-width:1.0;" width="10" x="830" y="128.1094"/><rect fill="#FFFFFF" height="37.5547" style="stroke:#181818;stroke-width:1.0;" width="10" x="830" y="824.2031"/><rect fill="#FFFFFF" height="119.7734" style="stroke:#181818;stroke-width:1.0;" width="10" x="830" y="922.8672"/><rect fill="#FFFFFF" height="78.6641" style="stroke:#181818;stroke-width:1.0;" width="10" x="830" y="1103.75"/><rect fill="#FFFFFF" height="51.5547" style="stroke:#181818;stroke-width:1.0;" width="10" x="830" y="1219.9688"/><rect fill="#FFFFFF" height="391.2109" style="stroke:#181818;stroke-width:1.0;" width="10" x="830" y="1309.0781"/><rect fill="#FFFFFF" height="99.6641" style="stroke:#181818;stroke-width:1.0;" width="10" x="1715" y="214.2188"/><rect fill="#FFFFFF" height="99.6641" style="stroke:#181818;stroke-width:1.0;" width="10" x="1715" y="351.4375"/><rect fill="#FFFFFF" height="99.6641" style="stroke:#181818;stroke-width:1.0;" width="10" x="1715" y="488.6563"/><rect fill="#FFFFFF" height="99.6641" style="stroke:#181818;stroke-width:1.0;" width="10" x="1715" y="625.875"/><rect fill="#FFFFFF" height="245.4375" style="stroke:#181818;stroke-width:1.0;" width="10" x="1715" y="1417.2969"/><rect fill="#FFFFFF" height="99.6641" style="stroke:#181818;stroke-width:1.0;" width="10" x="2600" y="1525.5156"/><polygon fill="#181818" points="818,124.1094,828,128.1094,818,132.1094,822,128.1094" style="stroke:#181818;stroke-width:1.0;"/><line style="stroke:#181818;stroke-width:1.0;" x1="76" x2="824" y1="128.1094" y2="128.1094"/><text fill="#000000" font-family="sans-serif" font-size="20" font-weight="bold" lengthAdjust="spacing" textLength="13" x="83" y="121.8906">1</text><text fill="#000000" font-family="sans-serif" font-size="20" lengthAdjust="spacing" textLength="250" x="100" y="121.8906">asks to create property ad</text><polygon fill="#181818" points="1494,161.6641,1504,165.6641,1494,169.6641,1498,165.6641" style="stroke:#181818;stroke-width:1.0;"/><line style="stroke:#181818;stroke-width:1.0;" x1="840" x2="1500" y1="165.6641" y2="165.6641"/><text fill="#000000" font-family="sans-serif" font-size="20" font-weight="bold" lengthAdjust="spacing" textLength="13" x="847" y="159.4453">2</text><text fill="#000000" font-family="sans-serif" font-size="20" lengthAdjust="spacing" textLength="58" x="864" y="159.4453">create</text><rect fill="#E3E3E3" height="37.5547" rx="2.5" ry="2.5" style="stroke:#181818;stroke-width:0.5;" width="428" x="1506" y="136.1094"/><text fill="#000000" font-family="sans-serif" font-size="20" lengthAdjust="spacing" textLength="414" x="1513" y="162.4453">:CreateAdvertisementForPropertyController</text><polygon fill="#181818" points="1703,210.2188,1713,214.2188,1703,218.2188,1707,214.2188" style="stroke:#181818;stroke-width:1.0;"/><line style="stroke:#181818;stroke-width:1.0;" x1="840" x2="1709" y1="214.2188" y2="214.2188"/><text fill="#000000" font-family="sans-serif" font-size="20" font-weight="bold" lengthAdjust="spacing" textLength="13" x="847" y="208">3</text><text fill="#000000" font-family="sans-serif" font-size="20" lengthAdjust="spacing" textLength="110" x="864" y="208">getAgents()</text><rect fill="none" height="57.1094" style="stroke:#000000;stroke-width:1.5;" width="434" x="1503" y="222.2188"/><path d="M1503,222.2188 L1577,222.2188 L1577,237.2188 L1567,247.2188 L1503,247.2188 L1503,222.2188 " fill="#EEEEEE" style="stroke:#000000;stroke-width:2.0;"/><text fill="#000000" font-family="sans-serif" font-size="20" font-weight="bold" lengthAdjust="spacing" textLength="29" x="1516" y="243.5547">ref</text><text fill="#000000" font-family="sans-serif" font-size="20" lengthAdjust="spacing" textLength="134" x="1653" y="270.5547">Get Agent List</text><polygon fill="#181818" points="851,309.8828,841,313.8828,851,317.8828,847,313.8828" style="stroke:#181818;stroke-width:1.0;"/><line style="stroke:#181818;stroke-width:1.0;stroke-dasharray:2.0,2.0;" x1="845" x2="1719" y1="313.8828" y2="313.8828"/><text fill="#000000" font-family="sans-serif" font-size="20" font-weight="bold" lengthAdjust="spacing" textLength="13" x="857" y="307.6641">4</text><text fill="#000000" font-family="sans-serif" font-size="20" lengthAdjust="spacing" textLength="118" x="874" y="307.6641">listOfAgents</text><polygon fill="#181818" points="1703,347.4375,1713,351.4375,1703,355.4375,1707,351.4375" style="stroke:#181818;stroke-width:1.0;"/><line style="stroke:#181818;stroke-width:1.0;" x1="840" x2="1709" y1="351.4375" y2="351.4375"/><text fill="#000000" font-family="sans-serif" font-size="20" font-weight="bold" lengthAdjust="spacing" textLength="13" x="847" y="345.2188">5</text><text fill="#000000" font-family="sans-serif" font-size="20" lengthAdjust="spacing" textLength="211" x="864" y="345.2188">getTypeOfProperties()</text><rect fill="none" height="57.1094" style="stroke:#000000;stroke-width:1.5;" width="434" x="1503" y="359.4375"/><path d="M1503,359.4375 L1577,359.4375 L1577,374.4375 L1567,384.4375 L1503,384.4375 L1503,359.4375 " fill="#EEEEEE" style="stroke:#000000;stroke-width:2.0;"/><text fill="#000000" font-family="sans-serif" font-size="20" font-weight="bold" lengthAdjust="spacing" textLength="29" x="1516" y="380.7734">ref</text><text fill="#000000" font-family="sans-serif" font-size="20" lengthAdjust="spacing" textLength="236" x="1602" y="407.7734">Get Type of Property List</text><polygon fill="#181818" points="851,447.1016,841,451.1016,851,455.1016,847,451.1016" style="stroke:#181818;stroke-width:1.0;"/><line style="stroke:#181818;stroke-width:1.0;stroke-dasharray:2.0,2.0;" x1="845" x2="1719" y1="451.1016" y2="451.1016"/><text fill="#000000" font-family="sans-serif" font-size="20" font-weight="bold" lengthAdjust="spacing" textLength="13" x="857" y="444.8828">6</text><text fill="#000000" font-family="sans-serif" font-size="20" lengthAdjust="spacing" textLength="201" x="874" y="444.8828">TypeOfPropertiesList</text><polygon fill="#181818" points="1703,484.6563,1713,488.6563,1703,492.6563,1707,488.6563" style="stroke:#181818;stroke-width:1.0;"/><line style="stroke:#181818;stroke-width:1.0;" x1="840" x2="1709" y1="488.6563" y2="488.6563"/><text fill="#000000" font-family="sans-serif" font-size="20" font-weight="bold" lengthAdjust="spacing" textLength="13" x="847" y="482.4375">7</text><text fill="#000000" font-family="sans-serif" font-size="20" lengthAdjust="spacing" textLength="234" x="864" y="482.4375">getTypeOfCommission()</text><rect fill="none" height="57.1094" style="stroke:#000000;stroke-width:1.5;" width="434" x="1503" y="496.6563"/><path d="M1503,496.6563 L1577,496.6563 L1577,511.6563 L1567,521.6563 L1503,521.6563 L1503,496.6563 " fill="#EEEEEE" style="stroke:#000000;stroke-width:2.0;"/><text fill="#000000" font-family="sans-serif" font-size="20" font-weight="bold" lengthAdjust="spacing" textLength="29" x="1516" y="517.9922">ref</text><text fill="#000000" font-family="sans-serif" font-size="20" lengthAdjust="spacing" textLength="276" x="1582" y="544.9922">Get Type of Commission List</text><polygon fill="#181818" points="851,584.3203,841,588.3203,851,592.3203,847,588.3203" style="stroke:#181818;stroke-width:1.0;"/><line style="stroke:#181818;stroke-width:1.0;stroke-dasharray:2.0,2.0;" x1="845" x2="1719" y1="588.3203" y2="588.3203"/><text fill="#000000" font-family="sans-serif" font-size="20" font-weight="bold" lengthAdjust="spacing" textLength="13" x="857" y="582.1016">8</text><text fill="#000000" font-family="sans-serif" font-size="20" lengthAdjust="spacing" textLength="224" x="874" y="582.1016">TypeOfCommissionList</text><polygon fill="#181818" points="1703,621.875,1713,625.875,1703,629.875,1707,625.875" style="stroke:#181818;stroke-width:1.0;"/><line style="stroke:#181818;stroke-width:1.0;" x1="840" x2="1709" y1="625.875" y2="625.875"/><text fill="#000000" font-family="sans-serif" font-size="20" font-weight="bold" lengthAdjust="spacing" textLength="13" x="847" y="619.6563">9</text><text fill="#000000" font-family="sans-serif" font-size="20" lengthAdjust="spacing" textLength="197" x="864" y="619.6563">getTypeOfBusiness()</text><rect fill="none" height="57.1094" style="stroke:#000000;stroke-width:1.5;" width="434" x="1503" y="633.875"/><path d="M1503,633.875 L1577,633.875 L1577,648.875 L1567,658.875 L1503,658.875 L1503,633.875 " fill="#EEEEEE" style="stroke:#000000;stroke-width:2.0;"/><text fill="#000000" font-family="sans-serif" font-size="20" font-weight="bold" lengthAdjust="spacing" textLength="29" x="1516" y="655.2109">ref</text><text fill="#000000" font-family="sans-serif" font-size="20" lengthAdjust="spacing" textLength="239" x="1600.5" y="682.2109">Get Type of Business List</text><polygon fill="#181818" points="851,721.5391,841,725.5391,851,729.5391,847,725.5391" style="stroke:#181818;stroke-width:1.0;"/><line style="stroke:#181818;stroke-width:1.0;stroke-dasharray:2.0,2.0;" x1="845" x2="1719" y1="725.5391" y2="725.5391"/><text fill="#000000" font-family="sans-serif" font-size="20" font-weight="bold" lengthAdjust="spacing" textLength="26" x="857" y="719.3203">10</text><text fill="#000000" font-family="sans-serif" font-size="20" lengthAdjust="spacing" textLength="187" x="887" y="719.3203">TypeOfBusinessList</text><polygon fill="#181818" points="87,782.6484,77,786.6484,87,790.6484,83,786.6484" style="stroke:#181818;stroke-width:1.0;"/><line style="stroke:#181818;stroke-width:1.0;stroke-dasharray:2.0,2.0;" x1="81" x2="834" y1="786.6484" y2="786.6484"/><text fill="#000000" font-family="sans-serif" font-size="20" font-weight="bold" lengthAdjust="spacing" textLength="26" x="93" y="768.6523">11</text><text fill="#000000" font-family="sans-serif" font-size="20" lengthAdjust="spacing" textLength="700" x="123" y="756.875">shows list of agents and Advertisement's selected data (Type of Property,</text><text fill="#000000" font-family="sans-serif" font-size="20" lengthAdjust="spacing" textLength="630" x="129" y="780.4297">type of business, type of commission)  and asks to select the data</text><polygon fill="#181818" points="818,820.2031,828,824.2031,818,828.2031,822,824.2031" style="stroke:#181818;stroke-width:1.0;"/><line style="stroke:#181818;stroke-width:1.0;" x1="76" x2="824" y1="824.2031" y2="824.2031"/><text fill="#000000" font-family="sans-serif" font-size="20" font-weight="bold" lengthAdjust="spacing" textLength="26" x="83" y="817.9844">12</text><text fill="#000000" font-family="sans-serif" font-size="20" lengthAdjust="spacing" textLength="113" x="113" y="817.9844">selects data</text><polygon fill="#181818" points="87,857.7578,77,861.7578,87,865.7578,83,861.7578" style="stroke:#181818;stroke-width:1.0;"/><line style="stroke:#181818;stroke-width:1.0;stroke-dasharray:2.0,2.0;" x1="81" x2="834" y1="861.7578" y2="861.7578"/><text fill="#000000" font-family="sans-serif" font-size="20" font-weight="bold" lengthAdjust="spacing" textLength="26" x="93" y="855.5391">13</text><text fill="#000000" font-family="sans-serif" font-size="20" lengthAdjust="spacing" textLength="120" x="123" y="855.5391">request data</text><polygon fill="#181818" points="818,918.8672,828,922.8672,818,926.8672,822,922.8672" style="stroke:#181818;stroke-width:1.0;"/><line style="stroke:#181818;stroke-width:1.0;" x1="76" x2="824" y1="922.8672" y2="922.8672"/><text fill="#000000" font-family="sans-serif" font-size="20" font-weight="bold" lengthAdjust="spacing" textLength="26" x="83" y="904.8711">14</text><text fill="#000000" font-family="sans-serif" font-size="20" lengthAdjust="spacing" textLength="630" x="113" y="893.0938">types requested data (price, area, distance to city center, address,</text><text fill="#000000" font-family="sans-serif" font-size="20" lengthAdjust="spacing" textLength="396" x="119" y="916.6484">photographs(linkURI), commission value)</text><path d="M20,978.9766 L92,978.9766 L92,994.5313 L82,1004.5313 L20,1004.5313 L20,978.9766 " fill="#EEEEEE" style="stroke:#000000;stroke-width:1.5;"/><rect fill="none" height="255.9922" style="stroke:#000000;stroke-width:1.5;" width="1011" x="20" y="978.9766"/><text fill="#000000" font-family="sans-serif" font-size="20" font-weight="bold" lengthAdjust="spacing" textLength="27" x="35" y="999.3125">alt</text><text fill="#000000" font-family="sans-serif" font-size="20" font-weight="bold" lengthAdjust="spacing" textLength="405" x="107" y="1000.3125">[typeOfProperty = House || Apartment]</text><polygon fill="#181818" points="87,1038.6406,77,1042.6406,87,1046.6406,83,1042.6406" style="stroke:#181818;stroke-width:1.0;"/><line style="stroke:#181818;stroke-width:1.0;stroke-dasharray:2.0,2.0;" x1="81" x2="834" y1="1042.6406" y2="1042.6406"/><text fill="#000000" font-family="sans-serif" font-size="20" font-weight="bold" lengthAdjust="spacing" textLength="26" x="93" y="1036.4219">15</text><text fill="#000000" font-family="sans-serif" font-size="20" lengthAdjust="spacing" textLength="120" x="123" y="1036.4219">request data</text><polygon fill="#181818" points="818,1099.75,828,1103.75,818,1107.75,822,1103.75" style="stroke:#181818;stroke-width:1.0;"/><line style="stroke:#181818;stroke-width:1.0;" x1="76" x2="824" y1="1103.75" y2="1103.75"/><text fill="#000000" font-family="sans-serif" font-size="20" font-weight="bold" lengthAdjust="spacing" textLength="26" x="83" y="1085.7539">16</text><text fill="#000000" font-family="sans-serif" font-size="20" lengthAdjust="spacing" textLength="623" x="113" y="1073.9766">types requested data (nBedrooms, nBathRooms, nParkingSpaces,</text><text fill="#000000" font-family="sans-serif" font-size="20" lengthAdjust="spacing" textLength="225" x="119" y="1097.5313">EquipmentDesignation)</text><path d="M30,1118.75 L102,1118.75 L102,1134.3047 L92,1144.3047 L30,1144.3047 L30,1118.75 " fill="#EEEEEE" style="stroke:#000000;stroke-width:1.5;"/><rect fill="none" height="109.2188" style="stroke:#000000;stroke-width:1.5;" width="991" x="30" y="1118.75"/><text fill="#000000" font-family="sans-serif" font-size="20" font-weight="bold" lengthAdjust="spacing" textLength="27" x="45" y="1139.0859">alt</text><text fill="#000000" font-family="sans-serif" font-size="20" font-weight="bold" lengthAdjust="spacing" textLength="266" x="117" y="1140.0859">[typeOfProperty = House]</text><polygon fill="#181818" points="87,1178.4141,77,1182.4141,87,1186.4141,83,1182.4141" style="stroke:#181818;stroke-width:1.0;"/><line style="stroke:#181818;stroke-width:1.0;stroke-dasharray:2.0,2.0;" x1="81" x2="834" y1="1182.4141" y2="1182.4141"/><text fill="#000000" font-family="sans-serif" font-size="20" font-weight="bold" lengthAdjust="spacing" textLength="26" x="93" y="1176.1953">17</text><text fill="#000000" font-family="sans-serif" font-size="20" lengthAdjust="spacing" textLength="120" x="123" y="1176.1953">request data</text><polygon fill="#181818" points="818,1215.9688,828,1219.9688,818,1223.9688,822,1219.9688" style="stroke:#181818;stroke-width:1.0;"/><line style="stroke:#181818;stroke-width:1.0;" x1="76" x2="824" y1="1219.9688" y2="1219.9688"/><text fill="#000000" font-family="sans-serif" font-size="20" font-weight="bold" lengthAdjust="spacing" textLength="26" x="83" y="1213.75">18</text><text fill="#000000" font-family="sans-serif" font-size="20" lengthAdjust="spacing" textLength="499" x="113" y="1213.75">types requested data (SunExposure, Basement, Loft)</text><polygon fill="#181818" points="87,1267.5234,77,1271.5234,87,1275.5234,83,1271.5234" style="stroke:#181818;stroke-width:1.0;"/><line style="stroke:#181818;stroke-width:1.0;stroke-dasharray:2.0,2.0;" x1="81" x2="834" y1="1271.5234" y2="1271.5234"/><text fill="#000000" font-family="sans-serif" font-size="20" font-weight="bold" lengthAdjust="spacing" textLength="26" x="93" y="1265.3047">19</text><text fill="#000000" font-family="sans-serif" font-size="20" lengthAdjust="spacing" textLength="294" x="123" y="1265.3047">shows selected and typed data</text><polygon fill="#181818" points="818,1305.0781,828,1309.0781,818,1313.0781,822,1309.0781" style="stroke:#181818;stroke-width:1.0;"/><line style="stroke:#181818;stroke-width:1.0;" x1="76" x2="824" y1="1309.0781" y2="1309.0781"/><text fill="#000000" font-family="sans-serif" font-size="20" font-weight="bold" lengthAdjust="spacing" textLength="26" x="83" y="1302.8594">20</text><text fill="#000000" font-family="sans-serif" font-size="20" lengthAdjust="spacing" textLength="125" x="113" y="1302.8594">submits data</text><polygon fill="#181818" points="1703,1413.2969,1713,1417.2969,1703,1421.2969,1707,1417.2969" style="stroke:#181818;stroke-width:1.0;"/><line style="stroke:#181818;stroke-width:1.0;" x1="840" x2="1709" y1="1417.2969" y2="1417.2969"/><text fill="#000000" font-family="sans-serif" font-size="20" font-weight="bold" lengthAdjust="spacing" textLength="26" x="847" y="1375.7461">21</text><text fill="#000000" font-family="sans-serif" font-size="20" lengthAdjust="spacing" textLength="556" x="877" y="1340.4141">submitAdvertisement(price, area, distCityCenter, address,</text><text fill="#000000" font-family="sans-serif" font-size="20" lengthAdjust="spacing" textLength="820" x="883" y="1363.9688">photographs(linkURI), commission value,\ nBedrooms, nBathRooms, nParkingSpaces,</text><text fill="#000000" font-family="sans-serif" font-size="20" lengthAdjust="spacing" textLength="514" x="883" y="1387.5234">EquipmentDesignation, SunExposure, Basement, Loft,</text><text fill="#000000" font-family="sans-serif" font-size="20" lengthAdjust="spacing" textLength="577" x="883" y="1411.0781">TypeofBusiness, TypeofProperty, TypeofCommission, agent)</text><polygon fill="#181818" points="2588,1521.5156,2598,1525.5156,2588,1529.5156,2592,1525.5156" style="stroke:#181818;stroke-width:1.0;"/><line style="stroke:#181818;stroke-width:1.0;" x1="1725" x2="2594" y1="1525.5156" y2="1525.5156"/><text fill="#000000" font-family="sans-serif" font-size="20" font-weight="bold" lengthAdjust="spacing" textLength="26" x="1732" y="1483.9648">22</text><text fill="#000000" font-family="sans-serif" font-size="20" lengthAdjust="spacing" textLength="556" x="1762" y="1448.6328">submitAdvertisement(price, area, distCityCenter, address,</text><text fill="#000000" font-family="sans-serif" font-size="20" lengthAdjust="spacing" textLength="820" x="1768" y="1472.1875">photographs(linkURI), commission value,\ nBedrooms, nBathRooms, nParkingSpaces,</text><text fill="#000000" font-family="sans-serif" font-size="20" lengthAdjust="spacing" textLength="514" x="1768" y="1495.7422">EquipmentDesignation, SunExposure, Basement, Loft,</text><text fill="#000000" font-family="sans-serif" font-size="20" lengthAdjust="spacing" textLength="577" x="1768" y="1519.2969">TypeofBusiness, TypeofProperty, TypeofCommission, agent)</text><rect fill="none" height="57.1094" style="stroke:#000000;stroke-width:1.5;" width="341" x="2434.5" y="1533.5156"/><path d="M2434.5,1533.5156 L2508.5,1533.5156 L2508.5,1548.5156 L2498.5,1558.5156 L2434.5,1558.5156 L2434.5,1533.5156 " fill="#EEEEEE" style="stroke:#000000;stroke-width:2.0;"/><text fill="#000000" font-family="sans-serif" font-size="20" font-weight="bold" lengthAdjust="spacing" textLength="29" x="2447.5" y="1554.8516">ref</text><text fill="#000000" font-family="sans-serif" font-size="20" lengthAdjust="spacing" textLength="223" x="2493.5" y="1581.8516">Register Advertisement</text><polygon fill="#181818" points="1736,1621.1797,1726,1625.1797,1736,1629.1797,1732,1625.1797" style="stroke:#181818;stroke-width:1.0;"/><line style="stroke:#181818;stroke-width:1.0;stroke-dasharray:2.0,2.0;" x1="1730" x2="2604" y1="1625.1797" y2="1625.1797"/><text fill="#000000" font-family="sans-serif" font-size="20" font-weight="bold" lengthAdjust="spacing" textLength="26" x="1742" y="1618.9609">23</text><text fill="#000000" font-family="sans-serif" font-size="20" lengthAdjust="spacing" textLength="139" x="1772" y="1618.9609">Advertisement</text><polygon fill="#181818" points="851,1658.7344,841,1662.7344,851,1666.7344,847,1662.7344" style="stroke:#181818;stroke-width:1.0;"/><line style="stroke:#181818;stroke-width:1.0;" x1="845" x2="1719" y1="1662.7344" y2="1662.7344"/><text fill="#000000" font-family="sans-serif" font-size="20" font-weight="bold" lengthAdjust="spacing" textLength="26" x="857" y="1656.5156">24</text><text fill="#000000" font-family="sans-serif" font-size="20" lengthAdjust="spacing" textLength="139" x="887" y="1656.5156">Advertisement</text><polygon fill="#181818" points="82,1696.2891,72,1700.2891,82,1704.2891,78,1700.2891" style="stroke:#181818;stroke-width:1.0;"/><line style="stroke:#181818;stroke-width:1.0;" x1="76" x2="834" y1="1700.2891" y2="1700.2891"/><text fill="#000000" font-family="sans-serif" font-size="20" font-weight="bold" lengthAdjust="spacing" textLength="26" x="88" y="1694.0703">25</text><text fill="#000000" font-family="sans-serif" font-size="20" lengthAdjust="spacing" textLength="226" x="118" y="1694.0703">show operation success</text><!--SRC=[xLV9Rjmu4BtpAmg-j3kGWM2E1cB0xYnZm46CTdppXPPA4j4IgP2K4m_oyLEajjRQxJW3p02ZaqJMzcgNsGbPSCtpJ8KxZ232c9UP_QYalHD_8Vpnbfc6178bLPXgbIDONUBUJS737K_mpZvd21f3osMIxHEOb4Vgkv09n3mpo1WlhP9b_eYQiLKg8eHOAVkeVZ0UMgNXv391QK-06xXy_vcH52j2KN1fuUHyev5Rl8oUa4uDvaJvKUbRhGewUBw_zcptro_YsX1ahR8CjUVUVDtUzFbpBWbYZtsBXJA2p7r-aEUVb-wzp0a9XZcyueaCypWPr0zzmDa5WO1pOjqPi0f23m2AscBWKKVVIY7OR0Lx3uau8qbEu3dqbKF4BOTJZJ5gb24657yJQb5OeMG086IiTCupU93z6ujXAaL8DxtZgDIyUWkLiMksRyQgjjuxTcZVXJz-yuOihCZO30aH96XzRfZJleBM0rv3xue0WYBWO-Nk-OGMl4Iu4SQEhb56JW0RNNXxpfeWPSJx9Quiwv56k63P4DdNvmA_n7LE2XnYF1BlyTY7Vd3wGSNGLCMqIuvopxohXY0NTIowxx0hDohFXJ6Kb0kkVAMBN-_wOqBI8JaSb5S5woL1x8pw9Pj6mNrXTAzA8oGQyr-FROFZNnJPngJV55SsEv9CghuRtpwT9xXleC09JczMhGmOp6YpS4kAdrh3LXNGaBBrsMDjVD2UX6sYhi5BRuPg9HLiYbukcu3WHkfm9bTifkCPKO-0QlnM8g5iMGweSAQRXgk5NMZX1ZMdCKa3bxp6QN3xxK1Gkmx9LQZfEegqmqy-AL9bLQ9vaPhJJCZT_VPw7Upv0vvuLk9w6WJFhBUZomTu1rjIKbsl3YqN5TKOh3_kBiUmUx9QyBIbs5lKGaNhZdbg1TgJJvKnnD9EjtVmfoeDmi-VSEcMlRn5zWz5JrvXf9NAAJFb5RVfjdw_vPfsvUIE5cdqKVlmhHI5C-Sz6f58lrQjfxUzdWzcCIwLu0ZR3BxZCDwLyiCFMdnBJNbwnQiG1d2ZOZkpiGrHk90Dlzb4qsWxWYjePqpKXp2TTxqoBXzpSLGPjyEdOkdbvxWeDrICcr-jnU01NfKd0Io4m36vrgdQYWxgxxQHrj_TR0-gjZoHVqrtP_DZvMBol-T_Hyvl9DF_YOjRo2JB5CSM4_8gSVHesU9ASN3yJmRuh2kPmxecglMG5vhikh-ULp3SGxfYfYPGTH5miVBHfeGCAHdCL7VV-tI_wNy3]--></g></svg>