<?xml version="1.0" encoding="UTF-8" standalone="no"?><svg xmlns="http://www.w3.org/2000/svg" xmlns:xlink="http://www.w3.org/1999/xlink" contentStyleType="text/css" height="1547px" preserveAspectRatio="none" style="width:676px;height:1547px;background:#FFFFFF;" version="1.1" viewBox="0 0 676 1547" width="676px" zoomAndPan="magnify"><defs/><g><text fill="#000000" font-family="sans-serif" font-size="14" font-weight="bold" lengthAdjust="spacing" textLength="300" x="189.5" y="28.5352">System Sequence Diagram (SSD) - US 009</text><rect fill="#FFFFFF" height="1305.6328" style="stroke:#181818;stroke-width:1.0;" width="10" x="56" y="136.043"/><rect fill="#FFFFFF" height="37.5547" style="stroke:#181818;stroke-width:1.0;" width="10" x="601" y="165.5977"/><rect fill="#FFFFFF" height="37.5547" style="stroke:#181818;stroke-width:1.0;" width="10" x="601" y="281.8164"/><rect fill="#FFFFFF" height="44.5547" style="stroke:#181818;stroke-width:1.0;" width="10" x="601" y="398.0352"/><rect fill="#FFFFFF" height="44.5547" style="stroke:#181818;stroke-width:1.0;" width="10" x="601" y="521.2539"/><rect fill="#FFFFFF" height="44.5547" style="stroke:#181818;stroke-width:1.0;" width="10" x="601" y="644.4727"/><rect fill="#FFFFFF" height="44.5547" style="stroke:#181818;stroke-width:1.0;" width="10" x="601" y="767.6914"/><rect fill="#FFFFFF" height="37.5547" style="stroke:#181818;stroke-width:1.0;" width="10" x="601" y="849.8008"/><rect fill="#FFFFFF" height="44.5547" style="stroke:#181818;stroke-width:1.0;" width="10" x="601" y="998.0195"/><rect fill="#FFFFFF" height="37.5547" style="stroke:#181818;stroke-width:1.0;" width="10" x="601" y="1080.1289"/><rect fill="#FFFFFF" height="37.5547" style="stroke:#181818;stroke-width:1.0;" width="10" x="601" y="1155.2383"/><rect fill="#FFFFFF" height="37.5547" style="stroke:#181818;stroke-width:1.0;" width="10" x="601" y="1230.3477"/><rect fill="#FFFFFF" height="37.5547" style="stroke:#181818;stroke-width:1.0;" width="10" x="601" y="1305.457"/><rect fill="#FFFFFF" height="37.5547" style="stroke:#181818;stroke-width:1.0;" width="10" x="601" y="1404.1211"/><rect fill="none" height="702.2031" style="stroke:#000000;stroke-width:1.5;" width="660" x="10" y="218.1523"/><rect fill="none" height="71.6641" style="stroke:#000000;stroke-width:1.5;" width="640" x="20" y="334.3711"/><rect fill="none" height="71.6641" style="stroke:#000000;stroke-width:1.5;" width="640" x="20" y="457.5898"/><rect fill="none" height="71.6641" style="stroke:#000000;stroke-width:1.5;" width="640" x="20" y="580.8086"/><rect fill="none" height="71.6641" style="stroke:#000000;stroke-width:1.5;" width="640" x="20" y="704.0273"/><rect fill="none" height="71.6641" style="stroke:#000000;stroke-width:1.5;" width="640" x="20" y="934.3555"/><line style="stroke:#181818;stroke-width:0.5;stroke-dasharray:5.0,5.0;" x1="61" x2="61" y1="126.043" y2="1459.6758"/><line style="stroke:#181818;stroke-width:0.5;stroke-dasharray:5.0,5.0;" x1="606" x2="606" y1="126.043" y2="1459.6758"/><text fill="#000000" font-family="sans-serif" font-size="20" lengthAdjust="spacing" textLength="56" x="30" y="121.8242">Client</text><ellipse cx="61" cy="50.9883" fill="#E3E3E3" rx="8" ry="8" style="stroke:#181818;stroke-width:0.5;"/><path d="M61,58.9883 L61,85.9883 M48,66.9883 L74,66.9883 M61,85.9883 L48,100.9883 M61,85.9883 L74,100.9883 " fill="none" style="stroke:#181818;stroke-width:0.5;"/><text fill="#000000" font-family="sans-serif" font-size="20" lengthAdjust="spacing" textLength="56" x="30" y="1478.0117">Client</text><ellipse cx="61" cy="1490.7305" fill="#E3E3E3" rx="8" ry="8" style="stroke:#181818;stroke-width:0.5;"/><path d="M61,1498.7305 L61,1525.7305 M48,1506.7305 L74,1506.7305 M61,1525.7305 L48,1540.7305 M61,1525.7305 L74,1540.7305 " fill="none" style="stroke:#181818;stroke-width:0.5;"/><rect fill="#E3E3E3" height="37.5547" rx="2.5" ry="2.5" style="stroke:#181818;stroke-width:0.5;" width="88" x="562" y="87.4883"/><text fill="#000000" font-family="sans-serif" font-size="20" lengthAdjust="spacing" textLength="74" x="569" y="113.8242">:System</text><rect fill="#E3E3E3" height="37.5547" rx="2.5" ry="2.5" style="stroke:#181818;stroke-width:0.5;" width="88" x="562" y="1458.6758"/><text fill="#000000" font-family="sans-serif" font-size="20" lengthAdjust="spacing" textLength="74" x="569" y="1485.0117">:System</text><rect fill="#FFFFFF" height="1305.6328" style="stroke:#181818;stroke-width:1.0;" width="10" x="56" y="136.043"/><rect fill="#FFFFFF" height="37.5547" style="stroke:#181818;stroke-width:1.0;" width="10" x="601" y="165.5977"/><rect fill="#FFFFFF" height="37.5547" style="stroke:#181818;stroke-width:1.0;" width="10" x="601" y="281.8164"/><rect fill="#FFFFFF" height="44.5547" style="stroke:#181818;stroke-width:1.0;" width="10" x="601" y="398.0352"/><rect fill="#FFFFFF" height="44.5547" style="stroke:#181818;stroke-width:1.0;" width="10" x="601" y="521.2539"/><rect fill="#FFFFFF" height="44.5547" style="stroke:#181818;stroke-width:1.0;" width="10" x="601" y="644.4727"/><rect fill="#FFFFFF" height="44.5547" style="stroke:#181818;stroke-width:1.0;" width="10" x="601" y="767.6914"/><rect fill="#FFFFFF" height="37.5547" style="stroke:#181818;stroke-width:1.0;" width="10" x="601" y="849.8008"/><rect fill="#FFFFFF" height="44.5547" style="stroke:#181818;stroke-width:1.0;" width="10" x="601" y="998.0195"/><rect fill="#FFFFFF" height="37.5547" style="stroke:#181818;stroke-width:1.0;" width="10" x="601" y="1080.1289"/><rect fill="#FFFFFF" height="37.5547" style="stroke:#181818;stroke-width:1.0;" width="10" x="601" y="1155.2383"/><rect fill="#FFFFFF" height="37.5547" style="stroke:#181818;stroke-width:1.0;" width="10" x="601" y="1230.3477"/><rect fill="#FFFFFF" height="37.5547" style="stroke:#181818;stroke-width:1.0;" width="10" x="601" y="1305.457"/><rect fill="#FFFFFF" height="37.5547" style="stroke:#181818;stroke-width:1.0;" width="10" x="601" y="1404.1211"/><polygon fill="#181818" points="589,161.5977,599,165.5977,589,169.5977,593,165.5977" style="stroke:#181818;stroke-width:1.0;"/><line style="stroke:#181818;stroke-width:1.0;" x1="66" x2="595" y1="165.5977" y2="165.5977"/><text fill="#000000" font-family="sans-serif" font-size="20" font-weight="bold" lengthAdjust="spacing" textLength="13" x="73" y="159.3789">1</text><text fill="#000000" font-family="sans-serif" font-size="20" lengthAdjust="spacing" textLength="211" x="90" y="159.3789">Asks to list properties</text><polygon fill="#181818" points="77,199.1523,67,203.1523,77,207.1523,73,203.1523" style="stroke:#181818;stroke-width:1.0;"/><line style="stroke:#181818;stroke-width:1.0;stroke-dasharray:2.0,2.0;" x1="71" x2="605" y1="203.1523" y2="203.1523"/><text fill="#000000" font-family="sans-serif" font-size="20" font-weight="bold" lengthAdjust="spacing" textLength="13" x="83" y="196.9336">2</text><text fill="#000000" font-family="sans-serif" font-size="20" lengthAdjust="spacing" textLength="392" x="100" y="196.9336">Displays properties by most recent order</text><path d="M10,218.1523 L89,218.1523 L89,233.707 L79,243.707 L10,243.707 L10,218.1523 " fill="#EEEEEE" style="stroke:#000000;stroke-width:1.5;"/><rect fill="none" height="702.2031" style="stroke:#000000;stroke-width:1.5;" width="660" x="10" y="218.1523"/><text fill="#000000" font-family="sans-serif" font-size="20" font-weight="bold" lengthAdjust="spacing" textLength="34" x="25" y="238.4883">opt</text><text fill="#000000" font-family="sans-serif" font-size="20" font-weight="bold" lengthAdjust="spacing" textLength="79" x="104" y="239.4883">[Filters]</text><polygon fill="#181818" points="589,277.8164,599,281.8164,589,285.8164,593,281.8164" style="stroke:#181818;stroke-width:1.0;"/><line style="stroke:#181818;stroke-width:1.0;" x1="66" x2="595" y1="281.8164" y2="281.8164"/><text fill="#000000" font-family="sans-serif" font-size="20" font-weight="bold" lengthAdjust="spacing" textLength="13" x="73" y="275.5977">3</text><text fill="#000000" font-family="sans-serif" font-size="20" lengthAdjust="spacing" textLength="227" x="90" y="275.5977">Asks to filter properties</text><polygon fill="#181818" points="77,315.3711,67,319.3711,77,323.3711,73,319.3711" style="stroke:#181818;stroke-width:1.0;"/><line style="stroke:#181818;stroke-width:1.0;stroke-dasharray:2.0,2.0;" x1="71" x2="605" y1="319.3711" y2="319.3711"/><text fill="#000000" font-family="sans-serif" font-size="20" font-weight="bold" lengthAdjust="spacing" textLength="13" x="83" y="313.1523">4</text><text fill="#000000" font-family="sans-serif" font-size="20" lengthAdjust="spacing" textLength="262" x="100" y="313.1523">Displays sorting criteria list</text><path d="M20,334.3711 L92,334.3711 L92,349.9258 L82,359.9258 L20,359.9258 L20,334.3711 " fill="#EEEEEE" style="stroke:#000000;stroke-width:1.5;"/><rect fill="none" height="71.6641" style="stroke:#000000;stroke-width:1.5;" width="640" x="20" y="334.3711"/><text fill="#000000" font-family="sans-serif" font-size="20" font-weight="bold" lengthAdjust="spacing" textLength="27" x="35" y="354.707">alt</text><text fill="#000000" font-family="sans-serif" font-size="20" font-weight="bold" lengthAdjust="spacing" textLength="170" x="107" y="355.707">[sorting criteria]</text><polygon fill="#181818" points="589,394.0352,599,398.0352,589,402.0352,593,398.0352" style="stroke:#181818;stroke-width:1.0;"/><line style="stroke:#181818;stroke-width:1.0;" x1="66" x2="595" y1="398.0352" y2="398.0352"/><text fill="#000000" font-family="sans-serif" font-size="20" font-weight="bold" lengthAdjust="spacing" textLength="13" x="73" y="391.8164">5</text><text fill="#000000" font-family="sans-serif" font-size="20" lengthAdjust="spacing" textLength="212" x="90" y="391.8164">Selects sorting criteria</text><polygon fill="#181818" points="77,438.5898,67,442.5898,77,446.5898,73,442.5898" style="stroke:#181818;stroke-width:1.0;"/><line style="stroke:#181818;stroke-width:1.0;stroke-dasharray:2.0,2.0;" x1="71" x2="605" y1="442.5898" y2="442.5898"/><text fill="#000000" font-family="sans-serif" font-size="20" font-weight="bold" lengthAdjust="spacing" textLength="13" x="83" y="436.3711">6</text><text fill="#000000" font-family="sans-serif" font-size="20" lengthAdjust="spacing" textLength="292" x="100" y="436.3711">Displays type of property filter</text><path d="M20,457.5898 L92,457.5898 L92,473.1445 L82,483.1445 L20,483.1445 L20,457.5898 " fill="#EEEEEE" style="stroke:#000000;stroke-width:1.5;"/><rect fill="none" height="71.6641" style="stroke:#000000;stroke-width:1.5;" width="640" x="20" y="457.5898"/><text fill="#000000" font-family="sans-serif" font-size="20" font-weight="bold" lengthAdjust="spacing" textLength="27" x="35" y="477.9258">alt</text><text fill="#000000" font-family="sans-serif" font-size="20" font-weight="bold" lengthAdjust="spacing" textLength="183" x="107" y="478.9258">[type of property]</text><polygon fill="#181818" points="589,517.2539,599,521.2539,589,525.2539,593,521.2539" style="stroke:#181818;stroke-width:1.0;"/><line style="stroke:#181818;stroke-width:1.0;" x1="66" x2="595" y1="521.2539" y2="521.2539"/><text fill="#000000" font-family="sans-serif" font-size="20" font-weight="bold" lengthAdjust="spacing" textLength="13" x="73" y="515.0352">7</text><text fill="#000000" font-family="sans-serif" font-size="20" lengthAdjust="spacing" textLength="205" x="90" y="515.0352">Selects property filter</text><polygon fill="#181818" points="77,561.8086,67,565.8086,77,569.8086,73,565.8086" style="stroke:#181818;stroke-width:1.0;"/><line style="stroke:#181818;stroke-width:1.0;stroke-dasharray:2.0,2.0;" x1="71" x2="605" y1="565.8086" y2="565.8086"/><text fill="#000000" font-family="sans-serif" font-size="20" font-weight="bold" lengthAdjust="spacing" textLength="13" x="83" y="559.5898">8</text><text fill="#000000" font-family="sans-serif" font-size="20" lengthAdjust="spacing" textLength="294" x="100" y="559.5898">Displays type of business filter</text><path d="M20,580.8086 L92,580.8086 L92,596.3633 L82,606.3633 L20,606.3633 L20,580.8086 " fill="#EEEEEE" style="stroke:#000000;stroke-width:1.5;"/><rect fill="none" height="71.6641" style="stroke:#000000;stroke-width:1.5;" width="640" x="20" y="580.8086"/><text fill="#000000" font-family="sans-serif" font-size="20" font-weight="bold" lengthAdjust="spacing" textLength="27" x="35" y="601.1445">alt</text><text fill="#000000" font-family="sans-serif" font-size="20" font-weight="bold" lengthAdjust="spacing" textLength="185" x="107" y="602.1445">[type of business]</text><polygon fill="#181818" points="589,640.4727,599,644.4727,589,648.4727,593,644.4727" style="stroke:#181818;stroke-width:1.0;"/><line style="stroke:#181818;stroke-width:1.0;" x1="66" x2="595" y1="644.4727" y2="644.4727"/><text fill="#000000" font-family="sans-serif" font-size="20" font-weight="bold" lengthAdjust="spacing" textLength="13" x="73" y="638.2539">9</text><text fill="#000000" font-family="sans-serif" font-size="20" lengthAdjust="spacing" textLength="207" x="90" y="638.2539">Selects business filter</text><polygon fill="#181818" points="77,685.0273,67,689.0273,77,693.0273,73,689.0273" style="stroke:#181818;stroke-width:1.0;"/><line style="stroke:#181818;stroke-width:1.0;stroke-dasharray:2.0,2.0;" x1="71" x2="605" y1="689.0273" y2="689.0273"/><text fill="#000000" font-family="sans-serif" font-size="20" font-weight="bold" lengthAdjust="spacing" textLength="26" x="83" y="682.8086">10</text><text fill="#000000" font-family="sans-serif" font-size="20" lengthAdjust="spacing" textLength="289" x="113" y="682.8086">Displays number of rooms list</text><path d="M20,704.0273 L92,704.0273 L92,719.582 L82,729.582 L20,729.582 L20,704.0273 " fill="#EEEEEE" style="stroke:#000000;stroke-width:1.5;"/><rect fill="none" height="71.6641" style="stroke:#000000;stroke-width:1.5;" width="640" x="20" y="704.0273"/><text fill="#000000" font-family="sans-serif" font-size="20" font-weight="bold" lengthAdjust="spacing" textLength="27" x="35" y="724.3633">alt</text><text fill="#000000" font-family="sans-serif" font-size="20" font-weight="bold" lengthAdjust="spacing" textLength="193" x="107" y="725.3633">[number of rooms]</text><polygon fill="#181818" points="589,763.6914,599,767.6914,589,771.6914,593,767.6914" style="stroke:#181818;stroke-width:1.0;"/><line style="stroke:#181818;stroke-width:1.0;" x1="66" x2="595" y1="767.6914" y2="767.6914"/><text fill="#000000" font-family="sans-serif" font-size="20" font-weight="bold" lengthAdjust="spacing" textLength="26" x="73" y="761.4727">11</text><text fill="#000000" font-family="sans-serif" font-size="20" lengthAdjust="spacing" textLength="276" x="103" y="761.4727">Selects number of bedrooms</text><polygon fill="#181818" points="77,808.2461,67,812.2461,77,816.2461,73,812.2461" style="stroke:#181818;stroke-width:1.0;"/><line style="stroke:#181818;stroke-width:1.0;stroke-dasharray:2.0,2.0;" x1="71" x2="605" y1="812.2461" y2="812.2461"/><text fill="#000000" font-family="sans-serif" font-size="20" font-weight="bold" lengthAdjust="spacing" textLength="26" x="83" y="806.0273">12</text><text fill="#000000" font-family="sans-serif" font-size="20" lengthAdjust="spacing" textLength="214" x="113" y="806.0273">Displays selected data</text><polygon fill="#181818" points="589,845.8008,599,849.8008,589,853.8008,593,849.8008" style="stroke:#181818;stroke-width:1.0;"/><line style="stroke:#181818;stroke-width:1.0;" x1="66" x2="595" y1="849.8008" y2="849.8008"/><text fill="#000000" font-family="sans-serif" font-size="20" font-weight="bold" lengthAdjust="spacing" textLength="26" x="73" y="843.582">13</text><text fill="#000000" font-family="sans-serif" font-size="20" lengthAdjust="spacing" textLength="126" x="103" y="843.582">Submits data</text><polygon fill="#181818" points="77,883.3555,67,887.3555,77,891.3555,73,887.3555" style="stroke:#181818;stroke-width:1.0;"/><line style="stroke:#181818;stroke-width:1.0;stroke-dasharray:2.0,2.0;" x1="71" x2="605" y1="887.3555" y2="887.3555"/><text fill="#000000" font-family="sans-serif" font-size="20" font-weight="bold" lengthAdjust="spacing" textLength="26" x="83" y="881.1367">14</text><text fill="#000000" font-family="sans-serif" font-size="20" lengthAdjust="spacing" textLength="396" x="113" y="881.1367">Displays all properties that suit the filters</text><path d="M20,934.3555 L92,934.3555 L92,949.9102 L82,959.9102 L20,959.9102 L20,934.3555 " fill="#EEEEEE" style="stroke:#000000;stroke-width:1.5;"/><rect fill="none" height="71.6641" style="stroke:#000000;stroke-width:1.5;" width="640" x="20" y="934.3555"/><text fill="#000000" font-family="sans-serif" font-size="20" font-weight="bold" lengthAdjust="spacing" textLength="27" x="35" y="954.6914">alt</text><text fill="#000000" font-family="sans-serif" font-size="20" font-weight="bold" lengthAdjust="spacing" textLength="103" x="107" y="955.6914">[property]</text><polygon fill="#181818" points="589,994.0195,599,998.0195,589,1002.0195,593,998.0195" style="stroke:#181818;stroke-width:1.0;"/><line style="stroke:#181818;stroke-width:1.0;" x1="66" x2="595" y1="998.0195" y2="998.0195"/><text fill="#000000" font-family="sans-serif" font-size="20" font-weight="bold" lengthAdjust="spacing" textLength="26" x="73" y="991.8008">15</text><text fill="#000000" font-family="sans-serif" font-size="20" lengthAdjust="spacing" textLength="171" x="103" y="991.8008">Selects a property</text><polygon fill="#181818" points="77,1038.5742,67,1042.5742,77,1046.5742,73,1042.5742" style="stroke:#181818;stroke-width:1.0;"/><line style="stroke:#181818;stroke-width:1.0;stroke-dasharray:2.0,2.0;" x1="71" x2="605" y1="1042.5742" y2="1042.5742"/><text fill="#000000" font-family="sans-serif" font-size="20" font-weight="bold" lengthAdjust="spacing" textLength="26" x="83" y="1036.3555">16</text><text fill="#000000" font-family="sans-serif" font-size="20" lengthAdjust="spacing" textLength="233" x="113" y="1036.3555">Shows selected property</text><polygon fill="#181818" points="589,1076.1289,599,1080.1289,589,1084.1289,593,1080.1289" style="stroke:#181818;stroke-width:1.0;"/><line style="stroke:#181818;stroke-width:1.0;" x1="66" x2="595" y1="1080.1289" y2="1080.1289"/><text fill="#000000" font-family="sans-serif" font-size="20" font-weight="bold" lengthAdjust="spacing" textLength="26" x="73" y="1073.9102">17</text><text fill="#000000" font-family="sans-serif" font-size="20" lengthAdjust="spacing" textLength="408" x="103" y="1073.9102">Asks to send a message to schedule a visit</text><polygon fill="#181818" points="77,1113.6836,67,1117.6836,77,1121.6836,73,1117.6836" style="stroke:#181818;stroke-width:1.0;"/><line style="stroke:#181818;stroke-width:1.0;stroke-dasharray:2.0,2.0;" x1="71" x2="605" y1="1117.6836" y2="1117.6836"/><text fill="#000000" font-family="sans-serif" font-size="20" font-weight="bold" lengthAdjust="spacing" textLength="26" x="83" y="1111.4648">18</text><text fill="#000000" font-family="sans-serif" font-size="20" lengthAdjust="spacing" textLength="222" x="113" y="1111.4648">Requests a date of visit</text><polygon fill="#181818" points="589,1151.2383,599,1155.2383,589,1159.2383,593,1155.2383" style="stroke:#181818;stroke-width:1.0;"/><line style="stroke:#181818;stroke-width:1.0;" x1="66" x2="595" y1="1155.2383" y2="1155.2383"/><text fill="#000000" font-family="sans-serif" font-size="20" font-weight="bold" lengthAdjust="spacing" textLength="26" x="73" y="1149.0195">19</text><text fill="#000000" font-family="sans-serif" font-size="20" lengthAdjust="spacing" textLength="365" x="103" y="1149.0195">Types the year, month and day to visit</text><polygon fill="#181818" points="77,1188.793,67,1192.793,77,1196.793,73,1192.793" style="stroke:#181818;stroke-width:1.0;"/><line style="stroke:#181818;stroke-width:1.0;stroke-dasharray:2.0,2.0;" x1="71" x2="605" y1="1192.793" y2="1192.793"/><text fill="#000000" font-family="sans-serif" font-size="20" font-weight="bold" lengthAdjust="spacing" textLength="26" x="83" y="1186.5742">20</text><text fill="#000000" font-family="sans-serif" font-size="20" lengthAdjust="spacing" textLength="308" x="113" y="1186.5742">Requests a time to start the visit</text><polygon fill="#181818" points="589,1226.3477,599,1230.3477,589,1234.3477,593,1230.3477" style="stroke:#181818;stroke-width:1.0;"/><line style="stroke:#181818;stroke-width:1.0;" x1="66" x2="595" y1="1230.3477" y2="1230.3477"/><text fill="#000000" font-family="sans-serif" font-size="20" font-weight="bold" lengthAdjust="spacing" textLength="26" x="73" y="1224.1289">21</text><text fill="#000000" font-family="sans-serif" font-size="20" lengthAdjust="spacing" textLength="300" x="103" y="1224.1289">Types hour and minute desired</text><polygon fill="#181818" points="77,1263.9023,67,1267.9023,77,1271.9023,73,1267.9023" style="stroke:#181818;stroke-width:1.0;"/><line style="stroke:#181818;stroke-width:1.0;stroke-dasharray:2.0,2.0;" x1="71" x2="605" y1="1267.9023" y2="1267.9023"/><text fill="#000000" font-family="sans-serif" font-size="20" font-weight="bold" lengthAdjust="spacing" textLength="26" x="83" y="1261.6836">22</text><text fill="#000000" font-family="sans-serif" font-size="20" lengthAdjust="spacing" textLength="301" x="113" y="1261.6836">Requests a time to end the visit</text><polygon fill="#181818" points="589,1301.457,599,1305.457,589,1309.457,593,1305.457" style="stroke:#181818;stroke-width:1.0;"/><line style="stroke:#181818;stroke-width:1.0;" x1="66" x2="595" y1="1305.457" y2="1305.457"/><text fill="#000000" font-family="sans-serif" font-size="20" font-weight="bold" lengthAdjust="spacing" textLength="26" x="73" y="1299.2383">23</text><text fill="#000000" font-family="sans-serif" font-size="20" lengthAdjust="spacing" textLength="300" x="103" y="1299.2383">Types hour and minute desired</text><polygon fill="#181818" points="77,1339.0117,67,1343.0117,77,1347.0117,73,1343.0117" style="stroke:#181818;stroke-width:1.0;"/><line style="stroke:#181818;stroke-width:1.0;stroke-dasharray:2.0,2.0;" x1="71" x2="605" y1="1343.0117" y2="1343.0117"/><text fill="#000000" font-family="sans-serif" font-size="20" font-weight="bold" lengthAdjust="spacing" textLength="26" x="83" y="1336.793">24</text><text fill="#000000" font-family="sans-serif" font-size="20" lengthAdjust="spacing" textLength="427" x="113" y="1336.793">Displays message typed and asks to confirm</text><polygon fill="#181818" points="589,1400.1211,599,1404.1211,589,1408.1211,593,1404.1211" style="stroke:#181818;stroke-width:1.0;"/><line style="stroke:#181818;stroke-width:1.0;" x1="66" x2="595" y1="1404.1211" y2="1404.1211"/><text fill="#000000" font-family="sans-serif" font-size="20" font-weight="bold" lengthAdjust="spacing" textLength="26" x="73" y="1386.125">25</text><text fill="#000000" font-family="sans-serif" font-size="20" lengthAdjust="spacing" textLength="372" x="103" y="1374.3477">Submits request(name, phoneNumber,</text><text fill="#000000" font-family="sans-serif" font-size="20" lengthAdjust="spacing" textLength="480" x="109" y="1397.9023">dateOfVisit, timeSlotStart, timeSlotStart, message)</text><polygon fill="#181818" points="72,1437.6758,62,1441.6758,72,1445.6758,68,1441.6758" style="stroke:#181818;stroke-width:1.0;"/><line style="stroke:#181818;stroke-width:1.0;stroke-dasharray:2.0,2.0;" x1="66" x2="605" y1="1441.6758" y2="1441.6758"/><text fill="#000000" font-family="sans-serif" font-size="20" font-weight="bold" lengthAdjust="spacing" textLength="26" x="78" y="1435.457">26</text><text fill="#000000" font-family="sans-serif" font-size="20" lengthAdjust="spacing" textLength="258" x="108" y="1435.457">Displays operation success</text><!--SRC=[nLRBRjim4BphAnO-9O0D6BtLXm95WnnRe6fxwcKjhIt25AcIgmGg_F5TKfBVLkGaG7NIWpCxCroIyXjbAdHOQfjjA8USLbXhVhI6K_MNuCCyyVqGAAsnMU5iIS2kfeCl5MORN5FAZIPmb36QjJuSu0lCxRCoQrYXzfGah5Y6ferdAY6bFpMPZE11uJeClqlJXtkOmSyKvlEFIO8rMrENIt9odx5rCFcY5HcU07feRnEfn2fJ5Hg6oQAbZj_RsuXKJyZK0v84v6eVOFQfLxE0ptxZWIrevHagPoiIPl9n-8waPmqlE-HCI3gwXNZnbSR67n30if4GXLCY2eEiouEZm60hXaUbcLnR9gUBXGR4hY9wbDp-6fJjhR38X6LE2Q_2cCOEVgulLjDyXZkgU45_IbeQnb_7NIf49az6kU2c8h2hFfQcYsaeus3Y53RMnAKox-PXMNjboFiRFVImiHukbHdoCCv4kto37cTjwVVTTBsJJY1ZzUzXIygFaM-pu6E1i4iYur3wrmJMorA9m1tyAdXG1cfzkATmWRBeQYKJNb0tPuDxo7QxtHiFEPyr-K2uU3pwjC2BOQQ5VJv8yeZizZtFIpsHL4gtol4JtsG5vRKSBGXFoYk-FUVluJ3oqMeUCD97UwRn4d_8wlDnIXf2Dms79nU09dHF4vIEaFUIFbPbQvhbw8krNg-qiBMByafbQW7bv9MZ_7q4Xcdw3_86bz6kQOG_ZzJOTLLcpKgvyaQT_UfshVqxWoLDeIgieQznHvh-Dh6Zlgr-XHYcCPrKMqx3z9qzTlhkts0nh2raPOti3rdM7m4NB1sywlwD_W40]--></g></svg>