<?xml version="1.0" encoding="UTF-8" standalone="no"?><svg xmlns="http://www.w3.org/2000/svg" xmlns:xlink="http://www.w3.org/1999/xlink" contentStyleType="text/css" height="1275px" preserveAspectRatio="none" style="width:2655px;height:1275px;background:#FFFFFF;" version="1.1" viewBox="0 0 2655 1275" width="2655px" zoomAndPan="magnify"><defs/><g><text fill="#000000" font-family="sans-serif" font-size="14" font-weight="bold" lengthAdjust="spacing" textLength="105" x="1268.14" y="23.5352">Domain Model</text><!--class Store--><g id="elem_Store"><rect codeLine="7" fill="#F1F1F1" height="112.2188" id="Store" rx="2.5" ry="2.5" style="stroke:#181818;stroke-width:0.5;" width="185" x="191.78" y="1006.4883"/><text fill="#000000" font-family="sans-serif" font-size="20" lengthAdjust="spacing" textLength="49" x="259.78" y="1030.8242">Store</text><line style="stroke:#181818;stroke-width:0.5;" x1="192.78" x2="375.78" y1="1040.043" y2="1040.043"/><text fill="#000000" font-family="sans-serif" font-size="20" lengthAdjust="spacing" textLength="112" x="197.78" y="1063.3789">designation</text><text fill="#000000" font-family="sans-serif" font-size="20" lengthAdjust="spacing" textLength="132" x="197.78" y="1086.9336">emailAddress</text><text fill="#000000" font-family="sans-serif" font-size="20" lengthAdjust="spacing" textLength="173" x="197.78" y="1110.4883">telephoneNumber</text></g><!--class Employee--><g id="elem_Employee"><rect codeLine="12" fill="#F1F1F1" height="33.5547" id="Employee" rx="2.5" ry="2.5" style="stroke:#181818;stroke-width:0.5;" width="99" x="234.78" y="651.4883"/><text fill="#000000" font-family="sans-serif" font-size="20" lengthAdjust="spacing" textLength="93" x="237.78" y="675.8242">Employee</text></g><!--class SystemAdministrator--><g id="elem_SystemAdministrator"><rect codeLine="14" fill="#F1F1F1" height="33.5547" id="SystemAdministrator" rx="2.5" ry="2.5" style="stroke:#181818;stroke-width:0.5;" width="207" x="180.78" y="848.4883"/><text fill="#000000" font-family="sans-serif" font-size="20" lengthAdjust="spacing" textLength="201" x="183.78" y="872.8242">SystemAdministrator</text></g><!--class Agent--><g id="elem_Agent"><rect codeLine="16" fill="#F1F1F1" height="33.5547" id="Agent" rx="2.5" ry="2.5" style="stroke:#181818;stroke-width:0.5;" width="62" x="1645.28" y="848.4883"/><text fill="#000000" font-family="sans-serif" font-size="20" lengthAdjust="spacing" textLength="56" x="1648.28" y="872.8242">Agent</text></g><!--class Owner--><g id="elem_Owner"><rect codeLine="18" fill="#F1F1F1" height="33.5547" id="Owner" rx="2.5" ry="2.5" style="stroke:#181818;stroke-width:0.5;" width="68" x="1174.28" y="651.4883"/><text fill="#000000" font-family="sans-serif" font-size="20" lengthAdjust="spacing" textLength="62" x="1177.28" y="675.8242">Owner</text></g><!--class Client--><g id="elem_Client"><rect codeLine="20" fill="#F1F1F1" height="33.5547" id="Client" rx="2.5" ry="2.5" style="stroke:#181818;stroke-width:0.5;" width="62" x="1835.28" y="1045.4883"/><text fill="#000000" font-family="sans-serif" font-size="20" lengthAdjust="spacing" textLength="56" x="1838.28" y="1069.8242">Client</text></g><!--class Person--><g id="elem_Person"><rect codeLine="22" fill="#F1F1F1" height="112.2188" id="Person" rx="2.5" ry="2.5" style="stroke:#181818;stroke-width:0.5;" width="185" x="533.78" y="612.4883"/><text fill="#000000" font-family="sans-serif" font-size="20" lengthAdjust="spacing" textLength="64" x="594.28" y="636.8242">Person</text><line style="stroke:#181818;stroke-width:0.5;" x1="534.78" x2="717.78" y1="646.043" y2="646.043"/><text fill="#000000" font-family="sans-serif" font-size="20" lengthAdjust="spacing" textLength="53" x="539.78" y="669.3789">name</text><text fill="#000000" font-family="sans-serif" font-size="20" lengthAdjust="spacing" textLength="132" x="539.78" y="692.9336">emailAddress</text><text fill="#000000" font-family="sans-serif" font-size="20" lengthAdjust="spacing" textLength="173" x="539.78" y="716.4883">telephoneNumber</text></g><!--class Role--><g id="elem_Role"><rect codeLine="28" fill="#F1F1F1" height="65.1094" id="Role" rx="2.5" ry="2.5" style="stroke:#181818;stroke-width:0.5;" width="124" x="347.28" y="438.9883"/><text fill="#000000" font-family="sans-serif" font-size="20" lengthAdjust="spacing" textLength="42" x="388.28" y="463.3242">Role</text><line style="stroke:#181818;stroke-width:0.5;" x1="348.28" x2="470.28" y1="472.543" y2="472.543"/><text fill="#000000" font-family="sans-serif" font-size="20" lengthAdjust="spacing" textLength="112" x="353.28" y="495.8789">designation</text></g><!--class AdvertisementRequest--><g id="elem_AdvertisementRequest"><rect codeLine="32" fill="#F1F1F1" height="88.6641" id="AdvertisementRequest" rx="2.5" ry="2.5" style="stroke:#181818;stroke-width:0.5;" width="222" x="1381.28" y="623.9883"/><text fill="#000000" font-family="sans-serif" font-size="20" lengthAdjust="spacing" textLength="216" x="1384.28" y="648.3242">AdvertisementRequest</text><line style="stroke:#181818;stroke-width:0.5;" x1="1382.28" x2="1602.28" y1="657.543" y2="657.543"/><text fill="#000000" font-family="sans-serif" font-size="20" lengthAdjust="spacing" textLength="48" x="1387.28" y="680.8789">price</text><text fill="#000000" font-family="sans-serif" font-size="20" lengthAdjust="spacing" textLength="142" x="1387.28" y="704.4336">dateOfRequest</text></g><!--class TypeOfBusiness--><g id="elem_TypeOfBusiness"><rect codeLine="37" fill="#F1F1F1" height="65.1094" id="TypeOfBusiness" rx="2.5" ry="2.5" style="stroke:#181818;stroke-width:0.5;" width="159" x="1415.78" y="832.9883"/><text fill="#000000" font-family="sans-serif" font-size="20" lengthAdjust="spacing" textLength="153" x="1418.78" y="857.3242">TypeOfBusiness</text><line style="stroke:#181818;stroke-width:0.5;" x1="1416.78" x2="1573.78" y1="866.543" y2="866.543"/><text fill="#000000" font-family="sans-serif" font-size="20" lengthAdjust="spacing" textLength="112" x="1421.78" y="889.8789">designation</text></g><!--class Advertisement--><g id="elem_Advertisement"><rect codeLine="41" fill="#F1F1F1" height="65.1094" id="Advertisement" rx="2.5" ry="2.5" style="stroke:#181818;stroke-width:0.5;" width="216" x="1264.28" y="1203.4883"/><text fill="#000000" font-family="sans-serif" font-size="20" lengthAdjust="spacing" textLength="139" x="1302.78" y="1227.8242">Advertisement</text><line style="stroke:#181818;stroke-width:0.5;" x1="1265.28" x2="1479.28" y1="1237.043" y2="1237.043"/><text fill="#000000" font-family="sans-serif" font-size="20" lengthAdjust="spacing" textLength="204" x="1270.28" y="1260.3789">dateOfAdvertisement</text></g><!--class Property--><g id="elem_Property"><rect codeLine="45" fill="#F1F1F1" height="88.6641" id="Property" rx="2.5" ry="2.5" style="stroke:#181818;stroke-width:0.5;" width="192" x="1726.28" y="44.4883"/><text fill="#000000" font-family="sans-serif" font-size="20" lengthAdjust="spacing" textLength="80" x="1782.28" y="68.8242">Property</text><line style="stroke:#181818;stroke-width:0.5;" x1="1727.28" x2="1917.28" y1="78.043" y2="78.043"/><text fill="#000000" font-family="sans-serif" font-size="20" lengthAdjust="spacing" textLength="41" x="1732.28" y="101.3789">area</text><text fill="#000000" font-family="sans-serif" font-size="20" lengthAdjust="spacing" textLength="180" x="1732.28" y="124.9336">distanceCityCentre</text></g><!--class Residence--><g id="elem_Residence"><rect codeLine="50" fill="#F1F1F1" height="112.2188" id="Residence" rx="2.5" ry="2.5" style="stroke:#181818;stroke-width:0.5;" width="248" x="1826.28" y="218.4883"/><text fill="#000000" font-family="sans-serif" font-size="20" lengthAdjust="spacing" textLength="97" x="1901.78" y="242.8242">Residence</text><line style="stroke:#181818;stroke-width:0.5;" x1="1827.28" x2="2073.28" y1="252.043" y2="252.043"/><text fill="#000000" font-family="sans-serif" font-size="20" lengthAdjust="spacing" textLength="195" x="1832.28" y="275.3789">numberOfBedrooms</text><text fill="#000000" font-family="sans-serif" font-size="20" lengthAdjust="spacing" textLength="201" x="1832.28" y="298.9336">numberOfBathrooms</text><text fill="#000000" font-family="sans-serif" font-size="20" lengthAdjust="spacing" textLength="236" x="1832.28" y="322.4883">numberOfParkingSpaces</text></g><!--class House--><g id="elem_House"><rect codeLine="56" fill="#F1F1F1" height="112.2188" id="House" rx="2.5" ry="2.5" style="stroke:#181818;stroke-width:0.5;" width="270" x="2088.28" y="415.4883"/><text fill="#000000" font-family="sans-serif" font-size="20" lengthAdjust="spacing" textLength="60" x="2193.28" y="439.8242">House</text><line style="stroke:#181818;stroke-width:0.5;" x1="2089.28" x2="2357.28" y1="449.043" y2="449.043"/><text fill="#000000" font-family="sans-serif" font-size="20" lengthAdjust="spacing" textLength="206" x="2094.28" y="472.3789">existenceOfBasement</text><text fill="#000000" font-family="sans-serif" font-size="20" lengthAdjust="spacing" textLength="258" x="2094.28" y="495.9336">existenceOfInhabitableLoft</text><text fill="#000000" font-family="sans-serif" font-size="20" lengthAdjust="spacing" textLength="123" x="2094.28" y="519.4883">sunExposure</text></g><!--class Address--><g id="elem_Address"><rect codeLine="62" fill="#F1F1F1" height="112.2188" id="Address" rx="2.5" ry="2.5" style="stroke:#181818;stroke-width:0.5;" width="85" x="764.78" y="809.4883"/><text fill="#000000" font-family="sans-serif" font-size="20" lengthAdjust="spacing" textLength="79" x="767.78" y="833.8242">Address</text><line style="stroke:#181818;stroke-width:0.5;" x1="765.78" x2="848.78" y1="843.043" y2="843.043"/><text fill="#000000" font-family="sans-serif" font-size="20" lengthAdjust="spacing" textLength="46" x="770.78" y="866.3789">state</text><text fill="#000000" font-family="sans-serif" font-size="20" lengthAdjust="spacing" textLength="67" x="770.78" y="889.9336">district</text><text fill="#000000" font-family="sans-serif" font-size="20" lengthAdjust="spacing" textLength="33" x="770.78" y="913.4883">city</text></g><!--class Photograph--><g id="elem_Photograph"><rect codeLine="69" fill="#F1F1F1" height="65.1094" id="Photograph" rx="2.5" ry="2.5" style="stroke:#181818;stroke-width:0.5;" width="116" x="2180.28" y="241.9883"/><text fill="#000000" font-family="sans-serif" font-size="20" lengthAdjust="spacing" textLength="110" x="2183.28" y="266.3242">Photograph</text><line style="stroke:#181818;stroke-width:0.5;" x1="2181.28" x2="2295.28" y1="275.543" y2="275.543"/><text fill="#000000" font-family="sans-serif" font-size="20" lengthAdjust="spacing" textLength="69" x="2186.28" y="298.8789">linkURI</text></g><!--class SocialSecurityCard--><g id="elem_SocialSecurityCard"><rect codeLine="73" fill="#F1F1F1" height="65.1094" id="SocialSecurityCard" rx="2.5" ry="2.5" style="stroke:#181818;stroke-width:0.5;" width="183" x="546.78" y="832.9883"/><text fill="#000000" font-family="sans-serif" font-size="20" lengthAdjust="spacing" textLength="177" x="549.78" y="857.3242">SocialSecurityCard</text><line style="stroke:#181818;stroke-width:0.5;" x1="547.78" x2="728.78" y1="866.543" y2="866.543"/><text fill="#000000" font-family="sans-serif" font-size="20" lengthAdjust="spacing" textLength="108" x="552.78" y="889.8789">taxNumber</text></g><!--class Passport--><g id="elem_Passport"><rect codeLine="77" fill="#F1F1F1" height="65.1094" id="Passport" rx="2.5" ry="2.5" style="stroke:#181818;stroke-width:0.5;" width="88" x="423.28" y="832.9883"/><text fill="#000000" font-family="sans-serif" font-size="20" lengthAdjust="spacing" textLength="82" x="426.28" y="857.3242">Passport</text><line style="stroke:#181818;stroke-width:0.5;" x1="424.28" x2="510.28" y1="866.543" y2="866.543"/><text fill="#000000" font-family="sans-serif" font-size="20" lengthAdjust="spacing" textLength="75" x="429.28" y="889.8789">number</text></g><!--class Equipment--><g id="elem_Equipment"><rect codeLine="81" fill="#F1F1F1" height="65.1094" id="Equipment" rx="2.5" ry="2.5" style="stroke:#181818;stroke-width:0.5;" width="124" x="1929.28" y="438.9883"/><text fill="#000000" font-family="sans-serif" font-size="20" lengthAdjust="spacing" textLength="104" x="1939.28" y="463.3242">Equipment</text><line style="stroke:#181818;stroke-width:0.5;" x1="1930.28" x2="2052.28" y1="472.543" y2="472.543"/><text fill="#000000" font-family="sans-serif" font-size="20" lengthAdjust="spacing" textLength="112" x="1935.28" y="495.8789">designation</text></g><!--class TypeOfCommission--><g id="elem_TypeOfCommission"><rect codeLine="85" fill="#F1F1F1" height="65.1094" id="TypeOfCommission" rx="2.5" ry="2.5" style="stroke:#181818;stroke-width:0.5;" width="196" x="985.28" y="1203.4883"/><text fill="#000000" font-family="sans-serif" font-size="20" lengthAdjust="spacing" textLength="190" x="988.28" y="1227.8242">TypeOfCommission</text><line style="stroke:#181818;stroke-width:0.5;" x1="986.28" x2="1180.28" y1="1237.043" y2="1237.043"/><text fill="#000000" font-family="sans-serif" font-size="20" lengthAdjust="spacing" textLength="112" x="991.28" y="1260.3789">designation</text></g><!--class TypeOfProperty--><g id="elem_TypeOfProperty"><rect codeLine="89" fill="#F1F1F1" height="65.1094" id="TypeOfProperty" rx="2.5" ry="2.5" style="stroke:#181818;stroke-width:0.5;" width="156" x="2331.28" y="241.9883"/><text fill="#000000" font-family="sans-serif" font-size="20" lengthAdjust="spacing" textLength="150" x="2334.28" y="266.3242">TypeOfProperty</text><line style="stroke:#181818;stroke-width:0.5;" x1="2332.28" x2="2486.28" y1="275.543" y2="275.543"/><text fill="#000000" font-family="sans-serif" font-size="20" lengthAdjust="spacing" textLength="112" x="2337.28" y="298.8789">designation</text></g><!--class Commission--><g id="elem_Commission"><rect codeLine="93" fill="#F1F1F1" height="65.1094" id="Commission" rx="2.5" ry="2.5" style="stroke:#181818;stroke-width:0.5;" width="126" x="1309.28" y="1029.9883"/><text fill="#000000" font-family="sans-serif" font-size="20" lengthAdjust="spacing" textLength="120" x="1312.28" y="1054.3242">Commission</text><line style="stroke:#181818;stroke-width:0.5;" x1="1310.28" x2="1434.28" y1="1063.543" y2="1063.543"/><text fill="#000000" font-family="sans-serif" font-size="20" lengthAdjust="spacing" textLength="50" x="1315.28" y="1086.8789">value</text></g><!--class PropertyVisit--><g id="elem_PropertyVisit"><rect codeLine="97" fill="#F1F1F1" height="33.5547" id="PropertyVisit" rx="2.5" ry="2.5" style="stroke:#181818;stroke-width:0.5;" width="128" x="1878.28" y="651.4883"/><text fill="#000000" font-family="sans-serif" font-size="20" lengthAdjust="spacing" textLength="122" x="1881.28" y="675.8242">PropertyVisit</text></g><!--class PropertyVisitRequest--><g id="elem_PropertyVisitRequest"><rect codeLine="100" fill="#F1F1F1" height="112.2188" id="PropertyVisitRequest" rx="2.5" ry="2.5" style="stroke:#181818;stroke-width:0.5;" width="205" x="2047.78" y="612.4883"/><text fill="#000000" font-family="sans-serif" font-size="20" lengthAdjust="spacing" textLength="199" x="2050.78" y="636.8242">PropertyVisitRequest</text><line style="stroke:#181818;stroke-width:0.5;" x1="2048.78" x2="2251.78" y1="646.043" y2="646.043"/><text fill="#000000" font-family="sans-serif" font-size="20" lengthAdjust="spacing" textLength="79" x="2053.78" y="669.3789">timeSlot</text><text fill="#000000" font-family="sans-serif" font-size="20" lengthAdjust="spacing" textLength="107" x="2053.78" y="692.9336">dateOfVisit</text><text fill="#000000" font-family="sans-serif" font-size="20" lengthAdjust="spacing" textLength="142" x="2053.78" y="716.4883">dateOfRequest</text></g><!--class Order--><g id="elem_Order"><rect codeLine="107" fill="#F1F1F1" height="65.1094" id="Order" rx="2.5" ry="2.5" style="stroke:#181818;stroke-width:0.5;" width="62" x="2288.28" y="1203.4883"/><text fill="#000000" font-family="sans-serif" font-size="20" lengthAdjust="spacing" textLength="56" x="2291.28" y="1227.8242">Order</text><line style="stroke:#181818;stroke-width:0.5;" x1="2289.28" x2="2349.28" y1="1237.043" y2="1237.043"/><text fill="#000000" font-family="sans-serif" font-size="20" lengthAdjust="spacing" textLength="50" x="2294.28" y="1260.3789">value</text></g><!--link Property to Agent--><g id="link_Property_Agent"><path codeLine="111" d="M1810.76,133.7083 C1794.63,195.9683 1765.07,313.8883 1745.28,415.4883 C1712.56,583.4683 1685.73,789.2883 1678.32,848.0983 " fill="none" id="Property-Agent" style="stroke:#181818;stroke-width:1.0;"/><polygon fill="#000000" points="1754.7383,463.8997,1747.4767,477.2722,1756.7237,478.9865,1754.7383,463.8997" style="stroke:#000000;stroke-width:1.0;"/><text fill="#000000" font-family="sans-serif" font-size="20" lengthAdjust="spacing" textLength="145" x="1766.28" y="479.3242">responsible for</text><text fill="#000000" font-family="sans-serif" font-size="20" lengthAdjust="spacing" textLength="10" x="1798.5401" y="160.6586">*</text><text fill="#000000" font-family="sans-serif" font-size="20" lengthAdjust="spacing" textLength="13" x="1664.0099" y="836.0947">1</text></g><!--link Property to Client--><g id="link_Property_Client"><path codeLine="112" d="M1918.37,120.5783 C1973.72,141.6683 2042.06,173.9983 2092.28,218.4883 C2136.39,257.5683 2117.93,292.8483 2163.28,330.4883 C2241.71,395.5883 2310.02,338.0383 2376.28,415.4883 C2421.77,468.6583 2411.28,499.0183 2411.28,568.9883 C2411.28,568.9883 2411.28,568.9883 2411.28,866.4883 C2411.28,976.3983 2013.34,1040.8583 1897.54,1057.2883 " fill="none" id="Property-Client" style="stroke:#181818;stroke-width:1.0;"/><polygon fill="#000000" points="2419.4579,562.2676,2414.435,576.6316,2423.8372,576.8407,2419.4579,562.2676" style="stroke:#000000;stroke-width:1.0;"/><text fill="#000000" font-family="sans-serif" font-size="20" lengthAdjust="spacing" textLength="49" x="2432.28" y="577.8242">visits</text><text fill="#000000" font-family="sans-serif" font-size="20" lengthAdjust="spacing" textLength="10" x="1926.4256" y="118.5506">*</text><text fill="#000000" font-family="sans-serif" font-size="20" lengthAdjust="spacing" textLength="13" x="1905.328" y="1050.283">1</text></g><!--link Property to Address--><g id="link_Property_Address"><path codeLine="113" d="M1726.11,92.3883 C1545.52,97.9883 1162.82,115.2983 1040.28,163.4883 C965.66,192.8383 897.28,193.3083 897.28,273.4883 C897.28,273.4883 897.28,273.4883 897.28,669.4883 C897.28,720.0083 872.07,771.6783 848.33,809.1283 " fill="none" id="Property-Address" style="stroke:#181818;stroke-width:1.0;"/><polygon fill="#000000" points="899.0833,476.8254,913.2673,471.3145,907.3191,464.0299,899.0833,476.8254" style="stroke:#000000;stroke-width:1.0;"/><text fill="#000000" font-family="sans-serif" font-size="20" lengthAdjust="spacing" textLength="94" x="918.28" y="479.3242">located at</text><text fill="#000000" font-family="sans-serif" font-size="20" lengthAdjust="spacing" textLength="13" x="1705.2493" y="88.1382">1</text><text fill="#000000" font-family="sans-serif" font-size="20" lengthAdjust="spacing" textLength="13" x="839.5408" y="797.2143">1</text></g><!--link Property to Owner--><g id="link_Property_Owner"><path codeLine="114" d="M1725.99,130.8083 C1680.51,152.8283 1627.14,182.8283 1585.28,218.4883 C1415.59,363.0383 1260.33,588.8583 1219,651.1183 " fill="none" id="Property-Owner" style="stroke:#181818;stroke-width:1.0;"/><polygon fill="#000000" points="1453.863,367.5359,1440.3954,374.6194,1447.1311,381.1827,1453.863,367.5359" style="stroke:#000000;stroke-width:1.0;"/><text fill="#000000" font-family="sans-serif" font-size="20" lengthAdjust="spacing" textLength="49" x="1461.28" y="380.8242">owns</text><text fill="#000000" font-family="sans-serif" font-size="20" lengthAdjust="spacing" textLength="35" x="1683.3447" y="129.2113">1..*</text><text fill="#000000" font-family="sans-serif" font-size="20" lengthAdjust="spacing" textLength="13" x="1207.2396" y="639.1205">1</text></g><!--link Property to Photograph--><g id="link_Property_Photograph"><path codeLine="115" d="M1918.4,95.1283 C1986.86,102.5583 2078.69,120.4883 2148.28,163.4883 C2179.45,182.7483 2204.74,216.6783 2220.49,241.7783 " fill="none" id="Property-Photograph" style="stroke:#181818;stroke-width:1.0;"/><polygon fill="#000000" points="2178.0832,172.7719,2189.0488,183.3223,2193.1559,174.8619,2178.0832,172.7719" style="stroke:#000000;stroke-width:1.0;"/><text fill="#000000" font-family="sans-serif" font-size="20" lengthAdjust="spacing" textLength="94" x="2198.28" y="183.8242">illustrates</text><text fill="#000000" font-family="sans-serif" font-size="20" lengthAdjust="spacing" textLength="13" x="1926.2568" y="91.0879">1</text><text fill="#000000" font-family="sans-serif" font-size="20" lengthAdjust="spacing" textLength="51" x="2161.2378" y="229.7291">1..30</text></g><!--link Property to Advertisement--><g id="link_Property_Advertisement"><path codeLine="116" d="M1726.27,112.4983 C1650.63,132.9083 1544.42,167.6383 1461.28,218.4883 C1195.91,380.7883 1025.28,454.9283 1025.28,765.9883 C1025.28,765.9883 1025.28,765.9883 1025.28,1063.4883 C1025.28,1135.1883 1080.58,1138.7183 1143.28,1173.4883 C1180.27,1193.9983 1224.46,1207.9583 1264.11,1217.3083 " fill="none" id="Property-Advertisement" style="stroke:#181818;stroke-width:1.0;"/><polygon fill="#000000" points="1054.3673,661.3853,1044.4443,672.9217,1053.1204,676.5511,1054.3673,661.3853" style="stroke:#000000;stroke-width:1.0;"/><text fill="#000000" font-family="sans-serif" font-size="20" lengthAdjust="spacing" textLength="92" x="1064.28" y="676.3242">describes</text><text fill="#000000" font-family="sans-serif" font-size="20" lengthAdjust="spacing" textLength="13" x="1705.4216" y="109.7878">1</text><text fill="#000000" font-family="sans-serif" font-size="20" lengthAdjust="spacing" textLength="13" x="1243.4056" y="1211.6315">1</text></g><!--link Property to TypeOfProperty--><g id="link_Property_TypeOfProperty"><path codeLine="117" d="M1918.44,97.5283 C2038.54,108.1883 2236.18,130.1383 2301.28,163.4883 C2337.01,181.7883 2367.95,216.4083 2387.44,241.9383 " fill="none" id="Property-TypeOfProperty" style="stroke:#181818;stroke-width:1.0;"/><polygon fill="#000000" points="2350.9258,178.6198,2338.4782,169.867,2335.7107,178.8551,2350.9258,178.6198" style="stroke:#000000;stroke-width:1.0;"/><text fill="#000000" font-family="sans-serif" font-size="20" lengthAdjust="spacing" textLength="158" x="2356.28" y="183.8242">characterized by</text><text fill="#000000" font-family="sans-serif" font-size="20" lengthAdjust="spacing" textLength="10" x="1926.1851" y="93.6717">*</text><text fill="#000000" font-family="sans-serif" font-size="20" lengthAdjust="spacing" textLength="13" x="2368.8606" y="229.6457">1</text></g><!--link Property to AdvertisementRequest--><g id="link_Property_AdvertisementRequest"><path codeLine="118" d="M1740.23,133.6983 C1727.37,142.5683 1714.86,152.5683 1704.28,163.4883 C1572.89,299.2183 1517.67,528.4783 1499.59,623.8383 " fill="none" id="Property-AdvertisementRequest" style="stroke:#181818;stroke-width:1.0;"/><polygon fill="#000000" points="1587.8057,366.0844,1577.2067,377.003,1585.6487,381.1477,1587.8057,366.0844" style="stroke:#000000;stroke-width:1.0;"/><text fill="#000000" font-family="sans-serif" font-size="20" lengthAdjust="spacing" textLength="92" x="1597.28" y="380.8242">describes</text><text fill="#000000" font-family="sans-serif" font-size="20" lengthAdjust="spacing" textLength="13" x="1715.3311" y="160.6473">1</text><text fill="#000000" font-family="sans-serif" font-size="20" lengthAdjust="spacing" textLength="13" x="1486.714" y="611.6444">1</text></g><!--reverse link Property to Residence--><g id="link_Property_Residence"><path codeLine="119" d="M1864.45,150.4383 C1879.73,172.3483 1896.9,196.9683 1911.85,218.3883 " fill="none" id="Property-backto-Residence" style="stroke:#181818;stroke-width:1.0;"/><polygon fill="none" points="1858.64,154.3483,1852.94,133.9383,1870.12,146.3383,1858.64,154.3483" style="stroke:#181818;stroke-width:1.0;"/></g><!--link PropertyVisitRequest to Client--><g id="link_PropertyVisitRequest_Client"><path codeLine="121" d="M2183.03,724.6683 C2210.57,779.0083 2239.68,862.2483 2200.28,921.4883 C2130.73,1026.0583 1966.37,1052.6783 1897.5,1059.3283 " fill="none" id="PropertyVisitRequest-Client" style="stroke:#181818;stroke-width:1.0;"/><polygon fill="#000000" points="2232.4725,859.6797,2219.502,867.6372,2226.6564,873.7413,2232.4725,859.6797" style="stroke:#000000;stroke-width:1.0;"/><text fill="#000000" font-family="sans-serif" font-size="20" lengthAdjust="spacing" textLength="82" x="2240.28" y="873.3242">requests</text><text fill="#000000" font-family="sans-serif" font-size="20" lengthAdjust="spacing" textLength="10" x="2176.2386" y="751.8491">*</text><text fill="#000000" font-family="sans-serif" font-size="20" lengthAdjust="spacing" textLength="13" x="1905.2798" y="1080.4875">1</text></g><!--link PropertyVisitRequest to Agent--><g id="link_PropertyVisitRequest_Agent"><path codeLine="122" d="M2047.58,714.6083 C2039.71,717.9783 2031.87,721.3083 2024.28,724.4883 C1908.07,773.2183 1768.72,828.2683 1707.6,852.2383 " fill="none" id="PropertyVisitRequest-Agent" style="stroke:#181818;stroke-width:1.0;"/><polygon fill="#000000" points="1963.6954,764.2637,1948.5163,765.3355,1952.0453,774.0529,1963.6954,764.2637" style="stroke:#000000;stroke-width:1.0;"/><text fill="#000000" font-family="sans-serif" font-size="20" lengthAdjust="spacing" textLength="85" x="1969.28" y="774.8242">validates</text><text fill="#000000" font-family="sans-serif" font-size="20" lengthAdjust="spacing" textLength="10" x="2029.6708" y="713.499">*</text><text fill="#000000" font-family="sans-serif" font-size="20" lengthAdjust="spacing" textLength="13" x="1715.4004" y="843.5727">1</text></g><!--link PropertyVisit to Agent--><g id="link_PropertyVisit_Agent"><path codeLine="124" d="M1886.28,685.5283 C1845.89,699.1283 1791.74,721.6883 1752.28,754.4883 C1720.15,781.1983 1695.63,824.7283 1683.9,848.2183 " fill="none" id="PropertyVisit-Agent" style="stroke:#181818;stroke-width:1.0;"/><polygon fill="#000000" points="1766.5151,762.2533,1752.2895,767.6558,1758.1818,774.9856,1766.5151,762.2533" style="stroke:#000000;stroke-width:1.0;"/><text fill="#000000" font-family="sans-serif" font-size="20" lengthAdjust="spacing" textLength="93" x="1773.28" y="774.8242">organizes</text><text fill="#000000" font-family="sans-serif" font-size="20" lengthAdjust="spacing" textLength="10" x="1860.6488" y="712.3057">*</text><text fill="#000000" font-family="sans-serif" font-size="20" lengthAdjust="spacing" textLength="13" x="1688.0477" y="836.2499">1</text></g><!--link PropertyVisit to Client--><g id="link_PropertyVisit_Client"><path codeLine="125" d="M1963.68,685.6583 C1982.11,701.0383 2007.4,726.0083 2018.28,754.4883 C2029.59,784.0983 2059.21,863.9883 1989.28,976.4883 C1967.7,1011.2083 1926.11,1035.3783 1897.31,1048.8383 " fill="none" id="PropertyVisit-Client" style="stroke:#181818;stroke-width:1.0;"/><polygon fill="#000000" points="2042.7182,857.896,2035.4908,871.287,2044.7422,872.9776,2042.7182,857.896" style="stroke:#000000;stroke-width:1.0;"/><text fill="#000000" font-family="sans-serif" font-size="20" lengthAdjust="spacing" textLength="137" x="2054.28" y="873.3242">participates in</text><text fill="#000000" font-family="sans-serif" font-size="20" lengthAdjust="spacing" textLength="10" x="1957.8825" y="712.469">*</text><text fill="#000000" font-family="sans-serif" font-size="20" lengthAdjust="spacing" textLength="13" x="1896.2684" y="1033.1573">1</text></g><!--reverse link Residence to House--><g id="link_Residence_House"><path codeLine="127" d="M2055.07,341.7283 C2064.35,347.9683 2073.53,354.2783 2082.28,360.4883 C2106.46,377.6483 2132.22,397.3183 2155.02,415.2283 " fill="none" id="Residence-backto-House" style="stroke:#181818;stroke-width:1.0;"/><polygon fill="none" points="2051.15,347.5283,2038.36,330.6283,2058.89,335.8583,2051.15,347.5283" style="stroke:#181818;stroke-width:1.0;"/></g><!--link Residence to Equipment--><g id="link_Residence_Equipment"><path codeLine="128" d="M1961.86,330.5883 C1969.23,365.6083 1978.5,409.7083 1984.64,438.9283 " fill="none" id="Residence-Equipment" style="stroke:#181818;stroke-width:1.0;"/><polygon fill="#000000" points="1981.9261,381.0944,1983.5499,365.9644,1974.3466,367.8995,1981.9261,381.0944" style="stroke:#000000;stroke-width:1.0;"/><text fill="#000000" font-family="sans-serif" font-size="20" lengthAdjust="spacing" textLength="80" x="1993.28" y="380.8242">contains</text><text fill="#000000" font-family="sans-serif" font-size="20" lengthAdjust="spacing" textLength="13" x="1949.4791" y="358.1834">1</text><text fill="#000000" font-family="sans-serif" font-size="20" lengthAdjust="spacing" textLength="10" x="1972.3484" y="426.6337">*</text></g><!--link Address to Store--><g id="link_Address_Store"><path codeLine="130" d="M764.49,909.7683 C758.97,914.0983 753.17,918.1283 747.28,921.4883 C628.71,989.0283 474.11,1027.2383 377,1046.1383 " fill="none" id="Address-Store" style="stroke:#181818;stroke-width:1.0;"/><polygon fill="#000000" points="692.8263,961.6098,677.6139,961.9786,680.7359,970.8498,692.8263,961.6098" style="stroke:#000000;stroke-width:1.0;"/><text fill="#000000" font-family="sans-serif" font-size="20" lengthAdjust="spacing" textLength="94" x="698.28" y="971.8242">located at</text><text fill="#000000" font-family="sans-serif" font-size="20" lengthAdjust="spacing" textLength="13" x="743.6344" y="911.3553">1</text><text fill="#000000" font-family="sans-serif" font-size="20" lengthAdjust="spacing" textLength="13" x="384.9066" y="1040.2683">1</text></g><!--link Person to Passport--><g id="link_Person_Passport"><path codeLine="132" d="M533.48,716.9183 C519.05,727.6383 505.55,740.1683 495.28,754.4883 C478.74,777.5483 471.95,809.4683 469.17,832.9883 " fill="none" id="Person-Passport" style="stroke:#181818;stroke-width:1.0;"/><polygon fill="#000000" points="499.4028,774.2633,510.5298,763.8833,502.3035,759.3254,499.4028,774.2633" style="stroke:#000000;stroke-width:1.0;"/><text fill="#000000" font-family="sans-serif" font-size="20" lengthAdjust="spacing" textLength="97" x="516.28" y="774.8242">possesses</text><text fill="#000000" font-family="sans-serif" font-size="20" lengthAdjust="spacing" textLength="13" x="512.8773" y="716.0945">1</text><text fill="#000000" font-family="sans-serif" font-size="20" lengthAdjust="spacing" textLength="13" x="455.2624" y="820.7056">1</text></g><!--link Person to Address--><g id="link_Person_Address"><path codeLine="133" d="M714.1,724.5683 C725.63,733.7783 736.74,743.8383 746.28,754.4883 C760.7,770.5883 773.09,790.6883 782.87,809.2883 " fill="none" id="Person-Address" style="stroke:#181818;stroke-width:1.0;"/><polygon fill="#000000" points="778.3219,773.4769,772.8519,759.2771,765.5502,765.2042,778.3219,773.4769" style="stroke:#000000;stroke-width:1.0;"/><text fill="#000000" font-family="sans-serif" font-size="20" lengthAdjust="spacing" textLength="67" x="786.28" y="774.8242">lives at</text><text fill="#000000" font-family="sans-serif" font-size="20" lengthAdjust="spacing" textLength="10" x="714.1937" y="752.161">*</text><text fill="#000000" font-family="sans-serif" font-size="20" lengthAdjust="spacing" textLength="13" x="766.1028" y="797.3938">1</text></g><!--link Person to SocialSecurityCard--><g id="link_Person_SocialSecurityCard"><path codeLine="134" d="M622.3,724.6783 C621.7,742.2283 621.72,761.6983 623.28,779.4883 C624.84,797.2483 628.19,816.8683 631.33,832.7783 " fill="none" id="Person-SocialSecurityCard" style="stroke:#181818;stroke-width:1.0;"/><polygon fill="#000000" points="631.946,775.2379,635.4272,760.4245,626.0553,761.2074,631.946,775.2379" style="stroke:#000000;stroke-width:1.0;"/><text fill="#000000" font-family="sans-serif" font-size="20" lengthAdjust="spacing" textLength="97" x="644.28" y="774.8242">possesses</text><text fill="#000000" font-family="sans-serif" font-size="20" lengthAdjust="spacing" textLength="13" x="608.0883" y="751.8603">1</text><text fill="#000000" font-family="sans-serif" font-size="20" lengthAdjust="spacing" textLength="13" x="615.7661" y="820.7291">1</text></g><!--link Employee to Person--><g id="link_Employee_Person"><path codeLine="135" d="M334.04,668.4883 C393.79,668.4883 453.53,668.4883 513.27,668.4883 " fill="none" id="Employee-to-Person" style="stroke:#181818;stroke-width:1.0;"/><polygon fill="none" points="513.53,661.4883,533.53,668.4883,513.53,675.4883,513.53,661.4883" style="stroke:#181818;stroke-width:1.0;"/></g><!--reverse link Person to Client--><g id="link_Person_Client"><path codeLine="136" d="M737.69,709.3883 C777.08,723.5483 821.68,739.6583 862.28,754.4883 C1063.05,827.8183 1107.59,863.3683 1313.28,921.4883 C1379.12,940.0883 1400.16,927.6183 1464.28,951.4883 C1485.36,959.3383 1486.95,969.3483 1508.28,976.4883 C1606.03,1009.2283 1638.87,979.2083 1738.28,1006.4883 C1772.8,1015.9583 1810.19,1032.8583 1835.59,1045.4383 " fill="none" id="Person-backto-Client" style="stroke:#181818;stroke-width:1.0;"/><polygon fill="none" points="735.27,715.9483,718.82,702.5983,740.01,702.7783,735.27,715.9483" style="stroke:#181818;stroke-width:1.0;"/></g><!--reverse link Client to Owner--><g id="link_Client_Owner"><path codeLine="137" d="M1816.93,1038.0783 C1793.45,1027.5083 1764.78,1015.4283 1738.28,1006.4883 C1729.06,1003.3783 1406.34,926.9483 1398.28,921.4883 C1347.4,887.0683 1354.16,858.6183 1317.28,809.4883 C1283.26,764.1583 1241.83,711.6683 1221.22,685.7283 " fill="none" id="Client-backto-Owner" style="stroke:#181818;stroke-width:1.0;"/><polygon fill="none" points="1820.01,1031.7883,1835.27,1046.4883,1814.17,1044.5083,1820.01,1031.7883" style="stroke:#181818;stroke-width:1.0;"/></g><!--link Role to Employee--><g id="link_Role_Employee"><path codeLine="139" d="M347.01,502.6983 C325.63,516.3483 303.92,534.6183 291.28,557.4883 C274.8,587.2983 277.85,628.8383 281.24,651.3783 " fill="none" id="Role-Employee" style="stroke:#181818;stroke-width:1.0;"/><polygon fill="#000000" points="296.0436,577.5818,306.1986,566.249,297.598,562.4445,296.0436,577.5818" style="stroke:#000000;stroke-width:1.0;"/><text fill="#000000" font-family="sans-serif" font-size="20" lengthAdjust="spacing" textLength="70" x="312.28" y="577.8242">defines</text><text fill="#000000" font-family="sans-serif" font-size="20" lengthAdjust="spacing" textLength="13" x="326.4883" y="501.2144">1</text><text fill="#000000" font-family="sans-serif" font-size="20" lengthAdjust="spacing" textLength="10" x="268.7778" y="639.1055">*</text></g><!--reverse link Role to SystemAdministrator--><g id="link_Role_SystemAdministrator"><path codeLine="140" d="M417.44,524.4383 C424.9,588.2883 429.22,698.1683 387.28,779.4883 C371.44,810.1883 339.15,833.9483 314.92,848.4483 " fill="none" id="Role-backto-SystemAdministrator" style="stroke:#181818;stroke-width:1.0;"/><polygon fill="none" points="410.45,525.0083,414.79,504.2683,424.33,523.1883,410.45,525.0083" style="stroke:#181818;stroke-width:1.0;"/></g><!--reverse link Role to Agent--><g id="link_Role_Agent"><path codeLine="141" d="M491.58,482.9783 C580.87,494.2783 727.63,512.6483 854.28,527.4883 C1024.6,547.4483 1493.85,497.7283 1621.28,612.4883 C1656.72,644.3983 1671.26,797.6583 1675.15,848.2483 " fill="none" id="Role-backto-Agent" style="stroke:#181818;stroke-width:1.0;"/><polygon fill="none" points="490.49,489.8883,471.53,480.4283,492.25,476.0083,490.49,489.8883" style="stroke:#181818;stroke-width:1.0;"/></g><!--link Client to Advertisement--><g id="link_Client_Advertisement"><path codeLine="143" d="M1835.22,1074.5283 C1779.03,1094.4683 1656.71,1137.7383 1553.28,1173.4883 C1524.89,1183.2983 1493.96,1193.8583 1465.82,1203.4083 " fill="none" id="Client-Advertisement" style="stroke:#181818;stroke-width:1.0;"/><polygon fill="#000000" points="1621.7265,1163.901,1636.9399,1163.5734,1633.8419,1154.6938,1621.7265,1163.901" style="stroke:#000000;stroke-width:1.0;"/><text fill="#000000" font-family="sans-serif" font-size="20" lengthAdjust="spacing" textLength="79" x="1642.28" y="1168.8242">consults</text><text fill="#000000" font-family="sans-serif" font-size="20" lengthAdjust="spacing" textLength="10" x="1817.3319" y="1071.0917">*</text><text fill="#000000" font-family="sans-serif" font-size="20" lengthAdjust="spacing" textLength="10" x="1472.6979" y="1191.3839">*</text></g><!--link Owner to AdvertisementRequest--><g id="link_Owner_AdvertisementRequest"><path codeLine="145" d="M1242.54,668.4883 C1276.91,668.4883 1331.72,668.4883 1381.25,668.4883 " fill="none" id="Owner-AdvertisementRequest" style="stroke:#181818;stroke-width:1.0;"/><polygon fill="#000000" points="1275.78,653.2656,1261.3079,648.5633,1261.3079,657.9679,1275.78,653.2656" style="stroke:#000000;stroke-width:1.0;"/><text fill="#000000" font-family="sans-serif" font-size="20" lengthAdjust="spacing" textLength="82" x="1280.78" y="660.8242">requests</text><text fill="#000000" font-family="sans-serif" font-size="20" lengthAdjust="spacing" textLength="13" x="1250.3099" y="662.7273">1</text><text fill="#000000" font-family="sans-serif" font-size="20" lengthAdjust="spacing" textLength="10" x="1363.4542" y="664.0815">*</text></g><!--link AdvertisementRequest to Agent--><g id="link_AdvertisementRequest_Agent"><path codeLine="146" d="M1495.74,713.0883 C1499.51,735.2083 1507.3,761.1783 1523.28,779.4883 C1545.27,804.6783 1562.85,793.6083 1592.28,809.4883 C1614.06,821.2483 1637.52,836.8783 1654.1,848.4783 " fill="none" id="AdvertisementRequest-Agent" style="stroke:#181818;stroke-width:1.0;"/><polygon fill="#000000" points="1525.1994,762.067,1533.1437,775.0455,1539.255,767.8973,1525.1994,762.067" style="stroke:#000000;stroke-width:1.0;"/><text fill="#000000" font-family="sans-serif" font-size="20" lengthAdjust="spacing" textLength="85" x="1544.28" y="774.8242">validates</text><text fill="#000000" font-family="sans-serif" font-size="20" lengthAdjust="spacing" textLength="10" x="1485.5331" y="740.0225">*</text><text fill="#000000" font-family="sans-serif" font-size="20" lengthAdjust="spacing" textLength="13" x="1632.3168" y="836.2362">1</text></g><!--link AdvertisementRequest to Advertisement--><g id="link_AdvertisementRequest_Advertisement"><path codeLine="147" d="M1401.01,713.2183 C1382.94,724.8183 1365.26,738.6183 1351.28,754.4883 C1288.02,826.3183 1284.04,857.8383 1264.28,951.4883 C1253.14,1004.2883 1267.27,1059.0283 1292.28,1118.4883 C1305.41,1149.6983 1327.63,1181.1083 1345.33,1203.4383 " fill="none" id="AdvertisementRequest-Advertisement" style="stroke:#181818;stroke-width:1.0;"/><polygon fill="#000000" points="1273.1828,956.3167,1266.8773,970.1657,1276.2218,971.2271,1273.1828,956.3167" style="stroke:#000000;stroke-width:1.0;"/><text fill="#000000" font-family="sans-serif" font-size="20" lengthAdjust="spacing" textLength="121" x="1285.28" y="971.8242">derives from</text><text fill="#000000" font-family="sans-serif" font-size="20" lengthAdjust="spacing" textLength="13" x="1390.1488" y="739.8157">1</text><text fill="#000000" font-family="sans-serif" font-size="20" lengthAdjust="spacing" textLength="13" x="1325.7445" y="1191.1457">1</text></g><!--link Employee to Store--><g id="link_Employee_Store"><path codeLine="149" d="M234.6,680.7883 C174.26,697.4783 75.13,735.1083 31.28,809.4883 C6,852.3683 6,878.6083 31.28,921.4883 C65.76,979.9783 134.43,1015.7383 191.53,1036.4683 " fill="none" id="Employee-Store" style="stroke:#181818;stroke-width:1.0;"/><polygon fill="#000000" points="38.3183,873.7076,44.7262,859.9057,35.3899,858.7751,38.3183,873.7076" style="stroke:#000000;stroke-width:1.0;"/><text fill="#000000" font-family="sans-serif" font-size="20" lengthAdjust="spacing" textLength="110" x="52.28" y="873.3242">assigned to</text><text fill="#000000" font-family="sans-serif" font-size="20" lengthAdjust="spacing" textLength="10" x="216.9106" y="677.307">*</text><text fill="#000000" font-family="sans-serif" font-size="20" lengthAdjust="spacing" textLength="13" x="170.9312" y="1029.9445">1</text></g><!--link Employee to SystemAdministrator--><g id="link_Employee_SystemAdministrator"><path codeLine="150" d="M282.5,685.5083 C280.34,706.9183 277.1,746.0383 278.28,779.4883 C279.12,803.4383 281.3,831.1183 282.79,848.2083 " fill="none" id="Employee-SystemAdministrator" style="stroke:#181818;stroke-width:1.0;"/><polygon fill="#000000" points="286.2657,759.2656,281.5893,773.7461,290.9938,773.7294,286.2657,759.2656" style="stroke:#000000;stroke-width:1.0;"/><text fill="#000000" font-family="sans-serif" font-size="20" lengthAdjust="spacing" textLength="83" x="299.28" y="774.8242">registers</text><text fill="#000000" font-family="sans-serif" font-size="20" lengthAdjust="spacing" textLength="10" x="270.7626" y="712.2806">*</text><text fill="#000000" font-family="sans-serif" font-size="20" lengthAdjust="spacing" textLength="13" x="267.4429" y="836.237">1</text></g><!--link SystemAdministrator to Store--><g id="link_SystemAdministrator_Store"><path codeLine="151" d="M284.28,882.7783 C284.28,909.5983 284.28,964.2483 284.28,1006.0883 " fill="none" id="SystemAdministrator-Store" style="stroke:#181818;stroke-width:1.0;"/><polygon fill="#000000" points="292.28,972.2656,296.9823,957.7935,287.5777,957.7935,292.28,972.2656" style="stroke:#000000;stroke-width:1.0;"/><text fill="#000000" font-family="sans-serif" font-size="20" lengthAdjust="spacing" textLength="83" x="305.28" y="971.8242">registers</text><text fill="#000000" font-family="sans-serif" font-size="20" lengthAdjust="spacing" textLength="13" x="269.6956" y="909.2537">1</text><text fill="#000000" font-family="sans-serif" font-size="20" lengthAdjust="spacing" textLength="10" x="273.6706" y="994.1694">*</text></g><!--link Agent to Advertisement--><g id="link_Agent_Advertisement"><path codeLine="153" d="M1670.78,882.6883 C1653.21,932.3583 1593.87,1084.4883 1498.28,1173.4883 C1485.72,1185.1783 1470.52,1195.0983 1455.09,1203.3283 " fill="none" id="Agent-Advertisement" style="stroke:#181818;stroke-width:1.0;"/><polygon fill="#000000" points="1618.8148,1069.4035,1630.7941,1060.02,1622.9908,1054.7709,1618.8148,1069.4035" style="stroke:#000000;stroke-width:1.0;"/><text fill="#000000" font-family="sans-serif" font-size="20" lengthAdjust="spacing" textLength="93" x="1636.28" y="1070.3242">publishes</text><text fill="#000000" font-family="sans-serif" font-size="20" lengthAdjust="spacing" textLength="13" x="1654.705" y="909.5067">1</text><text fill="#000000" font-family="sans-serif" font-size="20" lengthAdjust="spacing" textLength="10" x="1459.9225" y="1191.2887">*</text></g><!--link Agent to Commission--><g id="link_Agent_Commission"><path codeLine="154" d="M1656.46,882.6383 C1640.18,895.0983 1616,911.7983 1592.28,921.4883 C1528.94,947.3683 1497.62,912.6683 1441.28,951.4883 C1413.62,970.5483 1394.78,1004.6883 1383.87,1029.8883 " fill="none" id="Agent-Commission" style="stroke:#181818;stroke-width:1.0;"/><polygon fill="#000000" points="1442.2413,968.0678,1457.2093,965.3268,1452.7395,957.0523,1442.2413,968.0678" style="stroke:#000000;stroke-width:1.0;"/><text fill="#000000" font-family="sans-serif" font-size="20" lengthAdjust="spacing" textLength="38" x="1462.28" y="971.8242">sets</text><text fill="#000000" font-family="sans-serif" font-size="20" lengthAdjust="spacing" textLength="13" x="1636.7155" y="909.4439">1</text><text fill="#000000" font-family="sans-serif" font-size="20" lengthAdjust="spacing" textLength="10" x="1375.1262" y="1017.8601">*</text></g><!--link Commission to TypeOfCommission--><g id="link_Commission_TypeOfCommission"><path codeLine="156" d="M1309.04,1086.8283 C1271.44,1101.9683 1223.57,1123.4983 1184.28,1148.4883 C1159.54,1164.2183 1134.49,1185.6283 1115.52,1203.2183 " fill="none" id="Commission-TypeOfCommission" style="stroke:#181818;stroke-width:1.0;"/><polygon fill="#000000" points="1185.4244,1165.3888,1200.2499,1161.9595,1195.4027,1153.9003,1185.4244,1165.3888" style="stroke:#000000;stroke-width:1.0;"/><text fill="#000000" font-family="sans-serif" font-size="20" lengthAdjust="spacing" textLength="158" x="1205.28" y="1168.8242">characterized by</text><text fill="#000000" font-family="sans-serif" font-size="20" lengthAdjust="spacing" textLength="10" x="1291.1498" y="1084.6746">*</text><text fill="#000000" font-family="sans-serif" font-size="20" lengthAdjust="spacing" textLength="13" x="1107.4267" y="1191.1577">1</text></g><!--link Commission to Advertisement--><g id="link_Commission_Advertisement"><path codeLine="157" d="M1372.28,1095.3483 C1372.28,1126.1483 1372.28,1172.5583 1372.28,1203.2983 " fill="none" id="Commission-Advertisement" style="stroke:#181818;stroke-width:1.0;"/><polygon fill="#000000" points="1380.28,1169.2656,1384.9823,1154.7935,1375.5777,1154.7935,1380.28,1169.2656" style="stroke:#000000;stroke-width:1.0;"/><text fill="#000000" font-family="sans-serif" font-size="20" lengthAdjust="spacing" textLength="96" x="1393.28" y="1168.8242">present in</text><text fill="#000000" font-family="sans-serif" font-size="20" lengthAdjust="spacing" textLength="13" x="1358.1628" y="1122.3469">1</text><text fill="#000000" font-family="sans-serif" font-size="20" lengthAdjust="spacing" textLength="13" x="1358.0409" y="1191.2529">1</text></g><!--link AdvertisementRequest to TypeOfBusiness--><g id="link_AdvertisementRequest_TypeOfBusiness"><path codeLine="159" d="M1393.57,713.1383 C1368.07,730.9883 1351.26,753.5783 1365.28,779.4883 C1377.53,802.1383 1398.73,819.7183 1420.5,832.8583 " fill="none" id="AdvertisementRequest-TypeOfBusiness" style="stroke:#181818;stroke-width:1.0;"/><polygon fill="#000000" points="1371.5243,759.4606,1370.1127,774.6119,1379.288,772.548,1371.5243,759.4606" style="stroke:#000000;stroke-width:1.0;"/><text fill="#000000" font-family="sans-serif" font-size="20" lengthAdjust="spacing" textLength="96" x="1386.28" y="774.8242">present in</text><text fill="#000000" font-family="sans-serif" font-size="20" lengthAdjust="spacing" textLength="10" x="1369.634" y="740.0792">*</text><text fill="#000000" font-family="sans-serif" font-size="20" lengthAdjust="spacing" textLength="13" x="1394.546" y="822.1965">1</text></g><!--link Client to Order--><g id="link_Client_Order"><path codeLine="161" d="M1897.42,1075.2783 C1980.27,1106.6483 2205.46,1191.8983 2288.23,1223.2283 " fill="none" id="Client-Order" style="stroke:#181818;stroke-width:1.0;"/><polygon fill="#000000" points="2161.7618,1164.098,2149.8919,1154.5765,2146.5622,1163.3719,2161.7618,1164.098" style="stroke:#000000;stroke-width:1.0;"/><text fill="#000000" font-family="sans-serif" font-size="20" lengthAdjust="spacing" textLength="61" x="2167.28" y="1168.8242">places</text><text fill="#000000" font-family="sans-serif" font-size="20" lengthAdjust="spacing" textLength="13" x="1905.1832" y="1099.7272">1</text><text fill="#000000" font-family="sans-serif" font-size="20" lengthAdjust="spacing" textLength="13" x="2267.4853" y="1214.6065">1</text></g><!--link Property to Order--><g id="link_Property_Order"><path codeLine="162" d="M1918.32,93.8483 C2099.87,102.0383 2479.26,123.7383 2523.28,163.4883 C2560.35,196.9683 2546.28,223.5383 2546.28,273.4883 C2546.28,273.4883 2546.28,273.4883 2546.28,1063.4883 C2546.28,1160.5483 2412.54,1209.6483 2350.37,1227.2283 " fill="none" id="Property-Order" style="stroke:#181818;stroke-width:1.0;"/><polygon fill="#000000" points="2557.1296,676.2409,2556.3685,661.043,2547.5808,664.393,2557.1296,676.2409" style="stroke:#000000;stroke-width:1.0;"/><text fill="#000000" font-family="sans-serif" font-size="20" lengthAdjust="spacing" textLength="80" x="2567.28" y="676.3242">contains</text><text fill="#000000" font-family="sans-serif" font-size="20" lengthAdjust="spacing" textLength="13" x="1926.1707" y="114.4709">1</text><text fill="#000000" font-family="sans-serif" font-size="20" lengthAdjust="spacing" textLength="10" x="2358.2647" y="1219.181">*</text></g><!--link Agent to Client--><g id="link_Agent_Client"><path codeLine="164" d="M1692.15,882.7783 C1728.01,919.5783 1814.9,1008.7583 1850.59,1045.3783 " fill="none" id="Agent-Client" style="stroke:#181818;stroke-width:1.0;"/><polygon fill="#000000" points="1795.8631,969.9953,1789.131,956.3486,1782.3954,962.9119,1795.8631,969.9953" style="stroke:#000000;stroke-width:1.0;"/><text fill="#000000" font-family="sans-serif" font-size="20" lengthAdjust="spacing" textLength="177" x="1803.28" y="971.8242">notifies about visit</text><text fill="#000000" font-family="sans-serif" font-size="20" lengthAdjust="spacing" textLength="13" x="1681.4339" y="909.2537">1</text><text fill="#000000" font-family="sans-serif" font-size="20" lengthAdjust="spacing" textLength="13" x="1830.7943" y="1033.1055">1</text></g><!--SRC=[ZLR9RXiv4BtpAmXT1Z0G8qvkWX70utWm0R8OLZ9tgbcI2cQJ3Cbsh2ZvznJPR96jRYLZ65wAhzPNY_mZQYkSQ9Lf7a5o2HlHgV2FqM65tu6_UidO3YNm1bsZeFyRMXlsl8Ls3Sup5Z0eu6zDAr3p3qQ2OgnHmdk-2iO1Fp097hTQ13IQ0S7KZPGEl6S15DYTqV2nYyROpwnurrfbza2wFu-szZv0UoDRrEY34sIwUhtPWWxL_v- -QQZVRnKIeFn_Jv4RVM1QjF2daBBAWr6dkHJtyWbSG0yjUNc0hnruYePPXmqmAG9yscHfqVcyjoJ-k_EeoU__CHoz9riZQG7VEsD9lYUSS22Of489tS0jXlqj8HrKsP0t2VH8O9qofLX0EcDQNmGYxCQIU-6eOxOhAnhmnTg_flDmOF1C7gFHg9gZgsJlz4wiCOYrWlTc4vZlzDspDRwh0yiy71Z57Y3bG5KChA4as5_VqJRKOLNEEnFCrWcxEp25-l7Bmxlok38D2hM2fdEn1C99oZQ8vrDgx-c7DIuSQr6UxhvsQ8VYpp7KqtXhsXQznzXJlu4D39q1rLQUXEfWokr_w34SpiXpZr6EsC9AcP3x9JrE-t2O5IV1LGu7aukB1NyHl_ZYQf46RCc96ckqHwAGRsW2hq_G4ThFsf8_HQ- -XbmDa4poajFQeQWa5u6_gN2NbqThQPANt7pJiwOkBr-_N9GcM79Kgalx0SwvhcPdIGlFDmxNO_3H-PYr9Mzsj2kR08vse-Jh_IZeMG-vtFEEEB_-GJh7MIorh-cSLjRr3xMfUONC6b6BCbTah3616hSLchARs9v6GNSZO8Cs6QRLJxRBLac9fRLGX4E9BXPbggYcT6leSdYg9SjzKMgPBiYeJM86QNaNq32-59Bn7k9t9AP7NKnx3fy8q7VSYQNfmfYpcP9JnoDLIr_mV6fO_wklG-fXgWvTaAe6MJssnYRU0BAVRanIcJbtrMiYYsKVGueNfxrDbVLqp7DbfqtPAwgOECzZLdNMUOsaCDDQinfNHUDqybmYOkDC6raTwf5yLDmJkRGfYVnWA94HgeTDAnNpsCQpus9OCu32GdPIyB5MCRK2EOdRTck5VfVugf2IDbH4bns-v1xwuXVPwMgfqJFBfL8yjy0iDNLiD1h0tzBSnqTMnfyxHWQkZorLM4lNWL0gNlngt_5Ie04pckJqWQooCsmDRG9kC0xWsdIXFn9HWVq2]--></g></svg>