<?xml version="1.0" encoding="UTF-8" standalone="no"?><svg xmlns="http://www.w3.org/2000/svg" xmlns:xlink="http://www.w3.org/1999/xlink" contentStyleType="text/css" height="2097px" preserveAspectRatio="none" style="width:3452px;height:2097px;background:#FFFFFF;" version="1.1" viewBox="0 0 3452 2097" width="3452px" zoomAndPan="magnify"><defs/><g><rect fill="#FFFFFF" height="1892.7344" style="stroke:#181818;stroke-width:1.0;" width="10" x="31" y="98.5547"/><rect fill="#FFFFFF" height="1337.4141" style="stroke:#181818;stroke-width:1.0;" width="10" x="756" y="128.1094"/><rect fill="#FFFFFF" height="37.5547" style="stroke:#181818;stroke-width:1.0;" width="10" x="756" y="1503.0781"/><rect fill="#FFFFFF" height="413.1016" style="stroke:#181818;stroke-width:1.0;" width="10" x="756" y="1578.1875"/><rect fill="#FFFFFF" height="413.1016" style="stroke:#181818;stroke-width:1.0;" width="10" x="1504" y="214.2188"/><rect fill="#FFFFFF" height="388.5469" style="stroke:#181818;stroke-width:1.0;" width="10" x="1504" y="664.875"/><rect fill="#FFFFFF" height="313.4375" style="stroke:#181818;stroke-width:1.0;" width="10" x="1504" y="1090.9766"/><rect fill="#FFFFFF" height="337.9922" style="stroke:#181818;stroke-width:1.0;" width="10" x="1504" y="1615.7422"/><rect fill="#FFFFFF" height="337.9922" style="stroke:#181818;stroke-width:1.0;" width="10" x="2252" y="251.7734"/><rect fill="#FFFFFF" height="313.4375" style="stroke:#181818;stroke-width:1.0;" width="10" x="2252" y="702.4297"/><rect fill="#FFFFFF" height="238.3281" style="stroke:#181818;stroke-width:1.0;" width="10" x="2252" y="1128.5313"/><rect fill="#FFFFFF" height="262.8828" style="stroke:#181818;stroke-width:1.0;" width="10" x="2252" y="1653.2969"/><rect fill="#FFFFFF" height="37.5547" style="stroke:#181818;stroke-width:1.0;" width="10" x="2587" y="289.3281"/><rect fill="#FFFFFF" height="37.5547" style="stroke:#181818;stroke-width:1.0;" width="10" x="2587" y="739.9844"/><rect fill="#FFFFFF" height="37.5547" style="stroke:#181818;stroke-width:1.0;" width="10" x="2587" y="1166.0859"/><rect fill="#FFFFFF" height="37.5547" style="stroke:#181818;stroke-width:1.0;" width="10" x="2587" y="1690.8516"/><rect fill="#FFFFFF" height="37.5547" style="stroke:#181818;stroke-width:1.0;" width="10" x="2736" y="364.4375"/><rect fill="#FFFFFF" height="37.5547" style="stroke:#181818;stroke-width:1.0;" width="10" x="2736" y="815.0938"/><rect fill="#FFFFFF" height="37.5547" style="stroke:#181818;stroke-width:1.0;" width="10" x="2736" y="1241.1953"/><rect fill="#FFFFFF" height="37.5547" style="stroke:#181818;stroke-width:1.0;" width="10" x="2736" y="1765.9609"/><rect fill="#FFFFFF" height="37.5547" style="stroke:#181818;stroke-width:1.0;" width="10" x="2944.5" y="890.2031"/><rect fill="#FFFFFF" height="37.5547" style="stroke:#181818;stroke-width:1.0;" width="10" x="2944.5" y="1841.0703"/><rect fill="#FFFFFF" height="112.6641" style="stroke:#181818;stroke-width:1.0;" width="10" x="3191" y="439.5469"/><rect fill="#FFFFFF" height="37.5547" style="stroke:#181818;stroke-width:1.0;" width="10" x="3375" y="477.1016"/><line style="stroke:#181818;stroke-width:0.5;stroke-dasharray:5.0,5.0;" x1="36" x2="36" y1="88.5547" y2="2009.2891"/><line style="stroke:#181818;stroke-width:0.5;stroke-dasharray:5.0,5.0;" x1="760.5" x2="760.5" y1="88.5547" y2="2009.2891"/><line style="stroke:#181818;stroke-width:0.5;stroke-dasharray:5.0,5.0;" x1="1508.5" x2="1508.5" y1="170.3867" y2="2009.2891"/><line style="stroke:#181818;stroke-width:0.5;stroke-dasharray:5.0,5.0;" x1="2256.5" x2="2256.5" y1="88.5547" y2="2009.2891"/><line style="stroke:#181818;stroke-width:0.5;stroke-dasharray:5.0,5.0;" x1="2591.5" x2="2591.5" y1="88.5547" y2="2009.2891"/><line style="stroke:#181818;stroke-width:0.5;stroke-dasharray:5.0,5.0;" x1="2740.5" x2="2740.5" y1="88.5547" y2="2009.2891"/><line style="stroke:#181818;stroke-width:0.5;stroke-dasharray:5.0,5.0;" x1="2949.5" x2="2949.5" y1="88.5547" y2="2009.2891"/><line style="stroke:#181818;stroke-width:0.5;stroke-dasharray:5.0,5.0;" x1="3195.5" x2="3195.5" y1="88.5547" y2="2009.2891"/><line style="stroke:#181818;stroke-width:0.5;stroke-dasharray:5.0,5.0;" x1="3379.5" x2="3379.5" y1="88.5547" y2="2009.2891"/><text fill="#000000" font-family="sans-serif" font-size="20" lengthAdjust="spacing" textLength="56" x="5" y="84.3359">Agent</text><ellipse cx="36" cy="13.5" fill="#E3E3E3" rx="8" ry="8" style="stroke:#181818;stroke-width:0.5;"/><path d="M36,21.5 L36,48.5 M23,29.5 L49,29.5 M36,48.5 L23,63.5 M36,48.5 L49,63.5 " fill="none" style="stroke:#181818;stroke-width:0.5;"/><text fill="#000000" font-family="sans-serif" font-size="20" lengthAdjust="spacing" textLength="56" x="5" y="2027.625">Agent</text><ellipse cx="36" cy="2040.3438" fill="#E3E3E3" rx="8" ry="8" style="stroke:#181818;stroke-width:0.5;"/><path d="M36,2048.3438 L36,2075.3438 M23,2056.3438 L49,2056.3438 M36,2075.3438 L23,2090.3438 M36,2075.3438 L49,2090.3438 " fill="none" style="stroke:#181818;stroke-width:0.5;"/><rect fill="#E3E3E3" height="37.5547" rx="2.5" ry="2.5" style="stroke:#181818;stroke-width:0.5;" width="265" x="628.5" y="50"/><text fill="#000000" font-family="sans-serif" font-size="20" lengthAdjust="spacing" textLength="251" x="635.5" y="76.3359">:ManagePurchaseOrdersUI</text><rect fill="#E3E3E3" height="37.5547" rx="2.5" ry="2.5" style="stroke:#181818;stroke-width:0.5;" width="265" x="628.5" y="2008.2891"/><text fill="#000000" font-family="sans-serif" font-size="20" lengthAdjust="spacing" textLength="251" x="635.5" y="2034.625">:ManagePurchaseOrdersUI</text><rect fill="#E3E3E3" height="37.5547" rx="2.5" ry="2.5" style="stroke:#181818;stroke-width:0.5;" width="341" x="1338.5" y="2008.2891"/><text fill="#000000" font-family="sans-serif" font-size="20" lengthAdjust="spacing" textLength="327" x="1345.5" y="2034.625">:ManagePurchaseOrdersController</text><rect fill="#E3E3E3" height="61.1094" rx="2.5" ry="2.5" style="stroke:#181818;stroke-width:0.5;" width="335" x="2089.5" y="26.4453"/><text fill="#000000" font-family="sans-serif" font-size="20" lengthAdjust="spacing" textLength="317" x="2098.5" y="52.7813">manageAdvertisementRepository</text><text fill="#000000" font-family="sans-serif" font-size="20" lengthAdjust="spacing" textLength="321" x="2096.5" y="76.3359">:ManageAdvertisementRepository</text><rect fill="#E3E3E3" height="61.1094" rx="2.5" ry="2.5" style="stroke:#181818;stroke-width:0.5;" width="335" x="2089.5" y="2008.2891"/><text fill="#000000" font-family="sans-serif" font-size="20" lengthAdjust="spacing" textLength="317" x="2098.5" y="2034.625">manageAdvertisementRepository</text><text fill="#000000" font-family="sans-serif" font-size="20" lengthAdjust="spacing" textLength="321" x="2096.5" y="2058.1797">:ManageAdvertisementRepository</text><rect fill="#E3E3E3" height="37.5547" rx="2.5" ry="2.5" style="stroke:#181818;stroke-width:0.5;" width="139" x="2522.5" y="50"/><text fill="#000000" font-family="sans-serif" font-size="20" lengthAdjust="spacing" textLength="125" x="2529.5" y="76.3359">:Repositories</text><rect fill="#E3E3E3" height="37.5547" rx="2.5" ry="2.5" style="stroke:#181818;stroke-width:0.5;" width="139" x="2522.5" y="2008.2891"/><text fill="#000000" font-family="sans-serif" font-size="20" lengthAdjust="spacing" textLength="125" x="2529.5" y="2034.625">:Repositories</text><rect fill="#E3E3E3" height="61.1094" rx="2.5" ry="2.5" style="stroke:#181818;stroke-width:0.5;" width="139" x="2671.5" y="26.4453"/><text fill="#000000" font-family="sans-serif" font-size="20" lengthAdjust="spacing" textLength="114" x="2684" y="52.7813">repositories</text><text fill="#000000" font-family="sans-serif" font-size="20" lengthAdjust="spacing" textLength="125" x="2678.5" y="76.3359">:Repositories</text><rect fill="#E3E3E3" height="61.1094" rx="2.5" ry="2.5" style="stroke:#181818;stroke-width:0.5;" width="139" x="2671.5" y="2008.2891"/><text fill="#000000" font-family="sans-serif" font-size="20" lengthAdjust="spacing" textLength="114" x="2684" y="2034.625">repositories</text><text fill="#000000" font-family="sans-serif" font-size="20" lengthAdjust="spacing" textLength="125" x="2678.5" y="2058.1797">:Repositories</text><rect fill="#E3E3E3" height="61.1094" rx="2.5" ry="2.5" style="stroke:#181818;stroke-width:0.5;" width="258" x="2820.5" y="26.4453"/><text fill="#000000" font-family="sans-serif" font-size="20" lengthAdjust="spacing" textLength="244" x="2827.5" y="52.7813">advertisementRepository:</text><text fill="#000000" font-family="sans-serif" font-size="20" lengthAdjust="spacing" textLength="241" x="2829" y="76.3359">AdvertisementRepository</text><rect fill="#E3E3E3" height="61.1094" rx="2.5" ry="2.5" style="stroke:#181818;stroke-width:0.5;" width="258" x="2820.5" y="2008.2891"/><text fill="#000000" font-family="sans-serif" font-size="20" lengthAdjust="spacing" textLength="244" x="2827.5" y="2034.625">advertisementRepository:</text><text fill="#000000" font-family="sans-serif" font-size="20" lengthAdjust="spacing" textLength="241" x="2829" y="2058.1797">AdvertisementRepository</text><rect fill="#E3E3E3" height="61.1094" rx="2.5" ry="2.5" style="stroke:#181818;stroke-width:0.5;" width="215" x="3088.5" y="26.4453"/><text fill="#000000" font-family="sans-serif" font-size="20" lengthAdjust="spacing" textLength="201" x="3095.5" y="52.7813">employeeRepository:</text><text fill="#000000" font-family="sans-serif" font-size="20" lengthAdjust="spacing" textLength="195" x="3098.5" y="76.3359">EmployeeRepository</text><rect fill="#E3E3E3" height="61.1094" rx="2.5" ry="2.5" style="stroke:#181818;stroke-width:0.5;" width="215" x="3088.5" y="2008.2891"/><text fill="#000000" font-family="sans-serif" font-size="20" lengthAdjust="spacing" textLength="201" x="3095.5" y="2034.625">employeeRepository:</text><text fill="#000000" font-family="sans-serif" font-size="20" lengthAdjust="spacing" textLength="195" x="3098.5" y="2058.1797">EmployeeRepository</text><rect fill="#E3E3E3" height="61.1094" rx="2.5" ry="2.5" style="stroke:#181818;stroke-width:0.5;" width="133" x="3313.5" y="26.4453"/><text fill="#000000" font-family="sans-serif" font-size="20" lengthAdjust="spacing" textLength="119" x="3320.5" y="52.7813">userSession:</text><text fill="#000000" font-family="sans-serif" font-size="20" lengthAdjust="spacing" textLength="115" x="3322.5" y="76.3359">UserSession</text><rect fill="#E3E3E3" height="61.1094" rx="2.5" ry="2.5" style="stroke:#181818;stroke-width:0.5;" width="133" x="3313.5" y="2008.2891"/><text fill="#000000" font-family="sans-serif" font-size="20" lengthAdjust="spacing" textLength="119" x="3320.5" y="2034.625">userSession:</text><text fill="#000000" font-family="sans-serif" font-size="20" lengthAdjust="spacing" textLength="115" x="3322.5" y="2058.1797">UserSession</text><rect fill="#FFFFFF" height="1892.7344" style="stroke:#181818;stroke-width:1.0;" width="10" x="31" y="98.5547"/><rect fill="#FFFFFF" height="1337.4141" style="stroke:#181818;stroke-width:1.0;" width="10" x="756" y="128.1094"/><rect fill="#FFFFFF" height="37.5547" style="stroke:#181818;stroke-width:1.0;" width="10" x="756" y="1503.0781"/><rect fill="#FFFFFF" height="413.1016" style="stroke:#181818;stroke-width:1.0;" width="10" x="756" y="1578.1875"/><rect fill="#FFFFFF" height="413.1016" style="stroke:#181818;stroke-width:1.0;" width="10" x="1504" y="214.2188"/><rect fill="#FFFFFF" height="388.5469" style="stroke:#181818;stroke-width:1.0;" width="10" x="1504" y="664.875"/><rect fill="#FFFFFF" height="313.4375" style="stroke:#181818;stroke-width:1.0;" width="10" x="1504" y="1090.9766"/><rect fill="#FFFFFF" height="337.9922" style="stroke:#181818;stroke-width:1.0;" width="10" x="1504" y="1615.7422"/><rect fill="#FFFFFF" height="337.9922" style="stroke:#181818;stroke-width:1.0;" width="10" x="2252" y="251.7734"/><rect fill="#FFFFFF" height="313.4375" style="stroke:#181818;stroke-width:1.0;" width="10" x="2252" y="702.4297"/><rect fill="#FFFFFF" height="238.3281" style="stroke:#181818;stroke-width:1.0;" width="10" x="2252" y="1128.5313"/><rect fill="#FFFFFF" height="262.8828" style="stroke:#181818;stroke-width:1.0;" width="10" x="2252" y="1653.2969"/><rect fill="#FFFFFF" height="37.5547" style="stroke:#181818;stroke-width:1.0;" width="10" x="2587" y="289.3281"/><rect fill="#FFFFFF" height="37.5547" style="stroke:#181818;stroke-width:1.0;" width="10" x="2587" y="739.9844"/><rect fill="#FFFFFF" height="37.5547" style="stroke:#181818;stroke-width:1.0;" width="10" x="2587" y="1166.0859"/><rect fill="#FFFFFF" height="37.5547" style="stroke:#181818;stroke-width:1.0;" width="10" x="2587" y="1690.8516"/><rect fill="#FFFFFF" height="37.5547" style="stroke:#181818;stroke-width:1.0;" width="10" x="2736" y="364.4375"/><rect fill="#FFFFFF" height="37.5547" style="stroke:#181818;stroke-width:1.0;" width="10" x="2736" y="815.0938"/><rect fill="#FFFFFF" height="37.5547" style="stroke:#181818;stroke-width:1.0;" width="10" x="2736" y="1241.1953"/><rect fill="#FFFFFF" height="37.5547" style="stroke:#181818;stroke-width:1.0;" width="10" x="2736" y="1765.9609"/><rect fill="#FFFFFF" height="37.5547" style="stroke:#181818;stroke-width:1.0;" width="10" x="2944.5" y="890.2031"/><rect fill="#FFFFFF" height="37.5547" style="stroke:#181818;stroke-width:1.0;" width="10" x="2944.5" y="1841.0703"/><rect fill="#FFFFFF" height="112.6641" style="stroke:#181818;stroke-width:1.0;" width="10" x="3191" y="439.5469"/><rect fill="#FFFFFF" height="37.5547" style="stroke:#181818;stroke-width:1.0;" width="10" x="3375" y="477.1016"/><polygon fill="#181818" points="744,124.1094,754,128.1094,744,132.1094,748,128.1094" style="stroke:#181818;stroke-width:1.0;"/><line style="stroke:#181818;stroke-width:1.0;" x1="41" x2="750" y1="128.1094" y2="128.1094"/><text fill="#000000" font-family="sans-serif" font-size="20" font-weight="bold" lengthAdjust="spacing" textLength="13" x="48" y="121.8906">1</text><text fill="#000000" font-family="sans-serif" font-size="20" lengthAdjust="spacing" textLength="264" x="65" y="121.8906">asks to list purchase orders</text><polygon fill="#181818" points="1326.5,161.6641,1336.5,165.6641,1326.5,169.6641,1330.5,165.6641" style="stroke:#181818;stroke-width:1.0;"/><line style="stroke:#181818;stroke-width:1.0;" x1="766" x2="1332.5" y1="165.6641" y2="165.6641"/><text fill="#000000" font-family="sans-serif" font-size="20" font-weight="bold" lengthAdjust="spacing" textLength="13" x="773" y="159.4453">2</text><text fill="#000000" font-family="sans-serif" font-size="20" lengthAdjust="spacing" textLength="58" x="790" y="159.4453">create</text><rect fill="#E3E3E3" height="37.5547" rx="2.5" ry="2.5" style="stroke:#181818;stroke-width:0.5;" width="341" x="1338.5" y="136.1094"/><text fill="#000000" font-family="sans-serif" font-size="20" lengthAdjust="spacing" textLength="327" x="1345.5" y="162.4453">:ManagePurchaseOrdersController</text><polygon fill="#181818" points="1492,210.2188,1502,214.2188,1492,218.2188,1496,214.2188" style="stroke:#181818;stroke-width:1.0;"/><line style="stroke:#181818;stroke-width:1.0;" x1="766" x2="1498" y1="214.2188" y2="214.2188"/><text fill="#000000" font-family="sans-serif" font-size="20" font-weight="bold" lengthAdjust="spacing" textLength="13" x="773" y="208">3</text><text fill="#000000" font-family="sans-serif" font-size="20" lengthAdjust="spacing" textLength="100" x="790" y="208">getAgent()</text><polygon fill="#181818" points="2240,247.7734,2250,251.7734,2240,255.7734,2244,251.7734" style="stroke:#181818;stroke-width:1.0;"/><line style="stroke:#181818;stroke-width:1.0;" x1="1514" x2="2246" y1="251.7734" y2="251.7734"/><text fill="#000000" font-family="sans-serif" font-size="20" font-weight="bold" lengthAdjust="spacing" textLength="13" x="1521" y="245.5547">4</text><text fill="#000000" font-family="sans-serif" font-size="20" lengthAdjust="spacing" textLength="100" x="1538" y="245.5547">getAgent()</text><polygon fill="#181818" points="2575,285.3281,2585,289.3281,2575,293.3281,2579,289.3281" style="stroke:#181818;stroke-width:1.0;"/><line style="stroke:#181818;stroke-width:1.0;" x1="2262" x2="2581" y1="289.3281" y2="289.3281"/><text fill="#000000" font-family="sans-serif" font-size="20" font-weight="bold" lengthAdjust="spacing" textLength="13" x="2269" y="283.1094">5</text><text fill="#000000" font-family="sans-serif" font-size="20" lengthAdjust="spacing" textLength="123" x="2286" y="283.1094">getInstance()</text><polygon fill="#181818" points="2273,322.8828,2263,326.8828,2273,330.8828,2269,326.8828" style="stroke:#181818;stroke-width:1.0;"/><line style="stroke:#181818;stroke-width:1.0;stroke-dasharray:2.0,2.0;" x1="2267" x2="2591" y1="326.8828" y2="326.8828"/><text fill="#000000" font-family="sans-serif" font-size="20" font-weight="bold" lengthAdjust="spacing" textLength="13" x="2279" y="320.6641">6</text><text fill="#000000" font-family="sans-serif" font-size="20" lengthAdjust="spacing" textLength="114" x="2296" y="320.6641">repositories</text><polygon fill="#181818" points="2724,360.4375,2734,364.4375,2724,368.4375,2728,364.4375" style="stroke:#181818;stroke-width:1.0;"/><line style="stroke:#181818;stroke-width:1.0;" x1="2262" x2="2730" y1="364.4375" y2="364.4375"/><text fill="#000000" font-family="sans-serif" font-size="20" font-weight="bold" lengthAdjust="spacing" textLength="13" x="2269" y="358.2188">7</text><text fill="#000000" font-family="sans-serif" font-size="20" lengthAdjust="spacing" textLength="225" x="2286" y="358.2188">getEmployeeRepository</text><polygon fill="#181818" points="2273,397.9922,2263,401.9922,2273,405.9922,2269,401.9922" style="stroke:#181818;stroke-width:1.0;"/><line style="stroke:#181818;stroke-width:1.0;stroke-dasharray:2.0,2.0;" x1="2267" x2="2740" y1="401.9922" y2="401.9922"/><text fill="#000000" font-family="sans-serif" font-size="20" font-weight="bold" lengthAdjust="spacing" textLength="13" x="2279" y="395.7734">8</text><text fill="#000000" font-family="sans-serif" font-size="20" lengthAdjust="spacing" textLength="195" x="2296" y="395.7734">EmployeeRepository</text><polygon fill="#181818" points="3179,435.5469,3189,439.5469,3179,443.5469,3183,439.5469" style="stroke:#181818;stroke-width:1.0;"/><line style="stroke:#181818;stroke-width:1.0;" x1="2262" x2="3185" y1="439.5469" y2="439.5469"/><text fill="#000000" font-family="sans-serif" font-size="20" font-weight="bold" lengthAdjust="spacing" textLength="13" x="2269" y="433.3281">9</text><text fill="#000000" font-family="sans-serif" font-size="20" lengthAdjust="spacing" textLength="212" x="2286" y="433.3281">getEmployeeByEmail()</text><polygon fill="#181818" points="3363,473.1016,3373,477.1016,3363,481.1016,3367,477.1016" style="stroke:#181818;stroke-width:1.0;"/><line style="stroke:#181818;stroke-width:1.0;" x1="3201" x2="3369" y1="477.1016" y2="477.1016"/><text fill="#000000" font-family="sans-serif" font-size="20" font-weight="bold" lengthAdjust="spacing" textLength="26" x="3208" y="470.8828">10</text><text fill="#000000" font-family="sans-serif" font-size="20" lengthAdjust="spacing" textLength="108" x="3238" y="470.8828">getUserID()</text><polygon fill="#181818" points="3212,510.6563,3202,514.6563,3212,518.6563,3208,514.6563" style="stroke:#181818;stroke-width:1.0;"/><line style="stroke:#181818;stroke-width:1.0;" x1="3206" x2="3379" y1="514.6563" y2="514.6563"/><text fill="#000000" font-family="sans-serif" font-size="20" font-weight="bold" lengthAdjust="spacing" textLength="26" x="3218" y="508.4375">11</text><text fill="#000000" font-family="sans-serif" font-size="20" lengthAdjust="spacing" textLength="64" x="3248" y="508.4375">UserID</text><polygon fill="#181818" points="2273,548.2109,2263,552.2109,2273,556.2109,2269,552.2109" style="stroke:#181818;stroke-width:1.0;"/><line style="stroke:#181818;stroke-width:1.0;stroke-dasharray:2.0,2.0;" x1="2267" x2="3195" y1="552.2109" y2="552.2109"/><text fill="#000000" font-family="sans-serif" font-size="20" font-weight="bold" lengthAdjust="spacing" textLength="26" x="2279" y="545.9922">12</text><text fill="#000000" font-family="sans-serif" font-size="20" lengthAdjust="spacing" textLength="130" x="2309" y="545.9922">EmployeeInfo</text><polygon fill="#181818" points="1525,585.7656,1515,589.7656,1525,593.7656,1521,589.7656" style="stroke:#181818;stroke-width:1.0;"/><line style="stroke:#181818;stroke-width:1.0;stroke-dasharray:2.0,2.0;" x1="1519" x2="2256" y1="589.7656" y2="589.7656"/><text fill="#000000" font-family="sans-serif" font-size="20" font-weight="bold" lengthAdjust="spacing" textLength="26" x="1531" y="583.5469">13</text><text fill="#000000" font-family="sans-serif" font-size="20" lengthAdjust="spacing" textLength="56" x="1561" y="583.5469">Agent</text><polygon fill="#181818" points="777,623.3203,767,627.3203,777,631.3203,773,627.3203" style="stroke:#181818;stroke-width:1.0;"/><line style="stroke:#181818;stroke-width:1.0;stroke-dasharray:2.0,2.0;" x1="771" x2="1508" y1="627.3203" y2="627.3203"/><text fill="#000000" font-family="sans-serif" font-size="20" font-weight="bold" lengthAdjust="spacing" textLength="26" x="783" y="621.1016">14</text><text fill="#000000" font-family="sans-serif" font-size="20" lengthAdjust="spacing" textLength="56" x="813" y="621.1016">Agent</text><polygon fill="#181818" points="1492,660.875,1502,664.875,1492,668.875,1496,664.875" style="stroke:#181818;stroke-width:1.0;"/><line style="stroke:#181818;stroke-width:1.0;" x1="766" x2="1498" y1="664.875" y2="664.875"/><text fill="#000000" font-family="sans-serif" font-size="20" font-weight="bold" lengthAdjust="spacing" textLength="26" x="773" y="658.6563">15</text><text fill="#000000" font-family="sans-serif" font-size="20" lengthAdjust="spacing" textLength="470" x="803" y="658.6563">getListOfAdvertisementByAgent(Employee agent)</text><polygon fill="#181818" points="2240,698.4297,2250,702.4297,2240,706.4297,2244,702.4297" style="stroke:#181818;stroke-width:1.0;"/><line style="stroke:#181818;stroke-width:1.0;" x1="1514" x2="2246" y1="702.4297" y2="702.4297"/><text fill="#000000" font-family="sans-serif" font-size="20" font-weight="bold" lengthAdjust="spacing" textLength="26" x="1521" y="696.2109">16</text><text fill="#000000" font-family="sans-serif" font-size="20" lengthAdjust="spacing" textLength="470" x="1551" y="696.2109">getListOfAdvertisementByAgent(Employee agent)</text><polygon fill="#181818" points="2575,735.9844,2585,739.9844,2575,743.9844,2579,739.9844" style="stroke:#181818;stroke-width:1.0;"/><line style="stroke:#181818;stroke-width:1.0;" x1="2262" x2="2581" y1="739.9844" y2="739.9844"/><text fill="#000000" font-family="sans-serif" font-size="20" font-weight="bold" lengthAdjust="spacing" textLength="26" x="2269" y="733.7656">17</text><text fill="#000000" font-family="sans-serif" font-size="20" lengthAdjust="spacing" textLength="123" x="2299" y="733.7656">getInstance()</text><polygon fill="#181818" points="2273,773.5391,2263,777.5391,2273,781.5391,2269,777.5391" style="stroke:#181818;stroke-width:1.0;"/><line style="stroke:#181818;stroke-width:1.0;stroke-dasharray:2.0,2.0;" x1="2267" x2="2591" y1="777.5391" y2="777.5391"/><text fill="#000000" font-family="sans-serif" font-size="20" font-weight="bold" lengthAdjust="spacing" textLength="26" x="2279" y="771.3203">18</text><text fill="#000000" font-family="sans-serif" font-size="20" lengthAdjust="spacing" textLength="114" x="2309" y="771.3203">repositories</text><polygon fill="#181818" points="2724,811.0938,2734,815.0938,2724,819.0938,2728,815.0938" style="stroke:#181818;stroke-width:1.0;"/><line style="stroke:#181818;stroke-width:1.0;" x1="2262" x2="2730" y1="815.0938" y2="815.0938"/><text fill="#000000" font-family="sans-serif" font-size="20" font-weight="bold" lengthAdjust="spacing" textLength="26" x="2269" y="808.875">19</text><text fill="#000000" font-family="sans-serif" font-size="20" lengthAdjust="spacing" textLength="271" x="2299" y="808.875">getAdvertisementRepository</text><polygon fill="#181818" points="2273,848.6484,2263,852.6484,2273,856.6484,2269,852.6484" style="stroke:#181818;stroke-width:1.0;"/><line style="stroke:#181818;stroke-width:1.0;stroke-dasharray:2.0,2.0;" x1="2267" x2="2740" y1="852.6484" y2="852.6484"/><text fill="#000000" font-family="sans-serif" font-size="20" font-weight="bold" lengthAdjust="spacing" textLength="26" x="2279" y="846.4297">20</text><text fill="#000000" font-family="sans-serif" font-size="20" lengthAdjust="spacing" textLength="241" x="2309" y="846.4297">AdvertisementRepository</text><polygon fill="#181818" points="2932.5,886.2031,2942.5,890.2031,2932.5,894.2031,2936.5,890.2031" style="stroke:#181818;stroke-width:1.0;"/><line style="stroke:#181818;stroke-width:1.0;" x1="2262" x2="2938.5" y1="890.2031" y2="890.2031"/><text fill="#000000" font-family="sans-serif" font-size="20" font-weight="bold" lengthAdjust="spacing" textLength="26" x="2269" y="883.9844">21</text><text fill="#000000" font-family="sans-serif" font-size="20" lengthAdjust="spacing" textLength="195" x="2299" y="883.9844">getPurchaseOrders()</text><polygon fill="#181818" points="2273,923.7578,2263,927.7578,2273,931.7578,2269,927.7578" style="stroke:#181818;stroke-width:1.0;"/><line style="stroke:#181818;stroke-width:1.0;stroke-dasharray:2.0,2.0;" x1="2267" x2="2948.5" y1="927.7578" y2="927.7578"/><text fill="#000000" font-family="sans-serif" font-size="20" font-weight="bold" lengthAdjust="spacing" textLength="26" x="2279" y="921.5391">22</text><text fill="#000000" font-family="sans-serif" font-size="20" lengthAdjust="spacing" textLength="175" x="2309" y="921.5391">PurchaseOrderList</text><line style="stroke:#181818;stroke-width:1.0;" x1="2262" x2="2304" y1="965.3125" y2="965.3125"/><line style="stroke:#181818;stroke-width:1.0;" x1="2304" x2="2304" y1="965.3125" y2="978.3125"/><line style="stroke:#181818;stroke-width:1.0;" x1="2263" x2="2304" y1="978.3125" y2="978.3125"/><polygon fill="#181818" points="2273,974.3125,2263,978.3125,2273,982.3125,2269,978.3125" style="stroke:#181818;stroke-width:1.0;"/><text fill="#000000" font-family="sans-serif" font-size="20" font-weight="bold" lengthAdjust="spacing" textLength="26" x="2269" y="959.0938">23</text><text fill="#000000" font-family="sans-serif" font-size="20" lengthAdjust="spacing" textLength="281" x="2299" y="959.0938">sortByAgent(Employee agent)</text><polygon fill="#181818" points="1525,1011.8672,1515,1015.8672,1525,1019.8672,1521,1015.8672" style="stroke:#181818;stroke-width:1.0;"/><line style="stroke:#181818;stroke-width:1.0;stroke-dasharray:2.0,2.0;" x1="1519" x2="2256" y1="1015.8672" y2="1015.8672"/><text fill="#000000" font-family="sans-serif" font-size="20" font-weight="bold" lengthAdjust="spacing" textLength="26" x="1531" y="1009.6484">24</text><text fill="#000000" font-family="sans-serif" font-size="20" lengthAdjust="spacing" textLength="175" x="1561" y="1009.6484">PurchaseOrderList</text><polygon fill="#181818" points="777,1049.4219,767,1053.4219,777,1057.4219,773,1053.4219" style="stroke:#181818;stroke-width:1.0;"/><line style="stroke:#181818;stroke-width:1.0;stroke-dasharray:2.0,2.0;" x1="771" x2="1508" y1="1053.4219" y2="1053.4219"/><text fill="#000000" font-family="sans-serif" font-size="20" font-weight="bold" lengthAdjust="spacing" textLength="26" x="783" y="1047.2031">25</text><text fill="#000000" font-family="sans-serif" font-size="20" lengthAdjust="spacing" textLength="175" x="813" y="1047.2031">PurchaseOrderList</text><polygon fill="#181818" points="1492,1086.9766,1502,1090.9766,1492,1094.9766,1496,1090.9766" style="stroke:#181818;stroke-width:1.0;"/><line style="stroke:#181818;stroke-width:1.0;" x1="766" x2="1498" y1="1090.9766" y2="1090.9766"/><text fill="#000000" font-family="sans-serif" font-size="20" font-weight="bold" lengthAdjust="spacing" textLength="26" x="773" y="1084.7578">26</text><text fill="#000000" font-family="sans-serif" font-size="20" lengthAdjust="spacing" textLength="689" x="803" y="1084.7578">getVisiblePurchaseOrder(ArrayList&lt;PurchaseOrder&gt; PurchaseOrderList)</text><polygon fill="#181818" points="2240,1124.5313,2250,1128.5313,2240,1132.5313,2244,1128.5313" style="stroke:#181818;stroke-width:1.0;"/><line style="stroke:#181818;stroke-width:1.0;" x1="1514" x2="2246" y1="1128.5313" y2="1128.5313"/><text fill="#000000" font-family="sans-serif" font-size="20" font-weight="bold" lengthAdjust="spacing" textLength="26" x="1521" y="1122.3125">27</text><text fill="#000000" font-family="sans-serif" font-size="20" lengthAdjust="spacing" textLength="689" x="1551" y="1122.3125">getVisiblePurchaseOrder(ArrayList&lt;PurchaseOrder&gt; PurchaseOrderList)</text><polygon fill="#181818" points="2575,1162.0859,2585,1166.0859,2575,1170.0859,2579,1166.0859" style="stroke:#181818;stroke-width:1.0;"/><line style="stroke:#181818;stroke-width:1.0;" x1="2262" x2="2581" y1="1166.0859" y2="1166.0859"/><text fill="#000000" font-family="sans-serif" font-size="20" font-weight="bold" lengthAdjust="spacing" textLength="26" x="2269" y="1159.8672">28</text><text fill="#000000" font-family="sans-serif" font-size="20" lengthAdjust="spacing" textLength="123" x="2299" y="1159.8672">getInstance()</text><polygon fill="#181818" points="2273,1199.6406,2263,1203.6406,2273,1207.6406,2269,1203.6406" style="stroke:#181818;stroke-width:1.0;"/><line style="stroke:#181818;stroke-width:1.0;stroke-dasharray:2.0,2.0;" x1="2267" x2="2591" y1="1203.6406" y2="1203.6406"/><text fill="#000000" font-family="sans-serif" font-size="20" font-weight="bold" lengthAdjust="spacing" textLength="26" x="2279" y="1197.4219">29</text><text fill="#000000" font-family="sans-serif" font-size="20" lengthAdjust="spacing" textLength="114" x="2309" y="1197.4219">repositories</text><polygon fill="#181818" points="2724,1237.1953,2734,1241.1953,2724,1245.1953,2728,1241.1953" style="stroke:#181818;stroke-width:1.0;"/><line style="stroke:#181818;stroke-width:1.0;" x1="2262" x2="2730" y1="1241.1953" y2="1241.1953"/><text fill="#000000" font-family="sans-serif" font-size="20" font-weight="bold" lengthAdjust="spacing" textLength="26" x="2269" y="1234.9766">30</text><text fill="#000000" font-family="sans-serif" font-size="20" lengthAdjust="spacing" textLength="271" x="2299" y="1234.9766">getAdvertisementRepository</text><polygon fill="#181818" points="2273,1274.75,2263,1278.75,2273,1282.75,2269,1278.75" style="stroke:#181818;stroke-width:1.0;"/><line style="stroke:#181818;stroke-width:1.0;stroke-dasharray:2.0,2.0;" x1="2267" x2="2740" y1="1278.75" y2="1278.75"/><text fill="#000000" font-family="sans-serif" font-size="20" font-weight="bold" lengthAdjust="spacing" textLength="26" x="2279" y="1272.5313">31</text><text fill="#000000" font-family="sans-serif" font-size="20" lengthAdjust="spacing" textLength="241" x="2309" y="1272.5313">AdvertisementRepository</text><line style="stroke:#181818;stroke-width:1.0;" x1="2262" x2="2304" y1="1316.3047" y2="1316.3047"/><line style="stroke:#181818;stroke-width:1.0;" x1="2304" x2="2304" y1="1316.3047" y2="1329.3047"/><line style="stroke:#181818;stroke-width:1.0;" x1="2263" x2="2304" y1="1329.3047" y2="1329.3047"/><polygon fill="#181818" points="2273,1325.3047,2263,1329.3047,2273,1333.3047,2269,1329.3047" style="stroke:#181818;stroke-width:1.0;"/><text fill="#000000" font-family="sans-serif" font-size="20" font-weight="bold" lengthAdjust="spacing" textLength="26" x="2269" y="1310.0859">32</text><text fill="#000000" font-family="sans-serif" font-size="20" lengthAdjust="spacing" textLength="250" x="2299" y="1310.0859">sortByStatus(String status)</text><polygon fill="#181818" points="1525,1362.8594,1515,1366.8594,1525,1370.8594,1521,1366.8594" style="stroke:#181818;stroke-width:1.0;"/><line style="stroke:#181818;stroke-width:1.0;stroke-dasharray:2.0,2.0;" x1="1519" x2="2256" y1="1366.8594" y2="1366.8594"/><text fill="#000000" font-family="sans-serif" font-size="20" font-weight="bold" lengthAdjust="spacing" textLength="26" x="1531" y="1360.6406">33</text><text fill="#000000" font-family="sans-serif" font-size="20" lengthAdjust="spacing" textLength="240" x="1561" y="1360.6406">VisiblePurchaseOrderList</text><polygon fill="#181818" points="777,1400.4141,767,1404.4141,777,1408.4141,773,1404.4141" style="stroke:#181818;stroke-width:1.0;"/><line style="stroke:#181818;stroke-width:1.0;stroke-dasharray:2.0,2.0;" x1="771" x2="1508" y1="1404.4141" y2="1404.4141"/><text fill="#000000" font-family="sans-serif" font-size="20" font-weight="bold" lengthAdjust="spacing" textLength="26" x="783" y="1398.1953">34</text><text fill="#000000" font-family="sans-serif" font-size="20" lengthAdjust="spacing" textLength="240" x="813" y="1398.1953">VisiblePurchaseOrderList</text><polygon fill="#181818" points="52,1461.5234,42,1465.5234,52,1469.5234,48,1465.5234" style="stroke:#181818;stroke-width:1.0;"/><line style="stroke:#181818;stroke-width:1.0;stroke-dasharray:2.0,2.0;" x1="46" x2="760" y1="1465.5234" y2="1465.5234"/><text fill="#000000" font-family="sans-serif" font-size="20" font-weight="bold" lengthAdjust="spacing" textLength="26" x="58" y="1447.5273">35</text><text fill="#000000" font-family="sans-serif" font-size="20" lengthAdjust="spacing" textLength="634" x="88" y="1435.75">shows list of purchase orders grouped by advertisement an sorted</text><text fill="#000000" font-family="sans-serif" font-size="20" lengthAdjust="spacing" textLength="284" x="88" y="1459.3047">by most recent advertisement</text><polygon fill="#181818" points="744,1499.0781,754,1503.0781,744,1507.0781,748,1503.0781" style="stroke:#181818;stroke-width:1.0;"/><line style="stroke:#181818;stroke-width:1.0;" x1="41" x2="750" y1="1503.0781" y2="1503.0781"/><text fill="#000000" font-family="sans-serif" font-size="20" font-weight="bold" lengthAdjust="spacing" textLength="26" x="48" y="1496.8594">36</text><text fill="#000000" font-family="sans-serif" font-size="20" lengthAdjust="spacing" textLength="216" x="78" y="1496.8594">selects purchase order</text><polygon fill="#181818" points="52,1536.6328,42,1540.6328,52,1544.6328,48,1540.6328" style="stroke:#181818;stroke-width:1.0;"/><line style="stroke:#181818;stroke-width:1.0;stroke-dasharray:2.0,2.0;" x1="46" x2="760" y1="1540.6328" y2="1540.6328"/><text fill="#000000" font-family="sans-serif" font-size="20" font-weight="bold" lengthAdjust="spacing" textLength="26" x="58" y="1534.4141">37</text><text fill="#000000" font-family="sans-serif" font-size="20" lengthAdjust="spacing" textLength="661" x="88" y="1534.4141">shows purchase order and asks user either to accept or decline order</text><polygon fill="#181818" points="744,1574.1875,754,1578.1875,744,1582.1875,748,1578.1875" style="stroke:#181818;stroke-width:1.0;"/><line style="stroke:#181818;stroke-width:1.0;" x1="41" x2="750" y1="1578.1875" y2="1578.1875"/><text fill="#000000" font-family="sans-serif" font-size="20" font-weight="bold" lengthAdjust="spacing" textLength="26" x="48" y="1571.9688">38</text><text fill="#000000" font-family="sans-serif" font-size="20" lengthAdjust="spacing" textLength="320" x="78" y="1571.9688">selects either to accept or decline</text><polygon fill="#181818" points="1492,1611.7422,1502,1615.7422,1492,1619.7422,1496,1615.7422" style="stroke:#181818;stroke-width:1.0;"/><line style="stroke:#181818;stroke-width:1.0;" x1="766" x2="1498" y1="1615.7422" y2="1615.7422"/><text fill="#000000" font-family="sans-serif" font-size="20" font-weight="bold" lengthAdjust="spacing" textLength="26" x="773" y="1609.5234">39</text><text fill="#000000" font-family="sans-serif" font-size="20" lengthAdjust="spacing" textLength="157" x="803" y="1609.5234">setStatus(status)</text><polygon fill="#181818" points="2240,1649.2969,2250,1653.2969,2240,1657.2969,2244,1653.2969" style="stroke:#181818;stroke-width:1.0;"/><line style="stroke:#181818;stroke-width:1.0;" x1="1514" x2="2246" y1="1653.2969" y2="1653.2969"/><text fill="#000000" font-family="sans-serif" font-size="20" font-weight="bold" lengthAdjust="spacing" textLength="26" x="1521" y="1647.0781">40</text><text fill="#000000" font-family="sans-serif" font-size="20" lengthAdjust="spacing" textLength="157" x="1551" y="1647.0781">setStatus(status)</text><polygon fill="#181818" points="2575,1686.8516,2585,1690.8516,2575,1694.8516,2579,1690.8516" style="stroke:#181818;stroke-width:1.0;"/><line style="stroke:#181818;stroke-width:1.0;" x1="2262" x2="2581" y1="1690.8516" y2="1690.8516"/><text fill="#000000" font-family="sans-serif" font-size="20" font-weight="bold" lengthAdjust="spacing" textLength="26" x="2269" y="1684.6328">41</text><text fill="#000000" font-family="sans-serif" font-size="20" lengthAdjust="spacing" textLength="123" x="2299" y="1684.6328">getInstance()</text><polygon fill="#181818" points="2273,1724.4063,2263,1728.4063,2273,1732.4063,2269,1728.4063" style="stroke:#181818;stroke-width:1.0;"/><line style="stroke:#181818;stroke-width:1.0;stroke-dasharray:2.0,2.0;" x1="2267" x2="2591" y1="1728.4063" y2="1728.4063"/><text fill="#000000" font-family="sans-serif" font-size="20" font-weight="bold" lengthAdjust="spacing" textLength="26" x="2279" y="1722.1875">42</text><text fill="#000000" font-family="sans-serif" font-size="20" lengthAdjust="spacing" textLength="114" x="2309" y="1722.1875">repositories</text><polygon fill="#181818" points="2724,1761.9609,2734,1765.9609,2724,1769.9609,2728,1765.9609" style="stroke:#181818;stroke-width:1.0;"/><line style="stroke:#181818;stroke-width:1.0;" x1="2262" x2="2730" y1="1765.9609" y2="1765.9609"/><text fill="#000000" font-family="sans-serif" font-size="20" font-weight="bold" lengthAdjust="spacing" textLength="26" x="2269" y="1759.7422">43</text><text fill="#000000" font-family="sans-serif" font-size="20" lengthAdjust="spacing" textLength="285" x="2299" y="1759.7422">getAdvertisementRepository()</text><polygon fill="#181818" points="2273,1799.5156,2263,1803.5156,2273,1807.5156,2269,1803.5156" style="stroke:#181818;stroke-width:1.0;"/><line style="stroke:#181818;stroke-width:1.0;stroke-dasharray:2.0,2.0;" x1="2267" x2="2740" y1="1803.5156" y2="1803.5156"/><text fill="#000000" font-family="sans-serif" font-size="20" font-weight="bold" lengthAdjust="spacing" textLength="26" x="2279" y="1797.2969">44</text><text fill="#000000" font-family="sans-serif" font-size="20" lengthAdjust="spacing" textLength="241" x="2309" y="1797.2969">AdvertisementRepository</text><polygon fill="#181818" points="2932.5,1837.0703,2942.5,1841.0703,2932.5,1845.0703,2936.5,1841.0703" style="stroke:#181818;stroke-width:1.0;"/><line style="stroke:#181818;stroke-width:1.0;" x1="2262" x2="2938.5" y1="1841.0703" y2="1841.0703"/><text fill="#000000" font-family="sans-serif" font-size="20" font-weight="bold" lengthAdjust="spacing" textLength="26" x="2269" y="1834.8516">45</text><text fill="#000000" font-family="sans-serif" font-size="20" lengthAdjust="spacing" textLength="157" x="2299" y="1834.8516">setStatus(status)</text><polygon fill="#181818" points="2273,1874.625,2263,1878.625,2273,1882.625,2269,1878.625" style="stroke:#181818;stroke-width:1.0;"/><line style="stroke:#181818;stroke-width:1.0;stroke-dasharray:2.0,2.0;" x1="2267" x2="2948.5" y1="1878.625" y2="1878.625"/><text fill="#000000" font-family="sans-serif" font-size="20" font-weight="bold" lengthAdjust="spacing" textLength="26" x="2279" y="1872.4063">46</text><text fill="#000000" font-family="sans-serif" font-size="20" lengthAdjust="spacing" textLength="6" x="2309" y="1872.4063"> </text><polygon fill="#181818" points="1525,1912.1797,1515,1916.1797,1525,1920.1797,1521,1916.1797" style="stroke:#181818;stroke-width:1.0;"/><line style="stroke:#181818;stroke-width:1.0;stroke-dasharray:2.0,2.0;" x1="1519" x2="2256" y1="1916.1797" y2="1916.1797"/><text fill="#000000" font-family="sans-serif" font-size="20" font-weight="bold" lengthAdjust="spacing" textLength="26" x="1531" y="1909.9609">47</text><text fill="#000000" font-family="sans-serif" font-size="20" lengthAdjust="spacing" textLength="147" x="1561" y="1909.9609">Purchase Order</text><polygon fill="#181818" points="777,1949.7344,767,1953.7344,777,1957.7344,773,1953.7344" style="stroke:#181818;stroke-width:1.0;"/><line style="stroke:#181818;stroke-width:1.0;" x1="771" x2="1508" y1="1953.7344" y2="1953.7344"/><text fill="#000000" font-family="sans-serif" font-size="20" font-weight="bold" lengthAdjust="spacing" textLength="26" x="783" y="1947.5156">48</text><text fill="#000000" font-family="sans-serif" font-size="20" lengthAdjust="spacing" textLength="147" x="813" y="1947.5156">Purchase Order</text><polygon fill="#181818" points="47,1987.2891,37,1991.2891,47,1995.2891,43,1991.2891" style="stroke:#181818;stroke-width:1.0;"/><line style="stroke:#181818;stroke-width:1.0;" x1="41" x2="760" y1="1991.2891" y2="1991.2891"/><text fill="#000000" font-family="sans-serif" font-size="20" font-weight="bold" lengthAdjust="spacing" textLength="26" x="53" y="1985.0703">49</text><text fill="#000000" font-family="sans-serif" font-size="20" lengthAdjust="spacing" textLength="226" x="83" y="1985.0703">show operation success</text><!--SRC=[tLZ1RgCm4Btp5LPFRQLAgpr6gqffqvKYDMhLj7lgnOL9WW8siashxDVlO9A04viGSDhTvP80dZVFu-6Dnt8PiumAcYOyN4948fZHF54_ELFJ-3UGxzy2kHb2Kivuk10y1Q943hKt6GsNT0vJjKg020WLPVEaFa0kQCG_OZOdCvf820AQAyxoz0q4_WyL5-HiE0UcpWYLP3YQ16YduZ3EA5FaR32X3F4VSn4kg8G74O6GBsCz-6NSOkmjJaZm906XRMwVd-vDgrGR3QDtm8SIKgJo11cNCL9RlR8rgEEznhGWx13R6iGWjKc5C8sBW658J1DHiq0IUm2FzyDdquBQ6GvUMHDtnpiJ6j8iuIi00_Lkxw46t7ziOkKIn1IaZ3b3a9VghbpIwZu8T7x4xrI1pek0h2-y8LVNkFnaW3PBIHGdIImLoTOhJxXU-ifYYuCfitrON8Y1I4LIN5uYMYW0Hxc6u80vA9sivnV66DUrzQlJhes5zeF-B3brl7id7Ll6Ta8iBXjLd84bnSiPZ9b4bGYXuoICYTY-eyweDiPNzhKOaFe7sjbZ1AUPYMD92j4ery3obVPU2or9dM4qDsUqFVAjnRmVOqUGzwcQ8RzPtQKqJdnaloKgdK4jj0kDhVIud4NnO3poGTwG-gveTNwks9UKVUIB5ygsG3i5VpDup6RSnmnyPemr_wjIgGkL3ywzYbLPJpUxXVQSQlvrxMxS4jpZvkDXPZ2yMPM5UXDmGejRyxDnxmuExW8wUlIx8JXXuUzN5azNoFiMx8E5sRKVzro5cwjjLn97brP7E1p-omYPxTqnkUIQra445n-tRXiaYu_rcDXrvka8fvsYvAAJPhIG_bwpRoL5fgmt-pjAod_5CdvBp3E4yw4GT5NW_Z2UN-yxTeUkNIjuKFXFnkzqlU8dzOV-EgdFwGDzzdudAokU6htJb1jlNLq7tPmggd9vFbMYEDgK-kwYlzDAYsmVUYifzRMBDYNsQ3e7LRUeywD94T05_v3b0HwVxPxXaRdWUGOHULiHuuIJKAQN0g9NXkzIZkO2Glt6cAIjZrkV0jOF4YKa42gvupzmdXvQfc2Q8i6eF9uiZZm9n6g1FueZN0WPpbKWfJ29MTrLIv8DOCsCj-c5K6gTmxl9sx1kxSgK6zf3WVbhcux_i_4u9cpjXVTVRJ_QPVONDnzVrshiTm3aOIjj_MlKHdLUnWqETkjEfNmefALI4vw1eAeuCvGvwgUKDksjHsaq2Vu0]--></g></svg>