<?xml version="1.0" encoding="UTF-8" standalone="no"?><svg xmlns="http://www.w3.org/2000/svg" xmlns:xlink="http://www.w3.org/1999/xlink" contentStyleType="text/css" height="1118px" preserveAspectRatio="none" style="width:2030px;height:1118px;background:#FFFFFF;" version="1.1" viewBox="0 0 2030 1118" width="2030px" zoomAndPan="magnify"><defs/><g><rect fill="#FFFFFF" height="913.4219" style="stroke:#181818;stroke-width:1.0;" width="10" x="31" y="98.5547"/><rect fill="#FFFFFF" height="521.3203" style="stroke:#181818;stroke-width:1.0;" width="10" x="756" y="128.1094"/><rect fill="#FFFFFF" height="37.5547" style="stroke:#181818;stroke-width:1.0;" width="10" x="756" y="686.9844"/><rect fill="#FFFFFF" height="249.8828" style="stroke:#181818;stroke-width:1.0;" width="10" x="756" y="762.0938"/><rect fill="#FFFFFF" height="99.6641" style="stroke:#181818;stroke-width:1.0;" width="10" x="1501" y="214.2188"/><rect fill="#FFFFFF" height="99.6641" style="stroke:#181818;stroke-width:1.0;" width="10" x="1501" y="351.4375"/><rect fill="#FFFFFF" height="99.6641" style="stroke:#181818;stroke-width:1.0;" width="10" x="1501" y="488.6563"/><rect fill="#FFFFFF" height="174.7734" style="stroke:#181818;stroke-width:1.0;" width="10" x="1501" y="799.6484"/><rect fill="#FFFFFF" height="99.6641" style="stroke:#181818;stroke-width:1.0;" width="10" x="1849" y="837.2031"/><line style="stroke:#181818;stroke-width:0.5;stroke-dasharray:5.0,5.0;" x1="36" x2="36" y1="88.5547" y2="1029.9766"/><line style="stroke:#181818;stroke-width:0.5;stroke-dasharray:5.0,5.0;" x1="760.5" x2="760.5" y1="88.5547" y2="1029.9766"/><line style="stroke:#181818;stroke-width:0.5;stroke-dasharray:5.0,5.0;" x1="1505.5" x2="1505.5" y1="170.3867" y2="1029.9766"/><line style="stroke:#181818;stroke-width:0.5;stroke-dasharray:5.0,5.0;" x1="1853.5" x2="1853.5" y1="88.5547" y2="1029.9766"/><text fill="#000000" font-family="sans-serif" font-size="20" lengthAdjust="spacing" textLength="56" x="5" y="84.3359">Agent</text><ellipse cx="36" cy="13.5" fill="#E3E3E3" rx="8" ry="8" style="stroke:#181818;stroke-width:0.5;"/><path d="M36,21.5 L36,48.5 M23,29.5 L49,29.5 M36,48.5 L23,63.5 M36,48.5 L49,63.5 " fill="none" style="stroke:#181818;stroke-width:0.5;"/><text fill="#000000" font-family="sans-serif" font-size="20" lengthAdjust="spacing" textLength="56" x="5" y="1048.3125">Agent</text><ellipse cx="36" cy="1061.0313" fill="#E3E3E3" rx="8" ry="8" style="stroke:#181818;stroke-width:0.5;"/><path d="M36,1069.0313 L36,1096.0313 M23,1077.0313 L49,1077.0313 M36,1096.0313 L23,1111.0313 M36,1096.0313 L49,1111.0313 " fill="none" style="stroke:#181818;stroke-width:0.5;"/><rect fill="#E3E3E3" height="37.5547" rx="2.5" ry="2.5" style="stroke:#181818;stroke-width:0.5;" width="265" x="628.5" y="50"/><text fill="#000000" font-family="sans-serif" font-size="20" lengthAdjust="spacing" textLength="251" x="635.5" y="76.3359">:ManagePurchaseOrdersUI</text><rect fill="#E3E3E3" height="37.5547" rx="2.5" ry="2.5" style="stroke:#181818;stroke-width:0.5;" width="265" x="628.5" y="1028.9766"/><text fill="#000000" font-family="sans-serif" font-size="20" lengthAdjust="spacing" textLength="251" x="635.5" y="1055.3125">:ManagePurchaseOrdersUI</text><rect fill="#E3E3E3" height="37.5547" rx="2.5" ry="2.5" style="stroke:#181818;stroke-width:0.5;" width="341" x="1335.5" y="1028.9766"/><text fill="#000000" font-family="sans-serif" font-size="20" lengthAdjust="spacing" textLength="327" x="1342.5" y="1055.3125">:ManagePurchaseOrdersController</text><rect fill="#E3E3E3" height="61.1094" rx="2.5" ry="2.5" style="stroke:#181818;stroke-width:0.5;" width="335" x="1686.5" y="26.4453"/><text fill="#000000" font-family="sans-serif" font-size="20" lengthAdjust="spacing" textLength="317" x="1695.5" y="52.7813">manageAdvertisementRepository</text><text fill="#000000" font-family="sans-serif" font-size="20" lengthAdjust="spacing" textLength="321" x="1693.5" y="76.3359">:ManageAdvertisementRepository</text><rect fill="#E3E3E3" height="61.1094" rx="2.5" ry="2.5" style="stroke:#181818;stroke-width:0.5;" width="335" x="1686.5" y="1028.9766"/><text fill="#000000" font-family="sans-serif" font-size="20" lengthAdjust="spacing" textLength="317" x="1695.5" y="1055.3125">manageAdvertisementRepository</text><text fill="#000000" font-family="sans-serif" font-size="20" lengthAdjust="spacing" textLength="321" x="1693.5" y="1078.8672">:ManageAdvertisementRepository</text><rect fill="#FFFFFF" height="913.4219" style="stroke:#181818;stroke-width:1.0;" width="10" x="31" y="98.5547"/><rect fill="#FFFFFF" height="521.3203" style="stroke:#181818;stroke-width:1.0;" width="10" x="756" y="128.1094"/><rect fill="#FFFFFF" height="37.5547" style="stroke:#181818;stroke-width:1.0;" width="10" x="756" y="686.9844"/><rect fill="#FFFFFF" height="249.8828" style="stroke:#181818;stroke-width:1.0;" width="10" x="756" y="762.0938"/><rect fill="#FFFFFF" height="99.6641" style="stroke:#181818;stroke-width:1.0;" width="10" x="1501" y="214.2188"/><rect fill="#FFFFFF" height="99.6641" style="stroke:#181818;stroke-width:1.0;" width="10" x="1501" y="351.4375"/><rect fill="#FFFFFF" height="99.6641" style="stroke:#181818;stroke-width:1.0;" width="10" x="1501" y="488.6563"/><rect fill="#FFFFFF" height="174.7734" style="stroke:#181818;stroke-width:1.0;" width="10" x="1501" y="799.6484"/><rect fill="#FFFFFF" height="99.6641" style="stroke:#181818;stroke-width:1.0;" width="10" x="1849" y="837.2031"/><polygon fill="#181818" points="744,124.1094,754,128.1094,744,132.1094,748,128.1094" style="stroke:#181818;stroke-width:1.0;"/><line style="stroke:#181818;stroke-width:1.0;" x1="41" x2="750" y1="128.1094" y2="128.1094"/><text fill="#000000" font-family="sans-serif" font-size="20" font-weight="bold" lengthAdjust="spacing" textLength="13" x="48" y="121.8906">1</text><text fill="#000000" font-family="sans-serif" font-size="20" lengthAdjust="spacing" textLength="264" x="65" y="121.8906">asks to list purchase orders</text><polygon fill="#181818" points="1323.5,161.6641,1333.5,165.6641,1323.5,169.6641,1327.5,165.6641" style="stroke:#181818;stroke-width:1.0;"/><line style="stroke:#181818;stroke-width:1.0;" x1="766" x2="1329.5" y1="165.6641" y2="165.6641"/><text fill="#000000" font-family="sans-serif" font-size="20" font-weight="bold" lengthAdjust="spacing" textLength="13" x="773" y="159.4453">2</text><text fill="#000000" font-family="sans-serif" font-size="20" lengthAdjust="spacing" textLength="58" x="790" y="159.4453">create</text><rect fill="#E3E3E3" height="37.5547" rx="2.5" ry="2.5" style="stroke:#181818;stroke-width:0.5;" width="341" x="1335.5" y="136.1094"/><text fill="#000000" font-family="sans-serif" font-size="20" lengthAdjust="spacing" textLength="327" x="1342.5" y="162.4453">:ManagePurchaseOrdersController</text><polygon fill="#181818" points="1489,210.2188,1499,214.2188,1489,218.2188,1493,214.2188" style="stroke:#181818;stroke-width:1.0;"/><line style="stroke:#181818;stroke-width:1.0;" x1="766" x2="1495" y1="214.2188" y2="214.2188"/><text fill="#000000" font-family="sans-serif" font-size="20" font-weight="bold" lengthAdjust="spacing" textLength="13" x="773" y="208">3</text><text fill="#000000" font-family="sans-serif" font-size="20" lengthAdjust="spacing" textLength="100" x="790" y="208">getAgent()</text><rect fill="none" height="57.1094" style="stroke:#000000;stroke-width:1.5;" width="347" x="1332.5" y="222.2188"/><path d="M1332.5,222.2188 L1406.5,222.2188 L1406.5,237.2188 L1396.5,247.2188 L1332.5,247.2188 L1332.5,222.2188 " fill="#EEEEEE" style="stroke:#000000;stroke-width:2.0;"/><text fill="#000000" font-family="sans-serif" font-size="20" font-weight="bold" lengthAdjust="spacing" textLength="29" x="1345.5" y="243.5547">ref</text><text fill="#000000" font-family="sans-serif" font-size="20" lengthAdjust="spacing" textLength="134" x="1439" y="270.5547">Get agent info</text><polygon fill="#181818" points="777,309.8828,767,313.8828,777,317.8828,773,313.8828" style="stroke:#181818;stroke-width:1.0;"/><line style="stroke:#181818;stroke-width:1.0;stroke-dasharray:2.0,2.0;" x1="771" x2="1505" y1="313.8828" y2="313.8828"/><text fill="#000000" font-family="sans-serif" font-size="20" font-weight="bold" lengthAdjust="spacing" textLength="13" x="783" y="307.6641">4</text><text fill="#000000" font-family="sans-serif" font-size="20" lengthAdjust="spacing" textLength="56" x="800" y="307.6641">Agent</text><polygon fill="#181818" points="1489,347.4375,1499,351.4375,1489,355.4375,1493,351.4375" style="stroke:#181818;stroke-width:1.0;"/><line style="stroke:#181818;stroke-width:1.0;" x1="766" x2="1495" y1="351.4375" y2="351.4375"/><text fill="#000000" font-family="sans-serif" font-size="20" font-weight="bold" lengthAdjust="spacing" textLength="13" x="773" y="345.2188">5</text><text fill="#000000" font-family="sans-serif" font-size="20" lengthAdjust="spacing" textLength="470" x="790" y="345.2188">getListOfAdvertisementByAgent(Employee agent)</text><rect fill="none" height="57.1094" style="stroke:#000000;stroke-width:1.5;" width="347" x="1332.5" y="359.4375"/><path d="M1332.5,359.4375 L1406.5,359.4375 L1406.5,374.4375 L1396.5,384.4375 L1332.5,384.4375 L1332.5,359.4375 " fill="#EEEEEE" style="stroke:#000000;stroke-width:2.0;"/><text fill="#000000" font-family="sans-serif" font-size="20" font-weight="bold" lengthAdjust="spacing" textLength="29" x="1345.5" y="380.7734">ref</text><text fill="#000000" font-family="sans-serif" font-size="20" lengthAdjust="spacing" textLength="218" x="1397" y="407.7734">Get purchase order list</text><polygon fill="#181818" points="777,447.1016,767,451.1016,777,455.1016,773,451.1016" style="stroke:#181818;stroke-width:1.0;"/><line style="stroke:#181818;stroke-width:1.0;stroke-dasharray:2.0,2.0;" x1="771" x2="1505" y1="451.1016" y2="451.1016"/><text fill="#000000" font-family="sans-serif" font-size="20" font-weight="bold" lengthAdjust="spacing" textLength="13" x="783" y="444.8828">6</text><text fill="#000000" font-family="sans-serif" font-size="20" lengthAdjust="spacing" textLength="175" x="800" y="444.8828">PurchaseOrderList</text><polygon fill="#181818" points="1489,484.6563,1499,488.6563,1489,492.6563,1493,488.6563" style="stroke:#181818;stroke-width:1.0;"/><line style="stroke:#181818;stroke-width:1.0;" x1="766" x2="1495" y1="488.6563" y2="488.6563"/><text fill="#000000" font-family="sans-serif" font-size="20" font-weight="bold" lengthAdjust="spacing" textLength="13" x="773" y="482.4375">7</text><text fill="#000000" font-family="sans-serif" font-size="20" lengthAdjust="spacing" textLength="699" x="790" y="482.4375">getVisiblePurchaseOrders(ArrayList&lt;PurchaseOrder&gt; PurchaseOrderList)</text><rect fill="none" height="57.1094" style="stroke:#000000;stroke-width:1.5;" width="347" x="1332.5" y="496.6563"/><path d="M1332.5,496.6563 L1406.5,496.6563 L1406.5,511.6563 L1396.5,521.6563 L1332.5,521.6563 L1332.5,496.6563 " fill="#EEEEEE" style="stroke:#000000;stroke-width:2.0;"/><text fill="#000000" font-family="sans-serif" font-size="20" font-weight="bold" lengthAdjust="spacing" textLength="29" x="1345.5" y="517.9922">ref</text><text fill="#000000" font-family="sans-serif" font-size="20" lengthAdjust="spacing" textLength="286" x="1363" y="544.9922">Get visible purchase order list</text><polygon fill="#181818" points="777,584.3203,767,588.3203,777,592.3203,773,588.3203" style="stroke:#181818;stroke-width:1.0;"/><line style="stroke:#181818;stroke-width:1.0;stroke-dasharray:2.0,2.0;" x1="771" x2="1505" y1="588.3203" y2="588.3203"/><text fill="#000000" font-family="sans-serif" font-size="20" font-weight="bold" lengthAdjust="spacing" textLength="13" x="783" y="582.1016">8</text><text fill="#000000" font-family="sans-serif" font-size="20" lengthAdjust="spacing" textLength="240" x="800" y="582.1016">VisiblePurchaseOrderList</text><polygon fill="#181818" points="52,645.4297,42,649.4297,52,653.4297,48,649.4297" style="stroke:#181818;stroke-width:1.0;"/><line style="stroke:#181818;stroke-width:1.0;stroke-dasharray:2.0,2.0;" x1="46" x2="760" y1="649.4297" y2="649.4297"/><text fill="#000000" font-family="sans-serif" font-size="20" font-weight="bold" lengthAdjust="spacing" textLength="13" x="58" y="631.4336">9</text><text fill="#000000" font-family="sans-serif" font-size="20" lengthAdjust="spacing" textLength="634" x="75" y="619.6563">shows list of purchase orders grouped by advertisement an sorted</text><text fill="#000000" font-family="sans-serif" font-size="20" lengthAdjust="spacing" textLength="284" x="75" y="643.2109">by most recent advertisement</text><polygon fill="#181818" points="744,682.9844,754,686.9844,744,690.9844,748,686.9844" style="stroke:#181818;stroke-width:1.0;"/><line style="stroke:#181818;stroke-width:1.0;" x1="41" x2="750" y1="686.9844" y2="686.9844"/><text fill="#000000" font-family="sans-serif" font-size="20" font-weight="bold" lengthAdjust="spacing" textLength="26" x="48" y="680.7656">10</text><text fill="#000000" font-family="sans-serif" font-size="20" lengthAdjust="spacing" textLength="216" x="78" y="680.7656">selects purchase order</text><polygon fill="#181818" points="52,720.5391,42,724.5391,52,728.5391,48,724.5391" style="stroke:#181818;stroke-width:1.0;"/><line style="stroke:#181818;stroke-width:1.0;stroke-dasharray:2.0,2.0;" x1="46" x2="760" y1="724.5391" y2="724.5391"/><text fill="#000000" font-family="sans-serif" font-size="20" font-weight="bold" lengthAdjust="spacing" textLength="26" x="58" y="718.3203">11</text><text fill="#000000" font-family="sans-serif" font-size="20" lengthAdjust="spacing" textLength="661" x="88" y="718.3203">shows purchase order and asks user either to accept or decline order</text><polygon fill="#181818" points="744,758.0938,754,762.0938,744,766.0938,748,762.0938" style="stroke:#181818;stroke-width:1.0;"/><line style="stroke:#181818;stroke-width:1.0;" x1="41" x2="750" y1="762.0938" y2="762.0938"/><text fill="#000000" font-family="sans-serif" font-size="20" font-weight="bold" lengthAdjust="spacing" textLength="26" x="48" y="755.875">12</text><text fill="#000000" font-family="sans-serif" font-size="20" lengthAdjust="spacing" textLength="320" x="78" y="755.875">selects either to accept or decline</text><polygon fill="#181818" points="1489,795.6484,1499,799.6484,1489,803.6484,1493,799.6484" style="stroke:#181818;stroke-width:1.0;"/><line style="stroke:#181818;stroke-width:1.0;" x1="766" x2="1495" y1="799.6484" y2="799.6484"/><text fill="#000000" font-family="sans-serif" font-size="20" font-weight="bold" lengthAdjust="spacing" textLength="26" x="773" y="793.4297">13</text><text fill="#000000" font-family="sans-serif" font-size="20" lengthAdjust="spacing" textLength="157" x="803" y="793.4297">setStatus(status)</text><polygon fill="#181818" points="1837,833.2031,1847,837.2031,1837,841.2031,1841,837.2031" style="stroke:#181818;stroke-width:1.0;"/><line style="stroke:#181818;stroke-width:1.0;" x1="1511" x2="1843" y1="837.2031" y2="837.2031"/><text fill="#000000" font-family="sans-serif" font-size="20" font-weight="bold" lengthAdjust="spacing" textLength="26" x="1518" y="830.9844">14</text><text fill="#000000" font-family="sans-serif" font-size="20" lengthAdjust="spacing" textLength="157" x="1548" y="830.9844">setStatus(status)</text><rect fill="none" height="57.1094" style="stroke:#000000;stroke-width:1.5;" width="341" x="1683.5" y="845.2031"/><path d="M1683.5,845.2031 L1757.5,845.2031 L1757.5,860.2031 L1747.5,870.2031 L1683.5,870.2031 L1683.5,845.2031 " fill="#EEEEEE" style="stroke:#000000;stroke-width:2.0;"/><text fill="#000000" font-family="sans-serif" font-size="20" font-weight="bold" lengthAdjust="spacing" textLength="29" x="1696.5" y="866.5391">ref</text><text fill="#000000" font-family="sans-serif" font-size="20" lengthAdjust="spacing" textLength="243" x="1732.5" y="893.5391">Set purchase order status</text><polygon fill="#181818" points="1522,932.8672,1512,936.8672,1522,940.8672,1518,936.8672" style="stroke:#181818;stroke-width:1.0;"/><line style="stroke:#181818;stroke-width:1.0;stroke-dasharray:2.0,2.0;" x1="1516" x2="1853" y1="936.8672" y2="936.8672"/><text fill="#000000" font-family="sans-serif" font-size="20" font-weight="bold" lengthAdjust="spacing" textLength="26" x="1528" y="930.6484">15</text><text fill="#000000" font-family="sans-serif" font-size="20" lengthAdjust="spacing" textLength="147" x="1558" y="930.6484">Purchase Order</text><polygon fill="#181818" points="777,970.4219,767,974.4219,777,978.4219,773,974.4219" style="stroke:#181818;stroke-width:1.0;"/><line style="stroke:#181818;stroke-width:1.0;" x1="771" x2="1505" y1="974.4219" y2="974.4219"/><text fill="#000000" font-family="sans-serif" font-size="20" font-weight="bold" lengthAdjust="spacing" textLength="26" x="783" y="968.2031">16</text><text fill="#000000" font-family="sans-serif" font-size="20" lengthAdjust="spacing" textLength="147" x="813" y="968.2031">Purchase Order</text><polygon fill="#181818" points="47,1007.9766,37,1011.9766,47,1015.9766,43,1011.9766" style="stroke:#181818;stroke-width:1.0;"/><line style="stroke:#181818;stroke-width:1.0;" x1="41" x2="760" y1="1011.9766" y2="1011.9766"/><text fill="#000000" font-family="sans-serif" font-size="20" font-weight="bold" lengthAdjust="spacing" textLength="26" x="53" y="1005.7578">17</text><text fill="#000000" font-family="sans-serif" font-size="20" lengthAdjust="spacing" textLength="226" x="83" y="1005.7578">show operation success</text><!--SRC=[hLLDRzim3BtxLn0vfGK233i6Gu2itOO0AJ8qoqwzA3Bj294bGv9JUBz-j9ou_b2IjeWkjapowJsAfErUg9mPbadDznX3Z0ahfFkfbLkBVmXVlqJsv0APLfhlZCuGd2cmPSaPtxCKrwwK20QvOogLRGUxOx5-5Ig5X4cBKSGAfrMHRT7GEtVQm6YUed8ZO1RcZqyHnJd1HSwKWz7qYId2_rqOlcCMLoP6OpSBxxnPlCFtWGGPBIKQ7_FmvtdPZSfyq3m-87sqc16LPyor5KIjV557q3DsZnb0yDB4WJdqaY8uBjh0P4RCOKgHUmjEWnJMGNua3TgpRW8Q618BhKK8X5EfkRydB6wGdA8pBkIGelDP7jzrV1fudnVeBOC9Q58Ljlv21wp21A4IFJ2ZYYk0mNTFQ79AWYVLyOcnI-gYfYNbRfLqKl-zh8N-o7AfIyIQusrbTs_Bt-0dzNUATTd7-L0k_Wehjh9N_kEvCQoiWBzr3BFXoRTDqQ5cSyDKXVHzF6E4LZNXb0QJVhLry-catt-G6btaD1Qt9R1sTG5JOBLn6ByeicMQmcdiUKjd00G8KGj7_I5WKTBGjBtpetxhHnSaz3BCA9b-j1IMTYZSZXuqPXZdc9DMGvIu5Afzr3j9NW2xpBWfKu9oQyTSOSVMF-u6btxX_iBrCGiDOC_wsb71OqFJ7AwifXq-4xmU3fIQyDN8SttJNw7yJDukvTHHi6eAujng5KhmhtV-ZZQBgmVrU_UjUgWOwse7dQDXJcZgme9gqDfG_RQsrT_tFm00]--></g></svg>