<?xml version="1.0" encoding="UTF-8" standalone="no"?><svg xmlns="http://www.w3.org/2000/svg" xmlns:xlink="http://www.w3.org/1999/xlink" contentStyleType="text/css" height="1507px" preserveAspectRatio="none" style="width:1483px;height:1507px;background:#FFFFFF;" version="1.1" viewBox="0 0 1483 1507" width="1483px" zoomAndPan="magnify"><defs/><g><!--class ManagePurchaseOrderUI--><g id="elem_ManagePurchaseOrderUI"><rect codeLine="7" fill="#F1F1F1" height="50" id="ManagePurchaseOrderUI" rx="2.5" ry="2.5" style="stroke:#181818;stroke-width:0.5;" width="269" x="692" y="7"/><ellipse cx="708" cy="24" fill="#ADD1B2" rx="12" ry="12" style="stroke:#181818;stroke-width:1.0;"/><path d="M710.8066,31.0801 Q710.123,31.4316 709.3711,31.6074 Q708.6191,31.7832 707.7891,31.7832 Q704.8398,31.7832 703.2871,29.8398 Q701.7344,27.8965 701.7344,24.2246 Q701.7344,20.543 703.2871,18.5996 Q704.8398,16.6563 707.7891,16.6563 Q708.6191,16.6563 709.3809,16.832 Q710.1426,17.0078 710.8066,17.3594 L710.8066,20.5625 Q710.0645,19.8789 709.3662,19.5615 Q708.668,19.2441 707.9258,19.2441 Q706.3438,19.2441 705.5381,20.499 Q704.7324,21.7539 704.7324,24.2246 Q704.7324,26.6855 705.5381,27.9404 Q706.3438,29.1953 707.9258,29.1953 Q708.668,29.1953 709.3662,28.8779 Q710.0645,28.5605 710.8066,27.877 Z " fill="#000000"/><text fill="#000000" font-family="sans-serif" font-size="20" lengthAdjust="spacing" textLength="235" x="723" y="31.5586">ManagePurchaseOrderUI</text><line style="stroke:#181818;stroke-width:0.5;" x1="693" x2="960" y1="41" y2="41"/><line style="stroke:#181818;stroke-width:0.5;" x1="693" x2="960" y1="49" y2="49"/></g><!--class ManagePurchaseOrderController--><g id="elem_ManagePurchaseOrderController"><rect codeLine="8" fill="#F1F1F1" height="144.2188" id="ManagePurchaseOrderController" rx="2.5" ry="2.5" style="stroke:#181818;stroke-width:0.5;" width="729" x="462" y="118"/><ellipse cx="666.5" cy="135" fill="#ADD1B2" rx="12" ry="12" style="stroke:#181818;stroke-width:1.0;"/><path d="M669.3066,142.0801 Q668.623,142.4316 667.8711,142.6074 Q667.1191,142.7832 666.2891,142.7832 Q663.3398,142.7832 661.7871,140.8398 Q660.2344,138.8965 660.2344,135.2246 Q660.2344,131.543 661.7871,129.5996 Q663.3398,127.6563 666.2891,127.6563 Q667.1191,127.6563 667.8809,127.832 Q668.6426,128.0078 669.3066,128.3594 L669.3066,131.5625 Q668.5645,130.8789 667.8662,130.5615 Q667.168,130.2441 666.4258,130.2441 Q664.8438,130.2441 664.0381,131.499 Q663.2324,132.7539 663.2324,135.2246 Q663.2324,137.6855 664.0381,138.9404 Q664.8438,140.1953 666.4258,140.1953 Q667.168,140.1953 667.8662,139.8779 Q668.5645,139.5605 669.3066,138.877 Z " fill="#000000"/><text fill="#000000" font-family="sans-serif" font-size="20" lengthAdjust="spacing" textLength="311" x="688.5" y="142.5586">ManagePurchaseOrderController</text><line style="stroke:#181818;stroke-width:0.5;" x1="463" x2="1190" y1="152" y2="152"/><line style="stroke:#181818;stroke-width:0.5;" x1="463" x2="1190" y1="160" y2="160"/><text fill="#000000" font-family="sans-serif" font-size="20" lengthAdjust="spacing" textLength="341" x="468" y="183.3359">+ManagePurchaseOrderController()</text><text fill="#000000" font-family="sans-serif" font-size="20" lengthAdjust="spacing" textLength="116" x="468" y="206.8906">+getAgent()</text><text fill="#000000" font-family="sans-serif" font-size="20" lengthAdjust="spacing" textLength="496" x="468" y="230.4453">+getListOfAdvertisementsByAgent(Employee agent)</text><text fill="#000000" font-family="sans-serif" font-size="20" lengthAdjust="spacing" textLength="717" x="468" y="254">+getVisiblePurchaseOrders(ArrayList&lt;PurchaseOrder&gt; purchaseOrderList)</text></g><!--class Repositories--><g id="elem_Repositories"><rect codeLine="14" fill="#F1F1F1" height="167.7734" id="Repositories" rx="2.5" ry="2.5" style="stroke:#181818;stroke-width:0.5;" width="313" x="681" y="575"/><ellipse cx="773.5" cy="592" fill="#ADD1B2" rx="12" ry="12" style="stroke:#181818;stroke-width:1.0;"/><path d="M776.3066,599.0801 Q775.623,599.4316 774.8711,599.6074 Q774.1191,599.7832 773.2891,599.7832 Q770.3398,599.7832 768.7871,597.8398 Q767.2344,595.8965 767.2344,592.2246 Q767.2344,588.543 768.7871,586.5996 Q770.3398,584.6563 773.2891,584.6563 Q774.1191,584.6563 774.8809,584.832 Q775.6426,585.0078 776.3066,585.3594 L776.3066,588.5625 Q775.5645,587.8789 774.8662,587.5615 Q774.168,587.2441 773.4258,587.2441 Q771.8438,587.2441 771.0381,588.499 Q770.2324,589.7539 770.2324,592.2246 Q770.2324,594.6855 771.0381,595.9404 Q771.8438,597.1953 773.4258,597.1953 Q774.168,597.1953 774.8662,596.8779 Q775.5645,596.5605 776.3066,595.877 Z " fill="#000000"/><text fill="#000000" font-family="sans-serif" font-size="20" lengthAdjust="spacing" textLength="119" x="795.5" y="599.5586">Repositories</text><line style="stroke:#181818;stroke-width:0.5;" x1="682" x2="993" y1="609" y2="609"/><line style="stroke:#181818;stroke-width:0.5;" x1="682" x2="993" y1="617" y2="617"/><text fill="#000000" font-family="sans-serif" font-size="20" lengthAdjust="spacing" textLength="145" x="687" y="640.3359">-Repositories()</text><text fill="#000000" font-family="sans-serif" font-size="20" lengthAdjust="spacing" textLength="276" x="687" y="663.8906">+getInstance() : Repositories</text><text fill="#000000" font-family="sans-serif" font-size="20" lengthAdjust="spacing" textLength="301" x="687" y="687.4453">+getAdvertisementRepository()</text><text fill="#000000" font-family="sans-serif" font-size="20" lengthAdjust="spacing" textLength="255" x="687" y="711">+getEmployeeRepository()</text><text fill="#000000" font-family="sans-serif" font-size="20" lengthAdjust="spacing" textLength="301" x="687" y="734.5547">+getAuthenticationRepository()</text></g><!--class ManageAdvertisementRepository--><g id="elem_ManageAdvertisementRepository"><rect codeLine="21" fill="#F1F1F1" height="191.3281" id="ManageAdvertisementRepository" rx="2.5" ry="2.5" style="stroke:#181818;stroke-width:0.5;" width="729" x="7" y="323"/><ellipse cx="209.5" cy="340" fill="#ADD1B2" rx="12" ry="12" style="stroke:#181818;stroke-width:1.0;"/><path d="M212.3066,347.0801 Q211.623,347.4316 210.8711,347.6074 Q210.1191,347.7832 209.2891,347.7832 Q206.3398,347.7832 204.7871,345.8398 Q203.2344,343.8965 203.2344,340.2246 Q203.2344,336.543 204.7871,334.5996 Q206.3398,332.6563 209.2891,332.6563 Q210.1191,332.6563 210.8809,332.832 Q211.6426,333.0078 212.3066,333.3594 L212.3066,336.5625 Q211.5645,335.8789 210.8662,335.5615 Q210.168,335.2441 209.4258,335.2441 Q207.8438,335.2441 207.0381,336.499 Q206.2324,337.7539 206.2324,340.2246 Q206.2324,342.6855 207.0381,343.9404 Q207.8438,345.1953 209.4258,345.1953 Q210.168,345.1953 210.8662,344.8779 Q211.5645,344.5605 212.3066,343.877 Z " fill="#000000"/><text fill="#000000" font-family="sans-serif" font-size="20" lengthAdjust="spacing" textLength="315" x="231.5" y="347.5586">ManageAdvertisementRepository</text><line style="stroke:#181818;stroke-width:0.5;" x1="8" x2="735" y1="357" y2="357"/><line style="stroke:#181818;stroke-width:0.5;" x1="8" x2="735" y1="365" y2="365"/><text fill="#000000" font-family="sans-serif" font-size="20" lengthAdjust="spacing" textLength="586" x="13" y="388.3359">+ManageAdvertisementRepository(AdvertisementRepository)</text><text fill="#000000" font-family="sans-serif" font-size="20" lengthAdjust="spacing" textLength="266" x="13" y="411.8906">+getListOfAdvertisements()</text><text fill="#000000" font-family="sans-serif" font-size="20" lengthAdjust="spacing" textLength="496" x="13" y="435.4453">+getListOfAdvertisementsByAgent(Employee agent)</text><text fill="#000000" font-family="sans-serif" font-size="20" lengthAdjust="spacing" textLength="717" x="13" y="459">+getVisiblePurchaseOrders(ArrayList&lt;PurchaseOrder&gt; purchaseOrderList)</text><text fill="#000000" font-family="sans-serif" font-size="20" lengthAdjust="spacing" textLength="250" x="13" y="482.5547">+displayPurchaseOrders()</text><text fill="#000000" font-family="sans-serif" font-size="20" lengthAdjust="spacing" textLength="376" x="13" y="506.1094">+setPurchaseOrderStatus(String status)</text></g><!--class PurchaseOrder--><g id="elem_PurchaseOrder"><rect codeLine="29" fill="#F1F1F1" height="167.7734" id="PurchaseOrder" rx="2.5" ry="2.5" style="stroke:#181818;stroke-width:0.5;" width="415" x="247" y="1333"/><ellipse cx="379.5" cy="1350" fill="#ADD1B2" rx="12" ry="12" style="stroke:#181818;stroke-width:1.0;"/><path d="M382.3066,1357.0801 Q381.623,1357.4316 380.8711,1357.6074 Q380.1191,1357.7832 379.2891,1357.7832 Q376.3398,1357.7832 374.7871,1355.8398 Q373.2344,1353.8965 373.2344,1350.2246 Q373.2344,1346.543 374.7871,1344.5996 Q376.3398,1342.6563 379.2891,1342.6563 Q380.1191,1342.6563 380.8809,1342.832 Q381.6426,1343.0078 382.3066,1343.3594 L382.3066,1346.5625 Q381.5645,1345.8789 380.8662,1345.5615 Q380.168,1345.2441 379.4258,1345.2441 Q377.8438,1345.2441 377.0381,1346.499 Q376.2324,1347.7539 376.2324,1350.2246 Q376.2324,1352.6855 377.0381,1353.9404 Q377.8438,1355.1953 379.4258,1355.1953 Q380.168,1355.1953 380.8662,1354.8779 Q381.5645,1354.5605 382.3066,1353.877 Z " fill="#000000"/><text fill="#000000" font-family="sans-serif" font-size="20" lengthAdjust="spacing" textLength="141" x="401.5" y="1357.5586">PurchaseOrder</text><line style="stroke:#181818;stroke-width:0.5;" x1="248" x2="661" y1="1367" y2="1367"/><text fill="#000000" font-family="sans-serif" font-size="20" lengthAdjust="spacing" textLength="126" x="253" y="1390.3359">-Client client</text><text fill="#000000" font-family="sans-serif" font-size="20" lengthAdjust="spacing" textLength="216" x="253" y="1413.8906">-String dateOfRequest</text><text fill="#000000" font-family="sans-serif" font-size="20" lengthAdjust="spacing" textLength="122" x="253" y="1437.4453">-String price</text><text fill="#000000" font-family="sans-serif" font-size="20" lengthAdjust="spacing" textLength="131" x="253" y="1461">-String status</text><line style="stroke:#181818;stroke-width:0.5;" x1="248" x2="661" y1="1469.2188" y2="1469.2188"/><text fill="#000000" font-family="sans-serif" font-size="20" lengthAdjust="spacing" textLength="403" x="253" y="1492.5547">+request(property, dateOfRequest, agent)</text></g><!--class Advertisement--><g id="elem_Advertisement"><rect codeLine="36" fill="#F1F1F1" height="167.7734" id="Advertisement" rx="2.5" ry="2.5" style="stroke:#181818;stroke-width:0.5;" width="786" x="61.5" y="1021"/><ellipse cx="380.5" cy="1038" fill="#ADD1B2" rx="12" ry="12" style="stroke:#181818;stroke-width:1.0;"/><path d="M383.3066,1045.0801 Q382.623,1045.4316 381.8711,1045.6074 Q381.1191,1045.7832 380.2891,1045.7832 Q377.3398,1045.7832 375.7871,1043.8398 Q374.2344,1041.8965 374.2344,1038.2246 Q374.2344,1034.543 375.7871,1032.5996 Q377.3398,1030.6563 380.2891,1030.6563 Q381.1191,1030.6563 381.8809,1030.832 Q382.6426,1031.0078 383.3066,1031.3594 L383.3066,1034.5625 Q382.5645,1033.8789 381.8662,1033.5615 Q381.168,1033.2441 380.4258,1033.2441 Q378.8438,1033.2441 378.0381,1034.499 Q377.2324,1035.7539 377.2324,1038.2246 Q377.2324,1040.6855 378.0381,1041.9404 Q378.8438,1043.1953 380.4258,1043.1953 Q381.168,1043.1953 381.8662,1042.8779 Q382.5645,1042.5605 383.3066,1041.877 Z " fill="#000000"/><text fill="#000000" font-family="sans-serif" font-size="20" lengthAdjust="spacing" textLength="139" x="402.5" y="1045.5586">Advertisement</text><line style="stroke:#181818;stroke-width:0.5;" x1="62.5" x2="846.5" y1="1055" y2="1055"/><text fill="#000000" font-family="sans-serif" font-size="20" lengthAdjust="spacing" textLength="278" x="67.5" y="1078.3359">-String dateOfAdvertisement</text><text fill="#000000" font-family="sans-serif" font-size="20" lengthAdjust="spacing" textLength="167" x="67.5" y="1101.8906">-Request request</text><text fill="#000000" font-family="sans-serif" font-size="20" lengthAdjust="spacing" textLength="254" x="67.5" y="1125.4453">-Commission commission</text><text fill="#000000" font-family="sans-serif" font-size="20" lengthAdjust="spacing" textLength="459" x="67.5" y="1149">-ArrayList &lt;PurchaseOrder&gt; purchaseOrderList</text><line style="stroke:#181818;stroke-width:0.5;" x1="62.5" x2="846.5" y1="1157.2188" y2="1157.2188"/><text fill="#000000" font-family="sans-serif" font-size="20" lengthAdjust="spacing" textLength="774" x="67.5" y="1180.5547">+Advertisement(dateOfAdvertisement, request, commission, purchaseOrderList)</text></g><!--class AdvertisementRepository--><g id="elem_AdvertisementRepository"><rect codeLine="43" fill="#F1F1F1" height="97.1094" id="AdvertisementRepository" rx="2.5" ry="2.5" style="stroke:#181818;stroke-width:0.5;" width="388" x="424.5" y="804"/><ellipse cx="493.5" cy="821" fill="#ADD1B2" rx="12" ry="12" style="stroke:#181818;stroke-width:1.0;"/><path d="M496.3066,828.0801 Q495.623,828.4316 494.8711,828.6074 Q494.1191,828.7832 493.2891,828.7832 Q490.3398,828.7832 488.7871,826.8398 Q487.2344,824.8965 487.2344,821.2246 Q487.2344,817.543 488.7871,815.5996 Q490.3398,813.6563 493.2891,813.6563 Q494.1191,813.6563 494.8809,813.832 Q495.6426,814.0078 496.3066,814.3594 L496.3066,817.5625 Q495.5645,816.8789 494.8662,816.5615 Q494.168,816.2441 493.4258,816.2441 Q491.8438,816.2441 491.0381,817.499 Q490.2324,818.7539 490.2324,821.2246 Q490.2324,823.6855 491.0381,824.9404 Q491.8438,826.1953 493.4258,826.1953 Q494.168,826.1953 494.8662,825.8779 Q495.5645,825.5605 496.3066,824.877 Z " fill="#000000"/><text fill="#000000" font-family="sans-serif" font-size="20" lengthAdjust="spacing" textLength="241" x="515.5" y="828.5586">AdvertisementRepository</text><line style="stroke:#181818;stroke-width:0.5;" x1="425.5" x2="811.5" y1="838" y2="838"/><text fill="#000000" font-family="sans-serif" font-size="20" lengthAdjust="spacing" textLength="375" x="430.5" y="861.3359">-List &lt;Advertisement&gt; advertisements</text><line style="stroke:#181818;stroke-width:0.5;" x1="425.5" x2="811.5" y1="869.5547" y2="869.5547"/><text fill="#000000" font-family="sans-serif" font-size="20" lengthAdjust="spacing" textLength="376" x="430.5" y="892.8906">+setPurchaseOrderStatus(String status)</text></g><!--class EmployeeRepository--><g id="elem_EmployeeRepository"><rect codeLine="47" fill="#F1F1F1" height="73.5547" id="EmployeeRepository" rx="2.5" ry="2.5" style="stroke:#181818;stroke-width:0.5;" width="240" x="970.5" y="815.5"/><ellipse cx="991.45" cy="832.5" fill="#ADD1B2" rx="12" ry="12" style="stroke:#181818;stroke-width:1.0;"/><path d="M994.2566,839.5801 Q993.573,839.9316 992.8211,840.1074 Q992.0691,840.2832 991.2391,840.2832 Q988.2898,840.2832 986.7371,838.3398 Q985.1844,836.3965 985.1844,832.7246 Q985.1844,829.043 986.7371,827.0996 Q988.2898,825.1563 991.2391,825.1563 Q992.0691,825.1563 992.8309,825.332 Q993.5926,825.5078 994.2566,825.8594 L994.2566,829.0625 Q993.5145,828.3789 992.8162,828.0615 Q992.118,827.7441 991.3758,827.7441 Q989.7938,827.7441 988.9881,828.999 Q988.1824,830.2539 988.1824,832.7246 Q988.1824,835.1855 988.9881,836.4404 Q989.7938,837.6953 991.3758,837.6953 Q992.118,837.6953 992.8162,837.3779 Q993.5145,837.0605 994.2566,836.377 Z " fill="#000000"/><text fill="#000000" font-family="sans-serif" font-size="20" lengthAdjust="spacing" textLength="195" x="1007.55" y="840.0586">EmployeeRepository</text><line style="stroke:#181818;stroke-width:0.5;" x1="971.5" x2="1209.5" y1="849.5" y2="849.5"/><line style="stroke:#181818;stroke-width:0.5;" x1="971.5" x2="1209.5" y1="857.5" y2="857.5"/><text fill="#000000" font-family="sans-serif" font-size="20" lengthAdjust="spacing" textLength="228" x="976.5" y="880.8359">+getEmployeeByEmail()</text></g><!--class AuthenticationRepository--><g id="elem_AuthenticationRepository"><rect codeLine="50" fill="#F1F1F1" height="73.5547" id="AuthenticationRepository" rx="2.5" ry="2.5" style="stroke:#181818;stroke-width:0.5;" width="275" x="1201" y="622"/><ellipse cx="1217" cy="639" fill="#ADD1B2" rx="12" ry="12" style="stroke:#181818;stroke-width:1.0;"/><path d="M1219.8066,646.0801 Q1219.123,646.4316 1218.3711,646.6074 Q1217.6191,646.7832 1216.7891,646.7832 Q1213.8398,646.7832 1212.2871,644.8398 Q1210.7344,642.8965 1210.7344,639.2246 Q1210.7344,635.543 1212.2871,633.5996 Q1213.8398,631.6563 1216.7891,631.6563 Q1217.6191,631.6563 1218.3809,631.832 Q1219.1426,632.0078 1219.8066,632.3594 L1219.8066,635.5625 Q1219.0645,634.8789 1218.3662,634.5615 Q1217.668,634.2441 1216.9258,634.2441 Q1215.3438,634.2441 1214.5381,635.499 Q1213.7324,636.7539 1213.7324,639.2246 Q1213.7324,641.6855 1214.5381,642.9404 Q1215.3438,644.1953 1216.9258,644.1953 Q1217.668,644.1953 1218.3662,643.8779 Q1219.0645,643.5605 1219.8066,642.877 Z " fill="#000000"/><text fill="#000000" font-family="sans-serif" font-size="20" lengthAdjust="spacing" textLength="241" x="1232" y="646.5586">AuthenticationRepository</text><line style="stroke:#181818;stroke-width:0.5;" x1="1202" x2="1475" y1="656" y2="656"/><line style="stroke:#181818;stroke-width:0.5;" x1="1202" x2="1475" y1="664" y2="664"/><text fill="#000000" font-family="sans-serif" font-size="20" lengthAdjust="spacing" textLength="247" x="1207" y="687.3359">+getCurrentUserSession()</text></g><!--class ManageEmployeeRepository--><g id="elem_ManageEmployeeRepository"><rect codeLine="53" fill="#F1F1F1" height="73.5547" id="ManageEmployeeRepository" rx="2.5" ry="2.5" style="stroke:#181818;stroke-width:0.5;" width="303" x="958" y="381.5"/><ellipse cx="974" cy="398.5" fill="#ADD1B2" rx="12" ry="12" style="stroke:#181818;stroke-width:1.0;"/><path d="M976.8066,405.5801 Q976.123,405.9316 975.3711,406.1074 Q974.6191,406.2832 973.7891,406.2832 Q970.8398,406.2832 969.2871,404.3398 Q967.7344,402.3965 967.7344,398.7246 Q967.7344,395.043 969.2871,393.0996 Q970.8398,391.1563 973.7891,391.1563 Q974.6191,391.1563 975.3809,391.332 Q976.1426,391.5078 976.8066,391.8594 L976.8066,395.0625 Q976.0645,394.3789 975.3662,394.0615 Q974.668,393.7441 973.9258,393.7441 Q972.3438,393.7441 971.5381,394.999 Q970.7324,396.2539 970.7324,398.7246 Q970.7324,401.1855 971.5381,402.4404 Q972.3438,403.6953 973.9258,403.6953 Q974.668,403.6953 975.3662,403.3779 Q976.0645,403.0605 976.8066,402.377 Z " fill="#000000"/><text fill="#000000" font-family="sans-serif" font-size="20" lengthAdjust="spacing" textLength="269" x="989" y="406.0586">ManageEmployeeRepository</text><line style="stroke:#181818;stroke-width:0.5;" x1="959" x2="1260" y1="415.5" y2="415.5"/><line style="stroke:#181818;stroke-width:0.5;" x1="959" x2="1260" y1="423.5" y2="423.5"/><text fill="#000000" font-family="sans-serif" font-size="20" lengthAdjust="spacing" textLength="228" x="964" y="446.8359">+getEmployeeByEmail()</text></g><!--class UserSession--><g id="elem_UserSession"><rect codeLine="56" fill="#F1F1F1" height="73.5547" id="UserSession" rx="2.5" ry="2.5" style="stroke:#181818;stroke-width:0.5;" width="149" x="1296" y="381.5"/><ellipse cx="1312" cy="398.5" fill="#ADD1B2" rx="12" ry="12" style="stroke:#181818;stroke-width:1.0;"/><path d="M1314.8066,405.5801 Q1314.123,405.9316 1313.3711,406.1074 Q1312.6191,406.2832 1311.7891,406.2832 Q1308.8398,406.2832 1307.2871,404.3398 Q1305.7344,402.3965 1305.7344,398.7246 Q1305.7344,395.043 1307.2871,393.0996 Q1308.8398,391.1563 1311.7891,391.1563 Q1312.6191,391.1563 1313.3809,391.332 Q1314.1426,391.5078 1314.8066,391.8594 L1314.8066,395.0625 Q1314.0645,394.3789 1313.3662,394.0615 Q1312.668,393.7441 1311.9258,393.7441 Q1310.3438,393.7441 1309.5381,394.999 Q1308.7324,396.2539 1308.7324,398.7246 Q1308.7324,401.1855 1309.5381,402.4404 Q1310.3438,403.6953 1311.9258,403.6953 Q1312.668,403.6953 1313.3662,403.3779 Q1314.0645,403.0605 1314.8066,402.377 Z " fill="#000000"/><text fill="#000000" font-family="sans-serif" font-size="20" lengthAdjust="spacing" textLength="115" x="1327" y="406.0586">UserSession</text><line style="stroke:#181818;stroke-width:0.5;" x1="1297" x2="1444" y1="415.5" y2="415.5"/><line style="stroke:#181818;stroke-width:0.5;" x1="1297" x2="1444" y1="423.5" y2="423.5"/><text fill="#000000" font-family="sans-serif" font-size="20" lengthAdjust="spacing" textLength="122" x="1302" y="446.8359">+getUserId()</text></g><!--class Employee--><g id="elem_Employee"><rect codeLine="59" fill="#F1F1F1" height="285.5469" id="Employee" rx="2.5" ry="2.5" style="stroke:#181818;stroke-width:0.5;" width="539" x="883" y="962"/><ellipse cx="1101.5" cy="979" fill="#ADD1B2" rx="12" ry="12" style="stroke:#181818;stroke-width:1.0;"/><path d="M1104.3066,986.0801 Q1103.623,986.4316 1102.8711,986.6074 Q1102.1191,986.7832 1101.2891,986.7832 Q1098.3398,986.7832 1096.7871,984.8398 Q1095.2344,982.8965 1095.2344,979.2246 Q1095.2344,975.543 1096.7871,973.5996 Q1098.3398,971.6563 1101.2891,971.6563 Q1102.1191,971.6563 1102.8809,971.832 Q1103.6426,972.0078 1104.3066,972.3594 L1104.3066,975.5625 Q1103.5645,974.8789 1102.8662,974.5615 Q1102.168,974.2441 1101.4258,974.2441 Q1099.8438,974.2441 1099.0381,975.499 Q1098.2324,976.7539 1098.2324,979.2246 Q1098.2324,981.6855 1099.0381,982.9404 Q1099.8438,984.1953 1101.4258,984.1953 Q1102.168,984.1953 1102.8662,983.8779 Q1103.5645,983.5605 1104.3066,982.877 Z " fill="#000000"/><text fill="#000000" font-family="sans-serif" font-size="20" lengthAdjust="spacing" textLength="93" x="1123.5" y="986.5586">Employee</text><line style="stroke:#181818;stroke-width:0.5;" x1="884" x2="1421" y1="996" y2="996"/><text fill="#000000" font-family="sans-serif" font-size="20" lengthAdjust="spacing" textLength="127" x="889" y="1019.3359">-String name</text><text fill="#000000" font-family="sans-serif" font-size="20" lengthAdjust="spacing" textLength="247" x="889" y="1042.8906">-String telephoneNumber</text><text fill="#000000" font-family="sans-serif" font-size="20" lengthAdjust="spacing" textLength="124" x="889" y="1066.4453">-Email email</text><text fill="#000000" font-family="sans-serif" font-size="20" lengthAdjust="spacing" textLength="354" x="889" y="1090">-PassportCard passportCardNumber</text><text fill="#000000" font-family="sans-serif" font-size="20" lengthAdjust="spacing" textLength="303" x="889" y="1113.5547">-SocialSecurityCard taxNumber</text><text fill="#000000" font-family="sans-serif" font-size="20" lengthAdjust="spacing" textLength="173" x="889" y="1137.1094">-Address address</text><text fill="#000000" font-family="sans-serif" font-size="20" lengthAdjust="spacing" textLength="115" x="889" y="1160.6641">-Store store</text><text fill="#000000" font-family="sans-serif" font-size="20" lengthAdjust="spacing" textLength="97" x="889" y="1184.2188">-Role role</text><line style="stroke:#181818;stroke-width:0.5;" x1="884" x2="1421" y1="1192.4375" y2="1192.4375"/><text fill="#000000" font-family="sans-serif" font-size="20" lengthAdjust="spacing" textLength="515" x="889" y="1215.7734">+Employee(name, passportCardNumber, taxNumber,</text><text fill="#000000" font-family="sans-serif" font-size="20" lengthAdjust="spacing" textLength="521" x="895" y="1239.3281">address, emailAddress, telephoneNumber, store, role)</text></g><!--link ManagePurchaseOrderUI to ManagePurchaseOrderController--><g id="link_ManagePurchaseOrderUI_ManagePurchaseOrderController"><path codeLine="71" d="M826.5,57.03 C826.5,72.08 826.5,92.39 826.5,112.55 " fill="none" id="ManagePurchaseOrderUI-to-ManagePurchaseOrderController" style="stroke:#181818;stroke-width:1.0;"/><polygon fill="#181818" points="826.5,117.68,830.5,108.68,826.5,112.68,822.5,108.68,826.5,117.68" style="stroke:#181818;stroke-width:1.0;"/></g><!--link ManagePurchaseOrderController to ManageEmployeeRepository--><g id="link_ManagePurchaseOrderController_ManageEmployeeRepository"><path codeLine="73" d="M915.27,262.04 C962.97,300.22 1020,345.87 1059.88,377.79 " fill="none" id="ManagePurchaseOrderController-to-ManageEmployeeRepository" style="stroke:#181818;stroke-width:1.0;stroke-dasharray:7.0,7.0;"/><polygon fill="#181818" points="1064.17,381.22,1059.6527,372.4682,1060.2698,378.0913,1054.6468,378.7085,1064.17,381.22" style="stroke:#181818;stroke-width:1.0;"/></g><!--link ManagePurchaseOrderController to UserSession--><g id="link_ManagePurchaseOrderController_UserSession"><path codeLine="74" d="M1069.7,262.02 C1176.69,293.27 1278.5,323 1278.5,323 C1278.5,323 1306.43,351.69 1331.52,377.46 " fill="none" id="ManagePurchaseOrderController-to-UserSession" style="stroke:#181818;stroke-width:1.0;stroke-dasharray:7.0,7.0;"/><polygon fill="#181818" points="1335.19,381.23,1331.7848,371.9885,1331.7048,377.6448,1326.0485,377.5648,1335.19,381.23" style="stroke:#181818;stroke-width:1.0;"/></g><!--link ManagePurchaseOrderController to Repositories--><g id="link_ManagePurchaseOrderController_Repositories"><path codeLine="75" d="M825.42,262.02 C824.95,293.27 824.5,323 824.5,323 C824.5,323 824.5,514 824.5,514 C824.5,514 826.82,539.74 829.51,569.46 " fill="none" id="ManagePurchaseOrderController-to-Repositories" style="stroke:#181818;stroke-width:1.0;stroke-dasharray:7.0,7.0;"/><polygon fill="#181818" points="829.98,574.65,833.1415,565.3224,829.5235,569.6709,825.1749,566.0528,829.98,574.65" style="stroke:#181818;stroke-width:1.0;"/><text fill="#000000" font-family="sans-serif" font-size="20" lengthAdjust="spacing" textLength="114" x="825.5" y="426.3359">repositories</text></g><!--link ManagePurchaseOrderController to ManageAdvertisementRepository--><g id="link_ManagePurchaseOrderController_ManageAdvertisementRepository"><path codeLine="76" d="M683.78,262.04 C646.59,280.56 605.88,300.83 566.49,320.44 " fill="none" id="ManagePurchaseOrderController-to-ManageAdvertisementRepository" style="stroke:#181818;stroke-width:1.0;stroke-dasharray:7.0,7.0;"/><polygon fill="#181818" points="561.69,322.82,571.5293,322.3854,566.165,320.5897,567.9607,315.2254,561.69,322.82" style="stroke:#181818;stroke-width:1.0;"/></g><!--link ManageAdvertisementRepository to Repositories--><g id="link_ManageAdvertisementRepository_Repositories"><path codeLine="78" d="M556.34,514.1 C595.9,534.35 637.4,555.59 675.99,575.34 " fill="none" id="ManageAdvertisementRepository-to-Repositories" style="stroke:#181818;stroke-width:1.0;stroke-dasharray:7.0,7.0;"/><polygon fill="#181818" points="680.69,577.74,674.4974,570.0816,676.2381,575.4639,670.8557,577.2046,680.69,577.74" style="stroke:#181818;stroke-width:1.0;"/></g><!--link ManageEmployeeRepository to Repositories--><g id="link_ManageEmployeeRepository_Repositories"><path codeLine="79" d="M1068.19,455.72 C1033.21,486.4 981.63,531.62 936.12,571.53 " fill="none" id="ManageEmployeeRepository-to-Repositories" style="stroke:#181818;stroke-width:1.0;stroke-dasharray:7.0,7.0;"/><polygon fill="#181818" points="932.29,574.88,941.6917,571.9461,936.0467,571.5804,936.4124,565.9354,932.29,574.88" style="stroke:#181818;stroke-width:1.0;"/></g><!--link Repositories to AdvertisementRepository--><g id="link_Repositories_AdvertisementRepository"><path codeLine="81" d="M742.4,743.16 C720.11,762.65 697,782.86 676.87,800.46 " fill="none" id="Repositories-to-AdvertisementRepository" style="stroke:#181818;stroke-width:1.0;"/><polygon fill="#181818" points="672.89,803.94,682.3035,801.044,676.66,800.6556,677.0484,795.0121,672.89,803.94" style="stroke:#181818;stroke-width:1.0;"/></g><!--link Repositories to EmployeeRepository--><g id="link_Repositories_EmployeeRepository"><path codeLine="82" d="M947.37,743.16 C979.14,767.21 1012.33,792.34 1038.75,812.33 " fill="none" id="Repositories-to-EmployeeRepository" style="stroke:#181818;stroke-width:1.0;"/><polygon fill="#181818" points="1042.93,815.49,1038.1645,806.8709,1038.942,812.474,1033.3389,813.2516,1042.93,815.49" style="stroke:#181818;stroke-width:1.0;"/></g><!--link Repositories to Repositories--><g id="link_Repositories_Repositories"><path codeLine="83" d="M994.16,640.09 C1015.09,643.29 1029,649.59 1029,659 C1029,667.6 1017.38,673.6 999.39,677.01 " fill="none" id="Repositories-to-Repositories" style="stroke:#181818;stroke-width:1.0;"/><polygon fill="#181818" points="994.16,677.91,1003.7055,680.3357,999.0885,677.0672,1002.3569,672.4501,994.16,677.91" style="stroke:#181818;stroke-width:1.0;"/><text fill="#000000" font-family="sans-serif" font-size="20" lengthAdjust="spacing" textLength="79" x="1035" y="666.8359">instance</text></g><!--link Repositories to AuthenticationRepository--><g id="link_Repositories_AuthenticationRepository"><path codeLine="84" d="M994.05,659 C1000.62,659 1004.5,659 1004.5,659 C1004.5,659 1171.5,659 1171.5,659 C1171.5,659 1181.15,659 1195.81,659 " fill="none" id="Repositories-to-AuthenticationRepository" style="stroke:#181818;stroke-width:1.0;"/><polygon fill="#181818" points="1200.97,659,1191.97,655,1195.97,659,1191.97,663,1200.97,659" style="stroke:#181818;stroke-width:1.0;"/></g><!--reverse link UserSession to AuthenticationRepository--><g id="link_UserSession_AuthenticationRepository"><path codeLine="86" d="M1364.95,460.85 C1358.85,506.29 1349.16,578.56 1343.35,621.83 " fill="none" id="UserSession-backto-AuthenticationRepository" style="stroke:#181818;stroke-width:1.0;"/><polygon fill="#181818" points="1365.64,455.72,1360.492,464.1163,1364.9829,460.6766,1368.4226,465.1676,1365.64,455.72" style="stroke:#181818;stroke-width:1.0;"/></g><!--link EmployeeRepository to Employee--><g id="link_EmployeeRepository_Employee"><path codeLine="88" d="M1099.45,889.66 C1104.01,908.08 1109.89,931.82 1116.06,956.77 " fill="none" id="EmployeeRepository-to-Employee" style="stroke:#181818;stroke-width:1.0;"/><polygon fill="#181818" points="1117.3,961.78,1119.0246,952.0833,1116.1008,956.9259,1111.2581,954.0021,1117.3,961.78" style="stroke:#181818;stroke-width:1.0;"/></g><!--link Employee to PurchaseOrder--><g id="link_Employee_PurchaseOrder"><path codeLine="89" d="M882.95,1238.9 C871.36,1244.62 864.5,1248 864.5,1248 C864.5,1248 763.62,1289.34 661.94,1331 " fill="none" id="Employee-to-PurchaseOrder" style="stroke:#181818;stroke-width:1.0;"/><polygon fill="#181818" points="657.1,1332.98,666.9448,1333.2627,661.7255,1331.0813,663.9068,1325.8619,657.1,1332.98" style="stroke:#181818;stroke-width:1.0;"/><polygon fill="#000000" points="787.1155,1293.8546,802.2829,1292.6283,798.6654,1283.9473,787.1155,1293.8546" style="stroke:#000000;stroke-width:1.0;"/><text fill="#000000" font-family="sans-serif" font-size="20" lengthAdjust="spacing" textLength="173" x="807.5" y="1298.3359">accepts or decline</text></g><!--link AdvertisementRepository to Advertisement--><g id="link_AdvertisementRepository_Advertisement"><path codeLine="91" d="M587.27,901.21 C565.93,933.8 537.02,977.95 511.63,1016.74 " fill="none" id="AdvertisementRepository-to-Advertisement" style="stroke:#181818;stroke-width:1.0;"/><polygon fill="#181818" points="508.87,1020.95,517.1485,1015.6146,511.6105,1016.7679,510.4572,1011.2299,508.87,1020.95" style="stroke:#181818;stroke-width:1.0;"/></g><!--link Advertisement to PurchaseOrder--><g id="link_Advertisement_PurchaseOrder"><path codeLine="92" d="M454.5,1189.07 C454.5,1231.99 454.5,1284.35 454.5,1327.96 " fill="none" id="Advertisement-to-PurchaseOrder" style="stroke:#181818;stroke-width:1.0;"/><polygon fill="#181818" points="454.5,1332.97,458.5,1323.97,454.5,1327.97,450.5,1323.97,454.5,1332.97" style="stroke:#181818;stroke-width:1.0;"/><text fill="#000000" font-family="sans-serif" font-size="20" lengthAdjust="spacing" textLength="33" x="455.5" y="1298.3359">has</text></g><!--reverse link Advertisement to Employee--><g id="link_Advertisement_Employee"><path codeLine="93" d="M852.83,1105 C863.64,1105 873.76,1105 882.69,1105 " fill="none" id="Advertisement-backto-Employee" style="stroke:#181818;stroke-width:1.0;"/><polygon fill="#181818" points="847.81,1105,856.81,1109,852.81,1105,856.81,1101,847.81,1105" style="stroke:#181818;stroke-width:1.0;"/></g><!--link ManageAdvertisementRepository to AdvertisementRepository--><g id="link_ManageAdvertisementRepository_AdvertisementRepository"><path codeLine="95" d="M425.55,514.04 C475.64,601.63 548.3,728.71 588.65,799.29 " fill="none" id="ManageAdvertisementRepository-to-AdvertisementRepository" style="stroke:#181818;stroke-width:1.0;stroke-dasharray:7.0,7.0;"/><polygon fill="#181818" points="591.26,803.86,590.2608,794.062,588.7762,799.5205,583.3177,798.036,591.26,803.86" style="stroke:#181818;stroke-width:1.0;"/></g><!--link ManageAdvertisementRepository to Advertisement--><g id="link_ManageAdvertisementRepository_Advertisement"><path codeLine="96" d="M378.37,514.05 C388.57,654.28 406.5,901 406.5,901 C406.5,901 420.71,961.1 433.67,1015.9 " fill="none" id="ManageAdvertisementRepository-to-Advertisement" style="stroke:#181818;stroke-width:1.0;stroke-dasharray:7.0,7.0;"/><polygon fill="#181818" points="434.84,1020.85,436.6786,1011.1743,433.698,1015.9822,428.8901,1013.0015,434.84,1020.85" style="stroke:#181818;stroke-width:1.0;"/></g><!--link ManageAdvertisementRepository to PurchaseOrder--><g id="link_ManageAdvertisementRepository_PurchaseOrder"><path codeLine="97" d="M227.51,514.1 C126.16,580.69 8.5,658 8.5,658 C8.5,658 8.5,658 8.5,1106 C8.5,1106 43.5,1248 43.5,1248 C43.5,1248 144.63,1289.34 246.55,1331 " fill="none" id="ManageAdvertisementRepository-to-PurchaseOrder" style="stroke:#181818;stroke-width:1.0;"/><polygon fill="#181818" points="251.41,1332.98,244.5844,1325.88,246.7795,1331.0935,241.566,1333.2887,251.41,1332.98" style="stroke:#181818;stroke-width:1.0;"/></g><!--SRC=[pLOxRzim4DxvApWgg1G47OF0W6kaW86s2MAaKnU6Ejj4A98bgRPgqFzUwa6Pj4GxpLGFiiZxxkwx5qxccGb5DAcufCzGuXAsfERsenHsmtu3Vd-5Z8TWHUWpsS76DXom1cg9s74806PFIlcJYHtU4cv22MS2RAC0AycRze028UN4cAMrcZtL5jPKYixt5KAT17ycmhczhpNT4mDtkWJzkCOlVzBYbUEl9UUWyGl2xlVkD2gx650xiCiT21jUV6B6tcsNvG_GbXcedDXyQ7hORQMuR00mQO-1qbTcs1EF_PbigJLfMditaM21LNXi0HV8X_S0IXfcfMPWXcYAw3BakXR6LOL2Te6l8r0GNnZ826b2ApwggRJLh-tUQJ9AB9CYWiGLIJYA2v9YaxW_KvR_e6ozgP8PnKbpPCTB3TX8ih74rYRRk0bmisEwqo6R4TGtm8epnzoDJlitt0tw9R5mjts0xpMO8v7IZ49yrNiRYEbUALDQAfUs9e-DvJvVdbgKtR4v8nuHPEpUpfntvqEILSMCSKs5wVZQoyO2uBCL62A9t6OpL7BlFG-yvQS6yMG_5psx2BF09Eg-DrL_EeiluoXwsOVcjYAC1nEO6jA3xghMsY4UZIC0NV2J0NwRwy3Y0TvUhiji6jPnqmXI7JMe1GvgBmLygQidq8EmyugXVGutzywiajgkY2xTgZeS8hsDf8pm3T1QCzjqM4j-HP1bMMh7tnMl-n_PI0skEkxfkrYsQz0zXhhwaB8sXdo6GdvmbNyJtdxUHx7qfwDuyzvdtdbgyuVcrs5HB4xlk5d5O55UNYwITN-5Qb3sisW7ZxRQjPl5O5MzbcTY87sW2J4-TezIKK-HAABTfZp5OGASIMgCcUI43RjyWaiDDq914V1DKPn0paGRiXpbtMrK2iUCK0hA6Yor-s2axUSSNY2KolSaJJ5oreDxZr4tnKZj5ULDLUKVDS_W9yJHNm00]--></g></svg>