<?xml version="1.0" encoding="UTF-8" standalone="no"?><svg xmlns="http://www.w3.org/2000/svg" xmlns:xlink="http://www.w3.org/1999/xlink" contentStyleType="text/css" height="504px" preserveAspectRatio="none" style="width:2016px;height:504px;background:#FFFFFF;" version="1.1" viewBox="0 0 2016 504" width="2016px" zoomAndPan="magnify"><defs/><g><rect fill="#FFFFFF" height="313.4375" style="stroke:#181818;stroke-width:1.0;" width="10" x="725" y="106.6641"/><rect fill="#FFFFFF" height="238.3281" style="stroke:#181818;stroke-width:1.0;" width="10" x="1478" y="144.2188"/><rect fill="#FFFFFF" height="37.5547" style="stroke:#181818;stroke-width:1.0;" width="10" x="1787" y="181.7734"/><rect fill="#FFFFFF" height="37.5547" style="stroke:#181818;stroke-width:1.0;" width="10" x="1936" y="256.8828"/><line style="stroke:#181818;stroke-width:0.5;stroke-dasharray:5.0,5.0;" x1="729.5" x2="729.5" y1="67.1094" y2="438.1016"/><line style="stroke:#181818;stroke-width:0.5;stroke-dasharray:5.0,5.0;" x1="1482.5" x2="1482.5" y1="67.1094" y2="438.1016"/><line style="stroke:#181818;stroke-width:0.5;stroke-dasharray:5.0,5.0;" x1="1791.5" x2="1791.5" y1="67.1094" y2="438.1016"/><line style="stroke:#181818;stroke-width:0.5;stroke-dasharray:5.0,5.0;" x1="1940.5" x2="1940.5" y1="67.1094" y2="438.1016"/><rect fill="#E3E3E3" height="37.5547" rx="2.5" ry="2.5" style="stroke:#181818;stroke-width:0.5;" width="341" x="559.5" y="28.5547"/><text fill="#000000" font-family="sans-serif" font-size="20" lengthAdjust="spacing" textLength="327" x="566.5" y="54.8906">:ManagePurchaseOrdersController</text><rect fill="#E3E3E3" height="37.5547" rx="2.5" ry="2.5" style="stroke:#181818;stroke-width:0.5;" width="341" x="559.5" y="437.1016"/><text fill="#000000" font-family="sans-serif" font-size="20" lengthAdjust="spacing" textLength="327" x="566.5" y="463.4375">:ManagePurchaseOrdersController</text><rect fill="#E3E3E3" height="61.1094" rx="2.5" ry="2.5" style="stroke:#181818;stroke-width:0.5;" width="335" x="1315.5" y="5"/><text fill="#000000" font-family="sans-serif" font-size="20" lengthAdjust="spacing" textLength="317" x="1324.5" y="31.3359">manageAdvertisementRepository</text><text fill="#000000" font-family="sans-serif" font-size="20" lengthAdjust="spacing" textLength="321" x="1322.5" y="54.8906">:ManageAdvertisementRepository</text><rect fill="#E3E3E3" height="61.1094" rx="2.5" ry="2.5" style="stroke:#181818;stroke-width:0.5;" width="335" x="1315.5" y="437.1016"/><text fill="#000000" font-family="sans-serif" font-size="20" lengthAdjust="spacing" textLength="317" x="1324.5" y="463.4375">manageAdvertisementRepository</text><text fill="#000000" font-family="sans-serif" font-size="20" lengthAdjust="spacing" textLength="321" x="1322.5" y="486.9922">:ManageAdvertisementRepository</text><rect fill="#E3E3E3" height="37.5547" rx="2.5" ry="2.5" style="stroke:#181818;stroke-width:0.5;" width="139" x="1722.5" y="28.5547"/><text fill="#000000" font-family="sans-serif" font-size="20" lengthAdjust="spacing" textLength="125" x="1729.5" y="54.8906">:Repositories</text><rect fill="#E3E3E3" height="37.5547" rx="2.5" ry="2.5" style="stroke:#181818;stroke-width:0.5;" width="139" x="1722.5" y="437.1016"/><text fill="#000000" font-family="sans-serif" font-size="20" lengthAdjust="spacing" textLength="125" x="1729.5" y="463.4375">:Repositories</text><rect fill="#E3E3E3" height="61.1094" rx="2.5" ry="2.5" style="stroke:#181818;stroke-width:0.5;" width="139" x="1871.5" y="5"/><text fill="#000000" font-family="sans-serif" font-size="20" lengthAdjust="spacing" textLength="114" x="1884" y="31.3359">repositories</text><text fill="#000000" font-family="sans-serif" font-size="20" lengthAdjust="spacing" textLength="125" x="1878.5" y="54.8906">:Repositories</text><rect fill="#E3E3E3" height="61.1094" rx="2.5" ry="2.5" style="stroke:#181818;stroke-width:0.5;" width="139" x="1871.5" y="437.1016"/><text fill="#000000" font-family="sans-serif" font-size="20" lengthAdjust="spacing" textLength="114" x="1884" y="463.4375">repositories</text><text fill="#000000" font-family="sans-serif" font-size="20" lengthAdjust="spacing" textLength="125" x="1878.5" y="486.9922">:Repositories</text><rect fill="#FFFFFF" height="313.4375" style="stroke:#181818;stroke-width:1.0;" width="10" x="725" y="106.6641"/><rect fill="#FFFFFF" height="238.3281" style="stroke:#181818;stroke-width:1.0;" width="10" x="1478" y="144.2188"/><rect fill="#FFFFFF" height="37.5547" style="stroke:#181818;stroke-width:1.0;" width="10" x="1787" y="181.7734"/><rect fill="#FFFFFF" height="37.5547" style="stroke:#181818;stroke-width:1.0;" width="10" x="1936" y="256.8828"/><polygon fill="#181818" points="713,102.6641,723,106.6641,713,110.6641,717,106.6641" style="stroke:#181818;stroke-width:1.0;"/><line style="stroke:#181818;stroke-width:1.0;" x1="0" x2="719" y1="106.6641" y2="106.6641"/><text fill="#000000" font-family="sans-serif" font-size="20" font-weight="bold" lengthAdjust="spacing" textLength="13" x="7" y="100.4453">7</text><text fill="#000000" font-family="sans-serif" font-size="20" lengthAdjust="spacing" textLength="689" x="24" y="100.4453">getVisiblePurchaseOrder(ArrayList&lt;PurchaseOrder&gt; PurchaseOrderList)</text><polygon fill="#181818" points="1466,140.2188,1476,144.2188,1466,148.2188,1470,144.2188" style="stroke:#181818;stroke-width:1.0;"/><line style="stroke:#181818;stroke-width:1.0;" x1="735" x2="1472" y1="144.2188" y2="144.2188"/><text fill="#000000" font-family="sans-serif" font-size="20" font-weight="bold" lengthAdjust="spacing" textLength="31" x="742" y="138">7.1</text><text fill="#000000" font-family="sans-serif" font-size="20" lengthAdjust="spacing" textLength="689" x="777" y="138">getVisiblePurchaseOrder(ArrayList&lt;PurchaseOrder&gt; PurchaseOrderList)</text><polygon fill="#181818" points="1775,177.7734,1785,181.7734,1775,185.7734,1779,181.7734" style="stroke:#181818;stroke-width:1.0;"/><line style="stroke:#181818;stroke-width:1.0;" x1="1488" x2="1781" y1="181.7734" y2="181.7734"/><text fill="#000000" font-family="sans-serif" font-size="20" font-weight="bold" lengthAdjust="spacing" textLength="31" x="1495" y="175.5547">7.2</text><text fill="#000000" font-family="sans-serif" font-size="20" lengthAdjust="spacing" textLength="123" x="1530" y="175.5547">getInstance()</text><polygon fill="#181818" points="1499,215.3281,1489,219.3281,1499,223.3281,1495,219.3281" style="stroke:#181818;stroke-width:1.0;"/><line style="stroke:#181818;stroke-width:1.0;stroke-dasharray:2.0,2.0;" x1="1493" x2="1791" y1="219.3281" y2="219.3281"/><text fill="#000000" font-family="sans-serif" font-size="20" font-weight="bold" lengthAdjust="spacing" textLength="31" x="1505" y="213.1094">7.3</text><text fill="#000000" font-family="sans-serif" font-size="20" lengthAdjust="spacing" textLength="114" x="1540" y="213.1094">repositories</text><polygon fill="#181818" points="1924,252.8828,1934,256.8828,1924,260.8828,1928,256.8828" style="stroke:#181818;stroke-width:1.0;"/><line style="stroke:#181818;stroke-width:1.0;" x1="1488" x2="1930" y1="256.8828" y2="256.8828"/><text fill="#000000" font-family="sans-serif" font-size="20" font-weight="bold" lengthAdjust="spacing" textLength="31" x="1495" y="250.6641">7.4</text><text fill="#000000" font-family="sans-serif" font-size="20" lengthAdjust="spacing" textLength="273" x="1530" y="250.6641">getPurchaseOrderRepository</text><polygon fill="#181818" points="1499,290.4375,1489,294.4375,1499,298.4375,1495,294.4375" style="stroke:#181818;stroke-width:1.0;"/><line style="stroke:#181818;stroke-width:1.0;stroke-dasharray:2.0,2.0;" x1="1493" x2="1940" y1="294.4375" y2="294.4375"/><text fill="#000000" font-family="sans-serif" font-size="20" font-weight="bold" lengthAdjust="spacing" textLength="31" x="1505" y="288.2188">7.5</text><text fill="#000000" font-family="sans-serif" font-size="20" lengthAdjust="spacing" textLength="243" x="1540" y="288.2188">PurchaseOrderRepository</text><line style="stroke:#181818;stroke-width:1.0;" x1="1488" x2="1530" y1="331.9922" y2="331.9922"/><line style="stroke:#181818;stroke-width:1.0;" x1="1530" x2="1530" y1="331.9922" y2="344.9922"/><line style="stroke:#181818;stroke-width:1.0;" x1="1489" x2="1530" y1="344.9922" y2="344.9922"/><polygon fill="#181818" points="1499,340.9922,1489,344.9922,1499,348.9922,1495,344.9922" style="stroke:#181818;stroke-width:1.0;"/><text fill="#000000" font-family="sans-serif" font-size="20" font-weight="bold" lengthAdjust="spacing" textLength="31" x="1495" y="325.7734">7.6</text><text fill="#000000" font-family="sans-serif" font-size="20" lengthAdjust="spacing" textLength="250" x="1530" y="325.7734">sortByStatus(String status)</text><polygon fill="#181818" points="746,378.5469,736,382.5469,746,386.5469,742,382.5469" style="stroke:#181818;stroke-width:1.0;"/><line style="stroke:#181818;stroke-width:1.0;stroke-dasharray:2.0,2.0;" x1="740" x2="1482" y1="382.5469" y2="382.5469"/><text fill="#000000" font-family="sans-serif" font-size="20" font-weight="bold" lengthAdjust="spacing" textLength="31" x="752" y="376.3281">7.7</text><text fill="#000000" font-family="sans-serif" font-size="20" lengthAdjust="spacing" textLength="240" x="787" y="376.3281">VisiblePurchaseOrderList</text><polygon fill="#181818" points="11,416.1016,1,420.1016,11,424.1016,7,420.1016" style="stroke:#181818;stroke-width:1.0;"/><line style="stroke:#181818;stroke-width:1.0;" x1="5" x2="729" y1="420.1016" y2="420.1016"/><text fill="#000000" font-family="sans-serif" font-size="20" font-weight="bold" lengthAdjust="spacing" textLength="13" x="17" y="413.8828">8</text><text fill="#000000" font-family="sans-serif" font-size="20" lengthAdjust="spacing" textLength="240" x="34" y="413.8828">VisiblePurchaseOrderList</text><!--SRC=[hLJ1Ri8m3BtdAo9ES63QTjc44193cZI9QOYYdNO9gIaHQL8bBbFtzKjRe2rBEuQMMnE_v-TdktOdLC8CYwNcEmXf21kMIdpM2WFn1VJ-bjXZ28srqdnhT0mKJGgrbuJn7OiWm4m2DS2HgKZM0-oMXVfJg8XkcBH024jHgpHUWw4FXBWW55maJ27jZLwPScIBrF0ji_1cGZ1svXGPBIMO7cMMpbRBUHCL5w1fk0TtQI46XKj8j1MeJVQX3gGjxmMdX-5Cs0aWm1QGYY4GUSMkfYR4r11En0-2nNow8eGC9qL5T4GZm7TXnLesw-zFZM7PN5WSD-udjF6P1mm8FPownpTtrJL7iMS8fOd7soA_q-5nuPzbdP-J7by3Mb7vyMbr9NYwKfRmegoRJ0xzGIVjIP2llPr8N-QXtzGHhSz69si8rojgiIYVkzAJHgCg-iiCAiUtAxH8r6h1DSbhRloUlgLy_v1RRV0f2v1XQli1clntPOklmT-JL2ljMvny8owjqhSMdTsfrlwn4JWUNYofbZw7V0C0]--></g></svg>