<?xml version="1.0" encoding="UTF-8" standalone="no"?><svg xmlns="http://www.w3.org/2000/svg" xmlns:xlink="http://www.w3.org/1999/xlink" contentStyleType="text/css" height="1782px" preserveAspectRatio="none" style="width:1208px;height:1782px;background:#FFFFFF;" version="1.1" viewBox="0 0 1208 1782" width="1208px" zoomAndPan="magnify"><defs/><g><!--class CreateRequestForPropertyUI--><g id="elem_CreateRequestForPropertyUI"><rect codeLine="11" fill="#F1F1F1" height="50" id="CreateRequestForPropertyUI" rx="2.5" ry="2.5" style="stroke:#181818;stroke-width:0.5;" width="304" x="463.5" y="7"/><ellipse cx="479.5" cy="24" fill="#ADD1B2" rx="12" ry="12" style="stroke:#181818;stroke-width:1.0;"/><path d="M482.3066,31.0801 Q481.623,31.4316 480.8711,31.6074 Q480.1191,31.7832 479.2891,31.7832 Q476.3398,31.7832 474.7871,29.8398 Q473.2344,27.8965 473.2344,24.2246 Q473.2344,20.543 474.7871,18.5996 Q476.3398,16.6563 479.2891,16.6563 Q480.1191,16.6563 480.8809,16.832 Q481.6426,17.0078 482.3066,17.3594 L482.3066,20.5625 Q481.5645,19.8789 480.8662,19.5615 Q480.168,19.2441 479.4258,19.2441 Q477.8438,19.2441 477.0381,20.499 Q476.2324,21.7539 476.2324,24.2246 Q476.2324,26.6855 477.0381,27.9404 Q477.8438,29.1953 479.4258,29.1953 Q480.168,29.1953 480.8662,28.8779 Q481.5645,28.5605 482.3066,27.877 Z " fill="#000000"/><text fill="#000000" font-family="sans-serif" font-size="20" lengthAdjust="spacing" textLength="270" x="494.5" y="31.5586">CreateRequestForPropertyUI</text><line style="stroke:#181818;stroke-width:0.5;" x1="464.5" x2="766.5" y1="41" y2="41"/><line style="stroke:#181818;stroke-width:0.5;" x1="464.5" x2="766.5" y1="49" y2="49"/></g><!--class CreateRequestForPropertyController--><g id="elem_CreateRequestForPropertyController"><rect codeLine="13" fill="#F1F1F1" height="238.4375" id="CreateRequestForPropertyController" rx="2.5" ry="2.5" style="stroke:#181818;stroke-width:0.5;" width="619" x="306" y="117"/><ellipse cx="438" cy="134" fill="#ADD1B2" rx="12" ry="12" style="stroke:#181818;stroke-width:1.0;"/><path d="M440.8066,141.0801 Q440.123,141.4316 439.3711,141.6074 Q438.6191,141.7832 437.7891,141.7832 Q434.8398,141.7832 433.2871,139.8398 Q431.7344,137.8965 431.7344,134.2246 Q431.7344,130.543 433.2871,128.5996 Q434.8398,126.6563 437.7891,126.6563 Q438.6191,126.6563 439.3809,126.832 Q440.1426,127.0078 440.8066,127.3594 L440.8066,130.5625 Q440.0645,129.8789 439.3662,129.5615 Q438.668,129.2441 437.9258,129.2441 Q436.3438,129.2441 435.5381,130.499 Q434.7324,131.7539 434.7324,134.2246 Q434.7324,136.6855 435.5381,137.9404 Q436.3438,139.1953 437.9258,139.1953 Q438.668,139.1953 439.3662,138.8779 Q440.0645,138.5605 440.8066,137.877 Z " fill="#000000"/><text fill="#000000" font-family="sans-serif" font-size="20" lengthAdjust="spacing" textLength="346" x="460" y="141.5586">CreateRequestForPropertyController</text><line style="stroke:#181818;stroke-width:0.5;" x1="307" x2="924" y1="151" y2="151"/><line style="stroke:#181818;stroke-width:0.5;" x1="307" x2="924" y1="159" y2="159"/><text fill="#000000" font-family="sans-serif" font-size="20" lengthAdjust="spacing" textLength="376" x="312" y="182.3359">+CreateRequestForPropertyController()</text><text fill="#000000" font-family="sans-serif" font-size="20" lengthAdjust="spacing" textLength="116" x="312" y="205.8906">+getAgent()</text><text fill="#000000" font-family="sans-serif" font-size="20" lengthAdjust="spacing" textLength="213" x="312" y="229.4453">+getTypeOfBusiness()</text><text fill="#000000" font-family="sans-serif" font-size="20" lengthAdjust="spacing" textLength="210" x="312" y="253">+getTypeOfProperty()</text><text fill="#000000" font-family="sans-serif" font-size="20" lengthAdjust="spacing" textLength="510" x="312" y="276.5547">+submitRequest(price, area, distCityCenter, address,</text><text fill="#000000" font-family="sans-serif" font-size="20" lengthAdjust="spacing" textLength="538" x="312" y="300.1094">photograph, numberOfBedrooms, numberOfBathrooms,</text><text fill="#000000" font-family="sans-serif" font-size="20" lengthAdjust="spacing" textLength="595" x="318" y="323.6641">numberOfParkingSpaces, equipmentDesignation, sunExposer,</text><text fill="#000000" font-family="sans-serif" font-size="20" lengthAdjust="spacing" textLength="525" x="318" y="347.2188">basement, loft, typeOfBusiness, typeOfProperty, agent)</text></g><!--class Repositories--><g id="elem_Repositories"><rect codeLine="21" fill="#F1F1F1" height="191.3281" id="Repositories" rx="2.5" ry="2.5" style="stroke:#181818;stroke-width:0.5;" width="327" x="596" y="713"/><ellipse cx="695.5" cy="730" fill="#ADD1B2" rx="12" ry="12" style="stroke:#181818;stroke-width:1.0;"/><path d="M698.3066,737.0801 Q697.623,737.4316 696.8711,737.6074 Q696.1191,737.7832 695.2891,737.7832 Q692.3398,737.7832 690.7871,735.8398 Q689.2344,733.8965 689.2344,730.2246 Q689.2344,726.543 690.7871,724.5996 Q692.3398,722.6563 695.2891,722.6563 Q696.1191,722.6563 696.8809,722.832 Q697.6426,723.0078 698.3066,723.3594 L698.3066,726.5625 Q697.5645,725.8789 696.8662,725.5615 Q696.168,725.2441 695.4258,725.2441 Q693.8438,725.2441 693.0381,726.499 Q692.2324,727.7539 692.2324,730.2246 Q692.2324,732.6855 693.0381,733.9404 Q693.8438,735.1953 695.4258,735.1953 Q696.168,735.1953 696.8662,734.8779 Q697.5645,734.5605 698.3066,733.877 Z " fill="#000000"/><text fill="#000000" font-family="sans-serif" font-size="20" lengthAdjust="spacing" textLength="119" x="717.5" y="737.5586">Repositories</text><line style="stroke:#181818;stroke-width:0.5;" x1="597" x2="922" y1="747" y2="747"/><line style="stroke:#181818;stroke-width:0.5;" x1="597" x2="922" y1="755" y2="755"/><text fill="#000000" font-family="sans-serif" font-size="20" lengthAdjust="spacing" textLength="145" x="602" y="778.3359">-Repositories()</text><text fill="#000000" font-family="sans-serif" font-size="20" lengthAdjust="spacing" textLength="276" x="602" y="801.8906">+getInstance() : Repositories</text><text fill="#000000" font-family="sans-serif" font-size="20" lengthAdjust="spacing" textLength="239" x="602" y="825.4453">+getRequestRepository()</text><text fill="#000000" font-family="sans-serif" font-size="20" lengthAdjust="spacing" textLength="255" x="602" y="849">+getEmployeeRepository()</text><text fill="#000000" font-family="sans-serif" font-size="20" lengthAdjust="spacing" textLength="315" x="602" y="872.5547">+getTypeOfBusinessRepository()</text><text fill="#000000" font-family="sans-serif" font-size="20" lengthAdjust="spacing" textLength="312" x="602" y="896.1094">+getTypeOfPropertyRepository()</text></g><!--class ManageEmployeeRepository--><g id="elem_ManageEmployeeRepository"><rect codeLine="29" fill="#F1F1F1" height="120.6641" id="ManageEmployeeRepository" rx="2.5" ry="2.5" style="stroke:#181818;stroke-width:0.5;" width="508" x="661.5" y="473.5"/><ellipse cx="776.5" cy="490.5" fill="#ADD1B2" rx="12" ry="12" style="stroke:#181818;stroke-width:1.0;"/><path d="M779.3066,497.5801 Q778.623,497.9316 777.8711,498.1074 Q777.1191,498.2832 776.2891,498.2832 Q773.3398,498.2832 771.7871,496.3398 Q770.2344,494.3965 770.2344,490.7246 Q770.2344,487.043 771.7871,485.0996 Q773.3398,483.1563 776.2891,483.1563 Q777.1191,483.1563 777.8809,483.332 Q778.6426,483.5078 779.3066,483.8594 L779.3066,487.0625 Q778.5645,486.3789 777.8662,486.0615 Q777.168,485.7441 776.4258,485.7441 Q774.8438,485.7441 774.0381,486.999 Q773.2324,488.2539 773.2324,490.7246 Q773.2324,493.1855 774.0381,494.4404 Q774.8438,495.6953 776.4258,495.6953 Q777.168,495.6953 777.8662,495.3779 Q778.5645,495.0605 779.3066,494.377 Z " fill="#000000"/><text fill="#000000" font-family="sans-serif" font-size="20" lengthAdjust="spacing" textLength="269" x="798.5" y="498.0586">ManageEmployeeRepository</text><line style="stroke:#181818;stroke-width:0.5;" x1="662.5" x2="1168.5" y1="507.5" y2="507.5"/><line style="stroke:#181818;stroke-width:0.5;" x1="662.5" x2="1168.5" y1="515.5" y2="515.5"/><text fill="#000000" font-family="sans-serif" font-size="20" lengthAdjust="spacing" textLength="496" x="667.5" y="538.8359">+manageEmployeeRepository(employeeRepository)</text><text fill="#000000" font-family="sans-serif" font-size="20" lengthAdjust="spacing" textLength="126" x="667.5" y="562.3906">+getAgents()</text><text fill="#000000" font-family="sans-serif" font-size="20" lengthAdjust="spacing" textLength="188" x="667.5" y="585.9453">-filterByRole(agent)</text></g><!--class ManageRequestRepository--><g id="elem_ManageRequestRepository"><rect codeLine="35" fill="#F1F1F1" height="238.4375" id="ManageRequestRepository" rx="2.5" ry="2.5" style="stroke:#181818;stroke-width:0.5;" width="619" x="7" y="415"/><ellipse cx="185.5" cy="432" fill="#ADD1B2" rx="12" ry="12" style="stroke:#181818;stroke-width:1.0;"/><path d="M188.3066,439.0801 Q187.623,439.4316 186.8711,439.6074 Q186.1191,439.7832 185.2891,439.7832 Q182.3398,439.7832 180.7871,437.8398 Q179.2344,435.8965 179.2344,432.2246 Q179.2344,428.543 180.7871,426.5996 Q182.3398,424.6563 185.2891,424.6563 Q186.1191,424.6563 186.8809,424.832 Q187.6426,425.0078 188.3066,425.3594 L188.3066,428.5625 Q187.5645,427.8789 186.8662,427.5615 Q186.168,427.2441 185.4258,427.2441 Q183.8438,427.2441 183.0381,428.499 Q182.2324,429.7539 182.2324,432.2246 Q182.2324,434.6855 183.0381,435.9404 Q183.8438,437.1953 185.4258,437.1953 Q186.168,437.1953 186.8662,436.8779 Q187.5645,436.5605 188.3066,435.877 Z " fill="#000000"/><text fill="#000000" font-family="sans-serif" font-size="20" lengthAdjust="spacing" textLength="253" x="207.5" y="439.5586">ManageRequestRepository</text><line style="stroke:#181818;stroke-width:0.5;" x1="8" x2="625" y1="449" y2="449"/><text fill="#000000" font-family="sans-serif" font-size="20" lengthAdjust="spacing" textLength="164" x="13" y="472.3359">-validateRequest</text><line style="stroke:#181818;stroke-width:0.5;" x1="8" x2="625" y1="480.5547" y2="480.5547"/><text fill="#000000" font-family="sans-serif" font-size="20" lengthAdjust="spacing" textLength="459" x="13" y="503.8906">+manageRequestRepository(requestRepository)</text><text fill="#000000" font-family="sans-serif" font-size="20" lengthAdjust="spacing" textLength="504" x="13" y="527.4453">+createProperty(price, area, distCityCenter, address,</text><text fill="#000000" font-family="sans-serif" font-size="20" lengthAdjust="spacing" textLength="538" x="13" y="551">photograph, numberOfBedrooms, numberOfBathrooms,</text><text fill="#000000" font-family="sans-serif" font-size="20" lengthAdjust="spacing" textLength="595" x="19" y="574.5547">numberOfParkingSpaces, equipmentDesignation, sunExposer,</text><text fill="#000000" font-family="sans-serif" font-size="20" lengthAdjust="spacing" textLength="460" x="19" y="598.1094">basement, loft, typeOfBusiness, typeOfProperty)</text><text fill="#000000" font-family="sans-serif" font-size="20" lengthAdjust="spacing" textLength="466" x="13" y="621.6641">+createRequest(property, agent, dateOfRequest)</text><text fill="#000000" font-family="sans-serif" font-size="20" lengthAdjust="spacing" textLength="100" x="13" y="645.2188">-getDate()</text></g><!--class RequestRepository--><g id="elem_RequestRepository"><rect codeLine="42" fill="#F1F1F1" height="73.5547" id="RequestRepository" rx="2.5" ry="2.5" style="stroke:#181818;stroke-width:0.5;" width="224" x="369.5" y="964"/><ellipse cx="390.45" cy="981" fill="#ADD1B2" rx="12" ry="12" style="stroke:#181818;stroke-width:1.0;"/><path d="M393.2566,988.0801 Q392.573,988.4316 391.8211,988.6074 Q391.0691,988.7832 390.2391,988.7832 Q387.2898,988.7832 385.7371,986.8398 Q384.1844,984.8965 384.1844,981.2246 Q384.1844,977.543 385.7371,975.5996 Q387.2898,973.6563 390.2391,973.6563 Q391.0691,973.6563 391.8309,973.832 Q392.5926,974.0078 393.2566,974.3594 L393.2566,977.5625 Q392.5145,976.8789 391.8162,976.5615 Q391.118,976.2441 390.3758,976.2441 Q388.7938,976.2441 387.9881,977.499 Q387.1824,978.7539 387.1824,981.2246 Q387.1824,983.6855 387.9881,984.9404 Q388.7938,986.1953 390.3758,986.1953 Q391.118,986.1953 391.8162,985.8779 Q392.5145,985.5605 393.2566,984.877 Z " fill="#000000"/><text fill="#000000" font-family="sans-serif" font-size="20" lengthAdjust="spacing" textLength="179" x="406.55" y="988.5586">RequestRepository</text><line style="stroke:#181818;stroke-width:0.5;" x1="370.5" x2="592.5" y1="998" y2="998"/><line style="stroke:#181818;stroke-width:0.5;" x1="370.5" x2="592.5" y1="1006" y2="1006"/><text fill="#000000" font-family="sans-serif" font-size="20" lengthAdjust="spacing" textLength="212" x="375.5" y="1029.3359">-addRequest(request)</text></g><!--class Request--><g id="elem_Request"><rect codeLine="47" fill="#F1F1F1" height="144.2188" id="Request" rx="2.5" ry="2.5" style="stroke:#181818;stroke-width:0.5;" width="415" x="212" y="1145"/><ellipse cx="376.5" cy="1162" fill="#ADD1B2" rx="12" ry="12" style="stroke:#181818;stroke-width:1.0;"/><path d="M379.3066,1169.0801 Q378.623,1169.4316 377.8711,1169.6074 Q377.1191,1169.7832 376.2891,1169.7832 Q373.3398,1169.7832 371.7871,1167.8398 Q370.2344,1165.8965 370.2344,1162.2246 Q370.2344,1158.543 371.7871,1156.5996 Q373.3398,1154.6563 376.2891,1154.6563 Q377.1191,1154.6563 377.8809,1154.832 Q378.6426,1155.0078 379.3066,1155.3594 L379.3066,1158.5625 Q378.5645,1157.8789 377.8662,1157.5615 Q377.168,1157.2441 376.4258,1157.2441 Q374.8438,1157.2441 374.0381,1158.499 Q373.2324,1159.7539 373.2324,1162.2246 Q373.2324,1164.6855 374.0381,1165.9404 Q374.8438,1167.1953 376.4258,1167.1953 Q377.168,1167.1953 377.8662,1166.8779 Q378.5645,1166.5605 379.3066,1165.877 Z " fill="#000000"/><text fill="#000000" font-family="sans-serif" font-size="20" lengthAdjust="spacing" textLength="77" x="398.5" y="1169.5586">Request</text><line style="stroke:#181818;stroke-width:0.5;" x1="213" x2="626" y1="1179" y2="1179"/><text fill="#000000" font-family="sans-serif" font-size="20" lengthAdjust="spacing" textLength="180" x="218" y="1202.3359">-Property property</text><text fill="#000000" font-family="sans-serif" font-size="20" lengthAdjust="spacing" textLength="216" x="218" y="1225.8906">-String dateOfRequest</text><text fill="#000000" font-family="sans-serif" font-size="20" lengthAdjust="spacing" textLength="127" x="218" y="1249.4453">-Agent agent</text><line style="stroke:#181818;stroke-width:0.5;" x1="213" x2="626" y1="1257.6641" y2="1257.6641"/><text fill="#000000" font-family="sans-serif" font-size="20" lengthAdjust="spacing" textLength="403" x="218" y="1281">+request(property, dateOfRequest, agent)</text></g><!--class Property--><g id="elem_Property"><rect codeLine="54" fill="#F1F1F1" height="379.7656" id="Property" rx="2.5" ry="2.5" style="stroke:#181818;stroke-width:0.5;" width="330" x="123.5" y="1396"/><ellipse cx="244" cy="1413" fill="#ADD1B2" rx="12" ry="12" style="stroke:#181818;stroke-width:1.0;"/><path d="M246.8066,1420.0801 Q246.123,1420.4316 245.3711,1420.6074 Q244.6191,1420.7832 243.7891,1420.7832 Q240.8398,1420.7832 239.2871,1418.8398 Q237.7344,1416.8965 237.7344,1413.2246 Q237.7344,1409.543 239.2871,1407.5996 Q240.8398,1405.6563 243.7891,1405.6563 Q244.6191,1405.6563 245.3809,1405.832 Q246.1426,1406.0078 246.8066,1406.3594 L246.8066,1409.5625 Q246.0645,1408.8789 245.3662,1408.5615 Q244.668,1408.2441 243.9258,1408.2441 Q242.3438,1408.2441 241.5381,1409.499 Q240.7324,1410.7539 240.7324,1413.2246 Q240.7324,1415.6855 241.5381,1416.9404 Q242.3438,1418.1953 243.9258,1418.1953 Q244.668,1418.1953 245.3662,1417.8779 Q246.0645,1417.5605 246.8066,1416.877 Z " fill="#000000"/><text fill="#000000" font-family="sans-serif" font-size="20" lengthAdjust="spacing" textLength="80" x="266" y="1420.5586">Property</text><line style="stroke:#181818;stroke-width:0.5;" x1="124.5" x2="452.5" y1="1430" y2="1430"/><text fill="#000000" font-family="sans-serif" font-size="20" lengthAdjust="spacing" textLength="133" x="129.5" y="1453.3359">-double price</text><text fill="#000000" font-family="sans-serif" font-size="20" lengthAdjust="spacing" textLength="126" x="129.5" y="1476.8906">-double area</text><text fill="#000000" font-family="sans-serif" font-size="20" lengthAdjust="spacing" textLength="221" x="129.5" y="1500.4453">-double distCityCenter</text><text fill="#000000" font-family="sans-serif" font-size="20" lengthAdjust="spacing" textLength="173" x="129.5" y="1524">-Address address</text><text fill="#000000" font-family="sans-serif" font-size="20" lengthAdjust="spacing" textLength="240" x="129.5" y="1547.5547">-Photograph photograph</text><text fill="#000000" font-family="sans-serif" font-size="20" lengthAdjust="spacing" textLength="244" x="129.5" y="1571.1094">-int numberOfBathrooms</text><text fill="#000000" font-family="sans-serif" font-size="20" lengthAdjust="spacing" textLength="238" x="129.5" y="1594.6641">-int numberOfBedrooms</text><text fill="#000000" font-family="sans-serif" font-size="20" lengthAdjust="spacing" textLength="279" x="129.5" y="1618.2188">-int numberOfParkingSpaces</text><text fill="#000000" font-family="sans-serif" font-size="20" lengthAdjust="spacing" textLength="226" x="129.5" y="1641.7734">-Equipment equipment</text><text fill="#000000" font-family="sans-serif" font-size="20" lengthAdjust="spacing" textLength="185" x="129.5" y="1665.3281">-String sunExposer</text><text fill="#000000" font-family="sans-serif" font-size="20" lengthAdjust="spacing" textLength="189" x="129.5" y="1688.8828">-boolean basement</text><text fill="#000000" font-family="sans-serif" font-size="20" lengthAdjust="spacing" textLength="127" x="129.5" y="1712.4375">-boolean loft</text><text fill="#000000" font-family="sans-serif" font-size="20" lengthAdjust="spacing" textLength="318" x="129.5" y="1735.9922">-TypeOfBusiness typeOfBusiness</text><text fill="#000000" font-family="sans-serif" font-size="20" lengthAdjust="spacing" textLength="312" x="129.5" y="1759.5469">-TypeOfProperty typeOfProperty</text><line style="stroke:#181818;stroke-width:0.5;" x1="124.5" x2="452.5" y1="1767.7656" y2="1767.7656"/></g><!--class Employee--><g id="elem_Employee"><rect codeLine="71" fill="#F1F1F1" height="238.4375" id="Employee" rx="2.5" ry="2.5" style="stroke:#181818;stroke-width:0.5;" width="539" x="662" y="1098"/><ellipse cx="880.5" cy="1115" fill="#ADD1B2" rx="12" ry="12" style="stroke:#181818;stroke-width:1.0;"/><path d="M883.3066,1122.0801 Q882.623,1122.4316 881.8711,1122.6074 Q881.1191,1122.7832 880.2891,1122.7832 Q877.3398,1122.7832 875.7871,1120.8398 Q874.2344,1118.8965 874.2344,1115.2246 Q874.2344,1111.543 875.7871,1109.5996 Q877.3398,1107.6563 880.2891,1107.6563 Q881.1191,1107.6563 881.8809,1107.832 Q882.6426,1108.0078 883.3066,1108.3594 L883.3066,1111.5625 Q882.5645,1110.8789 881.8662,1110.5615 Q881.168,1110.2441 880.4258,1110.2441 Q878.8438,1110.2441 878.0381,1111.499 Q877.2324,1112.7539 877.2324,1115.2246 Q877.2324,1117.6855 878.0381,1118.9404 Q878.8438,1120.1953 880.4258,1120.1953 Q881.168,1120.1953 881.8662,1119.8779 Q882.5645,1119.5605 883.3066,1118.877 Z " fill="#000000"/><text fill="#000000" font-family="sans-serif" font-size="20" lengthAdjust="spacing" textLength="93" x="902.5" y="1122.5586">Employee</text><line style="stroke:#181818;stroke-width:0.5;" x1="663" x2="1200" y1="1132" y2="1132"/><text fill="#000000" font-family="sans-serif" font-size="20" lengthAdjust="spacing" textLength="127" x="668" y="1155.3359">-String name</text><text fill="#000000" font-family="sans-serif" font-size="20" lengthAdjust="spacing" textLength="247" x="668" y="1178.8906">-String telephoneNumber</text><text fill="#000000" font-family="sans-serif" font-size="20" lengthAdjust="spacing" textLength="124" x="668" y="1202.4453">-Email email</text><text fill="#000000" font-family="sans-serif" font-size="20" lengthAdjust="spacing" textLength="354" x="668" y="1226">-PassportCard passportCardNumber</text><text fill="#000000" font-family="sans-serif" font-size="20" lengthAdjust="spacing" textLength="303" x="668" y="1249.5547">-SocialSecurityCard taxNumber</text><text fill="#000000" font-family="sans-serif" font-size="20" lengthAdjust="spacing" textLength="173" x="668" y="1273.1094">-Address address</text><line style="stroke:#181818;stroke-width:0.5;" x1="663" x2="1200" y1="1281.3281" y2="1281.3281"/><text fill="#000000" font-family="sans-serif" font-size="20" lengthAdjust="spacing" textLength="515" x="668" y="1304.6641">+Employee(name, passportCardNumber, taxNumber,</text><text fill="#000000" font-family="sans-serif" font-size="20" lengthAdjust="spacing" textLength="521" x="674" y="1328.2188">address, emailAddress, telephoneNumber, store, role)</text></g><!--class EmployeeRepository--><g id="elem_EmployeeRepository"><rect fill="#F1F1F1" height="50" id="EmployeeRepository" rx="2.5" ry="2.5" style="stroke:#181818;stroke-width:0.5;" width="229" x="754" y="976"/><ellipse cx="770" cy="993" fill="#ADD1B2" rx="12" ry="12" style="stroke:#181818;stroke-width:1.0;"/><path d="M772.8066,1000.0801 Q772.123,1000.4316 771.3711,1000.6074 Q770.6191,1000.7832 769.7891,1000.7832 Q766.8398,1000.7832 765.2871,998.8398 Q763.7344,996.8965 763.7344,993.2246 Q763.7344,989.543 765.2871,987.5996 Q766.8398,985.6563 769.7891,985.6563 Q770.6191,985.6563 771.3809,985.832 Q772.1426,986.0078 772.8066,986.3594 L772.8066,989.5625 Q772.0645,988.8789 771.3662,988.5615 Q770.668,988.2441 769.9258,988.2441 Q768.3438,988.2441 767.5381,989.499 Q766.7324,990.7539 766.7324,993.2246 Q766.7324,995.6855 767.5381,996.9404 Q768.3438,998.1953 769.9258,998.1953 Q770.668,998.1953 771.3662,997.8779 Q772.0645,997.5605 772.8066,996.877 Z " fill="#000000"/><text fill="#000000" font-family="sans-serif" font-size="20" lengthAdjust="spacing" textLength="195" x="785" y="1000.5586">EmployeeRepository</text><line style="stroke:#181818;stroke-width:0.5;" x1="755" x2="982" y1="1010" y2="1010"/><line style="stroke:#181818;stroke-width:0.5;" x1="755" x2="982" y1="1018" y2="1018"/></g><!--link CreateRequestForPropertyUI to CreateRequestForPropertyController--><g id="link_CreateRequestForPropertyUI_CreateRequestForPropertyController"><path codeLine="85" d="M615.5,57.37 C615.5,71.74 615.5,91.15 615.5,111.86 " fill="none" id="CreateRequestForPropertyUI-to-CreateRequestForPropertyController" style="stroke:#181818;stroke-width:1.0;"/><polygon fill="#181818" points="615.5,116.86,619.5,107.86,615.5,111.86,611.5,107.86,615.5,116.86" style="stroke:#181818;stroke-width:1.0;"/></g><!--link CreateRequestForPropertyController to ManageEmployeeRepository--><g id="link_CreateRequestForPropertyController_ManageEmployeeRepository"><path codeLine="87" d="M735.36,355.26 C775.04,394.42 817.66,436.47 851.48,469.83 " fill="none" id="CreateRequestForPropertyController-to-ManageEmployeeRepository" style="stroke:#181818;stroke-width:1.0;stroke-dasharray:7.0,7.0;"/><polygon fill="#181818" points="855.14,473.44,851.5305,464.2764,851.5761,469.9331,845.9194,469.9787,855.14,473.44" style="stroke:#181818;stroke-width:1.0;"/></g><!--link CreateRequestForPropertyController to ManageRequestRepository--><g id="link_CreateRequestForPropertyController_ManageRequestRepository"><path codeLine="88" d="M496.04,355.26 C477.43,373.68 458.18,392.74 439.5,411.23 " fill="none" id="CreateRequestForPropertyController-to-ManageRequestRepository" style="stroke:#181818;stroke-width:1.0;stroke-dasharray:7.0,7.0;"/><polygon fill="#181818" points="435.77,414.92,444.9766,411.4216,439.3198,411.3988,439.3426,405.7419,435.77,414.92" style="stroke:#181818;stroke-width:1.0;"/></g><!--link ManageEmployeeRepository to Repositories--><g id="link_ManageEmployeeRepository_Repositories"><path codeLine="90" d="M881.27,594.8 C862.26,628 838.13,670.15 816.38,708.15 " fill="none" id="ManageEmployeeRepository-to-Repositories" style="stroke:#181818;stroke-width:1.0;stroke-dasharray:7.0,7.0;"/><polygon fill="#181818" points="813.73,712.76,821.6579,706.9163,816.203,708.4144,814.7049,702.9595,813.73,712.76" style="stroke:#181818;stroke-width:1.0;"/></g><!--link ManageRequestRepository to Repositories--><g id="link_ManageRequestRepository_Repositories"><path codeLine="91" d="M508.55,653.14 C539.51,672.18 571.25,691.7 601.29,710.18 " fill="none" id="ManageRequestRepository-to-Repositories" style="stroke:#181818;stroke-width:1.0;stroke-dasharray:7.0,7.0;"/><polygon fill="#181818" points="605.71,712.9,600.1339,704.7817,601.4493,710.2835,595.9475,711.5989,605.71,712.9" style="stroke:#181818;stroke-width:1.0;"/></g><!--link Repositories to RequestRepository--><g id="link_Repositories_RequestRepository"><path codeLine="93" d="M621.31,904.19 C591.94,924.32 562.52,944.48 538.3,961.08 " fill="none" id="Repositories-to-RequestRepository" style="stroke:#181818;stroke-width:1.0;"/><polygon fill="#181818" points="534.15,963.92,543.8354,962.1331,538.2748,961.094,539.3138,955.5334,534.15,963.92" style="stroke:#181818;stroke-width:1.0;"/></g><!--link Repositories to EmployeeRepository--><g id="link_Repositories_EmployeeRepository"><path codeLine="94" d="M813.68,904.19 C827.67,928.64 841.69,953.14 852.04,971.24 " fill="none" id="Repositories-to-EmployeeRepository" style="stroke:#181818;stroke-width:1.0;"/><polygon fill="#181818" points="854.6,975.7,853.6008,965.902,852.1162,971.3605,846.6577,969.876,854.6,975.7" style="stroke:#181818;stroke-width:1.0;"/></g><!--link EmployeeRepository to Employee--><g id="link_EmployeeRepository_Employee"><path codeLine="96" d="M875.6,1026.13 C880.61,1043.14 887.74,1067.36 895.24,1092.82 " fill="none" id="EmployeeRepository-to-Employee" style="stroke:#181818;stroke-width:1.0;"/><polygon fill="#181818" points="896.74,1097.93,898.06,1088.17,895.34,1093.13,890.38,1090.41,896.74,1097.93" style="stroke:#181818;stroke-width:1.0;"/></g><!--link ManageRequestRepository to RequestRepository--><g id="link_ManageRequestRepository_RequestRepository"><path codeLine="98" d="M358.46,653.24 C394.03,753.49 442.98,891.45 467.01,959.16 " fill="none" id="ManageRequestRepository-to-RequestRepository" style="stroke:#181818;stroke-width:1.0;stroke-dasharray:7.0,7.0;"/><polygon fill="#181818" points="468.69,963.91,469.4526,954.0907,467.0192,959.1974,461.9125,956.764,468.69,963.91" style="stroke:#181818;stroke-width:1.0;"/></g><!--link ManageRequestRepository to Request--><g id="link_ManageRequestRepository_Request"><path codeLine="99" d="M324.73,653.25 C335.07,801.94 351.5,1038 351.5,1038 C351.5,1038 371.96,1091.56 390.44,1139.92 " fill="none" id="ManageRequestRepository-to-Request" style="stroke:#181818;stroke-width:1.0;"/><polygon fill="#181818" points="392.33,1144.88,392.8527,1135.045,390.5447,1140.2096,385.3801,1137.9015,392.33,1144.88" style="stroke:#181818;stroke-width:1.0;"/></g><!--link RequestRepository to Request--><g id="link_RequestRepository_Request"><path codeLine="101" d="M470.98,1038.3 C462.95,1066.03 451.59,1105.24 441.59,1139.77 " fill="none" id="RequestRepository-to-Request" style="stroke:#181818;stroke-width:1.0;"/><polygon fill="#181818" points="440.12,1144.82,446.4593,1137.2826,441.5068,1140.0162,438.7732,1135.0637,440.12,1144.82" style="stroke:#181818;stroke-width:1.0;"/></g><!--link Request to Property--><g id="link_Request_Property"><path codeLine="103" d="M394.09,1289.2 C383.55,1318.72 370.76,1354.55 357.77,1390.93 " fill="none" id="Request-to-Property" style="stroke:#181818;stroke-width:1.0;"/><polygon fill="#181818" points="356.02,1395.84,362.7975,1388.694,357.6908,1391.1274,355.2574,1386.0207,356.02,1395.84" style="stroke:#181818;stroke-width:1.0;"/></g><!--link ManageRequestRepository to Property--><g id="link_ManageRequestRepository_Property"><path codeLine="105" d="M290.92,653.02 C255.15,818.11 194.5,1098 194.5,1098 C194.5,1098 194.5,1336 194.5,1336 C194.5,1336 203.21,1359.07 215.32,1391.16 " fill="none" id="ManageRequestRepository-to-Property" style="stroke:#181818;stroke-width:1.0;stroke-dasharray:7.0,7.0;"/><polygon fill="#181818" points="217.13,1395.96,217.689,1386.127,215.3619,1391.2831,210.2058,1388.956,217.13,1395.96" style="stroke:#181818;stroke-width:1.0;"/></g><!--SRC=[tLR1Jjmm4BtxAtnZKRC8zTW34bsenA45iUsDYpUPP2qSExMTbXJnxnrdRITEia2ltKCapumzxyqyZzSySjampMgXyaSeQ04bQuNzegJTyZz0FvwJ4nDYQAsaolTQrK2jRe4CdeRbZwo2hUq4K0svPR8Ium2pPuNwpML5IoRCs2Eu1DirG1ibEhSOPunEfQqYersvOCPSMglvhhLmaolPupqdv4H0QQbLLFDgRsd17Hok927z7hhHm2pSmyyM31BLTrere6ttuuO-lxmLjC72Q2K4QFfCAFu-l2DqTUf3Ax2N5KWxDdn7ThVbvzOWKsFcdd1Sz9XsLtFhywqQpNF8A4CG6N8rTiCnDUO0ZTQYq7XeHXzairTMLPer-upAjjw1ngHGQALgCx8mk_Uc1ncjTqnZtQijDXdGWvbvKsEAAp2yaimLDqDOylgfKSRbnRqxPi35P5Ie4hyseHdMWHn2TNKv9R41zu1dSQiq1-DBlKwCuqhTI8E2os5rIZybGKE8hrTqTkFzrtKZL0Umx4qxz5fCe9F4l7X6Nvb4alDKGKVr4VyAPgQfda8nrhJa0Zl_kRjN0bRJcXuGp2gH0fWNIayj8NtUApyAzF-GOafkk6Q9K94VEczBxmxLntvSeJrsunSJl1XEwQqlKU2BRLYxIeMiEXoFBKotXU20cWQ0thx5mOYpDa7fNRrY3ZGyLJqZcUoRNywGDQ0eLBl3kTyB83KvCQIML1W1qq4TGIM1N1GA7JJZVHmvpAIovFF2Md0bMlB-wo2eGLffHGTjUVjEuLLZWyecPYSvRqhdo4I6IKpiQYhDeG5XIiJ9wD59LaDgiI00YoVXMyywqAmP5nJSDzGQZstmaTqmNU1hFYoIVLkLSoQsaBVQjT35MlQKX2oryiJ1KHgeSTzWSZEAuWi9nEimi5ev6ja2Ycp8bk75ZZEb9t8PLXFAsI5hrgSwNALN_WAirnVlUD6F7p7wWt1sTd5qwF_R_jci8EJOmVskv0aySiGya2HlhYl4FEyiP84QMK0r3YLlG9hcF1OzGkYmlyVT6-DrUXL7YFeB]--></g></svg>