<?xml version="1.0" encoding="UTF-8" standalone="no"?><svg xmlns="http://www.w3.org/2000/svg" xmlns:xlink="http://www.w3.org/1999/xlink" contentStyleType="text/css" height="2058px" preserveAspectRatio="none" style="width:1467px;height:2058px;background:#FFFFFF;" version="1.1" viewBox="0 0 1467 2058" width="1467px" zoomAndPan="magnify"><defs/><g><!--class CreateAdvertisementForPropertyUI--><g id="elem_CreateAdvertisementForPropertyUI"><rect codeLine="11" fill="#F1F1F1" height="50" id="CreateAdvertisementForPropertyUI" rx="2.5" ry="2.5" style="stroke:#181818;stroke-width:0.5;" width="366" x="651" y="7"/><ellipse cx="667" cy="24" fill="#ADD1B2" rx="12" ry="12" style="stroke:#181818;stroke-width:1.0;"/><path d="M669.8066,31.0801 Q669.123,31.4316 668.3711,31.6074 Q667.6191,31.7832 666.7891,31.7832 Q663.8398,31.7832 662.2871,29.8398 Q660.7344,27.8965 660.7344,24.2246 Q660.7344,20.543 662.2871,18.5996 Q663.8398,16.6563 666.7891,16.6563 Q667.6191,16.6563 668.3809,16.832 Q669.1426,17.0078 669.8066,17.3594 L669.8066,20.5625 Q669.0645,19.8789 668.3662,19.5615 Q667.668,19.2441 666.9258,19.2441 Q665.3438,19.2441 664.5381,20.499 Q663.7324,21.7539 663.7324,24.2246 Q663.7324,26.6855 664.5381,27.9404 Q665.3438,29.1953 666.9258,29.1953 Q667.668,29.1953 668.3662,28.8779 Q669.0645,28.5605 669.8066,27.877 Z " fill="#000000"/><text fill="#000000" font-family="sans-serif" font-size="20" lengthAdjust="spacing" textLength="332" x="682" y="31.5586">CreateAdvertisementForPropertyUI</text><line style="stroke:#181818;stroke-width:0.5;" x1="652" x2="1016" y1="41" y2="41"/><line style="stroke:#181818;stroke-width:0.5;" x1="652" x2="1016" y1="49" y2="49"/></g><!--class CreateAdvertisementForPropertyController--><g id="elem_CreateAdvertisementForPropertyController"><rect codeLine="13" fill="#F1F1F1" height="261.9922" id="CreateAdvertisementForPropertyController" rx="2.5" ry="2.5" style="stroke:#181818;stroke-width:0.5;" width="920" x="374" y="117"/><ellipse cx="625.5" cy="134" fill="#ADD1B2" rx="12" ry="12" style="stroke:#181818;stroke-width:1.0;"/><path d="M628.3066,141.0801 Q627.623,141.4316 626.8711,141.6074 Q626.1191,141.7832 625.2891,141.7832 Q622.3398,141.7832 620.7871,139.8398 Q619.2344,137.8965 619.2344,134.2246 Q619.2344,130.543 620.7871,128.5996 Q622.3398,126.6563 625.2891,126.6563 Q626.1191,126.6563 626.8809,126.832 Q627.6426,127.0078 628.3066,127.3594 L628.3066,130.5625 Q627.5645,129.8789 626.8662,129.5615 Q626.168,129.2441 625.4258,129.2441 Q623.8438,129.2441 623.0381,130.499 Q622.2324,131.7539 622.2324,134.2246 Q622.2324,136.6855 623.0381,137.9404 Q623.8438,139.1953 625.4258,139.1953 Q626.168,139.1953 626.8662,138.8779 Q627.5645,138.5605 628.3066,137.877 Z " fill="#000000"/><text fill="#000000" font-family="sans-serif" font-size="20" lengthAdjust="spacing" textLength="408" x="647.5" y="141.5586">CreateAdvertisementForPropertyController</text><line style="stroke:#181818;stroke-width:0.5;" x1="375" x2="1293" y1="151" y2="151"/><line style="stroke:#181818;stroke-width:0.5;" x1="375" x2="1293" y1="159" y2="159"/><text fill="#000000" font-family="sans-serif" font-size="20" lengthAdjust="spacing" textLength="438" x="380" y="182.3359">+CreateAdvertisementForPropertyController()</text><text fill="#000000" font-family="sans-serif" font-size="20" lengthAdjust="spacing" textLength="116" x="380" y="205.8906">+getAgent()</text><text fill="#000000" font-family="sans-serif" font-size="20" lengthAdjust="spacing" textLength="213" x="380" y="229.4453">+getTypeOfBusiness()</text><text fill="#000000" font-family="sans-serif" font-size="20" lengthAdjust="spacing" textLength="210" x="380" y="253">+getTypeOfProperty()</text><text fill="#000000" font-family="sans-serif" font-size="20" lengthAdjust="spacing" textLength="250" x="380" y="276.5547">+getTypeOfCommission()</text><text fill="#000000" font-family="sans-serif" font-size="20" lengthAdjust="spacing" textLength="572" x="380" y="300.1094">+submitAdvertisement(price, area, distCityCenter, address,</text><text fill="#000000" font-family="sans-serif" font-size="20" lengthAdjust="spacing" textLength="538" x="380" y="323.6641">photograph, numberOfBedrooms, numberOfBathrooms,</text><text fill="#000000" font-family="sans-serif" font-size="20" lengthAdjust="spacing" textLength="595" x="386" y="347.2188">numberOfParkingSpaces, equipmentDesignation, sunExposer,</text><text fill="#000000" font-family="sans-serif" font-size="20" lengthAdjust="spacing" textLength="902" x="386" y="370.7734">basement, loft, typeOfBusiness, typeOfProperty, typeOfCommission, commissionValue, agent)</text></g><!--class Repositories--><g id="elem_Repositories"><rect codeLine="22" fill="#F1F1F1" height="214.8828" id="Repositories" rx="2.5" ry="2.5" style="stroke:#181818;stroke-width:0.5;" width="360" x="820" y="761"/><ellipse cx="936" cy="778" fill="#ADD1B2" rx="12" ry="12" style="stroke:#181818;stroke-width:1.0;"/><path d="M938.8066,785.0801 Q938.123,785.4316 937.3711,785.6074 Q936.6191,785.7832 935.7891,785.7832 Q932.8398,785.7832 931.2871,783.8398 Q929.7344,781.8965 929.7344,778.2246 Q929.7344,774.543 931.2871,772.5996 Q932.8398,770.6563 935.7891,770.6563 Q936.6191,770.6563 937.3809,770.832 Q938.1426,771.0078 938.8066,771.3594 L938.8066,774.5625 Q938.0645,773.8789 937.3662,773.5615 Q936.668,773.2441 935.9258,773.2441 Q934.3438,773.2441 933.5381,774.499 Q932.7324,775.7539 932.7324,778.2246 Q932.7324,780.6855 933.5381,781.9404 Q934.3438,783.1953 935.9258,783.1953 Q936.668,783.1953 937.3662,782.8779 Q938.0645,782.5605 938.8066,781.877 Z " fill="#000000"/><text fill="#000000" font-family="sans-serif" font-size="20" lengthAdjust="spacing" textLength="119" x="958" y="785.5586">Repositories</text><line style="stroke:#181818;stroke-width:0.5;" x1="821" x2="1179" y1="795" y2="795"/><line style="stroke:#181818;stroke-width:0.5;" x1="821" x2="1179" y1="803" y2="803"/><text fill="#000000" font-family="sans-serif" font-size="20" lengthAdjust="spacing" textLength="145" x="826" y="826.3359">-Repositories()</text><text fill="#000000" font-family="sans-serif" font-size="20" lengthAdjust="spacing" textLength="276" x="826" y="849.8906">+getInstance() : Repositories</text><text fill="#000000" font-family="sans-serif" font-size="20" lengthAdjust="spacing" textLength="301" x="826" y="873.4453">+getAdvertisementRepository()</text><text fill="#000000" font-family="sans-serif" font-size="20" lengthAdjust="spacing" textLength="255" x="826" y="897">+getEmployeeRepository()</text><text fill="#000000" font-family="sans-serif" font-size="20" lengthAdjust="spacing" textLength="315" x="826" y="920.5547">+getTypeOfBusinessRepository()</text><text fill="#000000" font-family="sans-serif" font-size="20" lengthAdjust="spacing" textLength="312" x="826" y="944.1094">+getTypeOfPropertyRepository()</text><text fill="#000000" font-family="sans-serif" font-size="20" lengthAdjust="spacing" textLength="348" x="826" y="967.6641">+getTypeofCommissionRepository()</text></g><!--class ManageEmployeeRepository--><g id="elem_ManageEmployeeRepository"><rect codeLine="31" fill="#F1F1F1" height="120.6641" id="ManageEmployeeRepository" rx="2.5" ry="2.5" style="stroke:#181818;stroke-width:0.5;" width="508" x="952" y="509.5"/><ellipse cx="1067" cy="526.5" fill="#ADD1B2" rx="12" ry="12" style="stroke:#181818;stroke-width:1.0;"/><path d="M1069.8066,533.5801 Q1069.123,533.9316 1068.3711,534.1074 Q1067.6191,534.2832 1066.7891,534.2832 Q1063.8398,534.2832 1062.2871,532.3398 Q1060.7344,530.3965 1060.7344,526.7246 Q1060.7344,523.043 1062.2871,521.0996 Q1063.8398,519.1563 1066.7891,519.1563 Q1067.6191,519.1563 1068.3809,519.332 Q1069.1426,519.5078 1069.8066,519.8594 L1069.8066,523.0625 Q1069.0645,522.3789 1068.3662,522.0615 Q1067.668,521.7441 1066.9258,521.7441 Q1065.3438,521.7441 1064.5381,522.999 Q1063.7324,524.2539 1063.7324,526.7246 Q1063.7324,529.1855 1064.5381,530.4404 Q1065.3438,531.6953 1066.9258,531.6953 Q1067.668,531.6953 1068.3662,531.3779 Q1069.0645,531.0605 1069.8066,530.377 Z " fill="#000000"/><text fill="#000000" font-family="sans-serif" font-size="20" lengthAdjust="spacing" textLength="269" x="1089" y="534.0586">ManageEmployeeRepository</text><line style="stroke:#181818;stroke-width:0.5;" x1="953" x2="1459" y1="543.5" y2="543.5"/><line style="stroke:#181818;stroke-width:0.5;" x1="953" x2="1459" y1="551.5" y2="551.5"/><text fill="#000000" font-family="sans-serif" font-size="20" lengthAdjust="spacing" textLength="496" x="958" y="574.8359">+manageEmployeeRepository(employeeRepository)</text><text fill="#000000" font-family="sans-serif" font-size="20" lengthAdjust="spacing" textLength="126" x="958" y="598.3906">+getAgents()</text><text fill="#000000" font-family="sans-serif" font-size="20" lengthAdjust="spacing" textLength="188" x="958" y="621.9453">-filterByRole(agent)</text></g><!--class ManageAdvertisementRepository--><g id="elem_ManageAdvertisementRepository"><rect codeLine="37" fill="#F1F1F1" height="261.9922" id="ManageAdvertisementRepository" rx="2.5" ry="2.5" style="stroke:#181818;stroke-width:0.5;" width="910" x="7" y="439"/><ellipse cx="300" cy="456" fill="#ADD1B2" rx="12" ry="12" style="stroke:#181818;stroke-width:1.0;"/><path d="M302.8066,463.0801 Q302.123,463.4316 301.3711,463.6074 Q300.6191,463.7832 299.7891,463.7832 Q296.8398,463.7832 295.2871,461.8398 Q293.7344,459.8965 293.7344,456.2246 Q293.7344,452.543 295.2871,450.5996 Q296.8398,448.6563 299.7891,448.6563 Q300.6191,448.6563 301.3809,448.832 Q302.1426,449.0078 302.8066,449.3594 L302.8066,452.5625 Q302.0645,451.8789 301.3662,451.5615 Q300.668,451.2441 299.9258,451.2441 Q298.3438,451.2441 297.5381,452.499 Q296.7324,453.7539 296.7324,456.2246 Q296.7324,458.6855 297.5381,459.9404 Q298.3438,461.1953 299.9258,461.1953 Q300.668,461.1953 301.3662,460.8779 Q302.0645,460.5605 302.8066,459.877 Z " fill="#000000"/><text fill="#000000" font-family="sans-serif" font-size="20" lengthAdjust="spacing" textLength="315" x="322" y="463.5586">ManageAdvertisementRepository</text><line style="stroke:#181818;stroke-width:0.5;" x1="8" x2="916" y1="473" y2="473"/><line style="stroke:#181818;stroke-width:0.5;" x1="8" x2="916" y1="481" y2="481"/><text fill="#000000" font-family="sans-serif" font-size="20" lengthAdjust="spacing" textLength="585" x="13" y="504.3359">+manageAdvertisementRepository(advertisementRepository)</text><text fill="#000000" font-family="sans-serif" font-size="20" lengthAdjust="spacing" textLength="504" x="13" y="527.8906">+createProperty(price, area, distCityCenter, address,</text><text fill="#000000" font-family="sans-serif" font-size="20" lengthAdjust="spacing" textLength="538" x="13" y="551.4453">photograph, numberOfBedrooms, numberOfBathrooms,</text><text fill="#000000" font-family="sans-serif" font-size="20" lengthAdjust="spacing" textLength="595" x="19" y="575">numberOfParkingSpaces, equipmentDesignation, sunExposer,</text><text fill="#000000" font-family="sans-serif" font-size="20" lengthAdjust="spacing" textLength="460" x="19" y="598.5547">basement, loft, typeOfBusiness, typeOfProperty)</text><text fill="#000000" font-family="sans-serif" font-size="20" lengthAdjust="spacing" textLength="466" x="13" y="622.1094">+createRequest(property, agent, dateOfRequest)</text><text fill="#000000" font-family="sans-serif" font-size="20" lengthAdjust="spacing" textLength="898" x="13" y="645.6641">+createAdvertisement( request, typeOfCommission, commissionValue, dateOfAdvertisement)</text><text fill="#000000" font-family="sans-serif" font-size="20" lengthAdjust="spacing" textLength="100" x="13" y="669.2188">-getDate()</text><text fill="#000000" font-family="sans-serif" font-size="20" lengthAdjust="spacing" textLength="376" x="13" y="692.7734">-validateAdvertisement(advertisement)</text></g><!--class AdvertisementRepository--><g id="elem_AdvertisementRepository"><rect codeLine="45" fill="#F1F1F1" height="73.5547" id="AdvertisementRepository" rx="2.5" ry="2.5" style="stroke:#181818;stroke-width:0.5;" width="350" x="551" y="1036"/><ellipse cx="601" cy="1053" fill="#ADD1B2" rx="12" ry="12" style="stroke:#181818;stroke-width:1.0;"/><path d="M603.8066,1060.0801 Q603.123,1060.4316 602.3711,1060.6074 Q601.6191,1060.7832 600.7891,1060.7832 Q597.8398,1060.7832 596.2871,1058.8398 Q594.7344,1056.8965 594.7344,1053.2246 Q594.7344,1049.543 596.2871,1047.5996 Q597.8398,1045.6563 600.7891,1045.6563 Q601.6191,1045.6563 602.3809,1045.832 Q603.1426,1046.0078 603.8066,1046.3594 L603.8066,1049.5625 Q603.0645,1048.8789 602.3662,1048.5615 Q601.668,1048.2441 600.9258,1048.2441 Q599.3438,1048.2441 598.5381,1049.499 Q597.7324,1050.7539 597.7324,1053.2246 Q597.7324,1055.6855 598.5381,1056.9404 Q599.3438,1058.1953 600.9258,1058.1953 Q601.668,1058.1953 602.3662,1057.8779 Q603.0645,1057.5605 603.8066,1056.877 Z " fill="#000000"/><text fill="#000000" font-family="sans-serif" font-size="20" lengthAdjust="spacing" textLength="241" x="623" y="1060.5586">AdvertisementRepository</text><line style="stroke:#181818;stroke-width:0.5;" x1="552" x2="900" y1="1070" y2="1070"/><line style="stroke:#181818;stroke-width:0.5;" x1="552" x2="900" y1="1078" y2="1078"/><text fill="#000000" font-family="sans-serif" font-size="20" lengthAdjust="spacing" textLength="338" x="557" y="1101.3359">-addAdvertisement(advertisement)</text></g><!--class Request--><g id="elem_Request"><rect codeLine="49" fill="#F1F1F1" height="144.2188" id="Request" rx="2.5" ry="2.5" style="stroke:#181818;stroke-width:0.5;" width="415" x="409.5" y="1468"/><ellipse cx="574" cy="1485" fill="#ADD1B2" rx="12" ry="12" style="stroke:#181818;stroke-width:1.0;"/><path d="M576.8066,1492.0801 Q576.123,1492.4316 575.3711,1492.6074 Q574.6191,1492.7832 573.7891,1492.7832 Q570.8398,1492.7832 569.2871,1490.8398 Q567.7344,1488.8965 567.7344,1485.2246 Q567.7344,1481.543 569.2871,1479.5996 Q570.8398,1477.6563 573.7891,1477.6563 Q574.6191,1477.6563 575.3809,1477.832 Q576.1426,1478.0078 576.8066,1478.3594 L576.8066,1481.5625 Q576.0645,1480.8789 575.3662,1480.5615 Q574.668,1480.2441 573.9258,1480.2441 Q572.3438,1480.2441 571.5381,1481.499 Q570.7324,1482.7539 570.7324,1485.2246 Q570.7324,1487.6855 571.5381,1488.9404 Q572.3438,1490.1953 573.9258,1490.1953 Q574.668,1490.1953 575.3662,1489.8779 Q576.0645,1489.5605 576.8066,1488.877 Z " fill="#000000"/><text fill="#000000" font-family="sans-serif" font-size="20" lengthAdjust="spacing" textLength="77" x="596" y="1492.5586">Request</text><line style="stroke:#181818;stroke-width:0.5;" x1="410.5" x2="823.5" y1="1502" y2="1502"/><text fill="#000000" font-family="sans-serif" font-size="20" lengthAdjust="spacing" textLength="180" x="415.5" y="1525.3359">-Property property</text><text fill="#000000" font-family="sans-serif" font-size="20" lengthAdjust="spacing" textLength="216" x="415.5" y="1548.8906">-String dateOfRequest</text><text fill="#000000" font-family="sans-serif" font-size="20" lengthAdjust="spacing" textLength="127" x="415.5" y="1572.4453">-Agent agent</text><line style="stroke:#181818;stroke-width:0.5;" x1="410.5" x2="823.5" y1="1580.6641" y2="1580.6641"/><text fill="#000000" font-family="sans-serif" font-size="20" lengthAdjust="spacing" textLength="403" x="415.5" y="1604">+request(property, dateOfRequest, agent)</text></g><!--class Advertisement--><g id="elem_Advertisement"><rect codeLine="55" fill="#F1F1F1" height="144.2188" id="Advertisement" rx="2.5" ry="2.5" style="stroke:#181818;stroke-width:0.5;" width="404" x="480" y="1217"/><ellipse cx="608" cy="1234" fill="#ADD1B2" rx="12" ry="12" style="stroke:#181818;stroke-width:1.0;"/><path d="M610.8066,1241.0801 Q610.123,1241.4316 609.3711,1241.6074 Q608.6191,1241.7832 607.7891,1241.7832 Q604.8398,1241.7832 603.2871,1239.8398 Q601.7344,1237.8965 601.7344,1234.2246 Q601.7344,1230.543 603.2871,1228.5996 Q604.8398,1226.6563 607.7891,1226.6563 Q608.6191,1226.6563 609.3809,1226.832 Q610.1426,1227.0078 610.8066,1227.3594 L610.8066,1230.5625 Q610.0645,1229.8789 609.3662,1229.5615 Q608.668,1229.2441 607.9258,1229.2441 Q606.3438,1229.2441 605.5381,1230.499 Q604.7324,1231.7539 604.7324,1234.2246 Q604.7324,1236.6855 605.5381,1237.9404 Q606.3438,1239.1953 607.9258,1239.1953 Q608.668,1239.1953 609.3662,1238.8779 Q610.0645,1238.5605 610.8066,1237.877 Z " fill="#000000"/><text fill="#000000" font-family="sans-serif" font-size="20" lengthAdjust="spacing" textLength="139" x="630" y="1241.5586">Advertisement</text><line style="stroke:#181818;stroke-width:0.5;" x1="481" x2="883" y1="1251" y2="1251"/><text fill="#000000" font-family="sans-serif" font-size="20" lengthAdjust="spacing" textLength="167" x="486" y="1274.3359">-Request request</text><text fill="#000000" font-family="sans-serif" font-size="20" lengthAdjust="spacing" textLength="254" x="486" y="1297.8906">-double commissionValue</text><text fill="#000000" font-family="sans-serif" font-size="20" lengthAdjust="spacing" textLength="278" x="486" y="1321.4453">-String dateOfAdvertisement</text><text fill="#000000" font-family="sans-serif" font-size="20" lengthAdjust="spacing" textLength="392" x="486" y="1345">-TypeOfCommission typeOfCommission</text><line style="stroke:#181818;stroke-width:0.5;" x1="481" x2="883" y1="1353.2188" y2="1353.2188"/></g><!--class Property--><g id="elem_Property"><rect codeLine="61" fill="#F1F1F1" height="379.7656" id="Property" rx="2.5" ry="2.5" style="stroke:#181818;stroke-width:0.5;" width="330" x="321" y="1672"/><ellipse cx="441.5" cy="1689" fill="#ADD1B2" rx="12" ry="12" style="stroke:#181818;stroke-width:1.0;"/><path d="M444.3066,1696.0801 Q443.623,1696.4316 442.8711,1696.6074 Q442.1191,1696.7832 441.2891,1696.7832 Q438.3398,1696.7832 436.7871,1694.8398 Q435.2344,1692.8965 435.2344,1689.2246 Q435.2344,1685.543 436.7871,1683.5996 Q438.3398,1681.6563 441.2891,1681.6563 Q442.1191,1681.6563 442.8809,1681.832 Q443.6426,1682.0078 444.3066,1682.3594 L444.3066,1685.5625 Q443.5645,1684.8789 442.8662,1684.5615 Q442.168,1684.2441 441.4258,1684.2441 Q439.8438,1684.2441 439.0381,1685.499 Q438.2324,1686.7539 438.2324,1689.2246 Q438.2324,1691.6855 439.0381,1692.9404 Q439.8438,1694.1953 441.4258,1694.1953 Q442.168,1694.1953 442.8662,1693.8779 Q443.5645,1693.5605 444.3066,1692.877 Z " fill="#000000"/><text fill="#000000" font-family="sans-serif" font-size="20" lengthAdjust="spacing" textLength="80" x="463.5" y="1696.5586">Property</text><line style="stroke:#181818;stroke-width:0.5;" x1="322" x2="650" y1="1706" y2="1706"/><text fill="#000000" font-family="sans-serif" font-size="20" lengthAdjust="spacing" textLength="133" x="327" y="1729.3359">-double price</text><text fill="#000000" font-family="sans-serif" font-size="20" lengthAdjust="spacing" textLength="126" x="327" y="1752.8906">-double area</text><text fill="#000000" font-family="sans-serif" font-size="20" lengthAdjust="spacing" textLength="221" x="327" y="1776.4453">-double distCityCenter</text><text fill="#000000" font-family="sans-serif" font-size="20" lengthAdjust="spacing" textLength="173" x="327" y="1800">-Address address</text><text fill="#000000" font-family="sans-serif" font-size="20" lengthAdjust="spacing" textLength="240" x="327" y="1823.5547">-Photograph photograph</text><text fill="#000000" font-family="sans-serif" font-size="20" lengthAdjust="spacing" textLength="244" x="327" y="1847.1094">-int numberOfBathrooms</text><text fill="#000000" font-family="sans-serif" font-size="20" lengthAdjust="spacing" textLength="238" x="327" y="1870.6641">-int numberOfBedrooms</text><text fill="#000000" font-family="sans-serif" font-size="20" lengthAdjust="spacing" textLength="279" x="327" y="1894.2188">-int numberOfParkingSpaces</text><text fill="#000000" font-family="sans-serif" font-size="20" lengthAdjust="spacing" textLength="226" x="327" y="1917.7734">-Equipment equipment</text><text fill="#000000" font-family="sans-serif" font-size="20" lengthAdjust="spacing" textLength="185" x="327" y="1941.3281">-String sunExposer</text><text fill="#000000" font-family="sans-serif" font-size="20" lengthAdjust="spacing" textLength="189" x="327" y="1964.8828">-boolean basement</text><text fill="#000000" font-family="sans-serif" font-size="20" lengthAdjust="spacing" textLength="127" x="327" y="1988.4375">-boolean loft</text><text fill="#000000" font-family="sans-serif" font-size="20" lengthAdjust="spacing" textLength="318" x="327" y="2011.9922">-TypeOfBusiness typeOfBusiness</text><text fill="#000000" font-family="sans-serif" font-size="20" lengthAdjust="spacing" textLength="312" x="327" y="2035.5469">-TypeOfProperty typeOfProperty</text><line style="stroke:#181818;stroke-width:0.5;" x1="322" x2="650" y1="2043.7656" y2="2043.7656"/></g><!--class Employee--><g id="elem_Employee"><rect codeLine="78" fill="#F1F1F1" height="238.4375" id="Employee" rx="2.5" ry="2.5" style="stroke:#181818;stroke-width:0.5;" width="539" x="919.5" y="1170"/><ellipse cx="1138" cy="1187" fill="#ADD1B2" rx="12" ry="12" style="stroke:#181818;stroke-width:1.0;"/><path d="M1140.8066,1194.0801 Q1140.123,1194.4316 1139.3711,1194.6074 Q1138.6191,1194.7832 1137.7891,1194.7832 Q1134.8398,1194.7832 1133.2871,1192.8398 Q1131.7344,1190.8965 1131.7344,1187.2246 Q1131.7344,1183.543 1133.2871,1181.5996 Q1134.8398,1179.6563 1137.7891,1179.6563 Q1138.6191,1179.6563 1139.3809,1179.832 Q1140.1426,1180.0078 1140.8066,1180.3594 L1140.8066,1183.5625 Q1140.0645,1182.8789 1139.3662,1182.5615 Q1138.668,1182.2441 1137.9258,1182.2441 Q1136.3438,1182.2441 1135.5381,1183.499 Q1134.7324,1184.7539 1134.7324,1187.2246 Q1134.7324,1189.6855 1135.5381,1190.9404 Q1136.3438,1192.1953 1137.9258,1192.1953 Q1138.668,1192.1953 1139.3662,1191.8779 Q1140.0645,1191.5605 1140.8066,1190.877 Z " fill="#000000"/><text fill="#000000" font-family="sans-serif" font-size="20" lengthAdjust="spacing" textLength="93" x="1160" y="1194.5586">Employee</text><line style="stroke:#181818;stroke-width:0.5;" x1="920.5" x2="1457.5" y1="1204" y2="1204"/><text fill="#000000" font-family="sans-serif" font-size="20" lengthAdjust="spacing" textLength="127" x="925.5" y="1227.3359">-String name</text><text fill="#000000" font-family="sans-serif" font-size="20" lengthAdjust="spacing" textLength="247" x="925.5" y="1250.8906">-String telephoneNumber</text><text fill="#000000" font-family="sans-serif" font-size="20" lengthAdjust="spacing" textLength="124" x="925.5" y="1274.4453">-Email email</text><text fill="#000000" font-family="sans-serif" font-size="20" lengthAdjust="spacing" textLength="354" x="925.5" y="1298">-PassportCard passportCardNumber</text><text fill="#000000" font-family="sans-serif" font-size="20" lengthAdjust="spacing" textLength="303" x="925.5" y="1321.5547">-SocialSecurityCard taxNumber</text><text fill="#000000" font-family="sans-serif" font-size="20" lengthAdjust="spacing" textLength="173" x="925.5" y="1345.1094">-Address address</text><line style="stroke:#181818;stroke-width:0.5;" x1="920.5" x2="1457.5" y1="1353.3281" y2="1353.3281"/><text fill="#000000" font-family="sans-serif" font-size="20" lengthAdjust="spacing" textLength="515" x="925.5" y="1376.6641">+Employee(name, passportCardNumber, taxNumber,</text><text fill="#000000" font-family="sans-serif" font-size="20" lengthAdjust="spacing" textLength="521" x="931.5" y="1400.2188">address, emailAddress, telephoneNumber, store, role)</text></g><!--class EmployeeRepository--><g id="elem_EmployeeRepository"><rect fill="#F1F1F1" height="50" id="EmployeeRepository" rx="2.5" ry="2.5" style="stroke:#181818;stroke-width:0.5;" width="229" x="1005.5" y="1048"/><ellipse cx="1021.5" cy="1065" fill="#ADD1B2" rx="12" ry="12" style="stroke:#181818;stroke-width:1.0;"/><path d="M1024.3066,1072.0801 Q1023.623,1072.4316 1022.8711,1072.6074 Q1022.1191,1072.7832 1021.2891,1072.7832 Q1018.3398,1072.7832 1016.7871,1070.8398 Q1015.2344,1068.8965 1015.2344,1065.2246 Q1015.2344,1061.543 1016.7871,1059.5996 Q1018.3398,1057.6563 1021.2891,1057.6563 Q1022.1191,1057.6563 1022.8809,1057.832 Q1023.6426,1058.0078 1024.3066,1058.3594 L1024.3066,1061.5625 Q1023.5645,1060.8789 1022.8662,1060.5615 Q1022.168,1060.2441 1021.4258,1060.2441 Q1019.8438,1060.2441 1019.0381,1061.499 Q1018.2324,1062.7539 1018.2324,1065.2246 Q1018.2324,1067.6855 1019.0381,1068.9404 Q1019.8438,1070.1953 1021.4258,1070.1953 Q1022.168,1070.1953 1022.8662,1069.8779 Q1023.5645,1069.5605 1024.3066,1068.877 Z " fill="#000000"/><text fill="#000000" font-family="sans-serif" font-size="20" lengthAdjust="spacing" textLength="195" x="1036.5" y="1072.5586">EmployeeRepository</text><line style="stroke:#181818;stroke-width:0.5;" x1="1006.5" x2="1233.5" y1="1082" y2="1082"/><line style="stroke:#181818;stroke-width:0.5;" x1="1006.5" x2="1233.5" y1="1090" y2="1090"/></g><!--link CreateAdvertisementForPropertyUI to CreateAdvertisementForPropertyController--><g id="link_CreateAdvertisementForPropertyUI_CreateAdvertisementForPropertyController"><path codeLine="92" d="M834,57.13 C834,71.4 834,90.74 834,111.63 " fill="none" id="CreateAdvertisementForPropertyUI-to-CreateAdvertisementForPropertyController" style="stroke:#181818;stroke-width:1.0;"/><polygon fill="#181818" points="834,116.68,838,107.68,834,111.68,830,107.68,834,116.68" style="stroke:#181818;stroke-width:1.0;"/></g><!--link CreateAdvertisementForPropertyController to ManageEmployeeRepository--><g id="link_CreateAdvertisementForPropertyController_ManageEmployeeRepository"><path codeLine="94" d="M985.31,379.16 C1036.17,422.91 1090.62,469.74 1132.7,505.95 " fill="none" id="CreateAdvertisementForPropertyController-to-ManageEmployeeRepository" style="stroke:#181818;stroke-width:1.0;stroke-dasharray:7.0,7.0;"/><polygon fill="#181818" points="1136.74,509.42,1132.5099,500.5259,1132.9437,506.166,1127.3035,506.5999,1136.74,509.42" style="stroke:#181818;stroke-width:1.0;"/></g><!--link CreateAdvertisementForPropertyController to ManageAdvertisementRepository--><g id="link_CreateAdvertisementForPropertyController_ManageAdvertisementRepository"><path codeLine="95" d="M682.69,379.16 C661.11,397.73 638.87,416.85 617.21,435.49 " fill="none" id="CreateAdvertisementForPropertyController-to-ManageAdvertisementRepository" style="stroke:#181818;stroke-width:1.0;stroke-dasharray:7.0,7.0;"/><polygon fill="#181818" points="613.17,438.96,622.6065,436.1399,616.9663,435.706,617.4001,430.0659,613.17,438.96" style="stroke:#181818;stroke-width:1.0;"/></g><!--link ManageEmployeeRepository to Repositories--><g id="link_ManageEmployeeRepository_Repositories"><path codeLine="97" d="M1164.56,630.64 C1139.46,666.77 1106.66,713.98 1076.96,756.73 " fill="none" id="ManageEmployeeRepository-to-Repositories" style="stroke:#181818;stroke-width:1.0;stroke-dasharray:7.0,7.0;"/><polygon fill="#181818" points="1074.09,760.86,1082.5174,755.763,1076.9487,756.7578,1075.9539,751.1891,1074.09,760.86" style="stroke:#181818;stroke-width:1.0;"/></g><!--link ManageAdvertisementRepository to Repositories--><g id="link_ManageAdvertisementRepository_Repositories"><path codeLine="98" d="M697.97,701.05 C737.18,722.65 777.33,744.78 815.04,765.56 " fill="none" id="ManageAdvertisementRepository-to-Repositories" style="stroke:#181818;stroke-width:1.0;stroke-dasharray:7.0,7.0;"/><polygon fill="#181818" points="819.62,768.09,813.6647,760.2456,815.2398,765.6788,809.8067,767.2539,819.62,768.09" style="stroke:#181818;stroke-width:1.0;"/></g><!--link Repositories to AdvertisementRepository--><g id="link_Repositories_AdvertisementRepository"><path codeLine="100" d="M855.78,976.09 C828.35,996.36 801.31,1016.35 779.06,1032.78 " fill="none" id="Repositories-to-AdvertisementRepository" style="stroke:#181818;stroke-width:1.0;"/><polygon fill="#181818" points="774.97,1035.81,784.5873,1033.6868,778.9938,1032.8421,779.8386,1027.2486,774.97,1035.81" style="stroke:#181818;stroke-width:1.0;"/></g><!--link Repositories to EmployeeRepository--><g id="link_Repositories_EmployeeRepository"><path codeLine="101" d="M1063.16,976.09 C1077.95,1001.03 1092.47,1025.55 1103.14,1043.55 " fill="none" id="Repositories-to-EmployeeRepository" style="stroke:#181818;stroke-width:1.0;"/><polygon fill="#181818" points="1105.77,1047.98,1104.6078,1038.2,1103.2143,1043.6825,1097.7318,1042.289,1105.77,1047.98" style="stroke:#181818;stroke-width:1.0;"/></g><!--link EmployeeRepository to Employee--><g id="link_EmployeeRepository_Employee"><path codeLine="103" d="M1127.78,1098.13 C1133.29,1115.21 1141.14,1139.56 1149.39,1165.14 " fill="none" id="EmployeeRepository-to-Employee" style="stroke:#181818;stroke-width:1.0;"/><polygon fill="#181818" points="1150.93,1169.93,1151.985,1160.1378,1149.4004,1165.1697,1144.3685,1162.5851,1150.93,1169.93" style="stroke:#181818;stroke-width:1.0;"/></g><!--link ManageAdvertisementRepository to AdvertisementRepository--><g id="link_ManageAdvertisementRepository_AdvertisementRepository"><path codeLine="105" d="M530.67,701.32 C588.3,810.69 667.04,960.11 704.5,1031.2 " fill="none" id="ManageAdvertisementRepository-to-AdvertisementRepository" style="stroke:#181818;stroke-width:1.0;stroke-dasharray:7.0,7.0;"/><polygon fill="#181818" points="706.91,1035.77,706.2488,1025.9434,704.5771,1031.3476,699.1729,1029.6759,706.91,1035.77" style="stroke:#181818;stroke-width:1.0;"/></g><!--link ManageAdvertisementRepository to Advertisement--><g id="link_ManageAdvertisementRepository_Advertisement"><path codeLine="106" d="M479.14,701.13 C500.15,860.64 533,1110 533,1110 C533,1110 578.38,1164.21 619.05,1212.8 " fill="none" id="ManageAdvertisementRepository-to-Advertisement" style="stroke:#181818;stroke-width:1.0;"/><polygon fill="#181818" points="622.47,1216.88,619.7466,1207.4152,619.255,1213.0506,613.6196,1212.5591,622.47,1216.88" style="stroke:#181818;stroke-width:1.0;"/></g><!--link AdvertisementRepository to Advertisement--><g id="link_AdvertisementRepository_Advertisement"><path codeLine="108" d="M718.54,1110.3 C712.83,1138.03 704.77,1177.24 697.67,1211.77 " fill="none" id="AdvertisementRepository-to-Advertisement" style="stroke:#181818;stroke-width:1.0;"/><polygon fill="#181818" points="696.63,1216.82,702.3713,1208.8176,697.6435,1211.9238,694.5373,1207.196,696.63,1216.82" style="stroke:#181818;stroke-width:1.0;"/></g><!--link Advertisement to Request--><g id="link_Advertisement_Request"><path codeLine="110" d="M663.46,1361.02 C655.16,1392.81 645.36,1430.35 636.91,1462.73 " fill="none" id="Advertisement-to-Request" style="stroke:#181818;stroke-width:1.0;"/><polygon fill="#181818" points="635.56,1467.89,641.693,1460.1838,636.8163,1463.0504,633.9497,1458.1737,635.56,1467.89" style="stroke:#181818;stroke-width:1.0;"/></g><!--link Request to Property--><g id="link_Request_Property"><path codeLine="112" d="M587.93,1612.02 C581.05,1628.82 573.38,1647.55 565.43,1666.97 " fill="none" id="Request-to-Property" style="stroke:#181818;stroke-width:1.0;"/><polygon fill="#181818" points="563.4,1671.93,570.5,1665.1044,565.2865,1667.2995,563.0913,1662.086,563.4,1671.93" style="stroke:#181818;stroke-width:1.0;"/></g><!--link ManageAdvertisementRepository to Property--><g id="link_ManageAdvertisementRepository_Property"><path codeLine="114" d="M434.43,701.32 C403.02,849.77 356,1072 356,1072 C356,1072 356,1072 356,1290 C356,1290 392,1612 392,1612 C392,1612 400.71,1635.07 412.82,1667.16 " fill="none" id="ManageAdvertisementRepository-to-Property" style="stroke:#181818;stroke-width:1.0;stroke-dasharray:7.0,7.0;"/><polygon fill="#181818" points="414.63,1671.96,415.189,1662.127,412.8619,1667.2831,407.7058,1664.956,414.63,1671.96" style="stroke:#181818;stroke-width:1.0;"/></g><!--link ManageAdvertisementRepository to Request--><g id="link_ManageAdvertisementRepository_Request"><path codeLine="115" d="M462,701.32 C462,936.57 462,1408 462,1408 C462,1408 493.97,1435.02 528.87,1464.52 " fill="none" id="ManageAdvertisementRepository-to-Request" style="stroke:#181818;stroke-width:1.0;stroke-dasharray:7.0,7.0;"/><polygon fill="#181818" points="532.7,1467.75,528.4148,1458.8823,528.8836,1464.5196,523.2462,1464.9885,532.7,1467.75" style="stroke:#181818;stroke-width:1.0;"/></g><!--SRC=[tLOzRzim4DtvAxZ5GUKWwDWXWEEuG8OsGTnsoa9BPva8HQeabSODyjzxb4X9j2J7o5WFWdKVlBjtzquqJroMJBD2gFG9Cfh1bbN2VbNIhlbVe9yloPa9DhHGKgKxhGgWLbT0Eat9qYUMmzhk1L0DgMKo5tq3isEP-iDbJhTCcBv6S0bsNm8jbTYxbtx4LgcqLQJdbGfcpC9QpJULXTjKoJhVIqBE16mjjOfgdkyipRXBXoj9IEr3bngOXKNs3Dfo0mL8B5VVQrMYOF_pbhw-dMQwH92q4W8qVIKKVvzETfYTUuSSx297gxxW1zPxjxsk3DPkp50JZXjgbgeek35ORAiprQRWDifeLcgUGa8P9fiWFiOkEIQ76j0epJADOHFwACkTiYhNhDmbL5R51ZIc1PbMgZ0z2RCxBtgKhVIUQUnLliR10DJ0xugNBlWD69vBvXgIO79ozL8gu-AYxuOr2IPKg2q-RGH4U0_bX_Ukw8IcxVzVJ5IkHWVkEMax-W0OZbkbEHZVjNaax8DwAmtESGgpS_ebCkerhmziQnArPbMKGkq1nhLniu_PXBgdRLGFYyZgpLV_ZKa4P9XG6DzYGZ-3WUXmW0DmSxhb0WVfUl-W1CmEyMyoc40jJcCAMZOk3mcbDGLRZlmVinuNzu0Hm3WU1oRKC6DzgBpRUdNZyrg0tQdiBVZ6cm1NTMrx4fUQqwC3Gizn2cvGEujZpkap4pmRH6N38yA47fsCkMlOqQDwFA_h2du1HneWy_8rVZ_manJXvbNrL3V0Ul3r0FR8hxTiHchncNZRS5OZp5IrmS_c0U2DBiemEh7H7ox-GIFRT0860HCVjIP8B79aYIKnSG923Ni2YmBKBP5enocluuZeW4fZEa-y4LN4DQzV1S9rr8lxst7FopSAbnFhM7WWTfJqedW_7z0qicbdBAPkDvDXhxRV7P-TP0N44Wi243m9t-kgGva5uuA2UmQiyTWIRqPBfZEyWdKlaTzQfPo9DQILTYrqjfQzH2PZhJnpwIWDrBXd4BcjJl4I0yIp8bGrSsKa8raaNRG45r-xS-j25k7jeEIaYPhKeMfUatVlRVFvrSaNiFUEwztjBYwk9Z-S7pbbOiKHCXMazesk7qSF6fgJwDRZO9hAOM0uKZ8PoR1lIav8Roh-SSz1veHyrBGs20kVXAtiX2rlJoYZjJsb8KsiVm00]--></g></svg>