<?xml version="1.0" encoding="UTF-8" standalone="no"?><svg xmlns="http://www.w3.org/2000/svg" xmlns:xlink="http://www.w3.org/1999/xlink" contentStyleType="text/css" height="2565px" preserveAspectRatio="none" style="width:1126px;height:2565px;background:#FFFFFF;" version="1.1" viewBox="0 0 1126 2565" width="1126px" zoomAndPan="magnify"><defs/><g><g id="cluster_##9"><rect fill="none" height="2552" rx="2.5" ry="2.5" style="stroke:#181818;stroke-width:1.0;" width="650" x="257" y="7"/></g><g id="elem_UC1"><ellipse cx="582.0543" cy="158.9109" fill="#F1F1F1" rx="172.5543" ry="36.9109" style="stroke:#181818;stroke-width:0.5;"/><text fill="#000000" font-family="sans-serif" font-size="20" lengthAdjust="spacing" textLength="306" x="429.0543" y="164.4694">UC1 - Consult List of Properties</text></g><g id="elem_UC2"><ellipse cx="582.0296" cy="643.8059" fill="#F1F1F1" rx="199.5296" ry="42.3059" style="stroke:#181818;stroke-width:0.5;"/><text fill="#000000" font-family="sans-serif" font-size="20" lengthAdjust="spacing" textLength="363" x="400.5296" y="649.3645">UC2 - Create Property Announcement</text></g><g id="elem_UC3"><ellipse cx="582.1484" cy="1622.1297" fill="#F1F1F1" rx="171.1484" ry="36.6297" style="stroke:#181818;stroke-width:0.5;"/><text fill="#000000" font-family="sans-serif" font-size="20" lengthAdjust="spacing" textLength="303" x="430.6484" y="1627.6883">UC3 - Register a new Employee</text></g><g id="elem_UC4"><ellipse cx="581.8684" cy="392.1737" fill="#F1F1F1" rx="258.8684" ry="54.1737" style="stroke:#181818;stroke-width:0.5;"/><text fill="#000000" font-family="sans-serif" font-size="20" lengthAdjust="spacing" textLength="486" x="338.8684" y="397.7323">UC4 - Request Announcement Choosing the Agent</text></g><g id="elem_UC5"><ellipse cx="581.8223" cy="1127.0645" fill="#F1F1F1" rx="143.3223" ry="31.0645" style="stroke:#181818;stroke-width:0.5;"/><text fill="#000000" font-family="sans-serif" font-size="20" lengthAdjust="spacing" textLength="242" x="457.8223" y="1133.9824">UC5 - Register new Store</text></g><g id="elem_UC6"><ellipse cx="581.9686" cy="1237.7937" fill="#F1F1F1" rx="211.9686" ry="44.7937" style="stroke:#181818;stroke-width:0.5;"/><text fill="#000000" font-family="sans-serif" font-size="20" lengthAdjust="spacing" textLength="389" x="387.4686" y="1243.3523">UC6 - Specify States, Districts and Cities</text></g><g id="elem_UC7"><ellipse cx="582.0979" cy="55.2196" fill="#F1F1F1" rx="149.0979" ry="32.2196" style="stroke:#181818;stroke-width:0.5;"/><text fill="#000000" font-family="sans-serif" font-size="20" lengthAdjust="spacing" textLength="255" x="451.6133" y="62.1314">UC7 - Registers as a client</text></g><g id="elem_UC8"><ellipse cx="581.855" cy="877.771" fill="#F1F1F1" rx="259.355" ry="54.271" style="stroke:#181818;stroke-width:0.5;"/><text fill="#000000" font-family="sans-serif" font-size="20" lengthAdjust="spacing" textLength="487" x="338.355" y="883.3296">UC8 - Validate and post an announcement request</text></g><g id="elem_UC9"><ellipse cx="581.8095" cy="1739.0619" fill="#F1F1F1" rx="215.8095" ry="45.5619" style="stroke:#181818;stroke-width:0.5;"/><text fill="#000000" font-family="sans-serif" font-size="20" lengthAdjust="spacing" textLength="397" x="383.3095" y="1744.6205">UC9 - Send a message to schedule a visit</text></g><g id="elem_UC10"><ellipse cx="582.0946" cy="1868.9189" fill="#F1F1F1" rx="235.0946" ry="49.4189" style="stroke:#181818;stroke-width:0.5;"/><text fill="#000000" font-family="sans-serif" font-size="20" lengthAdjust="spacing" textLength="437" x="363.5946" y="1874.4775">UC10 - Place an order to purchase a property</text></g><g id="elem_UC11"><ellipse cx="582.1562" cy="1013.8312" fill="#F1F1F1" rx="219.6562" ry="46.3312" style="stroke:#181818;stroke-width:0.5;"/><text fill="#000000" font-family="sans-serif" font-size="20" lengthAdjust="spacing" textLength="405" x="379.6562" y="1019.3898">UC11 - Accept or decline purchase orders</text></g><g id="elem_UC12"><ellipse cx="582.144" cy="1367.1288" fill="#F1F1F1" rx="233.644" ry="49.1288" style="stroke:#181818;stroke-width:0.5;"/><text fill="#000000" font-family="sans-serif" font-size="20" lengthAdjust="spacing" textLength="434" x="365.144" y="1372.6874">UC12 - Import CSV files from legacy systems</text></g><g id="elem_UC13"><ellipse cx="582.0783" cy="1501.0157" fill="#F1F1F1" rx="235.5783" ry="49.5157" style="stroke:#181818;stroke-width:0.5;"/><text fill="#000000" font-family="sans-serif" font-size="20" lengthAdjust="spacing" textLength="438" x="363.0783" y="1506.5742">UC13 - List employees working in every store</text></g><g id="elem_UC14"><ellipse cx="581.9031" cy="2354.0806" fill="#F1F1F1" rx="240.9031" ry="50.5806" style="stroke:#181818;stroke-width:0.5;"/><text fill="#000000" font-family="sans-serif" font-size="20" lengthAdjust="spacing" textLength="449" x="357.4031" y="2359.6392">UC14 - View the response to the visit schedule</text></g><g id="elem_UC15"><ellipse cx="582.1112" cy="266.8222" fill="#F1F1F1" rx="164.6112" ry="35.3222" style="stroke:#181818;stroke-width:0.5;"/><text fill="#000000" font-family="sans-serif" font-size="20" lengthAdjust="spacing" textLength="289" x="437.4176" y="272.4798">UC15 - List Booking Requests</text></g><g id="elem_UC16"><ellipse cx="582.0067" cy="523.9013" fill="#F1F1F1" rx="200.0067" ry="42.4013" style="stroke:#181818;stroke-width:0.5;"/><text fill="#000000" font-family="sans-serif" font-size="20" lengthAdjust="spacing" textLength="364" x="400.0067" y="529.4599">UC16 - Respond to Booking Requests</text></g><g id="elem_UC17"><ellipse cx="582.1127" cy="1983.9225" fill="#F1F1F1" rx="137.6127" ry="29.9225" style="stroke:#181818;stroke-width:0.5;"/><text fill="#000000" font-family="sans-serif" font-size="20" lengthAdjust="spacing" textLength="229" x="464.6127" y="1990.8405">UC16 - List deals made</text></g><g id="elem_UC18"><ellipse cx="581.9785" cy="2240.1957" fill="#F1F1F1" rx="128.9785" ry="28.1957" style="stroke:#181818;stroke-width:0.5;"/><text fill="#000000" font-family="sans-serif" font-size="20" lengthAdjust="spacing" textLength="209" x="474.4785" y="2247.1137">UC18 - Analyse deals</text></g><g id="elem_UC19"><ellipse cx="582.2154" cy="2113.2431" fill="#F1F1F1" rx="309.2154" ry="64.2431" style="stroke:#181818;stroke-width:0.5;"/><text fill="#000000" font-family="sans-serif" font-size="20" lengthAdjust="spacing" textLength="589" x="287.7154" y="2118.8017">UC19 - Divide all stores into two close subsets, by properties</text></g><g id="elem_UC20"><ellipse cx="582.2209" cy="2491.2442" fill="#F1F1F1" rx="246.7209" ry="51.7442" style="stroke:#181818;stroke-width:0.5;"/><text fill="#000000" font-family="sans-serif" font-size="20" lengthAdjust="spacing" textLength="461" x="351.7209" y="2496.8028">UC20 - Accept or decline appointment requests</text></g><g id="elem_UC21"><ellipse cx="582.0948" cy="755.119" fill="#F1F1F1" rx="153.5948" ry="33.119" style="stroke:#181818;stroke-width:0.5;"/><text fill="#000000" font-family="sans-serif" font-size="20" lengthAdjust="spacing" textLength="265" x="447.491" y="761.6672">UC21 - Register visits done</text></g><!--entity Unregistered User--><g id="elem_Unregistered User"><ellipse cx="109.5" cy="73.5" fill="#F1F1F1" rx="8" ry="8" style="stroke:#181818;stroke-width:0.5;"/><path d="M109.5,81.5 L109.5,108.5 M96.5,89.5 L122.5,89.5 M109.5,108.5 L96.5,123.5 M109.5,108.5 L122.5,123.5 " fill="none" style="stroke:#181818;stroke-width:0.5;"/><text fill="#000000" font-family="sans-serif" font-size="20" lengthAdjust="spacing" textLength="172" x="23.5" y="144.3359">Unregistered User</text></g><!--entity Agent--><g id="elem_Agent"><ellipse cx="109.5" cy="666.5" fill="#F1F1F1" rx="8" ry="8" style="stroke:#181818;stroke-width:0.5;"/><path d="M109.5,674.5 L109.5,701.5 M96.5,682.5 L122.5,682.5 M109.5,701.5 L96.5,716.5 M109.5,701.5 L122.5,716.5 " fill="none" style="stroke:#181818;stroke-width:0.5;"/><text fill="#000000" font-family="sans-serif" font-size="20" lengthAdjust="spacing" textLength="56" x="81.5" y="737.3359">Agent</text></g><!--entity System Administrator--><g id="elem_System Administrator"><ellipse cx="109.5" cy="1269.5" fill="#F1F1F1" rx="8" ry="8" style="stroke:#181818;stroke-width:0.5;"/><path d="M109.5,1277.5 L109.5,1304.5 M96.5,1285.5 L122.5,1285.5 M109.5,1304.5 L96.5,1319.5 M109.5,1304.5 L122.5,1319.5 " fill="none" style="stroke:#181818;stroke-width:0.5;"/><text fill="#000000" font-family="sans-serif" font-size="20" lengthAdjust="spacing" textLength="207" x="6" y="1340.3359">System Administrator</text></g><!--entity Owner--><g id="elem_Owner"><ellipse cx="1035" cy="358.5" fill="#F1F1F1" rx="8" ry="8" style="stroke:#181818;stroke-width:0.5;"/><path d="M1035,366.5 L1035,393.5 M1022,374.5 L1048,374.5 M1035,393.5 L1022,408.5 M1035,393.5 L1048,408.5 " fill="none" style="stroke:#181818;stroke-width:0.5;"/><text fill="#000000" font-family="sans-serif" font-size="20" lengthAdjust="spacing" textLength="62" x="1004" y="429.3359">Owner</text></g><!--entity Client--><g id="elem_Client"><ellipse cx="109.5" cy="2077.5" fill="#F1F1F1" rx="8" ry="8" style="stroke:#181818;stroke-width:0.5;"/><path d="M109.5,2085.5 L109.5,2112.5 M96.5,2093.5 L122.5,2093.5 M109.5,2112.5 L96.5,2127.5 M109.5,2112.5 L122.5,2127.5 " fill="none" style="stroke:#181818;stroke-width:0.5;"/><text fill="#000000" font-family="sans-serif" font-size="20" lengthAdjust="spacing" textLength="56" x="81.5" y="2148.3359">Client</text></g><!--entity Network Manager--><g id="elem_Network Manager"><ellipse cx="1035" cy="1950.5" fill="#F1F1F1" rx="8" ry="8" style="stroke:#181818;stroke-width:0.5;"/><path d="M1035,1958.5 L1035,1985.5 M1022,1966.5 L1048,1966.5 M1035,1985.5 L1022,2000.5 M1035,1985.5 L1048,2000.5 " fill="none" style="stroke:#181818;stroke-width:0.5;"/><text fill="#000000" font-family="sans-serif" font-size="20" lengthAdjust="spacing" textLength="168" x="951" y="2021.3359">Network Manager</text></g><!--entity Store Manager--><g id="elem_Store Manager"><ellipse cx="1035" cy="2206.5" fill="#F1F1F1" rx="8" ry="8" style="stroke:#181818;stroke-width:0.5;"/><path d="M1035,2214.5 L1035,2241.5 M1022,2222.5 L1048,2222.5 M1035,2241.5 L1022,2256.5 M1035,2241.5 L1048,2256.5 " fill="none" style="stroke:#181818;stroke-width:0.5;"/><text fill="#000000" font-family="sans-serif" font-size="20" lengthAdjust="spacing" textLength="137" x="966.5" y="2277.3359">Store Manager</text></g><!--link Unregistered User to UC1--><g id="link_Unregistered User_UC1"><path d="M195.7,116.42 C259.06,123.42 347.34,133.18 423.41,141.58 " fill="none" id="Unregistered User-to-UC1" style="stroke:#181818;stroke-width:1.0;"/><polygon fill="#181818" points="428.4,142.13,419.8889,137.174,423.4297,141.5857,419.018,145.1265,428.4,142.13" style="stroke:#181818;stroke-width:1.0;"/></g><!--link Unregistered User to UC7--><g id="link_Unregistered User_UC7"><path d="M195.7,97.58 C264.76,89.95 363.42,79.05 443.62,70.18 " fill="none" id="Unregistered User-to-UC7" style="stroke:#181818;stroke-width:1.0;"/><polygon fill="#181818" points="448.87,69.6,439.4805,66.6272,443.9011,70.1569,440.3715,74.5775,448.87,69.6" style="stroke:#181818;stroke-width:1.0;"/></g><!--link Agent to UC2--><g id="link_Agent_UC2"><path d="M137.83,696.75 C188.94,690.66 302.83,677.11 402.35,665.26 " fill="none" id="Agent-to-UC2" style="stroke:#181818;stroke-width:1.0;"/><polygon fill="#181818" points="407.38,664.66,397.9728,661.7437,402.4145,665.2467,398.9115,669.6884,407.38,664.66" style="stroke:#181818;stroke-width:1.0;"/></g><!--link Agent to UC8--><g id="link_Agent_UC8"><path d="M137.57,726.28 C163.91,750.37 206.13,785.2 249,805 C285.56,821.88 326.21,834.95 366.18,845.03 " fill="none" id="Agent-to-UC8" style="stroke:#181818;stroke-width:1.0;"/><polygon fill="#181818" points="371.05,846.25,363.2889,840.1866,366.1993,845.0373,361.3486,847.9477,371.05,846.25" style="stroke:#181818;stroke-width:1.0;"/></g><!--link Agent to UC11--><g id="link_Agent_UC11"><path d="M121.77,742.48 C139.14,799.22 178.12,898.57 249,950 C282.9,974.6 323.69,990.45 364.9,1000.53 " fill="none" id="Agent-to-UC11" style="stroke:#181818;stroke-width:1.0;"/><polygon fill="#181818" points="369.93,1001.73,362.102,995.7532,365.0661,1000.5713,360.248,1003.5354,369.93,1001.73" style="stroke:#181818;stroke-width:1.0;"/></g><!--link Agent to UC15--><g id="link_Agent_UC15"><path d="M112.54,657.96 C118.83,578.43 144.46,406.24 249,320 C295.11,281.96 357.46,265.87 415.67,260.26 " fill="none" id="Agent-to-UC15" style="stroke:#181818;stroke-width:1.0;"/><polygon fill="#181818" points="420.93,259.78,411.6015,256.6209,415.951,260.2378,412.3341,264.5873,420.93,259.78" style="stroke:#181818;stroke-width:1.0;"/></g><!--link Agent to UC16--><g id="link_Agent_UC16"><path d="M137.61,669.71 C163.49,642.79 204.97,604.62 249,584 C293.1,563.34 343.58,549.78 391.64,540.87 " fill="none" id="Agent-to-UC16" style="stroke:#181818;stroke-width:1.0;"/><polygon fill="#181818" points="396.58,539.97,387.0067,537.6567,391.6618,540.8707,388.4478,545.5259,396.58,539.97" style="stroke:#181818;stroke-width:1.0;"/></g><!--link Agent to UC21--><g id="link_Agent_UC21"><path d="M137.83,703.19 C195.84,709.98 334.75,726.21 441.71,738.72 " fill="none" id="Agent-to-UC21" style="stroke:#181818;stroke-width:1.0;"/><polygon fill="#181818" points="446.78,739.31,438.3098,734.2844,441.8143,738.725,437.3738,742.2295,446.78,739.31" style="stroke:#181818;stroke-width:1.0;"/></g><!--link System Administrator to UC3--><g id="link_System Administrator_UC3"><path d="M119.97,1345.24 C135.75,1405.12 173.45,1513.46 249,1568 C294.07,1600.53 351.52,1616.34 405.91,1623.36 " fill="none" id="System Administrator-to-UC3" style="stroke:#181818;stroke-width:1.0;"/><polygon fill="#181818" points="411.16,1624.01,402.7202,1618.9336,406.198,1623.3951,401.7364,1626.8728,411.16,1624.01" style="stroke:#181818;stroke-width:1.0;"/></g><!--link System Administrator to UC5--><g id="link_System Administrator_UC5"><path d="M144.01,1260.74 C169.54,1231.68 207.33,1194.86 249,1175 C305.89,1147.88 374,1135.12 433.68,1129.41 " fill="none" id="System Administrator-to-UC5" style="stroke:#181818;stroke-width:1.0;"/><polygon fill="#181818" points="438.7,1128.95,429.3724,1125.7885,433.7209,1129.4065,430.1028,1133.7551,438.7,1128.95" style="stroke:#181818;stroke-width:1.0;"/></g><!--link System Administrator to UC6--><g id="link_System Administrator_UC6"><path d="M213.17,1288.82 C267.35,1281.33 335.46,1271.92 398.29,1263.24 " fill="none" id="System Administrator-to-UC6" style="stroke:#181818;stroke-width:1.0;"/><polygon fill="#181818" points="403.58,1262.51,394.1168,1259.7809,398.6272,1263.1951,395.213,1267.7055,403.58,1262.51" style="stroke:#181818;stroke-width:1.0;"/></g><!--link System Administrator to UC12--><g id="link_System Administrator_UC12"><path d="M213.17,1316.97 C262.25,1323.64 322.77,1331.87 380.44,1339.72 " fill="none" id="System Administrator-to-UC12" style="stroke:#181818;stroke-width:1.0;"/><polygon fill="#181818" points="385.65,1340.43,377.2683,1335.2582,380.6952,1339.7589,376.1946,1343.1858,385.65,1340.43" style="stroke:#181818;stroke-width:1.0;"/></g><!--reverse link UC4 to Owner--><g id="link_UC4_Owner"><path d="M846.47,392 C910.09,392 969.55,392 1003.82,392 " fill="none" id="UC4-backto-Owner" style="stroke:#181818;stroke-width:1.0;"/><polygon fill="#181818" points="841.1,392,850.1,396,846.1,392,850.1,388,841.1,392" style="stroke:#181818;stroke-width:1.0;"/></g><!--link Client to UC9--><g id="link_Client_UC9"><path d="M116.75,2068.98 C129.14,2001.47 163.42,1869.59 249,1802 C282.29,1775.71 323.27,1759.24 364.92,1749.15 " fill="none" id="Client-to-UC9" style="stroke:#181818;stroke-width:1.0;"/><polygon fill="#181818" points="370.01,1747.95,360.3343,1746.1114,365.1422,1749.092,362.1615,1753.8999,370.01,1747.95" style="stroke:#181818;stroke-width:1.0;"/></g><!--link Client to UC10--><g id="link_Client_UC10"><path d="M132.25,2068.92 C155.52,2028.29 196.32,1968.31 249,1936 C283.06,1915.11 322.43,1900.59 361.89,1890.53 " fill="none" id="Client-to-UC10" style="stroke:#181818;stroke-width:1.0;"/><polygon fill="#181818" points="367.2,1889.2,357.5033,1887.4754,362.3459,1890.3992,359.4221,1895.2419,367.2,1889.2" style="stroke:#181818;stroke-width:1.0;"/></g><!--link Client to UC14--><g id="link_Client_UC14"><path d="M132.57,2153.15 C155.95,2193.49 196.72,2252.82 249,2285 C282.47,2305.6 321.05,2320.15 359.82,2330.4 " fill="none" id="Client-to-UC14" style="stroke:#181818;stroke-width:1.0;"/><polygon fill="#181818" points="365.04,2331.75,357.3338,2325.617,360.2004,2330.4937,355.3237,2333.3603,365.04,2331.75" style="stroke:#181818;stroke-width:1.0;"/></g><!--link Client to UC20--><g id="link_Client_UC20"><path d="M116.8,2153.11 C129.26,2220.81 163.63,2353.2 249,2422 C277.07,2444.62 310.71,2460.37 345.64,2471.24 " fill="none" id="Client-to-UC20" style="stroke:#181818;stroke-width:1.0;"/><polygon fill="#181818" points="350.81,2472.81,343.3653,2466.362,346.0268,2471.3536,341.0351,2474.0151,350.81,2472.81" style="stroke:#181818;stroke-width:1.0;"/></g><!--reverse link UC13 to Network Manager--><g id="link_UC13_Network Manager"><path d="M815.86,1514.26 C852.39,1525.32 887.2,1542.32 915,1568 C970.46,1619.22 1012.19,1846.46 1027.56,1941.74 " fill="none" id="UC13-backto-Network Manager" style="stroke:#181818;stroke-width:1.0;"/><polygon fill="#181818" points="810.93,1512.81,818.4325,1519.1906,815.7261,1514.2231,820.6936,1511.5168,810.93,1512.81" style="stroke:#181818;stroke-width:1.0;"/></g><!--reverse link UC17 to Network Manager--><g id="link_UC17_Network Manager"><path d="M724.87,1984 C799.25,1984 887.77,1984 950.98,1984 " fill="none" id="UC17-backto-Network Manager" style="stroke:#181818;stroke-width:1.0;"/><polygon fill="#181818" points="719.54,1984,728.54,1988,724.54,1984,728.54,1980,719.54,1984" style="stroke:#181818;stroke-width:1.0;"/></g><!--reverse link UC19 to Network Manager--><g id="link_UC19_Network Manager"><path d="M797.16,2064.59 C836.61,2054.4 877.25,2043.06 915,2031 C926.74,2027.25 938.99,2022.92 950.97,2018.43 " fill="none" id="UC19-backto-Network Manager" style="stroke:#181818;stroke-width:1.0;"/><polygon fill="#181818" points="791.85,2065.95,801.5618,2067.5872,796.6931,2064.7071,799.5732,2059.8383,791.85,2065.95" style="stroke:#181818;stroke-width:1.0;"/></g><!--reverse link UC18 to Store Manager--><g id="link_UC18_Store Manager"><path d="M716.42,2240 C798.6,2240 900.48,2240 966.34,2240 " fill="none" id="UC18-backto-Store Manager" style="stroke:#181818;stroke-width:1.0;"/><polygon fill="#181818" points="711.03,2240,720.03,2244,716.03,2240,720.03,2236,711.03,2240" style="stroke:#181818;stroke-width:1.0;"/></g><!--SRC=[XLLjQzim4FwUNt7qymAnswG9Z46MRZ3OIrbelglonH6H9K-I6xon_xwJBBkkxQuX17BtF7Udk-SaUnQgP8OLKlCpPf3XaLNIVTRAxSLlX7Gnioq4IiRFBCUzgoM2GUwOoYNEPXAF3fm68_AJWqnubz1g1lHXt6a3Lm_AO2wiGqD97YoQgxvtcwDoBopxch05RBD2AA8PHjONW1yNDGYoas8OvJkwYpPd-COKrVqIlgTVVFRCklF0dm2hB79caKhV9J27dLQM6WDVgHhGHxWtkaJZ1DehO1O8D6IbdcMGEMp1DMoLqfNYMFXA6ruwv5qJxsTi5Z1GU85FHIbrZHWfrqFAJQ3ygf1gwwU0tKbhArGExeJGTBa9SJCCiUndzJb3Vo9wEKIl2BqlaOjZJK0wedq7TtvEWZiBJ6Mm4xtUh8Rysruswp4CU3E-Xd0x9Ao9S61IPBwTFdwfwQnCqRTtNDFq80PP3uDiVDL8P0O5Mak3zwgr_8HPHNDdy2IiQDcRaGeMHB-NZFi2G9kC6aNqiZByv24CoZZcLX6BKGYlf2tdM9A632qR7LhXSuWGj1FKI569bzINejI69hi_m558j70qkW29EUCrsB0sNOIHjX8lhY1XZ9Aou3V4IqGem2Sq5AGt-MIajSIBxI188LvJ1cr9cn4QwV-73dOjROECr9Oispe-QXsoH_bsfOyabwo2Pdowp6TxZRYQ98PS6J9feM1PLzX8PuaNsbOnMTF_W6-X8pKbNavtuabaD7ifcxPPQgDlnKMJe3K1RVLeqT5wFDQjFdftnaXawM9I8QmiDGNkYxoDaOvKbYRzNGuJiP1frPuwJMQ1Cd4fmtp-eRlBNlVVnW3nHccCwOHjFM6BkXuObrF6rLGQghunJxuH4NNzDcJvDcJrDeHsB83y9Vn-FkyUfeOPtwI8tKmPuoqnjDvCMMdMCHajSiWs-S9vOV_VlNd5tVhNZN_uHlxz1m00]--></g></svg>