<?xml version="1.0" encoding="UTF-8" standalone="no"?><svg xmlns="http://www.w3.org/2000/svg" xmlns:xlink="http://www.w3.org/1999/xlink" contentStyleType="text/css" height="534px" preserveAspectRatio="none" style="width:575px;height:534px;background:#FFFFFF;" version="1.1" viewBox="0 0 575 534" width="575px" zoomAndPan="magnify"><defs/><g><text fill="#000000" font-family="sans-serif" font-size="14" font-weight="bold" lengthAdjust="spacing" textLength="300" x="136.5" y="28.5352">System Sequence Diagram (SSD) - US 016</text><rect fill="#FFFFFF" height="301.4375" style="stroke:#181818;stroke-width:1.0;" width="10" x="31" y="136.043"/><rect fill="#FFFFFF" height="37.5547" style="stroke:#181818;stroke-width:1.0;" width="10" x="520" y="165.5977"/><rect fill="#FFFFFF" height="37.5547" style="stroke:#181818;stroke-width:1.0;" width="10" x="520" y="240.707"/><rect fill="#FFFFFF" height="37.5547" style="stroke:#181818;stroke-width:1.0;" width="10" x="520" y="315.8164"/><rect fill="#FFFFFF" height="46.5547" style="stroke:#181818;stroke-width:1.0;" width="10" x="520" y="390.9258"/><line style="stroke:#181818;stroke-width:0.5;stroke-dasharray:5.0,5.0;" x1="36" x2="36" y1="126.043" y2="446.4805"/><line style="stroke:#181818;stroke-width:0.5;stroke-dasharray:5.0,5.0;" x1="525" x2="525" y1="126.043" y2="446.4805"/><text fill="#000000" font-family="sans-serif" font-size="20" lengthAdjust="spacing" textLength="56" x="5" y="121.8242">Agent</text><ellipse cx="36" cy="50.9883" fill="#E3E3E3" rx="8" ry="8" style="stroke:#181818;stroke-width:0.5;"/><path d="M36,58.9883 L36,85.9883 M23,66.9883 L49,66.9883 M36,85.9883 L23,100.9883 M36,85.9883 L49,100.9883 " fill="none" style="stroke:#181818;stroke-width:0.5;"/><text fill="#000000" font-family="sans-serif" font-size="20" lengthAdjust="spacing" textLength="56" x="5" y="464.8164">Agent</text><ellipse cx="36" cy="477.5352" fill="#E3E3E3" rx="8" ry="8" style="stroke:#181818;stroke-width:0.5;"/><path d="M36,485.5352 L36,512.5352 M23,493.5352 L49,493.5352 M36,512.5352 L23,527.5352 M36,512.5352 L49,527.5352 " fill="none" style="stroke:#181818;stroke-width:0.5;"/><rect fill="#E3E3E3" height="37.5547" rx="2.5" ry="2.5" style="stroke:#181818;stroke-width:0.5;" width="88" x="481" y="87.4883"/><text fill="#000000" font-family="sans-serif" font-size="20" lengthAdjust="spacing" textLength="74" x="488" y="113.8242">:System</text><rect fill="#E3E3E3" height="37.5547" rx="2.5" ry="2.5" style="stroke:#181818;stroke-width:0.5;" width="88" x="481" y="445.4805"/><text fill="#000000" font-family="sans-serif" font-size="20" lengthAdjust="spacing" textLength="74" x="488" y="471.8164">:System</text><rect fill="#FFFFFF" height="301.4375" style="stroke:#181818;stroke-width:1.0;" width="10" x="31" y="136.043"/><rect fill="#FFFFFF" height="37.5547" style="stroke:#181818;stroke-width:1.0;" width="10" x="520" y="165.5977"/><rect fill="#FFFFFF" height="37.5547" style="stroke:#181818;stroke-width:1.0;" width="10" x="520" y="240.707"/><rect fill="#FFFFFF" height="37.5547" style="stroke:#181818;stroke-width:1.0;" width="10" x="520" y="315.8164"/><rect fill="#FFFFFF" height="46.5547" style="stroke:#181818;stroke-width:1.0;" width="10" x="520" y="390.9258"/><polygon fill="#181818" points="508,161.5977,518,165.5977,508,169.5977,512,165.5977" style="stroke:#181818;stroke-width:1.0;"/><line style="stroke:#181818;stroke-width:1.0;" x1="41" x2="514" y1="165.5977" y2="165.5977"/><text fill="#000000" font-family="sans-serif" font-size="20" font-weight="bold" lengthAdjust="spacing" textLength="13" x="48" y="159.3789">1</text><text fill="#000000" font-family="sans-serif" font-size="20" lengthAdjust="spacing" textLength="400" x="65" y="159.3789">asks to list the property booking requests</text><polygon fill="#181818" points="52,199.1523,42,203.1523,52,207.1523,48,203.1523" style="stroke:#181818;stroke-width:1.0;"/><line style="stroke:#181818;stroke-width:1.0;stroke-dasharray:2.0,2.0;" x1="46" x2="524" y1="203.1523" y2="203.1523"/><text fill="#000000" font-family="sans-serif" font-size="20" font-weight="bold" lengthAdjust="spacing" textLength="13" x="58" y="196.9336">2</text><text fill="#000000" font-family="sans-serif" font-size="20" lengthAdjust="spacing" textLength="346" x="75" y="196.9336">requests beginning and ending date</text><polygon fill="#181818" points="508,236.707,518,240.707,508,244.707,512,240.707" style="stroke:#181818;stroke-width:1.0;"/><line style="stroke:#181818;stroke-width:1.0;" x1="41" x2="514" y1="240.707" y2="240.707"/><text fill="#000000" font-family="sans-serif" font-size="20" font-weight="bold" lengthAdjust="spacing" textLength="13" x="48" y="234.4883">3</text><text fill="#000000" font-family="sans-serif" font-size="20" lengthAdjust="spacing" textLength="341" x="65" y="234.4883">submits beginning and ending date</text><polygon fill="#181818" points="52,274.2617,42,278.2617,52,282.2617,48,278.2617" style="stroke:#181818;stroke-width:1.0;"/><line style="stroke:#181818;stroke-width:1.0;stroke-dasharray:2.0,2.0;" x1="46" x2="524" y1="278.2617" y2="278.2617"/><text fill="#000000" font-family="sans-serif" font-size="20" font-weight="bold" lengthAdjust="spacing" textLength="13" x="58" y="272.043">4</text><text fill="#000000" font-family="sans-serif" font-size="20" lengthAdjust="spacing" textLength="438" x="75" y="272.043">shows booking request list for specific period</text><polygon fill="#181818" points="508,311.8164,518,315.8164,508,319.8164,512,315.8164" style="stroke:#181818;stroke-width:1.0;"/><line style="stroke:#181818;stroke-width:1.0;" x1="41" x2="514" y1="315.8164" y2="315.8164"/><text fill="#000000" font-family="sans-serif" font-size="20" font-weight="bold" lengthAdjust="spacing" textLength="13" x="48" y="309.5977">5</text><text fill="#000000" font-family="sans-serif" font-size="20" lengthAdjust="spacing" textLength="245" x="65" y="309.5977">selects a booking request</text><polygon fill="#181818" points="52,349.3711,42,353.3711,52,357.3711,48,353.3711" style="stroke:#181818;stroke-width:1.0;"/><line style="stroke:#181818;stroke-width:1.0;" x1="46" x2="524" y1="353.3711" y2="353.3711"/><text fill="#000000" font-family="sans-serif" font-size="20" font-weight="bold" lengthAdjust="spacing" textLength="13" x="58" y="347.1523">6</text><text fill="#000000" font-family="sans-serif" font-size="20" lengthAdjust="spacing" textLength="285" x="75" y="347.1523">requests data (emailMessage)</text><polygon fill="#181818" points="508,386.9258,518,390.9258,508,394.9258,512,390.9258" style="stroke:#181818;stroke-width:1.0;"/><line style="stroke:#181818;stroke-width:1.0;" x1="41" x2="514" y1="390.9258" y2="390.9258"/><text fill="#000000" font-family="sans-serif" font-size="20" font-weight="bold" lengthAdjust="spacing" textLength="13" x="48" y="384.707">7</text><text fill="#000000" font-family="sans-serif" font-size="20" lengthAdjust="spacing" textLength="224" x="65" y="384.707">types and submits data</text><polygon fill="#181818" points="52,424.4805,42,428.4805,52,432.4805,48,428.4805" style="stroke:#181818;stroke-width:1.0;"/><line style="stroke:#181818;stroke-width:1.0;stroke-dasharray:2.0,2.0;" x1="46" x2="519" y1="428.4805" y2="428.4805"/><text fill="#000000" font-family="sans-serif" font-size="20" font-weight="bold" lengthAdjust="spacing" textLength="13" x="58" y="422.2617">8</text><text fill="#000000" font-family="sans-serif" font-size="20" lengthAdjust="spacing" textLength="256" x="75" y="422.2617">displays operation success</text><!--SRC=[bPB1JiCm343l-Gfhf-qm2JXms049QN3ZLF41Nk9rLjCan2vJ-NhIRXrZ6aBBoLNivsStqd18cB7rqJRamD4MEw-lCMZ5NmGFTqQc56XZY7QNOqkWkQEpcuIsmPegxJr19giOQd-U83jqSS-XXYrw8MEKjQHMlIYrKD57Hy4Ih1dh8NrULUi5BE6zWhlxHsEmqnYwTaEvn5PZXjbpJK5dW08lRVAn9pAbbRBbX45XjZgmnun3E9Ro9ohzb1WeP_g2vTDaj2fbZO16y2mAkYD8EIRAsiCcncQO90_MeZ8oJkYf5npF4RWix5EVrQaMDbHp20CEWmCARWXT0Oq0HrUvLuMbsxJyB_4MpyBSnRrS3dnOoRRy14baUSiMoc8ukjkLoPUt8e2NBVvMdJIlRxECYJ2d5jc_aKXvaekRfRHF9EFkfeqErF-DVYivbkIn5nWU3Ih7K73M5YbZlW40]--></g></svg>