<?xml version="1.0" encoding="UTF-8" standalone="no"?><svg xmlns="http://www.w3.org/2000/svg" xmlns:xlink="http://www.w3.org/1999/xlink" contentStyleType="text/css" height="752px" preserveAspectRatio="none" style="width:1142px;height:752px;background:#FFFFFF;" version="1.1" viewBox="0 0 1142 752" width="1142px" zoomAndPan="magnify"><defs/><g><text fill="#000000" font-family="sans-serif" font-size="14" font-weight="bold" lengthAdjust="spacing" textLength="231" x="457" y="28.5352">System Sequence Diagram (SSD)</text><rect fill="#FFFFFF" height="519.875" style="stroke:#181818;stroke-width:1.0;" width="10" x="56" y="136.043"/><rect fill="#FFFFFF" height="61.1094" style="stroke:#181818;stroke-width:1.0;" width="10" x="1067" y="165.5977"/><rect fill="#FFFFFF" height="37.5547" style="stroke:#181818;stroke-width:1.0;" width="10" x="1067" y="264.2617"/><rect fill="#FFFFFF" height="102.2188" style="stroke:#181818;stroke-width:1.0;" width="10" x="1067" y="339.3711"/><rect fill="#FFFFFF" height="78.6641" style="stroke:#181818;stroke-width:1.0;" width="10" x="1067" y="479.1445"/><rect fill="#FFFFFF" height="51.5547" style="stroke:#181818;stroke-width:1.0;" width="10" x="1067" y="595.3633"/><rect fill="none" height="255.9922" style="stroke:#000000;stroke-width:1.5;" width="1126" x="10" y="354.3711"/><rect fill="none" height="109.2188" style="stroke:#000000;stroke-width:1.5;" width="1106" x="20" y="494.1445"/><line style="stroke:#181818;stroke-width:0.5;stroke-dasharray:5.0,5.0;" x1="61" x2="61" y1="126.043" y2="664.918"/><line style="stroke:#181818;stroke-width:0.5;stroke-dasharray:5.0,5.0;" x1="1072" x2="1072" y1="126.043" y2="664.918"/><text fill="#000000" font-family="sans-serif" font-size="20" lengthAdjust="spacing" textLength="56" x="30" y="121.8242">Agent</text><ellipse cx="61" cy="50.9883" fill="#E3E3E3" rx="8" ry="8" style="stroke:#181818;stroke-width:0.5;"/><path d="M61,58.9883 L61,85.9883 M48,66.9883 L74,66.9883 M61,85.9883 L48,100.9883 M61,85.9883 L74,100.9883 " fill="none" style="stroke:#181818;stroke-width:0.5;"/><text fill="#000000" font-family="sans-serif" font-size="20" lengthAdjust="spacing" textLength="56" x="30" y="683.2539">Agent</text><ellipse cx="61" cy="695.9727" fill="#E3E3E3" rx="8" ry="8" style="stroke:#181818;stroke-width:0.5;"/><path d="M61,703.9727 L61,730.9727 M48,711.9727 L74,711.9727 M61,730.9727 L48,745.9727 M61,730.9727 L74,745.9727 " fill="none" style="stroke:#181818;stroke-width:0.5;"/><rect fill="#E3E3E3" height="37.5547" rx="2.5" ry="2.5" style="stroke:#181818;stroke-width:0.5;" width="88" x="1028" y="87.4883"/><text fill="#000000" font-family="sans-serif" font-size="20" lengthAdjust="spacing" textLength="74" x="1035" y="113.8242">:System</text><rect fill="#E3E3E3" height="37.5547" rx="2.5" ry="2.5" style="stroke:#181818;stroke-width:0.5;" width="88" x="1028" y="663.918"/><text fill="#000000" font-family="sans-serif" font-size="20" lengthAdjust="spacing" textLength="74" x="1035" y="690.2539">:System</text><rect fill="#FFFFFF" height="519.875" style="stroke:#181818;stroke-width:1.0;" width="10" x="56" y="136.043"/><rect fill="#FFFFFF" height="61.1094" style="stroke:#181818;stroke-width:1.0;" width="10" x="1067" y="165.5977"/><rect fill="#FFFFFF" height="37.5547" style="stroke:#181818;stroke-width:1.0;" width="10" x="1067" y="264.2617"/><rect fill="#FFFFFF" height="102.2188" style="stroke:#181818;stroke-width:1.0;" width="10" x="1067" y="339.3711"/><rect fill="#FFFFFF" height="78.6641" style="stroke:#181818;stroke-width:1.0;" width="10" x="1067" y="479.1445"/><rect fill="#FFFFFF" height="51.5547" style="stroke:#181818;stroke-width:1.0;" width="10" x="1067" y="595.3633"/><polygon fill="#181818" points="1055,161.5977,1065,165.5977,1055,169.5977,1059,165.5977" style="stroke:#181818;stroke-width:1.0;"/><line style="stroke:#181818;stroke-width:1.0;" x1="66" x2="1061" y1="165.5977" y2="165.5977"/><text fill="#000000" font-family="sans-serif" font-size="20" font-weight="bold" lengthAdjust="spacing" textLength="13" x="73" y="159.3789">1</text><text fill="#000000" font-family="sans-serif" font-size="20" lengthAdjust="spacing" textLength="426" x="90" y="159.3789">Asks to create a new property advertisement</text><polygon fill="#181818" points="77,222.707,67,226.707,77,230.707,73,226.707" style="stroke:#181818;stroke-width:1.0;"/><line style="stroke:#181818;stroke-width:1.0;stroke-dasharray:2.0,2.0;" x1="71" x2="1071" y1="226.707" y2="226.707"/><text fill="#000000" font-family="sans-serif" font-size="20" font-weight="bold" lengthAdjust="spacing" textLength="13" x="83" y="208.7109">2</text><text fill="#000000" font-family="sans-serif" font-size="20" lengthAdjust="spacing" textLength="935" x="100" y="196.9336">Shows list of agents and Advertisement's selected data (Type of Property,type of business, type of</text><text fill="#000000" font-family="sans-serif" font-size="20" lengthAdjust="spacing" textLength="390" x="106" y="220.4883">commission)  and asks to select the data</text><polygon fill="#181818" points="1055,260.2617,1065,264.2617,1055,268.2617,1059,264.2617" style="stroke:#181818;stroke-width:1.0;"/><line style="stroke:#181818;stroke-width:1.0;" x1="66" x2="1061" y1="264.2617" y2="264.2617"/><text fill="#000000" font-family="sans-serif" font-size="20" font-weight="bold" lengthAdjust="spacing" textLength="13" x="73" y="258.043">3</text><text fill="#000000" font-family="sans-serif" font-size="20" lengthAdjust="spacing" textLength="202" x="90" y="258.043">Selects data required</text><polygon fill="#181818" points="77,297.8164,67,301.8164,77,305.8164,73,301.8164" style="stroke:#181818;stroke-width:1.0;"/><line style="stroke:#181818;stroke-width:1.0;stroke-dasharray:2.0,2.0;" x1="71" x2="1071" y1="301.8164" y2="301.8164"/><text fill="#000000" font-family="sans-serif" font-size="20" font-weight="bold" lengthAdjust="spacing" textLength="13" x="83" y="295.5977">4</text><text fill="#000000" font-family="sans-serif" font-size="20" lengthAdjust="spacing" textLength="960" x="100" y="295.5977">Requests data(price, area, distance to city center, address, photographs(linkURI), commission value)</text><polygon fill="#181818" points="1055,335.3711,1065,339.3711,1055,343.3711,1059,339.3711" style="stroke:#181818;stroke-width:1.0;"/><line style="stroke:#181818;stroke-width:1.0;" x1="66" x2="1061" y1="339.3711" y2="339.3711"/><text fill="#000000" font-family="sans-serif" font-size="20" font-weight="bold" lengthAdjust="spacing" textLength="13" x="73" y="333.1523">5</text><text fill="#000000" font-family="sans-serif" font-size="20" lengthAdjust="spacing" textLength="207" x="90" y="333.1523">Types requested data</text><path d="M10,354.3711 L82,354.3711 L82,369.9258 L72,379.9258 L10,379.9258 L10,354.3711 " fill="#EEEEEE" style="stroke:#000000;stroke-width:1.5;"/><rect fill="none" height="255.9922" style="stroke:#000000;stroke-width:1.5;" width="1126" x="10" y="354.3711"/><text fill="#000000" font-family="sans-serif" font-size="20" font-weight="bold" lengthAdjust="spacing" textLength="27" x="25" y="374.707">alt</text><text fill="#000000" font-family="sans-serif" font-size="20" font-weight="bold" lengthAdjust="spacing" textLength="405" x="97" y="375.707">[typeOfProperty = House || Apartment]</text><polygon fill="#181818" points="77,437.5898,67,441.5898,77,445.5898,73,441.5898" style="stroke:#181818;stroke-width:1.0;"/><line style="stroke:#181818;stroke-width:1.0;stroke-dasharray:2.0,2.0;" x1="71" x2="1071" y1="441.5898" y2="441.5898"/><text fill="#000000" font-family="sans-serif" font-size="20" font-weight="bold" lengthAdjust="spacing" textLength="13" x="83" y="423.5938">6</text><text fill="#000000" font-family="sans-serif" font-size="20" lengthAdjust="spacing" textLength="738" x="100" y="411.8164">Asks user to type remaining data (nBedrooms, nBathRooms, nParkingSpaces,</text><text fill="#000000" font-family="sans-serif" font-size="20" lengthAdjust="spacing" textLength="231" x="106" y="435.3711">EquipmentDesignation).</text><polygon fill="#181818" points="1055,475.1445,1065,479.1445,1055,483.1445,1059,479.1445" style="stroke:#181818;stroke-width:1.0;"/><line style="stroke:#181818;stroke-width:1.0;" x1="66" x2="1061" y1="479.1445" y2="479.1445"/><text fill="#000000" font-family="sans-serif" font-size="20" font-weight="bold" lengthAdjust="spacing" textLength="13" x="73" y="472.9258">7</text><text fill="#000000" font-family="sans-serif" font-size="20" lengthAdjust="spacing" textLength="126" x="90" y="472.9258">Submits data</text><path d="M20,494.1445 L92,494.1445 L92,509.6992 L82,519.6992 L20,519.6992 L20,494.1445 " fill="#EEEEEE" style="stroke:#000000;stroke-width:1.5;"/><rect fill="none" height="109.2188" style="stroke:#000000;stroke-width:1.5;" width="1106" x="20" y="494.1445"/><text fill="#000000" font-family="sans-serif" font-size="20" font-weight="bold" lengthAdjust="spacing" textLength="27" x="35" y="514.4805">alt</text><text fill="#000000" font-family="sans-serif" font-size="20" font-weight="bold" lengthAdjust="spacing" textLength="266" x="107" y="515.4805">[typeOfProperty = House]</text><polygon fill="#181818" points="77,553.8086,67,557.8086,77,561.8086,73,557.8086" style="stroke:#181818;stroke-width:1.0;"/><line style="stroke:#181818;stroke-width:1.0;stroke-dasharray:2.0,2.0;" x1="71" x2="1071" y1="557.8086" y2="557.8086"/><text fill="#000000" font-family="sans-serif" font-size="20" font-weight="bold" lengthAdjust="spacing" textLength="13" x="83" y="551.5898">8</text><text fill="#000000" font-family="sans-serif" font-size="20" lengthAdjust="spacing" textLength="620" x="100" y="551.5898">Asks user to type remaining data (SunExposure, Basement, Loft).</text><polygon fill="#181818" points="1055,591.3633,1065,595.3633,1055,599.3633,1059,595.3633" style="stroke:#181818;stroke-width:1.0;"/><line style="stroke:#181818;stroke-width:1.0;" x1="66" x2="1061" y1="595.3633" y2="595.3633"/><text fill="#000000" font-family="sans-serif" font-size="20" font-weight="bold" lengthAdjust="spacing" textLength="13" x="73" y="589.1445">9</text><text fill="#000000" font-family="sans-serif" font-size="20" lengthAdjust="spacing" textLength="126" x="90" y="589.1445">Submits data</text><polygon fill="#181818" points="77,642.918,67,646.918,77,650.918,73,646.918" style="stroke:#181818;stroke-width:1.0;"/><line style="stroke:#181818;stroke-width:1.0;stroke-dasharray:2.0,2.0;" x1="71" x2="1071" y1="646.918" y2="646.918"/><text fill="#000000" font-family="sans-serif" font-size="20" font-weight="bold" lengthAdjust="spacing" textLength="26" x="83" y="640.6992">10</text><text fill="#000000" font-family="sans-serif" font-size="20" lengthAdjust="spacing" textLength="237" x="113" y="640.6992">Shows operation success</text><!--SRC=[hLFHgXCn47tVhnZwOWjxHNmiABJqYeBWfQjllinDfhkXcsJDJ5ehz-DDijjBmQeK3Imx93CdSywPyDwu0GFQtgizQT2qmzZBE- -aCJy8Nh-g-9m2rZklkk0jWOH85oS3gZssrCYf9mYa15tRNoPmXzeVZMjXXprJLOcHbDgSMCX2GzyYEKMmCTZcz7dJR1PLXL6yY_QHGegL-02pLKjEPe0C9QeIl1Xb1dG2i-M8Lux7iDIP0mfD-HMaLKAuUtk-VmahtZE81nKevo8uEi8G_411Je3waFw6oMQ8ZF2CUhu6fZKXtYNmyPObD9q_ClI61VmECEyoeDEmkeHzmS3K9-co2oW8yy-dWNB5mzH6BTF6OsJZYBc6QUUh0-MjDSp6kmKKS9mOZQ0W7HNOqgYcg_t_AajJYdbiA2INJ21zLO0_yDzcTtb2cG_1AAe1az0rw2GAPkEpz2OfhL89XNIiTIWCXywBJpCnT3plZTj_sNvOr1TiuO1zfCLjjBAoNFYalYQzhxB2Neh6dtPd4-0DlFUH2PwUO9M7xtaaViE-J5Og29bZyIkGHUFoMnXzTclImNkRsBerIhUTuWSCwVsqJNfSn7No-3xfF-JxDiIcTIZPxPStEXeVhPcyk97olx5iehl_FdYE8Rc_nd7eQ_ZeT_BVEP3JvVlheym4Yup0KIML-NeZFm40]--></g></svg>