<?xml version="1.0" encoding="UTF-8" standalone="no"?><svg xmlns="http://www.w3.org/2000/svg" xmlns:xlink="http://www.w3.org/1999/xlink" contentStyleType="text/css" height="581px" preserveAspectRatio="none" style="width:746px;height:581px;background:#FFFFFF;" version="1.1" viewBox="0 0 746 581" width="746px" zoomAndPan="magnify"><defs/><g><text fill="#000000" font-family="sans-serif" font-size="14" font-weight="bold" lengthAdjust="spacing" textLength="300" x="222.25" y="28.5352">System Sequence Diagram (SSD) - US 003</text><rect fill="#FFFFFF" height="348.5469" style="stroke:#181818;stroke-width:1.0;" width="10" x="106.5" y="136.043"/><rect fill="#FFFFFF" height="61.1094" style="stroke:#181818;stroke-width:1.0;" width="10" x="691.5" y="165.5977"/><rect fill="#FFFFFF" height="61.1094" style="stroke:#181818;stroke-width:1.0;" width="10" x="691.5" y="264.2617"/><rect fill="#FFFFFF" height="37.5547" style="stroke:#181818;stroke-width:1.0;" width="10" x="691.5" y="362.9258"/><rect fill="#FFFFFF" height="37.5547" style="stroke:#181818;stroke-width:1.0;" width="10" x="691.5" y="438.0352"/><line style="stroke:#181818;stroke-width:0.5;stroke-dasharray:5.0,5.0;" x1="111" x2="111" y1="126.043" y2="493.5898"/><line style="stroke:#181818;stroke-width:0.5;stroke-dasharray:5.0,5.0;" x1="696.5" x2="696.5" y1="126.043" y2="493.5898"/><text fill="#000000" font-family="sans-serif" font-size="20" lengthAdjust="spacing" textLength="207" x="5" y="121.8242">System Administrator</text><ellipse cx="111.5" cy="50.9883" fill="#E3E3E3" rx="8" ry="8" style="stroke:#181818;stroke-width:0.5;"/><path d="M111.5,58.9883 L111.5,85.9883 M98.5,66.9883 L124.5,66.9883 M111.5,85.9883 L98.5,100.9883 M111.5,85.9883 L124.5,100.9883 " fill="none" style="stroke:#181818;stroke-width:0.5;"/><text fill="#000000" font-family="sans-serif" font-size="20" lengthAdjust="spacing" textLength="207" x="5" y="511.9258">System Administrator</text><ellipse cx="111.5" cy="524.6445" fill="#E3E3E3" rx="8" ry="8" style="stroke:#181818;stroke-width:0.5;"/><path d="M111.5,532.6445 L111.5,559.6445 M98.5,540.6445 L124.5,540.6445 M111.5,559.6445 L98.5,574.6445 M111.5,559.6445 L124.5,574.6445 " fill="none" style="stroke:#181818;stroke-width:0.5;"/><rect fill="#E3E3E3" height="37.5547" rx="2.5" ry="2.5" style="stroke:#181818;stroke-width:0.5;" width="88" x="652.5" y="87.4883"/><text fill="#000000" font-family="sans-serif" font-size="20" lengthAdjust="spacing" textLength="74" x="659.5" y="113.8242">:System</text><rect fill="#E3E3E3" height="37.5547" rx="2.5" ry="2.5" style="stroke:#181818;stroke-width:0.5;" width="88" x="652.5" y="492.5898"/><text fill="#000000" font-family="sans-serif" font-size="20" lengthAdjust="spacing" textLength="74" x="659.5" y="518.9258">:System</text><rect fill="#FFFFFF" height="348.5469" style="stroke:#181818;stroke-width:1.0;" width="10" x="106.5" y="136.043"/><rect fill="#FFFFFF" height="61.1094" style="stroke:#181818;stroke-width:1.0;" width="10" x="691.5" y="165.5977"/><rect fill="#FFFFFF" height="61.1094" style="stroke:#181818;stroke-width:1.0;" width="10" x="691.5" y="264.2617"/><rect fill="#FFFFFF" height="37.5547" style="stroke:#181818;stroke-width:1.0;" width="10" x="691.5" y="362.9258"/><rect fill="#FFFFFF" height="37.5547" style="stroke:#181818;stroke-width:1.0;" width="10" x="691.5" y="438.0352"/><polygon fill="#181818" points="679.5,161.5977,689.5,165.5977,679.5,169.5977,683.5,165.5977" style="stroke:#181818;stroke-width:1.0;"/><line style="stroke:#181818;stroke-width:1.0;" x1="116.5" x2="685.5" y1="165.5977" y2="165.5977"/><text fill="#000000" font-family="sans-serif" font-size="20" font-weight="bold" lengthAdjust="spacing" textLength="13" x="123.5" y="159.3789">1</text><text fill="#000000" font-family="sans-serif" font-size="20" lengthAdjust="spacing" textLength="310" x="140.5" y="159.3789">Asks to register a new employee</text><polygon fill="#181818" points="127.5,222.707,117.5,226.707,127.5,230.707,123.5,226.707" style="stroke:#181818;stroke-width:1.0;"/><line style="stroke:#181818;stroke-width:1.0;stroke-dasharray:2.0,2.0;" x1="121.5" x2="695.5" y1="226.707" y2="226.707"/><text fill="#000000" font-family="sans-serif" font-size="20" font-weight="bold" lengthAdjust="spacing" textLength="13" x="133.5" y="208.7109">2</text><text fill="#000000" font-family="sans-serif" font-size="20" lengthAdjust="spacing" textLength="534" x="150.5" y="196.9336">Requests data (name, citizen card number, tax number,</text><text fill="#000000" font-family="sans-serif" font-size="20" lengthAdjust="spacing" textLength="493" x="156.5" y="220.4883">address, email address, contact telephone number)</text><polygon fill="#181818" points="679.5,260.2617,689.5,264.2617,679.5,268.2617,683.5,264.2617" style="stroke:#181818;stroke-width:1.0;"/><line style="stroke:#181818;stroke-width:1.0;" x1="116.5" x2="685.5" y1="264.2617" y2="264.2617"/><text fill="#000000" font-family="sans-serif" font-size="20" font-weight="bold" lengthAdjust="spacing" textLength="13" x="123.5" y="258.043">3</text><text fill="#000000" font-family="sans-serif" font-size="20" lengthAdjust="spacing" textLength="207" x="140.5" y="258.043">Types requested data</text><polygon fill="#181818" points="127.5,321.3711,117.5,325.3711,127.5,329.3711,123.5,325.3711" style="stroke:#181818;stroke-width:1.0;"/><line style="stroke:#181818;stroke-width:1.0;stroke-dasharray:2.0,2.0;" x1="121.5" x2="695.5" y1="325.3711" y2="325.3711"/><text fill="#000000" font-family="sans-serif" font-size="20" font-weight="bold" lengthAdjust="spacing" textLength="13" x="133.5" y="307.375">4</text><text fill="#000000" font-family="sans-serif" font-size="20" lengthAdjust="spacing" textLength="232" x="150.5" y="295.5977">Shows each category list</text><text fill="#000000" font-family="sans-serif" font-size="20" lengthAdjust="spacing" textLength="370" x="150.5" y="319.1523">(employee's assigned agency and role)</text><polygon fill="#181818" points="679.5,358.9258,689.5,362.9258,679.5,366.9258,683.5,362.9258" style="stroke:#181818;stroke-width:1.0;"/><line style="stroke:#181818;stroke-width:1.0;" x1="116.5" x2="685.5" y1="362.9258" y2="362.9258"/><text fill="#000000" font-family="sans-serif" font-size="20" font-weight="bold" lengthAdjust="spacing" textLength="13" x="123.5" y="356.707">5</text><text fill="#000000" font-family="sans-serif" font-size="20" lengthAdjust="spacing" textLength="192" x="140.5" y="356.707">Select data required</text><polygon fill="#181818" points="127.5,396.4805,117.5,400.4805,127.5,404.4805,123.5,400.4805" style="stroke:#181818;stroke-width:1.0;"/><line style="stroke:#181818;stroke-width:1.0;stroke-dasharray:2.0,2.0;" x1="121.5" x2="695.5" y1="400.4805" y2="400.4805"/><text fill="#000000" font-family="sans-serif" font-size="20" font-weight="bold" lengthAdjust="spacing" textLength="13" x="133.5" y="394.2617">6</text><text fill="#000000" font-family="sans-serif" font-size="20" lengthAdjust="spacing" textLength="337" x="150.5" y="394.2617">Shows requested and selected data</text><polygon fill="#181818" points="679.5,434.0352,689.5,438.0352,679.5,442.0352,683.5,438.0352" style="stroke:#181818;stroke-width:1.0;"/><line style="stroke:#181818;stroke-width:1.0;" x1="116.5" x2="685.5" y1="438.0352" y2="438.0352"/><text fill="#000000" font-family="sans-serif" font-size="20" font-weight="bold" lengthAdjust="spacing" textLength="13" x="123.5" y="431.8164">7</text><text fill="#000000" font-family="sans-serif" font-size="20" lengthAdjust="spacing" textLength="126" x="140.5" y="431.8164">Submits data</text><polygon fill="#181818" points="127.5,471.5898,117.5,475.5898,127.5,479.5898,123.5,475.5898" style="stroke:#181818;stroke-width:1.0;"/><line style="stroke:#181818;stroke-width:1.0;stroke-dasharray:2.0,2.0;" x1="121.5" x2="695.5" y1="475.5898" y2="475.5898"/><text fill="#000000" font-family="sans-serif" font-size="20" font-weight="bold" lengthAdjust="spacing" textLength="13" x="133.5" y="469.3711">8</text><text fill="#000000" font-family="sans-serif" font-size="20" lengthAdjust="spacing" textLength="237" x="150.5" y="469.3711">Shows operation success</text><!--SRC=[dLBDRjim3BxxAOXSbW0946ot70OKAFO0qthhXPLOMuXCUIAzp7lwqNzfW6L0Dvrea_h-A3b7xh1Wcx8_Ku10hzWd_P9PNVn5yF5OoJe2RURicv9R0YqztNGwz6UioUcG20fvHQxJxO0q6F8bSWslc8IgIgFQg1j4gGL7ttjYJ_0OiHx7jyuzxk00JmwEnqzLXRrcxjiNAbPxpGKsozM7q4QEeWNjxmPGu4biobWr-jWXAsnEy-pKdSi99Vv0fNcy0ZjZ1OVFgwWJFCXPGBCPget1cWXC5w2sItaWcYvTSLPWMCw2SZ302VW4NqUNeW815M7BsD8UV5JBcS5Z2J1Rt8FYpxL-Pi0G2ediZHXZUllqjYIZ1wL4NPEPbZkxIKEWkzB-CFbjw4ZCugHjV04cxchYh-xkEtHDlWWOSMD-bEfS1aWM7JppTatjWzWQ9DPiNFPas0-07A3aHBih_7l5ExDk2Ko1ZXPYeV2lQvb5lmKmgf49zpQDTolgNzguxFZ_bEIEx377p22zzxRf-_o_0G00]--></g></svg>