<?xml version="1.0" encoding="UTF-8" standalone="no"?><svg xmlns="http://www.w3.org/2000/svg" xmlns:xlink="http://www.w3.org/1999/xlink" contentStyleType="text/css" height="916px" preserveAspectRatio="none" style="width:1448px;height:916px;background:#FFFFFF;" version="1.1" viewBox="0 0 1448 916" width="1448px" zoomAndPan="magnify"><defs/><g><!--class Equipment--><g id="elem_Equipment"><rect codeLine="8" fill="#F1F1F1" height="65.1094" id="Equipment" rx="2.5" ry="2.5" style="stroke:#181818;stroke-width:0.5;" width="124" x="1083.5" y="259.7188"/><text fill="#000000" font-family="sans-serif" font-size="20" lengthAdjust="spacing" textLength="104" x="1093.5" y="284.0547">Equipment</text><line style="stroke:#181818;stroke-width:0.5;" x1="1084.5" x2="1206.5" y1="293.2734" y2="293.2734"/><text fill="#000000" font-family="sans-serif" font-size="20" lengthAdjust="spacing" textLength="112" x="1089.5" y="316.6094">designation</text></g><!--class Photograph--><g id="elem_Photograph"><rect codeLine="11" fill="#F1F1F1" height="65.1094" id="Photograph" rx="2.5" ry="2.5" style="stroke:#181818;stroke-width:0.5;" width="116" x="874.5" y="86.2188"/><text fill="#000000" font-family="sans-serif" font-size="20" lengthAdjust="spacing" textLength="110" x="877.5" y="110.5547">Photograph</text><line style="stroke:#181818;stroke-width:0.5;" x1="875.5" x2="989.5" y1="119.7734" y2="119.7734"/><text fill="#000000" font-family="sans-serif" font-size="20" lengthAdjust="spacing" textLength="69" x="880.5" y="143.1094">linkURI</text></g><!--class Commission--><g id="elem_Commission"><rect codeLine="14" fill="#F1F1F1" height="65.1094" id="Commission" rx="2.5" ry="2.5" style="stroke:#181818;stroke-width:0.5;" width="126" x="844.5" y="670.7188"/><text fill="#000000" font-family="sans-serif" font-size="20" lengthAdjust="spacing" textLength="120" x="847.5" y="695.0547">Commission</text><line style="stroke:#181818;stroke-width:0.5;" x1="845.5" x2="969.5" y1="704.2734" y2="704.2734"/><text fill="#000000" font-family="sans-serif" font-size="20" lengthAdjust="spacing" textLength="50" x="850.5" y="727.6094">value</text></g><!--class Property--><g id="elem_Property"><rect codeLine="17" fill="#F1F1F1" height="88.6641" id="Property" rx="2.5" ry="2.5" style="stroke:#181818;stroke-width:0.5;" width="192" x="527.5" y="461.2188"/><text fill="#000000" font-family="sans-serif" font-size="20" lengthAdjust="spacing" textLength="80" x="583.5" y="485.5547">Property</text><line style="stroke:#181818;stroke-width:0.5;" x1="528.5" x2="718.5" y1="494.7734" y2="494.7734"/><text fill="#000000" font-family="sans-serif" font-size="20" lengthAdjust="spacing" textLength="41" x="533.5" y="518.1094">area</text><text fill="#000000" font-family="sans-serif" font-size="20" lengthAdjust="spacing" textLength="180" x="533.5" y="541.6641">distanceCityCentre</text></g><!--class Residence--><g id="elem_Residence"><rect codeLine="21" fill="#F1F1F1" height="112.2188" id="Residence" rx="2.5" ry="2.5" style="stroke:#181818;stroke-width:0.5;" width="248" x="888.5" y="449.7188"/><text fill="#000000" font-family="sans-serif" font-size="20" lengthAdjust="spacing" textLength="97" x="964" y="474.0547">Residence</text><line style="stroke:#181818;stroke-width:0.5;" x1="889.5" x2="1135.5" y1="483.2734" y2="483.2734"/><text fill="#000000" font-family="sans-serif" font-size="20" lengthAdjust="spacing" textLength="195" x="894.5" y="506.6094">numberOfBedrooms</text><text fill="#000000" font-family="sans-serif" font-size="20" lengthAdjust="spacing" textLength="201" x="894.5" y="530.1641">numberOfBathrooms</text><text fill="#000000" font-family="sans-serif" font-size="20" lengthAdjust="spacing" textLength="236" x="894.5" y="553.7188">numberOfParkingSpaces</text></g><!--class House--><g id="elem_House"><rect codeLine="26" fill="#F1F1F1" height="112.2188" id="House" rx="2.5" ry="2.5" style="stroke:#181818;stroke-width:0.5;" width="270" x="1171.5" y="449.7188"/><text fill="#000000" font-family="sans-serif" font-size="20" lengthAdjust="spacing" textLength="60" x="1276.5" y="474.0547">House</text><line style="stroke:#181818;stroke-width:0.5;" x1="1172.5" x2="1440.5" y1="483.2734" y2="483.2734"/><text fill="#000000" font-family="sans-serif" font-size="20" lengthAdjust="spacing" textLength="206" x="1177.5" y="506.6094">existenceOfBasement</text><text fill="#000000" font-family="sans-serif" font-size="20" lengthAdjust="spacing" textLength="258" x="1177.5" y="530.1641">existenceOfInhabitableLoft</text><text fill="#000000" font-family="sans-serif" font-size="20" lengthAdjust="spacing" textLength="123" x="1177.5" y="553.7188">sunExposure</text></g><!--class Person--><g id="elem_Person"><rect codeLine="31" fill="#F1F1F1" height="112.2188" id="Person" rx="2.5" ry="2.5" style="stroke:#181818;stroke-width:0.5;" width="185" x="7" y="62.7188"/><text fill="#000000" font-family="sans-serif" font-size="20" lengthAdjust="spacing" textLength="64" x="67.5" y="87.0547">Person</text><line style="stroke:#181818;stroke-width:0.5;" x1="8" x2="191" y1="96.2734" y2="96.2734"/><text fill="#000000" font-family="sans-serif" font-size="20" lengthAdjust="spacing" textLength="53" x="13" y="119.6094">name</text><text fill="#000000" font-family="sans-serif" font-size="20" lengthAdjust="spacing" textLength="132" x="13" y="143.1641">emailAddress</text><text fill="#000000" font-family="sans-serif" font-size="20" lengthAdjust="spacing" textLength="173" x="13" y="166.7188">telephoneNumber</text></g><!--class Owner--><g id="elem_Owner"><rect codeLine="36" fill="#F1F1F1" height="33.5547" id="Owner" rx="2.5" ry="2.5" style="stroke:#181818;stroke-width:0.5;" width="68" x="40.5" y="488.7188"/><text fill="#000000" font-family="sans-serif" font-size="20" lengthAdjust="spacing" textLength="62" x="43.5" y="513.0547">Owner</text></g><!--class Agent--><g id="elem_Agent"><rect codeLine="38" fill="#F1F1F1" height="33.5547" id="Agent" rx="2.5" ry="2.5" style="stroke:#181818;stroke-width:0.5;" width="62" x="263.5" y="686.2188"/><text fill="#000000" font-family="sans-serif" font-size="20" lengthAdjust="spacing" textLength="56" x="266.5" y="710.5547">Agent</text></g><!--class TypeOfCommission--><g id="elem_TypeOfCommission"><rect codeLine="40" fill="#F1F1F1" height="65.1094" id="TypeOfCommission" rx="2.5" ry="2.5" style="stroke:#181818;stroke-width:0.5;" width="196" x="1185.5" y="670.7188"/><text fill="#000000" font-family="sans-serif" font-size="20" lengthAdjust="spacing" textLength="190" x="1188.5" y="695.0547">TypeOfCommission</text><line style="stroke:#181818;stroke-width:0.5;" x1="1186.5" x2="1380.5" y1="704.2734" y2="704.2734"/><text fill="#000000" font-family="sans-serif" font-size="20" lengthAdjust="spacing" textLength="112" x="1191.5" y="727.6094">designation</text></g><!--class Address--><g id="elem_Address"><rect codeLine="43" fill="#F1F1F1" height="112.2188" id="Address" rx="2.5" ry="2.5" style="stroke:#181818;stroke-width:0.5;" width="85" x="469" y="62.7188"/><text fill="#000000" font-family="sans-serif" font-size="20" lengthAdjust="spacing" textLength="79" x="472" y="87.0547">Address</text><line style="stroke:#181818;stroke-width:0.5;" x1="470" x2="553" y1="96.2734" y2="96.2734"/><text fill="#000000" font-family="sans-serif" font-size="20" lengthAdjust="spacing" textLength="46" x="475" y="119.6094">state</text><text fill="#000000" font-family="sans-serif" font-size="20" lengthAdjust="spacing" textLength="67" x="475" y="143.1641">district</text><text fill="#000000" font-family="sans-serif" font-size="20" lengthAdjust="spacing" textLength="33" x="475" y="166.7188">city</text></g><!--class SocialSecurityCard--><g id="elem_SocialSecurityCard"><rect codeLine="48" fill="#F1F1F1" height="65.1094" id="SocialSecurityCard" rx="2.5" ry="2.5" style="stroke:#181818;stroke-width:0.5;" width="183" x="243" y="259.7188"/><text fill="#000000" font-family="sans-serif" font-size="20" lengthAdjust="spacing" textLength="177" x="246" y="284.0547">SocialSecurityCard</text><line style="stroke:#181818;stroke-width:0.5;" x1="244" x2="425" y1="293.2734" y2="293.2734"/><text fill="#000000" font-family="sans-serif" font-size="20" lengthAdjust="spacing" textLength="108" x="249" y="316.6094">taxNumber</text></g><!--class Passport--><g id="elem_Passport"><rect codeLine="51" fill="#F1F1F1" height="65.1094" id="Passport" rx="2.5" ry="2.5" style="stroke:#181818;stroke-width:0.5;" width="88" x="345.5" y="86.2188"/><text fill="#000000" font-family="sans-serif" font-size="20" lengthAdjust="spacing" textLength="82" x="348.5" y="110.5547">Passport</text><line style="stroke:#181818;stroke-width:0.5;" x1="346.5" x2="432.5" y1="119.7734" y2="119.7734"/><text fill="#000000" font-family="sans-serif" font-size="20" lengthAdjust="spacing" textLength="75" x="351.5" y="143.1094">number</text></g><!--class Advertisement--><g id="elem_Advertisement"><rect codeLine="54" fill="#F1F1F1" height="65.1094" id="Advertisement" rx="2.5" ry="2.5" style="stroke:#181818;stroke-width:0.5;" width="216" x="475.5" y="670.7188"/><text fill="#000000" font-family="sans-serif" font-size="20" lengthAdjust="spacing" textLength="139" x="514" y="695.0547">Advertisement</text><line style="stroke:#181818;stroke-width:0.5;" x1="476.5" x2="690.5" y1="704.2734" y2="704.2734"/><text fill="#000000" font-family="sans-serif" font-size="20" lengthAdjust="spacing" textLength="204" x="481.5" y="727.6094">dateOfAdvertisement</text></g><!--class TypeOfProperty--><g id="elem_TypeOfProperty"><rect codeLine="57" fill="#F1F1F1" height="65.1094" id="TypeOfProperty" rx="2.5" ry="2.5" style="stroke:#181818;stroke-width:0.5;" width="156" x="604.5" y="86.2188"/><text fill="#000000" font-family="sans-serif" font-size="20" lengthAdjust="spacing" textLength="150" x="607.5" y="110.5547">TypeOfProperty</text><line style="stroke:#181818;stroke-width:0.5;" x1="605.5" x2="759.5" y1="119.7734" y2="119.7734"/><text fill="#000000" font-family="sans-serif" font-size="20" lengthAdjust="spacing" textLength="112" x="610.5" y="143.1094">designation</text></g><!--class AdvertisementRequest--><g id="elem_AdvertisementRequest"><rect codeLine="60" fill="#F1F1F1" height="88.6641" id="AdvertisementRequest" rx="2.5" ry="2.5" style="stroke:#181818;stroke-width:0.5;" width="222" x="183.5" y="820.7188"/><text fill="#000000" font-family="sans-serif" font-size="20" lengthAdjust="spacing" textLength="216" x="186.5" y="845.0547">AdvertisementRequest</text><line style="stroke:#181818;stroke-width:0.5;" x1="184.5" x2="404.5" y1="854.2734" y2="854.2734"/><text fill="#000000" font-family="sans-serif" font-size="20" lengthAdjust="spacing" textLength="48" x="189.5" y="877.6094">price</text><text fill="#000000" font-family="sans-serif" font-size="20" lengthAdjust="spacing" textLength="142" x="189.5" y="901.1641">dateOfRequest</text></g><!--class TypeOfBusiness--><g id="elem_TypeOfBusiness"><rect codeLine="64" fill="#F1F1F1" height="65.1094" id="TypeOfBusiness" rx="2.5" ry="2.5" style="stroke:#181818;stroke-width:0.5;" width="159" x="558" y="832.7188"/><text fill="#000000" font-family="sans-serif" font-size="20" lengthAdjust="spacing" textLength="153" x="561" y="857.0547">TypeOfBusiness</text><line style="stroke:#181818;stroke-width:0.5;" x1="559" x2="716" y1="866.2734" y2="866.2734"/><text fill="#000000" font-family="sans-serif" font-size="20" lengthAdjust="spacing" textLength="112" x="564" y="889.6094">designation</text></g><!--class Role--><g id="elem_Role"><rect codeLine="67" fill="#F1F1F1" height="65.1094" id="Role" rx="2.5" ry="2.5" style="stroke:#181818;stroke-width:0.5;" width="124" x="144.5" y="354.7188"/><text fill="#000000" font-family="sans-serif" font-size="20" lengthAdjust="spacing" textLength="42" x="185.5" y="379.0547">Role</text><line style="stroke:#181818;stroke-width:0.5;" x1="145.5" x2="267.5" y1="388.2734" y2="388.2734"/><text fill="#000000" font-family="sans-serif" font-size="20" lengthAdjust="spacing" textLength="112" x="150.5" y="411.6094">designation</text></g><!--class Employee--><g id="elem_Employee"><rect fill="#F1F1F1" height="33.5547" id="Employee" rx="2.5" ry="2.5" style="stroke:#181818;stroke-width:0.5;" width="99" x="109" y="275.2188"/><text fill="#000000" font-family="sans-serif" font-size="20" lengthAdjust="spacing" textLength="93" x="112" y="299.5547">Employee</text></g><!--link Person to Address--><g id="link_Person_Address"><path codeLine="70" d="M188.66,62.5688 C218.46,46.7787 252.61,31.7287 286,23.7188 C324.46,14.4887 336.56,14.3787 375,23.7188 C410.35,32.3088 443.97,55.4588 469,76.7487 " fill="none" id="Person-Address" style="stroke:#181818;stroke-width:1.0;"/><polygon fill="#000000" points="301.9898,20.9002,287.7737,15.4729,287.2986,24.8654,301.9898,20.9002" style="stroke:#000000;stroke-width:1.0;"/><text fill="#000000" font-family="sans-serif" font-size="20" lengthAdjust="spacing" textLength="67" x="307" y="28.0547">lives at</text><text fill="#000000" font-family="sans-serif" font-size="20" lengthAdjust="spacing" textLength="10" x="188.917" y="50.6803">*</text><text fill="#000000" font-family="sans-serif" font-size="20" lengthAdjust="spacing" textLength="13" x="447.8844" y="64.2565">1</text></g><!--link Person to SocialSecurityCard--><g id="link_Person_SocialSecurityCard"><path codeLine="71" d="M175.15,174.9288 C213.52,202.9288 258.75,235.9388 291.2,259.6188 " fill="none" id="Person-SocialSecurityCard" style="stroke:#181818;stroke-width:1.0;"/><polygon fill="#000000" points="259.9622,222.212,251.0439,209.8824,245.5,217.4792,259.9622,222.212" style="stroke:#000000;stroke-width:1.0;"/><text fill="#000000" font-family="sans-serif" font-size="20" lengthAdjust="spacing" textLength="97" x="266.5" y="225.0547">possesses</text><text fill="#000000" font-family="sans-serif" font-size="20" lengthAdjust="spacing" textLength="13" x="170.1455" y="202.1131">1</text><text fill="#000000" font-family="sans-serif" font-size="20" lengthAdjust="spacing" textLength="13" x="268.7069" y="247.5906">1</text></g><!--link Person to Passport--><g id="link_Person_Passport"><path codeLine="72" d="M192.06,118.7188 C243.28,118.7188 304.59,118.7188 345.15,118.7188 " fill="none" id="Person-Passport" style="stroke:#181818;stroke-width:1.0;"/><polygon fill="#000000" points="225.25,103.4961,210.7779,98.7938,210.7779,108.1984,225.25,103.4961" style="stroke:#000000;stroke-width:1.0;"/><text fill="#000000" font-family="sans-serif" font-size="20" lengthAdjust="spacing" textLength="97" x="230.25" y="111.0547">possesses</text><text fill="#000000" font-family="sans-serif" font-size="20" lengthAdjust="spacing" textLength="13" x="199.9538" y="114.1517">1</text><text fill="#000000" font-family="sans-serif" font-size="20" lengthAdjust="spacing" textLength="13" x="324.3636" y="113.3278">1</text></g><!--link Employee to Role--><g id="link_Employee_Role"><path codeLine="74" d="M166.86,309.4188 C173.25,321.8088 182.27,339.2687 190.09,354.4188 " fill="none" id="Employee-Role" style="stroke:#181818;stroke-width:1.0;"/><polygon fill="#000000" points="90.2703,336.5474,92.7304,351.5641,101.0872,347.2502,90.2703,336.5474" style="stroke:#000000;stroke-width:1.0;"/><text fill="#000000" font-family="sans-serif" font-size="20" lengthAdjust="spacing" textLength="70" x="106.94" y="351.2147">defines</text><text fill="#000000" font-family="sans-serif" font-size="20" lengthAdjust="spacing" textLength="10" x="157.721" y="336.2372">*</text><text fill="#000000" font-family="sans-serif" font-size="20" lengthAdjust="spacing" textLength="13" x="188.2628" y="342.6279">1</text></g><!--reverse link Role to Agent--><g id="link_Role_Agent"><path codeLine="75" d="M224.8,438.9888 C239.08,479.8588 258.75,538.9888 272.5,591.7188 C281.14,624.8388 288.25,664.3188 291.88,685.9788 " fill="none" id="Role-backto-Agent" style="stroke:#181818;stroke-width:1.0;"/><polygon fill="none" points="218.13,441.1388,218.07,419.9488,231.34,436.4788,218.13,441.1388" style="stroke:#181818;stroke-width:1.0;"/></g><!--reverse link Person to Employee--><g id="link_Person_Employee"><path codeLine="76" d="M125.01,193.8787 C135.43,224.1487 146.52,256.3887 152.96,275.1188 " fill="none" id="Person-backto-Employee" style="stroke:#181818;stroke-width:1.0;"/><polygon fill="none" points="118.38,196.1187,118.49,174.9288,131.62,191.5588,118.38,196.1187" style="stroke:#181818;stroke-width:1.0;"/></g><!--link AdvertisementRequest to TypeOfBusiness--><g id="link_AdvertisementRequest_TypeOfBusiness"><path codeLine="78" d="M405.86,865.2188 C455.45,865.2188 512.72,865.2188 557.91,865.2188 " fill="none" id="AdvertisementRequest-TypeOfBusiness" style="stroke:#181818;stroke-width:1.0;"/><polygon fill="#000000" points="422.75,849.9961,437.2221,854.6984,437.2221,845.2938,422.75,849.9961" style="stroke:#000000;stroke-width:1.0;"/><text fill="#000000" font-family="sans-serif" font-size="20" lengthAdjust="spacing" textLength="96" x="443.75" y="857.5547">present in</text><text fill="#000000" font-family="sans-serif" font-size="20" lengthAdjust="spacing" textLength="10" x="413.6779" y="860.812">*</text><text fill="#000000" font-family="sans-serif" font-size="20" lengthAdjust="spacing" textLength="13" x="536.9736" y="860.5151">1</text></g><!--link Advertisement to AdvertisementRequest--><g id="link_Advertisement_AdvertisementRequest"><path codeLine="79" d="M526.4,735.8288 C482.56,760.0988 421.53,793.8888 373.08,820.7088 " fill="none" id="Advertisement-AdvertisementRequest" style="stroke:#181818;stroke-width:1.0;"/><polygon fill="#000000" points="466.501,782.3708,481.4398,779.4753,476.8848,771.2474,466.501,782.3708" style="stroke:#000000;stroke-width:1.0;"/><text fill="#000000" font-family="sans-serif" font-size="20" lengthAdjust="spacing" textLength="121" x="486.5" y="786.0547">derives from</text><text fill="#000000" font-family="sans-serif" font-size="20" lengthAdjust="spacing" textLength="13" x="502.0712" y="763.0614">1</text><text fill="#000000" font-family="sans-serif" font-size="20" lengthAdjust="spacing" textLength="13" x="371.1172" y="808.5363">1</text></g><!--link Owner to Property--><g id="link_Owner_Property"><path codeLine="81" d="M108.84,505.7188 C191.24,505.7188 402.54,505.7188 527.28,505.7188 " fill="none" id="Owner-Property" style="stroke:#181818;stroke-width:1.0;"/><polygon fill="#000000" points="298.5,490.4961,284.0279,485.7938,284.0279,495.1984,298.5,490.4961" style="stroke:#000000;stroke-width:1.0;"/><text fill="#000000" font-family="sans-serif" font-size="20" lengthAdjust="spacing" textLength="49" x="303.5" y="498.0547">owns</text></g><!--link Address to Property--><g id="link_Address_Property"><path codeLine="82" d="M510.14,174.7587 C510.51,216.6588 514.08,275.3588 528.5,324.7188 C542.96,374.2388 571.83,425.8188 593.97,461.0088 " fill="none" id="Address-Property" style="stroke:#181818;stroke-width:1.0;"/><polygon fill="#000000" points="534.2516,284.8186,533.8063,300.0289,542.8317,297.3858,534.2516,284.8186" style="stroke:#000000;stroke-width:1.0;"/><text fill="#000000" font-family="sans-serif" font-size="20" lengthAdjust="spacing" textLength="94" x="549.5" y="300.0547">located at</text><text fill="#000000" font-family="sans-serif" font-size="20" lengthAdjust="spacing" textLength="13" x="496.1821" y="202.3466">1</text><text fill="#000000" font-family="sans-serif" font-size="20" lengthAdjust="spacing" textLength="13" x="575.6781" y="449.1542">1</text></g><!--link Photograph to Property--><g id="link_Photograph_Property"><path codeLine="83" d="M925.1,151.3987 C914,193.9788 889.94,270.5688 849.5,324.7188 C807.86,380.4788 744.96,428.6788 696.09,461.1188 " fill="none" id="Photograph-Property" style="stroke:#181818;stroke-width:1.0;"/><polygon fill="#000000" points="890.7437,298.9286,903.1289,290.0877,895.567,284.4964,890.7437,298.9286" style="stroke:#000000;stroke-width:1.0;"/><text fill="#000000" font-family="sans-serif" font-size="20" lengthAdjust="spacing" textLength="94" x="908.5" y="300.0547">illustrates</text><text fill="#000000" font-family="sans-serif" font-size="20" lengthAdjust="spacing" textLength="51" x="868.2397" y="178.6439">1..30</text><text fill="#000000" font-family="sans-serif" font-size="20" lengthAdjust="spacing" textLength="13" x="693.21" y="448.9326">1</text></g><!--link TypeOfProperty to Property--><g id="link_TypeOfProperty_Property"><path codeLine="84" d="M677.67,151.2288 C667.16,219.8288 642.18,382.8388 630.17,461.1888 " fill="none" id="TypeOfProperty-Property" style="stroke:#181818;stroke-width:1.0;"/><polygon fill="#000000" points="670.7118,284.5884,663.8716,298.1813,673.1676,299.6058,670.7118,284.5884" style="stroke:#000000;stroke-width:1.0;"/><text fill="#000000" font-family="sans-serif" font-size="20" lengthAdjust="spacing" textLength="158" x="682.5" y="300.0547">characterized by</text><text fill="#000000" font-family="sans-serif" font-size="20" lengthAdjust="spacing" textLength="13" x="662.581" y="178.7201">1</text><text fill="#000000" font-family="sans-serif" font-size="20" lengthAdjust="spacing" textLength="10" x="620.4257" y="449.0133">*</text></g><!--link Commission to TypeOfCommission--><g id="link_Commission_TypeOfCommission"><path codeLine="86" d="M970.86,703.2188 C1029.46,703.2188 1117.47,703.2188 1185.19,703.2188 " fill="none" id="Commission-TypeOfCommission" style="stroke:#181818;stroke-width:1.0;"/><polygon fill="#000000" points="1004,687.9961,989.5279,683.2938,989.5279,692.6984,1004,687.9961" style="stroke:#000000;stroke-width:1.0;"/><text fill="#000000" font-family="sans-serif" font-size="20" lengthAdjust="spacing" textLength="158" x="1009" y="695.5547">characterized by</text><text fill="#000000" font-family="sans-serif" font-size="20" lengthAdjust="spacing" textLength="10" x="978.3369" y="698.3212">*</text><text fill="#000000" font-family="sans-serif" font-size="20" lengthAdjust="spacing" textLength="13" x="1164.493" y="698.7265">1</text></g><!--link Advertisement to Commission--><g id="link_Advertisement_Commission"><path codeLine="87" d="M691.84,703.2188 C742.43,703.2188 800.89,703.2188 844.17,703.2188 " fill="none" id="Advertisement-Commission" style="stroke:#181818;stroke-width:1.0;"/><polygon fill="#000000" points="709,687.9961,723.4721,692.6984,723.4721,683.2938,709,687.9961" style="stroke:#000000;stroke-width:1.0;"/><text fill="#000000" font-family="sans-serif" font-size="20" lengthAdjust="spacing" textLength="96" x="730" y="695.5547">present in</text><text fill="#000000" font-family="sans-serif" font-size="20" lengthAdjust="spacing" textLength="13" x="699.5558" y="698.797">1</text><text fill="#000000" font-family="sans-serif" font-size="20" lengthAdjust="spacing" textLength="13" x="823.5323" y="698.3212">1</text></g><!--link Agent to AdvertisementRequest--><g id="link_Agent_AdvertisementRequest"><path codeLine="89" d="M294.5,720.4388 C294.5,743.7188 294.5,787.4388 294.5,820.5788 " fill="none" id="Agent-AdvertisementRequest" style="stroke:#181818;stroke-width:1.0;"/><polygon fill="#000000" points="302.5,786.4961,307.2023,772.024,297.7977,772.024,302.5,786.4961" style="stroke:#000000;stroke-width:1.0;"/><text fill="#000000" font-family="sans-serif" font-size="20" lengthAdjust="spacing" textLength="85" x="315.5" y="786.0547">validates</text><text fill="#000000" font-family="sans-serif" font-size="20" lengthAdjust="spacing" textLength="13" x="279.8344" y="747.2623">1</text><text fill="#000000" font-family="sans-serif" font-size="20" lengthAdjust="spacing" textLength="10" x="283.7344" y="808.3864">*</text></g><!--link Owner to AdvertisementRequest--><g id="link_Owner_AdvertisementRequest"><path codeLine="90" d="M75.28,522.9488 C77.98,563.1288 89.87,668.8188 141.5,735.7188 C166.51,768.1188 200.97,797.9588 230.85,820.6988 " fill="none" id="Owner-AdvertisementRequest" style="stroke:#181818;stroke-width:1.0;"/><polygon fill="#000000" points="153.2047,710.5866,150.6705,695.5822,142.3352,699.9373,153.2047,710.5866" style="stroke:#000000;stroke-width:1.0;"/><text fill="#000000" font-family="sans-serif" font-size="20" lengthAdjust="spacing" textLength="82" x="162.5" y="711.0547">requests</text><text fill="#000000" font-family="sans-serif" font-size="20" lengthAdjust="spacing" textLength="13" x="60.8143" y="549.7749">1</text><text fill="#000000" font-family="sans-serif" font-size="20" lengthAdjust="spacing" textLength="10" x="210.338" y="808.5248">*</text></g><!--reverse link Property to Residence--><g id="link_Property_Residence"><path codeLine="92" d="M739.72,505.7188 C789.27,505.7188 838.82,505.7188 888.37,505.7188 " fill="none" id="Property-backto-Residence" style="stroke:#181818;stroke-width:1.0;"/><polygon fill="none" points="739.61,512.7188,719.61,505.7188,739.61,498.7188,739.61,512.7188" style="stroke:#181818;stroke-width:1.0;"/></g><!--reverse link Residence to House--><g id="link_Residence_House"><path codeLine="93" d="M1156.68,505.7188 C1161.58,505.7188 1166.49,505.7188 1171.39,505.7188 " fill="none" id="Residence-backto-House" style="stroke:#181818;stroke-width:1.0;"/><polygon fill="none" points="1156.53,512.7188,1136.53,505.7188,1156.53,498.7188,1156.53,512.7188" style="stroke:#181818;stroke-width:1.0;"/></g><!--link Equipment to Residence--><g id="link_Equipment_Residence"><path codeLine="94" d="M1125.59,324.8787 C1104.94,357.7288 1072.23,409.7288 1047.3,449.3788 " fill="none" id="Equipment-Residence" style="stroke:#181818;stroke-width:1.0;"/><polygon fill="#000000" points="1118.7587,380.7238,1107.074,390.4718,1115.0353,395.4782,1118.7587,380.7238" style="stroke:#000000;stroke-width:1.0;"/><text fill="#000000" font-family="sans-serif" font-size="20" lengthAdjust="spacing" textLength="80" x="1127.5" y="395.0547">contains</text></g><!--reverse link Person to Owner--><g id="link_Person_Owner"><path codeLine="95" d="M94.62,194.8388 C88.6,287.5788 78.76,439.1088 75.55,488.5587 " fill="none" id="Person-backto-Owner" style="stroke:#181818;stroke-width:1.0;"/><polygon fill="none" points="87.64,194.3887,95.92,174.8787,101.61,195.2888,87.64,194.3887" style="stroke:#181818;stroke-width:1.0;"/></g><!--link Agent to Advertisement--><g id="link_Agent_Advertisement"><path codeLine="96" d="M325.7,703.2188 C361.46,703.2188 422.03,703.2188 475.47,703.2188 " fill="none" id="Agent-Advertisement" style="stroke:#181818;stroke-width:1.0;"/><polygon fill="#000000" points="359,687.9961,344.5279,683.2938,344.5279,692.6984,359,687.9961" style="stroke:#000000;stroke-width:1.0;"/><text fill="#000000" font-family="sans-serif" font-size="20" lengthAdjust="spacing" textLength="93" x="364" y="695.5547">publishes</text><text fill="#000000" font-family="sans-serif" font-size="20" lengthAdjust="spacing" textLength="13" x="333.4756" y="725.0297">1</text><text fill="#000000" font-family="sans-serif" font-size="20" lengthAdjust="spacing" textLength="10" x="457.5226" y="698.7617">*</text></g><!--link Agent to Commission--><g id="link_Agent_Commission"><path codeLine="97" d="M325.72,695.3888 C400.5,677.1088 596.07,632.0688 762.5,617.7188 C789.07,615.4288 797.88,607.4788 822.5,617.7188 C848.2,628.4088 870.14,651.0688 885.29,670.3788 " fill="none" id="Agent-Commission" style="stroke:#181818;stroke-width:1.0;"/><polygon fill="#000000" points="778.492,616.1389,763.8244,612.0875,764.2443,621.4827,778.492,616.1389" style="stroke:#000000;stroke-width:1.0;"/><text fill="#000000" font-family="sans-serif" font-size="20" lengthAdjust="spacing" textLength="38" x="783.5" y="624.0547">sets</text><text fill="#000000" font-family="sans-serif" font-size="20" lengthAdjust="spacing" textLength="13" x="333.4998" y="687.841">1</text><text fill="#000000" font-family="sans-serif" font-size="20" lengthAdjust="spacing" textLength="10" x="870.2732" y="658.5806">*</text></g><!--link Owner to Agent--><g id="link_Owner_Agent"><path codeLine="98" d="M76.89,523.0988 C81.79,550.9888 95.53,607.8388 129.5,640.7188 C149.05,659.6388 221.18,681.9788 263.33,693.8388 " fill="none" id="Owner-Agent" style="stroke:#181818;stroke-width:1.0;"/><text fill="#000000" font-family="sans-serif" font-size="20" lengthAdjust="spacing" textLength="124" x="137" y="612.0547">requests and</text><polygon fill="#000000" points="144.3998,633.4538,136.9028,620.2119,130.5512,627.1475,144.3998,633.4538" style="stroke:#000000;stroke-width:1.0;"/><text fill="#000000" font-family="sans-serif" font-size="20" lengthAdjust="spacing" textLength="117" x="150.5" y="635.6094">gives info to</text></g><!--link Property to Agent--><g id="link_Property_Agent"><path codeLine="99" d="M527.4,539.9188 C492.82,553.7088 454.28,571.2987 421.5,591.7188 C376.85,619.5387 332.2,662.8688 309.63,686.1388 " fill="none" id="Property-Agent" style="stroke:#181818;stroke-width:1.0;"/><polygon fill="#000000" points="436.1417,612.0366,421.5055,616.2,426.748,624.0078,436.1417,612.0366" style="stroke:#000000;stroke-width:1.0;"/><text fill="#000000" font-family="sans-serif" font-size="20" lengthAdjust="spacing" textLength="145" x="442.5" y="624.0547">responsible for</text><text fill="#000000" font-family="sans-serif" font-size="20" lengthAdjust="spacing" textLength="10" x="509.3436" y="538.0991">*</text><text fill="#000000" font-family="sans-serif" font-size="20" lengthAdjust="spacing" textLength="13" x="299.2729" y="673.8752">1</text></g><!--link Property to Advertisement--><g id="link_Property_Advertisement"><path codeLine="100" d="M614.52,550.5888 C607.06,587.0688 596.62,638.0988 589.96,670.6588 " fill="none" id="Property-Advertisement" style="stroke:#181818;stroke-width:1.0;"/><polygon fill="#000000" points="616.1032,608.6584,608.5961,621.8946,617.8099,623.7793,616.1032,608.6584" style="stroke:#000000;stroke-width:1.0;"/><text fill="#000000" font-family="sans-serif" font-size="20" lengthAdjust="spacing" textLength="88" x="627.5" y="624.0547">based on</text></g><!--SRC=[VLLDJnin4BtxLrWv8WL1UriX941KHQfAbBItNXnxTjUArrxy0OIq_xrZxvSt1AG89PxtPjuyZmUtaxfbbZNAy1q8Ag1aGVblHlkDV0FwvOAu0K8RemslhMc0UXiWYxICxrW56xzNG2rmptIbSe2hcJ0lKbUqPChb4QwOSpVUMxaD7XwuqQdm1Qcb0CgbvPWeVOUczNlQGBC5wmX9H7h_56JRWFO78i39IZClZIR_-l2gDjvKbhNrWIYfTx_N3sFipZIDT0xX1_BC53OqignfmMAn0s4M617IOKSSxgJVts4jEq7NM5G0nX2hGvJsMDw2iCOqRZfWlfwVh9X51weD6WTkJFRT10S70gzOB-QCJ0Unk_piGTTiAptRAlXXIazSqFUlhN4XaxL2Ys9VcZL0e65ItGXXmJdYGK5R6mq_avIHyVYYmM8Jm- -R2ijclt_jMwoTUtRAxxxAWQ1X7f9nLd9FE3etWZQ6IwOsm8EDXZ8hi8vdhqUALlYdDTQFpcPLdl5wP6SDXWNMUYndfqUwXnlzI7N6NCDJ01VJjYWT-kJzwL7Qs-2aJlsUIhisAex5FDJTpE9iGPTqSRde3Ikeai_WAFFqUe1S8YHXtljLKBnl1_4pnqVuuDiSHAAQX55GUee2xfjMcJr04LzzR0DHIVBLt-NITWFGvqv7T20GSigmiQKZRr06TXWlIcAUqzJKQcWJUmQ8scnofiIzWtJIpUboVAC5DIywIk-Tx79rHemGt6vuYoBQUqM6unwPofwVVxrOJCkYe5AfWBEBB9TJpYRAOZvP1UKrBZJkKUyRbjhke-dJUndjENv89uaPBwdixYoEoyoSpDdhJsvbSBPA9DnrKlIDVKXPgaH9RXUuqbCaCaOlQ3Sdighzj0N9j0-dQ5fhMIGPE2vkYWRWlniczJJBtRnrrKcItK_tsJi7mbP9LwVXdGDpXntu2EXdPpauCRR5jFYZQPK6JUhIK6-YblpMa_i33T-NTX8NC2sDFRQnws-QYotkS46ngUl_]--></g></svg>