<?xml version="1.0" encoding="UTF-8" standalone="no"?><svg xmlns="http://www.w3.org/2000/svg" xmlns:xlink="http://www.w3.org/1999/xlink" contentStyleType="text/css" height="1997px" preserveAspectRatio="none" style="width:3123px;height:1997px;background:#FFFFFF;" version="1.1" viewBox="0 0 3123 1997" width="3123px" zoomAndPan="magnify"><defs/><g><rect fill="#FFFFFF" height="1801.9531" style="stroke:#181818;stroke-width:1.0;" width="10" x="86.5" y="98.5547"/><rect fill="#FFFFFF" height="37.5547" style="stroke:#181818;stroke-width:1.0;" width="10" x="962.5" y="128.1094"/><rect fill="#FFFFFF" height="578.4297" style="stroke:#181818;stroke-width:1.0;" width="10" x="962.5" y="203.2188"/><rect fill="#FFFFFF" height="37.5547" style="stroke:#181818;stroke-width:1.0;" width="10" x="962.5" y="826.2031"/><rect fill="#FFFFFF" height="990.1953" style="stroke:#181818;stroke-width:1.0;" width="10" x="962.5" y="901.3125"/><rect fill="#FFFFFF" height="350.5469" style="stroke:#181818;stroke-width:1.0;" width="10" x="1863.5" y="289.3281"/><rect fill="#FFFFFF" height="858.9766" style="stroke:#181818;stroke-width:1.0;" width="10" x="1863.5" y="994.9766"/><rect fill="#FFFFFF" height="37.5547" style="stroke:#181818;stroke-width:1.0;" width="10" x="2083" y="326.8828"/><rect fill="#FFFFFF" height="37.5547" style="stroke:#181818;stroke-width:1.0;" width="10" x="2232" y="401.9922"/><rect fill="#FFFFFF" height="84.1094" style="stroke:#181818;stroke-width:1.0;" width="10" x="2440.5" y="518.2109"/><rect fill="#FFFFFF" height="296.9922" style="stroke:#181818;stroke-width:1.0;" width="10" x="2708" y="1097.1953"/><rect fill="#FFFFFF" height="388.1016" style="stroke:#181818;stroke-width:1.0;" width="10" x="2969" y="1512.4063"/><rect fill="none" height="111.2188" style="stroke:#000000;stroke-width:1.5;" width="866" x="1718.5" y="454.5469"/><rect fill="none" height="134.7734" style="stroke:#000000;stroke-width:1.5;" width="1069.5" x="10" y="654.875"/><rect fill="none" height="901.0859" style="stroke:#000000;stroke-width:1.5;" width="2261" x="855.5" y="916.3125"/><rect fill="none" height="347.6563" style="stroke:#000000;stroke-width:1.5;" width="1133" x="1718.5" y="1009.9766"/><rect fill="none" height="324.1016" style="stroke:#000000;stroke-width:1.5;" width="1388" x="1718.5" y="1448.7422"/><line style="stroke:#181818;stroke-width:0.5;stroke-dasharray:5.0,5.0;" x1="91" x2="91" y1="88.5547" y2="1909.5078"/><line style="stroke:#181818;stroke-width:0.5;stroke-dasharray:5.0,5.0;" x1="967.5" x2="967.5" y1="88.5547" y2="1909.5078"/><line style="stroke:#181818;stroke-width:0.5;stroke-dasharray:5.0,5.0;" x1="1868.5" x2="1868.5" y1="245.4961" y2="1909.5078"/><line style="stroke:#181818;stroke-width:0.5;stroke-dasharray:5.0,5.0;" x1="2087.5" x2="2087.5" y1="88.5547" y2="1909.5078"/><line style="stroke:#181818;stroke-width:0.5;stroke-dasharray:5.0,5.0;" x1="2236.5" x2="2236.5" y1="88.5547" y2="1909.5078"/><line style="stroke:#181818;stroke-width:0.5;stroke-dasharray:5.0,5.0;" x1="2445.5" x2="2445.5" y1="88.5547" y2="1909.5078"/><line style="stroke:#181818;stroke-width:0.5;stroke-dasharray:5.0,5.0;" x1="2712.5" x2="2712.5" y1="88.5547" y2="1909.5078"/><line style="stroke:#181818;stroke-width:0.5;stroke-dasharray:5.0,5.0;" x1="2973.5" x2="2973.5" y1="88.5547" y2="1909.5078"/><text fill="#000000" font-family="sans-serif" font-size="20" lengthAdjust="spacing" textLength="137" x="20" y="84.3359">Store Manager</text><ellipse cx="91.5" cy="13.5" fill="#E3E3E3" rx="8" ry="8" style="stroke:#181818;stroke-width:0.5;"/><path d="M91.5,21.5 L91.5,48.5 M78.5,29.5 L104.5,29.5 M91.5,48.5 L78.5,63.5 M91.5,48.5 L104.5,63.5 " fill="none" style="stroke:#181818;stroke-width:0.5;"/><text fill="#000000" font-family="sans-serif" font-size="20" lengthAdjust="spacing" textLength="137" x="20" y="1927.8438">Store Manager</text><ellipse cx="91.5" cy="1940.5625" fill="#E3E3E3" rx="8" ry="8" style="stroke:#181818;stroke-width:0.5;"/><path d="M91.5,1948.5625 L91.5,1975.5625 M78.5,1956.5625 L104.5,1956.5625 M91.5,1975.5625 L78.5,1990.5625 M91.5,1975.5625 L104.5,1990.5625 " fill="none" style="stroke:#181818;stroke-width:0.5;"/><rect fill="#E3E3E3" height="37.5547" rx="2.5" ry="2.5" style="stroke:#181818;stroke-width:0.5;" width="204" x="865.5" y="50"/><text fill="#000000" font-family="sans-serif" font-size="20" lengthAdjust="spacing" textLength="190" x="872.5" y="76.3359">:LinearRegressionUI</text><rect fill="#E3E3E3" height="37.5547" rx="2.5" ry="2.5" style="stroke:#181818;stroke-width:0.5;" width="204" x="865.5" y="1908.5078"/><text fill="#000000" font-family="sans-serif" font-size="20" lengthAdjust="spacing" textLength="190" x="872.5" y="1934.8438">:LinearRegressionUI</text><rect fill="#E3E3E3" height="37.5547" rx="2.5" ry="2.5" style="stroke:#181818;stroke-width:0.5;" width="280" x="1728.5" y="1908.5078"/><text fill="#000000" font-family="sans-serif" font-size="20" lengthAdjust="spacing" textLength="266" x="1735.5" y="1934.8438">:LinearRegressionController</text><rect fill="#E3E3E3" height="37.5547" rx="2.5" ry="2.5" style="stroke:#181818;stroke-width:0.5;" width="139" x="2018.5" y="50"/><text fill="#000000" font-family="sans-serif" font-size="20" lengthAdjust="spacing" textLength="125" x="2025.5" y="76.3359">:Repositories</text><rect fill="#E3E3E3" height="37.5547" rx="2.5" ry="2.5" style="stroke:#181818;stroke-width:0.5;" width="139" x="2018.5" y="1908.5078"/><text fill="#000000" font-family="sans-serif" font-size="20" lengthAdjust="spacing" textLength="125" x="2025.5" y="1934.8438">:Repositories</text><rect fill="#E3E3E3" height="61.1094" rx="2.5" ry="2.5" style="stroke:#181818;stroke-width:0.5;" width="139" x="2167.5" y="26.4453"/><text fill="#000000" font-family="sans-serif" font-size="20" lengthAdjust="spacing" textLength="114" x="2180" y="52.7813">repositories</text><text fill="#000000" font-family="sans-serif" font-size="20" lengthAdjust="spacing" textLength="125" x="2174.5" y="76.3359">:Repositories</text><rect fill="#E3E3E3" height="61.1094" rx="2.5" ry="2.5" style="stroke:#181818;stroke-width:0.5;" width="139" x="2167.5" y="1908.5078"/><text fill="#000000" font-family="sans-serif" font-size="20" lengthAdjust="spacing" textLength="114" x="2180" y="1934.8438">repositories</text><text fill="#000000" font-family="sans-serif" font-size="20" lengthAdjust="spacing" textLength="125" x="2174.5" y="1958.3984">:Repositories</text><rect fill="#E3E3E3" height="61.1094" rx="2.5" ry="2.5" style="stroke:#181818;stroke-width:0.5;" width="258" x="2316.5" y="26.4453"/><text fill="#000000" font-family="sans-serif" font-size="20" lengthAdjust="spacing" textLength="244" x="2323.5" y="52.7813">advertisementRepository:</text><text fill="#000000" font-family="sans-serif" font-size="20" lengthAdjust="spacing" textLength="241" x="2325" y="76.3359">AdvertisementRepository</text><rect fill="#E3E3E3" height="61.1094" rx="2.5" ry="2.5" style="stroke:#181818;stroke-width:0.5;" width="258" x="2316.5" y="1908.5078"/><text fill="#000000" font-family="sans-serif" font-size="20" lengthAdjust="spacing" textLength="244" x="2323.5" y="1934.8438">advertisementRepository:</text><text fill="#000000" font-family="sans-serif" font-size="20" lengthAdjust="spacing" textLength="241" x="2325" y="1958.3984">AdvertisementRepository</text><rect fill="#E3E3E3" height="61.1094" rx="2.5" ry="2.5" style="stroke:#181818;stroke-width:0.5;" width="257" x="2584.5" y="26.4453"/><text fill="#000000" font-family="sans-serif" font-size="20" lengthAdjust="spacing" textLength="243" x="2591.5" y="52.7813">linearMultipleRegression:</text><text fill="#000000" font-family="sans-serif" font-size="20" lengthAdjust="spacing" textLength="242" x="2592" y="76.3359">LinearMultipleRegression</text><rect fill="#E3E3E3" height="61.1094" rx="2.5" ry="2.5" style="stroke:#181818;stroke-width:0.5;" width="257" x="2584.5" y="1908.5078"/><text fill="#000000" font-family="sans-serif" font-size="20" lengthAdjust="spacing" textLength="243" x="2591.5" y="1934.8438">linearMultipleRegression:</text><text fill="#000000" font-family="sans-serif" font-size="20" lengthAdjust="spacing" textLength="242" x="2592" y="1958.3984">LinearMultipleRegression</text><rect fill="#E3E3E3" height="61.1094" rx="2.5" ry="2.5" style="stroke:#181818;stroke-width:0.5;" width="245" x="2851.5" y="26.4453"/><text fill="#000000" font-family="sans-serif" font-size="20" lengthAdjust="spacing" textLength="231" x="2858.5" y="52.7813">linearSimpleRegression:</text><text fill="#000000" font-family="sans-serif" font-size="20" lengthAdjust="spacing" textLength="230" x="2859" y="76.3359">LinearSimpleRegression</text><rect fill="#E3E3E3" height="61.1094" rx="2.5" ry="2.5" style="stroke:#181818;stroke-width:0.5;" width="245" x="2851.5" y="1908.5078"/><text fill="#000000" font-family="sans-serif" font-size="20" lengthAdjust="spacing" textLength="231" x="2858.5" y="1934.8438">linearSimpleRegression:</text><text fill="#000000" font-family="sans-serif" font-size="20" lengthAdjust="spacing" textLength="230" x="2859" y="1958.3984">LinearSimpleRegression</text><rect fill="#FFFFFF" height="1801.9531" style="stroke:#181818;stroke-width:1.0;" width="10" x="86.5" y="98.5547"/><rect fill="#FFFFFF" height="37.5547" style="stroke:#181818;stroke-width:1.0;" width="10" x="962.5" y="128.1094"/><rect fill="#FFFFFF" height="578.4297" style="stroke:#181818;stroke-width:1.0;" width="10" x="962.5" y="203.2188"/><rect fill="#FFFFFF" height="37.5547" style="stroke:#181818;stroke-width:1.0;" width="10" x="962.5" y="826.2031"/><rect fill="#FFFFFF" height="990.1953" style="stroke:#181818;stroke-width:1.0;" width="10" x="962.5" y="901.3125"/><rect fill="#FFFFFF" height="350.5469" style="stroke:#181818;stroke-width:1.0;" width="10" x="1863.5" y="289.3281"/><rect fill="#FFFFFF" height="858.9766" style="stroke:#181818;stroke-width:1.0;" width="10" x="1863.5" y="994.9766"/><rect fill="#FFFFFF" height="37.5547" style="stroke:#181818;stroke-width:1.0;" width="10" x="2083" y="326.8828"/><rect fill="#FFFFFF" height="37.5547" style="stroke:#181818;stroke-width:1.0;" width="10" x="2232" y="401.9922"/><rect fill="#FFFFFF" height="84.1094" style="stroke:#181818;stroke-width:1.0;" width="10" x="2440.5" y="518.2109"/><rect fill="#FFFFFF" height="296.9922" style="stroke:#181818;stroke-width:1.0;" width="10" x="2708" y="1097.1953"/><rect fill="#FFFFFF" height="388.1016" style="stroke:#181818;stroke-width:1.0;" width="10" x="2969" y="1512.4063"/><polygon fill="#181818" points="950.5,124.1094,960.5,128.1094,950.5,132.1094,954.5,128.1094" style="stroke:#181818;stroke-width:1.0;"/><line style="stroke:#181818;stroke-width:1.0;" x1="96.5" x2="956.5" y1="128.1094" y2="128.1094"/><text fill="#000000" font-family="sans-serif" font-size="20" font-weight="bold" lengthAdjust="spacing" textLength="13" x="103.5" y="121.8906">1</text><text fill="#000000" font-family="sans-serif" font-size="20" lengthAdjust="spacing" textLength="202" x="120.5" y="121.8906">asks to analyse deals</text><polygon fill="#181818" points="107.5,161.6641,97.5,165.6641,107.5,169.6641,103.5,165.6641" style="stroke:#181818;stroke-width:1.0;"/><line style="stroke:#181818;stroke-width:1.0;stroke-dasharray:2.0,2.0;" x1="101.5" x2="966.5" y1="165.6641" y2="165.6641"/><text fill="#000000" font-family="sans-serif" font-size="20" font-weight="bold" lengthAdjust="spacing" textLength="13" x="113.5" y="159.4453">2</text><text fill="#000000" font-family="sans-serif" font-size="20" lengthAdjust="spacing" textLength="510" x="130.5" y="159.4453">shows and asks to select the type of linear regression</text><polygon fill="#181818" points="950.5,199.2188,960.5,203.2188,950.5,207.2188,954.5,203.2188" style="stroke:#181818;stroke-width:1.0;"/><line style="stroke:#181818;stroke-width:1.0;" x1="96.5" x2="956.5" y1="203.2188" y2="203.2188"/><text fill="#000000" font-family="sans-serif" font-size="20" font-weight="bold" lengthAdjust="spacing" textLength="13" x="103.5" y="197">3</text><text fill="#000000" font-family="sans-serif" font-size="20" lengthAdjust="spacing" textLength="303" x="120.5" y="197">selects type of linear regression</text><polygon fill="#181818" points="1716.5,236.7734,1726.5,240.7734,1716.5,244.7734,1720.5,240.7734" style="stroke:#181818;stroke-width:1.0;"/><line style="stroke:#181818;stroke-width:1.0;" x1="972.5" x2="1722.5" y1="240.7734" y2="240.7734"/><text fill="#000000" font-family="sans-serif" font-size="20" font-weight="bold" lengthAdjust="spacing" textLength="13" x="979.5" y="234.5547">4</text><text fill="#000000" font-family="sans-serif" font-size="20" lengthAdjust="spacing" textLength="58" x="996.5" y="234.5547">create</text><rect fill="#E3E3E3" height="37.5547" rx="2.5" ry="2.5" style="stroke:#181818;stroke-width:0.5;" width="280" x="1728.5" y="211.2188"/><text fill="#000000" font-family="sans-serif" font-size="20" lengthAdjust="spacing" textLength="266" x="1735.5" y="237.5547">:LinearRegressionController</text><polygon fill="#181818" points="1851.5,285.3281,1861.5,289.3281,1851.5,293.3281,1855.5,289.3281" style="stroke:#181818;stroke-width:1.0;"/><line style="stroke:#181818;stroke-width:1.0;" x1="972.5" x2="1857.5" y1="289.3281" y2="289.3281"/><text fill="#000000" font-family="sans-serif" font-size="20" font-weight="bold" lengthAdjust="spacing" textLength="13" x="979.5" y="283.1094">5</text><text fill="#000000" font-family="sans-serif" font-size="20" lengthAdjust="spacing" textLength="377" x="996.5" y="283.1094">getRegression(typeOfLinearRegression)</text><polygon fill="#181818" points="2071,322.8828,2081,326.8828,2071,330.8828,2075,326.8828" style="stroke:#181818;stroke-width:1.0;"/><line style="stroke:#181818;stroke-width:1.0;" x1="1873.5" x2="2077" y1="326.8828" y2="326.8828"/><text fill="#000000" font-family="sans-serif" font-size="20" font-weight="bold" lengthAdjust="spacing" textLength="13" x="1880.5" y="320.6641">6</text><text fill="#000000" font-family="sans-serif" font-size="20" lengthAdjust="spacing" textLength="123" x="1897.5" y="320.6641">getInstance()</text><polygon fill="#181818" points="1884.5,360.4375,1874.5,364.4375,1884.5,368.4375,1880.5,364.4375" style="stroke:#181818;stroke-width:1.0;"/><line style="stroke:#181818;stroke-width:1.0;stroke-dasharray:2.0,2.0;" x1="1878.5" x2="2087" y1="364.4375" y2="364.4375"/><text fill="#000000" font-family="sans-serif" font-size="20" font-weight="bold" lengthAdjust="spacing" textLength="13" x="1890.5" y="358.2188">7</text><text fill="#000000" font-family="sans-serif" font-size="20" lengthAdjust="spacing" textLength="114" x="1907.5" y="358.2188">repositories</text><polygon fill="#181818" points="2220,397.9922,2230,401.9922,2220,405.9922,2224,401.9922" style="stroke:#181818;stroke-width:1.0;"/><line style="stroke:#181818;stroke-width:1.0;" x1="1873.5" x2="2226" y1="401.9922" y2="401.9922"/><text fill="#000000" font-family="sans-serif" font-size="20" font-weight="bold" lengthAdjust="spacing" textLength="13" x="1880.5" y="395.7734">8</text><text fill="#000000" font-family="sans-serif" font-size="20" lengthAdjust="spacing" textLength="285" x="1897.5" y="395.7734">getAdvertisementRepository()</text><polygon fill="#181818" points="1884.5,435.5469,1874.5,439.5469,1884.5,443.5469,1880.5,439.5469" style="stroke:#181818;stroke-width:1.0;"/><line style="stroke:#181818;stroke-width:1.0;stroke-dasharray:2.0,2.0;" x1="1878.5" x2="2236" y1="439.5469" y2="439.5469"/><text fill="#000000" font-family="sans-serif" font-size="20" font-weight="bold" lengthAdjust="spacing" textLength="13" x="1890.5" y="433.3281">9</text><text fill="#000000" font-family="sans-serif" font-size="20" lengthAdjust="spacing" textLength="241" x="1907.5" y="433.3281">AdvertisementRepository</text><path d="M1718.5,454.5469 L1790.5,454.5469 L1790.5,470.1016 L1780.5,480.1016 L1718.5,480.1016 L1718.5,454.5469 " fill="#EEEEEE" style="stroke:#000000;stroke-width:1.5;"/><rect fill="none" height="111.2188" style="stroke:#000000;stroke-width:1.5;" width="866" x="1718.5" y="454.5469"/><text fill="#000000" font-family="sans-serif" font-size="20" font-weight="bold" lengthAdjust="spacing" textLength="27" x="1733.5" y="474.8828">alt</text><text fill="#000000" font-family="sans-serif" font-size="20" font-weight="bold" lengthAdjust="spacing" textLength="500" x="1805.5" y="475.8828">[typeOfLinearRegression = Multiple Regression]</text><polygon fill="#181818" points="2428.5,514.2109,2438.5,518.2109,2428.5,522.2109,2432.5,518.2109" style="stroke:#181818;stroke-width:1.0;"/><line style="stroke:#181818;stroke-width:1.0;" x1="1873.5" x2="2434.5" y1="518.2109" y2="518.2109"/><text fill="#000000" font-family="sans-serif" font-size="20" font-weight="bold" lengthAdjust="spacing" textLength="26" x="1880.5" y="511.9922">10</text><text fill="#000000" font-family="sans-serif" font-size="20" lengthAdjust="spacing" textLength="227" x="1910.5" y="511.9922">getMultipleRegression()</text><line style="stroke:#000000;stroke-width:1.0;stroke-dasharray:2.0,2.0;" x1="1718.5" x2="2584.5" y1="527.2109" y2="527.2109"/><polygon fill="#181818" points="2428.5,553.7656,2438.5,557.7656,2428.5,561.7656,2432.5,557.7656" style="stroke:#181818;stroke-width:1.0;"/><line style="stroke:#181818;stroke-width:1.0;" x1="1873.5" x2="2434.5" y1="557.7656" y2="557.7656"/><text fill="#000000" font-family="sans-serif" font-size="20" font-weight="bold" lengthAdjust="spacing" textLength="26" x="1880.5" y="551.5469">11</text><text fill="#000000" font-family="sans-serif" font-size="20" lengthAdjust="spacing" textLength="443" x="1910.5" y="551.5469">getSimpleRegression(typeOfLinearRegression)</text><polygon fill="#181818" points="1884.5,598.3203,1874.5,602.3203,1884.5,606.3203,1880.5,602.3203" style="stroke:#181818;stroke-width:1.0;"/><line style="stroke:#181818;stroke-width:1.0;stroke-dasharray:2.0,2.0;" x1="1878.5" x2="2444.5" y1="602.3203" y2="602.3203"/><text fill="#000000" font-family="sans-serif" font-size="20" font-weight="bold" lengthAdjust="spacing" textLength="26" x="1890.5" y="596.1016">12</text><text fill="#000000" font-family="sans-serif" font-size="20" lengthAdjust="spacing" textLength="100" x="1920.5" y="596.1016">regression</text><polygon fill="#181818" points="983.5,635.875,973.5,639.875,983.5,643.875,979.5,639.875" style="stroke:#181818;stroke-width:1.0;"/><line style="stroke:#181818;stroke-width:1.0;stroke-dasharray:2.0,2.0;" x1="977.5" x2="1867.5" y1="639.875" y2="639.875"/><text fill="#000000" font-family="sans-serif" font-size="20" font-weight="bold" lengthAdjust="spacing" textLength="26" x="989.5" y="633.6563">13</text><text fill="#000000" font-family="sans-serif" font-size="20" lengthAdjust="spacing" textLength="100" x="1019.5" y="633.6563">regression</text><path d="M10,654.875 L82,654.875 L82,670.4297 L72,680.4297 L10,680.4297 L10,654.875 " fill="#EEEEEE" style="stroke:#000000;stroke-width:1.5;"/><rect fill="none" height="134.7734" style="stroke:#000000;stroke-width:1.5;" width="1069.5" x="10" y="654.875"/><text fill="#000000" font-family="sans-serif" font-size="20" font-weight="bold" lengthAdjust="spacing" textLength="27" x="25" y="675.2109">alt</text><text fill="#000000" font-family="sans-serif" font-size="20" font-weight="bold" lengthAdjust="spacing" textLength="504" x="97" y="676.2109">[type of linear regression = multiple regression]</text><polygon fill="#181818" points="107.5,738.0938,97.5,742.0938,107.5,746.0938,103.5,742.0938" style="stroke:#181818;stroke-width:1.0;"/><line style="stroke:#181818;stroke-width:1.0;stroke-dasharray:2.0,2.0;" x1="101.5" x2="961.5" y1="742.0938" y2="742.0938"/><text fill="#000000" font-family="sans-serif" font-size="20" font-weight="bold" lengthAdjust="spacing" textLength="26" x="113.5" y="724.0977">14</text><text fill="#000000" font-family="sans-serif" font-size="20" lengthAdjust="spacing" textLength="598" x="143.5" y="712.3203">requests data(confidence interval, area, distance to city center,</text><text fill="#000000" font-family="sans-serif" font-size="20" lengthAdjust="spacing" textLength="806" x="149.5" y="735.875">number of bedrooms, number of bathrooms, number of parking spaces, beta value)</text><line style="stroke:#000000;stroke-width:1.0;stroke-dasharray:2.0,2.0;" x1="10" x2="1079.5" y1="751.0938" y2="751.0938"/><polygon fill="#181818" points="107.5,777.6484,97.5,781.6484,107.5,785.6484,103.5,781.6484" style="stroke:#181818;stroke-width:1.0;"/><line style="stroke:#181818;stroke-width:1.0;stroke-dasharray:2.0,2.0;" x1="101.5" x2="966.5" y1="781.6484" y2="781.6484"/><text fill="#000000" font-family="sans-serif" font-size="20" font-weight="bold" lengthAdjust="spacing" textLength="26" x="113.5" y="775.4297">15</text><text fill="#000000" font-family="sans-serif" font-size="20" lengthAdjust="spacing" textLength="794" x="143.5" y="775.4297">requests data(confidence interval, independent variable in study, a Value , b Value)</text><polygon fill="#181818" points="950.5,822.2031,960.5,826.2031,950.5,830.2031,954.5,826.2031" style="stroke:#181818;stroke-width:1.0;"/><line style="stroke:#181818;stroke-width:1.0;" x1="96.5" x2="956.5" y1="826.2031" y2="826.2031"/><text fill="#000000" font-family="sans-serif" font-size="20" font-weight="bold" lengthAdjust="spacing" textLength="26" x="103.5" y="819.9844">16</text><text fill="#000000" font-family="sans-serif" font-size="20" lengthAdjust="spacing" textLength="99" x="133.5" y="819.9844">types data</text><polygon fill="#181818" points="107.5,859.7578,97.5,863.7578,107.5,867.7578,103.5,863.7578" style="stroke:#181818;stroke-width:1.0;"/><line style="stroke:#181818;stroke-width:1.0;stroke-dasharray:2.0,2.0;" x1="101.5" x2="966.5" y1="863.7578" y2="863.7578"/><text fill="#000000" font-family="sans-serif" font-size="20" font-weight="bold" lengthAdjust="spacing" textLength="26" x="113.5" y="857.5391">17</text><text fill="#000000" font-family="sans-serif" font-size="20" lengthAdjust="spacing" textLength="586" x="143.5" y="857.5391">shows linear regression operations list and asks to select one</text><polygon fill="#181818" points="950.5,897.3125,960.5,901.3125,950.5,905.3125,954.5,901.3125" style="stroke:#181818;stroke-width:1.0;"/><line style="stroke:#181818;stroke-width:1.0;" x1="96.5" x2="956.5" y1="901.3125" y2="901.3125"/><text fill="#000000" font-family="sans-serif" font-size="20" font-weight="bold" lengthAdjust="spacing" textLength="26" x="103.5" y="895.0938">18</text><text fill="#000000" font-family="sans-serif" font-size="20" lengthAdjust="spacing" textLength="454" x="133.5" y="895.0938">selects linear regression operation and submits</text><path d="M855.5,916.3125 L927.5,916.3125 L927.5,931.8672 L917.5,941.8672 L855.5,941.8672 L855.5,916.3125 " fill="#EEEEEE" style="stroke:#000000;stroke-width:1.5;"/><rect fill="none" height="901.0859" style="stroke:#000000;stroke-width:1.5;" width="2261" x="855.5" y="916.3125"/><text fill="#000000" font-family="sans-serif" font-size="20" font-weight="bold" lengthAdjust="spacing" textLength="27" x="870.5" y="936.6484">alt</text><polygon fill="#181818" points="1851.5,990.9766,1861.5,994.9766,1851.5,998.9766,1855.5,994.9766" style="stroke:#181818;stroke-width:1.0;"/><line style="stroke:#181818;stroke-width:1.0;" x1="972.5" x2="1857.5" y1="994.9766" y2="994.9766"/><text fill="#000000" font-family="sans-serif" font-size="20" font-weight="bold" lengthAdjust="spacing" textLength="26" x="979.5" y="976.9805">19</text><text fill="#000000" font-family="sans-serif" font-size="20" lengthAdjust="spacing" textLength="515" x="1009.5" y="965.2031">regressionOperations (IC, area, distanceToCityCenter,</text><text fill="#000000" font-family="sans-serif" font-size="20" lengthAdjust="spacing" textLength="836" x="1015.5" y="988.7578">numOfBedrooms, numOfBathrooms, numOfParkingSpaces, betaValue, linearOperation)</text><path d="M1718.5,1009.9766 L1790.5,1009.9766 L1790.5,1025.5313 L1780.5,1035.5313 L1718.5,1035.5313 L1718.5,1009.9766 " fill="#EEEEEE" style="stroke:#000000;stroke-width:1.5;"/><rect fill="none" height="347.6563" style="stroke:#000000;stroke-width:1.5;" width="1133" x="1718.5" y="1009.9766"/><text fill="#000000" font-family="sans-serif" font-size="20" font-weight="bold" lengthAdjust="spacing" textLength="27" x="1733.5" y="1030.3125">alt</text><text fill="#000000" font-family="sans-serif" font-size="20" font-weight="bold" lengthAdjust="spacing" textLength="412" x="1805.5" y="1031.3125">[linearOperation = "Make a prediction"]</text><polygon fill="#181818" points="2696,1093.1953,2706,1097.1953,2696,1101.1953,2700,1097.1953" style="stroke:#181818;stroke-width:1.0;"/><line style="stroke:#181818;stroke-width:1.0;" x1="1873.5" x2="2702" y1="1097.1953" y2="1097.1953"/><text fill="#000000" font-family="sans-serif" font-size="20" font-weight="bold" lengthAdjust="spacing" textLength="26" x="1880.5" y="1079.1992">20</text><text fill="#000000" font-family="sans-serif" font-size="20" lengthAdjust="spacing" textLength="552" x="1910.5" y="1067.4219">multipleRegressionPrediction(area, distanceToCityCenter,</text><text fill="#000000" font-family="sans-serif" font-size="20" lengthAdjust="spacing" textLength="567" x="1916.5" y="1090.9766">numOfBedrooms, numOfBathrooms, numOfParkingSpaces)</text><line style="stroke:#000000;stroke-width:1.0;stroke-dasharray:2.0,2.0;" x1="1718.5" x2="2851.5" y1="1106.1953" y2="1106.1953"/><text fill="#000000" font-family="sans-serif" font-size="20" font-weight="bold" lengthAdjust="spacing" textLength="368" x="1723.5" y="1125.5313">[linearOperation = "Get more Info"]</text><polygon fill="#181818" points="2696,1156.3047,2706,1160.3047,2696,1164.3047,2700,1160.3047" style="stroke:#181818;stroke-width:1.0;"/><line style="stroke:#181818;stroke-width:1.0;" x1="1873.5" x2="2702" y1="1160.3047" y2="1160.3047"/><text fill="#000000" font-family="sans-serif" font-size="20" font-weight="bold" lengthAdjust="spacing" textLength="26" x="1880.5" y="1154.0859">21</text><text fill="#000000" font-family="sans-serif" font-size="20" lengthAdjust="spacing" textLength="236" x="1910.5" y="1154.0859">multipleRegressionInfo()</text><line style="stroke:#000000;stroke-width:1.0;stroke-dasharray:2.0,2.0;" x1="1718.5" x2="2851.5" y1="1169.3047" y2="1169.3047"/><text fill="#000000" font-family="sans-serif" font-size="20" font-weight="bold" lengthAdjust="spacing" textLength="398" x="1723.5" y="1188.6406">[linearOperation = "Hypothesis tests"]</text><polygon fill="#181818" points="2696,1219.4141,2706,1223.4141,2696,1227.4141,2700,1223.4141" style="stroke:#181818;stroke-width:1.0;"/><line style="stroke:#181818;stroke-width:1.0;" x1="1873.5" x2="2702" y1="1223.4141" y2="1223.4141"/><text fill="#000000" font-family="sans-serif" font-size="20" font-weight="bold" lengthAdjust="spacing" textLength="26" x="1880.5" y="1217.1953">22</text><text fill="#000000" font-family="sans-serif" font-size="20" lengthAdjust="spacing" textLength="473" x="1910.5" y="1217.1953">multipleRegressionHypothesisTest(IC, betaValue)</text><line style="stroke:#000000;stroke-width:1.0;stroke-dasharray:2.0,2.0;" x1="1718.5" x2="2851.5" y1="1232.4141" y2="1232.4141"/><text fill="#000000" font-family="sans-serif" font-size="20" font-weight="bold" lengthAdjust="spacing" textLength="428" x="1723.5" y="1251.75">[linearOperation = "Confidence Interval"]</text><polygon fill="#181818" points="2696,1282.5234,2706,1286.5234,2696,1290.5234,2700,1286.5234" style="stroke:#181818;stroke-width:1.0;"/><line style="stroke:#181818;stroke-width:1.0;" x1="1873.5" x2="2702" y1="1286.5234" y2="1286.5234"/><text fill="#000000" font-family="sans-serif" font-size="20" font-weight="bold" lengthAdjust="spacing" textLength="26" x="1880.5" y="1280.3047">23</text><text fill="#000000" font-family="sans-serif" font-size="20" lengthAdjust="spacing" textLength="327" x="1910.5" y="1280.3047">multipleRegressionConfidence(IC)</text><line style="stroke:#000000;stroke-width:1.0;stroke-dasharray:2.0,2.0;" x1="1718.5" x2="2851.5" y1="1295.5234" y2="1295.5234"/><text fill="#000000" font-family="sans-serif" font-size="20" font-weight="bold" lengthAdjust="spacing" textLength="359" x="1723.5" y="1314.8594">[linearOperation = "ANOVA table"]</text><polygon fill="#181818" points="2696,1345.6328,2706,1349.6328,2696,1353.6328,2700,1349.6328" style="stroke:#181818;stroke-width:1.0;"/><line style="stroke:#181818;stroke-width:1.0;" x1="1873.5" x2="2702" y1="1349.6328" y2="1349.6328"/><text fill="#000000" font-family="sans-serif" font-size="20" font-weight="bold" lengthAdjust="spacing" textLength="26" x="1880.5" y="1343.4141">24</text><text fill="#000000" font-family="sans-serif" font-size="20" lengthAdjust="spacing" textLength="278" x="1910.5" y="1343.4141">multipleRegressionAnova(IC)</text><polygon fill="#181818" points="1884.5,1390.1875,1874.5,1394.1875,1884.5,1398.1875,1880.5,1394.1875" style="stroke:#181818;stroke-width:1.0;"/><line style="stroke:#181818;stroke-width:1.0;stroke-dasharray:2.0,2.0;" x1="1878.5" x2="2712" y1="1394.1875" y2="1394.1875"/><text fill="#000000" font-family="sans-serif" font-size="20" font-weight="bold" lengthAdjust="spacing" textLength="26" x="1890.5" y="1387.9688">25</text><text fill="#000000" font-family="sans-serif" font-size="20" lengthAdjust="spacing" textLength="151" x="1920.5" y="1387.9688">operationResult</text><line style="stroke:#000000;stroke-width:1.0;stroke-dasharray:2.0,2.0;" x1="855.5" x2="3116.5" y1="1403.1875" y2="1403.1875"/><polygon fill="#181818" points="1851.5,1429.7422,1861.5,1433.7422,1851.5,1437.7422,1855.5,1433.7422" style="stroke:#181818;stroke-width:1.0;"/><line style="stroke:#181818;stroke-width:1.0;" x1="972.5" x2="1857.5" y1="1433.7422" y2="1433.7422"/><text fill="#000000" font-family="sans-serif" font-size="20" font-weight="bold" lengthAdjust="spacing" textLength="26" x="979.5" y="1427.5234">26</text><text fill="#000000" font-family="sans-serif" font-size="20" lengthAdjust="spacing" textLength="586" x="1009.5" y="1427.5234">regressionOperations (IC, x, linearOperation, aValue, bValue)</text><path d="M1718.5,1448.7422 L1790.5,1448.7422 L1790.5,1464.2969 L1780.5,1474.2969 L1718.5,1474.2969 L1718.5,1448.7422 " fill="#EEEEEE" style="stroke:#000000;stroke-width:1.5;"/><rect fill="none" height="324.1016" style="stroke:#000000;stroke-width:1.5;" width="1388" x="1718.5" y="1448.7422"/><text fill="#000000" font-family="sans-serif" font-size="20" font-weight="bold" lengthAdjust="spacing" textLength="27" x="1733.5" y="1469.0781">alt</text><text fill="#000000" font-family="sans-serif" font-size="20" font-weight="bold" lengthAdjust="spacing" textLength="412" x="1805.5" y="1470.0781">[linearOperation = "Make a prediction"]</text><polygon fill="#181818" points="2957,1508.4063,2967,1512.4063,2957,1516.4063,2961,1512.4063" style="stroke:#181818;stroke-width:1.0;"/><line style="stroke:#181818;stroke-width:1.0;" x1="1873.5" x2="2963" y1="1512.4063" y2="1512.4063"/><text fill="#000000" font-family="sans-serif" font-size="20" font-weight="bold" lengthAdjust="spacing" textLength="26" x="1880.5" y="1506.1875">27</text><text fill="#000000" font-family="sans-serif" font-size="20" lengthAdjust="spacing" textLength="292" x="1910.5" y="1506.1875">simpleRegressionPrediction(x)</text><line style="stroke:#000000;stroke-width:1.0;stroke-dasharray:2.0,2.0;" x1="1718.5" x2="3106.5" y1="1521.4063" y2="1521.4063"/><text fill="#000000" font-family="sans-serif" font-size="20" font-weight="bold" lengthAdjust="spacing" textLength="368" x="1723.5" y="1540.7422">[linearOperation = "Get more Info"]</text><polygon fill="#181818" points="2957,1571.5156,2967,1575.5156,2957,1579.5156,2961,1575.5156" style="stroke:#181818;stroke-width:1.0;"/><line style="stroke:#181818;stroke-width:1.0;" x1="1873.5" x2="2963" y1="1575.5156" y2="1575.5156"/><text fill="#000000" font-family="sans-serif" font-size="20" font-weight="bold" lengthAdjust="spacing" textLength="26" x="1880.5" y="1569.2969">28</text><text fill="#000000" font-family="sans-serif" font-size="20" lengthAdjust="spacing" textLength="221" x="1910.5" y="1569.2969">simpleRegressionInfo()</text><line style="stroke:#000000;stroke-width:1.0;stroke-dasharray:2.0,2.0;" x1="1718.5" x2="3106.5" y1="1584.5156" y2="1584.5156"/><text fill="#000000" font-family="sans-serif" font-size="20" font-weight="bold" lengthAdjust="spacing" textLength="398" x="1723.5" y="1603.8516">[linearOperation = "Hypothesis tests"]</text><polygon fill="#181818" points="2957,1634.625,2967,1638.625,2957,1642.625,2961,1638.625" style="stroke:#181818;stroke-width:1.0;"/><line style="stroke:#181818;stroke-width:1.0;" x1="1873.5" x2="2963" y1="1638.625" y2="1638.625"/><text fill="#000000" font-family="sans-serif" font-size="20" font-weight="bold" lengthAdjust="spacing" textLength="26" x="1880.5" y="1632.4063">29</text><text fill="#000000" font-family="sans-serif" font-size="20" lengthAdjust="spacing" textLength="505" x="1910.5" y="1632.4063">simpleRegressionHypothesisTest(aValue, bValue, IC)</text><line style="stroke:#000000;stroke-width:1.0;stroke-dasharray:2.0,2.0;" x1="1718.5" x2="3106.5" y1="1647.625" y2="1647.625"/><text fill="#000000" font-family="sans-serif" font-size="20" font-weight="bold" lengthAdjust="spacing" textLength="428" x="1723.5" y="1666.9609">[linearOperation = "Confidence Interval"]</text><polygon fill="#181818" points="2957,1697.7344,2967,1701.7344,2957,1705.7344,2961,1701.7344" style="stroke:#181818;stroke-width:1.0;"/><line style="stroke:#181818;stroke-width:1.0;" x1="1873.5" x2="2963" y1="1701.7344" y2="1701.7344"/><text fill="#000000" font-family="sans-serif" font-size="20" font-weight="bold" lengthAdjust="spacing" textLength="26" x="1880.5" y="1695.5156">30</text><text fill="#000000" font-family="sans-serif" font-size="20" lengthAdjust="spacing" textLength="312" x="1910.5" y="1695.5156">simpleRegressionConfidence(IC)</text><line style="stroke:#000000;stroke-width:1.0;stroke-dasharray:2.0,2.0;" x1="1718.5" x2="3106.5" y1="1710.7344" y2="1710.7344"/><text fill="#000000" font-family="sans-serif" font-size="20" font-weight="bold" lengthAdjust="spacing" textLength="359" x="1723.5" y="1730.0703">[linearOperation = "ANOVA table"]</text><polygon fill="#181818" points="2957,1760.8438,2967,1764.8438,2957,1768.8438,2961,1764.8438" style="stroke:#181818;stroke-width:1.0;"/><line style="stroke:#181818;stroke-width:1.0;" x1="1873.5" x2="2963" y1="1764.8438" y2="1764.8438"/><text fill="#000000" font-family="sans-serif" font-size="20" font-weight="bold" lengthAdjust="spacing" textLength="26" x="1880.5" y="1758.625">31</text><text fill="#000000" font-family="sans-serif" font-size="20" lengthAdjust="spacing" textLength="243" x="1910.5" y="1758.625">simpleRegressionAnova()</text><polygon fill="#181818" points="1884.5,1805.3984,1874.5,1809.3984,1884.5,1813.3984,1880.5,1809.3984" style="stroke:#181818;stroke-width:1.0;"/><line style="stroke:#181818;stroke-width:1.0;stroke-dasharray:2.0,2.0;" x1="1878.5" x2="2968" y1="1809.3984" y2="1809.3984"/><text fill="#000000" font-family="sans-serif" font-size="20" font-weight="bold" lengthAdjust="spacing" textLength="26" x="1890.5" y="1803.1797">32</text><text fill="#000000" font-family="sans-serif" font-size="20" lengthAdjust="spacing" textLength="151" x="1920.5" y="1803.1797">operationResult</text><polygon fill="#181818" points="983.5,1849.9531,973.5,1853.9531,983.5,1857.9531,979.5,1853.9531" style="stroke:#181818;stroke-width:1.0;"/><line style="stroke:#181818;stroke-width:1.0;stroke-dasharray:2.0,2.0;" x1="977.5" x2="1867.5" y1="1853.9531" y2="1853.9531"/><text fill="#000000" font-family="sans-serif" font-size="20" font-weight="bold" lengthAdjust="spacing" textLength="26" x="989.5" y="1847.7344">33</text><text fill="#000000" font-family="sans-serif" font-size="20" lengthAdjust="spacing" textLength="151" x="1019.5" y="1847.7344">operationResult</text><polygon fill="#181818" points="107.5,1887.5078,97.5,1891.5078,107.5,1895.5078,103.5,1891.5078" style="stroke:#181818;stroke-width:1.0;"/><line style="stroke:#181818;stroke-width:1.0;stroke-dasharray:2.0,2.0;" x1="101.5" x2="966.5" y1="1891.5078" y2="1891.5078"/><text fill="#000000" font-family="sans-serif" font-size="20" font-weight="bold" lengthAdjust="spacing" textLength="26" x="113.5" y="1885.2891">34</text><text fill="#000000" font-family="sans-serif" font-size="20" lengthAdjust="spacing" textLength="418" x="143.5" y="1885.2891">shows results of linear regression operation</text><!--SRC=[hLTDRzf04BtpAqQSI4IbgaUaHagHsY8r9GffJxaiza1MsBlkxfA4_lhEhh6zjjSs9N28O3_Ul9sFDnEzuo9ZYgM9Z7OOGumRja_CLodCYlz5-FHnf8iZa4eXesSbKmIZzkZjP2pQiIskp251K1WP9hQ9Vq0_irY-Sh653KiqZaPiRwJOfsjKz3qoKi5uHNyHxfWW93K6fi6j71T616Hun3Cc38ndFxX0fXvmgr1hBiMlXRlnQp5mRaulKp99ZXQgdurx3vX9pSa-H-rE-WlriyhRUHBjcwhp9ejVa7vgJ56OyjvXzYHkmpiEZ_PefOwKk6VUKUXubc3rN8BwqR7bi6ZpZYSc1BRYQHYgkL40sNKNJFx23DQ3DmBw-2lmuOQ21JEwkzDW9D1oSj186KW9uewNI1HKjq3dFz2r6ioCKak-QheUbr0Q4qf1CC-KfuSCGMuWVnA5eY3j0CbMqqQGOmwe1z22d0lUDrwgNLyJPgIGpdKVeYDRD9MN9zRuSjFCvwiIe4N1o-tM8SyEMVLJTaPM5q9J1KSuQQFtVKhBjLhfXV1Fkk1Mn6Rrmkb3yU9ukkcw2tnRkUixId309oKHTJ8HrUq3Oj91urH_X6cmn40ud-0p5581rMfri-wrN8foVxKLndDLoUSeNgCA4Lq_6CPloavdGLJ88gv-7A5Q_WqKiUU-Wcw8Ng4E_GYXAYpS7zGIYa1QH4058X1GGSlXpnurILJC39j4KcnuZ5J1m8L1zSAIAJ0Id2d4F2zjgvCHDmU8q9wOFWd8sx7bjCPOIPdggR_6p7DhaTh6pZPrJGC0qiuQ3GEojiUhhW2_znbSn9XHP8asMLAShHEx3ThiumEz4dvRyq1Syc_jSgshVZ1PWbt0HYndDYptNMsg7MsPeMA6ljbDRKADJ0eSXSdt4oxQLezHPqxlroatklzLbBEzpQf2NrOlcYpcpSHxb7DAkxcVTSlD5p_Xw6SjrvQR-ppDLbwMkTXEZqyhBPxP3MqzDf2e2iTtR8UKK9d2c4TsSJpKI8_Z5BaZRQdXVGapkR17UbvTp7TjuhOgGu_-XeO6VHh45s8Zt_LW2p2vQY5q6Vv-o2IDR9fJwbiDQDi-tNI5zKXGBWlBf3cTqRpIdyLHVyRdSwhGYC_f96v_Bd_VWh4oznwFt0hvmeA6wyfNV0giLhyifUC1DLdfKzSo-SATuBz4vArLwoGiHn5O5t6zP64FvhsTHwp8DiOIhypVXiTdtrVv_q_3JCwjt7DVr577SB6wFfTOeyhhwJ25OB9ViFJFfJqW1709OJYNMouJLoSaOKWq0YBYx0oAI7WA2mtRNV8pC77tpMJA8UdmC5xQwvZ0_W40]--></g></svg>