<?xml version="1.0" encoding="UTF-8" standalone="no"?><svg xmlns="http://www.w3.org/2000/svg" xmlns:xlink="http://www.w3.org/1999/xlink" contentStyleType="text/css" height="1305px" preserveAspectRatio="none" style="width:1548px;height:1305px;background:#FFFFFF;" version="1.1" viewBox="0 0 1548 1305" width="1548px" zoomAndPan="magnify"><defs/><g><!--class LinearRegressionUI--><g id="elem_LinearRegressionUI"><rect codeLine="8" fill="#F1F1F1" height="50" id="LinearRegressionUI" rx="2.5" ry="2.5" style="stroke:#181818;stroke-width:0.5;" width="218" x="410.5" y="7"/><ellipse cx="426.5" cy="24" fill="#ADD1B2" rx="12" ry="12" style="stroke:#181818;stroke-width:1.0;"/><path d="M429.3066,31.0801 Q428.623,31.4316 427.8711,31.6074 Q427.1191,31.7832 426.2891,31.7832 Q423.3398,31.7832 421.7871,29.8398 Q420.2344,27.8965 420.2344,24.2246 Q420.2344,20.543 421.7871,18.5996 Q423.3398,16.6563 426.2891,16.6563 Q427.1191,16.6563 427.8809,16.832 Q428.6426,17.0078 429.3066,17.3594 L429.3066,20.5625 Q428.5645,19.8789 427.8662,19.5615 Q427.168,19.2441 426.4258,19.2441 Q424.8438,19.2441 424.0381,20.499 Q423.2324,21.7539 423.2324,24.2246 Q423.2324,26.6855 424.0381,27.9404 Q424.8438,29.1953 426.4258,29.1953 Q427.168,29.1953 427.8662,28.8779 Q428.5645,28.5605 429.3066,27.877 Z " fill="#000000"/><text fill="#000000" font-family="sans-serif" font-size="20" lengthAdjust="spacing" textLength="184" x="441.5" y="31.5586">LinearRegressionUI</text><line style="stroke:#181818;stroke-width:0.5;" x1="411.5" x2="627.5" y1="41" y2="41"/><line style="stroke:#181818;stroke-width:0.5;" x1="411.5" x2="627.5" y1="49" y2="49"/></g><!--class LinearRegressionController--><g id="elem_LinearRegressionController"><rect codeLine="10" fill="#F1F1F1" height="120.6641" id="LinearRegressionController" rx="2.5" ry="2.5" style="stroke:#181818;stroke-width:0.5;" width="722" x="158.5" y="117"/><ellipse cx="385" cy="134" fill="#ADD1B2" rx="12" ry="12" style="stroke:#181818;stroke-width:1.0;"/><path d="M387.8066,141.0801 Q387.123,141.4316 386.3711,141.6074 Q385.6191,141.7832 384.7891,141.7832 Q381.8398,141.7832 380.2871,139.8398 Q378.7344,137.8965 378.7344,134.2246 Q378.7344,130.543 380.2871,128.5996 Q381.8398,126.6563 384.7891,126.6563 Q385.6191,126.6563 386.3809,126.832 Q387.1426,127.0078 387.8066,127.3594 L387.8066,130.5625 Q387.0645,129.8789 386.3662,129.5615 Q385.668,129.2441 384.9258,129.2441 Q383.3438,129.2441 382.5381,130.499 Q381.7324,131.7539 381.7324,134.2246 Q381.7324,136.6855 382.5381,137.9404 Q383.3438,139.1953 384.9258,139.1953 Q385.668,139.1953 386.3662,138.8779 Q387.0645,138.5605 387.8066,137.877 Z " fill="#000000"/><text fill="#000000" font-family="sans-serif" font-size="20" lengthAdjust="spacing" textLength="260" x="407" y="141.5586">LinearRegressionController</text><line style="stroke:#181818;stroke-width:0.5;" x1="159.5" x2="879.5" y1="151" y2="151"/><line style="stroke:#181818;stroke-width:0.5;" x1="159.5" x2="879.5" y1="159" y2="159"/><text fill="#000000" font-family="sans-serif" font-size="20" lengthAdjust="spacing" textLength="393" x="164.5" y="182.3359">+getRegression(typeOfLinearRegression)</text><text fill="#000000" font-family="sans-serif" font-size="20" lengthAdjust="spacing" textLength="710" x="164.5" y="205.8906">+regressionOperations(IC, x1, x2, x3, x4, x5, betaValue, linearOperation)</text><text fill="#000000" font-family="sans-serif" font-size="20" lengthAdjust="spacing" textLength="434" x="164.5" y="229.4453">+regressionOperations(IC, x, bValue, aValue)</text></g><!--class Repositories--><g id="elem_Repositories"><rect codeLine="16" fill="#F1F1F1" height="97.1094" id="Repositories" rx="2.5" ry="2.5" style="stroke:#181818;stroke-width:0.5;" width="299" x="7" y="451"/><ellipse cx="92.5" cy="468" fill="#ADD1B2" rx="12" ry="12" style="stroke:#181818;stroke-width:1.0;"/><path d="M95.3066,475.0801 Q94.623,475.4316 93.8711,475.6074 Q93.1191,475.7832 92.2891,475.7832 Q89.3398,475.7832 87.7871,473.8398 Q86.2344,471.8965 86.2344,468.2246 Q86.2344,464.543 87.7871,462.5996 Q89.3398,460.6563 92.2891,460.6563 Q93.1191,460.6563 93.8809,460.832 Q94.6426,461.0078 95.3066,461.3594 L95.3066,464.5625 Q94.5645,463.8789 93.8662,463.5615 Q93.168,463.2441 92.4258,463.2441 Q90.8438,463.2441 90.0381,464.499 Q89.2324,465.7539 89.2324,468.2246 Q89.2324,470.6855 90.0381,471.9404 Q90.8438,473.1953 92.4258,473.1953 Q93.168,473.1953 93.8662,472.8779 Q94.5645,472.5605 95.3066,471.877 Z " fill="#000000"/><text fill="#000000" font-family="sans-serif" font-size="20" lengthAdjust="spacing" textLength="119" x="114.5" y="475.5586">Repositories</text><line style="stroke:#181818;stroke-width:0.5;" x1="8" x2="305" y1="485" y2="485"/><text fill="#000000" font-family="sans-serif" font-size="20" lengthAdjust="spacing" textLength="125" x="13" y="508.3359">+getInstance</text><text fill="#000000" font-family="sans-serif" font-size="20" lengthAdjust="spacing" textLength="287" x="13" y="531.8906">+getAdvertisementRepository</text><line style="stroke:#181818;stroke-width:0.5;" x1="8" x2="305" y1="540.1094" y2="540.1094"/></g><!--class AdvertisementRepository--><g id="elem_AdvertisementRepository"><rect codeLine="21" fill="#F1F1F1" height="167.7734" id="AdvertisementRepository" rx="2.5" ry="2.5" style="stroke:#181818;stroke-width:0.5;" width="471" x="22" y="761"/><ellipse cx="132.5" cy="778" fill="#ADD1B2" rx="12" ry="12" style="stroke:#181818;stroke-width:1.0;"/><path d="M135.3066,785.0801 Q134.623,785.4316 133.8711,785.6074 Q133.1191,785.7832 132.2891,785.7832 Q129.3398,785.7832 127.7871,783.8398 Q126.2344,781.8965 126.2344,778.2246 Q126.2344,774.543 127.7871,772.5996 Q129.3398,770.6563 132.2891,770.6563 Q133.1191,770.6563 133.8809,770.832 Q134.6426,771.0078 135.3066,771.3594 L135.3066,774.5625 Q134.5645,773.8789 133.8662,773.5615 Q133.168,773.2441 132.4258,773.2441 Q130.8438,773.2441 130.0381,774.499 Q129.2324,775.7539 129.2324,778.2246 Q129.2324,780.6855 130.0381,781.9404 Q130.8438,783.1953 132.4258,783.1953 Q133.168,783.1953 133.8662,782.8779 Q134.5645,782.5605 135.3066,781.877 Z " fill="#000000"/><text fill="#000000" font-family="sans-serif" font-size="20" lengthAdjust="spacing" textLength="241" x="154.5" y="785.5586">AdvertisementRepository</text><line style="stroke:#181818;stroke-width:0.5;" x1="23" x2="492" y1="795" y2="795"/><text fill="#000000" font-family="sans-serif" font-size="20" lengthAdjust="spacing" textLength="393" x="28" y="818.3359">-List&lt;Advertisement&gt; advertisementList</text><line style="stroke:#181818;stroke-width:0.5;" x1="23" x2="492" y1="826.5547" y2="826.5547"/><text fill="#000000" font-family="sans-serif" font-size="20" lengthAdjust="spacing" textLength="243" x="28" y="849.8906">+getMultipleRegression()</text><text fill="#000000" font-family="sans-serif" font-size="20" lengthAdjust="spacing" textLength="459" x="28" y="873.4453">+getSimpleRegression(typeOfLinearRegression)</text><text fill="#000000" font-family="sans-serif" font-size="20" lengthAdjust="spacing" textLength="243" x="28" y="897">+getMultipleRegression()</text><text fill="#000000" font-family="sans-serif" font-size="20" lengthAdjust="spacing" textLength="459" x="28" y="920.5547">+getSimpleRegression(typeOfLinearRegression)</text></g><!--class LinearSimpleRegression--><g id="elem_LinearSimpleRegression"><rect codeLine="30" fill="#F1F1F1" height="309.1016" id="LinearSimpleRegression" rx="2.5" ry="2.5" style="stroke:#181818;stroke-width:0.5;" width="533" x="413" y="345"/><ellipse cx="560" cy="362" fill="#ADD1B2" rx="12" ry="12" style="stroke:#181818;stroke-width:1.0;"/><path d="M562.8066,369.0801 Q562.123,369.4316 561.3711,369.6074 Q560.6191,369.7832 559.7891,369.7832 Q556.8398,369.7832 555.2871,367.8398 Q553.7344,365.8965 553.7344,362.2246 Q553.7344,358.543 555.2871,356.5996 Q556.8398,354.6563 559.7891,354.6563 Q560.6191,354.6563 561.3809,354.832 Q562.1426,355.0078 562.8066,355.3594 L562.8066,358.5625 Q562.0645,357.8789 561.3662,357.5615 Q560.668,357.2441 559.9258,357.2441 Q558.3438,357.2441 557.5381,358.499 Q556.7324,359.7539 556.7324,362.2246 Q556.7324,364.6855 557.5381,365.9404 Q558.3438,367.1953 559.9258,367.1953 Q560.668,367.1953 561.3662,366.8779 Q562.0645,366.5605 562.8066,365.877 Z " fill="#000000"/><text fill="#000000" font-family="sans-serif" font-size="20" lengthAdjust="spacing" textLength="230" x="582" y="369.5586">LinearSimpleRegression</text><line style="stroke:#181818;stroke-width:0.5;" x1="414" x2="945" y1="379" y2="379"/><text fill="#000000" font-family="sans-serif" font-size="20" lengthAdjust="spacing" textLength="257" x="419" y="402.3359">-TDistribution distribution</text><text fill="#000000" font-family="sans-serif" font-size="20" lengthAdjust="spacing" textLength="365" x="419" y="425.8906">-SimpleRegression simpleRegression;</text><text fill="#000000" font-family="sans-serif" font-size="20" lengthAdjust="spacing" textLength="78" x="419" y="449.4453">-long n;</text><text fill="#000000" font-family="sans-serif" font-size="20" lengthAdjust="spacing" textLength="102" x="419" y="473">-double a;</text><text fill="#000000" font-family="sans-serif" font-size="20" lengthAdjust="spacing" textLength="104" x="419" y="496.5547">-double b;</text><text fill="#000000" font-family="sans-serif" font-size="20" lengthAdjust="spacing" textLength="184" x="419" y="520.1094">-DecimalFormat df</text><line style="stroke:#181818;stroke-width:0.5;" x1="414" x2="945" y1="528.3281" y2="528.3281"/><text fill="#000000" font-family="sans-serif" font-size="20" lengthAdjust="spacing" textLength="237" x="419" y="551.6641">+simpleRegressionInfo()</text><text fill="#000000" font-family="sans-serif" font-size="20" lengthAdjust="spacing" textLength="308" x="419" y="575.2188">+simpleRegressionPrediction(x)</text><text fill="#000000" font-family="sans-serif" font-size="20" lengthAdjust="spacing" textLength="521" x="419" y="598.7734">+simpleRegressionHypothesisTest(aValue, bValue, IC)</text><text fill="#000000" font-family="sans-serif" font-size="20" lengthAdjust="spacing" textLength="328" x="419" y="622.3281">+simpleRegressionConfidence(IC)</text><text fill="#000000" font-family="sans-serif" font-size="20" lengthAdjust="spacing" textLength="259" x="419" y="645.8828">+simpleRegressionAnova()</text></g><!--class LinearMultipleRegression--><g id="elem_LinearMultipleRegression"><rect codeLine="45" fill="#F1F1F1" height="403.3203" id="LinearMultipleRegression" rx="2.5" ry="2.5" style="stroke:#181818;stroke-width:0.5;" width="560" x="981.5" y="298"/><ellipse cx="1136" cy="315" fill="#ADD1B2" rx="12" ry="12" style="stroke:#181818;stroke-width:1.0;"/><path d="M1138.8066,322.0801 Q1138.123,322.4316 1137.3711,322.6074 Q1136.6191,322.7832 1135.7891,322.7832 Q1132.8398,322.7832 1131.2871,320.8398 Q1129.7344,318.8965 1129.7344,315.2246 Q1129.7344,311.543 1131.2871,309.5996 Q1132.8398,307.6563 1135.7891,307.6563 Q1136.6191,307.6563 1137.3809,307.832 Q1138.1426,308.0078 1138.8066,308.3594 L1138.8066,311.5625 Q1138.0645,310.8789 1137.3662,310.5615 Q1136.668,310.2441 1135.9258,310.2441 Q1134.3438,310.2441 1133.5381,311.499 Q1132.7324,312.7539 1132.7324,315.2246 Q1132.7324,317.6855 1133.5381,318.9404 Q1134.3438,320.1953 1135.9258,320.1953 Q1136.668,320.1953 1137.3662,319.8779 Q1138.0645,319.5605 1138.8066,318.877 Z " fill="#000000"/><text fill="#000000" font-family="sans-serif" font-size="20" lengthAdjust="spacing" textLength="242" x="1158" y="322.5586">LinearMultipleRegression</text><line style="stroke:#181818;stroke-width:0.5;" x1="982.5" x2="1540.5" y1="332" y2="332"/><text fill="#000000" font-family="sans-serif" font-size="20" lengthAdjust="spacing" textLength="548" x="987.5" y="355.3359">-OLSMultipleLinearRegression multipleLinearRegression;</text><text fill="#000000" font-family="sans-serif" font-size="20" lengthAdjust="spacing" textLength="115" x="987.5" y="378.8906">-double[] y;</text><text fill="#000000" font-family="sans-serif" font-size="20" lengthAdjust="spacing" textLength="131" x="987.5" y="402.4453">-double[][] x;</text><text fill="#000000" font-family="sans-serif" font-size="20" lengthAdjust="spacing" textLength="263" x="987.5" y="426">-TDistribution distribution;</text><text fill="#000000" font-family="sans-serif" font-size="20" lengthAdjust="spacing" textLength="279" x="987.5" y="449.5547">-FDistribution fadistribution;</text><text fill="#000000" font-family="sans-serif" font-size="20" lengthAdjust="spacing" textLength="103" x="987.5" y="473.1094">-double n;</text><text fill="#000000" font-family="sans-serif" font-size="20" lengthAdjust="spacing" textLength="103" x="987.5" y="496.6641">-double k;</text><text fill="#000000" font-family="sans-serif" font-size="20" lengthAdjust="spacing" textLength="157" x="987.5" y="520.2188">-double betas[];</text><text fill="#000000" font-family="sans-serif" font-size="20" lengthAdjust="spacing" textLength="152" x="987.5" y="543.7734">-double XtX[][];</text><text fill="#000000" font-family="sans-serif" font-size="20" lengthAdjust="spacing" textLength="184" x="987.5" y="567.3281">-DecimalFormat df</text><line style="stroke:#181818;stroke-width:0.5;" x1="982.5" x2="1540.5" y1="575.5469" y2="575.5469"/><text fill="#000000" font-family="sans-serif" font-size="20" lengthAdjust="spacing" textLength="252" x="987.5" y="598.8828">+multipleRegressionInfo()</text><text fill="#000000" font-family="sans-serif" font-size="20" lengthAdjust="spacing" textLength="484" x="987.5" y="622.4375">+multipleRegressionPrediction(x1, x2, x3, x4, x5)</text><text fill="#000000" font-family="sans-serif" font-size="20" lengthAdjust="spacing" textLength="489" x="987.5" y="645.9922">+multipleRegressionHypothesisTest(IC, betaValue)</text><text fill="#000000" font-family="sans-serif" font-size="20" lengthAdjust="spacing" textLength="343" x="987.5" y="669.5469">+multipleRegressionConfidence(IC)</text><text fill="#000000" font-family="sans-serif" font-size="20" lengthAdjust="spacing" textLength="294" x="987.5" y="693.1016">+multipleRegressionAnova(IC)</text></g><!--class Advertisement--><g id="elem_Advertisement"><rect codeLine="64" fill="#F1F1F1" height="309.1016" id="Advertisement" rx="2.5" ry="2.5" style="stroke:#181818;stroke-width:0.5;" width="465" x="25" y="989"/><ellipse cx="183.5" cy="1006" fill="#ADD1B2" rx="12" ry="12" style="stroke:#181818;stroke-width:1.0;"/><path d="M186.3066,1013.0801 Q185.623,1013.4316 184.8711,1013.6074 Q184.1191,1013.7832 183.2891,1013.7832 Q180.3398,1013.7832 178.7871,1011.8398 Q177.2344,1009.8965 177.2344,1006.2246 Q177.2344,1002.543 178.7871,1000.5996 Q180.3398,998.6563 183.2891,998.6563 Q184.1191,998.6563 184.8809,998.832 Q185.6426,999.0078 186.3066,999.3594 L186.3066,1002.5625 Q185.5645,1001.8789 184.8662,1001.5615 Q184.168,1001.2441 183.4258,1001.2441 Q181.8438,1001.2441 181.0381,1002.499 Q180.2324,1003.7539 180.2324,1006.2246 Q180.2324,1008.6855 181.0381,1009.9404 Q181.8438,1011.1953 183.4258,1011.1953 Q184.168,1011.1953 184.8662,1010.8779 Q185.5645,1010.5605 186.3066,1009.877 Z " fill="#000000"/><text fill="#000000" font-family="sans-serif" font-size="20" lengthAdjust="spacing" textLength="139" x="205.5" y="1013.5586">Advertisement</text><line style="stroke:#181818;stroke-width:0.5;" x1="26" x2="489" y1="1023" y2="1023"/><text fill="#000000" font-family="sans-serif" font-size="20" lengthAdjust="spacing" textLength="278" x="31" y="1046.3359">-String dateOfAdvertisement</text><text fill="#000000" font-family="sans-serif" font-size="20" lengthAdjust="spacing" textLength="167" x="31" y="1069.8906">-Request request</text><text fill="#000000" font-family="sans-serif" font-size="20" lengthAdjust="spacing" textLength="254" x="31" y="1093.4453">-Commission commission</text><text fill="#000000" font-family="sans-serif" font-size="20" lengthAdjust="spacing" textLength="453" x="31" y="1117">-ArrayList&lt;PurchaseOrder&gt; purchaseOrderList</text><text fill="#000000" font-family="sans-serif" font-size="20" lengthAdjust="spacing" textLength="404" x="31" y="1140.5547">-ArrayList&lt;VisitRequest&gt; visitRequestList</text><text fill="#000000" font-family="sans-serif" font-size="20" lengthAdjust="spacing" textLength="131" x="31" y="1164.1094">-String status</text><text fill="#000000" font-family="sans-serif" font-size="20" lengthAdjust="spacing" textLength="115" x="31" y="1187.6641">-Store store</text><text fill="#000000" font-family="sans-serif" font-size="20" lengthAdjust="spacing" textLength="6" x="31" y="1211.2188"> </text><text fill="#000000" font-family="sans-serif" font-size="20" lengthAdjust="spacing" textLength="125" x="31" y="1234.7734">+getAllDeals</text><line style="stroke:#181818;stroke-width:0.5;" x1="26" x2="489" y1="1242.9922" y2="1242.9922"/><text fill="#000000" font-family="sans-serif" font-size="20" lengthAdjust="spacing" textLength="109" x="31" y="1266.3281">+getStore()</text><text fill="#000000" font-family="sans-serif" font-size="20" lengthAdjust="spacing" textLength="75" x="31" y="1289.8828">+copy()</text></g><!--link LinearRegressionUI to LinearRegressionController--><g id="link_LinearRegressionUI_LinearRegressionController"><path codeLine="79" d="M519.5,57.02 C519.5,71.97 519.5,91.98 519.5,111.35 " fill="none" id="LinearRegressionUI-to-LinearRegressionController" style="stroke:#181818;stroke-width:1.0;stroke-dasharray:7.0,7.0;"/><polygon fill="#181818" points="519.5,116.79,523.5,107.79,519.5,111.79,515.5,107.79,519.5,116.79" style="stroke:#181818;stroke-width:1.0;"/></g><!--link LinearRegressionController to Repositories--><g id="link_LinearRegressionController_Repositories"><path codeLine="81" d="M426.77,238.07 C380.18,268.01 333.5,298 333.5,298 C333.5,298 254.3,387.71 201.86,447.12 " fill="none" id="LinearRegressionController-to-Repositories" style="stroke:#181818;stroke-width:1.0;stroke-dasharray:7.0,7.0;"/><polygon fill="#181818" points="198.45,450.98,207.3946,446.8576,201.7496,447.2233,201.3839,441.5783,198.45,450.98" style="stroke:#181818;stroke-width:1.0;"/></g><!--link LinearRegressionController to AdvertisementRepository--><g id="link_LinearRegressionController_AdvertisementRepository"><path codeLine="82" d="M457.5,238.25 C426.5,268.12 395.5,298 395.5,298 C395.5,298 323.5,701 323.5,701 C323.5,701 311.71,726.55 298.09,756.05 " fill="none" id="LinearRegressionController-to-AdvertisementRepository" style="stroke:#181818;stroke-width:1.0;stroke-dasharray:7.0,7.0;"/><polygon fill="#181818" points="295.89,760.82,303.2972,754.329,297.988,756.2815,296.0356,750.9722,295.89,760.82" style="stroke:#181818;stroke-width:1.0;"/></g><!--link LinearRegressionController to LinearSimpleRegression--><g id="link_LinearRegressionController_LinearSimpleRegression"><path codeLine="83" d="M549.41,238.31 C563.91,267.31 582.08,303.66 600.2,339.91 " fill="none" id="LinearRegressionController-to-LinearSimpleRegression" style="stroke:#181818;stroke-width:1.0;stroke-dasharray:7.0,7.0;"/><polygon fill="#181818" points="602.64,344.79,602.1802,334.9519,600.3982,340.3207,595.0294,338.5387,602.64,344.79" style="stroke:#181818;stroke-width:1.0;"/></g><!--link LinearRegressionController to LinearMultipleRegression--><g id="link_LinearRegressionController_LinearMultipleRegression"><path codeLine="84" d="M740.85,238.07 C852.07,268.01 963.5,298 963.5,298 C963.5,298 968.35,301.26 976.81,306.96 " fill="none" id="LinearRegressionController-to-LinearMultipleRegression" style="stroke:#181818;stroke-width:1.0;stroke-dasharray:7.0,7.0;"/><polygon fill="#181818" points="981.25,309.94,976.0332,301.5863,977.1074,307.1402,971.5535,308.2144,981.25,309.94" style="stroke:#181818;stroke-width:1.0;"/></g><!--link Repositories to AdvertisementRepository--><g id="link_Repositories_AdvertisementRepository"><path codeLine="86" d="M170.54,548.26 C186.29,601.8 212.15,689.76 231.59,755.86 " fill="none" id="Repositories-to-AdvertisementRepository" style="stroke:#181818;stroke-width:1.0;"/><polygon fill="#181818" points="233.09,760.99,234.3832,751.2264,231.6769,756.1939,226.7094,753.4875,233.09,760.99" style="stroke:#181818;stroke-width:1.0;"/><text fill="#000000" font-family="sans-serif" font-size="20" lengthAdjust="spacing" textLength="13" x="217.3371" y="748.8544">1</text></g><!--link AdvertisementRepository to Advertisement--><g id="link_AdvertisementRepository_Advertisement"><path codeLine="88" d="M257.5,929.38 C257.5,946.45 257.5,964.94 257.5,983.66 " fill="none" id="AdvertisementRepository-to-Advertisement" style="stroke:#181818;stroke-width:1.0;"/><polygon fill="#181818" points="257.5,988.95,261.5,979.95,257.5,983.95,253.5,979.95,257.5,988.95" style="stroke:#181818;stroke-width:1.0;"/><text fill="#000000" font-family="sans-serif" font-size="20" lengthAdjust="spacing" textLength="13" x="244.0023" y="956.0867">1</text><text fill="#000000" font-family="sans-serif" font-size="20" lengthAdjust="spacing" textLength="10" x="247.2422" y="976.7357">*</text></g><!--SRC=[hLLDRnen4BtxLrWvGM6Z96rFhP0G21M9YWXe52dAmUpEWeLtlRMzb2tgV-_OV9dzI7hemU3ncsUFPyPlzOQd6LCi4JBSG4GZY5akp4YcPiv_0tsu8_haGZCMRjWAvgOGG1M4XgKh0Pw3NhD8_kBfYiPCQ1yHF8L5aG7Df2YiGOY7Xe9ftJT6yMLkO1pAr1r-HuX3w0G9JCrWfK1hBjCVOxh_qmGEC7ObXG2r9vqLc0lICXZ1D2uJsgIZpiOq0yKCJdHhFEZItJsE1nmVSNp2yRbBbs3O4nCvTDsrc3fptjm9YKVMWTqcvolC89EQ6wauw4FGurHZTaDmHZ_QWZ9SGmAfEViM5tw3mvu44wxDrokuHvblMWVYJlcETUUP02zVRGVCUNAzt9Z6_x9BgR1b7bvgCSIWNQ-WJIFF804j-rDTMlY2Ja9YZxfP9FCbTZFpvaix7qB84oP6KYNCq2Z679Kt6gUnj9ShhpygY7XemsdjQk1lHIRD6ZJN2z2cTMgbKtEC1pKSxEcOHu0DqQh5-wdSibObTzLYOFReT38_0UNiqwG1kAJdvPKMleNspjhDHR7ew0gDMHa_fjwVR_oIu9FJBw_UohDvjcStb2gfNFnKh2hYbwlosciPfGhQrttMX5f2kNnLZqC1BLZ_gB5kSqmOTct433wRAv04C_YPOoWeokwV10EP9FnGql0y9K5VALOuJNZCLRXc6gOg0jMZcMywJV1ydpZgoV687jrwri7p61agbicrDQK2jF3te2nkuIW3VI66W1y7qWbbLk2YlN2Dlj_UzjvGzYhbWZcghwZl-JR9wpkqUddwDrRrOHBYXqo3e4TlxcyQOoCDWEKuxeURwnRv2m00]--></g></svg>