<?xml version="1.0" encoding="UTF-8" standalone="no"?><svg xmlns="http://www.w3.org/2000/svg" xmlns:xlink="http://www.w3.org/1999/xlink" contentStyleType="text/css" height="789px" preserveAspectRatio="none" style="width:1431px;height:789px;background:#FFFFFF;" version="1.1" viewBox="0 0 1431 789" width="1431px" zoomAndPan="magnify"><defs/><g><!--class Store--><g id="elem_Store"><rect codeLine="8" fill="#F1F1F1" height="112.2188" id="Store" rx="2.5" ry="2.5" style="stroke:#181818;stroke-width:0.5;" width="185" x="471.5" y="520"/><text fill="#000000" font-family="sans-serif" font-size="20" lengthAdjust="spacing" textLength="49" x="539.5" y="544.3359">Store</text><line style="stroke:#181818;stroke-width:0.5;" x1="472.5" x2="655.5" y1="553.5547" y2="553.5547"/><text fill="#000000" font-family="sans-serif" font-size="20" lengthAdjust="spacing" textLength="112" x="477.5" y="576.8906">designation</text><text fill="#000000" font-family="sans-serif" font-size="20" lengthAdjust="spacing" textLength="132" x="477.5" y="600.4453">emailAddress</text><text fill="#000000" font-family="sans-serif" font-size="20" lengthAdjust="spacing" textLength="173" x="477.5" y="624">telephoneNumber</text></g><!--class SystemAdministrator--><g id="elem_SystemAdministrator"><rect codeLine="15" fill="#F1F1F1" height="33.5547" id="SystemAdministrator" rx="2.5" ry="2.5" style="stroke:#181818;stroke-width:0.5;" width="207" x="1217.5" y="7"/><text fill="#000000" font-family="sans-serif" font-size="20" lengthAdjust="spacing" textLength="201" x="1220.5" y="31.3359">SystemAdministrator</text></g><!--class AdvertisementRequest--><g id="elem_AdvertisementRequest"><rect codeLine="17" fill="#F1F1F1" height="112.2188" id="AdvertisementRequest" rx="2.5" ry="2.5" style="stroke:#181818;stroke-width:0.5;" width="222" x="660" y="299.5"/><text fill="#000000" font-family="sans-serif" font-size="20" lengthAdjust="spacing" textLength="216" x="663" y="323.8359">AdvertisementRequest</text><line style="stroke:#181818;stroke-width:0.5;" x1="661" x2="881" y1="333.0547" y2="333.0547"/><text fill="#000000" font-family="sans-serif" font-size="20" lengthAdjust="spacing" textLength="48" x="666" y="356.3906">price</text><text fill="#000000" font-family="sans-serif" font-size="20" lengthAdjust="spacing" textLength="142" x="666" y="379.9453">dateOfRequest</text><text fill="#000000" font-family="sans-serif" font-size="20" lengthAdjust="spacing" textLength="57" x="666" y="403.5">status</text></g><!--class TypeOfBusiness--><g id="elem_TypeOfBusiness"><rect codeLine="23" fill="#F1F1F1" height="65.1094" id="TypeOfBusiness" rx="2.5" ry="2.5" style="stroke:#181818;stroke-width:0.5;" width="159" x="691.5" y="543.5"/><text fill="#000000" font-family="sans-serif" font-size="20" lengthAdjust="spacing" textLength="153" x="694.5" y="567.8359">TypeOfBusiness</text><line style="stroke:#181818;stroke-width:0.5;" x1="692.5" x2="849.5" y1="577.0547" y2="577.0547"/><text fill="#000000" font-family="sans-serif" font-size="20" lengthAdjust="spacing" textLength="112" x="697.5" y="600.3906">designation</text></g><!--class Advertisement--><g id="elem_Advertisement"><rect codeLine="27" fill="#F1F1F1" height="88.6641" id="Advertisement" rx="2.5" ry="2.5" style="stroke:#181818;stroke-width:0.5;" width="216" x="1004" y="531.5"/><text fill="#000000" font-family="sans-serif" font-size="20" lengthAdjust="spacing" textLength="139" x="1042.5" y="555.8359">Advertisement</text><line style="stroke:#181818;stroke-width:0.5;" x1="1005" x2="1219" y1="565.0547" y2="565.0547"/><text fill="#000000" font-family="sans-serif" font-size="20" lengthAdjust="spacing" textLength="204" x="1010" y="588.3906">dateOfAdvertisement</text><text fill="#000000" font-family="sans-serif" font-size="20" lengthAdjust="spacing" textLength="57" x="1010" y="611.9453">status</text></g><!--class Property--><g id="elem_Property"><rect codeLine="32" fill="#F1F1F1" height="88.6641" id="Property" rx="2.5" ry="2.5" style="stroke:#181818;stroke-width:0.5;" width="192" x="468" y="102"/><text fill="#000000" font-family="sans-serif" font-size="20" lengthAdjust="spacing" textLength="80" x="524" y="126.3359">Property</text><line style="stroke:#181818;stroke-width:0.5;" x1="469" x2="659" y1="135.5547" y2="135.5547"/><text fill="#000000" font-family="sans-serif" font-size="20" lengthAdjust="spacing" textLength="41" x="474" y="158.8906">area</text><text fill="#000000" font-family="sans-serif" font-size="20" lengthAdjust="spacing" textLength="180" x="474" y="182.4453">distanceCityCentre</text></g><!--class Residence--><g id="elem_Residence"><rect codeLine="37" fill="#F1F1F1" height="112.2188" id="Residence" rx="2.5" ry="2.5" style="stroke:#181818;stroke-width:0.5;" width="248" x="177" y="299.5"/><text fill="#000000" font-family="sans-serif" font-size="20" lengthAdjust="spacing" textLength="97" x="252.5" y="323.8359">Residence</text><line style="stroke:#181818;stroke-width:0.5;" x1="178" x2="424" y1="333.0547" y2="333.0547"/><text fill="#000000" font-family="sans-serif" font-size="20" lengthAdjust="spacing" textLength="195" x="183" y="356.3906">numberOfBedrooms</text><text fill="#000000" font-family="sans-serif" font-size="20" lengthAdjust="spacing" textLength="201" x="183" y="379.9453">numberOfBathrooms</text><text fill="#000000" font-family="sans-serif" font-size="20" lengthAdjust="spacing" textLength="236" x="183" y="403.5">numberOfParkingSpaces</text></g><!--class House--><g id="elem_House"><rect codeLine="43" fill="#F1F1F1" height="112.2188" id="House" rx="2.5" ry="2.5" style="stroke:#181818;stroke-width:0.5;" width="270" x="166" y="520"/><text fill="#000000" font-family="sans-serif" font-size="20" lengthAdjust="spacing" textLength="60" x="271" y="544.3359">House</text><line style="stroke:#181818;stroke-width:0.5;" x1="167" x2="435" y1="553.5547" y2="553.5547"/><text fill="#000000" font-family="sans-serif" font-size="20" lengthAdjust="spacing" textLength="206" x="172" y="576.8906">existenceOfBasement</text><text fill="#000000" font-family="sans-serif" font-size="20" lengthAdjust="spacing" textLength="258" x="172" y="600.4453">existenceOfInhabitableLoft</text><text fill="#000000" font-family="sans-serif" font-size="20" lengthAdjust="spacing" textLength="123" x="172" y="624">sunExposure</text></g><!--class Address--><g id="elem_Address"><rect codeLine="49" fill="#F1F1F1" height="159.3281" id="Address" rx="2.5" ry="2.5" style="stroke:#181818;stroke-width:0.5;" width="88" x="520" y="276"/><text fill="#000000" font-family="sans-serif" font-size="20" lengthAdjust="spacing" textLength="79" x="524.5" y="300.3359">Address</text><line style="stroke:#181818;stroke-width:0.5;" x1="521" x2="607" y1="309.5547" y2="309.5547"/><text fill="#000000" font-family="sans-serif" font-size="20" lengthAdjust="spacing" textLength="54" x="526" y="332.8906">street</text><text fill="#000000" font-family="sans-serif" font-size="20" lengthAdjust="spacing" textLength="46" x="526" y="356.4453">state</text><text fill="#000000" font-family="sans-serif" font-size="20" lengthAdjust="spacing" textLength="67" x="526" y="380">district</text><text fill="#000000" font-family="sans-serif" font-size="20" lengthAdjust="spacing" textLength="33" x="526" y="403.5547">city</text><text fill="#000000" font-family="sans-serif" font-size="20" lengthAdjust="spacing" textLength="76" x="526" y="427.1094">zipcode</text></g><!--class Equipment--><g id="elem_Equipment"><rect codeLine="57" fill="#F1F1F1" height="65.1094" id="Equipment" rx="2.5" ry="2.5" style="stroke:#181818;stroke-width:0.5;" width="124" x="7" y="543.5"/><text fill="#000000" font-family="sans-serif" font-size="20" lengthAdjust="spacing" textLength="104" x="17" y="567.8359">Equipment</text><line style="stroke:#181818;stroke-width:0.5;" x1="8" x2="130" y1="577.0547" y2="577.0547"/><text fill="#000000" font-family="sans-serif" font-size="20" lengthAdjust="spacing" textLength="112" x="13" y="600.3906">designation</text></g><!--class TypeOfCommission--><g id="elem_TypeOfCommission"><rect codeLine="61" fill="#F1F1F1" height="65.1094" id="TypeOfCommission" rx="2.5" ry="2.5" style="stroke:#181818;stroke-width:0.5;" width="196" x="638" y="717"/><text fill="#000000" font-family="sans-serif" font-size="20" lengthAdjust="spacing" textLength="190" x="641" y="741.3359">TypeOfCommission</text><line style="stroke:#181818;stroke-width:0.5;" x1="639" x2="833" y1="750.5547" y2="750.5547"/><text fill="#000000" font-family="sans-serif" font-size="20" lengthAdjust="spacing" textLength="112" x="644" y="773.8906">designation</text></g><!--class TypeOfProperty--><g id="elem_TypeOfProperty"><rect codeLine="65" fill="#F1F1F1" height="65.1094" id="TypeOfProperty" rx="2.5" ry="2.5" style="stroke:#181818;stroke-width:0.5;" width="156" x="97" y="114"/><text fill="#000000" font-family="sans-serif" font-size="20" lengthAdjust="spacing" textLength="150" x="100" y="138.3359">TypeOfProperty</text><line style="stroke:#181818;stroke-width:0.5;" x1="98" x2="252" y1="147.5547" y2="147.5547"/><text fill="#000000" font-family="sans-serif" font-size="20" lengthAdjust="spacing" textLength="112" x="103" y="170.8906">designation</text></g><!--class Commission--><g id="elem_Commission"><rect codeLine="69" fill="#F1F1F1" height="65.1094" id="Commission" rx="2.5" ry="2.5" style="stroke:#181818;stroke-width:0.5;" width="126" x="1049" y="717"/><text fill="#000000" font-family="sans-serif" font-size="20" lengthAdjust="spacing" textLength="120" x="1052" y="741.3359">Commission</text><line style="stroke:#181818;stroke-width:0.5;" x1="1050" x2="1174" y1="750.5547" y2="750.5547"/><text fill="#000000" font-family="sans-serif" font-size="20" lengthAdjust="spacing" textLength="50" x="1055" y="773.8906">value</text></g><!--class LegacyFile--><g id="elem_LegacyFile"><rect fill="#F1F1F1" height="33.5547" id="LegacyFile" rx="2.5" ry="2.5" style="stroke:#181818;stroke-width:0.5;" width="105" x="1268.5" y="338.5"/><text fill="#000000" font-family="sans-serif" font-size="20" lengthAdjust="spacing" textLength="99" x="1271.5" y="362.8359">LegacyFile</text></g><!--class PurchaseOrder--><g id="elem_PurchaseOrder"><rect fill="#F1F1F1" height="33.5547" id="PurchaseOrder" rx="2.5" ry="2.5" style="stroke:#181818;stroke-width:0.5;" width="147" x="1038.5" y="338.5"/><text fill="#000000" font-family="sans-serif" font-size="20" lengthAdjust="spacing" textLength="141" x="1041.5" y="362.8359">PurchaseOrder</text></g><!--link SystemAdministrator to LegacyFile--><g id="link_SystemAdministrator_LegacyFile"><path codeLine="75" d="M1321,41.34 C1321,97.57 1321,282.67 1321,338.45 " fill="none" id="SystemAdministrator-LegacyFile" style="stroke:#181818;stroke-width:1.0;"/><polygon fill="#000000" points="1329,154.7773,1333.7023,140.3052,1324.2977,140.3052,1329,154.7773" style="stroke:#000000;stroke-width:1.0;"/><text fill="#000000" font-family="sans-serif" font-size="20" lengthAdjust="spacing" textLength="75" x="1342" y="154.3359">Imports</text><text fill="#000000" font-family="sans-serif" font-size="20" lengthAdjust="spacing" textLength="13" x="1306.4156" y="67.8276">1</text><text fill="#000000" font-family="sans-serif" font-size="20" lengthAdjust="spacing" textLength="10" x="1309.4688" y="326.1956">*</text></g><!--link LegacyFile to Advertisement--><g id="link_LegacyFile_Advertisement"><path codeLine="76" d="M1320.33,372.81 C1318.41,400.08 1310.94,455.34 1282,490 C1265.5,509.76 1243.28,525.37 1220.35,537.52 " fill="none" id="LegacyFile-Advertisement" style="stroke:#181818;stroke-width:1.0;"/><polygon fill="#000000" points="1299.8489,484.6161,1311.378,474.6847,1303.3386,469.8047,1299.8489,484.6161" style="stroke:#000000;stroke-width:1.0;"/><text fill="#000000" font-family="sans-serif" font-size="20" lengthAdjust="spacing" textLength="80" x="1317" y="485.3359">contains</text><text fill="#000000" font-family="sans-serif" font-size="20" lengthAdjust="spacing" textLength="13" x="1305.5823" y="399.2903">1</text><text fill="#000000" font-family="sans-serif" font-size="20" lengthAdjust="spacing" textLength="10" x="1227.9657" y="530.5278">*</text></g><!--link PurchaseOrder to Advertisement--><g id="link_PurchaseOrder_Advertisement"><path codeLine="77" d="M1111.22,372.53 C1110.11,397.59 1108.25,447.58 1109,490 C1109.24,503.44 1109.68,518.06 1110.16,531.33 " fill="none" id="PurchaseOrder-Advertisement" style="stroke:#181818;stroke-width:1.0;"/><polygon fill="#000000" points="1116.9466,485.7772,1121.7454,471.3367,1112.341,471.274,1116.9466,485.7772" style="stroke:#000000;stroke-width:1.0;"/><text fill="#000000" font-family="sans-serif" font-size="20" lengthAdjust="spacing" textLength="147" x="1130" y="485.3359">associated with</text><text fill="#000000" font-family="sans-serif" font-size="20" lengthAdjust="spacing" textLength="10" x="1099.7389" y="399.3049">*</text><text fill="#000000" font-family="sans-serif" font-size="20" lengthAdjust="spacing" textLength="13" x="1095.8829" y="519.1331">1</text></g><!--link AdvertisementRequest to TypeOfBusiness--><g id="link_AdvertisementRequest_TypeOfBusiness"><path codeLine="78" d="M768.77,411.71 C768.05,435.76 767.55,464.27 768,490 C768.31,507.57 768.98,527.17 769.61,543.12 " fill="none" id="AdvertisementRequest-TypeOfBusiness" style="stroke:#181818;stroke-width:1.0;"/><polygon fill="#000000" points="775.9489,469.7775,771.3392,484.2794,780.7436,484.2193,775.9489,469.7775" style="stroke:#000000;stroke-width:1.0;"/><text fill="#000000" font-family="sans-serif" font-size="20" lengthAdjust="spacing" textLength="96" x="789" y="485.3359">present in</text><text fill="#000000" font-family="sans-serif" font-size="20" lengthAdjust="spacing" textLength="10" x="757.934" y="438.8943">*</text><text fill="#000000" font-family="sans-serif" font-size="20" lengthAdjust="spacing" textLength="13" x="755.1553" y="531.3144">1</text></g><!--link AdvertisementRequest to Advertisement--><g id="link_AdvertisementRequest_Advertisement"><path codeLine="79" d="M844.26,411.78 C878.23,436.64 919.52,465.76 958,490 C980.48,504.16 1005.47,518.51 1028.66,531.29 " fill="none" id="AdvertisementRequest-Advertisement" style="stroke:#181818;stroke-width:1.0;"/><polygon fill="#000000" points="959.2866,473.4264,968.8738,485.2433,973.9886,477.3513,959.2866,473.4264" style="stroke:#000000;stroke-width:1.0;"/><text fill="#000000" font-family="sans-serif" font-size="20" lengthAdjust="spacing" textLength="121" x="979" y="485.3359">derives from</text><text fill="#000000" font-family="sans-serif" font-size="20" lengthAdjust="spacing" textLength="13" x="838.9791" y="438.9724">1</text><text fill="#000000" font-family="sans-serif" font-size="20" lengthAdjust="spacing" textLength="13" x="1002.4648" y="519.4355">1</text></g><!--link Property to AdvertisementRequest--><g id="link_Property_AdvertisementRequest"><path codeLine="80" d="M649.96,191.03 C663.5,199.92 676.73,209.97 688,221 C710.91,243.43 730.28,273.4 744.53,299.25 " fill="none" id="Property-AdvertisementRequest" style="stroke:#181818;stroke-width:1.0;"/><polygon fill="#000000" points="710.7358,227.7534,716.718,241.7451,723.7996,235.5567,710.7358,227.7534" style="stroke:#000000;stroke-width:1.0;"/><text fill="#000000" font-family="sans-serif" font-size="20" lengthAdjust="spacing" textLength="92" x="729" y="241.3359">describes</text><text fill="#000000" font-family="sans-serif" font-size="20" lengthAdjust="spacing" textLength="13" x="647.6374" y="217.9548">1</text><text fill="#000000" font-family="sans-serif" font-size="20" lengthAdjust="spacing" textLength="13" x="727.5118" y="287.3494">1</text></g><!--link Property to Address--><g id="link_Property_Address"><path codeLine="81" d="M564,191.15 C564,215.7 564,247.1 564,275.8 " fill="none" id="Property-Address" style="stroke:#181818;stroke-width:1.0;"/><polygon fill="#000000" points="572,241.7773,576.7023,227.3052,567.2977,227.3052,572,241.7773" style="stroke:#000000;stroke-width:1.0;"/><text fill="#000000" font-family="sans-serif" font-size="20" lengthAdjust="spacing" textLength="94" x="585" y="241.3359">located at</text><text fill="#000000" font-family="sans-serif" font-size="20" lengthAdjust="spacing" textLength="13" x="550.1266" y="218.0909">1</text><text fill="#000000" font-family="sans-serif" font-size="20" lengthAdjust="spacing" textLength="13" x="550.4008" y="263.7389">1</text></g><!--reverse link Property to Residence--><g id="link_Property_Residence"><path codeLine="82" d="M492.64,203.67 C454.82,233.44 408.54,269.86 370.93,299.46 " fill="none" id="Property-backto-Residence" style="stroke:#181818;stroke-width:1.0;"/><polygon fill="none" points="488.5,198.02,508.55,191.15,497.16,209.02,488.5,198.02" style="stroke:#181818;stroke-width:1.0;"/></g><!--link TypeOfProperty to Property--><g id="link_TypeOfProperty_Property"><path codeLine="83" d="M253.25,146.5 C315.15,146.5 401.86,146.5 467.97,146.5 " fill="none" id="TypeOfProperty-Property" style="stroke:#181818;stroke-width:1.0;"/><polygon fill="#000000" points="270.5,131.2773,284.9721,135.9796,284.9721,126.5751,270.5,131.2773" style="stroke:#000000;stroke-width:1.0;"/><text fill="#000000" font-family="sans-serif" font-size="20" lengthAdjust="spacing" textLength="158" x="291.5" y="138.8359">characterized by</text><text fill="#000000" font-family="sans-serif" font-size="20" lengthAdjust="spacing" textLength="13" x="261.0629" y="141.7963">1</text><text fill="#000000" font-family="sans-serif" font-size="20" lengthAdjust="spacing" textLength="10" x="449.9192" y="141.955">*</text></g><!--link Residence to Equipment--><g id="link_Residence_Equipment"><path codeLine="84" d="M242.46,411.64 C198.29,453.23 139.27,508.82 102.71,543.25 " fill="none" id="Residence-Equipment" style="stroke:#181818;stroke-width:1.0;"/><polygon fill="#000000" points="187.1761,483.262,200.9355,476.7633,194.4878,469.9169,187.1761,483.262" style="stroke:#000000;stroke-width:1.0;"/><text fill="#000000" font-family="sans-serif" font-size="20" lengthAdjust="spacing" textLength="80" x="206" y="485.3359">contains</text><text fill="#000000" font-family="sans-serif" font-size="20" lengthAdjust="spacing" textLength="13" x="221.5333" y="439.24">1</text><text fill="#000000" font-family="sans-serif" font-size="20" lengthAdjust="spacing" textLength="10" x="98.1828" y="531.1932">*</text></g><!--reverse link Residence to House--><g id="link_Residence_House"><path codeLine="85" d="M301,431.93 C301,460.83 301,493.23 301,519.88 " fill="none" id="Residence-backto-House" style="stroke:#181818;stroke-width:1.0;"/><polygon fill="none" points="294,431.64,301,411.64,308,431.64,294,431.64" style="stroke:#181818;stroke-width:1.0;"/></g><!--link Advertisement to Commission--><g id="link_Advertisement_Commission"><path codeLine="86" d="M1112,620.72 C1112,650.69 1112,689.76 1112,716.77 " fill="none" id="Advertisement-Commission" style="stroke:#181818;stroke-width:1.0;"/><polygon fill="#000000" points="1120,666.7773,1115.2977,681.2495,1124.7023,681.2495,1120,666.7773" style="stroke:#000000;stroke-width:1.0;"/><text fill="#000000" font-family="sans-serif" font-size="20" lengthAdjust="spacing" textLength="96" x="1133" y="682.3359">present in</text><text fill="#000000" font-family="sans-serif" font-size="20" lengthAdjust="spacing" textLength="13" x="1098.1266" y="647.6703">1</text><text fill="#000000" font-family="sans-serif" font-size="20" lengthAdjust="spacing" textLength="13" x="1097.7609" y="704.717">1</text></g><!--link Address to Store--><g id="link_Address_Store"><path codeLine="87" d="M564,435.07 C564,463.09 564,494.04 564,519.69 " fill="none" id="Address-Store" style="stroke:#181818;stroke-width:1.0;"/><polygon fill="#000000" points="572,469.7773,567.2977,484.2495,576.7023,484.2495,572,469.7773" style="stroke:#000000;stroke-width:1.0;"/><text fill="#000000" font-family="sans-serif" font-size="20" lengthAdjust="spacing" textLength="94" x="585" y="485.3359">located at</text><text fill="#000000" font-family="sans-serif" font-size="20" lengthAdjust="spacing" textLength="13" x="550.4211" y="462.5269">1</text><text fill="#000000" font-family="sans-serif" font-size="20" lengthAdjust="spacing" textLength="13" x="550.2078" y="507.7821">1</text></g><!--link TypeOfCommission to Commission--><g id="link_TypeOfCommission_Commission"><path codeLine="88" d="M834.3,749.5 C902.08,749.5 990.17,749.5 1048.78,749.5 " fill="none" id="TypeOfCommission-Commission" style="stroke:#181818;stroke-width:1.0;"/><polygon fill="#000000" points="851.5,734.2773,865.9721,738.9796,865.9721,729.5751,851.5,734.2773" style="stroke:#000000;stroke-width:1.0;"/><text fill="#000000" font-family="sans-serif" font-size="20" lengthAdjust="spacing" textLength="158" x="872.5" y="741.8359">characterized by</text><text fill="#000000" font-family="sans-serif" font-size="20" lengthAdjust="spacing" textLength="13" x="841.9962" y="745.0078">1</text><text fill="#000000" font-family="sans-serif" font-size="20" lengthAdjust="spacing" textLength="10" x="1030.8921" y="744.532">*</text></g><!--SRC=[VLJRJYCn37tFLqHzHAe4-rYXbRe8j4XeGNH_84tSZiKa6M876Bhy-thIoyoKmZoDOf_ZSsmdz8IXCSduEjedSDh1okIQRsBW1Rw3_d6kQ9-YVGpHLYbwq9mo32ADiKzc3GjkQz09B9kmheS9L1aNNp6izShKD8pOsX3DcHCkCyEjZQ4KFbSLEj0ManMYyW- -uLPxy4j8f5G1wWN717gZ712kWs6CGO4tMC-TIq2a66fegXZWJ-w0waCTe2qn-Bdp690u6M7IcuzzTEvU834IU0Zy2CyPYALEaz22SeRXVhKxLSI6Cwa3z6_RIFHN9WoYOApjD7zde52EJZyHFwJOIBYLT9F0A2UwJR1mXTnU2I11d_ieHHr8K993iIwImAKOFVK7XglnoOD9CfhrGYOAWyg_OoROA7YJYXrf1zs979pTXieiaSsoXhku4lqvNByraV9Gs6um6t6N0BOceLYHrhAouaMzOsEZ6u2kdpCs-qwTQkUsvrVHUoIIoBTf-pv-aJHaUJ5rBZgKEhKlauk9dawdJa_E9leEriQsDoXtOAPlVHCJa_wfnfFk4gVJN90ZW6m-6moaBzL3JhQI_jud1sc7w01ZffaMiT6YjC_fL-JgkDPkFtlyqMRET2EJwAWmIDMJs8i3TXIUoKkHy0L8h-Gzw2JlMje3Jj5rCB9orO6-m9JTc6bvZeejmsBgiFRwyf_a7JQx9oWEwuvXF63fQYMlZ6KH-ovqorRe3lXztRD9lrw3EGmojuNB9L3zTcpn-PFPKL-xcHHJlSloPeqyNWvPZytqePDszjz_]--></g></svg>