<?xml version="1.0" encoding="UTF-8" standalone="no"?><svg xmlns="http://www.w3.org/2000/svg" xmlns:xlink="http://www.w3.org/1999/xlink" contentStyleType="text/css" height="580px" preserveAspectRatio="none" style="width:739px;height:580px;background:#FFFFFF;" version="1.1" viewBox="0 0 739 580" width="739px" zoomAndPan="magnify"><defs/><g><rect fill="#FFFFFF" height="384.6563" style="stroke:#181818;stroke-width:1.0;" width="10" x="46" y="98.5547"/><rect fill="#FFFFFF" height="37.5547" style="stroke:#181818;stroke-width:1.0;" width="10" x="673" y="151.6641"/><rect fill="#FFFFFF" height="37.5547" style="stroke:#181818;stroke-width:1.0;" width="10" x="673" y="226.7734"/><rect fill="#FFFFFF" height="165.3281" style="stroke:#181818;stroke-width:1.0;" width="10" x="673" y="301.8828"/><rect fill="none" height="158.3281" style="stroke:#000000;stroke-width:1.5;" width="722" x="10" y="316.8828"/><line style="stroke:#181818;stroke-width:0.5;stroke-dasharray:5.0,5.0;" x1="51" x2="51" y1="88.5547" y2="492.2109"/><line style="stroke:#181818;stroke-width:0.5;stroke-dasharray:5.0,5.0;" x1="678" x2="678" y1="88.5547" y2="492.2109"/><text fill="#000000" font-family="sans-serif" font-size="20" lengthAdjust="spacing" textLength="56" x="20" y="84.3359">Agent</text><ellipse cx="51" cy="13.5" fill="#E3E3E3" rx="8" ry="8" style="stroke:#181818;stroke-width:0.5;"/><path d="M51,21.5 L51,48.5 M38,29.5 L64,29.5 M51,48.5 L38,63.5 M51,48.5 L64,63.5 " fill="none" style="stroke:#181818;stroke-width:0.5;"/><text fill="#000000" font-family="sans-serif" font-size="20" lengthAdjust="spacing" textLength="56" x="20" y="510.5469">Agent</text><ellipse cx="51" cy="523.2656" fill="#E3E3E3" rx="8" ry="8" style="stroke:#181818;stroke-width:0.5;"/><path d="M51,531.2656 L51,558.2656 M38,539.2656 L64,539.2656 M51,558.2656 L38,573.2656 M51,558.2656 L64,573.2656 " fill="none" style="stroke:#181818;stroke-width:0.5;"/><rect fill="#E3E3E3" height="37.5547" rx="2.5" ry="2.5" style="stroke:#181818;stroke-width:0.5;" width="88" x="634" y="50"/><text fill="#000000" font-family="sans-serif" font-size="20" lengthAdjust="spacing" textLength="74" x="641" y="76.3359">:System</text><rect fill="#E3E3E3" height="37.5547" rx="2.5" ry="2.5" style="stroke:#181818;stroke-width:0.5;" width="88" x="634" y="491.2109"/><text fill="#000000" font-family="sans-serif" font-size="20" lengthAdjust="spacing" textLength="74" x="641" y="517.5469">:System</text><rect fill="#FFFFFF" height="384.6563" style="stroke:#181818;stroke-width:1.0;" width="10" x="46" y="98.5547"/><rect fill="#FFFFFF" height="37.5547" style="stroke:#181818;stroke-width:1.0;" width="10" x="673" y="151.6641"/><rect fill="#FFFFFF" height="37.5547" style="stroke:#181818;stroke-width:1.0;" width="10" x="673" y="226.7734"/><rect fill="#FFFFFF" height="165.3281" style="stroke:#181818;stroke-width:1.0;" width="10" x="673" y="301.8828"/><polygon fill="#181818" points="661,147.6641,671,151.6641,661,155.6641,665,151.6641" style="stroke:#181818;stroke-width:1.0;"/><line style="stroke:#181818;stroke-width:1.0;" x1="56" x2="667" y1="151.6641" y2="151.6641"/><text fill="#000000" font-family="sans-serif" font-size="20" font-weight="bold" lengthAdjust="spacing" textLength="13" x="63" y="133.668">1</text><text fill="#000000" font-family="sans-serif" font-size="20" lengthAdjust="spacing" textLength="458" x="80" y="121.8906">asks to see the purchase order list of properties</text><text fill="#000000" font-family="sans-serif" font-size="20" lengthAdjust="spacing" textLength="205" x="80" y="145.4453">assigned to the agent</text><polygon fill="#181818" points="67,185.2188,57,189.2188,67,193.2188,63,189.2188" style="stroke:#181818;stroke-width:1.0;"/><line style="stroke:#181818;stroke-width:1.0;stroke-dasharray:2.0,2.0;" x1="61" x2="677" y1="189.2188" y2="189.2188"/><text fill="#000000" font-family="sans-serif" font-size="20" font-weight="bold" lengthAdjust="spacing" textLength="13" x="73" y="183">2</text><text fill="#000000" font-family="sans-serif" font-size="20" lengthAdjust="spacing" textLength="265" x="90" y="183">displays purchase order list</text><polygon fill="#181818" points="661,222.7734,671,226.7734,661,230.7734,665,226.7734" style="stroke:#181818;stroke-width:1.0;"/><line style="stroke:#181818;stroke-width:1.0;" x1="56" x2="667" y1="226.7734" y2="226.7734"/><text fill="#000000" font-family="sans-serif" font-size="20" font-weight="bold" lengthAdjust="spacing" textLength="13" x="63" y="220.5547">3</text><text fill="#000000" font-family="sans-serif" font-size="20" lengthAdjust="spacing" textLength="257" x="80" y="220.5547">selects one purchase order</text><polygon fill="#181818" points="67,260.3281,57,264.3281,67,268.3281,63,264.3281" style="stroke:#181818;stroke-width:1.0;"/><line style="stroke:#181818;stroke-width:1.0;stroke-dasharray:2.0,2.0;" x1="61" x2="677" y1="264.3281" y2="264.3281"/><text fill="#000000" font-family="sans-serif" font-size="20" font-weight="bold" lengthAdjust="spacing" textLength="13" x="73" y="258.1094">4</text><text fill="#000000" font-family="sans-serif" font-size="20" lengthAdjust="spacing" textLength="526" x="90" y="258.1094">shows purchase order and asks if approved or rejected</text><polygon fill="#181818" points="661,297.8828,671,301.8828,661,305.8828,665,301.8828" style="stroke:#181818;stroke-width:1.0;"/><line style="stroke:#181818;stroke-width:1.0;" x1="56" x2="667" y1="301.8828" y2="301.8828"/><text fill="#000000" font-family="sans-serif" font-size="20" font-weight="bold" lengthAdjust="spacing" textLength="13" x="63" y="295.6641">5</text><text fill="#000000" font-family="sans-serif" font-size="20" lengthAdjust="spacing" textLength="290" x="80" y="295.6641">selects if approved or rejected</text><path d="M10,316.8828 L82,316.8828 L82,332.4375 L72,342.4375 L10,342.4375 L10,316.8828 " fill="#EEEEEE" style="stroke:#000000;stroke-width:1.5;"/><rect fill="none" height="158.3281" style="stroke:#000000;stroke-width:1.5;" width="722" x="10" y="316.8828"/><text fill="#000000" font-family="sans-serif" font-size="20" font-weight="bold" lengthAdjust="spacing" textLength="27" x="25" y="337.2188">alt</text><text fill="#000000" font-family="sans-serif" font-size="20" font-weight="bold" lengthAdjust="spacing" textLength="287" x="97" y="338.2188">[purchase order is rejected]</text><polygon fill="#181818" points="67,376.5469,57,380.5469,67,384.5469,63,380.5469" style="stroke:#181818;stroke-width:1.0;"/><line style="stroke:#181818;stroke-width:1.0;stroke-dasharray:2.0,2.0;" x1="61" x2="672" y1="380.5469" y2="380.5469"/><text fill="#000000" font-family="sans-serif" font-size="20" font-weight="bold" lengthAdjust="spacing" textLength="13" x="73" y="374.3281">6</text><text fill="#000000" font-family="sans-serif" font-size="20" lengthAdjust="spacing" textLength="463" x="90" y="374.3281">notifies client and confirms success of operation</text><line style="stroke:#000000;stroke-width:1.0;stroke-dasharray:2.0,2.0;" x1="10" x2="732" y1="389.5469" y2="389.5469"/><text fill="#000000" font-family="sans-serif" font-size="20" font-weight="bold" lengthAdjust="spacing" textLength="300" x="15" y="408.8828">[purchase order is approved]</text><polygon fill="#181818" points="67,463.2109,57,467.2109,67,471.2109,63,467.2109" style="stroke:#181818;stroke-width:1.0;"/><line style="stroke:#181818;stroke-width:1.0;stroke-dasharray:2.0,2.0;" x1="61" x2="677" y1="467.2109" y2="467.2109"/><text fill="#000000" font-family="sans-serif" font-size="20" font-weight="bold" lengthAdjust="spacing" textLength="13" x="73" y="449.2148">7</text><text fill="#000000" font-family="sans-serif" font-size="20" lengthAdjust="spacing" textLength="576" x="90" y="437.4375">notifies clients, declines remaining orders for advertisement</text><text fill="#000000" font-family="sans-serif" font-size="20" lengthAdjust="spacing" textLength="328" x="90" y="460.9922">and confirms success of operation</text><!--SRC=[dLAnJiD03Dtp5LPda11Z1oGMVg1YOp5tJdBaOaTdfrNvUdmf1THML72J4p_xFJzRXyGJ5XopX84YH6fnplOaR9lqJd1_r-WH0gEmXBx8I61bfX-P2SE07MridmaA1KFkya-0zXXbbxY35hDIq-1imlFuIgNnZs1IOFNO4TiAKE5P_RzNMWffGZPOhJTxDHgNx25Soj8MZGxm1lpL26uVFY6mTlYWO09ABhedcEOIUbG2AT6XEQc1j30LcSZfI5yOLLF7ReQNrHAiifRkzNsH7bKS4v-Kjyw-g5X3J3fbtEibqg-oI1SxdWsYbDrN1U7J8VuZJNlPdUb2ZWU_KWiukILRDy4NK-ZDgId-M_ErVXUxORPJWKc_QtyPZiLIwwk4a9ElRfah2BUfZ0ewXq2gTUbrvMX9-D2C_30lC1wL_u5HRzmY3vcgu14JryjVEYgqxW36RRqsfT7HVd5N1LvndZWs7m00]--></g></svg>