<?xml version="1.0" encoding="UTF-8" standalone="no"?><svg xmlns="http://www.w3.org/2000/svg" xmlns:xlink="http://www.w3.org/1999/xlink" contentStyleType="text/css" height="647px" preserveAspectRatio="none" style="width:989px;height:647px;background:#FFFFFF;" version="1.1" viewBox="0 0 989 647" width="989px" zoomAndPan="magnify"><defs/><g><!--class Client--><g id="elem_Client"><rect codeLine="10" fill="#F1F1F1" height="41.5547" id="Client" rx="2.5" ry="2.5" style="stroke:#181818;stroke-width:0.5;" width="62" x="10" y="180.5"/><text fill="#000000" font-family="sans-serif" font-size="20" lengthAdjust="spacing" textLength="56" x="13" y="204.8359">Client</text><line style="stroke:#181818;stroke-width:0.5;" x1="11" x2="71" y1="214.0547" y2="214.0547"/></g><!--class Owner--><g id="elem_Owner"><rect codeLine="12" fill="#F1F1F1" height="41.5547" id="Owner" rx="2.5" ry="2.5" style="stroke:#181818;stroke-width:0.5;" width="68" x="7" y="366"/><text fill="#000000" font-family="sans-serif" font-size="20" lengthAdjust="spacing" textLength="62" x="10" y="390.3359">Owner</text><line style="stroke:#181818;stroke-width:0.5;" x1="8" x2="74" y1="399.5547" y2="399.5547"/></g><!--class AdvertisementRequest--><g id="elem_AdvertisementRequest"><rect codeLine="14" fill="#F1F1F1" height="88.6641" id="AdvertisementRequest" rx="2.5" ry="2.5" style="stroke:#181818;stroke-width:0.5;" width="222" x="214" y="342.5"/><text fill="#000000" font-family="sans-serif" font-size="20" lengthAdjust="spacing" textLength="216" x="217" y="366.8359">AdvertisementRequest</text><line style="stroke:#181818;stroke-width:0.5;" x1="215" x2="435" y1="376.0547" y2="376.0547"/><text fill="#000000" font-family="sans-serif" font-size="20" lengthAdjust="spacing" textLength="48" x="220" y="399.3906">price</text><text fill="#000000" font-family="sans-serif" font-size="20" lengthAdjust="spacing" textLength="142" x="220" y="422.9453">dateOfRequest</text></g><!--class Advertisement--><g id="elem_Advertisement"><rect codeLine="18" fill="#F1F1F1" height="65.1094" id="Advertisement" rx="2.5" ry="2.5" style="stroke:#181818;stroke-width:0.5;" width="216" x="215" y="551.5"/><text fill="#000000" font-family="sans-serif" font-size="20" lengthAdjust="spacing" textLength="139" x="253.5" y="575.8359">Advertisement</text><line style="stroke:#181818;stroke-width:0.5;" x1="216" x2="430" y1="585.0547" y2="585.0547"/><text fill="#000000" font-family="sans-serif" font-size="20" lengthAdjust="spacing" textLength="204" x="221" y="608.3906">dateOfAdvertisement</text></g><!--class Property--><g id="elem_Property"><rect codeLine="23" fill="#F1F1F1" height="88.6641" id="Property" rx="2.5" ry="2.5" style="stroke:#181818;stroke-width:0.5;" width="192" x="332" y="157"/><text fill="#000000" font-family="sans-serif" font-size="20" lengthAdjust="spacing" textLength="80" x="388" y="181.3359">Property</text><line style="stroke:#181818;stroke-width:0.5;" x1="333" x2="523" y1="190.5547" y2="190.5547"/><text fill="#000000" font-family="sans-serif" font-size="20" lengthAdjust="spacing" textLength="41" x="338" y="213.8906">area</text><text fill="#000000" font-family="sans-serif" font-size="20" lengthAdjust="spacing" textLength="180" x="338" y="237.4453">distanceCityCentre</text></g><!--class TypeOfProperty--><g id="elem_TypeOfProperty"><rect codeLine="28" fill="#F1F1F1" height="65.1094" id="TypeOfProperty" rx="2.5" ry="2.5" style="stroke:#181818;stroke-width:0.5;" width="156" x="350" y="7"/><text fill="#000000" font-family="sans-serif" font-size="20" lengthAdjust="spacing" textLength="150" x="353" y="31.3359">TypeOfProperty</text><line style="stroke:#181818;stroke-width:0.5;" x1="351" x2="505" y1="40.5547" y2="40.5547"/><text fill="#000000" font-family="sans-serif" font-size="20" lengthAdjust="spacing" textLength="112" x="356" y="63.8906">designation</text></g><!--class Photograph--><g id="elem_Photograph"><rect codeLine="32" fill="#F1F1F1" height="65.1094" id="Photograph" rx="2.5" ry="2.5" style="stroke:#181818;stroke-width:0.5;" width="116" x="675" y="169"/><text fill="#000000" font-family="sans-serif" font-size="20" lengthAdjust="spacing" textLength="110" x="678" y="193.3359">Photograph</text><line style="stroke:#181818;stroke-width:0.5;" x1="676" x2="790" y1="202.5547" y2="202.5547"/><text fill="#000000" font-family="sans-serif" font-size="20" lengthAdjust="spacing" textLength="69" x="681" y="225.8906">linkURI</text></g><!--class Residence--><g id="elem_Residence"><rect codeLine="36" fill="#F1F1F1" height="112.2188" id="Residence" rx="2.5" ry="2.5" style="stroke:#181818;stroke-width:0.5;" width="248" x="473" y="331"/><text fill="#000000" font-family="sans-serif" font-size="20" lengthAdjust="spacing" textLength="97" x="548.5" y="355.3359">Residence</text><line style="stroke:#181818;stroke-width:0.5;" x1="474" x2="720" y1="364.5547" y2="364.5547"/><text fill="#000000" font-family="sans-serif" font-size="20" lengthAdjust="spacing" textLength="195" x="479" y="387.8906">numberOfBedrooms</text><text fill="#000000" font-family="sans-serif" font-size="20" lengthAdjust="spacing" textLength="201" x="479" y="411.4453">numberOfBathrooms</text><text fill="#000000" font-family="sans-serif" font-size="20" lengthAdjust="spacing" textLength="236" x="479" y="435">numberOfParkingSpaces</text></g><!--class House--><g id="elem_House"><rect codeLine="42" fill="#F1F1F1" height="112.2188" id="House" rx="2.5" ry="2.5" style="stroke:#181818;stroke-width:0.5;" width="270" x="466" y="528"/><text fill="#000000" font-family="sans-serif" font-size="20" lengthAdjust="spacing" textLength="60" x="571" y="552.3359">House</text><line style="stroke:#181818;stroke-width:0.5;" x1="467" x2="735" y1="561.5547" y2="561.5547"/><text fill="#000000" font-family="sans-serif" font-size="20" lengthAdjust="spacing" textLength="206" x="472" y="584.8906">existenceOfBasement</text><text fill="#000000" font-family="sans-serif" font-size="20" lengthAdjust="spacing" textLength="258" x="472" y="608.4453">existenceOfInhabitableLoft</text><text fill="#000000" font-family="sans-serif" font-size="20" lengthAdjust="spacing" textLength="123" x="472" y="632">sunExposure</text></g><!--class Equipment--><g id="elem_Equipment"><rect codeLine="48" fill="#F1F1F1" height="65.1094" id="Equipment" rx="2.5" ry="2.5" style="stroke:#181818;stroke-width:0.5;" width="124" x="858" y="354.5"/><text fill="#000000" font-family="sans-serif" font-size="20" lengthAdjust="spacing" textLength="104" x="868" y="378.8359">Equipment</text><line style="stroke:#181818;stroke-width:0.5;" x1="859" x2="981" y1="388.0547" y2="388.0547"/><text fill="#000000" font-family="sans-serif" font-size="20" lengthAdjust="spacing" textLength="112" x="864" y="411.3906">designation</text></g><!--reverse link Client to Owner--><g id="link_Client_Owner"><path codeLine="52" d="M41,242.91 C41,280.96 41,336.4 41,365.85 " fill="none" id="Client-backto-Owner" style="stroke:#181818;stroke-width:1.0;"/><polygon fill="none" points="34,242.84,41,222.84,48,242.84,34,242.84" style="stroke:#181818;stroke-width:1.0;"/></g><!--link Owner to AdvertisementRequest--><g id="link_Owner_AdvertisementRequest"><path codeLine="53" d="M75.26,387 C109.63,387 164.44,387 213.97,387 " fill="none" id="Owner-AdvertisementRequest" style="stroke:#181818;stroke-width:1.0;"/><polygon fill="#000000" points="108.5,371.7773,94.0279,367.0751,94.0279,376.4796,108.5,371.7773" style="stroke:#000000;stroke-width:1.0;"/><text fill="#000000" font-family="sans-serif" font-size="20" lengthAdjust="spacing" textLength="82" x="113.5" y="379.3359">requests</text><text fill="#000000" font-family="sans-serif" font-size="20" lengthAdjust="spacing" textLength="13" x="83.0299" y="381.2391">1</text><text fill="#000000" font-family="sans-serif" font-size="20" lengthAdjust="spacing" textLength="10" x="196.1742" y="382.5932">*</text></g><!--link AdvertisementRequest to Advertisement--><g id="link_AdvertisementRequest_Advertisement"><path codeLine="54" d="M324.55,431.76 C324.18,468.03 323.66,518.73 323.33,551.22 " fill="none" id="AdvertisementRequest-Advertisement" style="stroke:#181818;stroke-width:1.0;"/><polygon fill="#000000" points="333.0817,477.7778,328.2319,492.2011,337.6359,492.2972,333.0817,477.7778" style="stroke:#000000;stroke-width:1.0;"/><text fill="#000000" font-family="sans-serif" font-size="20" lengthAdjust="spacing" textLength="121" x="346" y="493.3359">derives from</text><text fill="#000000" font-family="sans-serif" font-size="20" lengthAdjust="spacing" textLength="13" x="310.6595" y="458.3613">1</text><text fill="#000000" font-family="sans-serif" font-size="20" lengthAdjust="spacing" textLength="13" x="309.1538" y="539.1575">1</text></g><!--link Property to AdvertisementRequest--><g id="link_Property_AdvertisementRequest"><path codeLine="55" d="M403.33,246.45 C387.02,275.5 365.74,313.43 349.47,342.41 " fill="none" id="Property-AdvertisementRequest" style="stroke:#181818;stroke-width:1.0;"/><polygon fill="#000000" points="397.9156,281.8011,386.7317,292.1197,394.9328,296.7228,397.9156,281.8011" style="stroke:#000000;stroke-width:1.0;"/><text fill="#000000" font-family="sans-serif" font-size="20" lengthAdjust="spacing" textLength="92" x="407" y="296.3359">describes</text><text fill="#000000" font-family="sans-serif" font-size="20" lengthAdjust="spacing" textLength="13" x="386.3363" y="273.0756">1</text><text fill="#000000" font-family="sans-serif" font-size="20" lengthAdjust="spacing" textLength="13" x="339.2217" y="330.2253">1</text></g><!--reverse link Property to Residence--><g id="link_Property_Residence"><path codeLine="56" d="M492.23,259.93 C497.67,265.26 502.99,270.67 508,276 C524.14,293.19 540.7,312.96 555.08,330.95 " fill="none" id="Property-backto-Residence" style="stroke:#181818;stroke-width:1.0;"/><polygon fill="none" points="487.37,264.97,477.75,246.09,497.04,254.85,487.37,264.97" style="stroke:#181818;stroke-width:1.0;"/></g><!--reverse link Residence to House--><g id="link_Residence_House"><path codeLine="57" d="M598.55,463.42 C598.99,484.83 599.46,507.73 599.87,527.7 " fill="none" id="Residence-backto-House" style="stroke:#181818;stroke-width:1.0;"/><polygon fill="none" points="591.54,463.24,598.13,443.1,605.54,462.95,591.54,463.24" style="stroke:#181818;stroke-width:1.0;"/></g><!--link Residence to Equipment--><g id="link_Residence_Equipment"><path codeLine="58" d="M721.42,387 C768.16,387 819.28,387 857.94,387 " fill="none" id="Residence-Equipment" style="stroke:#181818;stroke-width:1.0;"/><polygon fill="#000000" points="754.5,371.7773,740.0279,367.0751,740.0279,376.4796,754.5,371.7773" style="stroke:#000000;stroke-width:1.0;"/><text fill="#000000" font-family="sans-serif" font-size="20" lengthAdjust="spacing" textLength="80" x="759.5" y="379.3359">contains</text><text fill="#000000" font-family="sans-serif" font-size="20" lengthAdjust="spacing" textLength="13" x="728.9888" y="382.6808">1</text><text fill="#000000" font-family="sans-serif" font-size="20" lengthAdjust="spacing" textLength="10" x="840.1862" y="382.032">*</text></g><!--link Property to Photograph--><g id="link_Property_Photograph"><path codeLine="59" d="M524.09,201.5 C573.5,201.5 632.12,201.5 674.66,201.5 " fill="none" id="Property-Photograph" style="stroke:#181818;stroke-width:1.0;"/><polygon fill="#000000" points="541.5,186.2773,555.9721,190.9796,555.9721,181.5751,541.5,186.2773" style="stroke:#000000;stroke-width:1.0;"/><text fill="#000000" font-family="sans-serif" font-size="20" lengthAdjust="spacing" textLength="94" x="562.5" y="193.8359">illustrates</text><text fill="#000000" font-family="sans-serif" font-size="20" lengthAdjust="spacing" textLength="13" x="531.9445" y="196.9896">1</text><text fill="#000000" font-family="sans-serif" font-size="20" lengthAdjust="spacing" textLength="51" x="615.931" y="221.9166">1..30</text></g><!--link TypeOfProperty to Property--><g id="link_TypeOfProperty_Property"><path codeLine="60" d="M428,72.11 C428,96.34 428,130.04 428,156.84 " fill="none" id="TypeOfProperty-Property" style="stroke:#181818;stroke-width:1.0;"/><polygon fill="#000000" points="436,106.7773,431.2977,121.2495,440.7023,121.2495,436,106.7773" style="stroke:#000000;stroke-width:1.0;"/><text fill="#000000" font-family="sans-serif" font-size="20" lengthAdjust="spacing" textLength="158" x="449" y="122.3359">characterized by</text><text fill="#000000" font-family="sans-serif" font-size="20" lengthAdjust="spacing" textLength="13" x="413.8422" y="99.3427">1</text><text fill="#000000" font-family="sans-serif" font-size="20" lengthAdjust="spacing" textLength="10" x="417.2344" y="144.6446">*</text></g><!--SRC=[RLFDQkCm4BxhAOIFXPIaUmjbeHkwR60X8Tbz05aQsoAov6f6RTrittt7Tbqx9JThlf_vDPwiRrHKjGlw14OQA5Hoz3DuEjeta7TBWID5ri47NSLGWwIOO8OqIfzK2KTg7SW8cfGltPo0bJBXnVfI5ieXY1cadK9y88esJmHR7NoVUIb4PGr8RQDcg_wx1gg2GI5wZTmu2vxEx-Dxz-8XokdzO9uXaaMecNQ0fmH8yYoQQ3K8emXsnKTKl5-JC7TWNKIPEoROnz0mq39HHL32MEJEDMmijHkcHX2VnVnf6tOQ5UmCQ4klo0O_aVPLe516rLHduQm__Jri9_302WDip-bygdE8k-87c1X2ZLD0KNKPsQl8iowFl2F0oUrNI0Xd0QzSSsVQIJyQdCMslbAv9PKx-1qA4fZyusiJCCrRUtnAjXa7TjdMi29v_s-n6DOZhYqbkydaOk5ajie6rfgFg4TGtbzNh3f5BxY0rtp1qJu3oeBlbCNZm2V1DRjEXfel472caKFTdtCNqmPwe1_X51nIHCdTJ1DPIpveKjQZ_Fwb66QkRc-_BRDfwsjfdKj8aSzkNiameDHqzLyU4ljN_1jfuhRV-0VEMyuZ_WC0]--></g></svg>