<?xml version="1.0" encoding="UTF-8" standalone="no"?><svg xmlns="http://www.w3.org/2000/svg" xmlns:xlink="http://www.w3.org/1999/xlink" contentStyleType="text/css" height="1180px" preserveAspectRatio="none" style="width:2731px;height:1180px;background:#FFFFFF;" version="1.1" viewBox="0 0 2731 1180" width="2731px" zoomAndPan="magnify"><defs/><g><text fill="#000000" font-family="sans-serif" font-size="14" font-weight="bold" lengthAdjust="spacing" textLength="263" x="1233.25" y="28.5352">UI Sequence Diagram (SSD) - US 010</text><rect fill="#FFFFFF" height="947.8672" style="stroke:#181818;stroke-width:1.0;" width="10" x="31" y="136.043"/><rect fill="#FFFFFF" height="461.6563" style="stroke:#181818;stroke-width:1.0;" width="10" x="540" y="165.5977"/><rect fill="#FFFFFF" height="37.5547" style="stroke:#181818;stroke-width:1.0;" width="10" x="540" y="664.8086"/><rect fill="#FFFFFF" height="334.9922" style="stroke:#181818;stroke-width:1.0;" width="10" x="540" y="739.918"/><rect fill="#FFFFFF" height="337.9922" style="stroke:#181818;stroke-width:1.0;" width="10" x="1105" y="251.707"/><rect fill="#FFFFFF" height="259.8828" style="stroke:#181818;stroke-width:1.0;" width="10" x="1105" y="777.4727"/><rect fill="#FFFFFF" height="262.8828" style="stroke:#181818;stroke-width:1.0;" width="10" x="1647" y="289.2617"/><rect fill="#FFFFFF" height="112.6641" style="stroke:#181818;stroke-width:1.0;" width="10" x="1647" y="887.1367"/><rect fill="#FFFFFF" height="37.5547" style="stroke:#181818;stroke-width:1.0;" width="10" x="1895" y="326.8164"/><rect fill="#FFFFFF" height="37.5547" style="stroke:#181818;stroke-width:1.0;" width="10" x="2044" y="401.9258"/><rect fill="#FFFFFF" height="37.5547" style="stroke:#181818;stroke-width:1.0;" width="10" x="2252.5" y="477.0352"/><rect fill="#FFFFFF" height="37.5547" style="stroke:#181818;stroke-width:1.0;" width="10" x="2469.5" y="924.6914"/><line style="stroke:#181818;stroke-width:0.5;stroke-dasharray:5.0,5.0;" x1="36" x2="36" y1="126.043" y2="1092.9102"/><line style="stroke:#181818;stroke-width:0.5;stroke-dasharray:5.0,5.0;" x1="545" x2="545" y1="126.043" y2="1092.9102"/><line style="stroke:#181818;stroke-width:0.5;stroke-dasharray:5.0,5.0;" x1="1110" x2="1110" y1="207.875" y2="1092.9102"/><line style="stroke:#181818;stroke-width:0.5;stroke-dasharray:5.0,5.0;" x1="1651.5" x2="1651.5" y1="126.043" y2="1092.9102"/><line style="stroke:#181818;stroke-width:0.5;stroke-dasharray:5.0,5.0;" x1="1899.5" x2="1899.5" y1="126.043" y2="1092.9102"/><line style="stroke:#181818;stroke-width:0.5;stroke-dasharray:5.0,5.0;" x1="2048.5" x2="2048.5" y1="126.043" y2="1092.9102"/><line style="stroke:#181818;stroke-width:0.5;stroke-dasharray:5.0,5.0;" x1="2257.5" x2="2257.5" y1="126.043" y2="1092.9102"/><line style="stroke:#181818;stroke-width:0.5;stroke-dasharray:5.0,5.0;" x1="2474.5" x2="2474.5" y1="126.043" y2="1092.9102"/><line style="stroke:#181818;stroke-width:0.5;stroke-dasharray:5.0,5.0;" x1="2643.5" x2="2643.5" y1="831.5273" y2="1092.9102"/><text fill="#000000" font-family="sans-serif" font-size="20" lengthAdjust="spacing" textLength="56" x="5" y="121.8242">Client</text><ellipse cx="36" cy="50.9883" fill="#E3E3E3" rx="8" ry="8" style="stroke:#181818;stroke-width:0.5;"/><path d="M36,58.9883 L36,85.9883 M23,66.9883 L49,66.9883 M36,85.9883 L23,100.9883 M36,85.9883 L49,100.9883 " fill="none" style="stroke:#181818;stroke-width:0.5;"/><text fill="#000000" font-family="sans-serif" font-size="20" lengthAdjust="spacing" textLength="56" x="5" y="1111.2461">Client</text><ellipse cx="36" cy="1123.9648" fill="#E3E3E3" rx="8" ry="8" style="stroke:#181818;stroke-width:0.5;"/><path d="M36,1131.9648 L36,1158.9648 M23,1139.9648 L49,1139.9648 M36,1158.9648 L23,1173.9648 M36,1158.9648 L49,1173.9648 " fill="none" style="stroke:#181818;stroke-width:0.5;"/><rect fill="#E3E3E3" height="37.5547" rx="2.5" ry="2.5" style="stroke:#181818;stroke-width:0.5;" width="320" x="385" y="87.4883"/><text fill="#000000" font-family="sans-serif" font-size="20" lengthAdjust="spacing" textLength="306" x="392" y="113.8242">:AdvertisementPurchaseOrderUI</text><rect fill="#E3E3E3" height="37.5547" rx="2.5" ry="2.5" style="stroke:#181818;stroke-width:0.5;" width="320" x="385" y="1091.9102"/><text fill="#000000" font-family="sans-serif" font-size="20" lengthAdjust="spacing" textLength="306" x="392" y="1118.2461">:AdvertisementPurchaseOrderUI</text><rect fill="#E3E3E3" height="37.5547" rx="2.5" ry="2.5" style="stroke:#181818;stroke-width:0.5;" width="396" x="912" y="1091.9102"/><text fill="#000000" font-family="sans-serif" font-size="20" lengthAdjust="spacing" textLength="382" x="919" y="1118.2461">:AdvertisementPurchaseOrderController</text><rect fill="#E3E3E3" height="61.1094" rx="2.5" ry="2.5" style="stroke:#181818;stroke-width:0.5;" width="337" x="1483.5" y="63.9336"/><text fill="#000000" font-family="sans-serif" font-size="20" lengthAdjust="spacing" textLength="323" x="1490.5" y="90.2695">manageAdvertisementRepository:</text><text fill="#000000" font-family="sans-serif" font-size="20" lengthAdjust="spacing" textLength="315" x="1494.5" y="113.8242">ManageAdvertisementRepository</text><rect fill="#E3E3E3" height="61.1094" rx="2.5" ry="2.5" style="stroke:#181818;stroke-width:0.5;" width="337" x="1483.5" y="1091.9102"/><text fill="#000000" font-family="sans-serif" font-size="20" lengthAdjust="spacing" textLength="323" x="1490.5" y="1118.2461">manageAdvertisementRepository:</text><text fill="#000000" font-family="sans-serif" font-size="20" lengthAdjust="spacing" textLength="315" x="1494.5" y="1141.8008">ManageAdvertisementRepository</text><rect fill="#E3E3E3" height="37.5547" rx="2.5" ry="2.5" style="stroke:#181818;stroke-width:0.5;" width="139" x="1830.5" y="87.4883"/><text fill="#000000" font-family="sans-serif" font-size="20" lengthAdjust="spacing" textLength="125" x="1837.5" y="113.8242">:Repositories</text><rect fill="#E3E3E3" height="37.5547" rx="2.5" ry="2.5" style="stroke:#181818;stroke-width:0.5;" width="139" x="1830.5" y="1091.9102"/><text fill="#000000" font-family="sans-serif" font-size="20" lengthAdjust="spacing" textLength="125" x="1837.5" y="1118.2461">:Repositories</text><rect fill="#E3E3E3" height="61.1094" rx="2.5" ry="2.5" style="stroke:#181818;stroke-width:0.5;" width="139" x="1979.5" y="63.9336"/><text fill="#000000" font-family="sans-serif" font-size="20" lengthAdjust="spacing" textLength="114" x="1992" y="90.2695">repositories</text><text fill="#000000" font-family="sans-serif" font-size="20" lengthAdjust="spacing" textLength="125" x="1986.5" y="113.8242">:Repositories</text><rect fill="#E3E3E3" height="61.1094" rx="2.5" ry="2.5" style="stroke:#181818;stroke-width:0.5;" width="139" x="1979.5" y="1091.9102"/><text fill="#000000" font-family="sans-serif" font-size="20" lengthAdjust="spacing" textLength="114" x="1992" y="1118.2461">repositories</text><text fill="#000000" font-family="sans-serif" font-size="20" lengthAdjust="spacing" textLength="125" x="1986.5" y="1141.8008">:Repositories</text><rect fill="#E3E3E3" height="61.1094" rx="2.5" ry="2.5" style="stroke:#181818;stroke-width:0.5;" width="258" x="2128.5" y="63.9336"/><text fill="#000000" font-family="sans-serif" font-size="20" lengthAdjust="spacing" textLength="244" x="2135.5" y="90.2695">advertisementRepository:</text><text fill="#000000" font-family="sans-serif" font-size="20" lengthAdjust="spacing" textLength="241" x="2137" y="113.8242">AdvertisementRepository</text><rect fill="#E3E3E3" height="61.1094" rx="2.5" ry="2.5" style="stroke:#181818;stroke-width:0.5;" width="258" x="2128.5" y="1091.9102"/><text fill="#000000" font-family="sans-serif" font-size="20" lengthAdjust="spacing" textLength="244" x="2135.5" y="1118.2461">advertisementRepository:</text><text fill="#000000" font-family="sans-serif" font-size="20" lengthAdjust="spacing" textLength="241" x="2137" y="1141.8008">AdvertisementRepository</text><rect fill="#E3E3E3" height="61.1094" rx="2.5" ry="2.5" style="stroke:#181818;stroke-width:0.5;" width="156" x="2396.5" y="63.9336"/><text fill="#000000" font-family="sans-serif" font-size="20" lengthAdjust="spacing" textLength="142" x="2403.5" y="90.2695">advertisement:</text><text fill="#000000" font-family="sans-serif" font-size="20" lengthAdjust="spacing" textLength="139" x="2405" y="113.8242">Advertisement</text><rect fill="#E3E3E3" height="61.1094" rx="2.5" ry="2.5" style="stroke:#181818;stroke-width:0.5;" width="156" x="2396.5" y="1091.9102"/><text fill="#000000" font-family="sans-serif" font-size="20" lengthAdjust="spacing" textLength="142" x="2403.5" y="1118.2461">advertisement:</text><text fill="#000000" font-family="sans-serif" font-size="20" lengthAdjust="spacing" textLength="139" x="2405" y="1141.8008">Advertisement</text><rect fill="#E3E3E3" height="61.1094" rx="2.5" ry="2.5" style="stroke:#181818;stroke-width:0.5;" width="163" x="2562.5" y="1091.9102"/><text fill="#000000" font-family="sans-serif" font-size="20" lengthAdjust="spacing" textLength="149" x="2569.5" y="1118.2461">purchaseOrder:</text><text fill="#000000" font-family="sans-serif" font-size="20" lengthAdjust="spacing" textLength="141" x="2573.5" y="1141.8008">PurchaseOrder</text><rect fill="#FFFFFF" height="947.8672" style="stroke:#181818;stroke-width:1.0;" width="10" x="31" y="136.043"/><rect fill="#FFFFFF" height="461.6563" style="stroke:#181818;stroke-width:1.0;" width="10" x="540" y="165.5977"/><rect fill="#FFFFFF" height="37.5547" style="stroke:#181818;stroke-width:1.0;" width="10" x="540" y="664.8086"/><rect fill="#FFFFFF" height="334.9922" style="stroke:#181818;stroke-width:1.0;" width="10" x="540" y="739.918"/><rect fill="#FFFFFF" height="337.9922" style="stroke:#181818;stroke-width:1.0;" width="10" x="1105" y="251.707"/><rect fill="#FFFFFF" height="259.8828" style="stroke:#181818;stroke-width:1.0;" width="10" x="1105" y="777.4727"/><rect fill="#FFFFFF" height="262.8828" style="stroke:#181818;stroke-width:1.0;" width="10" x="1647" y="289.2617"/><rect fill="#FFFFFF" height="112.6641" style="stroke:#181818;stroke-width:1.0;" width="10" x="1647" y="887.1367"/><rect fill="#FFFFFF" height="37.5547" style="stroke:#181818;stroke-width:1.0;" width="10" x="1895" y="326.8164"/><rect fill="#FFFFFF" height="37.5547" style="stroke:#181818;stroke-width:1.0;" width="10" x="2044" y="401.9258"/><rect fill="#FFFFFF" height="37.5547" style="stroke:#181818;stroke-width:1.0;" width="10" x="2252.5" y="477.0352"/><rect fill="#FFFFFF" height="37.5547" style="stroke:#181818;stroke-width:1.0;" width="10" x="2469.5" y="924.6914"/><polygon fill="#181818" points="528,161.5977,538,165.5977,528,169.5977,532,165.5977" style="stroke:#181818;stroke-width:1.0;"/><line style="stroke:#181818;stroke-width:1.0;" x1="41" x2="534" y1="165.5977" y2="165.5977"/><text fill="#000000" font-family="sans-serif" font-size="20" font-weight="bold" lengthAdjust="spacing" textLength="13" x="48" y="159.3789">1</text><text fill="#000000" font-family="sans-serif" font-size="20" lengthAdjust="spacing" textLength="300" x="65" y="159.3789">asks to show advertisement list</text><polygon fill="#181818" points="900,199.1523,910,203.1523,900,207.1523,904,203.1523" style="stroke:#181818;stroke-width:1.0;"/><line style="stroke:#181818;stroke-width:1.0;" x1="550" x2="906" y1="203.1523" y2="203.1523"/><text fill="#000000" font-family="sans-serif" font-size="20" font-weight="bold" lengthAdjust="spacing" textLength="13" x="557" y="196.9336">2</text><text fill="#000000" font-family="sans-serif" font-size="20" lengthAdjust="spacing" textLength="6" x="574" y="196.9336"> </text><rect fill="#E3E3E3" height="37.5547" rx="2.5" ry="2.5" style="stroke:#181818;stroke-width:0.5;" width="396" x="912" y="173.5977"/><text fill="#000000" font-family="sans-serif" font-size="20" lengthAdjust="spacing" textLength="382" x="919" y="199.9336">:AdvertisementPurchaseOrderController</text><polygon fill="#181818" points="1093,247.707,1103,251.707,1093,255.707,1097,251.707" style="stroke:#181818;stroke-width:1.0;"/><line style="stroke:#181818;stroke-width:1.0;" x1="550" x2="1099" y1="251.707" y2="251.707"/><text fill="#000000" font-family="sans-serif" font-size="20" font-weight="bold" lengthAdjust="spacing" textLength="13" x="557" y="245.4883">3</text><text fill="#000000" font-family="sans-serif" font-size="20" lengthAdjust="spacing" textLength="240" x="574" y="245.4883">getListOfAdvertisement()</text><polygon fill="#181818" points="1635,285.2617,1645,289.2617,1635,293.2617,1639,289.2617" style="stroke:#181818;stroke-width:1.0;"/><line style="stroke:#181818;stroke-width:1.0;" x1="1115" x2="1641" y1="289.2617" y2="289.2617"/><text fill="#000000" font-family="sans-serif" font-size="20" font-weight="bold" lengthAdjust="spacing" textLength="13" x="1122" y="283.043">4</text><text fill="#000000" font-family="sans-serif" font-size="20" lengthAdjust="spacing" textLength="250" x="1139" y="283.043">getListOfAdvertisements()</text><polygon fill="#181818" points="1883,322.8164,1893,326.8164,1883,330.8164,1887,326.8164" style="stroke:#181818;stroke-width:1.0;"/><line style="stroke:#181818;stroke-width:1.0;" x1="1657" x2="1889" y1="326.8164" y2="326.8164"/><text fill="#000000" font-family="sans-serif" font-size="20" font-weight="bold" lengthAdjust="spacing" textLength="13" x="1664" y="320.5977">5</text><text fill="#000000" font-family="sans-serif" font-size="20" lengthAdjust="spacing" textLength="123" x="1681" y="320.5977">getInstance()</text><polygon fill="#181818" points="1668,360.3711,1658,364.3711,1668,368.3711,1664,364.3711" style="stroke:#181818;stroke-width:1.0;"/><line style="stroke:#181818;stroke-width:1.0;stroke-dasharray:2.0,2.0;" x1="1662" x2="1899" y1="364.3711" y2="364.3711"/><text fill="#000000" font-family="sans-serif" font-size="20" font-weight="bold" lengthAdjust="spacing" textLength="13" x="1674" y="358.1523">6</text><text fill="#000000" font-family="sans-serif" font-size="20" lengthAdjust="spacing" textLength="114" x="1691" y="358.1523">repositories</text><polygon fill="#181818" points="2032,397.9258,2042,401.9258,2032,405.9258,2036,401.9258" style="stroke:#181818;stroke-width:1.0;"/><line style="stroke:#181818;stroke-width:1.0;" x1="1657" x2="2038" y1="401.9258" y2="401.9258"/><text fill="#000000" font-family="sans-serif" font-size="20" font-weight="bold" lengthAdjust="spacing" textLength="13" x="1664" y="395.707">7</text><text fill="#000000" font-family="sans-serif" font-size="20" lengthAdjust="spacing" textLength="285" x="1681" y="395.707">getAdvertisementRepository()</text><polygon fill="#181818" points="1668,435.4805,1658,439.4805,1668,443.4805,1664,439.4805" style="stroke:#181818;stroke-width:1.0;"/><line style="stroke:#181818;stroke-width:1.0;stroke-dasharray:2.0,2.0;" x1="1662" x2="2048" y1="439.4805" y2="439.4805"/><text fill="#000000" font-family="sans-serif" font-size="20" font-weight="bold" lengthAdjust="spacing" textLength="13" x="1674" y="433.2617">8</text><text fill="#000000" font-family="sans-serif" font-size="20" lengthAdjust="spacing" textLength="241" x="1691" y="433.2617">AdvertisementRepository</text><polygon fill="#181818" points="2240.5,473.0352,2250.5,477.0352,2240.5,481.0352,2244.5,477.0352" style="stroke:#181818;stroke-width:1.0;"/><line style="stroke:#181818;stroke-width:1.0;" x1="1657" x2="2246.5" y1="477.0352" y2="477.0352"/><text fill="#000000" font-family="sans-serif" font-size="20" font-weight="bold" lengthAdjust="spacing" textLength="13" x="1664" y="470.8164">9</text><text fill="#000000" font-family="sans-serif" font-size="20" lengthAdjust="spacing" textLength="59" x="1681" y="470.8164">copy()</text><polygon fill="#181818" points="1668,510.5898,1658,514.5898,1668,518.5898,1664,514.5898" style="stroke:#181818;stroke-width:1.0;"/><line style="stroke:#181818;stroke-width:1.0;stroke-dasharray:2.0,2.0;" x1="1662" x2="2256.5" y1="514.5898" y2="514.5898"/><text fill="#000000" font-family="sans-serif" font-size="20" font-weight="bold" lengthAdjust="spacing" textLength="26" x="1674" y="508.3711">10</text><text fill="#000000" font-family="sans-serif" font-size="20" lengthAdjust="spacing" textLength="173" x="1704" y="508.3711">AdvertisementList</text><polygon fill="#181818" points="1126,548.1445,1116,552.1445,1126,556.1445,1122,552.1445" style="stroke:#181818;stroke-width:1.0;"/><line style="stroke:#181818;stroke-width:1.0;stroke-dasharray:2.0,2.0;" x1="1120" x2="1651" y1="552.1445" y2="552.1445"/><text fill="#000000" font-family="sans-serif" font-size="20" font-weight="bold" lengthAdjust="spacing" textLength="26" x="1132" y="545.9258">11</text><text fill="#000000" font-family="sans-serif" font-size="20" lengthAdjust="spacing" textLength="173" x="1162" y="545.9258">AdvertisementList</text><polygon fill="#181818" points="561,585.6992,551,589.6992,561,593.6992,557,589.6992" style="stroke:#181818;stroke-width:1.0;"/><line style="stroke:#181818;stroke-width:1.0;stroke-dasharray:2.0,2.0;" x1="555" x2="1109" y1="589.6992" y2="589.6992"/><text fill="#000000" font-family="sans-serif" font-size="20" font-weight="bold" lengthAdjust="spacing" textLength="26" x="567" y="583.4805">12</text><text fill="#000000" font-family="sans-serif" font-size="20" lengthAdjust="spacing" textLength="173" x="597" y="583.4805">AdvertisementList</text><polygon fill="#181818" points="52,623.2539,42,627.2539,52,631.2539,48,627.2539" style="stroke:#181818;stroke-width:1.0;"/><line style="stroke:#181818;stroke-width:1.0;stroke-dasharray:2.0,2.0;" x1="46" x2="544" y1="627.2539" y2="627.2539"/><text fill="#000000" font-family="sans-serif" font-size="20" font-weight="bold" lengthAdjust="spacing" textLength="26" x="58" y="621.0352">13</text><text fill="#000000" font-family="sans-serif" font-size="20" lengthAdjust="spacing" textLength="445" x="88" y="621.0352">displays list of advertisements and selects one</text><polygon fill="#181818" points="528,660.8086,538,664.8086,528,668.8086,532,664.8086" style="stroke:#181818;stroke-width:1.0;"/><line style="stroke:#181818;stroke-width:1.0;" x1="41" x2="534" y1="664.8086" y2="664.8086"/><text fill="#000000" font-family="sans-serif" font-size="20" font-weight="bold" lengthAdjust="spacing" textLength="26" x="48" y="658.5898">14</text><text fill="#000000" font-family="sans-serif" font-size="20" lengthAdjust="spacing" textLength="192" x="78" y="658.5898">requests data(price)</text><polygon fill="#181818" points="52,698.3633,42,702.3633,52,706.3633,48,702.3633" style="stroke:#181818;stroke-width:1.0;"/><line style="stroke:#181818;stroke-width:1.0;stroke-dasharray:2.0,2.0;" x1="46" x2="544" y1="702.3633" y2="702.3633"/><text fill="#000000" font-family="sans-serif" font-size="20" font-weight="bold" lengthAdjust="spacing" textLength="26" x="58" y="696.1445">15</text><text fill="#000000" font-family="sans-serif" font-size="20" lengthAdjust="spacing" textLength="201" x="88" y="696.1445">types requested data</text><polygon fill="#181818" points="528,735.918,538,739.918,528,743.918,532,739.918" style="stroke:#181818;stroke-width:1.0;"/><line style="stroke:#181818;stroke-width:1.0;" x1="41" x2="534" y1="739.918" y2="739.918"/><text fill="#000000" font-family="sans-serif" font-size="20" font-weight="bold" lengthAdjust="spacing" textLength="26" x="48" y="733.6992">16</text><text fill="#000000" font-family="sans-serif" font-size="20" lengthAdjust="spacing" textLength="125" x="78" y="733.6992">submits data</text><polygon fill="#181818" points="1093,773.4727,1103,777.4727,1093,781.4727,1097,777.4727" style="stroke:#181818;stroke-width:1.0;"/><line style="stroke:#181818;stroke-width:1.0;" x1="550" x2="1099" y1="777.4727" y2="777.4727"/><text fill="#000000" font-family="sans-serif" font-size="20" font-weight="bold" lengthAdjust="spacing" textLength="26" x="557" y="771.2539">17</text><text fill="#000000" font-family="sans-serif" font-size="20" lengthAdjust="spacing" textLength="506" x="587" y="771.2539">addPurchaseOrder(client, date, price, advertisement)</text><polygon fill="#181818" points="2550.5,811.0273,2560.5,815.0273,2550.5,819.0273,2554.5,815.0273" style="stroke:#181818;stroke-width:1.0;"/><line style="stroke:#181818;stroke-width:1.0;" x1="1115" x2="2556.5" y1="815.0273" y2="815.0273"/><text fill="#000000" font-family="sans-serif" font-size="20" font-weight="bold" lengthAdjust="spacing" textLength="26" x="1122" y="808.8086">18</text><text fill="#000000" font-family="sans-serif" font-size="20" lengthAdjust="spacing" textLength="527" x="1152" y="808.8086">createPurchaseOrder(client, date, price, advertisement)</text><rect fill="#E3E3E3" height="61.1094" rx="2.5" ry="2.5" style="stroke:#181818;stroke-width:0.5;" width="163" x="2562.5" y="785.4727"/><text fill="#000000" font-family="sans-serif" font-size="20" lengthAdjust="spacing" textLength="149" x="2569.5" y="811.8086">purchaseOrder:</text><text fill="#000000" font-family="sans-serif" font-size="20" lengthAdjust="spacing" textLength="141" x="2573.5" y="835.3633">PurchaseOrder</text><polygon fill="#181818" points="1635,883.1367,1645,887.1367,1635,891.1367,1639,887.1367" style="stroke:#181818;stroke-width:1.0;"/><line style="stroke:#181818;stroke-width:1.0;" x1="1115" x2="1641" y1="887.1367" y2="887.1367"/><text fill="#000000" font-family="sans-serif" font-size="20" font-weight="bold" lengthAdjust="spacing" textLength="26" x="1122" y="880.918">19</text><text fill="#000000" font-family="sans-serif" font-size="20" lengthAdjust="spacing" textLength="483" x="1152" y="880.918">addPurchaseOrder(purchaseOrder, advertisement)</text><polygon fill="#181818" points="2457.5,920.6914,2467.5,924.6914,2457.5,928.6914,2461.5,924.6914" style="stroke:#181818;stroke-width:1.0;"/><line style="stroke:#181818;stroke-width:1.0;" x1="1657" x2="2463.5" y1="924.6914" y2="924.6914"/><text fill="#000000" font-family="sans-serif" font-size="20" font-weight="bold" lengthAdjust="spacing" textLength="26" x="1664" y="918.4727">20</text><text fill="#000000" font-family="sans-serif" font-size="20" lengthAdjust="spacing" textLength="483" x="1694" y="918.4727">addPurchaseOrder(purchaseOrder, advertisement)</text><polygon fill="#181818" points="1668,958.2461,1658,962.2461,1668,966.2461,1664,962.2461" style="stroke:#181818;stroke-width:1.0;"/><line style="stroke:#181818;stroke-width:1.0;stroke-dasharray:2.0,2.0;" x1="1662" x2="2473.5" y1="962.2461" y2="962.2461"/><text fill="#000000" font-family="sans-serif" font-size="20" font-weight="bold" lengthAdjust="spacing" textLength="26" x="1674" y="956.0273">21</text><text fill="#000000" font-family="sans-serif" font-size="20" lengthAdjust="spacing" textLength="171" x="1704" y="956.0273">operation success</text><polygon fill="#181818" points="1126,995.8008,1116,999.8008,1126,1003.8008,1122,999.8008" style="stroke:#181818;stroke-width:1.0;"/><line style="stroke:#181818;stroke-width:1.0;stroke-dasharray:2.0,2.0;" x1="1120" x2="1651" y1="999.8008" y2="999.8008"/><text fill="#000000" font-family="sans-serif" font-size="20" font-weight="bold" lengthAdjust="spacing" textLength="26" x="1132" y="993.582">22</text><text fill="#000000" font-family="sans-serif" font-size="20" lengthAdjust="spacing" textLength="171" x="1162" y="993.582">operation success</text><polygon fill="#181818" points="561,1033.3555,551,1037.3555,561,1041.3555,557,1037.3555" style="stroke:#181818;stroke-width:1.0;"/><line style="stroke:#181818;stroke-width:1.0;stroke-dasharray:2.0,2.0;" x1="555" x2="1109" y1="1037.3555" y2="1037.3555"/><text fill="#000000" font-family="sans-serif" font-size="20" font-weight="bold" lengthAdjust="spacing" textLength="26" x="567" y="1031.1367">23</text><text fill="#000000" font-family="sans-serif" font-size="20" lengthAdjust="spacing" textLength="171" x="597" y="1031.1367">operation success</text><polygon fill="#181818" points="52,1070.9102,42,1074.9102,52,1078.9102,48,1074.9102" style="stroke:#181818;stroke-width:1.0;"/><line style="stroke:#181818;stroke-width:1.0;stroke-dasharray:2.0,2.0;" x1="46" x2="544" y1="1074.9102" y2="1074.9102"/><text fill="#000000" font-family="sans-serif" font-size="20" font-weight="bold" lengthAdjust="spacing" textLength="26" x="58" y="1068.6914">24</text><text fill="#000000" font-family="sans-serif" font-size="20" lengthAdjust="spacing" textLength="236" x="88" y="1068.6914">shows operation success</text><!--SRC=[fLR1Rk8m4BtdAqOz0I8IkqSEIAjMAo6rwceHjrvSPm2BnCvwd5Rir-_48H27Xf351qZiUM-UnpFZq5xfN5YHfKRkCO44Dw98tK-ZtKhzHVW-YwWsWSne8tVMP0ZE5jXOoONSYoskt255i2YTqDkqQK0xaPXFfRUm4IbX53dbs7IzX1N-AL1BX2SbjgNfQBLw6aCCwnNClisYI1JEw29xHylFqXaB3u-fGkqUG12iYUVPXrDIvK8xU9Z_I3wGtmapDlfLMBaJXAysGRjULfZbpOX73eGrQOhM8y-l8KCcD6y_eFcDkI75SW_pD_roRTqplmXURSawcIWaRzIS26rjO-LDNo9j9r9qYhucbzTuvWfJ6r-ZGaZUZ3L3WjXxY9-9oi5dhpw4m-h88m3_0F6YpA8vs-u9dE5CCvyGI85KaIljuKonz0Jy7o_EPpgPrBCbwtcUsRVedfdbTHDiQZGEQHlfuHSQ54peZxYJYzfaLKQKK_wdGiUBvj7EcMgfYQjDuX7UDqxqGIwTlFID9YgE5rxKtBQf-aQ2TygeWn7aDPJXw4ZQeT6n_oKhK1EVZxn3rD1O1QA6nQcgLqu-QVB1mJWM-qsWohQnTmWs_roNue1j3t5_t72xVE_MK1NZJQXcqTVDwMx_xSvIjwbuuPlW7195UIeEv9iTc4tO0Wc4Je0mvQkPm6YCMlp7XXXqL5lUpCJsYN1Yb5ibSVnr6xrGumuvKarGVbOmmoqkgNZFrD5ZLySEUpCt_YG9hesHz5y7qv84f-1rJyDm36hRddmouTAnoDR3VRKuwwvvAJou3QzBxhWSe2gvUvW3thgOZefDZbOuPJGVb9H855sMAaJHbKBiPMWKsbU5r8llBPJo-u3wUTRBVm00]--></g></svg>