<?xml version="1.0" encoding="UTF-8" standalone="no"?><svg xmlns="http://www.w3.org/2000/svg" xmlns:xlink="http://www.w3.org/1999/xlink" contentStyleType="text/css" height="407px" preserveAspectRatio="none" style="width:648px;height:407px;background:#FFFFFF;" version="1.1" viewBox="0 0 648 407" width="648px" zoomAndPan="magnify"><defs/><g><!--class Client--><g id="elem_Client"><rect codeLine="9" fill="#F1F1F1" height="33.5547" id="Client" rx="2.5" ry="2.5" style="stroke:#181818;stroke-width:0.5;" width="62" x="320.97" y="18.7188"/><text fill="#000000" font-family="sans-serif" font-size="20" lengthAdjust="spacing" textLength="56" x="323.97" y="43.0547">Client</text></g><!--class Agent--><g id="elem_Agent"><rect codeLine="11" fill="#F1F1F1" height="33.5547" id="Agent" rx="2.5" ry="2.5" style="stroke:#181818;stroke-width:0.5;" width="62" x="9.97" y="18.7188"/><text fill="#000000" font-family="sans-serif" font-size="20" lengthAdjust="spacing" textLength="56" x="12.97" y="43.0547">Agent</text></g><!--class Order--><g id="elem_Order"><rect codeLine="13" fill="#F1F1F1" height="65.1094" id="Order" rx="2.5" ry="2.5" style="stroke:#181818;stroke-width:0.5;" width="62" x="220.97" y="161.7188"/><text fill="#000000" font-family="sans-serif" font-size="20" lengthAdjust="spacing" textLength="56" x="223.97" y="186.0547">Order</text><line style="stroke:#181818;stroke-width:0.5;" x1="221.97" x2="281.97" y1="195.2734" y2="195.2734"/><text fill="#000000" font-family="sans-serif" font-size="20" lengthAdjust="spacing" textLength="48" x="226.97" y="218.6094">price</text></g><!--class Advertisement--><g id="elem_Advertisement"><rect codeLine="16" fill="#F1F1F1" height="33.5547" id="Advertisement" rx="2.5" ry="2.5" style="stroke:#181818;stroke-width:0.5;" width="145" x="160.47" y="339.2188"/><text fill="#000000" font-family="sans-serif" font-size="20" lengthAdjust="spacing" textLength="139" x="163.47" y="363.5547">Advertisement</text></g><!--class Property--><g id="elem_Property"><rect codeLine="18" fill="#F1F1F1" height="88.6641" id="Property" rx="2.5" ry="2.5" style="stroke:#181818;stroke-width:0.5;" width="192" x="449.97" y="311.7188"/><text fill="#000000" font-family="sans-serif" font-size="20" lengthAdjust="spacing" textLength="80" x="505.97" y="336.0547">Property</text><line style="stroke:#181818;stroke-width:0.5;" x1="450.97" x2="640.97" y1="345.2734" y2="345.2734"/><text fill="#000000" font-family="sans-serif" font-size="20" lengthAdjust="spacing" textLength="41" x="455.97" y="368.6094">area</text><text fill="#000000" font-family="sans-serif" font-size="20" lengthAdjust="spacing" textLength="180" x="455.97" y="392.1641">distanceCityCentre</text></g><!--link Client to Order--><g id="link_Client_Order"><path codeLine="22" d="M320.86,41.3888 C296.7,46.8288 264.74,58.3988 248.97,82.7188 C233.93,105.9088 236.76,137.9688 242.11,161.5888 " fill="none" id="Client-Order" style="stroke:#181818;stroke-width:1.0;"/><text fill="#000000" font-family="sans-serif" font-size="20" lengthAdjust="spacing" textLength="6" x="295.47" y="103.0547"> </text><polygon fill="#000000" points="253.5859,125.7425,265.4501,116.214,257.5835,111.0601,253.5859,125.7425" style="stroke:#000000;stroke-width:1.0;"/><text fill="#000000" font-family="sans-serif" font-size="20" lengthAdjust="spacing" textLength="77" x="269.97" y="126.6094">submits</text><text fill="#000000" font-family="sans-serif" font-size="20" lengthAdjust="spacing" textLength="13" x="300.1029" y="64.3691">1</text><text fill="#000000" font-family="sans-serif" font-size="20" lengthAdjust="spacing" textLength="10" x="229.2773" y="149.5549">*</text></g><!--link Client to Advertisement--><g id="link_Client_Advertisement"><path codeLine="23" d="M357.03,52.9488 C368.89,94.2688 394.44,205.5688 351.97,281.7188 C336.71,309.0788 306.61,327.5288 280.51,339.0988 " fill="none" id="Client-Advertisement" style="stroke:#181818;stroke-width:1.0;"/><polygon fill="#000000" points="380.9033,202.2245,389.1846,189.4584,380.0993,187.0289,380.9033,202.2245" style="stroke:#000000;stroke-width:1.0;"/><text fill="#000000" font-family="sans-serif" font-size="20" lengthAdjust="spacing" textLength="79" x="395.97" y="202.0547">consults</text><text fill="#000000" font-family="sans-serif" font-size="20" lengthAdjust="spacing" textLength="10" x="347.0454" y="79.7749">*</text><text fill="#000000" font-family="sans-serif" font-size="20" lengthAdjust="spacing" textLength="10" x="283.0061" y="327.1744">*</text></g><!--link Agent to Advertisement--><g id="link_Agent_Advertisement"><path codeLine="25" d="M35.59,52.9688 C25.2,87.4287 6,169.3888 36.97,226.7188 C68.1,284.3588 137.6,320.3188 184.89,339.0788 " fill="none" id="Agent-Advertisement" style="stroke:#181818;stroke-width:1.0;"/><polygon fill="#000000" points="48.671,201.5885,46.1446,186.5828,37.807,190.9336,48.671,201.5885" style="stroke:#000000;stroke-width:1.0;"/><text fill="#000000" font-family="sans-serif" font-size="20" lengthAdjust="spacing" textLength="145" x="57.97" y="202.0547">responsible for</text><text fill="#000000" font-family="sans-serif" font-size="20" lengthAdjust="spacing" textLength="13" x="19.6942" y="79.4344">1</text><text fill="#000000" font-family="sans-serif" font-size="20" lengthAdjust="spacing" textLength="10" x="159.2977" y="327.1486">*</text></g><!--link Agent to Order--><g id="link_Agent_Order"><path codeLine="26" d="M53.78,52.7887 C70.58,73.0788 101.7,108.1988 133.97,131.7188 C158.06,149.2788 167.53,147.9388 193.97,161.7188 C202.71,166.2788 212.12,171.3288 220.77,176.0188 " fill="none" id="Agent-Order" style="stroke:#181818;stroke-width:1.0;"/><text fill="#000000" font-family="sans-serif" font-size="20" lengthAdjust="spacing" textLength="88" x="137.47" y="103.0547">approves</text><polygon fill="#000000" points="149.407,123.801,140.5544,111.4242,134.9702,118.9914,149.407,123.801" style="stroke:#000000;stroke-width:1.0;"/><text fill="#000000" font-family="sans-serif" font-size="20" lengthAdjust="spacing" textLength="73" x="154.97" y="126.6094">\rejects</text><text fill="#000000" font-family="sans-serif" font-size="20" lengthAdjust="spacing" textLength="13" x="42.3969" y="79.5739">1</text><text fill="#000000" font-family="sans-serif" font-size="20" lengthAdjust="spacing" textLength="10" x="202.8513" y="165.9065">*</text></g><!--link Agent to Client--><g id="link_Agent_Client"><path codeLine="27" d="M72.21,35.7188 C131.82,35.7188 261.15,35.7188 320.75,35.7188 " fill="none" id="Agent-Client" style="stroke:#181818;stroke-width:1.0;"/><polygon fill="#000000" points="105.47,20.4961,90.9979,15.7938,90.9979,25.1984,105.47,20.4961" style="stroke:#000000;stroke-width:1.0;"/><text fill="#FFFFFF" font-family="sans-serif" font-size="20" lengthAdjust="spacing" textLength="44" x="110.47" y="28.0547">aaaa</text><text fill="#000000" font-family="sans-serif" font-size="20" lengthAdjust="spacing" textLength="74" x="158.47" y="28.0547">Notifies</text><text fill="#000000" font-family="sans-serif" font-size="20" lengthAdjust="spacing" textLength="13" x="79.9939" y="29.7859">1</text><text fill="#000000" font-family="sans-serif" font-size="20" lengthAdjust="spacing" textLength="10" x="302.8269" y="29.6484">*</text></g><!--link Order to Advertisement--><g id="link_Order_Advertisement"><path codeLine="29" d="M238.3,226.8888 C234.88,236.3088 231.7,246.7788 229.97,256.7188 C225,285.3787 227.95,319.4088 230.5,339.0388 " fill="none" id="Order-Advertisement" style="stroke:#181818;stroke-width:1.0;"/><polygon fill="#000000" points="237.4149,277.4768,243.11,263.3658,233.7281,262.7133,237.4149,277.4768" style="stroke:#000000;stroke-width:1.0;"/><text fill="#000000" font-family="sans-serif" font-size="20" lengthAdjust="spacing" textLength="96" x="250.97" y="277.0547">present in</text><text fill="#000000" font-family="sans-serif" font-size="20" lengthAdjust="spacing" textLength="13" x="221.7072" y="254.1321">1</text><text fill="#000000" font-family="sans-serif" font-size="20" lengthAdjust="spacing" textLength="10" x="218.3057" y="327.0968">*</text></g><!--link Advertisement to Property--><g id="link_Advertisement_Property"><path codeLine="30" d="M305.57,356.2188 C348.46,356.2188 403.28,356.2188 449.75,356.2188 " fill="none" id="Advertisement-Property" style="stroke:#181818;stroke-width:1.0;"/><polygon fill="#000000" points="338.72,340.9961,324.2479,336.2938,324.2479,345.6984,338.72,340.9961" style="stroke:#000000;stroke-width:1.0;"/><text fill="#000000" font-family="sans-serif" font-size="20" lengthAdjust="spacing" textLength="88" x="343.72" y="348.5547">based on</text><text fill="#000000" font-family="sans-serif" font-size="20" lengthAdjust="spacing" textLength="13" x="313.3564" y="351.4719">1</text><text fill="#000000" font-family="sans-serif" font-size="20" lengthAdjust="spacing" textLength="10" x="432.0003" y="351.7083">*</text></g><!--SRC=[RPB1QiCm38RlUGhHuw2mxHX6OHG6kso3NdDn73NHwjX6KbUwiNUVdAuq7VF9ihvVlonRTXIpOpU6v7VOGOTRjm_wbA9kw1FX_hQICm9ZYiaFd4O4vJtECjdvdUjneyU0mEZLnJxC0HbSbmuKUzYw8FEC3qxaKPMftIi- -nGduzkg6gX3yCJUAarx7BCUOSInHPQgcfIm3eHHlwhlt_Ynjn0kyIjto1Pd9eyNglj0LX8ShyHldBAT7urtZAxgIEmg7jUanxMHN2gS71Tt2rWkON6pc1pg9eBisv5KO7L6RWeoCLT-DTWjnSPSq6fg-5JjFvHHij7KscItYKqn4rpimUNCwGEbYOqjndTx1RcY2tngh8O7dqBY-Z2GuihPQlJtg0tsbgkNfBGb56YqqTBbv78n_TDajYxBs2aMntbkaZ3rWnRPURurj4xikwN2_m00]--></g></svg>