<?xml version="1.0" encoding="UTF-8" standalone="no"?><svg xmlns="http://www.w3.org/2000/svg" xmlns:xlink="http://www.w3.org/1999/xlink" contentStyleType="text/css" height="1073px" preserveAspectRatio="none" style="width:1958px;height:1073px;background:#FFFFFF;" version="1.1" viewBox="0 0 1958 1073" width="1958px" zoomAndPan="magnify"><defs/><g><!--class Equipment--><g id="elem_Equipment"><rect codeLine="8" fill="#F1F1F1" height="65.1094" id="Equipment" rx="2.5" ry="2.5" style="stroke:#181818;stroke-width:0.5;" width="124" x="1517" y="235.7188"/><text fill="#000000" font-family="sans-serif" font-size="20" lengthAdjust="spacing" textLength="104" x="1527" y="260.0547">Equipment</text><line style="stroke:#181818;stroke-width:0.5;" x1="1518" x2="1640" y1="269.2734" y2="269.2734"/><text fill="#000000" font-family="sans-serif" font-size="20" lengthAdjust="spacing" textLength="112" x="1523" y="292.6094">designation</text></g><!--class Photograph--><g id="elem_Photograph"><rect codeLine="11" fill="#F1F1F1" height="65.1094" id="Photograph" rx="2.5" ry="2.5" style="stroke:#181818;stroke-width:0.5;" width="116" x="1308" y="86.2188"/><text fill="#000000" font-family="sans-serif" font-size="20" lengthAdjust="spacing" textLength="110" x="1311" y="110.5547">Photograph</text><line style="stroke:#181818;stroke-width:0.5;" x1="1309" x2="1423" y1="119.7734" y2="119.7734"/><text fill="#000000" font-family="sans-serif" font-size="20" lengthAdjust="spacing" textLength="69" x="1314" y="143.1094">linkURI</text></g><!--class Commission--><g id="elem_Commission"><rect codeLine="14" fill="#F1F1F1" height="65.1094" id="Commission" rx="2.5" ry="2.5" style="stroke:#181818;stroke-width:0.5;" width="126" x="1253" y="827.7188"/><text fill="#000000" font-family="sans-serif" font-size="20" lengthAdjust="spacing" textLength="120" x="1256" y="852.0547">Commission</text><line style="stroke:#181818;stroke-width:0.5;" x1="1254" x2="1378" y1="861.2734" y2="861.2734"/><text fill="#000000" font-family="sans-serif" font-size="20" lengthAdjust="spacing" textLength="50" x="1259" y="884.6094">value</text></g><!--class Property--><g id="elem_Property"><rect codeLine="17" fill="#F1F1F1" height="88.6641" id="Property" rx="2.5" ry="2.5" style="stroke:#181818;stroke-width:0.5;" width="192" x="1114" y="397.2188"/><text fill="#000000" font-family="sans-serif" font-size="20" lengthAdjust="spacing" textLength="80" x="1170" y="421.5547">Property</text><line style="stroke:#181818;stroke-width:0.5;" x1="1115" x2="1305" y1="430.7734" y2="430.7734"/><text fill="#000000" font-family="sans-serif" font-size="20" lengthAdjust="spacing" textLength="41" x="1120" y="454.1094">area</text><text fill="#000000" font-family="sans-serif" font-size="20" lengthAdjust="spacing" textLength="180" x="1120" y="477.6641">distanceCityCentre</text></g><!--class Residence--><g id="elem_Residence"><rect codeLine="21" fill="#F1F1F1" height="112.2188" id="Residence" rx="2.5" ry="2.5" style="stroke:#181818;stroke-width:0.5;" width="248" x="1398" y="385.7188"/><text fill="#000000" font-family="sans-serif" font-size="20" lengthAdjust="spacing" textLength="97" x="1473.5" y="410.0547">Residence</text><line style="stroke:#181818;stroke-width:0.5;" x1="1399" x2="1645" y1="419.2734" y2="419.2734"/><text fill="#000000" font-family="sans-serif" font-size="20" lengthAdjust="spacing" textLength="195" x="1404" y="442.6094">numberOfBedrooms</text><text fill="#000000" font-family="sans-serif" font-size="20" lengthAdjust="spacing" textLength="201" x="1404" y="466.1641">numberOfBathrooms</text><text fill="#000000" font-family="sans-serif" font-size="20" lengthAdjust="spacing" textLength="236" x="1404" y="489.7188">numberOfParkingSpaces</text></g><!--class House--><g id="elem_House"><rect codeLine="26" fill="#F1F1F1" height="112.2188" id="House" rx="2.5" ry="2.5" style="stroke:#181818;stroke-width:0.5;" width="270" x="1681" y="385.7188"/><text fill="#000000" font-family="sans-serif" font-size="20" lengthAdjust="spacing" textLength="60" x="1786" y="410.0547">House</text><line style="stroke:#181818;stroke-width:0.5;" x1="1682" x2="1950" y1="419.2734" y2="419.2734"/><text fill="#000000" font-family="sans-serif" font-size="20" lengthAdjust="spacing" textLength="206" x="1687" y="442.6094">existenceOfBasement</text><text fill="#000000" font-family="sans-serif" font-size="20" lengthAdjust="spacing" textLength="258" x="1687" y="466.1641">existenceOfInhabitableLoft</text><text fill="#000000" font-family="sans-serif" font-size="20" lengthAdjust="spacing" textLength="123" x="1687" y="489.7188">sunExposure</text></g><!--class Person--><g id="elem_Person"><rect codeLine="31" fill="#F1F1F1" height="112.2188" id="Person" rx="2.5" ry="2.5" style="stroke:#181818;stroke-width:0.5;" width="185" x="467.5" y="62.7188"/><text fill="#000000" font-family="sans-serif" font-size="20" lengthAdjust="spacing" textLength="64" x="528" y="87.0547">Person</text><line style="stroke:#181818;stroke-width:0.5;" x1="468.5" x2="651.5" y1="96.2734" y2="96.2734"/><text fill="#000000" font-family="sans-serif" font-size="20" lengthAdjust="spacing" textLength="53" x="473.5" y="119.6094">name</text><text fill="#000000" font-family="sans-serif" font-size="20" lengthAdjust="spacing" textLength="132" x="473.5" y="143.1641">emailAddress</text><text fill="#000000" font-family="sans-serif" font-size="20" lengthAdjust="spacing" textLength="173" x="473.5" y="166.7188">telephoneNumber</text></g><!--class Agent--><g id="elem_Agent"><rect codeLine="36" fill="#F1F1F1" height="33.5547" id="Agent" rx="2.5" ry="2.5" style="stroke:#181818;stroke-width:0.5;" width="62" x="765" y="424.7188"/><text fill="#000000" font-family="sans-serif" font-size="20" lengthAdjust="spacing" textLength="56" x="768" y="449.0547">Agent</text></g><!--class Client--><g id="elem_Client"><rect codeLine="38" fill="#F1F1F1" height="33.5547" id="Client" rx="2.5" ry="2.5" style="stroke:#181818;stroke-width:0.5;" width="62" x="504" y="843.2188"/><text fill="#000000" font-family="sans-serif" font-size="20" lengthAdjust="spacing" textLength="56" x="507" y="867.5547">Client</text></g><!--class TypeOfCommission--><g id="elem_TypeOfCommission"><rect codeLine="40" fill="#F1F1F1" height="65.1094" id="TypeOfCommission" rx="2.5" ry="2.5" style="stroke:#181818;stroke-width:0.5;" width="196" x="1594" y="827.7188"/><text fill="#000000" font-family="sans-serif" font-size="20" lengthAdjust="spacing" textLength="190" x="1597" y="852.0547">TypeOfCommission</text><line style="stroke:#181818;stroke-width:0.5;" x1="1595" x2="1789" y1="861.2734" y2="861.2734"/><text fill="#000000" font-family="sans-serif" font-size="20" lengthAdjust="spacing" textLength="112" x="1600" y="884.6094">designation</text></g><!--class Address--><g id="elem_Address"><rect codeLine="43" fill="#F1F1F1" height="112.2188" id="Address" rx="2.5" ry="2.5" style="stroke:#181818;stroke-width:0.5;" width="85" x="832.5" y="62.7188"/><text fill="#000000" font-family="sans-serif" font-size="20" lengthAdjust="spacing" textLength="79" x="835.5" y="87.0547">Address</text><line style="stroke:#181818;stroke-width:0.5;" x1="833.5" x2="916.5" y1="96.2734" y2="96.2734"/><text fill="#000000" font-family="sans-serif" font-size="20" lengthAdjust="spacing" textLength="46" x="838.5" y="119.6094">state</text><text fill="#000000" font-family="sans-serif" font-size="20" lengthAdjust="spacing" textLength="67" x="838.5" y="143.1641">district</text><text fill="#000000" font-family="sans-serif" font-size="20" lengthAdjust="spacing" textLength="33" x="838.5" y="166.7188">city</text></g><!--class SocialSecurityCard--><g id="elem_SocialSecurityCard"><rect codeLine="48" fill="#F1F1F1" height="65.1094" id="SocialSecurityCard" rx="2.5" ry="2.5" style="stroke:#181818;stroke-width:0.5;" width="183" x="130.5" y="86.2188"/><text fill="#000000" font-family="sans-serif" font-size="20" lengthAdjust="spacing" textLength="177" x="133.5" y="110.5547">SocialSecurityCard</text><line style="stroke:#181818;stroke-width:0.5;" x1="131.5" x2="312.5" y1="119.7734" y2="119.7734"/><text fill="#000000" font-family="sans-serif" font-size="20" lengthAdjust="spacing" textLength="108" x="136.5" y="143.1094">taxNumber</text></g><!--class Passport--><g id="elem_Passport"><rect codeLine="51" fill="#F1F1F1" height="65.1094" id="Passport" rx="2.5" ry="2.5" style="stroke:#181818;stroke-width:0.5;" width="88" x="7" y="86.2188"/><text fill="#000000" font-family="sans-serif" font-size="20" lengthAdjust="spacing" textLength="82" x="10" y="110.5547">Passport</text><line style="stroke:#181818;stroke-width:0.5;" x1="8" x2="94" y1="119.7734" y2="119.7734"/><text fill="#000000" font-family="sans-serif" font-size="20" lengthAdjust="spacing" textLength="75" x="13" y="143.1094">number</text></g><!--class Advertisement--><g id="elem_Advertisement"><rect codeLine="54" fill="#F1F1F1" height="65.1094" id="Advertisement" rx="2.5" ry="2.5" style="stroke:#181818;stroke-width:0.5;" width="216" x="884" y="827.7188"/><text fill="#000000" font-family="sans-serif" font-size="20" lengthAdjust="spacing" textLength="139" x="922.5" y="852.0547">Advertisement</text><line style="stroke:#181818;stroke-width:0.5;" x1="885" x2="1099" y1="861.2734" y2="861.2734"/><text fill="#000000" font-family="sans-serif" font-size="20" lengthAdjust="spacing" textLength="204" x="890" y="884.6094">dateOfAdvertisement</text></g><!--class TypeOfProperty--><g id="elem_TypeOfProperty"><rect codeLine="57" fill="#F1F1F1" height="65.1094" id="TypeOfProperty" rx="2.5" ry="2.5" style="stroke:#181818;stroke-width:0.5;" width="156" x="1038" y="86.2188"/><text fill="#000000" font-family="sans-serif" font-size="20" lengthAdjust="spacing" textLength="150" x="1041" y="110.5547">TypeOfProperty</text><line style="stroke:#181818;stroke-width:0.5;" x1="1039" x2="1193" y1="119.7734" y2="119.7734"/><text fill="#000000" font-family="sans-serif" font-size="20" lengthAdjust="spacing" textLength="112" x="1044" y="143.1094">designation</text></g><!--class AdvertisementRequest--><g id="elem_AdvertisementRequest"><rect codeLine="60" fill="#F1F1F1" height="88.6641" id="AdvertisementRequest" rx="2.5" ry="2.5" style="stroke:#181818;stroke-width:0.5;" width="222" x="881" y="977.7188"/><text fill="#000000" font-family="sans-serif" font-size="20" lengthAdjust="spacing" textLength="216" x="884" y="1002.0547">AdvertisementRequest</text><line style="stroke:#181818;stroke-width:0.5;" x1="882" x2="1102" y1="1011.2734" y2="1011.2734"/><text fill="#000000" font-family="sans-serif" font-size="20" lengthAdjust="spacing" textLength="48" x="887" y="1034.6094">price</text><text fill="#000000" font-family="sans-serif" font-size="20" lengthAdjust="spacing" textLength="142" x="887" y="1058.1641">dateOfRequest</text></g><!--class TypeOfBusiness--><g id="elem_TypeOfBusiness"><rect codeLine="64" fill="#F1F1F1" height="65.1094" id="TypeOfBusiness" rx="2.5" ry="2.5" style="stroke:#181818;stroke-width:0.5;" width="159" x="1255.5" y="989.7188"/><text fill="#000000" font-family="sans-serif" font-size="20" lengthAdjust="spacing" textLength="153" x="1258.5" y="1014.0547">TypeOfBusiness</text><line style="stroke:#181818;stroke-width:0.5;" x1="1256.5" x2="1413.5" y1="1023.2734" y2="1023.2734"/><text fill="#000000" font-family="sans-serif" font-size="20" lengthAdjust="spacing" textLength="112" x="1261.5" y="1046.6094">designation</text></g><!--class Role--><g id="elem_Role"><rect codeLine="67" fill="#F1F1F1" height="65.1094" id="Role" rx="2.5" ry="2.5" style="stroke:#181818;stroke-width:0.5;" width="124" x="736" y="235.7188"/><text fill="#000000" font-family="sans-serif" font-size="20" lengthAdjust="spacing" textLength="42" x="777" y="260.0547">Role</text><line style="stroke:#181818;stroke-width:0.5;" x1="737" x2="859" y1="269.2734" y2="269.2734"/><text fill="#000000" font-family="sans-serif" font-size="20" lengthAdjust="spacing" textLength="112" x="742" y="292.6094">designation</text></g><!--class Order--><g id="elem_Order"><rect codeLine="70" fill="#F1F1F1" height="135.7734" id="Order" rx="2.5" ry="2.5" style="stroke:#181818;stroke-width:0.5;" width="218" x="685" y="606.7188"/><text fill="#000000" font-family="sans-serif" font-size="20" lengthAdjust="spacing" textLength="56" x="766" y="631.0547">Order</text><line style="stroke:#181818;stroke-width:0.5;" x1="686" x2="902" y1="640.2734" y2="640.2734"/><text fill="#000000" font-family="sans-serif" font-size="20" lengthAdjust="spacing" textLength="52" x="691" y="663.6094">client</text><text fill="#000000" font-family="sans-serif" font-size="20" lengthAdjust="spacing" textLength="206" x="691" y="687.1641">dateOfPurchaseOrder</text><text fill="#000000" font-family="sans-serif" font-size="20" lengthAdjust="spacing" textLength="48" x="691" y="710.7188">price</text><text fill="#000000" font-family="sans-serif" font-size="20" lengthAdjust="spacing" textLength="57" x="691" y="734.2734">status</text></g><!--class Employee--><g id="elem_Employee"><rect fill="#F1F1F1" height="33.5547" id="Employee" rx="2.5" ry="2.5" style="stroke:#181818;stroke-width:0.5;" width="99" x="510.5" y="251.2188"/><text fill="#000000" font-family="sans-serif" font-size="20" lengthAdjust="spacing" textLength="93" x="513.5" y="275.5547">Employee</text></g><!--link Person to Address--><g id="link_Person_Address"><path codeLine="76" d="M652.81,118.7188 C712.15,118.7188 786.32,118.7188 832.18,118.7188 " fill="none" id="Person-Address" style="stroke:#181818;stroke-width:1.0;"/><polygon fill="#000000" points="714,103.4961,699.5279,98.7938,699.5279,108.1984,714,103.4961" style="stroke:#000000;stroke-width:1.0;"/><text fill="#000000" font-family="sans-serif" font-size="20" lengthAdjust="spacing" textLength="67" x="719" y="111.0547">lives at</text><text fill="#000000" font-family="sans-serif" font-size="20" lengthAdjust="spacing" textLength="10" x="660.6042" y="114.1517">*</text><text fill="#000000" font-family="sans-serif" font-size="20" lengthAdjust="spacing" textLength="13" x="811.6279" y="113.3195">1</text></g><!--link SocialSecurityCard to Person--><g id="link_SocialSecurityCard_Person"><path codeLine="77" d="M313.91,118.7188 C361.51,118.7188 419.5,118.7188 467.22,118.7188 " fill="none" id="SocialSecurityCard-Person" style="stroke:#181818;stroke-width:1.0;"/><polygon fill="#000000" points="331,103.4961,345.4721,108.1984,345.4721,98.7938,331,103.4961" style="stroke:#000000;stroke-width:1.0;"/><text fill="#000000" font-family="sans-serif" font-size="20" lengthAdjust="spacing" textLength="97" x="352" y="111.0547">possesses</text><text fill="#000000" font-family="sans-serif" font-size="20" lengthAdjust="spacing" textLength="13" x="321.4445" y="114.1913">1</text><text fill="#000000" font-family="sans-serif" font-size="20" lengthAdjust="spacing" textLength="13" x="446.6189" y="114.1871">1</text></g><!--link Passport to Person--><g id="link_Passport_Person"><path codeLine="78" d="M82.23,86.2088 C91.55,77.7487 102.18,69.2088 113,62.7188 C156.96,36.3788 171.02,32.5187 221.5,23.7188 C273.6,14.6388 288.71,12.9887 340.5,23.7188 C383.91,32.7088 429.28,50.7188 467.43,68.6688 " fill="none" id="Passport-Person" style="stroke:#181818;stroke-width:1.0;"/><polygon fill="#000000" points="221.5083,20.86,236.1793,24.8991,235.7515,15.5043,221.5083,20.86" style="stroke:#000000;stroke-width:1.0;"/><text fill="#000000" font-family="sans-serif" font-size="20" lengthAdjust="spacing" textLength="97" x="242.5" y="28.0547">possesses</text><text fill="#000000" font-family="sans-serif" font-size="20" lengthAdjust="spacing" textLength="13" x="74.0987" y="73.9241">1</text><text fill="#000000" font-family="sans-serif" font-size="20" lengthAdjust="spacing" textLength="13" x="446.5354" y="60.1133">1</text></g><!--link Employee to Role--><g id="link_Employee_Role"><path codeLine="80" d="M609.6,268.2188 C646.25,268.2188 696.39,268.2188 735.73,268.2188 " fill="none" id="Employee-Role" style="stroke:#181818;stroke-width:1.0;"/><polygon fill="#000000" points="626.75,252.9961,641.2221,257.6984,641.2221,248.2938,626.75,252.9961" style="stroke:#000000;stroke-width:1.0;"/><text fill="#000000" font-family="sans-serif" font-size="20" lengthAdjust="spacing" textLength="70" x="647.75" y="260.5547">defines</text><text fill="#000000" font-family="sans-serif" font-size="20" lengthAdjust="spacing" textLength="10" x="617.6194" y="262.9391">*</text><text fill="#000000" font-family="sans-serif" font-size="20" lengthAdjust="spacing" textLength="13" x="715.2083" y="263.3212">1</text></g><!--reverse link Role to Agent--><g id="link_Role_Agent"><path codeLine="81" d="M797.39,321.1387 C796.98,356.5388 796.46,401.0888 796.19,424.5588 " fill="none" id="Role-backto-Agent" style="stroke:#181818;stroke-width:1.0;"/><polygon fill="none" points="790.4,320.9888,797.63,301.0788,804.39,321.1588,790.4,320.9888" style="stroke:#181818;stroke-width:1.0;"/></g><!--reverse link Person to Client--><g id="link_Person_Client"><path codeLine="82" d="M485.41,191.0287 C469.31,213.4288 457,239.5788 457,267.2188 C457,267.2188 457,267.2188 457,675.7188 C457,742.1788 500.88,812.1688 522.81,843.0088 " fill="none" id="Person-backto-Client" style="stroke:#181818;stroke-width:1.0;"/><polygon fill="none" points="480.13,186.4288,498,175.0488,491.12,195.0988,480.13,186.4288" style="stroke:#181818;stroke-width:1.0;"/></g><!--reverse link Person to Employee--><g id="link_Person_Employee"><path codeLine="83" d="M560,195.1788 C560,216.3388 560,237.3088 560,251.1187 " fill="none" id="Person-backto-Employee" style="stroke:#181818;stroke-width:1.0;"/><polygon fill="none" points="553,195.0588,560,175.0588,567,195.0588,553,195.0588" style="stroke:#181818;stroke-width:1.0;"/></g><!--link AdvertisementRequest to TypeOfBusiness--><g id="link_AdvertisementRequest_TypeOfBusiness"><path codeLine="85" d="M1103.36,1022.2188 C1152.95,1022.2188 1210.22,1022.2188 1255.41,1022.2188 " fill="none" id="AdvertisementRequest-TypeOfBusiness" style="stroke:#181818;stroke-width:1.0;"/><polygon fill="#000000" points="1120.25,1006.9961,1134.7221,1011.6984,1134.7221,1002.2938,1120.25,1006.9961" style="stroke:#000000;stroke-width:1.0;"/><text fill="#000000" font-family="sans-serif" font-size="20" lengthAdjust="spacing" textLength="96" x="1141.25" y="1014.5547">present in</text><text fill="#000000" font-family="sans-serif" font-size="20" lengthAdjust="spacing" textLength="10" x="1111.1779" y="1017.812">*</text><text fill="#000000" font-family="sans-serif" font-size="20" lengthAdjust="spacing" textLength="13" x="1234.4736" y="1017.5151">1</text></g><!--link Advertisement to AdvertisementRequest--><g id="link_Advertisement_AdvertisementRequest"><path codeLine="86" d="M992,892.8288 C992,917.0588 992,950.7588 992,977.5588 " fill="none" id="Advertisement-AdvertisementRequest" style="stroke:#181818;stroke-width:1.0;"/><polygon fill="#000000" points="1000,943.4961,1004.7023,929.024,995.2977,929.024,1000,943.4961" style="stroke:#000000;stroke-width:1.0;"/><text fill="#000000" font-family="sans-serif" font-size="20" lengthAdjust="spacing" textLength="121" x="1013" y="943.0547">derives from</text><text fill="#000000" font-family="sans-serif" font-size="20" lengthAdjust="spacing" textLength="13" x="977.8422" y="920.0614">1</text><text fill="#000000" font-family="sans-serif" font-size="20" lengthAdjust="spacing" textLength="13" x="978.0047" y="965.3634">1</text></g><!--link Address to Property--><g id="link_Address_Property"><path codeLine="88" d="M907.53,175.0388 C931.51,213.0087 966.53,263.1487 1005,300.7188 C1043.08,337.9088 1092.13,371.7988 1132.7,396.9188 " fill="none" id="Address-Property" style="stroke:#181818;stroke-width:1.0;"/><polygon fill="#000000" points="1007.3017,262.881,1014.3096,276.3882,1020.9105,269.6894,1007.3017,262.881" style="stroke:#000000;stroke-width:1.0;"/><text fill="#000000" font-family="sans-serif" font-size="20" lengthAdjust="spacing" textLength="94" x="1026" y="276.0547">located at</text><text fill="#000000" font-family="sans-serif" font-size="20" lengthAdjust="spacing" textLength="13" x="897.5397" y="202.2358">1</text><text fill="#000000" font-family="sans-serif" font-size="20" lengthAdjust="spacing" textLength="13" x="1107.3919" y="385.051">1</text></g><!--link Photograph to Property--><g id="link_Photograph_Property"><path codeLine="89" d="M1363.81,151.3088 C1360.2,188.6588 1350.83,251.8987 1327,300.7188 C1309.42,336.7288 1280.65,371.3288 1256.03,397.1287 " fill="none" id="Photograph-Property" style="stroke:#181818;stroke-width:1.0;"/><polygon fill="#000000" points="1354.7876,275.8228,1364.9054,264.4569,1356.2924,260.6805,1354.7876,275.8228" style="stroke:#000000;stroke-width:1.0;"/><text fill="#000000" font-family="sans-serif" font-size="20" lengthAdjust="spacing" textLength="94" x="1371" y="276.0547">illustrates</text><text fill="#000000" font-family="sans-serif" font-size="20" lengthAdjust="spacing" textLength="51" x="1307.8777" y="178.5379">1..30</text><text fill="#000000" font-family="sans-serif" font-size="20" lengthAdjust="spacing" textLength="13" x="1249.083" y="384.9441">1</text></g><!--link TypeOfProperty to Property--><g id="link_TypeOfProperty_Property"><path codeLine="90" d="M1117.86,151.4088 C1120.67,188.0488 1127.41,249.8388 1143,300.7188 C1153.3,334.3388 1170.51,370.0688 1184.91,397.0087 " fill="none" id="TypeOfProperty-Property" style="stroke:#181818;stroke-width:1.0;"/><polygon fill="#000000" points="1148.8931,260.7785,1148.1683,275.9782,1157.2408,273.5013,1148.8931,260.7785" style="stroke:#000000;stroke-width:1.0;"/><text fill="#000000" font-family="sans-serif" font-size="20" lengthAdjust="spacing" textLength="158" x="1164" y="276.0547">characterized by</text><text fill="#000000" font-family="sans-serif" font-size="20" lengthAdjust="spacing" textLength="13" x="1104.0335" y="178.6557">1</text><text fill="#000000" font-family="sans-serif" font-size="20" lengthAdjust="spacing" textLength="10" x="1170.4905" y="385.1542">*</text></g><!--link Commission to TypeOfCommission--><g id="link_Commission_TypeOfCommission"><path codeLine="92" d="M1379.36,860.2188 C1437.96,860.2188 1525.97,860.2188 1593.69,860.2188 " fill="none" id="Commission-TypeOfCommission" style="stroke:#181818;stroke-width:1.0;"/><polygon fill="#000000" points="1412.5,844.9961,1398.0279,840.2938,1398.0279,849.6984,1412.5,844.9961" style="stroke:#000000;stroke-width:1.0;"/><text fill="#000000" font-family="sans-serif" font-size="20" lengthAdjust="spacing" textLength="158" x="1417.5" y="852.5547">characterized by</text><text fill="#000000" font-family="sans-serif" font-size="20" lengthAdjust="spacing" textLength="10" x="1386.8369" y="855.3212">*</text><text fill="#000000" font-family="sans-serif" font-size="20" lengthAdjust="spacing" textLength="13" x="1572.993" y="855.7265">1</text></g><!--link Advertisement to Commission--><g id="link_Advertisement_Commission"><path codeLine="93" d="M1100.34,860.2188 C1150.93,860.2188 1209.39,860.2188 1252.67,860.2188 " fill="none" id="Advertisement-Commission" style="stroke:#181818;stroke-width:1.0;"/><polygon fill="#000000" points="1117.5,844.9961,1131.9721,849.6984,1131.9721,840.2938,1117.5,844.9961" style="stroke:#000000;stroke-width:1.0;"/><text fill="#000000" font-family="sans-serif" font-size="20" lengthAdjust="spacing" textLength="96" x="1138.5" y="852.5547">present in</text><text fill="#000000" font-family="sans-serif" font-size="20" lengthAdjust="spacing" textLength="13" x="1108.0558" y="855.797">1</text><text fill="#000000" font-family="sans-serif" font-size="20" lengthAdjust="spacing" textLength="13" x="1232.0323" y="855.3212">1</text></g><!--reverse link Property to Residence--><g id="link_Property_Residence"><path codeLine="95" d="M1326.64,441.7188 C1350.33,441.7188 1374.02,441.7188 1397.71,441.7188 " fill="none" id="Property-backto-Residence" style="stroke:#181818;stroke-width:1.0;"/><polygon fill="none" points="1326.28,448.7188,1306.28,441.7188,1326.28,434.7188,1326.28,448.7188" style="stroke:#181818;stroke-width:1.0;"/></g><!--reverse link Residence to House--><g id="link_Residence_House"><path codeLine="96" d="M1666.18,441.7188 C1671.08,441.7188 1675.99,441.7188 1680.89,441.7188 " fill="none" id="Residence-backto-House" style="stroke:#181818;stroke-width:1.0;"/><polygon fill="none" points="1666.03,448.7188,1646.03,441.7188,1666.03,434.7188,1666.03,448.7188" style="stroke:#181818;stroke-width:1.0;"/></g><!--link Equipment to Residence--><g id="link_Equipment_Residence"><path codeLine="97" d="M1568.41,301.0788 C1560.56,324.7088 1549.65,357.5287 1540.38,385.4188 " fill="none" id="Equipment-Residence" style="stroke:#181818;stroke-width:1.0;"/><polygon fill="#000000" points="1568.5231,335.9044,1559.4965,348.1549,1568.4211,351.1209,1568.5231,335.9044" style="stroke:#000000;stroke-width:1.0;"/><text fill="#000000" font-family="sans-serif" font-size="20" lengthAdjust="spacing" textLength="80" x="1579" y="351.0547">contains</text></g><!--link Agent to Advertisement--><g id="link_Agent_Advertisement"><path codeLine="98" d="M823.66,458.7888 C847.06,473.7587 879.77,498.1888 899,527.7188 C962.28,624.8988 983.06,765.1588 989.41,827.4088 " fill="none" id="Agent-Advertisement" style="stroke:#181818;stroke-width:1.0;"/><polygon fill="#000000" points="988.2808,682.2924,986.6345,667.1648,978.0571,671.0216,988.2808,682.2924" style="stroke:#000000;stroke-width:1.0;"/><text fill="#000000" font-family="sans-serif" font-size="20" lengthAdjust="spacing" textLength="145" x="998" y="682.5547">responsible for</text><text fill="#000000" font-family="sans-serif" font-size="20" lengthAdjust="spacing" textLength="13" x="816.0822" y="485.5739">1</text><text fill="#000000" font-family="sans-serif" font-size="20" lengthAdjust="spacing" textLength="10" x="978.0106" y="815.6161">*</text></g><!--link Property to Advertisement--><g id="link_Property_Advertisement"><path codeLine="99" d="M1211.24,486.3188 C1210.98,548.1588 1202.87,662.6988 1152,742.7188 C1128.87,779.1088 1089.96,807.8188 1056.31,827.6388 " fill="none" id="Property-Advertisement" style="stroke:#181818;stroke-width:1.0;"/><polygon fill="#000000" points="1212.3066,667.7114,1202.0431,678.9459,1210.6067,682.8331,1212.3066,667.7114" style="stroke:#000000;stroke-width:1.0;"/><text fill="#000000" font-family="sans-serif" font-size="20" lengthAdjust="spacing" textLength="88" x="1222" y="682.5547">based on</text></g><!--link Agent to Order--><g id="link_Agent_Order"><path codeLine="101" d="M795.86,458.9588 C795.6,489.1588 795.02,555.4888 794.58,606.4988 " fill="none" id="Agent-Order" style="stroke:#181818;stroke-width:1.0;"/><text fill="#000000" font-family="sans-serif" font-size="20" lengthAdjust="spacing" textLength="88" x="799.5" y="548.0547">approves</text><polygon fill="#000000" points="804.9306,572.0505,809.7583,557.6197,800.354,557.5381,804.9306,572.0505" style="stroke:#000000;stroke-width:1.0;"/><text fill="#000000" font-family="sans-serif" font-size="20" lengthAdjust="spacing" textLength="73" x="817" y="571.6094">\rejects</text><text fill="#000000" font-family="sans-serif" font-size="20" lengthAdjust="spacing" textLength="13" x="781.1585" y="485.7874">1</text><text fill="#000000" font-family="sans-serif" font-size="20" lengthAdjust="spacing" textLength="10" x="784.1242" y="594.6538">*</text></g><!--link Agent to Client--><g id="link_Agent_Client"><path codeLine="102" d="M764.83,456.0588 C715.38,478.9988 619.87,530.8588 574,606.7188 C526.72,684.9088 530.28,800.7588 533.47,843.0288 " fill="none" id="Agent-Client" style="stroke:#181818;stroke-width:1.0;"/><polygon fill="#000000" points="577.8948,681.8625,589.3572,671.8541,581.2853,667.0281,577.8948,681.8625" style="stroke:#000000;stroke-width:1.0;"/><text fill="#000000" font-family="sans-serif" font-size="20" lengthAdjust="spacing" textLength="71" x="595" y="682.5547">notifies</text><text fill="#000000" font-family="sans-serif" font-size="20" lengthAdjust="spacing" textLength="13" x="744.0606" y="453.0836">1</text><text fill="#000000" font-family="sans-serif" font-size="20" lengthAdjust="spacing" textLength="10" x="521.5518" y="831.0839">*</text></g><!--link Order to Advertisement--><g id="link_Order_Advertisement"><path codeLine="103" d="M801.61,742.7887 C806.69,762.4288 815.11,782.6488 829,797.7188 C843.86,813.8388 863.38,825.7688 883.72,834.5788 " fill="none" id="Order-Advertisement" style="stroke:#181818;stroke-width:1.0;"/><polygon fill="#000000" points="842.3337,791.4586,836.1896,777.5372,829.1803,783.8074,842.3337,791.4586" style="stroke:#000000;stroke-width:1.0;"/><text fill="#000000" font-family="sans-serif" font-size="20" lengthAdjust="spacing" textLength="96" x="850" y="793.0547">present in</text><text fill="#000000" font-family="sans-serif" font-size="20" lengthAdjust="spacing" textLength="13" x="788.7158" y="769.7459">1</text><text fill="#000000" font-family="sans-serif" font-size="20" lengthAdjust="spacing" textLength="10" x="866.109" y="828.4343">*</text></g><!--link Order to Client--><g id="link_Order_Client"><path codeLine="105" d="M699.4,742.7488 C648.24,778.9888 589.24,820.7887 557.69,843.1388 " fill="none" id="Order-Client" style="stroke:#181818;stroke-width:1.0;"/><polygon fill="#000000" points="671.5279,780.8716,657.0006,785.4004,662.437,793.0744,671.5279,780.8716" style="stroke:#000000;stroke-width:1.0;"/><text fill="#000000" font-family="sans-serif" font-size="20" lengthAdjust="spacing" textLength="77" x="678" y="793.0547">submits</text><text fill="#000000" font-family="sans-serif" font-size="20" lengthAdjust="spacing" textLength="10" x="679.5956" y="769.9519">*</text><text fill="#000000" font-family="sans-serif" font-size="20" lengthAdjust="spacing" textLength="13" x="549.6482" y="830.8752">1</text></g><!--link Client to Advertisement--><g id="link_Client_Advertisement"><path codeLine="106" d="M566.05,860.2188 C630.24,860.2188 780.18,860.2188 883.86,860.2188 " fill="none" id="Client-Advertisement" style="stroke:#181818;stroke-width:1.0;"/><polygon fill="#000000" points="599.5,844.9961,585.0279,840.2938,585.0279,849.6984,599.5,844.9961" style="stroke:#000000;stroke-width:1.0;"/><text fill="#000000" font-family="sans-serif" font-size="20" lengthAdjust="spacing" textLength="79" x="700.5" y="852.5547">consults</text><text fill="#FFFFFF" font-family="sans-serif" font-size="20" lengthAdjust="spacing" textLength="44" x="821.5" y="852.5547">aaaa</text><text fill="#000000" font-family="sans-serif" font-size="20" lengthAdjust="spacing" textLength="13" x="573.7947" y="854.2859">1</text><text fill="#000000" font-family="sans-serif" font-size="20" lengthAdjust="spacing" textLength="10" x="865.9048" y="855.7617">*</text></g><!--SRC=[VLLDRzim3BthLmWv1aZHRZUZAD0M7LPWM8Dak-MYoBIjHPPKVRHDi_ttKVAtcyqeYfPyv2CVQTeTX3BCibfgVe2Svb2m8FqNhVnMl0FzT4bS1w6rLffNLjT0lGqmyXZ63wo4hJzAe1QuPwgKOu2hMAvVXIffmQGRUxXapjrwRyK-U7ZaMYNYIrA972WNbcEYz3VKnXzf3VKUh2Ca1TA7vo1C3SgVI0vEb8fveHNvqxhNbVQwjCnK9oA5ElpSFFQ-UrtNmZc4dyWBazXG7sMr0Oja9y8iC98BXnrnk1V-U8zSTe1ka3G7z25MXLZQKt47kTMwTeE1-MfgMJEB2fHR50vSd-oh3WvE1DwGB-QCaGvYTsFRewhONdYsb_1D5vwue1xUZ7PXLDOQ9OfzALO3WPe9UPld5fmZ7YIOIYludahf8svBfC4cUdMac1f-70sIZqKx9tXBSoAec8Uad1NS4uxIzQ2jveB9BV1WewBCviZZsTkif3N-CjhwNjeHomlEHpJQe3j7hgTYOftLtOtqNrMF8ZVm7C35j0PBXpPvQvsblGjEgDJlkRGRBUDUd7CzsHpi2V-9AhSKws1vXGDFlfOyoXZYXZGJNImNT4KNLujMvunAyGAECazlEiWLGYGKFi8-AfrHN1K7yUTyIAVw54XYBoFSSl5G6wcF05ay6b44HAM6ht-lLiqwjUaRIxDG4rENWf1p0-XxdMcDXM7hSV02yvmFZOMkWadH4q2irYR92Zna64vQ9PkGnDVj2eghEKucZ_9UayxS8bFsYulFbulXo6HKI1bmvJ7AZKEMGyXYkf0PnPbRnZsMzOvK-sDKUtZDUXNcxz_Pm55Sgh8Rwao3aO18rf-xD1KhoieFTuqC5sxmfaCrygJM-bDCiJJyW32XuavCg5CtVL5bAWPhCLevWVUC5jhEHqfZxa6jFRuWETMfy9IWQJHkP7flCigCiHedl5CxV2pymkzHAgH7Ht2pZXbLsej2fErDyGdGT8ce_-hMu9SD_LMVqOLzBNmSVsFfAMV9TdxdKIU7trjtpRNKDdkjX8SRsZmC7thp5m00]--></g></svg>