<?xml version="1.0" encoding="UTF-8" standalone="no"?><svg xmlns="http://www.w3.org/2000/svg" xmlns:xlink="http://www.w3.org/1999/xlink" contentStyleType="text/css" height="1048px" preserveAspectRatio="none" style="width:649px;height:1048px;background:#FFFFFF;" version="1.1" viewBox="0 0 649 1048" width="649px" zoomAndPan="magnify"><defs/><g><text fill="#000000" font-family="sans-serif" font-size="14" font-weight="bold" lengthAdjust="spacing" textLength="300" x="176" y="28.5352">System Sequence Diagram (SSD) - US 001</text><rect fill="#FFFFFF" height="814.8672" style="stroke:#181818;stroke-width:1.0;" width="10" x="114" y="136.043"/><rect fill="#FFFFFF" height="61.1094" style="stroke:#181818;stroke-width:1.0;" width="10" x="574" y="165.5977"/><rect fill="#FFFFFF" height="37.5547" style="stroke:#181818;stroke-width:1.0;" width="10" x="574" y="305.3711"/><rect fill="#FFFFFF" height="44.5547" style="stroke:#181818;stroke-width:1.0;" width="10" x="574" y="421.5898"/><rect fill="#FFFFFF" height="44.5547" style="stroke:#181818;stroke-width:1.0;" width="10" x="574" y="544.8086"/><rect fill="#FFFFFF" height="44.5547" style="stroke:#181818;stroke-width:1.0;" width="10" x="574" y="668.0273"/><rect fill="#FFFFFF" height="44.5547" style="stroke:#181818;stroke-width:1.0;" width="10" x="574" y="791.2461"/><rect fill="#FFFFFF" height="37.5547" style="stroke:#181818;stroke-width:1.0;" width="10" x="574" y="873.3555"/><rect fill="none" height="702.2031" style="stroke:#000000;stroke-width:1.5;" width="633" x="10" y="241.707"/><rect fill="none" height="71.6641" style="stroke:#000000;stroke-width:1.5;" width="613" x="20" y="357.9258"/><rect fill="none" height="71.6641" style="stroke:#000000;stroke-width:1.5;" width="613" x="20" y="481.1445"/><rect fill="none" height="71.6641" style="stroke:#000000;stroke-width:1.5;" width="613" x="20" y="604.3633"/><rect fill="none" height="71.6641" style="stroke:#000000;stroke-width:1.5;" width="613" x="20" y="727.582"/><line style="stroke:#181818;stroke-width:0.5;stroke-dasharray:5.0,5.0;" x1="119" x2="119" y1="126.043" y2="960.9102"/><line style="stroke:#181818;stroke-width:0.5;stroke-dasharray:5.0,5.0;" x1="579" x2="579" y1="126.043" y2="960.9102"/><text fill="#000000" font-family="sans-serif" font-size="20" lengthAdjust="spacing" textLength="172" x="30" y="121.8242">Unregistered User</text><ellipse cx="119" cy="50.9883" fill="#E3E3E3" rx="8" ry="8" style="stroke:#181818;stroke-width:0.5;"/><path d="M119,58.9883 L119,85.9883 M106,66.9883 L132,66.9883 M119,85.9883 L106,100.9883 M119,85.9883 L132,100.9883 " fill="none" style="stroke:#181818;stroke-width:0.5;"/><text fill="#000000" font-family="sans-serif" font-size="20" lengthAdjust="spacing" textLength="172" x="30" y="979.2461">Unregistered User</text><ellipse cx="119" cy="991.9648" fill="#E3E3E3" rx="8" ry="8" style="stroke:#181818;stroke-width:0.5;"/><path d="M119,999.9648 L119,1026.9648 M106,1007.9648 L132,1007.9648 M119,1026.9648 L106,1041.9648 M119,1026.9648 L132,1041.9648 " fill="none" style="stroke:#181818;stroke-width:0.5;"/><rect fill="#E3E3E3" height="37.5547" rx="2.5" ry="2.5" style="stroke:#181818;stroke-width:0.5;" width="88" x="535" y="87.4883"/><text fill="#000000" font-family="sans-serif" font-size="20" lengthAdjust="spacing" textLength="74" x="542" y="113.8242">:System</text><rect fill="#E3E3E3" height="37.5547" rx="2.5" ry="2.5" style="stroke:#181818;stroke-width:0.5;" width="88" x="535" y="959.9102"/><text fill="#000000" font-family="sans-serif" font-size="20" lengthAdjust="spacing" textLength="74" x="542" y="986.2461">:System</text><rect fill="#FFFFFF" height="814.8672" style="stroke:#181818;stroke-width:1.0;" width="10" x="114" y="136.043"/><rect fill="#FFFFFF" height="61.1094" style="stroke:#181818;stroke-width:1.0;" width="10" x="574" y="165.5977"/><rect fill="#FFFFFF" height="37.5547" style="stroke:#181818;stroke-width:1.0;" width="10" x="574" y="305.3711"/><rect fill="#FFFFFF" height="44.5547" style="stroke:#181818;stroke-width:1.0;" width="10" x="574" y="421.5898"/><rect fill="#FFFFFF" height="44.5547" style="stroke:#181818;stroke-width:1.0;" width="10" x="574" y="544.8086"/><rect fill="#FFFFFF" height="44.5547" style="stroke:#181818;stroke-width:1.0;" width="10" x="574" y="668.0273"/><rect fill="#FFFFFF" height="44.5547" style="stroke:#181818;stroke-width:1.0;" width="10" x="574" y="791.2461"/><rect fill="#FFFFFF" height="37.5547" style="stroke:#181818;stroke-width:1.0;" width="10" x="574" y="873.3555"/><polygon fill="#181818" points="562,161.5977,572,165.5977,562,169.5977,566,165.5977" style="stroke:#181818;stroke-width:1.0;"/><line style="stroke:#181818;stroke-width:1.0;" x1="124" x2="568" y1="165.5977" y2="165.5977"/><text fill="#000000" font-family="sans-serif" font-size="20" font-weight="bold" lengthAdjust="spacing" textLength="13" x="131" y="159.3789">1</text><text fill="#000000" font-family="sans-serif" font-size="20" lengthAdjust="spacing" textLength="211" x="148" y="159.3789">Asks to list properties</text><polygon fill="#181818" points="135,222.707,125,226.707,135,230.707,131,226.707" style="stroke:#181818;stroke-width:1.0;"/><line style="stroke:#181818;stroke-width:1.0;stroke-dasharray:2.0,2.0;" x1="129" x2="578" y1="226.707" y2="226.707"/><text fill="#000000" font-family="sans-serif" font-size="20" font-weight="bold" lengthAdjust="spacing" textLength="13" x="141" y="208.7109">2</text><text fill="#000000" font-family="sans-serif" font-size="20" lengthAdjust="spacing" textLength="269" x="158" y="196.9336">Displays properties by most</text><text fill="#000000" font-family="sans-serif" font-size="20" lengthAdjust="spacing" textLength="345" x="164" y="220.4883">recent order and asks wants to filter</text><path d="M10,241.707 L89,241.707 L89,257.2617 L79,267.2617 L10,267.2617 L10,241.707 " fill="#EEEEEE" style="stroke:#000000;stroke-width:1.5;"/><rect fill="none" height="702.2031" style="stroke:#000000;stroke-width:1.5;" width="633" x="10" y="241.707"/><text fill="#000000" font-family="sans-serif" font-size="20" font-weight="bold" lengthAdjust="spacing" textLength="34" x="25" y="262.043">opt</text><text fill="#000000" font-family="sans-serif" font-size="20" font-weight="bold" lengthAdjust="spacing" textLength="79" x="104" y="263.043">[Filters]</text><polygon fill="#181818" points="562,301.3711,572,305.3711,562,309.3711,566,305.3711" style="stroke:#181818;stroke-width:1.0;"/><line style="stroke:#181818;stroke-width:1.0;" x1="124" x2="568" y1="305.3711" y2="305.3711"/><text fill="#000000" font-family="sans-serif" font-size="20" font-weight="bold" lengthAdjust="spacing" textLength="13" x="131" y="299.1523">3</text><text fill="#000000" font-family="sans-serif" font-size="20" lengthAdjust="spacing" textLength="227" x="148" y="299.1523">Asks to filter properties</text><polygon fill="#181818" points="135,338.9258,125,342.9258,135,346.9258,131,342.9258" style="stroke:#181818;stroke-width:1.0;"/><line style="stroke:#181818;stroke-width:1.0;stroke-dasharray:2.0,2.0;" x1="129" x2="578" y1="342.9258" y2="342.9258"/><text fill="#000000" font-family="sans-serif" font-size="20" font-weight="bold" lengthAdjust="spacing" textLength="13" x="141" y="336.707">4</text><text fill="#000000" font-family="sans-serif" font-size="20" lengthAdjust="spacing" textLength="262" x="158" y="336.707">Displays sorting criteria list</text><path d="M20,357.9258 L99,357.9258 L99,373.4805 L89,383.4805 L20,383.4805 L20,357.9258 " fill="#EEEEEE" style="stroke:#000000;stroke-width:1.5;"/><rect fill="none" height="71.6641" style="stroke:#000000;stroke-width:1.5;" width="613" x="20" y="357.9258"/><text fill="#000000" font-family="sans-serif" font-size="20" font-weight="bold" lengthAdjust="spacing" textLength="34" x="35" y="378.2617">opt</text><text fill="#000000" font-family="sans-serif" font-size="20" font-weight="bold" lengthAdjust="spacing" textLength="170" x="114" y="379.2617">[sorting criteria]</text><polygon fill="#181818" points="562,417.5898,572,421.5898,562,425.5898,566,421.5898" style="stroke:#181818;stroke-width:1.0;"/><line style="stroke:#181818;stroke-width:1.0;" x1="124" x2="568" y1="421.5898" y2="421.5898"/><text fill="#000000" font-family="sans-serif" font-size="20" font-weight="bold" lengthAdjust="spacing" textLength="13" x="131" y="415.3711">5</text><text fill="#000000" font-family="sans-serif" font-size="20" lengthAdjust="spacing" textLength="212" x="148" y="415.3711">Selects sorting criteria</text><polygon fill="#181818" points="135,462.1445,125,466.1445,135,470.1445,131,466.1445" style="stroke:#181818;stroke-width:1.0;"/><line style="stroke:#181818;stroke-width:1.0;stroke-dasharray:2.0,2.0;" x1="129" x2="578" y1="466.1445" y2="466.1445"/><text fill="#000000" font-family="sans-serif" font-size="20" font-weight="bold" lengthAdjust="spacing" textLength="13" x="141" y="459.9258">6</text><text fill="#000000" font-family="sans-serif" font-size="20" lengthAdjust="spacing" textLength="292" x="158" y="459.9258">Displays type of property filter</text><path d="M20,481.1445 L99,481.1445 L99,496.6992 L89,506.6992 L20,506.6992 L20,481.1445 " fill="#EEEEEE" style="stroke:#000000;stroke-width:1.5;"/><rect fill="none" height="71.6641" style="stroke:#000000;stroke-width:1.5;" width="613" x="20" y="481.1445"/><text fill="#000000" font-family="sans-serif" font-size="20" font-weight="bold" lengthAdjust="spacing" textLength="34" x="35" y="501.4805">opt</text><text fill="#000000" font-family="sans-serif" font-size="20" font-weight="bold" lengthAdjust="spacing" textLength="183" x="114" y="502.4805">[type of property]</text><polygon fill="#181818" points="562,540.8086,572,544.8086,562,548.8086,566,544.8086" style="stroke:#181818;stroke-width:1.0;"/><line style="stroke:#181818;stroke-width:1.0;" x1="124" x2="568" y1="544.8086" y2="544.8086"/><text fill="#000000" font-family="sans-serif" font-size="20" font-weight="bold" lengthAdjust="spacing" textLength="13" x="131" y="538.5898">7</text><text fill="#000000" font-family="sans-serif" font-size="20" lengthAdjust="spacing" textLength="205" x="148" y="538.5898">Selects property filter</text><polygon fill="#181818" points="135,585.3633,125,589.3633,135,593.3633,131,589.3633" style="stroke:#181818;stroke-width:1.0;"/><line style="stroke:#181818;stroke-width:1.0;stroke-dasharray:2.0,2.0;" x1="129" x2="578" y1="589.3633" y2="589.3633"/><text fill="#000000" font-family="sans-serif" font-size="20" font-weight="bold" lengthAdjust="spacing" textLength="13" x="141" y="583.1445">8</text><text fill="#000000" font-family="sans-serif" font-size="20" lengthAdjust="spacing" textLength="294" x="158" y="583.1445">Displays type of business filter</text><path d="M20,604.3633 L99,604.3633 L99,619.918 L89,629.918 L20,629.918 L20,604.3633 " fill="#EEEEEE" style="stroke:#000000;stroke-width:1.5;"/><rect fill="none" height="71.6641" style="stroke:#000000;stroke-width:1.5;" width="613" x="20" y="604.3633"/><text fill="#000000" font-family="sans-serif" font-size="20" font-weight="bold" lengthAdjust="spacing" textLength="34" x="35" y="624.6992">opt</text><text fill="#000000" font-family="sans-serif" font-size="20" font-weight="bold" lengthAdjust="spacing" textLength="185" x="114" y="625.6992">[type of business]</text><polygon fill="#181818" points="562,664.0273,572,668.0273,562,672.0273,566,668.0273" style="stroke:#181818;stroke-width:1.0;"/><line style="stroke:#181818;stroke-width:1.0;" x1="124" x2="568" y1="668.0273" y2="668.0273"/><text fill="#000000" font-family="sans-serif" font-size="20" font-weight="bold" lengthAdjust="spacing" textLength="13" x="131" y="661.8086">9</text><text fill="#000000" font-family="sans-serif" font-size="20" lengthAdjust="spacing" textLength="207" x="148" y="661.8086">Selects business filter</text><polygon fill="#181818" points="135,708.582,125,712.582,135,716.582,131,712.582" style="stroke:#181818;stroke-width:1.0;"/><line style="stroke:#181818;stroke-width:1.0;stroke-dasharray:2.0,2.0;" x1="129" x2="578" y1="712.582" y2="712.582"/><text fill="#000000" font-family="sans-serif" font-size="20" font-weight="bold" lengthAdjust="spacing" textLength="26" x="141" y="706.3633">10</text><text fill="#000000" font-family="sans-serif" font-size="20" lengthAdjust="spacing" textLength="289" x="171" y="706.3633">Displays number of rooms list</text><path d="M20,727.582 L99,727.582 L99,743.1367 L89,753.1367 L20,753.1367 L20,727.582 " fill="#EEEEEE" style="stroke:#000000;stroke-width:1.5;"/><rect fill="none" height="71.6641" style="stroke:#000000;stroke-width:1.5;" width="613" x="20" y="727.582"/><text fill="#000000" font-family="sans-serif" font-size="20" font-weight="bold" lengthAdjust="spacing" textLength="34" x="35" y="747.918">opt</text><text fill="#000000" font-family="sans-serif" font-size="20" font-weight="bold" lengthAdjust="spacing" textLength="193" x="114" y="748.918">[number of rooms]</text><polygon fill="#181818" points="562,787.2461,572,791.2461,562,795.2461,566,791.2461" style="stroke:#181818;stroke-width:1.0;"/><line style="stroke:#181818;stroke-width:1.0;" x1="124" x2="568" y1="791.2461" y2="791.2461"/><text fill="#000000" font-family="sans-serif" font-size="20" font-weight="bold" lengthAdjust="spacing" textLength="26" x="131" y="785.0273">11</text><text fill="#000000" font-family="sans-serif" font-size="20" lengthAdjust="spacing" textLength="239" x="161" y="785.0273">Selects number of rooms</text><polygon fill="#181818" points="135,831.8008,125,835.8008,135,839.8008,131,835.8008" style="stroke:#181818;stroke-width:1.0;"/><line style="stroke:#181818;stroke-width:1.0;stroke-dasharray:2.0,2.0;" x1="129" x2="578" y1="835.8008" y2="835.8008"/><text fill="#000000" font-family="sans-serif" font-size="20" font-weight="bold" lengthAdjust="spacing" textLength="26" x="141" y="829.582">12</text><text fill="#000000" font-family="sans-serif" font-size="20" lengthAdjust="spacing" textLength="214" x="171" y="829.582">Displays selected data</text><polygon fill="#181818" points="562,869.3555,572,873.3555,562,877.3555,566,873.3555" style="stroke:#181818;stroke-width:1.0;"/><line style="stroke:#181818;stroke-width:1.0;" x1="124" x2="568" y1="873.3555" y2="873.3555"/><text fill="#000000" font-family="sans-serif" font-size="20" font-weight="bold" lengthAdjust="spacing" textLength="26" x="131" y="867.1367">13</text><text fill="#000000" font-family="sans-serif" font-size="20" lengthAdjust="spacing" textLength="126" x="161" y="867.1367">Submits data</text><polygon fill="#181818" points="135,906.9102,125,910.9102,135,914.9102,131,910.9102" style="stroke:#181818;stroke-width:1.0;"/><line style="stroke:#181818;stroke-width:1.0;stroke-dasharray:2.0,2.0;" x1="129" x2="578" y1="910.9102" y2="910.9102"/><text fill="#000000" font-family="sans-serif" font-size="20" font-weight="bold" lengthAdjust="spacing" textLength="26" x="141" y="904.6914">14</text><text fill="#000000" font-family="sans-serif" font-size="20" lengthAdjust="spacing" textLength="396" x="171" y="904.6914">Displays all properties that suit the filters</text><!--SRC=[hPJ1RgCm48RlFCKef-uXKhR775PQgUeBeDpsCe49iM9iwXaQKUNXTp1rIbE2g7Ov6PX__kyVW_baN8C1Q-kB4vLGqW5RAy_UIMxU21ut6QSIgBtpnJ7uca12IwCt3HOdh2YNpX84AWHTPSS5VCJIdushu82MASl4Y9Rc7GlLaDDBIwuWU39OzUKFUVxq0zQmos6p-Pbbs8ftRRsdeEj2V83LpWMgZCg3Ok-OmWgGuo9JIp65QT09hBQ3HtmxB6CByuf2Gta6UlKhMFzAH5lupIS6yM3L0vhW6zAcnB7ugayD-uVlohKsYSssceORYnsFvB3lT8miVrm_9b907qejHbSge3gU5Jhw7eoL1ESRWUTuF_YND4bmDyFGQr6ATCsaOQyzT2UBOBIhmJYYg_WhMqfmg_lazuKz9wlV4TzNJTcGAxC52QHh2FmX3QHBmvwPRH_WLhOim9J9V-BVjsmSCN-JFycMyK-PpF4l2J3yoprByBxcZozeXlv6imp-dkXVu3dsxWzB59oZdYPhzxLHigluhdG60QqT7ofoHFszMgDRVAJtVPezAIwNoqVaKKqy3_y2]--></g></svg>