<?xml version="1.0" encoding="UTF-8" standalone="no"?><svg xmlns="http://www.w3.org/2000/svg" xmlns:xlink="http://www.w3.org/1999/xlink" contentStyleType="text/css" height="656px" preserveAspectRatio="none" style="width:705px;height:656px;background:#FFFFFF;" version="1.1" viewBox="0 0 705 656" width="705px" zoomAndPan="magnify"><defs/><g><text fill="#000000" font-family="sans-serif" font-size="14" font-weight="bold" lengthAdjust="spacing" textLength="300" x="201.75" y="28.5352">System Sequence Diagram (SSD) - US 003</text><rect fill="#FFFFFF" height="423.6563" style="stroke:#181818;stroke-width:1.0;" width="10" x="106.5" y="136.043"/><rect fill="#FFFFFF" height="37.5547" style="stroke:#181818;stroke-width:1.0;" width="10" x="650.5" y="165.5977"/><rect fill="#FFFFFF" height="37.5547" style="stroke:#181818;stroke-width:1.0;" width="10" x="650.5" y="240.707"/><rect fill="#FFFFFF" height="37.5547" style="stroke:#181818;stroke-width:1.0;" width="10" x="650.5" y="315.8164"/><rect fill="#FFFFFF" height="37.5547" style="stroke:#181818;stroke-width:1.0;" width="10" x="650.5" y="438.0352"/><rect fill="#FFFFFF" height="37.5547" style="stroke:#181818;stroke-width:1.0;" width="10" x="650.5" y="513.1445"/><line style="stroke:#181818;stroke-width:0.5;stroke-dasharray:5.0,5.0;" x1="111" x2="111" y1="126.043" y2="568.6992"/><line style="stroke:#181818;stroke-width:0.5;stroke-dasharray:5.0,5.0;" x1="655.5" x2="655.5" y1="126.043" y2="568.6992"/><text fill="#000000" font-family="sans-serif" font-size="20" lengthAdjust="spacing" textLength="207" x="5" y="121.8242">System Administrator</text><ellipse cx="111.5" cy="50.9883" fill="#E3E3E3" rx="8" ry="8" style="stroke:#181818;stroke-width:0.5;"/><path d="M111.5,58.9883 L111.5,85.9883 M98.5,66.9883 L124.5,66.9883 M111.5,85.9883 L98.5,100.9883 M111.5,85.9883 L124.5,100.9883 " fill="none" style="stroke:#181818;stroke-width:0.5;"/><text fill="#000000" font-family="sans-serif" font-size="20" lengthAdjust="spacing" textLength="207" x="5" y="587.0352">System Administrator</text><ellipse cx="111.5" cy="599.7539" fill="#E3E3E3" rx="8" ry="8" style="stroke:#181818;stroke-width:0.5;"/><path d="M111.5,607.7539 L111.5,634.7539 M98.5,615.7539 L124.5,615.7539 M111.5,634.7539 L98.5,649.7539 M111.5,634.7539 L124.5,649.7539 " fill="none" style="stroke:#181818;stroke-width:0.5;"/><rect fill="#E3E3E3" height="37.5547" rx="2.5" ry="2.5" style="stroke:#181818;stroke-width:0.5;" width="88" x="611.5" y="87.4883"/><text fill="#000000" font-family="sans-serif" font-size="20" lengthAdjust="spacing" textLength="74" x="618.5" y="113.8242">:System</text><rect fill="#E3E3E3" height="37.5547" rx="2.5" ry="2.5" style="stroke:#181818;stroke-width:0.5;" width="88" x="611.5" y="567.6992"/><text fill="#000000" font-family="sans-serif" font-size="20" lengthAdjust="spacing" textLength="74" x="618.5" y="594.0352">:System</text><rect fill="#FFFFFF" height="423.6563" style="stroke:#181818;stroke-width:1.0;" width="10" x="106.5" y="136.043"/><rect fill="#FFFFFF" height="37.5547" style="stroke:#181818;stroke-width:1.0;" width="10" x="650.5" y="165.5977"/><rect fill="#FFFFFF" height="37.5547" style="stroke:#181818;stroke-width:1.0;" width="10" x="650.5" y="240.707"/><rect fill="#FFFFFF" height="37.5547" style="stroke:#181818;stroke-width:1.0;" width="10" x="650.5" y="315.8164"/><rect fill="#FFFFFF" height="37.5547" style="stroke:#181818;stroke-width:1.0;" width="10" x="650.5" y="438.0352"/><rect fill="#FFFFFF" height="37.5547" style="stroke:#181818;stroke-width:1.0;" width="10" x="650.5" y="513.1445"/><polygon fill="#181818" points="638.5,161.5977,648.5,165.5977,638.5,169.5977,642.5,165.5977" style="stroke:#181818;stroke-width:1.0;"/><line style="stroke:#181818;stroke-width:1.0;" x1="116.5" x2="644.5" y1="165.5977" y2="165.5977"/><text fill="#000000" font-family="sans-serif" font-size="20" font-weight="bold" lengthAdjust="spacing" textLength="13" x="123.5" y="159.3789">1</text><text fill="#000000" font-family="sans-serif" font-size="20" lengthAdjust="spacing" textLength="307" x="140.5" y="159.3789">asks to register a new employee</text><polygon fill="#181818" points="127.5,199.1523,117.5,203.1523,127.5,207.1523,123.5,203.1523" style="stroke:#181818;stroke-width:1.0;"/><line style="stroke:#181818;stroke-width:1.0;stroke-dasharray:2.0,2.0;" x1="121.5" x2="654.5" y1="203.1523" y2="203.1523"/><text fill="#000000" font-family="sans-serif" font-size="20" font-weight="bold" lengthAdjust="spacing" textLength="13" x="133.5" y="196.9336">2</text><text fill="#000000" font-family="sans-serif" font-size="20" lengthAdjust="spacing" textLength="386" x="150.5" y="196.9336">displays store list and asks to select one</text><polygon fill="#181818" points="638.5,236.707,648.5,240.707,638.5,244.707,642.5,240.707" style="stroke:#181818;stroke-width:1.0;"/><line style="stroke:#181818;stroke-width:1.0;" x1="116.5" x2="644.5" y1="240.707" y2="240.707"/><text fill="#000000" font-family="sans-serif" font-size="20" font-weight="bold" lengthAdjust="spacing" textLength="13" x="123.5" y="234.4883">3</text><text fill="#000000" font-family="sans-serif" font-size="20" lengthAdjust="spacing" textLength="119" x="140.5" y="234.4883">selects store</text><polygon fill="#181818" points="127.5,274.2617,117.5,278.2617,127.5,282.2617,123.5,278.2617" style="stroke:#181818;stroke-width:1.0;"/><line style="stroke:#181818;stroke-width:1.0;" x1="121.5" x2="654.5" y1="278.2617" y2="278.2617"/><text fill="#000000" font-family="sans-serif" font-size="20" font-weight="bold" lengthAdjust="spacing" textLength="13" x="133.5" y="272.043">4</text><text fill="#000000" font-family="sans-serif" font-size="20" lengthAdjust="spacing" textLength="344" x="150.5" y="272.043">displays role lists and asks to select</text><polygon fill="#181818" points="638.5,311.8164,648.5,315.8164,638.5,319.8164,642.5,315.8164" style="stroke:#181818;stroke-width:1.0;"/><line style="stroke:#181818;stroke-width:1.0;" x1="116.5" x2="644.5" y1="315.8164" y2="315.8164"/><text fill="#000000" font-family="sans-serif" font-size="20" font-weight="bold" lengthAdjust="spacing" textLength="13" x="123.5" y="309.5977">5</text><text fill="#000000" font-family="sans-serif" font-size="20" lengthAdjust="spacing" textLength="132" x="140.5" y="309.5977">selects role(s)</text><polygon fill="#181818" points="127.5,349.3711,117.5,353.3711,127.5,357.3711,123.5,353.3711" style="stroke:#181818;stroke-width:1.0;"/><line style="stroke:#181818;stroke-width:1.0;stroke-dasharray:2.0,2.0;" x1="121.5" x2="654.5" y1="353.3711" y2="353.3711"/><text fill="#000000" font-family="sans-serif" font-size="20" font-weight="bold" lengthAdjust="spacing" textLength="13" x="133.5" y="347.1523">6</text><text fill="#000000" font-family="sans-serif" font-size="20" lengthAdjust="spacing" textLength="130" x="150.5" y="347.1523">requests data</text><polygon fill="#181818" points="638.5,434.0352,648.5,438.0352,638.5,442.0352,642.5,438.0352" style="stroke:#181818;stroke-width:1.0;"/><line style="stroke:#181818;stroke-width:1.0;" x1="116.5" x2="644.5" y1="438.0352" y2="438.0352"/><text fill="#000000" font-family="sans-serif" font-size="20" font-weight="bold" lengthAdjust="spacing" textLength="13" x="123.5" y="408.2617">7</text><text fill="#000000" font-family="sans-serif" font-size="20" lengthAdjust="spacing" textLength="498" x="140.5" y="384.707">types requested data (name, passport card number,</text><text fill="#000000" font-family="sans-serif" font-size="20" lengthAdjust="spacing" textLength="270" x="146.5" y="408.2617">tax number, address, email,</text><text fill="#000000" font-family="sans-serif" font-size="20" lengthAdjust="spacing" textLength="183" x="146.5" y="431.8164">telephone number)</text><polygon fill="#181818" points="127.5,471.5898,117.5,475.5898,127.5,479.5898,123.5,475.5898" style="stroke:#181818;stroke-width:1.0;"/><line style="stroke:#181818;stroke-width:1.0;stroke-dasharray:2.0,2.0;" x1="121.5" x2="654.5" y1="475.5898" y2="475.5898"/><text fill="#000000" font-family="sans-serif" font-size="20" font-weight="bold" lengthAdjust="spacing" textLength="13" x="133.5" y="469.3711">8</text><text fill="#000000" font-family="sans-serif" font-size="20" lengthAdjust="spacing" textLength="336" x="150.5" y="469.3711">shows selected and requested data</text><polygon fill="#181818" points="638.5,509.1445,648.5,513.1445,638.5,517.1445,642.5,513.1445" style="stroke:#181818;stroke-width:1.0;"/><line style="stroke:#181818;stroke-width:1.0;" x1="116.5" x2="644.5" y1="513.1445" y2="513.1445"/><text fill="#000000" font-family="sans-serif" font-size="20" font-weight="bold" lengthAdjust="spacing" textLength="13" x="123.5" y="506.9258">9</text><text fill="#000000" font-family="sans-serif" font-size="20" lengthAdjust="spacing" textLength="125" x="140.5" y="506.9258">submits data</text><polygon fill="#181818" points="127.5,546.6992,117.5,550.6992,127.5,554.6992,123.5,550.6992" style="stroke:#181818;stroke-width:1.0;"/><line style="stroke:#181818;stroke-width:1.0;stroke-dasharray:2.0,2.0;" x1="121.5" x2="654.5" y1="550.6992" y2="550.6992"/><text fill="#000000" font-family="sans-serif" font-size="20" font-weight="bold" lengthAdjust="spacing" textLength="26" x="133.5" y="544.4805">10</text><text fill="#000000" font-family="sans-serif" font-size="20" lengthAdjust="spacing" textLength="236" x="163.5" y="544.4805">shows operation success</text><!--SRC=[bPFBRjim44Nt-eg1LpPW0qQwyw90WQ0_86JNpOISo8JvAcSKL_tw3lLmqpXmOwv6cil3oz4LdrpCM33uP4vamT8Bzbw-foYj-qtmi6zuaK18CPbZIO50IazlEXdD2JjgPV04XOnWxFnR0H_HfhEB7RoWPseQSQBITc2X02tzx2aQWaU7NPMls_Pn0pjuQc6__z8qs4kAVNYcehMHL60rR_rcWukEfQ2-NG4oFB6gz5HnncMC0gl3f1sxKpbIt2iAJV86TDKATbzdoK7L9mP9UfzE3z0UGgGpKCW-3KJZdhekg8LTNqxrJd4ZzW3MSVOuCB0Q9V2A18psSWgJrxb1Yd_1bZv4l_SvxPp1dt9rRQeaFtdY3qpzpz0jKnMyvir5TzFUigw6Lsf0gZcBWbUiJyv9Xaoye6hMbGNhY86s6c3cd8g0mM9XYjhsHmJ1NyiJeBM5cBUQ07H-xEebyr4_sQpPt9a9FgOppwDIGtNo_zgxEmhzSt3lntIFbvH9_oINegACqTlUSF07]--></g></svg>