<?xml version="1.0" encoding="UTF-8" standalone="no"?><svg xmlns="http://www.w3.org/2000/svg" xmlns:xlink="http://www.w3.org/1999/xlink" contentStyleType="text/css" height="482px" preserveAspectRatio="none" style="width:698px;height:482px;background:#FFFFFF;" version="1.1" viewBox="0 0 698 482" width="698px" zoomAndPan="magnify"><defs/><g><text fill="#000000" font-family="sans-serif" font-size="14" font-weight="bold" lengthAdjust="spacing" textLength="300" x="198" y="28.5352">System Sequence Diagram (SSD) - US 001</text><rect fill="#FFFFFF" height="249.8828" style="stroke:#181818;stroke-width:1.0;" width="10" x="89" y="136.043"/><rect fill="#FFFFFF" height="61.1094" style="stroke:#181818;stroke-width:1.0;" width="10" x="643" y="165.5977"/><rect fill="#FFFFFF" height="37.5547" style="stroke:#181818;stroke-width:1.0;" width="10" x="643" y="264.2617"/><rect fill="#FFFFFF" height="37.5547" style="stroke:#181818;stroke-width:1.0;" width="10" x="643" y="339.3711"/><line style="stroke:#181818;stroke-width:0.5;stroke-dasharray:5.0,5.0;" x1="94" x2="94" y1="126.043" y2="394.9258"/><line style="stroke:#181818;stroke-width:0.5;stroke-dasharray:5.0,5.0;" x1="648" x2="648" y1="126.043" y2="394.9258"/><text fill="#000000" font-family="sans-serif" font-size="20" lengthAdjust="spacing" textLength="172" x="5" y="121.8242">Unregistered User</text><ellipse cx="94" cy="50.9883" fill="#E3E3E3" rx="8" ry="8" style="stroke:#181818;stroke-width:0.5;"/><path d="M94,58.9883 L94,85.9883 M81,66.9883 L107,66.9883 M94,85.9883 L81,100.9883 M94,85.9883 L107,100.9883 " fill="none" style="stroke:#181818;stroke-width:0.5;"/><text fill="#000000" font-family="sans-serif" font-size="20" lengthAdjust="spacing" textLength="172" x="5" y="413.2617">Unregistered User</text><ellipse cx="94" cy="425.9805" fill="#E3E3E3" rx="8" ry="8" style="stroke:#181818;stroke-width:0.5;"/><path d="M94,433.9805 L94,460.9805 M81,441.9805 L107,441.9805 M94,460.9805 L81,475.9805 M94,460.9805 L107,475.9805 " fill="none" style="stroke:#181818;stroke-width:0.5;"/><rect fill="#E3E3E3" height="37.5547" rx="2.5" ry="2.5" style="stroke:#181818;stroke-width:0.5;" width="88" x="604" y="87.4883"/><text fill="#000000" font-family="sans-serif" font-size="20" lengthAdjust="spacing" textLength="74" x="611" y="113.8242">:System</text><rect fill="#E3E3E3" height="37.5547" rx="2.5" ry="2.5" style="stroke:#181818;stroke-width:0.5;" width="88" x="604" y="393.9258"/><text fill="#000000" font-family="sans-serif" font-size="20" lengthAdjust="spacing" textLength="74" x="611" y="420.2617">:System</text><rect fill="#FFFFFF" height="249.8828" style="stroke:#181818;stroke-width:1.0;" width="10" x="89" y="136.043"/><rect fill="#FFFFFF" height="61.1094" style="stroke:#181818;stroke-width:1.0;" width="10" x="643" y="165.5977"/><rect fill="#FFFFFF" height="37.5547" style="stroke:#181818;stroke-width:1.0;" width="10" x="643" y="264.2617"/><rect fill="#FFFFFF" height="37.5547" style="stroke:#181818;stroke-width:1.0;" width="10" x="643" y="339.3711"/><polygon fill="#181818" points="631,161.5977,641,165.5977,631,169.5977,635,165.5977" style="stroke:#181818;stroke-width:1.0;"/><line style="stroke:#181818;stroke-width:1.0;" x1="99" x2="637" y1="165.5977" y2="165.5977"/><text fill="#000000" font-family="sans-serif" font-size="20" font-weight="bold" lengthAdjust="spacing" textLength="13" x="106" y="159.3789">1</text><text fill="#000000" font-family="sans-serif" font-size="20" lengthAdjust="spacing" textLength="211" x="123" y="159.3789">Asks to list properties</text><polygon fill="#181818" points="110,222.707,100,226.707,110,230.707,106,226.707" style="stroke:#181818;stroke-width:1.0;"/><line style="stroke:#181818;stroke-width:1.0;stroke-dasharray:2.0,2.0;" x1="104" x2="647" y1="226.707" y2="226.707"/><text fill="#000000" font-family="sans-serif" font-size="20" font-weight="bold" lengthAdjust="spacing" textLength="13" x="116" y="208.7109">2</text><text fill="#000000" font-family="sans-serif" font-size="20" lengthAdjust="spacing" textLength="382" x="133" y="196.9336">Shows each category list (business type,</text><text fill="#000000" font-family="sans-serif" font-size="20" lengthAdjust="spacing" textLength="503" x="133" y="220.4883">property type, number of rooms and sorting criteria)</text><polygon fill="#181818" points="631,260.2617,641,264.2617,631,268.2617,635,264.2617" style="stroke:#181818;stroke-width:1.0;"/><line style="stroke:#181818;stroke-width:1.0;" x1="99" x2="637" y1="264.2617" y2="264.2617"/><text fill="#000000" font-family="sans-serif" font-size="20" font-weight="bold" lengthAdjust="spacing" textLength="13" x="106" y="258.043">3</text><text fill="#000000" font-family="sans-serif" font-size="20" lengthAdjust="spacing" textLength="202" x="123" y="258.043">Selects data required</text><polygon fill="#181818" points="110,297.8164,100,301.8164,110,305.8164,106,301.8164" style="stroke:#181818;stroke-width:1.0;"/><line style="stroke:#181818;stroke-width:1.0;stroke-dasharray:2.0,2.0;" x1="104" x2="647" y1="301.8164" y2="301.8164"/><text fill="#000000" font-family="sans-serif" font-size="20" font-weight="bold" lengthAdjust="spacing" textLength="13" x="116" y="295.5977">4</text><text fill="#000000" font-family="sans-serif" font-size="20" lengthAdjust="spacing" textLength="282" x="133" y="295.5977">Shows selected specifications</text><polygon fill="#181818" points="631,335.3711,641,339.3711,631,343.3711,635,339.3711" style="stroke:#181818;stroke-width:1.0;"/><line style="stroke:#181818;stroke-width:1.0;" x1="99" x2="637" y1="339.3711" y2="339.3711"/><text fill="#000000" font-family="sans-serif" font-size="20" font-weight="bold" lengthAdjust="spacing" textLength="13" x="106" y="333.1523">5</text><text fill="#000000" font-family="sans-serif" font-size="20" lengthAdjust="spacing" textLength="126" x="123" y="333.1523">Submits data</text><polygon fill="#181818" points="110,372.9258,100,376.9258,110,380.9258,106,376.9258" style="stroke:#181818;stroke-width:1.0;"/><line style="stroke:#181818;stroke-width:1.0;stroke-dasharray:2.0,2.0;" x1="104" x2="647" y1="376.9258" y2="376.9258"/><text fill="#000000" font-family="sans-serif" font-size="20" font-weight="bold" lengthAdjust="spacing" textLength="13" x="116" y="370.707">6</text><text fill="#000000" font-family="sans-serif" font-size="20" lengthAdjust="spacing" textLength="396" x="133" y="370.707">Displays all properties that suit the filters</text><!--SRC=[dL51Rjj03Bph5OHF2L03Reu-52XWz0CBttAXLvH4UBLKbjm6wklBI79WeCaXtTDWEPmPadhbF671CKcyKWijTLYJ_P9iWVyGF1qQlL5Wb2nnA38IMAbqLvamNh6dO7CYA1GDSv_k2JfWAw-SU-WmAJMDiJarp6eqGg2NIZaId1ZxD_f32AT7sCCvmE7mlMcmckGwNgWuZYO5TkTSg6TlBnxxh5HsWBg0nYsD8q-O3NR7rMEfhd2HuDzejD8RyFU6OF_ZbkW8F_MgO0B9FM0gCf6BaYxaz_wR86nlwzwxq29uX338gm9X721wHozbNYKVBbKvaxh9FD4tUCwRoRnzhFE2T514HWNCBQXu25zYBEo3CpukpYrz6EYVaG8bFur2YuP-fPVAlhl_6qWNAT-yJXIvOv-D9UlNujJBo5kShwOuiKu9PzzAIdVN0HlGG2kR8uAEaw_farH_0G00]--></g></svg>