<?xml version="1.0" encoding="UTF-8" standalone="no"?><svg xmlns="http://www.w3.org/2000/svg" xmlns:xlink="http://www.w3.org/1999/xlink" contentStyleType="text/css" height="655px" preserveAspectRatio="none" style="width:1152px;height:655px;background:#FFFFFF;" version="1.1" viewBox="0 0 1152 655" width="1152px" zoomAndPan="magnify"><defs/><g><rect fill="#FFFFFF" height="502.6563" style="stroke:#181818;stroke-width:1.0;" width="10" x="430" y="77.1094"/><rect fill="#FFFFFF" height="42.5547" style="stroke:#181818;stroke-width:1.0;" width="10" x="435" y="418.6563"/><rect fill="#FFFFFF" height="37.5547" style="stroke:#181818;stroke-width:1.0;" width="10" x="656.5" y="144.2188"/><rect fill="#FFFFFF" height="37.5547" style="stroke:#181818;stroke-width:1.0;" width="10" x="865.5" y="219.3281"/><rect fill="#FFFFFF" height="37.5547" style="stroke:#181818;stroke-width:1.0;" width="10" x="1053.5" y="294.4375"/><rect fill="none" height="225.7734" style="stroke:#000000;stroke-width:1.5;" width="1134.5" x="11" y="346.9922"/><line style="stroke:#181818;stroke-width:0.5;stroke-dasharray:5.0,5.0;" x1="434.5" x2="434.5" y1="67.1094" y2="589.7656"/><line style="stroke:#181818;stroke-width:0.5;stroke-dasharray:5.0,5.0;" x1="661.5" x2="661.5" y1="67.1094" y2="589.7656"/><line style="stroke:#181818;stroke-width:0.5;stroke-dasharray:5.0,5.0;" x1="870.5" x2="870.5" y1="67.1094" y2="589.7656"/><line style="stroke:#181818;stroke-width:0.5;stroke-dasharray:5.0,5.0;" x1="1058.5" x2="1058.5" y1="67.1094" y2="589.7656"/><rect fill="#E3E3E3" height="37.5547" rx="2.5" ry="2.5" style="stroke:#181818;stroke-width:0.5;" width="237" x="316.5" y="28.5547"/><text fill="#000000" font-family="sans-serif" font-size="20" lengthAdjust="spacing" textLength="223" x="323.5" y="54.8906">:{NameOfUC}Controller</text><rect fill="#E3E3E3" height="37.5547" rx="2.5" ry="2.5" style="stroke:#181818;stroke-width:0.5;" width="237" x="316.5" y="588.7656"/><text fill="#000000" font-family="sans-serif" font-size="20" lengthAdjust="spacing" textLength="223" x="323.5" y="615.1016">:{NameOfUC}Controller</text><rect fill="#E3E3E3" height="37.5547" rx="2.5" ry="2.5" style="stroke:#181818;stroke-width:0.5;" width="196" x="563.5" y="28.5547"/><text fill="#000000" font-family="sans-serif" font-size="20" lengthAdjust="spacing" textLength="182" x="570.5" y="54.8906">ApplicationSession</text><rect fill="#E3E3E3" height="37.5547" rx="2.5" ry="2.5" style="stroke:#181818;stroke-width:0.5;" width="196" x="563.5" y="588.7656"/><text fill="#000000" font-family="sans-serif" font-size="20" lengthAdjust="spacing" textLength="182" x="570.5" y="615.1016">ApplicationSession</text><rect fill="#E3E3E3" height="61.1094" rx="2.5" ry="2.5" style="stroke:#181818;stroke-width:0.5;" width="202" x="769.5" y="5"/><text fill="#000000" font-family="sans-serif" font-size="20" lengthAdjust="spacing" textLength="109" x="816" y="31.3359">appSession</text><text fill="#000000" font-family="sans-serif" font-size="20" lengthAdjust="spacing" textLength="188" x="776.5" y="54.8906">:ApplicationSession</text><rect fill="#E3E3E3" height="61.1094" rx="2.5" ry="2.5" style="stroke:#181818;stroke-width:0.5;" width="202" x="769.5" y="588.7656"/><text fill="#000000" font-family="sans-serif" font-size="20" lengthAdjust="spacing" textLength="109" x="816" y="615.1016">appSession</text><text fill="#000000" font-family="sans-serif" font-size="20" lengthAdjust="spacing" textLength="188" x="776.5" y="638.6563">:ApplicationSession</text><rect fill="#E3E3E3" height="61.1094" rx="2.5" ry="2.5" style="stroke:#181818;stroke-width:0.5;" width="154" x="981.5" y="5"/><text fill="#000000" font-family="sans-serif" font-size="20" lengthAdjust="spacing" textLength="140" x="988.5" y="31.3359">currentSession</text><text fill="#000000" font-family="sans-serif" font-size="20" lengthAdjust="spacing" textLength="121" x="998" y="54.8906">:UserSession</text><rect fill="#E3E3E3" height="61.1094" rx="2.5" ry="2.5" style="stroke:#181818;stroke-width:0.5;" width="154" x="981.5" y="588.7656"/><text fill="#000000" font-family="sans-serif" font-size="20" lengthAdjust="spacing" textLength="140" x="988.5" y="615.1016">currentSession</text><text fill="#000000" font-family="sans-serif" font-size="20" lengthAdjust="spacing" textLength="121" x="998" y="638.6563">:UserSession</text><rect fill="#FFFFFF" height="502.6563" style="stroke:#181818;stroke-width:1.0;" width="10" x="430" y="77.1094"/><rect fill="#FFFFFF" height="42.5547" style="stroke:#181818;stroke-width:1.0;" width="10" x="435" y="418.6563"/><rect fill="#FFFFFF" height="37.5547" style="stroke:#181818;stroke-width:1.0;" width="10" x="656.5" y="144.2188"/><rect fill="#FFFFFF" height="37.5547" style="stroke:#181818;stroke-width:1.0;" width="10" x="865.5" y="219.3281"/><rect fill="#FFFFFF" height="37.5547" style="stroke:#181818;stroke-width:1.0;" width="10" x="1053.5" y="294.4375"/><ellipse cx="7.5" cy="105.9141" fill="none" rx="4" ry="4" style="stroke:#181818;stroke-width:1.5;"/><polygon fill="#181818" points="418,102.6641,428,106.6641,418,110.6641,422,106.6641" style="stroke:#181818;stroke-width:1.0;"/><line style="stroke:#181818;stroke-width:1.0;" x1="12" x2="424" y1="106.6641" y2="106.6641"/><text fill="#000000" font-family="sans-serif" font-size="20" font-weight="bold" lengthAdjust="spacing" textLength="13" x="15" y="100.4453">1</text><text fill="#000000" font-family="sans-serif" font-size="20" lengthAdjust="spacing" textLength="72" x="32" y="100.4453">create()</text><polygon fill="#181818" points="644.5,140.2188,654.5,144.2188,644.5,148.2188,648.5,144.2188" style="stroke:#181818;stroke-width:1.0;"/><line style="stroke:#181818;stroke-width:1.0;" x1="440" x2="650.5" y1="144.2188" y2="144.2188"/><text fill="#000000" font-family="sans-serif" font-size="20" font-weight="bold" lengthAdjust="spacing" textLength="13" x="447" y="138">2</text><text fill="#000000" font-family="sans-serif" font-size="20" lengthAdjust="spacing" textLength="123" x="464" y="138">getinstance()</text><polygon fill="#181818" points="451,177.7734,441,181.7734,451,185.7734,447,181.7734" style="stroke:#181818;stroke-width:1.0;"/><line style="stroke:#181818;stroke-width:1.0;stroke-dasharray:2.0,2.0;" x1="445" x2="660.5" y1="181.7734" y2="181.7734"/><text fill="#000000" font-family="sans-serif" font-size="20" font-weight="bold" lengthAdjust="spacing" textLength="13" x="457" y="175.5547">3</text><text fill="#000000" font-family="sans-serif" font-size="20" lengthAdjust="spacing" textLength="109" x="474" y="175.5547">appSession</text><polygon fill="#181818" points="853.5,215.3281,863.5,219.3281,853.5,223.3281,857.5,219.3281" style="stroke:#181818;stroke-width:1.0;"/><line style="stroke:#181818;stroke-width:1.0;" x1="440" x2="859.5" y1="219.3281" y2="219.3281"/><text fill="#000000" font-family="sans-serif" font-size="20" font-weight="bold" lengthAdjust="spacing" textLength="13" x="447" y="213.1094">4</text><text fill="#000000" font-family="sans-serif" font-size="20" lengthAdjust="spacing" textLength="188" x="464" y="213.1094">getCurrentSession()</text><polygon fill="#181818" points="451,252.8828,441,256.8828,451,260.8828,447,256.8828" style="stroke:#181818;stroke-width:1.0;"/><line style="stroke:#181818;stroke-width:1.0;stroke-dasharray:2.0,2.0;" x1="445" x2="869.5" y1="256.8828" y2="256.8828"/><text fill="#000000" font-family="sans-serif" font-size="20" font-weight="bold" lengthAdjust="spacing" textLength="13" x="457" y="250.6641">5</text><text fill="#000000" font-family="sans-serif" font-size="20" lengthAdjust="spacing" textLength="140" x="474" y="250.6641">currentSession</text><polygon fill="#181818" points="1041.5,290.4375,1051.5,294.4375,1041.5,298.4375,1045.5,294.4375" style="stroke:#181818;stroke-width:1.0;"/><line style="stroke:#181818;stroke-width:1.0;" x1="440" x2="1047.5" y1="294.4375" y2="294.4375"/><text fill="#000000" font-family="sans-serif" font-size="20" font-weight="bold" lengthAdjust="spacing" textLength="13" x="447" y="288.2188">6</text><text fill="#000000" font-family="sans-serif" font-size="20" lengthAdjust="spacing" textLength="313" x="464" y="288.2188">isLoggedInWithRole(USER_ROLE)</text><polygon fill="#181818" points="451,327.9922,441,331.9922,451,335.9922,447,331.9922" style="stroke:#181818;stroke-width:1.0;"/><line style="stroke:#181818;stroke-width:1.0;stroke-dasharray:2.0,2.0;" x1="445" x2="1057.5" y1="331.9922" y2="331.9922"/><text fill="#000000" font-family="sans-serif" font-size="20" font-weight="bold" lengthAdjust="spacing" textLength="13" x="457" y="325.7734">7</text><text fill="#000000" font-family="sans-serif" font-size="20" lengthAdjust="spacing" textLength="67" x="474" y="325.7734">answer</text><path d="M11,346.9922 L83,346.9922 L83,362.5469 L73,372.5469 L11,372.5469 L11,346.9922 " fill="#EEEEEE" style="stroke:#000000;stroke-width:1.5;"/><rect fill="none" height="225.7734" style="stroke:#000000;stroke-width:1.5;" width="1134.5" x="11" y="346.9922"/><text fill="#000000" font-family="sans-serif" font-size="20" font-weight="bold" lengthAdjust="spacing" textLength="27" x="26" y="367.3281">alt</text><text fill="#000000" font-family="sans-serif" font-size="20" font-weight="bold" lengthAdjust="spacing" textLength="160" x="98" y="368.3281">[answer = true]</text><line style="stroke:#181818;stroke-width:1.0;" x1="440" x2="487" y1="405.6563" y2="405.6563"/><line style="stroke:#181818;stroke-width:1.0;" x1="487" x2="487" y1="405.6563" y2="418.6563"/><line style="stroke:#181818;stroke-width:1.0;" x1="446" x2="487" y1="418.6563" y2="418.6563"/><polygon fill="#181818" points="456,414.6563,446,418.6563,456,422.6563,452,418.6563" style="stroke:#181818;stroke-width:1.0;"/><text fill="#000000" font-family="sans-serif" font-size="20" font-weight="bold" lengthAdjust="spacing" textLength="13" x="452" y="399.4375">8</text><text fill="#000000" font-family="sans-serif" font-size="20" lengthAdjust="spacing" textLength="169" x="469" y="399.4375">doesOtherThing()</text><ellipse cx="7.5" cy="460.4609" fill="none" rx="4" ry="4" style="stroke:#181818;stroke-width:1.5;"/><polygon fill="#181818" points="24.5,457.2109,14.5,461.2109,24.5,465.2109,20.5,461.2109" style="stroke:#181818;stroke-width:1.0;"/><line style="stroke:#181818;stroke-width:1.0;stroke-dasharray:2.0,2.0;" x1="22.5" x2="429" y1="461.2109" y2="461.2109"/><text fill="#000000" font-family="sans-serif" font-size="20" font-weight="bold" lengthAdjust="spacing" textLength="13" x="25" y="454.9922">9</text><text fill="#000000" font-family="sans-serif" font-size="20" lengthAdjust="spacing" textLength="24" x="42" y="454.9922">ok</text><polygon fill="#FFFFFF" points="1046.5,471.2109,1056.5,475.2109,1046.5,479.2109,1050.5,475.2109" style="stroke:#FFFFFF;stroke-width:1.0;"/><line style="stroke:#FFFFFF;stroke-width:1.0;" x1="440" x2="1052.5" y1="475.2109" y2="475.2109"/><line style="stroke:#000000;stroke-width:1.0;stroke-dasharray:2.0,2.0;" x1="11" x2="1145.5" y1="484.2109" y2="484.2109"/><ellipse cx="7.5" cy="539.0156" fill="none" rx="4" ry="4" style="stroke:#181818;stroke-width:1.5;"/><polygon fill="#181818" points="24.5,535.7656,14.5,539.7656,24.5,543.7656,20.5,539.7656" style="stroke:#181818;stroke-width:1.0;"/><line style="stroke:#181818;stroke-width:1.0;stroke-dasharray:2.0,2.0;" x1="22.5" x2="429" y1="539.7656" y2="539.7656"/><text fill="#000000" font-family="sans-serif" font-size="20" font-weight="bold" lengthAdjust="spacing" textLength="26" x="25" y="533.5469">10</text><text fill="#000000" font-family="sans-serif" font-size="20" lengthAdjust="spacing" textLength="373" x="55" y="533.5469">illegalStateException("Not Authorized")</text><!--SRC=[XPHFYzim4CNl-XGYFJHx22mzXdOXc2mOGhBO6tf8owAL9xQ8h37IkDcswNUl_2-HqopLnSPwx_atOutTGPbAM55gb0V8U0PxKMjwH4Ef-WNyqprpWuINQ50M5alWP6i8TYeX3oA7b7vgu1Oa2PFhKE0AaU5HcPplXNR0cAW9JLs-WcNiOw4ou7j4UiKtvWsafAg48JwP_rwB4ZRxRVGdyamMjGOxuSBnw3bPZRMBgj9A2b9eKd3ENrhXukafNQPfl5b7OxsegbxtpSp_Qux7PbbR2xv9vu2j0niwestIEtsnajGFGT11xt3sqDxnEPSM_FFf7UD-jS_yNa3i9JcGCivtL3QwLdZE2slZ_GhTiykRBjMsoWnkXhp34NSSqQZedlf6Jdm39WvXnjrx7oWU0rrwwZEKMs6UGnQRhugA13LCj-aoUKasg-KLMV0j1h0WAcoISKT_8gzuma_PvchgbVnBDmddr06qYyiGt8OAiC-5F_fzlyPapO7WmThXvzbiyEFXl1VYX9xB7757M5sHx3uS2qNm_U5M2mAh1LUNNHdGZESWEPrEx2QPydEO2vsI1rg-IQYQmPbEraXyKLE1rlyyiidTFq5WigPzZ5tNynS0]--></g></svg>