<?xml version="1.0" encoding="UTF-8" standalone="no"?><svg xmlns="http://www.w3.org/2000/svg" xmlns:xlink="http://www.w3.org/1999/xlink" contentStyleType="text/css" height="827px" preserveAspectRatio="none" style="width:1504px;height:827px;background:#FFFFFF;" version="1.1" viewBox="0 0 1504 827" width="1504px" zoomAndPan="magnify"><defs/><g><rect fill="#FFFFFF" height="589.3203" style="stroke:#181818;stroke-width:1.0;" width="10" x="506" y="153.7734"/><rect fill="#FFFFFF" height="48.5547" style="stroke:#181818;stroke-width:1.0;" width="10" x="511" y="592.4297"/><rect fill="#FFFFFF" height="37.5547" style="stroke:#181818;stroke-width:1.0;" width="10" x="917" y="359.1016"/><rect fill="#FFFFFF" height="37.5547" style="stroke:#181818;stroke-width:1.0;" width="10" x="1066" y="434.2109"/><rect fill="#FFFFFF" height="37.5547" style="stroke:#181818;stroke-width:1.0;" width="10" x="1253" y="509.3203"/><rect fill="none" height="537.7656" style="stroke:#000000;stroke-width:1.5;" width="1143" x="355.5" y="168.7734"/><line style="stroke:#181818;stroke-width:0.5;stroke-dasharray:5.0,5.0;" x1="510.5" x2="510.5" y1="67.1094" y2="761.0938"/><line style="stroke:#181818;stroke-width:0.5;stroke-dasharray:5.0,5.0;" x1="921.5" x2="921.5" y1="67.1094" y2="761.0938"/><line style="stroke:#181818;stroke-width:0.5;stroke-dasharray:5.0,5.0;" x1="1070.5" x2="1070.5" y1="67.1094" y2="761.0938"/><line style="stroke:#181818;stroke-width:0.5;stroke-dasharray:5.0,5.0;" x1="1257.5" x2="1257.5" y1="67.1094" y2="761.0938"/><line style="stroke:#181818;stroke-width:0.5;stroke-dasharray:5.0,5.0;" x1="1431.5" x2="1431.5" y1="246.6602" y2="761.0938"/><rect fill="#E3E3E3" height="61.1094" rx="2.5" ry="2.5" style="stroke:#181818;stroke-width:0.5;" width="291" x="365.5" y="5"/><text fill="#000000" font-family="sans-serif" font-size="20" lengthAdjust="spacing" textLength="277" x="372.5" y="31.3359">manageEmployeeRepository:</text><text fill="#000000" font-family="sans-serif" font-size="20" lengthAdjust="spacing" textLength="269" x="376.5" y="54.8906">ManageEmployeeRepository</text><rect fill="#E3E3E3" height="61.1094" rx="2.5" ry="2.5" style="stroke:#181818;stroke-width:0.5;" width="291" x="365.5" y="760.0938"/><text fill="#000000" font-family="sans-serif" font-size="20" lengthAdjust="spacing" textLength="277" x="372.5" y="786.4297">manageEmployeeRepository:</text><text fill="#000000" font-family="sans-serif" font-size="20" lengthAdjust="spacing" textLength="269" x="376.5" y="809.9844">ManageEmployeeRepository</text><rect fill="#E3E3E3" height="37.5547" rx="2.5" ry="2.5" style="stroke:#181818;stroke-width:0.5;" width="139" x="852.5" y="28.5547"/><text fill="#000000" font-family="sans-serif" font-size="20" lengthAdjust="spacing" textLength="125" x="859.5" y="54.8906">:Repositories</text><rect fill="#E3E3E3" height="37.5547" rx="2.5" ry="2.5" style="stroke:#181818;stroke-width:0.5;" width="139" x="852.5" y="760.0938"/><text fill="#000000" font-family="sans-serif" font-size="20" lengthAdjust="spacing" textLength="125" x="859.5" y="786.4297">:Repositories</text><rect fill="#E3E3E3" height="61.1094" rx="2.5" ry="2.5" style="stroke:#181818;stroke-width:0.5;" width="139" x="1001.5" y="5"/><text fill="#000000" font-family="sans-serif" font-size="20" lengthAdjust="spacing" textLength="114" x="1014" y="31.3359">repositories</text><text fill="#000000" font-family="sans-serif" font-size="20" lengthAdjust="spacing" textLength="125" x="1008.5" y="54.8906">:Repositories</text><rect fill="#E3E3E3" height="61.1094" rx="2.5" ry="2.5" style="stroke:#181818;stroke-width:0.5;" width="139" x="1001.5" y="760.0938"/><text fill="#000000" font-family="sans-serif" font-size="20" lengthAdjust="spacing" textLength="114" x="1014" y="786.4297">repositories</text><text fill="#000000" font-family="sans-serif" font-size="20" lengthAdjust="spacing" textLength="125" x="1008.5" y="809.9844">:Repositories</text><rect fill="#E3E3E3" height="61.1094" rx="2.5" ry="2.5" style="stroke:#181818;stroke-width:0.5;" width="215" x="1150.5" y="5"/><text fill="#000000" font-family="sans-serif" font-size="20" lengthAdjust="spacing" textLength="201" x="1157.5" y="31.3359">employeeRepository:</text><text fill="#000000" font-family="sans-serif" font-size="20" lengthAdjust="spacing" textLength="195" x="1160.5" y="54.8906">EmployeeRepository</text><rect fill="#E3E3E3" height="61.1094" rx="2.5" ry="2.5" style="stroke:#181818;stroke-width:0.5;" width="215" x="1150.5" y="760.0938"/><text fill="#000000" font-family="sans-serif" font-size="20" lengthAdjust="spacing" textLength="201" x="1157.5" y="786.4297">employeeRepository:</text><text fill="#000000" font-family="sans-serif" font-size="20" lengthAdjust="spacing" textLength="195" x="1160.5" y="809.9844">EmployeeRepository</text><rect fill="#E3E3E3" height="61.1094" rx="2.5" ry="2.5" style="stroke:#181818;stroke-width:0.5;" width="113" x="1375.5" y="760.0938"/><text fill="#000000" font-family="sans-serif" font-size="20" lengthAdjust="spacing" textLength="99" x="1382.5" y="786.4297">employee:</text><text fill="#000000" font-family="sans-serif" font-size="20" lengthAdjust="spacing" textLength="93" x="1385.5" y="809.9844">Employee</text><rect fill="#FFFFFF" height="589.3203" style="stroke:#181818;stroke-width:1.0;" width="10" x="506" y="153.7734"/><rect fill="#FFFFFF" height="48.5547" style="stroke:#181818;stroke-width:1.0;" width="10" x="511" y="592.4297"/><rect fill="#FFFFFF" height="37.5547" style="stroke:#181818;stroke-width:1.0;" width="10" x="917" y="359.1016"/><rect fill="#FFFFFF" height="37.5547" style="stroke:#181818;stroke-width:1.0;" width="10" x="1066" y="434.2109"/><rect fill="#FFFFFF" height="37.5547" style="stroke:#181818;stroke-width:1.0;" width="10" x="1253" y="509.3203"/><polygon fill="#181818" points="494,149.7734,504,153.7734,494,157.7734,498,153.7734" style="stroke:#181818;stroke-width:1.0;"/><line style="stroke:#181818;stroke-width:1.0;" x1="0" x2="500" y1="153.7734" y2="153.7734"/><text fill="#000000" font-family="sans-serif" font-size="20" font-weight="bold" lengthAdjust="spacing" textLength="26" x="7" y="124">19</text><text fill="#000000" font-family="sans-serif" font-size="20" lengthAdjust="spacing" textLength="457" x="37" y="100.4453">registerEmployee(name, passport card number,</text><text fill="#000000" font-family="sans-serif" font-size="20" lengthAdjust="spacing" textLength="352" x="43" y="124">tax number, address, email address,</text><text fill="#000000" font-family="sans-serif" font-size="20" lengthAdjust="spacing" textLength="367" x="43" y="147.5547">contact telephone number, store, role)</text><path d="M355.5,168.7734 L593.5,168.7734 L593.5,184.3281 L583.5,194.3281 L355.5,194.3281 L355.5,168.7734 " fill="#EEEEEE" style="stroke:#000000;stroke-width:1.5;"/><rect fill="none" height="537.7656" style="stroke:#000000;stroke-width:1.5;" width="1143" x="355.5" y="168.7734"/><text fill="#000000" font-family="sans-serif" font-size="20" font-weight="bold" lengthAdjust="spacing" textLength="193" x="370.5" y="189.1094">Register Employee</text><polygon fill="#181818" points="1363.5,266.9922,1373.5,270.9922,1363.5,274.9922,1367.5,270.9922" style="stroke:#181818;stroke-width:1.0;"/><line style="stroke:#181818;stroke-width:1.0;" x1="516" x2="1369.5" y1="270.9922" y2="270.9922"/><text fill="#000000" font-family="sans-serif" font-size="20" font-weight="bold" lengthAdjust="spacing" textLength="44" x="523" y="241.2188">19.1</text><text fill="#000000" font-family="sans-serif" font-size="20" lengthAdjust="spacing" textLength="457" x="571" y="217.6641">registerEmployee(name, passport card number,</text><text fill="#000000" font-family="sans-serif" font-size="20" lengthAdjust="spacing" textLength="352" x="577" y="241.2188">tax number, address, email address,</text><text fill="#000000" font-family="sans-serif" font-size="20" lengthAdjust="spacing" textLength="361" x="577" y="264.7734">contact telephone number,store, role)</text><rect fill="#E3E3E3" height="61.1094" rx="2.5" ry="2.5" style="stroke:#181818;stroke-width:0.5;" width="113" x="1375.5" y="206.8828"/><text fill="#000000" font-family="sans-serif" font-size="20" lengthAdjust="spacing" textLength="99" x="1382.5" y="233.2188">employee:</text><text fill="#000000" font-family="sans-serif" font-size="20" lengthAdjust="spacing" textLength="93" x="1385.5" y="256.7734">Employee</text><line style="stroke:#181818;stroke-width:1.0;" x1="516" x2="558" y1="308.5469" y2="308.5469"/><line style="stroke:#181818;stroke-width:1.0;" x1="558" x2="558" y1="308.5469" y2="321.5469"/><line style="stroke:#181818;stroke-width:1.0;" x1="517" x2="558" y1="321.5469" y2="321.5469"/><polygon fill="#181818" points="527,317.5469,517,321.5469,527,325.5469,523,321.5469" style="stroke:#181818;stroke-width:1.0;"/><text fill="#000000" font-family="sans-serif" font-size="20" font-weight="bold" lengthAdjust="spacing" textLength="44" x="523" y="302.3281">19.2</text><text fill="#000000" font-family="sans-serif" font-size="20" lengthAdjust="spacing" textLength="275" x="571" y="302.3281">validateEmployee(employee)</text><polygon fill="#181818" points="905,355.1016,915,359.1016,905,363.1016,909,359.1016" style="stroke:#181818;stroke-width:1.0;"/><line style="stroke:#181818;stroke-width:1.0;" x1="516" x2="911" y1="359.1016" y2="359.1016"/><text fill="#000000" font-family="sans-serif" font-size="20" font-weight="bold" lengthAdjust="spacing" textLength="44" x="523" y="352.8828">19.3</text><text fill="#000000" font-family="sans-serif" font-size="20" lengthAdjust="spacing" textLength="123" x="571" y="352.8828">getInstance()</text><polygon fill="#181818" points="527,392.6563,517,396.6563,527,400.6563,523,396.6563" style="stroke:#181818;stroke-width:1.0;"/><line style="stroke:#181818;stroke-width:1.0;stroke-dasharray:2.0,2.0;" x1="521" x2="921" y1="396.6563" y2="396.6563"/><text fill="#000000" font-family="sans-serif" font-size="20" font-weight="bold" lengthAdjust="spacing" textLength="44" x="533" y="390.4375">19.4</text><text fill="#000000" font-family="sans-serif" font-size="20" lengthAdjust="spacing" textLength="114" x="581" y="390.4375">repositories</text><polygon fill="#181818" points="1054,430.2109,1064,434.2109,1054,438.2109,1058,434.2109" style="stroke:#181818;stroke-width:1.0;"/><line style="stroke:#181818;stroke-width:1.0;" x1="516" x2="1060" y1="434.2109" y2="434.2109"/><text fill="#000000" font-family="sans-serif" font-size="20" font-weight="bold" lengthAdjust="spacing" textLength="44" x="523" y="427.9922">19.5</text><text fill="#000000" font-family="sans-serif" font-size="20" lengthAdjust="spacing" textLength="239" x="571" y="427.9922">getEmployeeRepository()</text><polygon fill="#181818" points="527,467.7656,517,471.7656,527,475.7656,523,471.7656" style="stroke:#181818;stroke-width:1.0;"/><line style="stroke:#181818;stroke-width:1.0;stroke-dasharray:2.0,2.0;" x1="521" x2="1070" y1="471.7656" y2="471.7656"/><text fill="#000000" font-family="sans-serif" font-size="20" font-weight="bold" lengthAdjust="spacing" textLength="44" x="533" y="465.5469">19.6</text><text fill="#000000" font-family="sans-serif" font-size="20" lengthAdjust="spacing" textLength="195" x="581" y="465.5469">EmployeeRepository</text><polygon fill="#181818" points="1241,505.3203,1251,509.3203,1241,513.3203,1245,509.3203" style="stroke:#181818;stroke-width:1.0;"/><line style="stroke:#181818;stroke-width:1.0;" x1="516" x2="1247" y1="509.3203" y2="509.3203"/><text fill="#000000" font-family="sans-serif" font-size="20" font-weight="bold" lengthAdjust="spacing" textLength="44" x="523" y="503.1016">19.7</text><text fill="#000000" font-family="sans-serif" font-size="20" lengthAdjust="spacing" textLength="237" x="571" y="503.1016">addEmployee(employee)</text><polygon fill="#181818" points="527,542.875,517,546.875,527,550.875,523,546.875" style="stroke:#181818;stroke-width:1.0;"/><line style="stroke:#181818;stroke-width:1.0;stroke-dasharray:2.0,2.0;" x1="521" x2="1257" y1="546.875" y2="546.875"/><text fill="#000000" font-family="sans-serif" font-size="20" font-weight="bold" lengthAdjust="spacing" textLength="44" x="533" y="540.6563">19.8</text><text fill="#000000" font-family="sans-serif" font-size="20" lengthAdjust="spacing" textLength="6" x="581" y="540.6563"> </text><line style="stroke:#181818;stroke-width:1.0;" x1="516" x2="563" y1="579.4297" y2="579.4297"/><line style="stroke:#181818;stroke-width:1.0;" x1="563" x2="563" y1="579.4297" y2="592.4297"/><line style="stroke:#181818;stroke-width:1.0;" x1="522" x2="563" y1="592.4297" y2="592.4297"/><polygon fill="#181818" points="532,588.4297,522,592.4297,532,596.4297,528,592.4297" style="stroke:#181818;stroke-width:1.0;"/><text fill="#000000" font-family="sans-serif" font-size="20" font-weight="bold" lengthAdjust="spacing" textLength="44" x="528" y="573.2109">19.9</text><text fill="#000000" font-family="sans-serif" font-size="20" lengthAdjust="spacing" textLength="181" x="576" y="573.2109">createCredentials()</text><line style="stroke:#181818;stroke-width:1.0;stroke-dasharray:2.0,2.0;" x1="521" x2="563" y1="639.9844" y2="639.9844"/><line style="stroke:#181818;stroke-width:1.0;stroke-dasharray:2.0,2.0;" x1="563" x2="563" y1="639.9844" y2="652.9844"/><line style="stroke:#181818;stroke-width:1.0;stroke-dasharray:2.0,2.0;" x1="516" x2="563" y1="652.9844" y2="652.9844"/><polygon fill="#181818" points="526,648.9844,516,652.9844,526,656.9844,522,652.9844" style="stroke:#181818;stroke-width:1.0;"/><text fill="#000000" font-family="sans-serif" font-size="20" font-weight="bold" lengthAdjust="spacing" textLength="57" x="528" y="633.7656">19.10</text><text fill="#000000" font-family="sans-serif" font-size="20" lengthAdjust="spacing" textLength="92" x="589" y="633.7656">password</text><line style="stroke:#181818;stroke-width:1.0;" x1="516" x2="558" y1="685.5391" y2="685.5391"/><line style="stroke:#181818;stroke-width:1.0;" x1="558" x2="558" y1="685.5391" y2="698.5391"/><line style="stroke:#181818;stroke-width:1.0;" x1="517" x2="558" y1="698.5391" y2="698.5391"/><polygon fill="#181818" points="527,694.5391,517,698.5391,527,702.5391,523,698.5391" style="stroke:#181818;stroke-width:1.0;"/><text fill="#000000" font-family="sans-serif" font-size="20" font-weight="bold" lengthAdjust="spacing" textLength="57" x="523" y="679.3203">19.11</text><text fill="#000000" font-family="sans-serif" font-size="20" lengthAdjust="spacing" textLength="326" x="584" y="679.3203">sendCredentials(email, password)</text><polygon fill="#181818" points="11,739.0938,1,743.0938,11,747.0938,7,743.0938" style="stroke:#181818;stroke-width:1.0;"/><line style="stroke:#181818;stroke-width:1.0;stroke-dasharray:2.0,2.0;" x1="5" x2="510" y1="743.0938" y2="743.0938"/><text fill="#000000" font-family="sans-serif" font-size="20" font-weight="bold" lengthAdjust="spacing" textLength="26" x="17" y="736.875">20</text><text fill="#000000" font-family="sans-serif" font-size="20" lengthAdjust="spacing" textLength="236" x="47" y="736.875">shows operation success</text><!--SRC=[lLN1Rjim3BthAuYUcY8PrjqM3BiCBR13B-ir5qvY7I6oP51oi-phnpQMAyzsP-GmNmnJvEDx94N7W_KDCjOkw0CPCFI4hKltmQT7-vlWqqSLimlKmGUzvr0J96wfE6bG7x2YntHo14mweQzSwH3tQCBH-WgUq4LI2jiKV5l_95PAN9BLja6VuAf6BqXtTUF2YUW7DI7Q5FYqtVc7cQChm0WFA0T3g6tlOYc-EfM6eIyN9pi_ZkJPI9gYEaDIp6APZY-YiczP9hZzh9I2xjbyFGk6hJ2hR4p4EVZQOqrhQKcCJU046jd06MEzyv3mL_u2D8OfnZLGZTRrd-AbPG1G9qZagDa7JtrC5342py7HwetFWEU7ssmN2FkCYRhkTDQAGzj8Bywy8HFFQ6TXeb1UDpV_NU6qm26pNFjdTDQ8lfvPRkPApOMMaoK85QNlFifzqNIz6eQyz_I57KpqylW1YyrWcWgynN26BYRK5uP7XHbVeejAn9ULYETADAPrKQ4MqohlW-GK1ZB64nEtf1RT0dhFjylIArRBv4mYZowCPXBdRqo6VBBoA_X7H_zQ86h9A1NfNbR4CR1H2tiobMMa8P8tfOBNrRBkSxrS_OmWdcgy8UMdcgrVDfitt7quHWWDCIORFCHMQrbMQeRc7m00]--></g></svg>