<?xml version="1.0" encoding="UTF-8" standalone="no"?><svg xmlns="http://www.w3.org/2000/svg" xmlns:xlink="http://www.w3.org/1999/xlink" contentStyleType="text/css" height="568px" preserveAspectRatio="none" style="width:1099px;height:568px;background:#FFFFFF;" version="1.1" viewBox="0 0 1099 568" width="1099px" zoomAndPan="magnify"><defs/><g><rect fill="#FFFFFF" height="377.5469" style="stroke:#181818;stroke-width:1.0;" width="10" x="179" y="106.6641"/><rect fill="#FFFFFF" height="262.8828" style="stroke:#181818;stroke-width:1.0;" width="10" x="476.5" y="176.7734"/><rect fill="#FFFFFF" height="37.5547" style="stroke:#181818;stroke-width:1.0;" width="10" x="679.5" y="214.3281"/><rect fill="#FFFFFF" height="37.5547" style="stroke:#181818;stroke-width:1.0;" width="10" x="828.5" y="289.4375"/><rect fill="#FFFFFF" height="37.5547" style="stroke:#181818;stroke-width:1.0;" width="10" x="993" y="364.5469"/><rect fill="none" height="325.9922" style="stroke:#000000;stroke-width:1.5;" width="1083" x="10" y="121.6641"/><line style="stroke:#181818;stroke-width:0.5;stroke-dasharray:5.0,5.0;" x1="184" x2="184" y1="67.1094" y2="502.2109"/><line style="stroke:#181818;stroke-width:0.5;stroke-dasharray:5.0,5.0;" x1="481" x2="481" y1="67.1094" y2="502.2109"/><line style="stroke:#181818;stroke-width:0.5;stroke-dasharray:5.0,5.0;" x1="684" x2="684" y1="67.1094" y2="502.2109"/><line style="stroke:#181818;stroke-width:0.5;stroke-dasharray:5.0,5.0;" x1="833" x2="833" y1="67.1094" y2="502.2109"/><line style="stroke:#181818;stroke-width:0.5;stroke-dasharray:5.0,5.0;" x1="998" x2="998" y1="67.1094" y2="502.2109"/><rect fill="#E3E3E3" height="37.5547" rx="2.5" ry="2.5" style="stroke:#181818;stroke-width:0.5;" width="328" x="20" y="28.5547"/><text fill="#000000" font-family="sans-serif" font-size="20" lengthAdjust="spacing" textLength="314" x="27" y="54.8906">:RegisterNewEmployeeController</text><rect fill="#E3E3E3" height="37.5547" rx="2.5" ry="2.5" style="stroke:#181818;stroke-width:0.5;" width="328" x="20" y="501.2109"/><text fill="#000000" font-family="sans-serif" font-size="20" lengthAdjust="spacing" textLength="314" x="27" y="527.5469">:RegisterNewEmployeeController</text><rect fill="#E3E3E3" height="61.1094" rx="2.5" ry="2.5" style="stroke:#181818;stroke-width:0.5;" width="247" x="358" y="5"/><text fill="#000000" font-family="sans-serif" font-size="20" lengthAdjust="spacing" textLength="233" x="365" y="31.3359">manageStoreRepository:</text><text fill="#000000" font-family="sans-serif" font-size="20" lengthAdjust="spacing" textLength="225" x="369" y="54.8906">ManageStoreRepository</text><rect fill="#E3E3E3" height="61.1094" rx="2.5" ry="2.5" style="stroke:#181818;stroke-width:0.5;" width="247" x="358" y="501.2109"/><text fill="#000000" font-family="sans-serif" font-size="20" lengthAdjust="spacing" textLength="233" x="365" y="527.5469">manageStoreRepository:</text><text fill="#000000" font-family="sans-serif" font-size="20" lengthAdjust="spacing" textLength="225" x="369" y="551.1016">ManageStoreRepository</text><rect fill="#E3E3E3" height="37.5547" rx="2.5" ry="2.5" style="stroke:#181818;stroke-width:0.5;" width="139" x="615" y="28.5547"/><text fill="#000000" font-family="sans-serif" font-size="20" lengthAdjust="spacing" textLength="125" x="622" y="54.8906">:Repositories</text><rect fill="#E3E3E3" height="37.5547" rx="2.5" ry="2.5" style="stroke:#181818;stroke-width:0.5;" width="139" x="615" y="501.2109"/><text fill="#000000" font-family="sans-serif" font-size="20" lengthAdjust="spacing" textLength="125" x="622" y="527.5469">:Repositories</text><rect fill="#E3E3E3" height="61.1094" rx="2.5" ry="2.5" style="stroke:#181818;stroke-width:0.5;" width="139" x="764" y="5"/><text fill="#000000" font-family="sans-serif" font-size="20" lengthAdjust="spacing" textLength="114" x="776.5" y="31.3359">repositories</text><text fill="#000000" font-family="sans-serif" font-size="20" lengthAdjust="spacing" textLength="125" x="771" y="54.8906">:Repositories</text><rect fill="#E3E3E3" height="61.1094" rx="2.5" ry="2.5" style="stroke:#181818;stroke-width:0.5;" width="139" x="764" y="501.2109"/><text fill="#000000" font-family="sans-serif" font-size="20" lengthAdjust="spacing" textLength="114" x="776.5" y="527.5469">repositories</text><text fill="#000000" font-family="sans-serif" font-size="20" lengthAdjust="spacing" textLength="125" x="771" y="551.1016">:Repositories</text><rect fill="#E3E3E3" height="61.1094" rx="2.5" ry="2.5" style="stroke:#181818;stroke-width:0.5;" width="170" x="913" y="5"/><text fill="#000000" font-family="sans-serif" font-size="20" lengthAdjust="spacing" textLength="156" x="920" y="31.3359">storeRepository:</text><text fill="#000000" font-family="sans-serif" font-size="20" lengthAdjust="spacing" textLength="151" x="922.5" y="54.8906">StoreRepository</text><rect fill="#E3E3E3" height="61.1094" rx="2.5" ry="2.5" style="stroke:#181818;stroke-width:0.5;" width="170" x="913" y="501.2109"/><text fill="#000000" font-family="sans-serif" font-size="20" lengthAdjust="spacing" textLength="156" x="920" y="527.5469">storeRepository:</text><text fill="#000000" font-family="sans-serif" font-size="20" lengthAdjust="spacing" textLength="151" x="922.5" y="551.1016">StoreRepository</text><rect fill="#FFFFFF" height="377.5469" style="stroke:#181818;stroke-width:1.0;" width="10" x="179" y="106.6641"/><rect fill="#FFFFFF" height="262.8828" style="stroke:#181818;stroke-width:1.0;" width="10" x="476.5" y="176.7734"/><rect fill="#FFFFFF" height="37.5547" style="stroke:#181818;stroke-width:1.0;" width="10" x="679.5" y="214.3281"/><rect fill="#FFFFFF" height="37.5547" style="stroke:#181818;stroke-width:1.0;" width="10" x="828.5" y="289.4375"/><rect fill="#FFFFFF" height="37.5547" style="stroke:#181818;stroke-width:1.0;" width="10" x="993" y="364.5469"/><polygon fill="#181818" points="167,102.6641,177,106.6641,167,110.6641,171,106.6641" style="stroke:#181818;stroke-width:1.0;"/><line style="stroke:#181818;stroke-width:1.0;" x1="0" x2="173" y1="106.6641" y2="106.6641"/><text fill="#000000" font-family="sans-serif" font-size="20" font-weight="bold" lengthAdjust="spacing" textLength="13" x="7" y="100.4453">3</text><text fill="#000000" font-family="sans-serif" font-size="20" lengthAdjust="spacing" textLength="103" x="24" y="100.4453">getStores()</text><path d="M10,121.6641 L195,121.6641 L195,137.2188 L185,147.2188 L10,147.2188 L10,121.6641 " fill="#EEEEEE" style="stroke:#000000;stroke-width:1.5;"/><rect fill="none" height="325.9922" style="stroke:#000000;stroke-width:1.5;" width="1083" x="10" y="121.6641"/><text fill="#000000" font-family="sans-serif" font-size="20" font-weight="bold" lengthAdjust="spacing" textLength="140" x="25" y="142">Get Store List</text><polygon fill="#181818" points="464.5,172.7734,474.5,176.7734,464.5,180.7734,468.5,176.7734" style="stroke:#181818;stroke-width:1.0;"/><line style="stroke:#181818;stroke-width:1.0;" x1="189" x2="470.5" y1="176.7734" y2="176.7734"/><text fill="#000000" font-family="sans-serif" font-size="20" font-weight="bold" lengthAdjust="spacing" textLength="31" x="196" y="170.5547">3.1</text><text fill="#000000" font-family="sans-serif" font-size="20" lengthAdjust="spacing" textLength="103" x="231" y="170.5547">getStores()</text><polygon fill="#181818" points="667.5,210.3281,677.5,214.3281,667.5,218.3281,671.5,214.3281" style="stroke:#181818;stroke-width:1.0;"/><line style="stroke:#181818;stroke-width:1.0;" x1="486.5" x2="673.5" y1="214.3281" y2="214.3281"/><text fill="#000000" font-family="sans-serif" font-size="20" font-weight="bold" lengthAdjust="spacing" textLength="31" x="493.5" y="208.1094">3.2</text><text fill="#000000" font-family="sans-serif" font-size="20" lengthAdjust="spacing" textLength="123" x="528.5" y="208.1094">getInstance()</text><polygon fill="#181818" points="497.5,247.8828,487.5,251.8828,497.5,255.8828,493.5,251.8828" style="stroke:#181818;stroke-width:1.0;"/><line style="stroke:#181818;stroke-width:1.0;stroke-dasharray:2.0,2.0;" x1="491.5" x2="683.5" y1="251.8828" y2="251.8828"/><text fill="#000000" font-family="sans-serif" font-size="20" font-weight="bold" lengthAdjust="spacing" textLength="31" x="503.5" y="245.6641">3.3</text><text fill="#000000" font-family="sans-serif" font-size="20" lengthAdjust="spacing" textLength="114" x="538.5" y="245.6641">repositories</text><polygon fill="#181818" points="816.5,285.4375,826.5,289.4375,816.5,293.4375,820.5,289.4375" style="stroke:#181818;stroke-width:1.0;"/><line style="stroke:#181818;stroke-width:1.0;" x1="486.5" x2="822.5" y1="289.4375" y2="289.4375"/><text fill="#000000" font-family="sans-serif" font-size="20" font-weight="bold" lengthAdjust="spacing" textLength="31" x="493.5" y="283.2188">3.4</text><text fill="#000000" font-family="sans-serif" font-size="20" lengthAdjust="spacing" textLength="195" x="528.5" y="283.2188">getStoreRepository()</text><polygon fill="#181818" points="497.5,322.9922,487.5,326.9922,497.5,330.9922,493.5,326.9922" style="stroke:#181818;stroke-width:1.0;"/><line style="stroke:#181818;stroke-width:1.0;stroke-dasharray:2.0,2.0;" x1="491.5" x2="832.5" y1="326.9922" y2="326.9922"/><text fill="#000000" font-family="sans-serif" font-size="20" font-weight="bold" lengthAdjust="spacing" textLength="31" x="503.5" y="320.7734">3.5</text><text fill="#000000" font-family="sans-serif" font-size="20" lengthAdjust="spacing" textLength="150" x="538.5" y="320.7734">storeRepository</text><polygon fill="#181818" points="981,360.5469,991,364.5469,981,368.5469,985,364.5469" style="stroke:#181818;stroke-width:1.0;"/><line style="stroke:#181818;stroke-width:1.0;" x1="486.5" x2="987" y1="364.5469" y2="364.5469"/><text fill="#000000" font-family="sans-serif" font-size="20" font-weight="bold" lengthAdjust="spacing" textLength="31" x="493.5" y="358.3281">3.6</text><text fill="#000000" font-family="sans-serif" font-size="20" lengthAdjust="spacing" textLength="103" x="528.5" y="358.3281">getStores()</text><polygon fill="#181818" points="497.5,398.1016,487.5,402.1016,497.5,406.1016,493.5,402.1016" style="stroke:#181818;stroke-width:1.0;"/><line style="stroke:#181818;stroke-width:1.0;stroke-dasharray:2.0,2.0;" x1="491.5" x2="997" y1="402.1016" y2="402.1016"/><text fill="#000000" font-family="sans-serif" font-size="20" font-weight="bold" lengthAdjust="spacing" textLength="31" x="503.5" y="395.8828">3.7</text><text fill="#000000" font-family="sans-serif" font-size="20" lengthAdjust="spacing" textLength="82" x="538.5" y="395.8828">storeList</text><polygon fill="#181818" points="200,435.6563,190,439.6563,200,443.6563,196,439.6563" style="stroke:#181818;stroke-width:1.0;"/><line style="stroke:#181818;stroke-width:1.0;stroke-dasharray:2.0,2.0;" x1="194" x2="480.5" y1="439.6563" y2="439.6563"/><text fill="#000000" font-family="sans-serif" font-size="20" font-weight="bold" lengthAdjust="spacing" textLength="31" x="206" y="433.4375">3.8</text><text fill="#000000" font-family="sans-serif" font-size="20" lengthAdjust="spacing" textLength="82" x="241" y="433.4375">storeList</text><polygon fill="#181818" points="11,480.2109,1,484.2109,11,488.2109,7,484.2109" style="stroke:#181818;stroke-width:1.0;"/><line style="stroke:#181818;stroke-width:1.0;stroke-dasharray:2.0,2.0;" x1="5" x2="183" y1="484.2109" y2="484.2109"/><text fill="#000000" font-family="sans-serif" font-size="20" font-weight="bold" lengthAdjust="spacing" textLength="13" x="17" y="477.9922">4</text><text fill="#000000" font-family="sans-serif" font-size="20" lengthAdjust="spacing" textLength="82" x="34" y="477.9922">storeList</text><!--SRC=[dP8_JyCm4CLtVufJ9nY2-3TLY0K1Gg8CxThbIAwfLSUEpWvL-VH4QPmuTPfAU8hklNlvsNTs9tM9Z8KowOuoo6Y3bN9lHhkL_2MulnNMMw0msgHRDWM1uue2fSHqXpcjt44HCAKETQv2WzrYPlPIvx11PKc8kknaAalK3cRp9UNIEk8lshyMfJ87efSQWOrIn3D02zuHoyEe0dK3OfYML1ehww_3VAqNO_KcUO5DDI9gJP9i2z0NXbuEbBMEE_bifuqmnm1zJGYidD5LyKqC3q90UvBdYTU1EUJacWXxTTqtXL4tTw8JC7No1nrDFRZtvcog4jx97H7Xisxen0ca6hXzz1Cw69wEnO_86tntS_F-SOzf7zhMwvTIdnVSAPX43nea90EsmUHQUqRJSG4RHsmdunr1vB5CFezuia8Zb7o1qZEDpwABwRUmLRg-4Q1c4sAKAAF3kBJ3Kwcdsq4w4_6MFtRwKvBy_sVd6_y0]--></g></svg>