<?xml version="1.0" encoding="UTF-8" standalone="no"?><svg xmlns="http://www.w3.org/2000/svg" xmlns:xlink="http://www.w3.org/1999/xlink" contentStyleType="text/css" height="579px" preserveAspectRatio="none" style="width:1877px;height:579px;background:#FFFFFF;" version="1.1" viewBox="0 0 1877 579" width="1877px" zoomAndPan="magnify"><defs/><g><rect fill="#FFFFFF" height="397.5469" style="stroke:#181818;stroke-width:1.0;" width="10" x="506" y="106.6641"/><rect fill="#FFFFFF" height="313.4375" style="stroke:#181818;stroke-width:1.0;" width="10" x="1040" y="144.2188"/><rect fill="#FFFFFF" height="37.5547" style="stroke:#181818;stroke-width:1.0;" width="10" x="1380" y="181.7734"/><rect fill="#FFFFFF" height="37.5547" style="stroke:#181818;stroke-width:1.0;" width="10" x="1529" y="256.8828"/><rect fill="#FFFFFF" height="37.5547" style="stroke:#181818;stroke-width:1.0;" width="10" x="1737.5" y="331.9922"/><line style="stroke:#181818;stroke-width:0.5;stroke-dasharray:5.0,5.0;" x1="510.5" x2="510.5" y1="67.1094" y2="513.2109"/><line style="stroke:#181818;stroke-width:0.5;stroke-dasharray:5.0,5.0;" x1="1044.5" x2="1044.5" y1="67.1094" y2="513.2109"/><line style="stroke:#181818;stroke-width:0.5;stroke-dasharray:5.0,5.0;" x1="1384.5" x2="1384.5" y1="67.1094" y2="513.2109"/><line style="stroke:#181818;stroke-width:0.5;stroke-dasharray:5.0,5.0;" x1="1533.5" x2="1533.5" y1="67.1094" y2="513.2109"/><line style="stroke:#181818;stroke-width:0.5;stroke-dasharray:5.0,5.0;" x1="1742.5" x2="1742.5" y1="67.1094" y2="513.2109"/><rect fill="#E3E3E3" height="37.5547" rx="2.5" ry="2.5" style="stroke:#181818;stroke-width:0.5;" width="341" x="340.5" y="28.5547"/><text fill="#000000" font-family="sans-serif" font-size="20" lengthAdjust="spacing" textLength="327" x="347.5" y="54.8906">:ManagePurchaseOrdersController</text><rect fill="#E3E3E3" height="37.5547" rx="2.5" ry="2.5" style="stroke:#181818;stroke-width:0.5;" width="341" x="340.5" y="512.2109"/><text fill="#000000" font-family="sans-serif" font-size="20" lengthAdjust="spacing" textLength="327" x="347.5" y="538.5469">:ManagePurchaseOrdersController</text><rect fill="#E3E3E3" height="61.1094" rx="2.5" ry="2.5" style="stroke:#181818;stroke-width:0.5;" width="335" x="877.5" y="5"/><text fill="#000000" font-family="sans-serif" font-size="20" lengthAdjust="spacing" textLength="317" x="886.5" y="31.3359">manageAdvertisementRepository</text><text fill="#000000" font-family="sans-serif" font-size="20" lengthAdjust="spacing" textLength="321" x="884.5" y="54.8906">:ManageAdvertisementRepository</text><rect fill="#E3E3E3" height="61.1094" rx="2.5" ry="2.5" style="stroke:#181818;stroke-width:0.5;" width="335" x="877.5" y="512.2109"/><text fill="#000000" font-family="sans-serif" font-size="20" lengthAdjust="spacing" textLength="317" x="886.5" y="538.5469">manageAdvertisementRepository</text><text fill="#000000" font-family="sans-serif" font-size="20" lengthAdjust="spacing" textLength="321" x="884.5" y="562.1016">:ManageAdvertisementRepository</text><rect fill="#E3E3E3" height="37.5547" rx="2.5" ry="2.5" style="stroke:#181818;stroke-width:0.5;" width="139" x="1315.5" y="28.5547"/><text fill="#000000" font-family="sans-serif" font-size="20" lengthAdjust="spacing" textLength="125" x="1322.5" y="54.8906">:Repositories</text><rect fill="#E3E3E3" height="37.5547" rx="2.5" ry="2.5" style="stroke:#181818;stroke-width:0.5;" width="139" x="1315.5" y="512.2109"/><text fill="#000000" font-family="sans-serif" font-size="20" lengthAdjust="spacing" textLength="125" x="1322.5" y="538.5469">:Repositories</text><rect fill="#E3E3E3" height="61.1094" rx="2.5" ry="2.5" style="stroke:#181818;stroke-width:0.5;" width="139" x="1464.5" y="5"/><text fill="#000000" font-family="sans-serif" font-size="20" lengthAdjust="spacing" textLength="114" x="1477" y="31.3359">repositories</text><text fill="#000000" font-family="sans-serif" font-size="20" lengthAdjust="spacing" textLength="125" x="1471.5" y="54.8906">:Repositories</text><rect fill="#E3E3E3" height="61.1094" rx="2.5" ry="2.5" style="stroke:#181818;stroke-width:0.5;" width="139" x="1464.5" y="512.2109"/><text fill="#000000" font-family="sans-serif" font-size="20" lengthAdjust="spacing" textLength="114" x="1477" y="538.5469">repositories</text><text fill="#000000" font-family="sans-serif" font-size="20" lengthAdjust="spacing" textLength="125" x="1471.5" y="562.1016">:Repositories</text><rect fill="#E3E3E3" height="61.1094" rx="2.5" ry="2.5" style="stroke:#181818;stroke-width:0.5;" width="258" x="1613.5" y="5"/><text fill="#000000" font-family="sans-serif" font-size="20" lengthAdjust="spacing" textLength="244" x="1620.5" y="31.3359">advertisementRepository:</text><text fill="#000000" font-family="sans-serif" font-size="20" lengthAdjust="spacing" textLength="241" x="1622" y="54.8906">AdvertisementRepository</text><rect fill="#E3E3E3" height="61.1094" rx="2.5" ry="2.5" style="stroke:#181818;stroke-width:0.5;" width="258" x="1613.5" y="512.2109"/><text fill="#000000" font-family="sans-serif" font-size="20" lengthAdjust="spacing" textLength="244" x="1620.5" y="538.5469">advertisementRepository:</text><text fill="#000000" font-family="sans-serif" font-size="20" lengthAdjust="spacing" textLength="241" x="1622" y="562.1016">AdvertisementRepository</text><rect fill="#FFFFFF" height="397.5469" style="stroke:#181818;stroke-width:1.0;" width="10" x="506" y="106.6641"/><rect fill="#FFFFFF" height="313.4375" style="stroke:#181818;stroke-width:1.0;" width="10" x="1040" y="144.2188"/><rect fill="#FFFFFF" height="37.5547" style="stroke:#181818;stroke-width:1.0;" width="10" x="1380" y="181.7734"/><rect fill="#FFFFFF" height="37.5547" style="stroke:#181818;stroke-width:1.0;" width="10" x="1529" y="256.8828"/><rect fill="#FFFFFF" height="37.5547" style="stroke:#181818;stroke-width:1.0;" width="10" x="1737.5" y="331.9922"/><polygon fill="#181818" points="494,102.6641,504,106.6641,494,110.6641,498,106.6641" style="stroke:#181818;stroke-width:1.0;"/><line style="stroke:#181818;stroke-width:1.0;" x1="0" x2="500" y1="106.6641" y2="106.6641"/><text fill="#000000" font-family="sans-serif" font-size="20" font-weight="bold" lengthAdjust="spacing" textLength="13" x="7" y="100.4453">5</text><text fill="#000000" font-family="sans-serif" font-size="20" lengthAdjust="spacing" textLength="470" x="24" y="100.4453">getListOfAdvertisementByAgent(Employee agent)</text><polygon fill="#181818" points="1028,140.2188,1038,144.2188,1028,148.2188,1032,144.2188" style="stroke:#181818;stroke-width:1.0;"/><line style="stroke:#181818;stroke-width:1.0;" x1="516" x2="1034" y1="144.2188" y2="144.2188"/><text fill="#000000" font-family="sans-serif" font-size="20" font-weight="bold" lengthAdjust="spacing" textLength="31" x="523" y="138">5.1</text><text fill="#000000" font-family="sans-serif" font-size="20" lengthAdjust="spacing" textLength="470" x="558" y="138">getListOfAdvertisementByAgent(Employee agent)</text><polygon fill="#181818" points="1368,177.7734,1378,181.7734,1368,185.7734,1372,181.7734" style="stroke:#181818;stroke-width:1.0;"/><line style="stroke:#181818;stroke-width:1.0;" x1="1050" x2="1374" y1="181.7734" y2="181.7734"/><text fill="#000000" font-family="sans-serif" font-size="20" font-weight="bold" lengthAdjust="spacing" textLength="31" x="1057" y="175.5547">5.2</text><text fill="#000000" font-family="sans-serif" font-size="20" lengthAdjust="spacing" textLength="123" x="1092" y="175.5547">getInstance()</text><polygon fill="#181818" points="1061,215.3281,1051,219.3281,1061,223.3281,1057,219.3281" style="stroke:#181818;stroke-width:1.0;"/><line style="stroke:#181818;stroke-width:1.0;stroke-dasharray:2.0,2.0;" x1="1055" x2="1384" y1="219.3281" y2="219.3281"/><text fill="#000000" font-family="sans-serif" font-size="20" font-weight="bold" lengthAdjust="spacing" textLength="31" x="1067" y="213.1094">5.3</text><text fill="#000000" font-family="sans-serif" font-size="20" lengthAdjust="spacing" textLength="114" x="1102" y="213.1094">repositories</text><polygon fill="#181818" points="1517,252.8828,1527,256.8828,1517,260.8828,1521,256.8828" style="stroke:#181818;stroke-width:1.0;"/><line style="stroke:#181818;stroke-width:1.0;" x1="1050" x2="1523" y1="256.8828" y2="256.8828"/><text fill="#000000" font-family="sans-serif" font-size="20" font-weight="bold" lengthAdjust="spacing" textLength="31" x="1057" y="250.6641">5.4</text><text fill="#000000" font-family="sans-serif" font-size="20" lengthAdjust="spacing" textLength="273" x="1092" y="250.6641">getPurchaseOrderRepository</text><polygon fill="#181818" points="1061,290.4375,1051,294.4375,1061,298.4375,1057,294.4375" style="stroke:#181818;stroke-width:1.0;"/><line style="stroke:#181818;stroke-width:1.0;stroke-dasharray:2.0,2.0;" x1="1055" x2="1533" y1="294.4375" y2="294.4375"/><text fill="#000000" font-family="sans-serif" font-size="20" font-weight="bold" lengthAdjust="spacing" textLength="31" x="1067" y="288.2188">5.5</text><text fill="#000000" font-family="sans-serif" font-size="20" lengthAdjust="spacing" textLength="241" x="1102" y="288.2188">AdvertisementRepository</text><polygon fill="#181818" points="1725.5,327.9922,1735.5,331.9922,1725.5,335.9922,1729.5,331.9922" style="stroke:#181818;stroke-width:1.0;"/><line style="stroke:#181818;stroke-width:1.0;" x1="1050" x2="1731.5" y1="331.9922" y2="331.9922"/><text fill="#000000" font-family="sans-serif" font-size="20" font-weight="bold" lengthAdjust="spacing" textLength="31" x="1057" y="325.7734">5.6</text><text fill="#000000" font-family="sans-serif" font-size="20" lengthAdjust="spacing" textLength="195" x="1092" y="325.7734">getPurchaseOrders()</text><polygon fill="#181818" points="1061,365.5469,1051,369.5469,1061,373.5469,1057,369.5469" style="stroke:#181818;stroke-width:1.0;"/><line style="stroke:#181818;stroke-width:1.0;stroke-dasharray:2.0,2.0;" x1="1055" x2="1741.5" y1="369.5469" y2="369.5469"/><text fill="#000000" font-family="sans-serif" font-size="20" font-weight="bold" lengthAdjust="spacing" textLength="31" x="1067" y="363.3281">5.7</text><text fill="#000000" font-family="sans-serif" font-size="20" lengthAdjust="spacing" textLength="175" x="1102" y="363.3281">PurchaseOrderList</text><line style="stroke:#181818;stroke-width:1.0;" x1="1050" x2="1092" y1="407.1016" y2="407.1016"/><line style="stroke:#181818;stroke-width:1.0;" x1="1092" x2="1092" y1="407.1016" y2="420.1016"/><line style="stroke:#181818;stroke-width:1.0;" x1="1051" x2="1092" y1="420.1016" y2="420.1016"/><polygon fill="#181818" points="1061,416.1016,1051,420.1016,1061,424.1016,1057,420.1016" style="stroke:#181818;stroke-width:1.0;"/><text fill="#000000" font-family="sans-serif" font-size="20" font-weight="bold" lengthAdjust="spacing" textLength="31" x="1057" y="400.8828">5.8</text><text fill="#000000" font-family="sans-serif" font-size="20" lengthAdjust="spacing" textLength="281" x="1092" y="400.8828">sortByAgent(Employee agent)</text><polygon fill="#181818" points="527,453.6563,517,457.6563,527,461.6563,523,457.6563" style="stroke:#181818;stroke-width:1.0;"/><line style="stroke:#181818;stroke-width:1.0;stroke-dasharray:2.0,2.0;" x1="521" x2="1044" y1="457.6563" y2="457.6563"/><text fill="#000000" font-family="sans-serif" font-size="20" font-weight="bold" lengthAdjust="spacing" textLength="31" x="533" y="451.4375">5.9</text><text fill="#000000" font-family="sans-serif" font-size="20" lengthAdjust="spacing" textLength="175" x="568" y="451.4375">PurchaseOrderList</text><polygon fill="#181818" points="11,491.2109,1,495.2109,11,499.2109,7,495.2109" style="stroke:#181818;stroke-width:1.0;"/><line style="stroke:#181818;stroke-width:1.0;" x1="5" x2="505" y1="495.2109" y2="495.2109"/><text fill="#000000" font-family="sans-serif" font-size="20" font-weight="bold" lengthAdjust="spacing" textLength="13" x="17" y="488.9922">6</text><text fill="#000000" font-family="sans-serif" font-size="20" lengthAdjust="spacing" textLength="175" x="34" y="488.9922">PurchaseOrderList</text><!--SRC=[bLJ1Ri8m3BtdAo9ES63Q9cs7Qfh4q2PDOW81HovUQqf4cbH9ojHz_TAoGGiEhBrKRVoUdv_jsArGEHZ8f8wtcF04rr18zwQLMuXlvFUtpFw5y4mh7M-Cpf0xKs3Z98Tu2oakN2cH6umTg5Gs0-m64lqbLChN82qo1eNJgiW-qV07ndoG4x78GJdUYpv0UR9POU8DM9oQ18qTUqL6Iuccny7oyN8-QQEo6ZHATkX_MinGkJdcsWgdJRbIlwI1yvgJO3WHTW08j3NaoB0GLSM-fZR4D11Un1d1R39QjX50AunMwfBsm1bZRFXScyKZdgAR2EkcwrRmIpbA_Ql_ckLIbuWSgiz1gq4tTmnY9tRWSEzypUYP2Siw9-8dpo4JrO-pwEgXL7XnH7FsujwLzGCQOtz0qXq4KDqb4LIc8MrFn9iZGR8bs5r1m89glFOrjxQfCI0N3QYdamofYOCbXgRnIhNXT87o0dc8YksrNWSNY4A5yWw3Az4IKot7DIywwGdOGqknslnx5uFanrkbSsNKMZSkcqVsD0no_m00]--></g></svg>