<?xml version="1.0" encoding="UTF-8" standalone="no"?><svg xmlns="http://www.w3.org/2000/svg" xmlns:xlink="http://www.w3.org/1999/xlink" contentStyleType="text/css" height="1483px" preserveAspectRatio="none" style="width:1452px;height:1483px;background:#FFFFFF;" version="1.1" viewBox="0 0 1452 1483" width="1452px" zoomAndPan="magnify"><defs/><g><!--class ManagePurchaseOrderUI--><g id="elem_ManagePurchaseOrderUI"><rect codeLine="7" fill="#F1F1F1" height="50" id="ManagePurchaseOrderUI" rx="2.5" ry="2.5" style="stroke:#181818;stroke-width:0.5;" width="269" x="823" y="7"/><ellipse cx="839" cy="24" fill="#ADD1B2" rx="12" ry="12" style="stroke:#181818;stroke-width:1.0;"/><path d="M841.8066,31.0801 Q841.123,31.4316 840.3711,31.6074 Q839.6191,31.7832 838.7891,31.7832 Q835.8398,31.7832 834.2871,29.8398 Q832.7344,27.8965 832.7344,24.2246 Q832.7344,20.543 834.2871,18.5996 Q835.8398,16.6563 838.7891,16.6563 Q839.6191,16.6563 840.3809,16.832 Q841.1426,17.0078 841.8066,17.3594 L841.8066,20.5625 Q841.0645,19.8789 840.3662,19.5615 Q839.668,19.2441 838.9258,19.2441 Q837.3438,19.2441 836.5381,20.499 Q835.7324,21.7539 835.7324,24.2246 Q835.7324,26.6855 836.5381,27.9404 Q837.3438,29.1953 838.9258,29.1953 Q839.668,29.1953 840.3662,28.8779 Q841.0645,28.5605 841.8066,27.877 Z " fill="#000000"/><text fill="#000000" font-family="sans-serif" font-size="20" lengthAdjust="spacing" textLength="235" x="854" y="31.5586">ManagePurchaseOrderUI</text><line style="stroke:#181818;stroke-width:0.5;" x1="824" x2="1091" y1="41" y2="41"/><line style="stroke:#181818;stroke-width:0.5;" x1="824" x2="1091" y1="49" y2="49"/></g><!--class ManagePurchaseOrderController--><g id="elem_ManagePurchaseOrderController"><rect codeLine="8" fill="#F1F1F1" height="144.2188" id="ManagePurchaseOrderController" rx="2.5" ry="2.5" style="stroke:#181818;stroke-width:0.5;" width="729" x="593" y="118"/><ellipse cx="797.5" cy="135" fill="#ADD1B2" rx="12" ry="12" style="stroke:#181818;stroke-width:1.0;"/><path d="M800.3066,142.0801 Q799.623,142.4316 798.8711,142.6074 Q798.1191,142.7832 797.2891,142.7832 Q794.3398,142.7832 792.7871,140.8398 Q791.2344,138.8965 791.2344,135.2246 Q791.2344,131.543 792.7871,129.5996 Q794.3398,127.6563 797.2891,127.6563 Q798.1191,127.6563 798.8809,127.832 Q799.6426,128.0078 800.3066,128.3594 L800.3066,131.5625 Q799.5645,130.8789 798.8662,130.5615 Q798.168,130.2441 797.4258,130.2441 Q795.8438,130.2441 795.0381,131.499 Q794.2324,132.7539 794.2324,135.2246 Q794.2324,137.6855 795.0381,138.9404 Q795.8438,140.1953 797.4258,140.1953 Q798.168,140.1953 798.8662,139.8779 Q799.5645,139.5605 800.3066,138.877 Z " fill="#000000"/><text fill="#000000" font-family="sans-serif" font-size="20" lengthAdjust="spacing" textLength="311" x="819.5" y="142.5586">ManagePurchaseOrderController</text><line style="stroke:#181818;stroke-width:0.5;" x1="594" x2="1321" y1="152" y2="152"/><line style="stroke:#181818;stroke-width:0.5;" x1="594" x2="1321" y1="160" y2="160"/><text fill="#000000" font-family="sans-serif" font-size="20" lengthAdjust="spacing" textLength="341" x="599" y="183.3359">+ManagePurchaseOrderController()</text><text fill="#000000" font-family="sans-serif" font-size="20" lengthAdjust="spacing" textLength="116" x="599" y="206.8906">+getAgent()</text><text fill="#000000" font-family="sans-serif" font-size="20" lengthAdjust="spacing" textLength="496" x="599" y="230.4453">+getListOfAdvertisementsByAgent(Employee agent)</text><text fill="#000000" font-family="sans-serif" font-size="20" lengthAdjust="spacing" textLength="717" x="599" y="254">+getVisiblePurchaseOrders(ArrayList&lt;PurchaseOrder&gt; purchaseOrderList)</text></g><!--class Repositories--><g id="elem_Repositories"><rect codeLine="14" fill="#F1F1F1" height="144.2188" id="Repositories" rx="2.5" ry="2.5" style="stroke:#181818;stroke-width:0.5;" width="313" x="650" y="575"/><ellipse cx="742.5" cy="592" fill="#ADD1B2" rx="12" ry="12" style="stroke:#181818;stroke-width:1.0;"/><path d="M745.3066,599.0801 Q744.623,599.4316 743.8711,599.6074 Q743.1191,599.7832 742.2891,599.7832 Q739.3398,599.7832 737.7871,597.8398 Q736.2344,595.8965 736.2344,592.2246 Q736.2344,588.543 737.7871,586.5996 Q739.3398,584.6563 742.2891,584.6563 Q743.1191,584.6563 743.8809,584.832 Q744.6426,585.0078 745.3066,585.3594 L745.3066,588.5625 Q744.5645,587.8789 743.8662,587.5615 Q743.168,587.2441 742.4258,587.2441 Q740.8438,587.2441 740.0381,588.499 Q739.2324,589.7539 739.2324,592.2246 Q739.2324,594.6855 740.0381,595.9404 Q740.8438,597.1953 742.4258,597.1953 Q743.168,597.1953 743.8662,596.8779 Q744.5645,596.5605 745.3066,595.877 Z " fill="#000000"/><text fill="#000000" font-family="sans-serif" font-size="20" lengthAdjust="spacing" textLength="119" x="764.5" y="599.5586">Repositories</text><line style="stroke:#181818;stroke-width:0.5;" x1="651" x2="962" y1="609" y2="609"/><line style="stroke:#181818;stroke-width:0.5;" x1="651" x2="962" y1="617" y2="617"/><text fill="#000000" font-family="sans-serif" font-size="20" lengthAdjust="spacing" textLength="145" x="656" y="640.3359">-Repositories()</text><text fill="#000000" font-family="sans-serif" font-size="20" lengthAdjust="spacing" textLength="276" x="656" y="663.8906">+getInstance() : Repositories</text><text fill="#000000" font-family="sans-serif" font-size="20" lengthAdjust="spacing" textLength="301" x="656" y="687.4453">+getAdvertisementRepository()</text><text fill="#000000" font-family="sans-serif" font-size="20" lengthAdjust="spacing" textLength="255" x="656" y="711">+getEmployeeRepository()</text></g><!--class ManageAdvertisementRepository--><g id="elem_ManageAdvertisementRepository"><rect codeLine="20" fill="#F1F1F1" height="191.3281" id="ManageAdvertisementRepository" rx="2.5" ry="2.5" style="stroke:#181818;stroke-width:0.5;" width="729" x="7" y="323"/><ellipse cx="209.5" cy="340" fill="#ADD1B2" rx="12" ry="12" style="stroke:#181818;stroke-width:1.0;"/><path d="M212.3066,347.0801 Q211.623,347.4316 210.8711,347.6074 Q210.1191,347.7832 209.2891,347.7832 Q206.3398,347.7832 204.7871,345.8398 Q203.2344,343.8965 203.2344,340.2246 Q203.2344,336.543 204.7871,334.5996 Q206.3398,332.6563 209.2891,332.6563 Q210.1191,332.6563 210.8809,332.832 Q211.6426,333.0078 212.3066,333.3594 L212.3066,336.5625 Q211.5645,335.8789 210.8662,335.5615 Q210.168,335.2441 209.4258,335.2441 Q207.8438,335.2441 207.0381,336.499 Q206.2324,337.7539 206.2324,340.2246 Q206.2324,342.6855 207.0381,343.9404 Q207.8438,345.1953 209.4258,345.1953 Q210.168,345.1953 210.8662,344.8779 Q211.5645,344.5605 212.3066,343.877 Z " fill="#000000"/><text fill="#000000" font-family="sans-serif" font-size="20" lengthAdjust="spacing" textLength="315" x="231.5" y="347.5586">ManageAdvertisementRepository</text><line style="stroke:#181818;stroke-width:0.5;" x1="8" x2="735" y1="357" y2="357"/><line style="stroke:#181818;stroke-width:0.5;" x1="8" x2="735" y1="365" y2="365"/><text fill="#000000" font-family="sans-serif" font-size="20" lengthAdjust="spacing" textLength="586" x="13" y="388.3359">+ManageAdvertisementRepository(AdvertisementRepository)</text><text fill="#000000" font-family="sans-serif" font-size="20" lengthAdjust="spacing" textLength="266" x="13" y="411.8906">+getListOfAdvertisements()</text><text fill="#000000" font-family="sans-serif" font-size="20" lengthAdjust="spacing" textLength="496" x="13" y="435.4453">+getListOfAdvertisementsByAgent(Employee agent)</text><text fill="#000000" font-family="sans-serif" font-size="20" lengthAdjust="spacing" textLength="717" x="13" y="459">+getVisiblePurchaseOrders(ArrayList&lt;PurchaseOrder&gt; purchaseOrderList)</text><text fill="#000000" font-family="sans-serif" font-size="20" lengthAdjust="spacing" textLength="250" x="13" y="482.5547">+displayPurchaseOrders()</text><text fill="#000000" font-family="sans-serif" font-size="20" lengthAdjust="spacing" textLength="376" x="13" y="506.1094">+setPurchaseOrderStatus(String status)</text></g><!--class PurchaseOrder--><g id="elem_PurchaseOrder"><rect codeLine="28" fill="#F1F1F1" height="167.7734" id="PurchaseOrder" rx="2.5" ry="2.5" style="stroke:#181818;stroke-width:0.5;" width="415" x="247" y="1309"/><ellipse cx="379.5" cy="1326" fill="#ADD1B2" rx="12" ry="12" style="stroke:#181818;stroke-width:1.0;"/><path d="M382.3066,1333.0801 Q381.623,1333.4316 380.8711,1333.6074 Q380.1191,1333.7832 379.2891,1333.7832 Q376.3398,1333.7832 374.7871,1331.8398 Q373.2344,1329.8965 373.2344,1326.2246 Q373.2344,1322.543 374.7871,1320.5996 Q376.3398,1318.6563 379.2891,1318.6563 Q380.1191,1318.6563 380.8809,1318.832 Q381.6426,1319.0078 382.3066,1319.3594 L382.3066,1322.5625 Q381.5645,1321.8789 380.8662,1321.5615 Q380.168,1321.2441 379.4258,1321.2441 Q377.8438,1321.2441 377.0381,1322.499 Q376.2324,1323.7539 376.2324,1326.2246 Q376.2324,1328.6855 377.0381,1329.9404 Q377.8438,1331.1953 379.4258,1331.1953 Q380.168,1331.1953 380.8662,1330.8779 Q381.5645,1330.5605 382.3066,1329.877 Z " fill="#000000"/><text fill="#000000" font-family="sans-serif" font-size="20" lengthAdjust="spacing" textLength="141" x="401.5" y="1333.5586">PurchaseOrder</text><line style="stroke:#181818;stroke-width:0.5;" x1="248" x2="661" y1="1343" y2="1343"/><text fill="#000000" font-family="sans-serif" font-size="20" lengthAdjust="spacing" textLength="126" x="253" y="1366.3359">-Client client</text><text fill="#000000" font-family="sans-serif" font-size="20" lengthAdjust="spacing" textLength="216" x="253" y="1389.8906">-String dateOfRequest</text><text fill="#000000" font-family="sans-serif" font-size="20" lengthAdjust="spacing" textLength="122" x="253" y="1413.4453">-String price</text><text fill="#000000" font-family="sans-serif" font-size="20" lengthAdjust="spacing" textLength="131" x="253" y="1437">-String status</text><line style="stroke:#181818;stroke-width:0.5;" x1="248" x2="661" y1="1445.2188" y2="1445.2188"/><text fill="#000000" font-family="sans-serif" font-size="20" lengthAdjust="spacing" textLength="403" x="253" y="1468.5547">+request(property, dateOfRequest, agent)</text></g><!--class Advertisement--><g id="elem_Advertisement"><rect codeLine="35" fill="#F1F1F1" height="167.7734" id="Advertisement" rx="2.5" ry="2.5" style="stroke:#181818;stroke-width:0.5;" width="786" x="61.5" y="997"/><ellipse cx="380.5" cy="1014" fill="#ADD1B2" rx="12" ry="12" style="stroke:#181818;stroke-width:1.0;"/><path d="M383.3066,1021.0801 Q382.623,1021.4316 381.8711,1021.6074 Q381.1191,1021.7832 380.2891,1021.7832 Q377.3398,1021.7832 375.7871,1019.8398 Q374.2344,1017.8965 374.2344,1014.2246 Q374.2344,1010.543 375.7871,1008.5996 Q377.3398,1006.6563 380.2891,1006.6563 Q381.1191,1006.6563 381.8809,1006.832 Q382.6426,1007.0078 383.3066,1007.3594 L383.3066,1010.5625 Q382.5645,1009.8789 381.8662,1009.5615 Q381.168,1009.2441 380.4258,1009.2441 Q378.8438,1009.2441 378.0381,1010.499 Q377.2324,1011.7539 377.2324,1014.2246 Q377.2324,1016.6855 378.0381,1017.9404 Q378.8438,1019.1953 380.4258,1019.1953 Q381.168,1019.1953 381.8662,1018.8779 Q382.5645,1018.5605 383.3066,1017.877 Z " fill="#000000"/><text fill="#000000" font-family="sans-serif" font-size="20" lengthAdjust="spacing" textLength="139" x="402.5" y="1021.5586">Advertisement</text><line style="stroke:#181818;stroke-width:0.5;" x1="62.5" x2="846.5" y1="1031" y2="1031"/><text fill="#000000" font-family="sans-serif" font-size="20" lengthAdjust="spacing" textLength="278" x="67.5" y="1054.3359">-String dateOfAdvertisement</text><text fill="#000000" font-family="sans-serif" font-size="20" lengthAdjust="spacing" textLength="167" x="67.5" y="1077.8906">-Request request</text><text fill="#000000" font-family="sans-serif" font-size="20" lengthAdjust="spacing" textLength="254" x="67.5" y="1101.4453">-Commission commission</text><text fill="#000000" font-family="sans-serif" font-size="20" lengthAdjust="spacing" textLength="459" x="67.5" y="1125">-ArrayList &lt;PurchaseOrder&gt; purchaseOrderList</text><line style="stroke:#181818;stroke-width:0.5;" x1="62.5" x2="846.5" y1="1133.2188" y2="1133.2188"/><text fill="#000000" font-family="sans-serif" font-size="20" lengthAdjust="spacing" textLength="774" x="67.5" y="1156.5547">+Advertisement(dateOfAdvertisement, request, commission, purchaseOrderList)</text></g><!--class AdvertisementRepository--><g id="elem_AdvertisementRepository"><rect codeLine="42" fill="#F1F1F1" height="97.1094" id="AdvertisementRepository" rx="2.5" ry="2.5" style="stroke:#181818;stroke-width:0.5;" width="388" x="424.5" y="780"/><ellipse cx="493.5" cy="797" fill="#ADD1B2" rx="12" ry="12" style="stroke:#181818;stroke-width:1.0;"/><path d="M496.3066,804.0801 Q495.623,804.4316 494.8711,804.6074 Q494.1191,804.7832 493.2891,804.7832 Q490.3398,804.7832 488.7871,802.8398 Q487.2344,800.8965 487.2344,797.2246 Q487.2344,793.543 488.7871,791.5996 Q490.3398,789.6563 493.2891,789.6563 Q494.1191,789.6563 494.8809,789.832 Q495.6426,790.0078 496.3066,790.3594 L496.3066,793.5625 Q495.5645,792.8789 494.8662,792.5615 Q494.168,792.2441 493.4258,792.2441 Q491.8438,792.2441 491.0381,793.499 Q490.2324,794.7539 490.2324,797.2246 Q490.2324,799.6855 491.0381,800.9404 Q491.8438,802.1953 493.4258,802.1953 Q494.168,802.1953 494.8662,801.8779 Q495.5645,801.5605 496.3066,800.877 Z " fill="#000000"/><text fill="#000000" font-family="sans-serif" font-size="20" lengthAdjust="spacing" textLength="241" x="515.5" y="804.5586">AdvertisementRepository</text><line style="stroke:#181818;stroke-width:0.5;" x1="425.5" x2="811.5" y1="814" y2="814"/><text fill="#000000" font-family="sans-serif" font-size="20" lengthAdjust="spacing" textLength="375" x="430.5" y="837.3359">-List &lt;Advertisement&gt; advertisements</text><line style="stroke:#181818;stroke-width:0.5;" x1="425.5" x2="811.5" y1="845.5547" y2="845.5547"/><text fill="#000000" font-family="sans-serif" font-size="20" lengthAdjust="spacing" textLength="376" x="430.5" y="868.8906">+setPurchaseOrderStatus(String status)</text></g><!--class EmployeeRepository--><g id="elem_EmployeeRepository"><rect codeLine="46" fill="#F1F1F1" height="73.5547" id="EmployeeRepository" rx="2.5" ry="2.5" style="stroke:#181818;stroke-width:0.5;" width="240" x="970.5" y="791.5"/><ellipse cx="991.45" cy="808.5" fill="#ADD1B2" rx="12" ry="12" style="stroke:#181818;stroke-width:1.0;"/><path d="M994.2566,815.5801 Q993.573,815.9316 992.8211,816.1074 Q992.0691,816.2832 991.2391,816.2832 Q988.2898,816.2832 986.7371,814.3398 Q985.1844,812.3965 985.1844,808.7246 Q985.1844,805.043 986.7371,803.0996 Q988.2898,801.1563 991.2391,801.1563 Q992.0691,801.1563 992.8309,801.332 Q993.5926,801.5078 994.2566,801.8594 L994.2566,805.0625 Q993.5145,804.3789 992.8162,804.0615 Q992.118,803.7441 991.3758,803.7441 Q989.7938,803.7441 988.9881,804.999 Q988.1824,806.2539 988.1824,808.7246 Q988.1824,811.1855 988.9881,812.4404 Q989.7938,813.6953 991.3758,813.6953 Q992.118,813.6953 992.8162,813.3779 Q993.5145,813.0605 994.2566,812.377 Z " fill="#000000"/><text fill="#000000" font-family="sans-serif" font-size="20" lengthAdjust="spacing" textLength="195" x="1007.55" y="816.0586">EmployeeRepository</text><line style="stroke:#181818;stroke-width:0.5;" x1="971.5" x2="1209.5" y1="825.5" y2="825.5"/><line style="stroke:#181818;stroke-width:0.5;" x1="971.5" x2="1209.5" y1="833.5" y2="833.5"/><text fill="#000000" font-family="sans-serif" font-size="20" lengthAdjust="spacing" textLength="228" x="976.5" y="856.8359">+getEmployeeByEmail()</text></g><!--class ManageEmployeeRepository--><g id="elem_ManageEmployeeRepository"><rect codeLine="49" fill="#F1F1F1" height="73.5547" id="ManageEmployeeRepository" rx="2.5" ry="2.5" style="stroke:#181818;stroke-width:0.5;" width="303" x="958" y="381.5"/><ellipse cx="974" cy="398.5" fill="#ADD1B2" rx="12" ry="12" style="stroke:#181818;stroke-width:1.0;"/><path d="M976.8066,405.5801 Q976.123,405.9316 975.3711,406.1074 Q974.6191,406.2832 973.7891,406.2832 Q970.8398,406.2832 969.2871,404.3398 Q967.7344,402.3965 967.7344,398.7246 Q967.7344,395.043 969.2871,393.0996 Q970.8398,391.1563 973.7891,391.1563 Q974.6191,391.1563 975.3809,391.332 Q976.1426,391.5078 976.8066,391.8594 L976.8066,395.0625 Q976.0645,394.3789 975.3662,394.0615 Q974.668,393.7441 973.9258,393.7441 Q972.3438,393.7441 971.5381,394.999 Q970.7324,396.2539 970.7324,398.7246 Q970.7324,401.1855 971.5381,402.4404 Q972.3438,403.6953 973.9258,403.6953 Q974.668,403.6953 975.3662,403.3779 Q976.0645,403.0605 976.8066,402.377 Z " fill="#000000"/><text fill="#000000" font-family="sans-serif" font-size="20" lengthAdjust="spacing" textLength="269" x="989" y="406.0586">ManageEmployeeRepository</text><line style="stroke:#181818;stroke-width:0.5;" x1="959" x2="1260" y1="415.5" y2="415.5"/><line style="stroke:#181818;stroke-width:0.5;" x1="959" x2="1260" y1="423.5" y2="423.5"/><text fill="#000000" font-family="sans-serif" font-size="20" lengthAdjust="spacing" textLength="228" x="964" y="446.8359">+getEmployeeByEmail()</text></g><!--class UserSession--><g id="elem_UserSession"><rect codeLine="52" fill="#F1F1F1" height="73.5547" id="UserSession" rx="2.5" ry="2.5" style="stroke:#181818;stroke-width:0.5;" width="149" x="1296" y="381.5"/><ellipse cx="1312" cy="398.5" fill="#ADD1B2" rx="12" ry="12" style="stroke:#181818;stroke-width:1.0;"/><path d="M1314.8066,405.5801 Q1314.123,405.9316 1313.3711,406.1074 Q1312.6191,406.2832 1311.7891,406.2832 Q1308.8398,406.2832 1307.2871,404.3398 Q1305.7344,402.3965 1305.7344,398.7246 Q1305.7344,395.043 1307.2871,393.0996 Q1308.8398,391.1563 1311.7891,391.1563 Q1312.6191,391.1563 1313.3809,391.332 Q1314.1426,391.5078 1314.8066,391.8594 L1314.8066,395.0625 Q1314.0645,394.3789 1313.3662,394.0615 Q1312.668,393.7441 1311.9258,393.7441 Q1310.3438,393.7441 1309.5381,394.999 Q1308.7324,396.2539 1308.7324,398.7246 Q1308.7324,401.1855 1309.5381,402.4404 Q1310.3438,403.6953 1311.9258,403.6953 Q1312.668,403.6953 1313.3662,403.3779 Q1314.0645,403.0605 1314.8066,402.377 Z " fill="#000000"/><text fill="#000000" font-family="sans-serif" font-size="20" lengthAdjust="spacing" textLength="115" x="1327" y="406.0586">UserSession</text><line style="stroke:#181818;stroke-width:0.5;" x1="1297" x2="1444" y1="415.5" y2="415.5"/><line style="stroke:#181818;stroke-width:0.5;" x1="1297" x2="1444" y1="423.5" y2="423.5"/><text fill="#000000" font-family="sans-serif" font-size="20" lengthAdjust="spacing" textLength="122" x="1302" y="446.8359">+getUserId()</text></g><!--class Employee--><g id="elem_Employee"><rect codeLine="55" fill="#F1F1F1" height="285.5469" id="Employee" rx="2.5" ry="2.5" style="stroke:#181818;stroke-width:0.5;" width="539" x="883" y="938"/><ellipse cx="1101.5" cy="955" fill="#ADD1B2" rx="12" ry="12" style="stroke:#181818;stroke-width:1.0;"/><path d="M1104.3066,962.0801 Q1103.623,962.4316 1102.8711,962.6074 Q1102.1191,962.7832 1101.2891,962.7832 Q1098.3398,962.7832 1096.7871,960.8398 Q1095.2344,958.8965 1095.2344,955.2246 Q1095.2344,951.543 1096.7871,949.5996 Q1098.3398,947.6563 1101.2891,947.6563 Q1102.1191,947.6563 1102.8809,947.832 Q1103.6426,948.0078 1104.3066,948.3594 L1104.3066,951.5625 Q1103.5645,950.8789 1102.8662,950.5615 Q1102.168,950.2441 1101.4258,950.2441 Q1099.8438,950.2441 1099.0381,951.499 Q1098.2324,952.7539 1098.2324,955.2246 Q1098.2324,957.6855 1099.0381,958.9404 Q1099.8438,960.1953 1101.4258,960.1953 Q1102.168,960.1953 1102.8662,959.8779 Q1103.5645,959.5605 1104.3066,958.877 Z " fill="#000000"/><text fill="#000000" font-family="sans-serif" font-size="20" lengthAdjust="spacing" textLength="93" x="1123.5" y="962.5586">Employee</text><line style="stroke:#181818;stroke-width:0.5;" x1="884" x2="1421" y1="972" y2="972"/><text fill="#000000" font-family="sans-serif" font-size="20" lengthAdjust="spacing" textLength="127" x="889" y="995.3359">-String name</text><text fill="#000000" font-family="sans-serif" font-size="20" lengthAdjust="spacing" textLength="247" x="889" y="1018.8906">-String telephoneNumber</text><text fill="#000000" font-family="sans-serif" font-size="20" lengthAdjust="spacing" textLength="124" x="889" y="1042.4453">-Email email</text><text fill="#000000" font-family="sans-serif" font-size="20" lengthAdjust="spacing" textLength="354" x="889" y="1066">-PassportCard passportCardNumber</text><text fill="#000000" font-family="sans-serif" font-size="20" lengthAdjust="spacing" textLength="303" x="889" y="1089.5547">-SocialSecurityCard taxNumber</text><text fill="#000000" font-family="sans-serif" font-size="20" lengthAdjust="spacing" textLength="173" x="889" y="1113.1094">-Address address</text><text fill="#000000" font-family="sans-serif" font-size="20" lengthAdjust="spacing" textLength="115" x="889" y="1136.6641">-Store store</text><text fill="#000000" font-family="sans-serif" font-size="20" lengthAdjust="spacing" textLength="97" x="889" y="1160.2188">-Role role</text><line style="stroke:#181818;stroke-width:0.5;" x1="884" x2="1421" y1="1168.4375" y2="1168.4375"/><text fill="#000000" font-family="sans-serif" font-size="20" lengthAdjust="spacing" textLength="515" x="889" y="1191.7734">+Employee(name, passportCardNumber, taxNumber,</text><text fill="#000000" font-family="sans-serif" font-size="20" lengthAdjust="spacing" textLength="521" x="895" y="1215.3281">address, emailAddress, telephoneNumber, store, role)</text></g><!--link ManagePurchaseOrderUI to ManagePurchaseOrderController--><g id="link_ManagePurchaseOrderUI_ManagePurchaseOrderController"><path codeLine="67" d="M957.5,57.03 C957.5,72.08 957.5,92.39 957.5,112.55 " fill="none" id="ManagePurchaseOrderUI-to-ManagePurchaseOrderController" style="stroke:#181818;stroke-width:1.0;"/><polygon fill="#181818" points="957.5,117.68,961.5,108.68,957.5,112.68,953.5,108.68,957.5,117.68" style="stroke:#181818;stroke-width:1.0;"/></g><!--link ManagePurchaseOrderController to ManageEmployeeRepository--><g id="link_ManagePurchaseOrderController_ManageEmployeeRepository"><path codeLine="69" d="M1005.18,262.04 C1030.59,299.91 1060.93,345.13 1082.33,377.01 " fill="none" id="ManagePurchaseOrderController-to-ManageEmployeeRepository" style="stroke:#181818;stroke-width:1.0;stroke-dasharray:7.0,7.0;"/><polygon fill="#181818" points="1085.15,381.22,1083.4628,371.5167,1082.3666,377.0663,1076.817,375.9701,1085.15,381.22" style="stroke:#181818;stroke-width:1.0;"/></g><!--link ManagePurchaseOrderController to UserSession--><g id="link_ManagePurchaseOrderController_UserSession"><path codeLine="70" d="M1130.22,262.02 C1206.19,293.27 1278.5,323 1278.5,323 C1278.5,323 1306.43,351.69 1331.52,377.46 " fill="none" id="ManagePurchaseOrderController-to-UserSession" style="stroke:#181818;stroke-width:1.0;stroke-dasharray:7.0,7.0;"/><polygon fill="#181818" points="1335.19,381.23,1331.7848,371.9885,1331.7048,377.6448,1326.0485,377.5648,1335.19,381.23" style="stroke:#181818;stroke-width:1.0;"/></g><!--link ManagePurchaseOrderController to Repositories--><g id="link_ManagePurchaseOrderController_Repositories"><path codeLine="71" d="M885.94,262.02 C854.46,293.27 824.5,323 824.5,323 C824.5,323 816.08,474.14 810.76,569.64 " fill="none" id="ManagePurchaseOrderController-to-Repositories" style="stroke:#181818;stroke-width:1.0;stroke-dasharray:7.0,7.0;"/><polygon fill="#181818" points="810.47,574.72,814.952,565.9501,810.741,569.7274,806.9637,565.5164,810.47,574.72" style="stroke:#181818;stroke-width:1.0;"/><text fill="#000000" font-family="sans-serif" font-size="20" lengthAdjust="spacing" textLength="114" x="825.5" y="426.3359">repositories</text></g><!--link ManagePurchaseOrderController to ManageAdvertisementRepository--><g id="link_ManagePurchaseOrderController_ManageAdvertisementRepository"><path codeLine="72" d="M773.69,262.04 C725.33,280.74 672.32,301.23 621.13,321.01 " fill="none" id="ManagePurchaseOrderController-to-ManageAdvertisementRepository" style="stroke:#181818;stroke-width:1.0;stroke-dasharray:7.0,7.0;"/><polygon fill="#181818" points="616.18,322.93,626.0176,323.4004,620.8408,321.1198,623.1214,315.943,616.18,322.93" style="stroke:#181818;stroke-width:1.0;"/></g><!--link ManageAdvertisementRepository to Repositories--><g id="link_ManageAdvertisementRepository_Repositories"><path codeLine="74" d="M553.14,514.08 C590.6,533.58 629.52,553.85 665.28,572.47 " fill="none" id="ManageAdvertisementRepository-to-Repositories" style="stroke:#181818;stroke-width:1.0;stroke-dasharray:7.0,7.0;"/><polygon fill="#181818" points="670.08,574.97,663.9365,567.2721,665.6427,572.6655,660.2493,574.3717,670.08,574.97" style="stroke:#181818;stroke-width:1.0;"/></g><!--link ManageEmployeeRepository to Repositories--><g id="link_ManageEmployeeRepository_Repositories"><path codeLine="75" d="M1061.15,455.64 C1019.47,486.8 957.94,532.8 905.8,571.77 " fill="none" id="ManageEmployeeRepository-to-Repositories" style="stroke:#181818;stroke-width:1.0;stroke-dasharray:7.0,7.0;"/><polygon fill="#181818" points="901.75,574.8,911.3537,572.6164,905.7551,571.8068,906.5647,566.2082,901.75,574.8" style="stroke:#181818;stroke-width:1.0;"/></g><!--link Repositories to AdvertisementRepository--><g id="link_Repositories_AdvertisementRepository"><path codeLine="77" d="M731.93,719.2 C711.94,738.29 690.72,758.55 672.11,776.31 " fill="none" id="Repositories-to-AdvertisementRepository" style="stroke:#181818;stroke-width:1.0;"/><polygon fill="#181818" points="668.43,779.83,677.6987,776.4996,672.0432,776.3739,672.1689,770.7184,668.43,779.83" style="stroke:#181818;stroke-width:1.0;"/></g><!--link Repositories to EmployeeRepository--><g id="link_Repositories_EmployeeRepository"><path codeLine="78" d="M919.15,719.2 C956.65,742.9 997,768.41 1029.12,788.71 " fill="none" id="Repositories-to-EmployeeRepository" style="stroke:#181818;stroke-width:1.0;"/><polygon fill="#181818" points="1033.4,791.41,1027.9276,783.2214,1029.1729,788.7395,1023.6548,789.9848,1033.4,791.41" style="stroke:#181818;stroke-width:1.0;"/></g><!--link Repositories to Repositories--><g id="link_Repositories_Repositories"><path codeLine="79" d="M963.16,630.08 C984.09,632.94 998,638.58 998,647 C998,654.69 986.38,660.07 968.39,663.12 " fill="none" id="Repositories-to-Repositories" style="stroke:#181818;stroke-width:1.0;"/><polygon fill="#181818" points="963.16,663.92,972.6619,666.5112,968.1024,663.1629,971.4506,658.6034,963.16,663.92" style="stroke:#181818;stroke-width:1.0;"/><text fill="#000000" font-family="sans-serif" font-size="20" lengthAdjust="spacing" textLength="79" x="1004" y="654.8359">instance</text></g><!--link EmployeeRepository to Employee--><g id="link_EmployeeRepository_Employee"><path codeLine="81" d="M1099.45,865.66 C1104.01,884.08 1109.89,907.82 1116.06,932.77 " fill="none" id="EmployeeRepository-to-Employee" style="stroke:#181818;stroke-width:1.0;"/><polygon fill="#181818" points="1117.3,937.78,1119.0246,928.0833,1116.1008,932.9259,1111.2581,930.0021,1117.3,937.78" style="stroke:#181818;stroke-width:1.0;"/></g><!--link Employee to PurchaseOrder--><g id="link_Employee_PurchaseOrder"><path codeLine="82" d="M882.95,1214.9 C871.36,1220.62 864.5,1224 864.5,1224 C864.5,1224 763.62,1265.34 661.94,1307 " fill="none" id="Employee-to-PurchaseOrder" style="stroke:#181818;stroke-width:1.0;"/><polygon fill="#181818" points="657.1,1308.98,666.9448,1309.2627,661.7255,1307.0813,663.9068,1301.8619,657.1,1308.98" style="stroke:#181818;stroke-width:1.0;"/><polygon fill="#000000" points="787.1155,1269.8546,802.2829,1268.6283,798.6654,1259.9473,787.1155,1269.8546" style="stroke:#000000;stroke-width:1.0;"/><text fill="#000000" font-family="sans-serif" font-size="20" lengthAdjust="spacing" textLength="173" x="807.5" y="1274.3359">accepts or decline</text></g><!--link AdvertisementRepository to Advertisement--><g id="link_AdvertisementRepository_Advertisement"><path codeLine="84" d="M587.27,877.21 C565.93,909.8 537.02,953.95 511.63,992.74 " fill="none" id="AdvertisementRepository-to-Advertisement" style="stroke:#181818;stroke-width:1.0;"/><polygon fill="#181818" points="508.87,996.95,517.1485,991.6146,511.6105,992.7679,510.4572,987.2299,508.87,996.95" style="stroke:#181818;stroke-width:1.0;"/></g><!--link Advertisement to PurchaseOrder--><g id="link_Advertisement_PurchaseOrder"><path codeLine="85" d="M454.5,1165.07 C454.5,1207.99 454.5,1260.35 454.5,1303.96 " fill="none" id="Advertisement-to-PurchaseOrder" style="stroke:#181818;stroke-width:1.0;"/><polygon fill="#181818" points="454.5,1308.97,458.5,1299.97,454.5,1303.97,450.5,1299.97,454.5,1308.97" style="stroke:#181818;stroke-width:1.0;"/><text fill="#000000" font-family="sans-serif" font-size="20" lengthAdjust="spacing" textLength="33" x="455.5" y="1274.3359">has</text></g><!--reverse link Advertisement to Employee--><g id="link_Advertisement_Employee"><path codeLine="86" d="M852.83,1081 C863.64,1081 873.76,1081 882.69,1081 " fill="none" id="Advertisement-backto-Employee" style="stroke:#181818;stroke-width:1.0;"/><polygon fill="#181818" points="847.81,1081,856.81,1085,852.81,1081,856.81,1077,847.81,1081" style="stroke:#181818;stroke-width:1.0;"/></g><!--link ManageAdvertisementRepository to AdvertisementRepository--><g id="link_ManageAdvertisementRepository_AdvertisementRepository"><path codeLine="88" d="M428.79,514.13 C477.98,595.39 547.09,709.54 586.88,775.28 " fill="none" id="ManageAdvertisementRepository-to-AdvertisementRepository" style="stroke:#181818;stroke-width:1.0;stroke-dasharray:7.0,7.0;"/><polygon fill="#181818" points="589.7,779.92,588.4756,770.1475,587.117,775.6388,581.6257,774.2803,589.7,779.92" style="stroke:#181818;stroke-width:1.0;"/></g><!--link ManageAdvertisementRepository to Advertisement--><g id="link_ManageAdvertisementRepository_Advertisement"><path codeLine="89" d="M378.73,514.02 C388.98,647.98 406.5,877 406.5,877 C406.5,877 420.71,937.1 433.67,991.9 " fill="none" id="ManageAdvertisementRepository-to-Advertisement" style="stroke:#181818;stroke-width:1.0;stroke-dasharray:7.0,7.0;"/><polygon fill="#181818" points="434.84,996.85,436.6786,987.1743,433.698,991.9822,428.8901,989.0015,434.84,996.85" style="stroke:#181818;stroke-width:1.0;"/></g><!--link ManageAdvertisementRepository to PurchaseOrder--><g id="link_ManageAdvertisementRepository_PurchaseOrder"><path codeLine="90" d="M219.92,514.08 C120.38,576.19 8.5,646 8.5,646 C8.5,646 8.5,646 8.5,1082 C8.5,1082 43.5,1224 43.5,1224 C43.5,1224 144.63,1265.34 246.55,1307 " fill="none" id="ManageAdvertisementRepository-to-PurchaseOrder" style="stroke:#181818;stroke-width:1.0;"/><polygon fill="#181818" points="251.41,1308.98,244.5844,1301.88,246.7795,1307.0935,241.566,1309.2887,251.41,1308.98" style="stroke:#181818;stroke-width:1.0;"/></g><!--SRC=[pLPDRzim3BthL-ZeOavHx5WK0RAY0m9iQz6WE-sYoamgL9OqITxc5Vllap_aYB6TT3qj1ySIdyZ7Hn6qUnRACCjAgVap5BI0BQka_wYLtuZVGDzV41SXr33-p7QmyRK4Qe5xfdOI4e1xOeN-ATIERfbqgKKA1RusG8sMTRCWYP5BvjpAUoiUAmzhhbKR-uAGra8_CnN2tbMMFp47jxO0-x2cBt_cpTU1lzLIWgKlX8RVk-EexAn7xS2lTg1ykl59E7-xNHK_m7hXe0nczw7kO3UbaRe6eAnP9eU-2YSU9OxdifMrh6xyNI73affqsG3EI4pl7ensmcihmFNPBD1codMjNAWAX-oCNY9Gab-Qo02fKoynAsJ5SizumMhFXPhPFw7vVr2JpbKXd96iFl0JhGuyicmyyvNBDk5wXyPmxMgl9eB6wbvB4PY7lcZ- -ht-VC4yt6xluNi5xi1ahE20jxfeFJ7R7SgCrIR8LkVOMHxrYjIGkiFDGpmGPBYQhRiOBgQaor8u9xIYV7ZjR4C1wCaAz9cWiDa4bJn6pvDe-R4kEtgV5nqxX5bIXcxVcwe_RhI-WP8c_53Vb4p8KGU-xUo32voWrMCFRpRNHJRcTLXrnSg36-P1WddI2hvKvIFOtjX6fT0y-vsxuDPeww-PBS8WsI_GkOtcWiaDyCeANxTOptuXoAeeRE0Vr6__1pRQGf0tFECrrCsG2e- -C36bhCaXdw2GxqFbtrJqdtTPhEBg8D-yYvctaHhzoFImMYoMnoVGvC5aZ9sVBsVh_egZITbFeWCSpPpBq4p987ajpvcEYedEcEbXU3ANzHX94Er6yZaE8-24g1WpqaJqavQG2Mgfoy7UxYBTWXl6EHZlgBRXsuitNqPqISYSEAESC78oGdZ7gAl5GEqLjPYJy1zFdi2FY9E_]--></g></svg>