<?xml version="1.0" encoding="UTF-8" standalone="no"?><svg xmlns="http://www.w3.org/2000/svg" xmlns:xlink="http://www.w3.org/1999/xlink" contentStyleType="text/css" height="917px" preserveAspectRatio="none" style="width:1313px;height:917px;background:#FFFFFF;" version="1.1" viewBox="0 0 1313 917" width="1313px" zoomAndPan="magnify"><defs/><g><!--class Property--><g id="elem_Property"><rect codeLine="9" fill="#F1F1F1" height="88.6641" id="Property" rx="2.5" ry="2.5" style="stroke:#181818;stroke-width:0.5;" width="192" x="660.0477" y="374.46"/><text fill="#000000" font-family="sans-serif" font-size="20" lengthAdjust="spacing" textLength="80" x="716.0477" y="398.7959">Property</text><line style="stroke:#181818;stroke-width:0.5;" x1="661.0477" x2="851.0477" y1="408.0147" y2="408.0147"/><text fill="#000000" font-family="sans-serif" font-size="20" lengthAdjust="spacing" textLength="41" x="666.0477" y="431.3506">area</text><text fill="#000000" font-family="sans-serif" font-size="20" lengthAdjust="spacing" textLength="180" x="666.0477" y="454.9053">distanceCityCentre</text></g><!--class Agent--><g id="elem_Agent"><rect codeLine="14" fill="#F1F1F1" height="33.5547" id="Agent" rx="2.5" ry="2.5" style="stroke:#181818;stroke-width:0.5;" width="62" x="1026.0477" y="228.46"/><text fill="#000000" font-family="sans-serif" font-size="20" lengthAdjust="spacing" textLength="56" x="1029.0477" y="252.7959">Agent</text></g><!--class Client--><g id="elem_Client"><rect codeLine="16" fill="#F1F1F1" height="33.5547" id="Client" rx="2.5" ry="2.5" style="stroke:#181818;stroke-width:0.5;" width="62" x="874.0477" y="678.96"/><text fill="#000000" font-family="sans-serif" font-size="20" lengthAdjust="spacing" textLength="56" x="877.0477" y="703.2959">Client</text></g><!--class Advertisement--><g id="elem_Advertisement"><rect codeLine="18" fill="#F1F1F1" height="65.1094" id="Advertisement" rx="2.5" ry="2.5" style="stroke:#181818;stroke-width:0.5;" width="216" x="128.0477" y="212.96"/><text fill="#000000" font-family="sans-serif" font-size="20" lengthAdjust="spacing" textLength="139" x="166.5477" y="237.2959">Advertisement</text><line style="stroke:#181818;stroke-width:0.5;" x1="129.0477" x2="343.0477" y1="246.5147" y2="246.5147"/><text fill="#000000" font-family="sans-serif" font-size="20" lengthAdjust="spacing" textLength="204" x="134.0477" y="269.8506">dateOfAdvertisement</text></g><!--class AdvertisementRequest--><g id="elem_AdvertisementRequest"><rect codeLine="22" fill="#F1F1F1" height="112.2188" id="AdvertisementRequest" rx="2.5" ry="2.5" style="stroke:#181818;stroke-width:0.5;" width="222" x="289.0477" y="362.96"/><text fill="#000000" font-family="sans-serif" font-size="20" lengthAdjust="spacing" textLength="216" x="292.0477" y="387.2959">AdvertisementRequest</text><line style="stroke:#181818;stroke-width:0.5;" x1="290.0477" x2="510.0477" y1="396.5147" y2="396.5147"/><text fill="#000000" font-family="sans-serif" font-size="20" lengthAdjust="spacing" textLength="48" x="295.0477" y="419.8506">price</text><text fill="#000000" font-family="sans-serif" font-size="20" lengthAdjust="spacing" textLength="142" x="295.0477" y="443.4053">dateOfRequest</text><text fill="#000000" font-family="sans-serif" font-size="20" lengthAdjust="spacing" textLength="57" x="295.0477" y="466.96">status</text></g><!--class PurchaseOrder--><g id="elem_PurchaseOrder"><rect codeLine="28" fill="#F1F1F1" height="112.2188" id="PurchaseOrder" rx="2.5" ry="2.5" style="stroke:#181818;stroke-width:0.5;" width="218" x="796.0477" y="797.96"/><text fill="#000000" font-family="sans-serif" font-size="20" lengthAdjust="spacing" textLength="141" x="834.5477" y="822.2959">PurchaseOrder</text><line style="stroke:#181818;stroke-width:0.5;" x1="797.0477" x2="1013.0477" y1="831.5147" y2="831.5147"/><text fill="#000000" font-family="sans-serif" font-size="20" lengthAdjust="spacing" textLength="206" x="802.0477" y="854.8506">dateOfPurchaseOrder</text><text fill="#000000" font-family="sans-serif" font-size="20" lengthAdjust="spacing" textLength="50" x="802.0477" y="878.4053">value</text><text fill="#000000" font-family="sans-serif" font-size="20" lengthAdjust="spacing" textLength="57" x="802.0477" y="901.96">status</text></g><!--class Notification--><g id="elem_Notification"><rect codeLine="34" fill="#F1F1F1" height="33.5547" id="Notification" rx="2.5" ry="2.5" style="stroke:#181818;stroke-width:0.5;" width="117" x="958.5477" y="559.96"/><text fill="#000000" font-family="sans-serif" font-size="20" lengthAdjust="spacing" textLength="111" x="961.5477" y="584.2959">Notification</text></g><!--class Email--><g id="elem_Email"><rect codeLine="37" fill="#F1F1F1" height="65.1094" id="Email" rx="2.5" ry="2.5" style="stroke:#181818;stroke-width:0.5;" width="96" x="976.0477" y="386.46"/><text fill="#000000" font-family="sans-serif" font-size="20" lengthAdjust="spacing" textLength="53" x="997.5477" y="410.7959">Email</text><line style="stroke:#181818;stroke-width:0.5;" x1="977.0477" x2="1071.0477" y1="420.0147" y2="420.0147"/><text fill="#000000" font-family="sans-serif" font-size="20" lengthAdjust="spacing" textLength="84" x="982.0477" y="443.3506">message</text></g><!--class Person--><g id="elem_Person"><rect codeLine="41" fill="#F1F1F1" height="112.2188" id="Person" rx="2.5" ry="2.5" style="stroke:#181818;stroke-width:0.5;" width="185" x="812.5477" y="39.96"/><text fill="#000000" font-family="sans-serif" font-size="20" lengthAdjust="spacing" textLength="64" x="873.0477" y="64.2959">Person</text><line style="stroke:#181818;stroke-width:0.5;" x1="813.5477" x2="996.5477" y1="73.5147" y2="73.5147"/><text fill="#000000" font-family="sans-serif" font-size="20" lengthAdjust="spacing" textLength="53" x="818.5477" y="96.8506">name</text><text fill="#000000" font-family="sans-serif" font-size="20" lengthAdjust="spacing" textLength="132" x="818.5477" y="120.4053">emailAddress</text><text fill="#000000" font-family="sans-serif" font-size="20" lengthAdjust="spacing" textLength="173" x="818.5477" y="143.96">telephoneNumber</text></g><!--class Employee--><g id="elem_Employee"><rect fill="#F1F1F1" height="33.5547" id="Employee" rx="2.5" ry="2.5" style="stroke:#181818;stroke-width:0.5;" width="99" x="1207.5477" y="78.96"/><text fill="#000000" font-family="sans-serif" font-size="20" lengthAdjust="spacing" textLength="93" x="1210.5477" y="103.2959">Employee</text></g><!--class Role--><g id="elem_Role"><rect fill="#F1F1F1" height="33.5547" id="Role" rx="2.5" ry="2.5" style="stroke:#181818;stroke-width:0.5;" width="48" x="1033.0477" y="78.96"/><text fill="#000000" font-family="sans-serif" font-size="20" lengthAdjust="spacing" textLength="42" x="1036.0477" y="103.2959">Role</text></g><!--link Email to Notification--><g id="link_Email_Notification"><path codeLine="47" d="M1022.6277,451.53 C1021.1577,484.29 1018.9177,534.24 1017.7777,559.74 " fill="none" id="Email-Notification" style="stroke:#181818;stroke-width:1.0;"/><polygon fill="#000000" points="1028.4059,509.7454,1023.0604,523.9924,1032.4555,524.4135,1028.4059,509.7454" style="stroke:#000000;stroke-width:1.0;"/><text fill="#000000" font-family="sans-serif" font-size="20" lengthAdjust="spacing" textLength="69" x="1041.0477" y="525.2959">derives</text><text fill="#000000" font-family="sans-serif" font-size="20" lengthAdjust="spacing" textLength="13" x="1008.1675" y="479.0324">1</text><text fill="#000000" font-family="sans-serif" font-size="20" lengthAdjust="spacing" textLength="13" x="1003.0828" y="547.7863">1</text></g><!--link Agent to Email--><g id="link_Agent_Email"><path codeLine="48" d="M1052.7577,262.57 C1049.5577,274.93 1045.2077,292.45 1042.0477,307.96 C1036.7277,334.13 1031.9077,364.05 1028.5977,386.07 " fill="none" id="Agent-Email" style="stroke:#181818;stroke-width:1.0;"/><polygon fill="#000000" points="1048.5118,328.5885,1055.9051,315.2884,1046.6755,313.4828,1048.5118,328.5885" style="stroke:#000000;stroke-width:1.0;"/><text fill="#000000" font-family="sans-serif" font-size="20" lengthAdjust="spacing" textLength="56" x="1063.0477" y="328.2959">sends</text><text fill="#000000" font-family="sans-serif" font-size="20" lengthAdjust="spacing" textLength="13" x="1036.9928" y="289.3654">1</text><text fill="#000000" font-family="sans-serif" font-size="20" lengthAdjust="spacing" textLength="10" x="1018.5148" y="374.2626">*</text></g><!--link Notification to Client--><g id="link_Notification_Client"><path codeLine="49" d="M1001.4777,594.23 C980.0777,616.58 941.8177,656.55 920.4877,678.83 " fill="none" id="Notification-Client" style="stroke:#181818;stroke-width:1.0;"/><polygon fill="#000000" points="984.5799,630.9585,971.1754,638.1607,977.9688,644.6643,984.5799,630.9585" style="stroke:#000000;stroke-width:1.0;"/><text fill="#000000" font-family="sans-serif" font-size="20" lengthAdjust="spacing" textLength="77" x="992.0477" y="644.2959">receives</text><text fill="#000000" font-family="sans-serif" font-size="20" lengthAdjust="spacing" textLength="10" x="986.4638" y="620.7005">*</text><text fill="#000000" font-family="sans-serif" font-size="20" lengthAdjust="spacing" textLength="13" x="910.1139" y="666.9028">1</text></g><!--link Client to Advertisement--><g id="link_Client_Advertisement"><path codeLine="51" d="M873.8877,694.61 C769.9177,691.61 432.4777,666.87 272.0477,474.96 C225.0377,418.73 226.7577,326.54 231.6177,278.25 " fill="none" id="Client-Advertisement" style="stroke:#181818;stroke-width:1.0;"/><polygon fill="#000000" points="326.3349,513.3856,335.9207,525.2037,341.0364,517.3122,326.3349,513.3856" style="stroke:#000000;stroke-width:1.0;"/><text fill="#000000" font-family="sans-serif" font-size="20" lengthAdjust="spacing" textLength="79" x="346.0477" y="525.2959">consults</text><text fill="#000000" font-family="sans-serif" font-size="20" lengthAdjust="spacing" textLength="10" x="855.9777" y="688.2444">*</text><text fill="#000000" font-family="sans-serif" font-size="20" lengthAdjust="spacing" textLength="10" x="219.938" y="305.5148">*</text></g><!--link Client to PurchaseOrder--><g id="link_Client_PurchaseOrder"><path codeLine="52" d="M905.0477,713.07 C905.0477,732.92 905.0477,767.7 905.0477,797.61 " fill="none" id="Client-PurchaseOrder" style="stroke:#181818;stroke-width:1.0;"/><polygon fill="#000000" points="913.0477,763.7373,917.75,749.2652,908.3454,749.2652,913.0477,763.7373" style="stroke:#000000;stroke-width:1.0;"/><text fill="#000000" font-family="sans-serif" font-size="20" lengthAdjust="spacing" textLength="82" x="926.0477" y="763.2959">requests</text><text fill="#000000" font-family="sans-serif" font-size="20" lengthAdjust="spacing" textLength="13" x="890.3821" y="739.8654">1</text><text fill="#000000" font-family="sans-serif" font-size="20" lengthAdjust="spacing" textLength="10" x="894.4384" y="785.6972">*</text></g><!--link PurchaseOrder to Advertisement--><g id="link_PurchaseOrder_Advertisement"><path codeLine="54" d="M795.7977,845.1 C557.8677,826.53 14.0477,775.48 14.0477,696.96 C14.0477,417.96 14.0477,417.96 14.0477,417.96 C14.0477,349.65 80.6777,304.72 140.9377,278.04 " fill="none" id="PurchaseOrder-Advertisement" style="stroke:#181818;stroke-width:1.0;"/><polygon fill="#000000" points="16,572.0005,23.8623,585.0288,30.0186,577.9193,16,572.0005" style="stroke:#000000;stroke-width:1.0;"/><text fill="#000000" font-family="sans-serif" font-size="20" lengthAdjust="spacing" textLength="147" x="35.0477" y="584.7959">associated with</text><text fill="#000000" font-family="sans-serif" font-size="20" lengthAdjust="spacing" textLength="10" x="778.1216" y="840.0793">*</text><text fill="#000000" font-family="sans-serif" font-size="20" lengthAdjust="spacing" textLength="13" x="109.8384" y="305.2673">1</text></g><!--link PurchaseOrder to Agent--><g id="link_PurchaseOrder_Agent"><path codeLine="55" d="M1014.2677,826.94 C1078.0277,804.53 1146.0477,764.74 1146.0477,696.96 C1146.0477,417.96 1146.0477,417.96 1146.0477,417.96 C1146.0477,368.1 1148.5077,351.4 1124.0477,307.96 C1113.6677,289.52 1095.7977,273.54 1081.1177,262.49 " fill="none" id="PurchaseOrder-Agent" style="stroke:#181818;stroke-width:1.0;"/><polygon fill="#000000" points="1153.1068,585.1818,1159.4786,571.3632,1150.1393,570.2571,1153.1068,585.1818" style="stroke:#000000;stroke-width:1.0;"/><text fill="#000000" font-family="sans-serif" font-size="20" lengthAdjust="spacing" textLength="85" x="1167.0477" y="584.7959">validates</text><text fill="#000000" font-family="sans-serif" font-size="20" lengthAdjust="spacing" textLength="10" x="1021.9419" y="820.6992">*</text><text fill="#000000" font-family="sans-serif" font-size="20" lengthAdjust="spacing" textLength="13" x="1072.62" y="289.2649">1</text></g><!--link Advertisement to AdvertisementRequest--><g id="link_Advertisement_AdvertisementRequest"><path codeLine="57" d="M266.5077,278.32 C289.1077,301.95 320.4977,334.77 347.1677,362.66 " fill="none" id="Advertisement-AdvertisementRequest" style="stroke:#181818;stroke-width:1.0;"/><polygon fill="#000000" points="331.577,326.5189,324.9727,312.8099,318.1761,319.31,331.577,326.5189" style="stroke:#000000;stroke-width:1.0;"/><text fill="#000000" font-family="sans-serif" font-size="20" lengthAdjust="spacing" textLength="121" x="339.0477" y="328.2959">derives from</text><text fill="#000000" font-family="sans-serif" font-size="20" lengthAdjust="spacing" textLength="13" x="257.6259" y="305.3186">1</text><text fill="#000000" font-family="sans-serif" font-size="20" lengthAdjust="spacing" textLength="13" x="326.9308" y="350.7533">1</text></g><!--link Advertisement to Agent--><g id="link_Advertisement_Agent"><path codeLine="58" d="M344.2277,245.46 C533.4177,245.46 914.8577,245.46 1025.9977,245.46 " fill="none" id="Advertisement-Agent" style="stroke:#181818;stroke-width:1.0;"/><polygon fill="#000000" points="601.5477,230.2373,616.0199,234.9396,616.0199,225.5351,601.5477,230.2373" style="stroke:#000000;stroke-width:1.0;"/><text fill="#000000" font-family="sans-serif" font-size="20" lengthAdjust="spacing" textLength="145" x="622.5477" y="237.7959">responsible for</text><text fill="#000000" font-family="sans-serif" font-size="20" lengthAdjust="spacing" textLength="10" x="352.1857" y="241.003">*</text><text fill="#000000" font-family="sans-serif" font-size="20" lengthAdjust="spacing" textLength="13" x="1005.253" y="239.5272">1</text></g><!--link AdvertisementRequest to Property--><g id="link_AdvertisementRequest_Property"><path codeLine="59" d="M511.2277,418.96 C558.8577,418.96 613.9677,418.96 659.8277,418.96 " fill="none" id="AdvertisementRequest-Property" style="stroke:#181818;stroke-width:1.0;"/><polygon fill="#000000" points="544.5477,403.7373,530.0756,399.0351,530.0756,408.4396,544.5477,403.7373" style="stroke:#000000;stroke-width:1.0;"/><text fill="#000000" font-family="sans-serif" font-size="20" lengthAdjust="spacing" textLength="92" x="549.5477" y="411.2959">describes</text><text fill="#000000" font-family="sans-serif" font-size="20" lengthAdjust="spacing" textLength="13" x="519.1344" y="414.5346">1</text><text fill="#000000" font-family="sans-serif" font-size="20" lengthAdjust="spacing" textLength="13" x="638.9632" y="414.4496">1</text></g><!--reverse link Person to Employee--><g id="link_Person_Employee"><path codeLine="61" d="M1011.6177,32.02 C1018.8877,29.25 1026.2277,26.85 1033.5477,24.96 C1107.0677,6 1192.0877,52.35 1232.8277,78.91 " fill="none" id="Person-backto-Employee" style="stroke:#181818;stroke-width:1.0;"/><polygon fill="none" points="1014.3377,38.47,993.1977,39.86,1008.8577,25.59,1014.3377,38.47" style="stroke:#181818;stroke-width:1.0;"/></g><!--reverse link Person to Client--><g id="link_Person_Client"><path codeLine="62" d="M905.0477,172.32 C905.0477,195.46 905.0477,221.01 905.0477,244.46 C905.0477,244.46 905.0477,244.46 905.0477,577.96 C905.0477,613.91 905.0477,656.08 905.0477,678.68 " fill="none" id="Person-backto-Client" style="stroke:#181818;stroke-width:1.0;"/><polygon fill="none" points="898.0477,172.29,905.0477,152.29,912.0477,172.29,898.0477,172.29" style="stroke:#181818;stroke-width:1.0;"/></g><!--link Role to Employee--><g id="link_Role_Employee"><path codeLine="63" d="M1081.1677,95.96 C1112.2377,95.96 1166.9977,95.96 1207.1877,95.96 " fill="none" id="Role-Employee" style="stroke:#181818;stroke-width:1.0;"/><polygon fill="#000000" points="1114.2977,80.7373,1099.8256,76.0351,1099.8256,85.4396,1114.2977,80.7373" style="stroke:#000000;stroke-width:1.0;"/><text fill="#000000" font-family="sans-serif" font-size="20" lengthAdjust="spacing" textLength="70" x="1119.2977" y="88.2959">defines</text><text fill="#000000" font-family="sans-serif" font-size="20" lengthAdjust="spacing" textLength="13" x="1089.0141" y="89.4772">1</text><text fill="#000000" font-family="sans-serif" font-size="20" lengthAdjust="spacing" textLength="10" x="1189.473" y="90.7491">*</text></g><!--reverse link Role to Agent--><g id="link_Role_Agent"><path codeLine="64" d="M1057.0477,133.11 C1057.0477,163.57 1057.0477,205.7 1057.0477,228.41 " fill="none" id="Role-backto-Agent" style="stroke:#181818;stroke-width:1.0;"/><polygon fill="none" points="1050.0477,133.03,1057.0477,113.03,1064.0477,133.03,1050.0477,133.03" style="stroke:#181818;stroke-width:1.0;"/></g><!--SRC=[RLFBRjim4BplLn0-1Z2GzcW41GoZ1N99WkGBQ79bBSo7Ib8E7AV_tYKfsMARa-NXpCvoTXcFv0OPf3LU7L4BZPqSJVhbNNgZ3nJVxo7E566zyweFtg98OSJ5oI3LKHxmBPqDYe0gINSmIqBifVRlv0wYaoOkJvIHCMvJ2hGV4pugxuhnFVIaKIWAYWkLRxH3EWkBTeyX0a1HYfVW1mnyS04PK8AcoEuATvJEEtGf8FoPkTi30-9o_Rypr09RVU9Q5D4M7BHC-DmrA7nDViNV8yQi6G8fd9GJ2jnI6kDD-Z86rSk8pq5Zc6qQ44xIv8Z_4JxvH1qfcSYxomt-QIMP2rYCaSUmyE6aCj59Yu2PjDKwC0iI6Xnwx_1fp7bcIIaYLjzMOhqkFqipiU7T27J2A1wWvZWpxrRLdoaHdOxY1pJAJ9WgJe5lyexWL0mgEBFkLask6y4R4NabSzc9UVLj4ij5IzgP2SrHRI5tq0vu8pWahuZZr-ATKi_AHdZLrTNP29uAvMcLnhzSWDhTM4NjJUO0Etv2ESNbwQt3QiH36lZYjES7rVd0z7dHYy7utsKc_-mI5J-csc9T0F7mkUOP3SQV4PVOD11uzGPhuoMhcPgBTUGm9vefMREkKS1V]--></g></svg>