<?xml version="1.0" encoding="us-ascii" standalone="no"?><svg xmlns="http://www.w3.org/2000/svg" xmlns:xlink="http://www.w3.org/1999/xlink" contentStyleType="text/css" height="326px" preserveAspectRatio="none" style="width:457px;height:326px;background:#FFFFFF;" version="1.1" viewBox="0 0 457 326" width="457px" zoomAndPan="magnify"><defs/><g><!--class Client--><g id="elem_Client"><rect codeLine="9" fill="#F1F1F1" height="25.6406" id="Client" rx="2.5" ry="2.5" style="stroke:#181818;stroke-width:0.5;" width="42" x="227.5" y="12.2549"/><text fill="#000000" font-family="sans-serif" font-size="14" lengthAdjust="spacing" textLength="36" x="230.5" y="29.9287">Client</text></g><!--class Agent--><g id="elem_Agent"><rect codeLine="11" fill="#F1F1F1" height="25.6406" id="Agent" rx="2.5" ry="2.5" style="stroke:#181818;stroke-width:0.5;" width="43" x="7" y="12.2549"/><text fill="#000000" font-family="sans-serif" font-size="14" lengthAdjust="spacing" textLength="37" x="10" y="29.9287">Agent</text></g><!--class Order--><g id="elem_Order"><rect codeLine="13" fill="#F1F1F1" height="49.2813" id="Order" rx="2.5" ry="2.5" style="stroke:#181818;stroke-width:0.5;" width="43" x="149" y="129.2549"/><text fill="#000000" font-family="sans-serif" font-size="14" lengthAdjust="spacing" textLength="37" x="152" y="146.9287">Order</text><line style="stroke:#181818;stroke-width:0.5;" x1="150" x2="191" y1="154.8955" y2="154.8955"/><text fill="#000000" font-family="sans-serif" font-size="14" lengthAdjust="spacing" textLength="31" x="155" y="171.5693">price</text></g><!--class Advertisement--><g id="elem_Advertisement"><rect codeLine="16" fill="#F1F1F1" height="25.6406" id="Advertisement" rx="2.5" ry="2.5" style="stroke:#181818;stroke-width:0.5;" width="96" x="119.5" y="273.7549"/><text fill="#000000" font-family="sans-serif" font-size="14" lengthAdjust="spacing" textLength="90" x="122.5" y="291.4287">Advertisement</text></g><!--class Property--><g id="elem_Property"><rect codeLine="18" fill="#F1F1F1" height="64.9219" id="Property" rx="2.5" ry="2.5" style="stroke:#181818;stroke-width:0.5;" width="132" x="318.5" y="254.2549"/><text fill="#000000" font-family="sans-serif" font-size="14" lengthAdjust="spacing" textLength="54" x="357.5" y="271.9287">Property</text><line style="stroke:#181818;stroke-width:0.5;" x1="319.5" x2="449.5" y1="279.8955" y2="279.8955"/><text fill="#000000" font-family="sans-serif" font-size="14" lengthAdjust="spacing" textLength="29" x="324.5" y="296.5693">area</text><text fill="#000000" font-family="sans-serif" font-size="14" lengthAdjust="spacing" textLength="120" x="324.5" y="312.21">distanceCityCentre</text></g><!--link Client to Order--><g id="link_Client_Order"><path codeLine="22" d="M227.25,32.3049 C210.12,38.3849 187.04,49.6049 175.5,68.2549 C164.29,86.3749 164.18,111.0749 166.18,129.0949 " fill="none" id="Client-Order" style="stroke:#181818;stroke-width:1.0;"/><text fill="#000000" font-family="sans-serif" font-size="13" lengthAdjust="spacing" textLength="4" x="204" y="81.0234">&#160;</text><polygon fill="#000000" points="178.8319,95.2687,186.144,89.1873,181.173,86.0507,178.8319,95.2687" style="stroke:#000000;stroke-width:1.0;"/><text fill="#000000" font-family="sans-serif" font-size="13" lengthAdjust="spacing" textLength="46" x="189.5" y="95.5469">submits</text><text fill="#000000" font-family="sans-serif" font-size="13" lengthAdjust="spacing" textLength="7" x="212.3609" y="48.6926">1</text><text fill="#000000" font-family="sans-serif" font-size="13" lengthAdjust="spacing" textLength="5" x="159.3471" y="118.3874">*</text></g><!--link Client to Advertisement--><g id="link_Client_Advertisement"><path codeLine="23" d="M251.27,38.6849 C257.86,71.1849 271.68,160.6149 240.5,224.2549 C229.78,246.1349 207.3,263.1649 190.1,273.6949 " fill="none" id="Client-Advertisement" style="stroke:#181818;stroke-width:1.0;"/><polygon fill="#000000" points="263.2405,158.8554,268.3631,150.8422,262.6748,149.3617,263.2405,158.8554" style="stroke:#000000;stroke-width:1.0;"/><text fill="#000000" font-family="sans-serif" font-size="13" lengthAdjust="spacing" textLength="49" x="273.5" y="158.5234">consults</text><text fill="#000000" font-family="sans-serif" font-size="13" lengthAdjust="spacing" textLength="5" x="246.3628" y="57.628">*</text><text fill="#000000" font-family="sans-serif" font-size="13" lengthAdjust="spacing" textLength="5" x="193.8937" y="262.8803">*</text></g><!--link Agent to Advertisement--><g id="link_Agent_Advertisement"><path codeLine="25" d="M25.52,38.5149 C19.65,65.4649 9.07,131.2349 32.5,178.2549 C55.55,224.5149 108.83,257.2349 141.14,273.6649 " fill="none" id="Agent-Advertisement" style="stroke:#181818;stroke-width:1.0;"/><polygon fill="#000000" points="39.7062,158.5036,38.3525,149.0898,33.0778,151.6833,39.7062,158.5036" style="stroke:#000000;stroke-width:1.0;"/><text fill="#000000" font-family="sans-serif" font-size="13" lengthAdjust="spacing" textLength="84" x="46.5" y="158.5234">responsible for</text><text fill="#000000" font-family="sans-serif" font-size="13" lengthAdjust="spacing" textLength="7" x="16.2115" y="57.6583">1</text><text fill="#000000" font-family="sans-serif" font-size="13" lengthAdjust="spacing" textLength="5" x="123.5137" y="262.8372">*</text></g><!--link Agent to Order--><g id="link_Agent_Order"><path codeLine="26" d="M39.28,38.4449 C52.76,53.4049 76.82,79.2649 99.5,99.2549 C115.25,113.1349 134.3,127.3649 148.7,137.6549 " fill="none" id="Agent-Order" style="stroke:#181818;stroke-width:1.0;"/><text fill="#000000" font-family="sans-serif" font-size="13" lengthAdjust="spacing" textLength="51" x="103" y="81.0234">approves</text><polygon fill="#000000" points="109.2041,94.3985,104.4774,86.1457,100.5292,90.5002,109.2041,94.3985" style="stroke:#000000;stroke-width:1.0;"/><text fill="#000000" font-family="sans-serif" font-size="13" lengthAdjust="spacing" textLength="43" x="113.5" y="95.5469">\rejects</text><text fill="#000000" font-family="sans-serif" font-size="13" lengthAdjust="spacing" textLength="7" x="34.8735" y="57.5634">1</text><text fill="#000000" font-family="sans-serif" font-size="13" lengthAdjust="spacing" textLength="5" x="135.9544" y="128.0989">*</text></g><!--link Agent to Client--><g id="link_Agent_Client"><path codeLine="27" d="M50.4,25.2549 C92.79,25.2549 185.54,25.2549 227.34,25.2549 " fill="none" id="Agent-Client" style="stroke:#181818;stroke-width:1.0;"/><polygon fill="#000000" points="77.25,14.5166,68.2049,11.5777,68.2049,17.4555,77.25,14.5166" style="stroke:#000000;stroke-width:1.0;"/><text fill="#FFFFFF" font-family="sans-serif" font-size="13" lengthAdjust="spacing" textLength="28" x="81.25" y="19.0234">aaaa</text><text fill="#000000" font-family="sans-serif" font-size="13" lengthAdjust="spacing" textLength="43" x="113.25" y="19.0234">Notifies</text><text fill="#000000" font-family="sans-serif" font-size="13" lengthAdjust="spacing" textLength="7" x="57.8613" y="21.0969">1</text><text fill="#000000" font-family="sans-serif" font-size="13" lengthAdjust="spacing" textLength="5" x="214.5026" y="20.8509">*</text></g><!--link Order to Advertisement--><g id="link_Order_Advertisement"><path codeLine="29" d="M167.27,178.4149 C166.16,187.6949 165.05,198.4549 164.5,208.2549 C163.21,231.3749 165.01,258.4149 166.33,273.6649 " fill="none" id="Order-Advertisement" style="stroke:#181818;stroke-width:1.0;"/><polygon fill="#000000" points="169.4507,221.5164,172.4787,212.5007,166.6011,212.4427,169.4507,221.5164" style="stroke:#000000;stroke-width:1.0;"/><text fill="#000000" font-family="sans-serif" font-size="13" lengthAdjust="spacing" textLength="57" x="178.5" y="221.0234">present in</text><text fill="#000000" font-family="sans-serif" font-size="13" lengthAdjust="spacing" textLength="7" x="158.5454" y="198.3273">1</text><text fill="#000000" font-family="sans-serif" font-size="13" lengthAdjust="spacing" textLength="5" x="159.7244" y="262.8372">*</text></g><!--link Advertisement to Property--><g id="link_Advertisement_Property"><path codeLine="30" d="M215.66,286.7549 C245.88,286.7549 285.25,286.7549 318.37,286.7549 " fill="none" id="Advertisement-Property" style="stroke:#181818;stroke-width:1.0;"/><polygon fill="#000000" points="243,276.0166,233.9549,273.0777,233.9549,278.9555,243,276.0166" style="stroke:#000000;stroke-width:1.0;"/><text fill="#000000" font-family="sans-serif" font-size="13" lengthAdjust="spacing" textLength="53" x="247" y="280.5234">based on</text><text fill="#000000" font-family="sans-serif" font-size="13" lengthAdjust="spacing" textLength="7" x="223.5704" y="283.5192">1</text><text fill="#000000" font-family="sans-serif" font-size="13" lengthAdjust="spacing" textLength="5" x="305.4347" y="283.7488">*</text></g><!--SRC=[RP5DJyCm38Rl_HNMZfCcmRL2awQTk03IhhsagTSQyYNRtLGG_vsqssY7o2csdzUluyW7XMJOUF0nHDjnz0ZAFHRoMqd6VfWM3peu14Qh9hHk2KXdcdYcqCBHE5bMh3CYErMckbTyjZ4Sw1FXeIWwQX0iiSsTfZlwf0Duz3Mo5CMaXBqZ3FfLV5_ZNPj3cEDNRf1pd9WipbHpGbOIz7VYDuufvuVC6qPJD2JvAHRtfCC-apnsk3Yk7bUmsS1glPeSoYg0zBKd5TZUaFM8JCoTNmdvbTAx2IscWI_T_aCP9MMQwhpPO-IiM0XcUp0fSJoXLA7AX_4z_uBSqIDy6Qo49njTvFBSaUBMv5FfDLMx_9VRbwXq91IejD9noibbDlqpPCfJZckdC3ekQvE4gUrqbDtsMq9j11k88_y3]--></g></svg>