<?xml version="1.0" encoding="UTF-8" standalone="no"?><svg xmlns="http://www.w3.org/2000/svg" xmlns:xlink="http://www.w3.org/1999/xlink" contentStyleType="text/css" height="1749px" preserveAspectRatio="none" style="width:1027px;height:1749px;background:#FFFFFF;" version="1.1" viewBox="0 0 1027 1749" width="1027px" zoomAndPan="magnify"><defs/><g><g id="cluster_##8"><rect fill="none" height="1736" rx="2.5" ry="2.5" style="stroke:#181818;stroke-width:1.0;" width="551" x="257" y="7"/></g><g id="elem_UC1"><ellipse cx="532.5543" cy="59.9109" fill="#F1F1F1" rx="172.5543" ry="36.9109" style="stroke:#181818;stroke-width:0.5;"/><text fill="#000000" font-family="sans-serif" font-size="20" lengthAdjust="spacing" textLength="306" x="379.5543" y="65.4694">UC1 - Consult List of Properties</text></g><g id="elem_UC2"><ellipse cx="532.5296" cy="561.8059" fill="#F1F1F1" rx="199.5296" ry="42.3059" style="stroke:#181818;stroke-width:0.5;"/><text fill="#000000" font-family="sans-serif" font-size="20" lengthAdjust="spacing" textLength="363" x="351.0296" y="567.3645">UC2 - Create Property Announcement</text></g><g id="elem_UC3"><ellipse cx="532.6484" cy="1160.1297" fill="#F1F1F1" rx="171.1484" ry="36.6297" style="stroke:#181818;stroke-width:0.5;"/><text fill="#000000" font-family="sans-serif" font-size="20" lengthAdjust="spacing" textLength="303" x="381.1484" y="1165.6883">UC3 - Register a new Employee</text></g><g id="elem_UC4"><ellipse cx="532.3684" cy="430.1737" fill="#F1F1F1" rx="258.8684" ry="54.1737" style="stroke:#181818;stroke-width:0.5;"/><text fill="#000000" font-family="sans-serif" font-size="20" lengthAdjust="spacing" textLength="486" x="289.3684" y="435.7323">UC4 - Request Announcement Choosing the Agent</text></g><g id="elem_UC5"><ellipse cx="532.3223" cy="799.0645" fill="#F1F1F1" rx="143.3223" ry="31.0645" style="stroke:#181818;stroke-width:0.5;"/><text fill="#000000" font-family="sans-serif" font-size="20" lengthAdjust="spacing" textLength="242" x="408.3223" y="805.9824">UC5 - Register new Store</text></g><g id="elem_UC6"><ellipse cx="532.4686" cy="909.7937" fill="#F1F1F1" rx="211.9686" ry="44.7937" style="stroke:#181818;stroke-width:0.5;"/><text fill="#000000" font-family="sans-serif" font-size="20" lengthAdjust="spacing" textLength="389" x="337.9686" y="915.3523">UC6 - Specify States, Districts and Cities</text></g><g id="elem_UC7"><ellipse cx="532.5979" cy="164.2196" fill="#F1F1F1" rx="149.0979" ry="32.2196" style="stroke:#181818;stroke-width:0.5;"/><text fill="#000000" font-family="sans-serif" font-size="20" lengthAdjust="spacing" textLength="255" x="402.1133" y="171.1314">UC7 - Registers as a client</text></g><g id="elem_UC8"><ellipse cx="532.355" cy="285.771" fill="#F1F1F1" rx="259.355" ry="54.271" style="stroke:#181818;stroke-width:0.5;"/><text fill="#000000" font-family="sans-serif" font-size="20" lengthAdjust="spacing" textLength="487" x="288.855" y="291.3296">UC8 - Validate and post an announcement request</text></g><g id="elem_UC9"><ellipse cx="532.3095" cy="1277.0619" fill="#F1F1F1" rx="215.8095" ry="45.5619" style="stroke:#181818;stroke-width:0.5;"/><text fill="#000000" font-family="sans-serif" font-size="20" lengthAdjust="spacing" textLength="397" x="333.8095" y="1282.6205">UC9 - Send a message to schedule a visit</text></g><g id="elem_UC10"><ellipse cx="532.5946" cy="1406.9189" fill="#F1F1F1" rx="235.0946" ry="49.4189" style="stroke:#181818;stroke-width:0.5;"/><text fill="#000000" font-family="sans-serif" font-size="20" lengthAdjust="spacing" textLength="437" x="314.0946" y="1412.4775">UC10 - Place an order to purchase a property</text></g><g id="elem_UC11"><ellipse cx="532.6562" cy="685.8312" fill="#F1F1F1" rx="219.6562" ry="46.3312" style="stroke:#181818;stroke-width:0.5;"/><text fill="#000000" font-family="sans-serif" font-size="20" lengthAdjust="spacing" textLength="405" x="330.1562" y="691.3898">UC11 - Accept or decline purchase orders</text></g><g id="elem_UC12"><ellipse cx="532.644" cy="1039.1288" fill="#F1F1F1" rx="233.644" ry="49.1288" style="stroke:#181818;stroke-width:0.5;"/><text fill="#000000" font-family="sans-serif" font-size="20" lengthAdjust="spacing" textLength="434" x="315.644" y="1044.6874">UC12 - Import CSV files from legacy systems</text></g><g id="elem_UC13"><ellipse cx="532.5783" cy="1541.0157" fill="#F1F1F1" rx="235.5783" ry="49.5157" style="stroke:#181818;stroke-width:0.5;"/><text fill="#000000" font-family="sans-serif" font-size="20" lengthAdjust="spacing" textLength="438" x="313.5783" y="1546.5742">UC13 - List employees working in every store</text></g><g id="elem_UC14"><ellipse cx="532.4031" cy="1676.0806" fill="#F1F1F1" rx="240.9031" ry="50.5806" style="stroke:#181818;stroke-width:0.5;"/><text fill="#000000" font-family="sans-serif" font-size="20" lengthAdjust="spacing" textLength="449" x="307.9031" y="1681.6392">UC14 - View the response to the visit schedule</text></g><!--entity Unregistered User--><g id="elem_Unregistered User"><ellipse cx="109.5" cy="78.5" fill="#F1F1F1" rx="8" ry="8" style="stroke:#181818;stroke-width:0.5;"/><path d="M109.5,86.5 L109.5,113.5 M96.5,94.5 L122.5,94.5 M109.5,113.5 L96.5,128.5 M109.5,113.5 L122.5,128.5 " fill="none" style="stroke:#181818;stroke-width:0.5;"/><text fill="#000000" font-family="sans-serif" font-size="20" lengthAdjust="spacing" textLength="172" x="23.5" y="149.3359">Unregistered User</text></g><!--entity Agent--><g id="elem_Agent"><ellipse cx="109.5" cy="528.5" fill="#F1F1F1" rx="8" ry="8" style="stroke:#181818;stroke-width:0.5;"/><path d="M109.5,536.5 L109.5,563.5 M96.5,544.5 L122.5,544.5 M109.5,563.5 L96.5,578.5 M109.5,563.5 L122.5,578.5 " fill="none" style="stroke:#181818;stroke-width:0.5;"/><text fill="#000000" font-family="sans-serif" font-size="20" lengthAdjust="spacing" textLength="56" x="81.5" y="599.3359">Agent</text></g><!--entity System Administrator--><g id="elem_System Administrator"><ellipse cx="109.5" cy="941.5" fill="#F1F1F1" rx="8" ry="8" style="stroke:#181818;stroke-width:0.5;"/><path d="M109.5,949.5 L109.5,976.5 M96.5,957.5 L122.5,957.5 M109.5,976.5 L96.5,991.5 M109.5,976.5 L122.5,991.5 " fill="none" style="stroke:#181818;stroke-width:0.5;"/><text fill="#000000" font-family="sans-serif" font-size="20" lengthAdjust="spacing" textLength="207" x="6" y="1012.3359">System Administrator</text></g><!--entity Owner--><g id="elem_Owner"><ellipse cx="936" cy="396.5" fill="#F1F1F1" rx="8" ry="8" style="stroke:#181818;stroke-width:0.5;"/><path d="M936,404.5 L936,431.5 M923,412.5 L949,412.5 M936,431.5 L923,446.5 M936,431.5 L949,446.5 " fill="none" style="stroke:#181818;stroke-width:0.5;"/><text fill="#000000" font-family="sans-serif" font-size="20" lengthAdjust="spacing" textLength="62" x="905" y="467.3359">Owner</text></g><!--entity Client--><g id="elem_Client"><ellipse cx="109.5" cy="1373.5" fill="#F1F1F1" rx="8" ry="8" style="stroke:#181818;stroke-width:0.5;"/><path d="M109.5,1381.5 L109.5,1408.5 M96.5,1389.5 L122.5,1389.5 M109.5,1408.5 L96.5,1423.5 M109.5,1408.5 L122.5,1423.5 " fill="none" style="stroke:#181818;stroke-width:0.5;"/><text fill="#000000" font-family="sans-serif" font-size="20" lengthAdjust="spacing" textLength="56" x="81.5" y="1444.3359">Client</text></g><!--entity Network Manager--><g id="elem_Network Manager"><ellipse cx="936" cy="1507.5" fill="#F1F1F1" rx="8" ry="8" style="stroke:#181818;stroke-width:0.5;"/><path d="M936,1515.5 L936,1542.5 M923,1523.5 L949,1523.5 M936,1542.5 L923,1557.5 M936,1542.5 L949,1557.5 " fill="none" style="stroke:#181818;stroke-width:0.5;"/><text fill="#000000" font-family="sans-serif" font-size="20" lengthAdjust="spacing" textLength="168" x="852" y="1578.3359">Network Manager</text></g><!--link Unregistered User to UC1--><g id="link_Unregistered User_UC1"><path d="M195.7,101.48 C247.81,95.04 316.04,86.61 377.37,79.04 " fill="none" id="Unregistered User-to-UC1" style="stroke:#181818;stroke-width:1.0;"/><polygon fill="#181818" points="382.52,78.4,373.0964,75.5372,377.558,79.0149,374.0802,83.4764,382.52,78.4" style="stroke:#181818;stroke-width:1.0;"/></g><!--link Unregistered User to UC7--><g id="link_Unregistered User_UC7"><path d="M195.7,122.52 C253.65,129.68 331.53,139.3 397.7,147.47 " fill="none" id="Unregistered User-to-UC7" style="stroke:#181818;stroke-width:1.0;"/><polygon fill="#181818" points="402.85,148.11,394.4102,143.0336,397.888,147.4951,393.4264,150.9728,402.85,148.11" style="stroke:#181818;stroke-width:1.0;"/></g><!--link Agent to UC2--><g id="link_Agent_UC2"><path d="M137.8,562 C176.99,562 252.73,562 327.4,562 " fill="none" id="Agent-to-UC2" style="stroke:#181818;stroke-width:1.0;"/><polygon fill="#181818" points="332.77,562,323.77,558,327.77,562,323.77,566,332.77,562" style="stroke:#181818;stroke-width:1.0;"/></g><!--link Agent to UC8--><g id="link_Agent_UC8"><path d="M128.06,519.65 C149.62,472.92 190.66,398.95 249,358 C270.94,342.6 295.89,330.5 321.66,320.97 " fill="none" id="Agent-to-UC8" style="stroke:#181818;stroke-width:1.0;"/><polygon fill="#181818" points="326.49,319.23,316.6661,318.5297,321.7881,320.9307,319.3872,326.0527,326.49,319.23" style="stroke:#181818;stroke-width:1.0;"/></g><!--link Agent to UC11--><g id="link_Agent_UC11"><path d="M137.51,575.49 C165.01,588.8 209.15,608.98 249,622 C285.83,634.03 326.07,644.62 364.34,653.54 " fill="none" id="Agent-to-UC11" style="stroke:#181818;stroke-width:1.0;"/><polygon fill="#181818" points="369.49,654.73,361.625,648.802,364.619,653.6015,359.8194,656.5955,369.49,654.73" style="stroke:#181818;stroke-width:1.0;"/></g><!--link System Administrator to UC3--><g id="link_System Administrator_UC3"><path d="M144.18,1017.31 C169.8,1046.53 207.61,1083.82 249,1105 C286.19,1124.03 329.21,1136.5 370.3,1144.66 " fill="none" id="System Administrator-to-UC3" style="stroke:#181818;stroke-width:1.0;"/><polygon fill="#181818" points="375.3,1145.63,367.2338,1139.9788,370.3927,1144.6714,365.7001,1147.8304,375.3,1145.63" style="stroke:#181818;stroke-width:1.0;"/></g><!--link System Administrator to UC5--><g id="link_System Administrator_UC5"><path d="M144.43,932.74 C170.04,903.88 207.72,867.31 249,847 C291.64,826.02 341.79,814.02 387.91,807.21 " fill="none" id="System Administrator-to-UC5" style="stroke:#181818;stroke-width:1.0;"/><polygon fill="#181818" points="392.93,806.49,383.4504,803.8183,387.9814,807.2051,384.5946,811.7361,392.93,806.49" style="stroke:#181818;stroke-width:1.0;"/></g><!--link System Administrator to UC6--><g id="link_System Administrator_UC6"><path d="M213.22,959.14 C256.05,952.53 307.03,944.66 355.5,937.17 " fill="none" id="System Administrator-to-UC6" style="stroke:#181818;stroke-width:1.0;"/><polygon fill="#181818" points="360.49,936.4,350.9808,933.8357,355.5498,937.171,352.2145,941.74,360.49,936.4" style="stroke:#181818;stroke-width:1.0;"/></g><!--link System Administrator to UC12--><g id="link_System Administrator_UC12"><path d="M213.22,990.62 C250.84,996.33 294.74,1003.01 337.72,1009.54 " fill="none" id="System Administrator-to-UC12" style="stroke:#181818;stroke-width:1.0;"/><polygon fill="#181818" points="342.68,1010.3,334.3894,1004.9834,337.7376,1009.5429,333.1781,1012.8912,342.68,1010.3" style="stroke:#181818;stroke-width:1.0;"/></g><!--reverse link UC4 to Owner--><g id="link_UC4_Owner"><path d="M796.8,430 C840.3,430 879.45,430 904.88,430 " fill="none" id="UC4-backto-Owner" style="stroke:#181818;stroke-width:1.0;"/><polygon fill="#181818" points="791.75,430,800.75,434,796.75,430,800.75,426,791.75,430" style="stroke:#181818;stroke-width:1.0;"/></g><!--link Client to UC9--><g id="link_Client_UC9"><path d="M137.55,1391.59 C164.9,1376.57 208.76,1354.01 249,1340 C285.33,1327.35 325.2,1316.63 363.24,1307.82 " fill="none" id="Client-to-UC9" style="stroke:#181818;stroke-width:1.0;"/><polygon fill="#181818" points="368.35,1306.65,358.6847,1304.7575,363.4759,1307.7649,360.4685,1312.5561,368.35,1306.65" style="stroke:#181818;stroke-width:1.0;"/></g><!--link Client to UC10--><g id="link_Client_UC10"><path d="M137.8,1407 C170.81,1407 229.75,1407 292.13,1407 " fill="none" id="Client-to-UC10" style="stroke:#181818;stroke-width:1.0;"/><polygon fill="#181818" points="297.4,1407,288.4,1403,292.4,1407,288.4,1411,297.4,1407" style="stroke:#181818;stroke-width:1.0;"/></g><!--link Client to UC14--><g id="link_Client_UC14"><path d="M128.32,1449.29 C149.99,1495.48 191.01,1568.17 249,1608 C272.68,1624.27 299.81,1636.66 327.68,1646.1 " fill="none" id="Client-to-UC14" style="stroke:#181818;stroke-width:1.0;"/><polygon fill="#181818" points="332.52,1647.71,325.2348,1641.0824,327.7737,1646.1374,322.7187,1648.6764,332.52,1647.71" style="stroke:#181818;stroke-width:1.0;"/></g><!--reverse link UC13 to Network Manager--><g id="link_UC13_Network Manager"><path d="M773.45,1541 C801.44,1541 828.37,1541 851.95,1541 " fill="none" id="UC13-backto-Network Manager" style="stroke:#181818;stroke-width:1.0;"/><polygon fill="#181818" points="768.22,1541,777.22,1545,773.22,1541,777.22,1537,768.22,1541" style="stroke:#181818;stroke-width:1.0;"/></g><!--SRC=[XLJRYjim47ttLmnvRY3t2vH2I5iezBBKRDw5F7P4R4cLv0rkwRztvDjwPPS4lsHqpfdHp1dPcv2Q6LRaYjymWGHJLkRkiv8k5hyHLel8TX3GZDzOXh6hSWI3t36PvHX5EQOEd08Zigk3HFWZeMG4z6FSAGEpPsam4zQXeIJF5iriU7hAKBetaRWYR06df12IQ8PHz0tWnrq68kTSX2hVqTsLkS4t9gbkWaTHNpRygP6bHSuiKeNd9SpXhAIb-yDNIWegXIUZD1edqCw0MI1Go5fvba7ci0DNS99IbP9ZuGjgUAkGjoRUpxOdm43Y7JuLEbSLOajPXvHDJVbL8jKsJ07dgr9Mo0pS5Q5fPYEn2IMsmwm-PqoDwX9kG_IEqB56BjAAW7H5-mu- -d48xYmmcS1P37gp2_dxGJRhCGnuCwM6i0y91o9SM2uItqwlhnNTbKdw1jSrJGzQaKCeSlHL8v4P56WjJTwRq_8h9YNDdS6BiA9Z7qSkM13zAMVS5m3A9DGeeklIyAk7CD3jc3j7B4OItaadpb6JXmpj55rQugj4BTeRQkIefRVKbq8hGvEDBv2A72saHXMGOyPu1RRUZbvXvAsbDrTjOMmjPS4lWhU8a80lQ4XaCFdbo6jBRxQB88TuJncqcZQZRgJ_NtUmRsadiebgbObbX_dyGxyy_p_VjmAjXPlWQY9sc8XH8vlevDlHWjQF8Tl7aDrZ20sb1lcjVJ-VzmzMmspVgXPxd0gsjWgZcqwMPbphZjwul_y0]--></g></svg>