<?xml version="1.0" encoding="UTF-8" standalone="no"?><svg xmlns="http://www.w3.org/2000/svg" xmlns:xlink="http://www.w3.org/1999/xlink" contentStyleType="text/css" height="1782px" preserveAspectRatio="none" style="width:1200px;height:1782px;background:#FFFFFF;" version="1.1" viewBox="0 0 1200 1782" width="1200px" zoomAndPan="magnify"><defs/><g><!--class RequestPurchaseOrderUI--><g id="elem_RequestPurchaseOrderUI"><rect codeLine="8" fill="#F1F1F1" height="50" id="RequestPurchaseOrderUI" rx="2.5" ry="2.5" style="stroke:#181818;stroke-width:0.5;" width="272" x="479.5" y="7"/><ellipse cx="495.5" cy="24" fill="#ADD1B2" rx="12" ry="12" style="stroke:#181818;stroke-width:1.0;"/><path d="M498.3066,31.0801 Q497.623,31.4316 496.8711,31.6074 Q496.1191,31.7832 495.2891,31.7832 Q492.3398,31.7832 490.7871,29.8398 Q489.2344,27.8965 489.2344,24.2246 Q489.2344,20.543 490.7871,18.5996 Q492.3398,16.6563 495.2891,16.6563 Q496.1191,16.6563 496.8809,16.832 Q497.6426,17.0078 498.3066,17.3594 L498.3066,20.5625 Q497.5645,19.8789 496.8662,19.5615 Q496.168,19.2441 495.4258,19.2441 Q493.8438,19.2441 493.0381,20.499 Q492.2324,21.7539 492.2324,24.2246 Q492.2324,26.6855 493.0381,27.9404 Q493.8438,29.1953 495.4258,29.1953 Q496.168,29.1953 496.8662,28.8779 Q497.5645,28.5605 498.3066,27.877 Z " fill="#000000"/><text fill="#000000" font-family="sans-serif" font-size="20" lengthAdjust="spacing" textLength="238" x="510.5" y="31.5586">RequestPurchaseOrderUI</text><line style="stroke:#181818;stroke-width:0.5;" x1="480.5" x2="750.5" y1="41" y2="41"/><line style="stroke:#181818;stroke-width:0.5;" x1="480.5" x2="750.5" y1="49" y2="49"/></g><!--class RequestPurchaseOrderController--><g id="elem_RequestPurchaseOrderController"><rect codeLine="10" fill="#F1F1F1" height="238.4375" id="RequestPurchaseOrderController" rx="2.5" ry="2.5" style="stroke:#181818;stroke-width:0.5;" width="619" x="306" y="117"/><ellipse cx="454" cy="134" fill="#ADD1B2" rx="12" ry="12" style="stroke:#181818;stroke-width:1.0;"/><path d="M456.8066,141.0801 Q456.123,141.4316 455.3711,141.6074 Q454.6191,141.7832 453.7891,141.7832 Q450.8398,141.7832 449.2871,139.8398 Q447.7344,137.8965 447.7344,134.2246 Q447.7344,130.543 449.2871,128.5996 Q450.8398,126.6563 453.7891,126.6563 Q454.6191,126.6563 455.3809,126.832 Q456.1426,127.0078 456.8066,127.3594 L456.8066,130.5625 Q456.0645,129.8789 455.3662,129.5615 Q454.668,129.2441 453.9258,129.2441 Q452.3438,129.2441 451.5381,130.499 Q450.7324,131.7539 450.7324,134.2246 Q450.7324,136.6855 451.5381,137.9404 Q452.3438,139.1953 453.9258,139.1953 Q454.668,139.1953 455.3662,138.8779 Q456.0645,138.5605 456.8066,137.877 Z " fill="#000000"/><text fill="#000000" font-family="sans-serif" font-size="20" lengthAdjust="spacing" textLength="314" x="476" y="141.5586">RequestPurchaseOrderController</text><line style="stroke:#181818;stroke-width:0.5;" x1="307" x2="924" y1="151" y2="151"/><line style="stroke:#181818;stroke-width:0.5;" x1="307" x2="924" y1="159" y2="159"/><text fill="#000000" font-family="sans-serif" font-size="20" lengthAdjust="spacing" textLength="344" x="312" y="182.3359">+RequestPurchaseOrderController()</text><text fill="#000000" font-family="sans-serif" font-size="20" lengthAdjust="spacing" textLength="116" x="312" y="205.8906">+getAgent()</text><text fill="#000000" font-family="sans-serif" font-size="20" lengthAdjust="spacing" textLength="213" x="312" y="229.4453">+getTypeOfBusiness()</text><text fill="#000000" font-family="sans-serif" font-size="20" lengthAdjust="spacing" textLength="210" x="312" y="253">+getTypeOfProperty()</text><text fill="#000000" font-family="sans-serif" font-size="20" lengthAdjust="spacing" textLength="510" x="312" y="276.5547">+submitRequest(price, area, distCityCenter, address,</text><text fill="#000000" font-family="sans-serif" font-size="20" lengthAdjust="spacing" textLength="538" x="312" y="300.1094">photograph, numberOfBedrooms, numberOfBathrooms,</text><text fill="#000000" font-family="sans-serif" font-size="20" lengthAdjust="spacing" textLength="595" x="318" y="323.6641">numberOfParkingSpaces, equipmentDesignation, sunExposer,</text><text fill="#000000" font-family="sans-serif" font-size="20" lengthAdjust="spacing" textLength="525" x="318" y="347.2188">basement, loft, typeOfBusiness, typeOfProperty, agent)</text></g><!--class Repositories--><g id="elem_Repositories"><rect codeLine="18" fill="#F1F1F1" height="191.3281" id="Repositories" rx="2.5" ry="2.5" style="stroke:#181818;stroke-width:0.5;" width="327" x="598" y="713"/><ellipse cx="697.5" cy="730" fill="#ADD1B2" rx="12" ry="12" style="stroke:#181818;stroke-width:1.0;"/><path d="M700.3066,737.0801 Q699.623,737.4316 698.8711,737.6074 Q698.1191,737.7832 697.2891,737.7832 Q694.3398,737.7832 692.7871,735.8398 Q691.2344,733.8965 691.2344,730.2246 Q691.2344,726.543 692.7871,724.5996 Q694.3398,722.6563 697.2891,722.6563 Q698.1191,722.6563 698.8809,722.832 Q699.6426,723.0078 700.3066,723.3594 L700.3066,726.5625 Q699.5645,725.8789 698.8662,725.5615 Q698.168,725.2441 697.4258,725.2441 Q695.8438,725.2441 695.0381,726.499 Q694.2324,727.7539 694.2324,730.2246 Q694.2324,732.6855 695.0381,733.9404 Q695.8438,735.1953 697.4258,735.1953 Q698.168,735.1953 698.8662,734.8779 Q699.5645,734.5605 700.3066,733.877 Z " fill="#000000"/><text fill="#000000" font-family="sans-serif" font-size="20" lengthAdjust="spacing" textLength="119" x="719.5" y="737.5586">Repositories</text><line style="stroke:#181818;stroke-width:0.5;" x1="599" x2="924" y1="747" y2="747"/><line style="stroke:#181818;stroke-width:0.5;" x1="599" x2="924" y1="755" y2="755"/><text fill="#000000" font-family="sans-serif" font-size="20" lengthAdjust="spacing" textLength="145" x="604" y="778.3359">-Repositories()</text><text fill="#000000" font-family="sans-serif" font-size="20" lengthAdjust="spacing" textLength="276" x="604" y="801.8906">+getInstance() : Repositories</text><text fill="#000000" font-family="sans-serif" font-size="20" lengthAdjust="spacing" textLength="303" x="604" y="825.4453">+getPurchaseOrderRepository()</text><text fill="#000000" font-family="sans-serif" font-size="20" lengthAdjust="spacing" textLength="255" x="604" y="849">+getEmployeeRepository()</text><text fill="#000000" font-family="sans-serif" font-size="20" lengthAdjust="spacing" textLength="315" x="604" y="872.5547">+getTypeOfBusinessRepository()</text><text fill="#000000" font-family="sans-serif" font-size="20" lengthAdjust="spacing" textLength="312" x="604" y="896.1094">+getTypeOfPropertyRepository()</text></g><!--class ManageEmployeeRepository--><g id="elem_ManageEmployeeRepository"><rect codeLine="26" fill="#F1F1F1" height="120.6641" id="ManageEmployeeRepository" rx="2.5" ry="2.5" style="stroke:#181818;stroke-width:0.5;" width="508" x="661.5" y="473.5"/><ellipse cx="776.5" cy="490.5" fill="#ADD1B2" rx="12" ry="12" style="stroke:#181818;stroke-width:1.0;"/><path d="M779.3066,497.5801 Q778.623,497.9316 777.8711,498.1074 Q777.1191,498.2832 776.2891,498.2832 Q773.3398,498.2832 771.7871,496.3398 Q770.2344,494.3965 770.2344,490.7246 Q770.2344,487.043 771.7871,485.0996 Q773.3398,483.1563 776.2891,483.1563 Q777.1191,483.1563 777.8809,483.332 Q778.6426,483.5078 779.3066,483.8594 L779.3066,487.0625 Q778.5645,486.3789 777.8662,486.0615 Q777.168,485.7441 776.4258,485.7441 Q774.8438,485.7441 774.0381,486.999 Q773.2324,488.2539 773.2324,490.7246 Q773.2324,493.1855 774.0381,494.4404 Q774.8438,495.6953 776.4258,495.6953 Q777.168,495.6953 777.8662,495.3779 Q778.5645,495.0605 779.3066,494.377 Z " fill="#000000"/><text fill="#000000" font-family="sans-serif" font-size="20" lengthAdjust="spacing" textLength="269" x="798.5" y="498.0586">ManageEmployeeRepository</text><line style="stroke:#181818;stroke-width:0.5;" x1="662.5" x2="1168.5" y1="507.5" y2="507.5"/><line style="stroke:#181818;stroke-width:0.5;" x1="662.5" x2="1168.5" y1="515.5" y2="515.5"/><text fill="#000000" font-family="sans-serif" font-size="20" lengthAdjust="spacing" textLength="496" x="667.5" y="538.8359">+manageEmployeeRepository(employeeRepository)</text><text fill="#000000" font-family="sans-serif" font-size="20" lengthAdjust="spacing" textLength="126" x="667.5" y="562.3906">+getAgents()</text><text fill="#000000" font-family="sans-serif" font-size="20" lengthAdjust="spacing" textLength="188" x="667.5" y="585.9453">-filterByRole(agent)</text></g><!--class ManagePurchaseOrderRepository--><g id="elem_ManagePurchaseOrderRepository"><rect codeLine="32" fill="#F1F1F1" height="238.4375" id="ManagePurchaseOrderRepository" rx="2.5" ry="2.5" style="stroke:#181818;stroke-width:0.5;" width="619" x="7" y="415"/><ellipse cx="153.5" cy="432" fill="#ADD1B2" rx="12" ry="12" style="stroke:#181818;stroke-width:1.0;"/><path d="M156.3066,439.0801 Q155.623,439.4316 154.8711,439.6074 Q154.1191,439.7832 153.2891,439.7832 Q150.3398,439.7832 148.7871,437.8398 Q147.2344,435.8965 147.2344,432.2246 Q147.2344,428.543 148.7871,426.5996 Q150.3398,424.6563 153.2891,424.6563 Q154.1191,424.6563 154.8809,424.832 Q155.6426,425.0078 156.3066,425.3594 L156.3066,428.5625 Q155.5645,427.8789 154.8662,427.5615 Q154.168,427.2441 153.4258,427.2441 Q151.8438,427.2441 151.0381,428.499 Q150.2324,429.7539 150.2324,432.2246 Q150.2324,434.6855 151.0381,435.9404 Q151.8438,437.1953 153.4258,437.1953 Q154.168,437.1953 154.8662,436.8779 Q155.5645,436.5605 156.3066,435.877 Z " fill="#000000"/><text fill="#000000" font-family="sans-serif" font-size="20" lengthAdjust="spacing" textLength="317" x="175.5" y="439.5586">ManagePurchaseOrderRepository</text><line style="stroke:#181818;stroke-width:0.5;" x1="8" x2="625" y1="449" y2="449"/><text fill="#000000" font-family="sans-serif" font-size="20" lengthAdjust="spacing" textLength="164" x="13" y="472.3359">-validateRequest</text><line style="stroke:#181818;stroke-width:0.5;" x1="8" x2="625" y1="480.5547" y2="480.5547"/><text fill="#000000" font-family="sans-serif" font-size="20" lengthAdjust="spacing" textLength="590" x="13" y="503.8906">+ManagePurchaseOrderRepository(PurchaseOrderRepository)</text><text fill="#000000" font-family="sans-serif" font-size="20" lengthAdjust="spacing" textLength="504" x="13" y="527.4453">+createProperty(price, area, distCityCenter, address,</text><text fill="#000000" font-family="sans-serif" font-size="20" lengthAdjust="spacing" textLength="538" x="13" y="551">photograph, numberOfBedrooms, numberOfBathrooms,</text><text fill="#000000" font-family="sans-serif" font-size="20" lengthAdjust="spacing" textLength="595" x="19" y="574.5547">numberOfParkingSpaces, equipmentDesignation, sunExposer,</text><text fill="#000000" font-family="sans-serif" font-size="20" lengthAdjust="spacing" textLength="460" x="19" y="598.1094">basement, loft, typeOfBusiness, typeOfProperty)</text><text fill="#000000" font-family="sans-serif" font-size="20" lengthAdjust="spacing" textLength="466" x="13" y="621.6641">+createRequest(property, agent, dateOfRequest)</text><text fill="#000000" font-family="sans-serif" font-size="20" lengthAdjust="spacing" textLength="100" x="13" y="645.2188">-getDate()</text></g><!--class PurchaseOrderRepository--><g id="elem_PurchaseOrderRepository"><rect codeLine="39" fill="#F1F1F1" height="73.5547" id="PurchaseOrderRepository" rx="2.5" ry="2.5" style="stroke:#181818;stroke-width:0.5;" width="277" x="370" y="964"/><ellipse cx="386" cy="981" fill="#ADD1B2" rx="12" ry="12" style="stroke:#181818;stroke-width:1.0;"/><path d="M388.8066,988.0801 Q388.123,988.4316 387.3711,988.6074 Q386.6191,988.7832 385.7891,988.7832 Q382.8398,988.7832 381.2871,986.8398 Q379.7344,984.8965 379.7344,981.2246 Q379.7344,977.543 381.2871,975.5996 Q382.8398,973.6563 385.7891,973.6563 Q386.6191,973.6563 387.3809,973.832 Q388.1426,974.0078 388.8066,974.3594 L388.8066,977.5625 Q388.0645,976.8789 387.3662,976.5615 Q386.668,976.2441 385.9258,976.2441 Q384.3438,976.2441 383.5381,977.499 Q382.7324,978.7539 382.7324,981.2246 Q382.7324,983.6855 383.5381,984.9404 Q384.3438,986.1953 385.9258,986.1953 Q386.668,986.1953 387.3662,985.8779 Q388.0645,985.5605 388.8066,984.877 Z " fill="#000000"/><text fill="#000000" font-family="sans-serif" font-size="20" lengthAdjust="spacing" textLength="243" x="401" y="988.5586">PurchaseOrderRepository</text><line style="stroke:#181818;stroke-width:0.5;" x1="371" x2="646" y1="998" y2="998"/><line style="stroke:#181818;stroke-width:0.5;" x1="371" x2="646" y1="1006" y2="1006"/><text fill="#000000" font-family="sans-serif" font-size="20" lengthAdjust="spacing" textLength="212" x="376" y="1029.3359">-addRequest(request)</text></g><!--class PurchaseOrder--><g id="elem_PurchaseOrder"><rect codeLine="44" fill="#F1F1F1" height="144.2188" id="PurchaseOrder" rx="2.5" ry="2.5" style="stroke:#181818;stroke-width:0.5;" width="415" x="204" y="1145"/><ellipse cx="336.5" cy="1162" fill="#ADD1B2" rx="12" ry="12" style="stroke:#181818;stroke-width:1.0;"/><path d="M339.3066,1169.0801 Q338.623,1169.4316 337.8711,1169.6074 Q337.1191,1169.7832 336.2891,1169.7832 Q333.3398,1169.7832 331.7871,1167.8398 Q330.2344,1165.8965 330.2344,1162.2246 Q330.2344,1158.543 331.7871,1156.5996 Q333.3398,1154.6563 336.2891,1154.6563 Q337.1191,1154.6563 337.8809,1154.832 Q338.6426,1155.0078 339.3066,1155.3594 L339.3066,1158.5625 Q338.5645,1157.8789 337.8662,1157.5615 Q337.168,1157.2441 336.4258,1157.2441 Q334.8438,1157.2441 334.0381,1158.499 Q333.2324,1159.7539 333.2324,1162.2246 Q333.2324,1164.6855 334.0381,1165.9404 Q334.8438,1167.1953 336.4258,1167.1953 Q337.168,1167.1953 337.8662,1166.8779 Q338.5645,1166.5605 339.3066,1165.877 Z " fill="#000000"/><text fill="#000000" font-family="sans-serif" font-size="20" lengthAdjust="spacing" textLength="141" x="358.5" y="1169.5586">PurchaseOrder</text><line style="stroke:#181818;stroke-width:0.5;" x1="205" x2="618" y1="1179" y2="1179"/><text fill="#000000" font-family="sans-serif" font-size="20" lengthAdjust="spacing" textLength="180" x="210" y="1202.3359">-Property property</text><text fill="#000000" font-family="sans-serif" font-size="20" lengthAdjust="spacing" textLength="216" x="210" y="1225.8906">-String dateOfRequest</text><text fill="#000000" font-family="sans-serif" font-size="20" lengthAdjust="spacing" textLength="127" x="210" y="1249.4453">-Agent agent</text><line style="stroke:#181818;stroke-width:0.5;" x1="205" x2="618" y1="1257.6641" y2="1257.6641"/><text fill="#000000" font-family="sans-serif" font-size="20" lengthAdjust="spacing" textLength="403" x="210" y="1281">+request(property, dateOfRequest, agent)</text></g><!--class Property--><g id="elem_Property"><rect codeLine="51" fill="#F1F1F1" height="379.7656" id="Property" rx="2.5" ry="2.5" style="stroke:#181818;stroke-width:0.5;" width="330" x="115.5" y="1396"/><ellipse cx="236" cy="1413" fill="#ADD1B2" rx="12" ry="12" style="stroke:#181818;stroke-width:1.0;"/><path d="M238.8066,1420.0801 Q238.123,1420.4316 237.3711,1420.6074 Q236.6191,1420.7832 235.7891,1420.7832 Q232.8398,1420.7832 231.2871,1418.8398 Q229.7344,1416.8965 229.7344,1413.2246 Q229.7344,1409.543 231.2871,1407.5996 Q232.8398,1405.6563 235.7891,1405.6563 Q236.6191,1405.6563 237.3809,1405.832 Q238.1426,1406.0078 238.8066,1406.3594 L238.8066,1409.5625 Q238.0645,1408.8789 237.3662,1408.5615 Q236.668,1408.2441 235.9258,1408.2441 Q234.3438,1408.2441 233.5381,1409.499 Q232.7324,1410.7539 232.7324,1413.2246 Q232.7324,1415.6855 233.5381,1416.9404 Q234.3438,1418.1953 235.9258,1418.1953 Q236.668,1418.1953 237.3662,1417.8779 Q238.0645,1417.5605 238.8066,1416.877 Z " fill="#000000"/><text fill="#000000" font-family="sans-serif" font-size="20" lengthAdjust="spacing" textLength="80" x="258" y="1420.5586">Property</text><line style="stroke:#181818;stroke-width:0.5;" x1="116.5" x2="444.5" y1="1430" y2="1430"/><text fill="#000000" font-family="sans-serif" font-size="20" lengthAdjust="spacing" textLength="133" x="121.5" y="1453.3359">-double price</text><text fill="#000000" font-family="sans-serif" font-size="20" lengthAdjust="spacing" textLength="126" x="121.5" y="1476.8906">-double area</text><text fill="#000000" font-family="sans-serif" font-size="20" lengthAdjust="spacing" textLength="221" x="121.5" y="1500.4453">-double distCityCenter</text><text fill="#000000" font-family="sans-serif" font-size="20" lengthAdjust="spacing" textLength="173" x="121.5" y="1524">-Address address</text><text fill="#000000" font-family="sans-serif" font-size="20" lengthAdjust="spacing" textLength="240" x="121.5" y="1547.5547">-Photograph photograph</text><text fill="#000000" font-family="sans-serif" font-size="20" lengthAdjust="spacing" textLength="244" x="121.5" y="1571.1094">-int numberOfBathrooms</text><text fill="#000000" font-family="sans-serif" font-size="20" lengthAdjust="spacing" textLength="238" x="121.5" y="1594.6641">-int numberOfBedrooms</text><text fill="#000000" font-family="sans-serif" font-size="20" lengthAdjust="spacing" textLength="279" x="121.5" y="1618.2188">-int numberOfParkingSpaces</text><text fill="#000000" font-family="sans-serif" font-size="20" lengthAdjust="spacing" textLength="226" x="121.5" y="1641.7734">-Equipment equipment</text><text fill="#000000" font-family="sans-serif" font-size="20" lengthAdjust="spacing" textLength="185" x="121.5" y="1665.3281">-String sunExposer</text><text fill="#000000" font-family="sans-serif" font-size="20" lengthAdjust="spacing" textLength="189" x="121.5" y="1688.8828">-boolean basement</text><text fill="#000000" font-family="sans-serif" font-size="20" lengthAdjust="spacing" textLength="127" x="121.5" y="1712.4375">-boolean loft</text><text fill="#000000" font-family="sans-serif" font-size="20" lengthAdjust="spacing" textLength="318" x="121.5" y="1735.9922">-TypeOfBusiness typeOfBusiness</text><text fill="#000000" font-family="sans-serif" font-size="20" lengthAdjust="spacing" textLength="312" x="121.5" y="1759.5469">-TypeOfProperty typeOfProperty</text><line style="stroke:#181818;stroke-width:0.5;" x1="116.5" x2="444.5" y1="1767.7656" y2="1767.7656"/></g><!--class Employee--><g id="elem_Employee"><rect codeLine="68" fill="#F1F1F1" height="238.4375" id="Employee" rx="2.5" ry="2.5" style="stroke:#181818;stroke-width:0.5;" width="539" x="654" y="1098"/><ellipse cx="872.5" cy="1115" fill="#ADD1B2" rx="12" ry="12" style="stroke:#181818;stroke-width:1.0;"/><path d="M875.3066,1122.0801 Q874.623,1122.4316 873.8711,1122.6074 Q873.1191,1122.7832 872.2891,1122.7832 Q869.3398,1122.7832 867.7871,1120.8398 Q866.2344,1118.8965 866.2344,1115.2246 Q866.2344,1111.543 867.7871,1109.5996 Q869.3398,1107.6563 872.2891,1107.6563 Q873.1191,1107.6563 873.8809,1107.832 Q874.6426,1108.0078 875.3066,1108.3594 L875.3066,1111.5625 Q874.5645,1110.8789 873.8662,1110.5615 Q873.168,1110.2441 872.4258,1110.2441 Q870.8438,1110.2441 870.0381,1111.499 Q869.2324,1112.7539 869.2324,1115.2246 Q869.2324,1117.6855 870.0381,1118.9404 Q870.8438,1120.1953 872.4258,1120.1953 Q873.168,1120.1953 873.8662,1119.8779 Q874.5645,1119.5605 875.3066,1118.877 Z " fill="#000000"/><text fill="#000000" font-family="sans-serif" font-size="20" lengthAdjust="spacing" textLength="93" x="894.5" y="1122.5586">Employee</text><line style="stroke:#181818;stroke-width:0.5;" x1="655" x2="1192" y1="1132" y2="1132"/><text fill="#000000" font-family="sans-serif" font-size="20" lengthAdjust="spacing" textLength="127" x="660" y="1155.3359">-String name</text><text fill="#000000" font-family="sans-serif" font-size="20" lengthAdjust="spacing" textLength="247" x="660" y="1178.8906">-String telephoneNumber</text><text fill="#000000" font-family="sans-serif" font-size="20" lengthAdjust="spacing" textLength="124" x="660" y="1202.4453">-Email email</text><text fill="#000000" font-family="sans-serif" font-size="20" lengthAdjust="spacing" textLength="354" x="660" y="1226">-PassportCard passportCardNumber</text><text fill="#000000" font-family="sans-serif" font-size="20" lengthAdjust="spacing" textLength="303" x="660" y="1249.5547">-SocialSecurityCard taxNumber</text><text fill="#000000" font-family="sans-serif" font-size="20" lengthAdjust="spacing" textLength="173" x="660" y="1273.1094">-Address address</text><line style="stroke:#181818;stroke-width:0.5;" x1="655" x2="1192" y1="1281.3281" y2="1281.3281"/><text fill="#000000" font-family="sans-serif" font-size="20" lengthAdjust="spacing" textLength="515" x="660" y="1304.6641">+Employee(name, passportCardNumber, taxNumber,</text><text fill="#000000" font-family="sans-serif" font-size="20" lengthAdjust="spacing" textLength="521" x="666" y="1328.2188">address, emailAddress, telephoneNumber, store, role)</text></g><!--class EmployeeRepository--><g id="elem_EmployeeRepository"><rect fill="#F1F1F1" height="50" id="EmployeeRepository" rx="2.5" ry="2.5" style="stroke:#181818;stroke-width:0.5;" width="229" x="745" y="976"/><ellipse cx="761" cy="993" fill="#ADD1B2" rx="12" ry="12" style="stroke:#181818;stroke-width:1.0;"/><path d="M763.8066,1000.0801 Q763.123,1000.4316 762.3711,1000.6074 Q761.6191,1000.7832 760.7891,1000.7832 Q757.8398,1000.7832 756.2871,998.8398 Q754.7344,996.8965 754.7344,993.2246 Q754.7344,989.543 756.2871,987.5996 Q757.8398,985.6563 760.7891,985.6563 Q761.6191,985.6563 762.3809,985.832 Q763.1426,986.0078 763.8066,986.3594 L763.8066,989.5625 Q763.0645,988.8789 762.3662,988.5615 Q761.668,988.2441 760.9258,988.2441 Q759.3438,988.2441 758.5381,989.499 Q757.7324,990.7539 757.7324,993.2246 Q757.7324,995.6855 758.5381,996.9404 Q759.3438,998.1953 760.9258,998.1953 Q761.668,998.1953 762.3662,997.8779 Q763.0645,997.5605 763.8066,996.877 Z " fill="#000000"/><text fill="#000000" font-family="sans-serif" font-size="20" lengthAdjust="spacing" textLength="195" x="776" y="1000.5586">EmployeeRepository</text><line style="stroke:#181818;stroke-width:0.5;" x1="746" x2="973" y1="1010" y2="1010"/><line style="stroke:#181818;stroke-width:0.5;" x1="746" x2="973" y1="1018" y2="1018"/></g><!--link RequestPurchaseOrderUI to RequestPurchaseOrderController--><g id="link_RequestPurchaseOrderUI_RequestPurchaseOrderController"><path codeLine="82" d="M615.5,57.37 C615.5,71.74 615.5,91.15 615.5,111.86 " fill="none" id="RequestPurchaseOrderUI-to-RequestPurchaseOrderController" style="stroke:#181818;stroke-width:1.0;"/><polygon fill="#181818" points="615.5,116.86,619.5,107.86,615.5,111.86,611.5,107.86,615.5,116.86" style="stroke:#181818;stroke-width:1.0;"/></g><!--link RequestPurchaseOrderController to ManageEmployeeRepository--><g id="link_RequestPurchaseOrderController_ManageEmployeeRepository"><path codeLine="84" d="M735.36,355.26 C775.04,394.42 817.66,436.47 851.48,469.83 " fill="none" id="RequestPurchaseOrderController-to-ManageEmployeeRepository" style="stroke:#181818;stroke-width:1.0;stroke-dasharray:7.0,7.0;"/><polygon fill="#181818" points="855.14,473.44,851.5305,464.2764,851.5761,469.9331,845.9194,469.9787,855.14,473.44" style="stroke:#181818;stroke-width:1.0;"/></g><!--link RequestPurchaseOrderController to ManagePurchaseOrderRepository--><g id="link_RequestPurchaseOrderController_ManagePurchaseOrderRepository"><path codeLine="85" d="M496.04,355.26 C477.43,373.68 458.18,392.74 439.5,411.23 " fill="none" id="RequestPurchaseOrderController-to-ManagePurchaseOrderRepository" style="stroke:#181818;stroke-width:1.0;stroke-dasharray:7.0,7.0;"/><polygon fill="#181818" points="435.77,414.92,444.9766,411.4216,439.3198,411.3988,439.3426,405.7419,435.77,414.92" style="stroke:#181818;stroke-width:1.0;"/></g><!--link ManageEmployeeRepository to Repositories--><g id="link_ManageEmployeeRepository_Repositories"><path codeLine="87" d="M881.7,594.8 C862.94,628 839.12,670.15 817.65,708.15 " fill="none" id="ManageEmployeeRepository-to-Repositories" style="stroke:#181818;stroke-width:1.0;stroke-dasharray:7.0,7.0;"/><polygon fill="#181818" points="815.04,712.76,822.9533,706.8966,817.5022,708.4083,815.9905,702.9571,815.04,712.76" style="stroke:#181818;stroke-width:1.0;"/></g><!--link ManagePurchaseOrderRepository to Repositories--><g id="link_ManagePurchaseOrderRepository_Repositories"><path codeLine="88" d="M509.42,653.14 C540.52,672.18 572.4,691.7 602.58,710.18 " fill="none" id="ManagePurchaseOrderRepository-to-Repositories" style="stroke:#181818;stroke-width:1.0;stroke-dasharray:7.0,7.0;"/><polygon fill="#181818" points="607.02,712.9,601.4439,704.7817,602.7593,710.2835,597.2575,711.5989,607.02,712.9" style="stroke:#181818;stroke-width:1.0;"/></g><!--link Repositories to PurchaseOrderRepository--><g id="link_Repositories_PurchaseOrderRepository"><path codeLine="90" d="M635.74,904.19 C609.12,924.23 582.46,944.31 560.47,960.87 " fill="none" id="Repositories-to-PurchaseOrderRepository" style="stroke:#181818;stroke-width:1.0;"/><polygon fill="#181818" points="556.42,963.92,566.02,961.72,560.42,960.92,561.22,955.32,556.42,963.92" style="stroke:#181818;stroke-width:1.0;"/></g><!--link Repositories to EmployeeRepository--><g id="link_Repositories_EmployeeRepository"><path codeLine="91" d="M810.21,904.19 C822.79,928.64 835.39,953.14 844.7,971.24 " fill="none" id="Repositories-to-EmployeeRepository" style="stroke:#181818;stroke-width:1.0;"/><polygon fill="#181818" points="847,975.7,846.4146,965.8686,844.7013,971.2597,839.3102,969.5464,847,975.7" style="stroke:#181818;stroke-width:1.0;"/></g><!--link EmployeeRepository to Employee--><g id="link_EmployeeRepository_Employee"><path codeLine="93" d="M866.72,1026.13 C871.8,1043.14 879.05,1067.36 886.66,1092.82 " fill="none" id="EmployeeRepository-to-Employee" style="stroke:#181818;stroke-width:1.0;"/><polygon fill="#181818" points="888.19,1097.93,889.4218,1088.1585,886.7467,1093.1428,881.7623,1090.4677,888.19,1097.93" style="stroke:#181818;stroke-width:1.0;"/></g><!--link ManagePurchaseOrderRepository to PurchaseOrderRepository--><g id="link_ManagePurchaseOrderRepository_PurchaseOrderRepository"><path codeLine="95" d="M365.32,653.24 C406.71,753.49 463.68,891.45 491.64,959.16 " fill="none" id="ManagePurchaseOrderRepository-to-PurchaseOrderRepository" style="stroke:#181818;stroke-width:1.0;stroke-dasharray:7.0,7.0;"/><polygon fill="#181818" points="493.6,963.91,493.8827,954.0652,491.7013,959.2845,486.4819,957.1032,493.6,963.91" style="stroke:#181818;stroke-width:1.0;"/></g><!--link ManagePurchaseOrderRepository to PurchaseOrder--><g id="link_ManagePurchaseOrderRepository_PurchaseOrder"><path codeLine="96" d="M324.96,653.25 C335.61,801.94 352.5,1038 352.5,1038 C352.5,1038 370.25,1091.56 386.28,1139.92 " fill="none" id="ManagePurchaseOrderRepository-to-PurchaseOrder" style="stroke:#181818;stroke-width:1.0;"/><polygon fill="#181818" points="387.93,1144.88,388.9052,1135.0795,386.3617,1140.1323,381.3089,1137.5888,387.93,1144.88" style="stroke:#181818;stroke-width:1.0;"/></g><!--link PurchaseOrderRepository to PurchaseOrder--><g id="link_PurchaseOrderRepository_PurchaseOrder"><path codeLine="98" d="M492.05,1038.3 C479.42,1066.15 461.56,1105.56 445.86,1140.19 " fill="none" id="PurchaseOrderRepository-to-PurchaseOrder" style="stroke:#181818;stroke-width:1.0;"/><polygon fill="#181818" points="443.76,1144.82,451.1087,1138.2628,445.8172,1140.2628,443.8171,1134.9713,443.76,1144.82" style="stroke:#181818;stroke-width:1.0;"/></g><!--link PurchaseOrder to Property--><g id="link_PurchaseOrder_Property"><path codeLine="100" d="M386.09,1289.2 C375.55,1318.72 362.76,1354.55 349.77,1390.93 " fill="none" id="PurchaseOrder-to-Property" style="stroke:#181818;stroke-width:1.0;"/><polygon fill="#181818" points="348.02,1395.84,354.7975,1388.694,349.6908,1391.1274,347.2574,1386.0207,348.02,1395.84" style="stroke:#181818;stroke-width:1.0;"/></g><!--link ManagePurchaseOrderRepository to Property--><g id="link_ManagePurchaseOrderRepository_Property"><path codeLine="102" d="M289.25,653.02 C251.13,818.11 186.5,1098 186.5,1098 C186.5,1098 186.5,1336 186.5,1336 C186.5,1336 195.21,1359.07 207.32,1391.16 " fill="none" id="ManagePurchaseOrderRepository-to-Property" style="stroke:#181818;stroke-width:1.0;stroke-dasharray:7.0,7.0;"/><polygon fill="#181818" points="209.13,1395.96,209.689,1386.127,207.3619,1391.2831,202.2058,1388.956,209.13,1395.96" style="stroke:#181818;stroke-width:1.0;"/></g><!--SRC=[tLQnRjim4Dtv5Toge78GTEmG875S84ER86wtBBHqbebGf4fIRTGW_zwZH4gY9Jb1nteGmBj7thsxnwFD4vSLqwmKAdk2dEQmPxMmNvIqM_u7wASBOWA4LYnxOWLiRIE0QiWiauM04S0SMAv-SrdGFHDcx15SWcqge9KIZLkGaJCJp9WhQpNVrHPkCoNRs1U4aDP57-1d3SRUrpexC0DtEWVzuvQ-l9u2h963LaA0fY-4uk_Z6x3apCCAi5S5I3isVCVax_RNjS7SZPbwxhMgGDkczvXwLtBh8oQLvXcab6bWASsviMjkcpN608tMFDTuQ4eVPNLGLXMQLOUKohhSWSQWa6kbIZEoC7lmfaVPM- -Pnf8MMsmJe0SZywh443TWU26PvKgcc9RSF5VAkBYuTuTbS9YK2hN7hureXdKWXwcwkfoHKU7nB6wLvc1ycLUHSLofMsbGCXaaP_Hp11eWKMjwI3C-PLDMGZK0yzwuJwSmWLI4UVMylZA9LAUXWfBA1Ny24zEnga99LdJF1VR_kdbG0fBZodOPBDGZf74Ib2pOGq8PYj52Bzp_Gw8nkU7wHG96VkYystjtw0Tsw0RjVNz-CS7puPJM6WHoiZ4hLwyGMuSWh_qyYpQ7BO413Sbw-nRd8axKA6FlQlNKKVAqzOHmj6zwWKFKa4MkwXrEzrOCiSa98xR48WavTKe9YWdaUj7GGJ_Unv73H3PpFY-o6LUaA-_V174DCeihEkZCstSABo8R57TaTlBpfdZA74aomlHTZMKwD23Ca7vw-kmaAo6sM120nPFmhMKTQ9QC2mhk6sgDnrPAspNJERxPmoBQjrKPPs8BMQrT2ntMikS8CjVA3ouTfO4QzmqcDy4elgBuh7Sw3AmIHoEToI8TegLuoVlvqXAv2giZocaNDMr3THTguQ_1QdNvnci_ltNqf-7y_7Bn6NZ_teKvGSZIqUtUw74yUT0KJg8tsHLYAOS9S8OecSbm32NlI6yf_kcTaym9-LTe1mXNxpqPU-nV]--></g></svg>