<?xml version="1.0" encoding="UTF-8" standalone="no"?><svg xmlns="http://www.w3.org/2000/svg" xmlns:xlink="http://www.w3.org/1999/xlink" contentStyleType="text/css" height="378px" preserveAspectRatio="none" style="width:606px;height:378px;background:#FFFFFF;" version="1.1" viewBox="0 0 606 378" width="606px" zoomAndPan="magnify"><defs/><g><!--class ApplicationSession--><g id="elem_ApplicationSession"><rect codeLine="3" fill="#F1F1F1" height="97.1094" id="ApplicationSession" rx="2.5" ry="2.5" style="stroke:#181818;stroke-width:0.5;" width="216" x="7" y="274"/><ellipse cx="23" cy="291" fill="#ADD1B2" rx="12" ry="12" style="stroke:#181818;stroke-width:1.0;"/><path d="M25.8066,298.0801 Q25.123,298.4316 24.3711,298.6074 Q23.6191,298.7832 22.7891,298.7832 Q19.8398,298.7832 18.2871,296.8398 Q16.7344,294.8965 16.7344,291.2246 Q16.7344,287.543 18.2871,285.5996 Q19.8398,283.6563 22.7891,283.6563 Q23.6191,283.6563 24.3809,283.832 Q25.1426,284.0078 25.8066,284.3594 L25.8066,287.5625 Q25.0645,286.8789 24.3662,286.5615 Q23.668,286.2441 22.9258,286.2441 Q21.3438,286.2441 20.5381,287.499 Q19.7324,288.7539 19.7324,291.2246 Q19.7324,293.6855 20.5381,294.9404 Q21.3438,296.1953 22.9258,296.1953 Q23.668,296.1953 24.3662,295.8779 Q25.0645,295.5605 25.8066,294.877 Z " fill="#000000"/><text fill="#000000" font-family="sans-serif" font-size="20" lengthAdjust="spacing" textLength="182" x="38" y="298.5586">ApplicationSession</text><line style="stroke:#181818;stroke-width:0.5;" x1="8" x2="222" y1="308" y2="308"/><line style="stroke:#181818;stroke-width:0.5;" x1="8" x2="222" y1="316" y2="316"/><text fill="#000000" font-family="sans-serif" font-size="20" lengthAdjust="spacing" textLength="196" x="13" y="339.3359">+static getInstance()</text><text fill="#000000" font-family="sans-serif" font-size="20" lengthAdjust="spacing" textLength="204" x="13" y="362.8906">+getCurrentSession()</text></g><!--class UserSession--><g id="elem_UserSession"><rect codeLine="9" fill="#F1F1F1" height="73.5547" id="UserSession" rx="2.5" ry="2.5" style="stroke:#181818;stroke-width:0.5;" width="341" x="258.5" y="285.5"/><ellipse cx="367" cy="302.5" fill="#ADD1B2" rx="12" ry="12" style="stroke:#181818;stroke-width:1.0;"/><path d="M369.8066,309.5801 Q369.123,309.9316 368.3711,310.1074 Q367.6191,310.2832 366.7891,310.2832 Q363.8398,310.2832 362.2871,308.3398 Q360.7344,306.3965 360.7344,302.7246 Q360.7344,299.043 362.2871,297.0996 Q363.8398,295.1563 366.7891,295.1563 Q367.6191,295.1563 368.3809,295.332 Q369.1426,295.5078 369.8066,295.8594 L369.8066,299.0625 Q369.0645,298.3789 368.3662,298.0615 Q367.668,297.7441 366.9258,297.7441 Q365.3438,297.7441 364.5381,298.999 Q363.7324,300.2539 363.7324,302.7246 Q363.7324,305.1855 364.5381,306.4404 Q365.3438,307.6953 366.9258,307.6953 Q367.668,307.6953 368.3662,307.3779 Q369.0645,307.0605 369.8066,306.377 Z " fill="#000000"/><text fill="#000000" font-family="sans-serif" font-size="20" lengthAdjust="spacing" textLength="115" x="389" y="310.0586">UserSession</text><line style="stroke:#181818;stroke-width:0.5;" x1="259.5" x2="598.5" y1="319.5" y2="319.5"/><line style="stroke:#181818;stroke-width:0.5;" x1="259.5" x2="598.5" y1="327.5" y2="327.5"/><text fill="#000000" font-family="sans-serif" font-size="20" lengthAdjust="spacing" textLength="329" x="264.5" y="350.8359">+isLoggedInWithRole(USER_ROLE)</text></g><!--class {NameOfUC}Controller--><g id="elem_{NameOfUC}Controller"><rect codeLine="14" fill="#F1F1F1" height="97.1094" id="{NameOfUC}Controller" rx="2.5" ry="2.5" style="stroke:#181818;stroke-width:0.5;" width="259" x="142.5" y="117"/><ellipse cx="162.1" cy="134" fill="#ADD1B2" rx="12" ry="12" style="stroke:#181818;stroke-width:1.0;"/><path d="M164.9066,141.0801 Q164.223,141.4316 163.4711,141.6074 Q162.7191,141.7832 161.8891,141.7832 Q158.9398,141.7832 157.3871,139.8398 Q155.8344,137.8965 155.8344,134.2246 Q155.8344,130.543 157.3871,128.5996 Q158.9398,126.6563 161.8891,126.6563 Q162.7191,126.6563 163.4809,126.832 Q164.2426,127.0078 164.9066,127.3594 L164.9066,130.5625 Q164.1645,129.8789 163.4662,129.5615 Q162.768,129.2441 162.0258,129.2441 Q160.4438,129.2441 159.6381,130.499 Q158.8324,131.7539 158.8324,134.2246 Q158.8324,136.6855 159.6381,137.9404 Q160.4438,139.1953 162.0258,139.1953 Q162.768,139.1953 163.4662,138.8779 Q164.1645,138.5605 164.9066,137.877 Z " fill="#000000"/><text fill="#000000" font-family="sans-serif" font-size="20" lengthAdjust="spacing" textLength="217" x="177.9" y="141.5586">{NameOfUC}Controller</text><line style="stroke:#181818;stroke-width:0.5;" x1="143.5" x2="400.5" y1="151" y2="151"/><line style="stroke:#181818;stroke-width:0.5;" x1="143.5" x2="400.5" y1="159" y2="159"/><text fill="#000000" font-family="sans-serif" font-size="20" lengthAdjust="spacing" textLength="247" x="148.5" y="182.3359">+{NameOfUC}Controller()</text><text fill="#000000" font-family="sans-serif" font-size="20" lengthAdjust="spacing" textLength="135" x="148.5" y="205.8906">+methodX(...)</text></g><!--class {NameOfUC}UI--><g id="elem_{NameOfUC}UI"><rect codeLine="19" fill="#F1F1F1" height="50" id="{NameOfUC}UI" rx="2.5" ry="2.5" style="stroke:#181818;stroke-width:0.5;" width="175" x="184.5" y="7"/><ellipse cx="200.5" cy="24" fill="#ADD1B2" rx="12" ry="12" style="stroke:#181818;stroke-width:1.0;"/><path d="M203.3066,31.0801 Q202.623,31.4316 201.8711,31.6074 Q201.1191,31.7832 200.2891,31.7832 Q197.3398,31.7832 195.7871,29.8398 Q194.2344,27.8965 194.2344,24.2246 Q194.2344,20.543 195.7871,18.5996 Q197.3398,16.6563 200.2891,16.6563 Q201.1191,16.6563 201.8809,16.832 Q202.6426,17.0078 203.3066,17.3594 L203.3066,20.5625 Q202.5645,19.8789 201.8662,19.5615 Q201.168,19.2441 200.4258,19.2441 Q198.8438,19.2441 198.0381,20.499 Q197.2324,21.7539 197.2324,24.2246 Q197.2324,26.6855 198.0381,27.9404 Q198.8438,29.1953 200.4258,29.1953 Q201.168,29.1953 201.8662,28.8779 Q202.5645,28.5605 203.3066,27.877 Z " fill="#000000"/><text fill="#000000" font-family="sans-serif" font-size="20" lengthAdjust="spacing" textLength="141" x="215.5" y="31.5586">{NameOfUC}UI</text><line style="stroke:#181818;stroke-width:0.5;" x1="185.5" x2="358.5" y1="41" y2="41"/><line style="stroke:#181818;stroke-width:0.5;" x1="185.5" x2="358.5" y1="49" y2="49"/></g><!--link {NameOfUC}UI to {NameOfUC}Controller--><g id="link_{NameOfUC}UI_{NameOfUC}Controller"><path codeLine="22" d="M272,57.12 C272,72.37 272,92.69 272,111.55 " fill="none" id="{NameOfUC}UI-to-{NameOfUC}Controller" style="stroke:#181818;stroke-width:1.0;stroke-dasharray:7.0,7.0;"/><polygon fill="#181818" points="272,116.83,276,107.83,272,111.83,268,107.83,272,116.83" style="stroke:#181818;stroke-width:1.0;"/></g><!--link {NameOfUC}Controller to ApplicationSession--><g id="link_{NameOfUC}Controller_ApplicationSession"><path codeLine="23" d="M223.61,214.27 C205.62,232.03 185.14,252.25 166.85,270.31 " fill="none" id="{NameOfUC}Controller-to-ApplicationSession" style="stroke:#181818;stroke-width:1.0;stroke-dasharray:7.0,7.0;"/><polygon fill="#181818" points="163.23,273.89,172.4507,270.429,166.794,270.3832,166.8398,264.7265,163.23,273.89" style="stroke:#181818;stroke-width:1.0;"/></g><!--link {NameOfUC}Controller to UserSession--><g id="link_{NameOfUC}Controller_UserSession"><path codeLine="24" d="M320.39,214.27 C342.36,235.96 368.05,261.32 388.92,281.93 " fill="none" id="{NameOfUC}Controller-to-UserSession" style="stroke:#181818;stroke-width:1.0;stroke-dasharray:7.0,7.0;"/><polygon fill="#181818" points="392.49,285.46,388.8988,276.2892,388.9331,281.946,383.2764,281.9802,392.49,285.46" style="stroke:#181818;stroke-width:1.0;"/></g><!--SRC=[VP1DQiCm48NtEiMGbKj1X1wW44mAXj20WsbtHP4dZeWi6Sruqv2xT-GII8hJbSHxRxxvePCBWqcczz6Ui8KM3sRq_1O3xzmtmijIqJK2rXkY5NDo-v6niZ5CcQLIamEhOV3E6dPY894ywgm0deb5iz0XLq7-mMBnb7KHoZ4bb5w_SP4lLrX3cEueZZQnwx2jmeVZOnqz5irkNN_LsytwfcvnVZSzRWzDUIbbYnIznxI0Z108pBdJDDdiaO-n_IoqrlF4fieaSVveMhy-QAmUp9ChPkxrJ_hs83y0]--></g></svg>