<?xml version="1.0" encoding="UTF-8" standalone="no"?><svg xmlns="http://www.w3.org/2000/svg" xmlns:xlink="http://www.w3.org/1999/xlink" contentStyleType="text/css" height="2335px" preserveAspectRatio="none" style="width:3084px;height:2335px;background:#FFFFFF;" version="1.1" viewBox="0 0 3084 2335" width="3084px" zoomAndPan="magnify"><defs/><g><text fill="#000000" font-family="sans-serif" font-size="14" font-weight="bold" lengthAdjust="spacing" textLength="258" x="1414.75" y="28.5352">UI Sequence Diagram (SSD) - Us012</text><rect fill="#FFFFFF" height="2102.0625" style="stroke:#181818;stroke-width:1.0;" width="10" x="103.5" y="136.043"/><rect fill="#FFFFFF" height="86.1094" style="stroke:#181818;stroke-width:1.0;" width="10" x="403.5" y="165.5977"/><rect fill="#FFFFFF" height="1939.8438" style="stroke:#181818;stroke-width:1.0;" width="10" x="403.5" y="289.2617"/><rect fill="#FFFFFF" height="1864.7344" style="stroke:#181818;stroke-width:1.0;" width="10" x="707.5" y="326.8164"/><rect fill="#FFFFFF" height="37.5547" style="stroke:#181818;stroke-width:1.0;" width="10" x="894.5" y="364.3711"/><rect fill="#FFFFFF" height="37.5547" style="stroke:#181818;stroke-width:1.0;" width="10" x="1053.5" y="439.4805"/><rect fill="#FFFFFF" height="37.5547" style="stroke:#181818;stroke-width:1.0;" width="10" x="1053.5" y="514.5898"/><rect fill="#FFFFFF" height="37.5547" style="stroke:#181818;stroke-width:1.0;" width="10" x="1053.5" y="589.6992"/><rect fill="#FFFFFF" height="37.5547" style="stroke:#181818;stroke-width:1.0;" width="10" x="1053.5" y="664.8086"/><rect fill="#FFFFFF" height="37.5547" style="stroke:#181818;stroke-width:1.0;" width="10" x="1053.5" y="739.918"/><rect fill="#FFFFFF" height="37.5547" style="stroke:#181818;stroke-width:1.0;" width="10" x="1053.5" y="815.0273"/><rect fill="#FFFFFF" height="109.6641" style="stroke:#181818;stroke-width:1.0;" width="10" x="1453.5" y="1364.3477"/><rect fill="#FFFFFF" height="109.6641" style="stroke:#181818;stroke-width:1.0;" width="10" x="1453.5" y="1586.6758"/><rect fill="#FFFFFF" height="112.6641" style="stroke:#181818;stroke-width:1.0;" width="10" x="1453.5" y="1733.8945"/><rect fill="#FFFFFF" height="112.6641" style="stroke:#181818;stroke-width:1.0;" width="10" x="1453.5" y="2034.332"/><rect fill="#FFFFFF" height="109.6641" style="stroke:#181818;stroke-width:1.0;" width="10" x="1677.5" y="1217.1289"/><rect fill="#FFFFFF" height="112.6641" style="stroke:#181818;stroke-width:1.0;" width="10" x="1677.5" y="1884.1133"/><rect fill="#FFFFFF" height="109.6641" style="stroke:#181818;stroke-width:1.0;" width="10" x="1869.5" y="922.6914"/><rect fill="#FFFFFF" height="109.6641" style="stroke:#181818;stroke-width:1.0;" width="10" x="2095.5" y="1069.9102"/><rect fill="#FFFFFF" height="37.5547" style="stroke:#181818;stroke-width:1.0;" width="10" x="2311.5" y="1511.5664"/><rect fill="#FFFFFF" height="37.5547" style="stroke:#181818;stroke-width:1.0;" width="10" x="2486.5" y="2071.8867"/><rect fill="#FFFFFF" height="37.5547" style="stroke:#181818;stroke-width:1.0;" width="10" x="2608.5" y="1921.668"/><rect fill="#FFFFFF" height="37.5547" style="stroke:#181818;stroke-width:1.0;" width="10" x="2982" y="1771.4492"/><rect fill="none" height="1287.4141" style="stroke:#000000;stroke-width:1.5;" width="2483.5" x="595" y="867.582"/><line style="stroke:#181818;stroke-width:0.5;stroke-dasharray:5.0,5.0;" x1="108" x2="108" y1="126.043" y2="2247.1055"/><line style="stroke:#181818;stroke-width:0.5;stroke-dasharray:5.0,5.0;" x1="408" x2="408" y1="126.043" y2="2247.1055"/><line style="stroke:#181818;stroke-width:0.5;stroke-dasharray:5.0,5.0;" x1="712" x2="712" y1="207.875" y2="2247.1055"/><line style="stroke:#181818;stroke-width:0.5;stroke-dasharray:5.0,5.0;" x1="899" x2="899" y1="126.043" y2="2247.1055"/><line style="stroke:#181818;stroke-width:0.5;stroke-dasharray:5.0,5.0;" x1="1058" x2="1058" y1="126.043" y2="2247.1055"/><line style="stroke:#181818;stroke-width:0.5;stroke-dasharray:5.0,5.0;" x1="1458.5" x2="1458.5" y1="126.043" y2="2247.1055"/><line style="stroke:#181818;stroke-width:0.5;stroke-dasharray:5.0,5.0;" x1="1682.5" x2="1682.5" y1="126.043" y2="2247.1055"/><line style="stroke:#181818;stroke-width:0.5;stroke-dasharray:5.0,5.0;" x1="1874.5" x2="1874.5" y1="126.043" y2="2247.1055"/><line style="stroke:#181818;stroke-width:0.5;stroke-dasharray:5.0,5.0;" x1="2100.5" x2="2100.5" y1="126.043" y2="2247.1055"/><line style="stroke:#181818;stroke-width:0.5;stroke-dasharray:5.0,5.0;" x1="2316.5" x2="2316.5" y1="126.043" y2="2247.1055"/><line style="stroke:#181818;stroke-width:0.5;stroke-dasharray:5.0,5.0;" x1="2491.5" x2="2491.5" y1="1418.4023" y2="2247.1055"/><line style="stroke:#181818;stroke-width:0.5;stroke-dasharray:5.0,5.0;" x1="2613.5" x2="2613.5" y1="1271.1836" y2="2247.1055"/><line style="stroke:#181818;stroke-width:0.5;stroke-dasharray:5.0,5.0;" x1="2703.5" x2="2703.5" y1="976.7461" y2="2247.1055"/><line style="stroke:#181818;stroke-width:0.5;stroke-dasharray:5.0,5.0;" x1="2827.5" x2="2827.5" y1="1123.9648" y2="2247.1055"/><line style="stroke:#181818;stroke-width:0.5;stroke-dasharray:5.0,5.0;" x1="2986.5" x2="2986.5" y1="1640.7305" y2="2247.1055"/><text fill="#000000" font-family="sans-serif" font-size="20" lengthAdjust="spacing" textLength="201" x="5" y="121.8242">SystemAdministrator</text><ellipse cx="108.5" cy="50.9883" fill="#E3E3E3" rx="8" ry="8" style="stroke:#181818;stroke-width:0.5;"/><path d="M108.5,58.9883 L108.5,85.9883 M95.5,66.9883 L121.5,66.9883 M108.5,85.9883 L95.5,100.9883 M108.5,85.9883 L121.5,100.9883 " fill="none" style="stroke:#181818;stroke-width:0.5;"/><text fill="#000000" font-family="sans-serif" font-size="20" lengthAdjust="spacing" textLength="201" x="5" y="2265.4414">SystemAdministrator</text><ellipse cx="108.5" cy="2278.1602" fill="#E3E3E3" rx="8" ry="8" style="stroke:#181818;stroke-width:0.5;"/><path d="M108.5,2286.1602 L108.5,2313.1602 M95.5,2294.1602 L121.5,2294.1602 M108.5,2313.1602 L95.5,2328.1602 M108.5,2313.1602 L121.5,2328.1602 " fill="none" style="stroke:#181818;stroke-width:0.5;"/><rect fill="#E3E3E3" height="37.5547" rx="2.5" ry="2.5" style="stroke:#181818;stroke-width:0.5;" width="139" x="339" y="87.4883"/><text fill="#000000" font-family="sans-serif" font-size="20" lengthAdjust="spacing" textLength="125" x="346" y="113.8242">:ImportFileUI</text><rect fill="#E3E3E3" height="37.5547" rx="2.5" ry="2.5" style="stroke:#181818;stroke-width:0.5;" width="139" x="339" y="2246.1055"/><text fill="#000000" font-family="sans-serif" font-size="20" lengthAdjust="spacing" textLength="125" x="346" y="2272.4414">:ImportFileUI</text><rect fill="#E3E3E3" height="37.5547" rx="2.5" ry="2.5" style="stroke:#181818;stroke-width:0.5;" width="215" x="605" y="2246.1055"/><text fill="#000000" font-family="sans-serif" font-size="20" lengthAdjust="spacing" textLength="201" x="612" y="2272.4414">:ImportFileController</text><rect fill="#E3E3E3" height="37.5547" rx="2.5" ry="2.5" style="stroke:#181818;stroke-width:0.5;" width="139" x="830" y="87.4883"/><text fill="#000000" font-family="sans-serif" font-size="20" lengthAdjust="spacing" textLength="125" x="837" y="113.8242">:Repositories</text><rect fill="#E3E3E3" height="37.5547" rx="2.5" ry="2.5" style="stroke:#181818;stroke-width:0.5;" width="139" x="830" y="2246.1055"/><text fill="#000000" font-family="sans-serif" font-size="20" lengthAdjust="spacing" textLength="125" x="837" y="2272.4414">:Repositories</text><rect fill="#E3E3E3" height="61.1094" rx="2.5" ry="2.5" style="stroke:#181818;stroke-width:0.5;" width="139" x="989" y="63.9336"/><text fill="#000000" font-family="sans-serif" font-size="20" lengthAdjust="spacing" textLength="114" x="1001.5" y="90.2695">repositories</text><text fill="#000000" font-family="sans-serif" font-size="20" lengthAdjust="spacing" textLength="125" x="996" y="113.8242">:Repositories</text><rect fill="#E3E3E3" height="61.1094" rx="2.5" ry="2.5" style="stroke:#181818;stroke-width:0.5;" width="139" x="989" y="2246.1055"/><text fill="#000000" font-family="sans-serif" font-size="20" lengthAdjust="spacing" textLength="114" x="1001.5" y="2272.4414">repositories</text><text fill="#000000" font-family="sans-serif" font-size="20" lengthAdjust="spacing" textLength="125" x="996" y="2295.9961">:Repositories</text><rect fill="#E3E3E3" height="61.1094" rx="2.5" ry="2.5" style="stroke:#181818;stroke-width:0.5;" width="258" x="1329.5" y="63.9336"/><text fill="#000000" font-family="sans-serif" font-size="20" lengthAdjust="spacing" textLength="244" x="1336.5" y="90.2695">advertisementRepository:</text><text fill="#000000" font-family="sans-serif" font-size="20" lengthAdjust="spacing" textLength="241" x="1338" y="113.8242">AdvertisementRepository</text><rect fill="#E3E3E3" height="61.1094" rx="2.5" ry="2.5" style="stroke:#181818;stroke-width:0.5;" width="258" x="1329.5" y="2246.1055"/><text fill="#000000" font-family="sans-serif" font-size="20" lengthAdjust="spacing" textLength="244" x="1336.5" y="2272.4414">advertisementRepository:</text><text fill="#000000" font-family="sans-serif" font-size="20" lengthAdjust="spacing" textLength="241" x="1338" y="2295.9961">AdvertisementRepository</text><rect fill="#E3E3E3" height="61.1094" rx="2.5" ry="2.5" style="stroke:#181818;stroke-width:0.5;" width="170" x="1597.5" y="63.9336"/><text fill="#000000" font-family="sans-serif" font-size="20" lengthAdjust="spacing" textLength="156" x="1604.5" y="90.2695">storeRepository:</text><text fill="#000000" font-family="sans-serif" font-size="20" lengthAdjust="spacing" textLength="151" x="1607" y="113.8242">StoreRepository</text><rect fill="#E3E3E3" height="61.1094" rx="2.5" ry="2.5" style="stroke:#181818;stroke-width:0.5;" width="170" x="1597.5" y="2246.1055"/><text fill="#000000" font-family="sans-serif" font-size="20" lengthAdjust="spacing" textLength="156" x="1604.5" y="2272.4414">storeRepository:</text><text fill="#000000" font-family="sans-serif" font-size="20" lengthAdjust="spacing" textLength="151" x="1607" y="2295.9961">StoreRepository</text><rect fill="#E3E3E3" height="61.1094" rx="2.5" ry="2.5" style="stroke:#181818;stroke-width:0.5;" width="194" x="1777.5" y="63.9336"/><text fill="#000000" font-family="sans-serif" font-size="20" lengthAdjust="spacing" textLength="180" x="1784.5" y="90.2695">requestRepository:</text><text fill="#000000" font-family="sans-serif" font-size="20" lengthAdjust="spacing" textLength="179" x="1785" y="113.8242">RequestRepository</text><rect fill="#E3E3E3" height="61.1094" rx="2.5" ry="2.5" style="stroke:#181818;stroke-width:0.5;" width="194" x="1777.5" y="2246.1055"/><text fill="#000000" font-family="sans-serif" font-size="20" lengthAdjust="spacing" textLength="180" x="1784.5" y="2272.4414">requestRepository:</text><text fill="#000000" font-family="sans-serif" font-size="20" lengthAdjust="spacing" textLength="179" x="1785" y="2295.9961">RequestRepository</text><rect fill="#E3E3E3" height="61.1094" rx="2.5" ry="2.5" style="stroke:#181818;stroke-width:0.5;" width="238" x="1981.5" y="63.9336"/><text fill="#000000" font-family="sans-serif" font-size="20" lengthAdjust="spacing" textLength="224" x="1988.5" y="90.2695">commissionRepository:</text><text fill="#000000" font-family="sans-serif" font-size="20" lengthAdjust="spacing" textLength="222" x="1989.5" y="113.8242">CommissionRepository</text><rect fill="#E3E3E3" height="61.1094" rx="2.5" ry="2.5" style="stroke:#181818;stroke-width:0.5;" width="238" x="1981.5" y="2246.1055"/><text fill="#000000" font-family="sans-serif" font-size="20" lengthAdjust="spacing" textLength="224" x="1988.5" y="2272.4414">commissionRepository:</text><text fill="#000000" font-family="sans-serif" font-size="20" lengthAdjust="spacing" textLength="222" x="1989.5" y="2295.9961">CommissionRepository</text><rect fill="#E3E3E3" height="61.1094" rx="2.5" ry="2.5" style="stroke:#181818;stroke-width:0.5;" width="174" x="2229.5" y="63.9336"/><text fill="#000000" font-family="sans-serif" font-size="20" lengthAdjust="spacing" textLength="160" x="2236.5" y="90.2695">clientRepository:</text><text fill="#000000" font-family="sans-serif" font-size="20" lengthAdjust="spacing" textLength="158" x="2237.5" y="113.8242">ClientRepository</text><rect fill="#E3E3E3" height="61.1094" rx="2.5" ry="2.5" style="stroke:#181818;stroke-width:0.5;" width="174" x="2229.5" y="2246.1055"/><text fill="#000000" font-family="sans-serif" font-size="20" lengthAdjust="spacing" textLength="160" x="2236.5" y="2272.4414">clientRepository:</text><text fill="#000000" font-family="sans-serif" font-size="20" lengthAdjust="spacing" textLength="158" x="2237.5" y="2295.9961">ClientRepository</text><rect fill="#E3E3E3" height="61.1094" rx="2.5" ry="2.5" style="stroke:#181818;stroke-width:0.5;" width="156" x="2413.5" y="2246.1055"/><text fill="#000000" font-family="sans-serif" font-size="20" lengthAdjust="spacing" textLength="142" x="2420.5" y="2272.4414">advertisement:</text><text fill="#000000" font-family="sans-serif" font-size="20" lengthAdjust="spacing" textLength="139" x="2422" y="2295.9961">Advertisement</text><rect fill="#E3E3E3" height="61.1094" rx="2.5" ry="2.5" style="stroke:#181818;stroke-width:0.5;" width="68" x="2579.5" y="2246.1055"/><text fill="#000000" font-family="sans-serif" font-size="20" lengthAdjust="spacing" textLength="54" x="2586.5" y="2272.4414">store:</text><text fill="#000000" font-family="sans-serif" font-size="20" lengthAdjust="spacing" textLength="49" x="2589" y="2295.9961">Store</text><rect fill="#E3E3E3" height="61.1094" rx="2.5" ry="2.5" style="stroke:#181818;stroke-width:0.5;" width="92" x="2657.5" y="2246.1055"/><text fill="#000000" font-family="sans-serif" font-size="20" lengthAdjust="spacing" textLength="78" x="2664.5" y="2272.4414">request:</text><text fill="#000000" font-family="sans-serif" font-size="20" lengthAdjust="spacing" textLength="77" x="2665" y="2295.9961">Request</text><rect fill="#E3E3E3" height="61.1094" rx="2.5" ry="2.5" style="stroke:#181818;stroke-width:0.5;" width="136" x="2759.5" y="2246.1055"/><text fill="#000000" font-family="sans-serif" font-size="20" lengthAdjust="spacing" textLength="122" x="2766.5" y="2272.4414">commission:</text><text fill="#000000" font-family="sans-serif" font-size="20" lengthAdjust="spacing" textLength="120" x="2767.5" y="2295.9961">Commission</text><rect fill="#E3E3E3" height="61.1094" rx="2.5" ry="2.5" style="stroke:#181818;stroke-width:0.5;" width="163" x="2905.5" y="2246.1055"/><text fill="#000000" font-family="sans-serif" font-size="20" lengthAdjust="spacing" textLength="149" x="2912.5" y="2272.4414">purchaseOrder:</text><text fill="#000000" font-family="sans-serif" font-size="20" lengthAdjust="spacing" textLength="141" x="2916.5" y="2295.9961">PurchaseOrder</text><rect fill="#FFFFFF" height="2102.0625" style="stroke:#181818;stroke-width:1.0;" width="10" x="103.5" y="136.043"/><rect fill="#FFFFFF" height="86.1094" style="stroke:#181818;stroke-width:1.0;" width="10" x="403.5" y="165.5977"/><rect fill="#FFFFFF" height="1939.8438" style="stroke:#181818;stroke-width:1.0;" width="10" x="403.5" y="289.2617"/><rect fill="#FFFFFF" height="1864.7344" style="stroke:#181818;stroke-width:1.0;" width="10" x="707.5" y="326.8164"/><rect fill="#FFFFFF" height="37.5547" style="stroke:#181818;stroke-width:1.0;" width="10" x="894.5" y="364.3711"/><rect fill="#FFFFFF" height="37.5547" style="stroke:#181818;stroke-width:1.0;" width="10" x="1053.5" y="439.4805"/><rect fill="#FFFFFF" height="37.5547" style="stroke:#181818;stroke-width:1.0;" width="10" x="1053.5" y="514.5898"/><rect fill="#FFFFFF" height="37.5547" style="stroke:#181818;stroke-width:1.0;" width="10" x="1053.5" y="589.6992"/><rect fill="#FFFFFF" height="37.5547" style="stroke:#181818;stroke-width:1.0;" width="10" x="1053.5" y="664.8086"/><rect fill="#FFFFFF" height="37.5547" style="stroke:#181818;stroke-width:1.0;" width="10" x="1053.5" y="739.918"/><rect fill="#FFFFFF" height="37.5547" style="stroke:#181818;stroke-width:1.0;" width="10" x="1053.5" y="815.0273"/><rect fill="#FFFFFF" height="109.6641" style="stroke:#181818;stroke-width:1.0;" width="10" x="1453.5" y="1364.3477"/><rect fill="#FFFFFF" height="109.6641" style="stroke:#181818;stroke-width:1.0;" width="10" x="1453.5" y="1586.6758"/><rect fill="#FFFFFF" height="112.6641" style="stroke:#181818;stroke-width:1.0;" width="10" x="1453.5" y="1733.8945"/><rect fill="#FFFFFF" height="112.6641" style="stroke:#181818;stroke-width:1.0;" width="10" x="1453.5" y="2034.332"/><rect fill="#FFFFFF" height="109.6641" style="stroke:#181818;stroke-width:1.0;" width="10" x="1677.5" y="1217.1289"/><rect fill="#FFFFFF" height="112.6641" style="stroke:#181818;stroke-width:1.0;" width="10" x="1677.5" y="1884.1133"/><rect fill="#FFFFFF" height="109.6641" style="stroke:#181818;stroke-width:1.0;" width="10" x="1869.5" y="922.6914"/><rect fill="#FFFFFF" height="109.6641" style="stroke:#181818;stroke-width:1.0;" width="10" x="2095.5" y="1069.9102"/><rect fill="#FFFFFF" height="37.5547" style="stroke:#181818;stroke-width:1.0;" width="10" x="2311.5" y="1511.5664"/><rect fill="#FFFFFF" height="37.5547" style="stroke:#181818;stroke-width:1.0;" width="10" x="2486.5" y="2071.8867"/><rect fill="#FFFFFF" height="37.5547" style="stroke:#181818;stroke-width:1.0;" width="10" x="2608.5" y="1921.668"/><rect fill="#FFFFFF" height="37.5547" style="stroke:#181818;stroke-width:1.0;" width="10" x="2982" y="1771.4492"/><polygon fill="#181818" points="391.5,161.5977,401.5,165.5977,391.5,169.5977,395.5,165.5977" style="stroke:#181818;stroke-width:1.0;"/><line style="stroke:#181818;stroke-width:1.0;" x1="113.5" x2="397.5" y1="165.5977" y2="165.5977"/><text fill="#000000" font-family="sans-serif" font-size="20" font-weight="bold" lengthAdjust="spacing" textLength="13" x="120.5" y="159.3789">1</text><text fill="#000000" font-family="sans-serif" font-size="20" lengthAdjust="spacing" textLength="236" x="137.5" y="159.3789">asks to import a new file</text><polygon fill="#181818" points="593,199.1523,603,203.1523,593,207.1523,597,203.1523" style="stroke:#181818;stroke-width:1.0;"/><line style="stroke:#181818;stroke-width:1.0;" x1="413.5" x2="599" y1="203.1523" y2="203.1523"/><text fill="#000000" font-family="sans-serif" font-size="20" font-weight="bold" lengthAdjust="spacing" textLength="13" x="420.5" y="196.9336">2</text><text fill="#000000" font-family="sans-serif" font-size="20" lengthAdjust="spacing" textLength="58" x="437.5" y="196.9336">create</text><rect fill="#E3E3E3" height="37.5547" rx="2.5" ry="2.5" style="stroke:#181818;stroke-width:0.5;" width="215" x="605" y="173.5977"/><text fill="#000000" font-family="sans-serif" font-size="20" lengthAdjust="spacing" textLength="201" x="612" y="199.9336">:ImportFileController</text><polygon fill="#181818" points="124.5,247.707,114.5,251.707,124.5,255.707,120.5,251.707" style="stroke:#181818;stroke-width:1.0;"/><line style="stroke:#181818;stroke-width:1.0;stroke-dasharray:2.0,2.0;" x1="118.5" x2="407.5" y1="251.707" y2="251.707"/><text fill="#000000" font-family="sans-serif" font-size="20" font-weight="bold" lengthAdjust="spacing" textLength="13" x="130.5" y="245.4883">3</text><text fill="#000000" font-family="sans-serif" font-size="20" lengthAdjust="spacing" textLength="145" x="147.5" y="245.4883">shows file's list</text><polygon fill="#181818" points="391.5,285.2617,401.5,289.2617,391.5,293.2617,395.5,289.2617" style="stroke:#181818;stroke-width:1.0;"/><line style="stroke:#181818;stroke-width:1.0;" x1="113.5" x2="397.5" y1="289.2617" y2="289.2617"/><text fill="#000000" font-family="sans-serif" font-size="20" font-weight="bold" lengthAdjust="spacing" textLength="13" x="120.5" y="283.043">4</text><text fill="#000000" font-family="sans-serif" font-size="20" lengthAdjust="spacing" textLength="101" x="137.5" y="283.043">selects file</text><polygon fill="#181818" points="695.5,322.8164,705.5,326.8164,695.5,330.8164,699.5,326.8164" style="stroke:#181818;stroke-width:1.0;"/><line style="stroke:#181818;stroke-width:1.0;" x1="413.5" x2="701.5" y1="326.8164" y2="326.8164"/><text fill="#000000" font-family="sans-serif" font-size="20" font-weight="bold" lengthAdjust="spacing" textLength="13" x="420.5" y="320.5977">5</text><text fill="#000000" font-family="sans-serif" font-size="20" lengthAdjust="spacing" textLength="258" x="437.5" y="320.5977">getDataFromFile(fileName)</text><polygon fill="#181818" points="882.5,360.3711,892.5,364.3711,882.5,368.3711,886.5,364.3711" style="stroke:#181818;stroke-width:1.0;"/><line style="stroke:#181818;stroke-width:1.0;" x1="717.5" x2="888.5" y1="364.3711" y2="364.3711"/><text fill="#000000" font-family="sans-serif" font-size="20" font-weight="bold" lengthAdjust="spacing" textLength="13" x="724.5" y="358.1523">6</text><text fill="#000000" font-family="sans-serif" font-size="20" lengthAdjust="spacing" textLength="123" x="741.5" y="358.1523">getInstance()</text><polygon fill="#181818" points="728.5,397.9258,718.5,401.9258,728.5,405.9258,724.5,401.9258" style="stroke:#181818;stroke-width:1.0;"/><line style="stroke:#181818;stroke-width:1.0;stroke-dasharray:2.0,2.0;" x1="722.5" x2="898.5" y1="401.9258" y2="401.9258"/><text fill="#000000" font-family="sans-serif" font-size="20" font-weight="bold" lengthAdjust="spacing" textLength="13" x="734.5" y="395.707">7</text><text fill="#000000" font-family="sans-serif" font-size="20" lengthAdjust="spacing" textLength="114" x="751.5" y="395.707">repositories</text><polygon fill="#181818" points="1041.5,435.4805,1051.5,439.4805,1041.5,443.4805,1045.5,439.4805" style="stroke:#181818;stroke-width:1.0;"/><line style="stroke:#181818;stroke-width:1.0;" x1="717.5" x2="1047.5" y1="439.4805" y2="439.4805"/><text fill="#000000" font-family="sans-serif" font-size="20" font-weight="bold" lengthAdjust="spacing" textLength="13" x="724.5" y="433.2617">8</text><text fill="#000000" font-family="sans-serif" font-size="20" lengthAdjust="spacing" textLength="285" x="741.5" y="433.2617">getAdvertisementRepository()</text><polygon fill="#181818" points="728.5,473.0352,718.5,477.0352,728.5,481.0352,724.5,477.0352" style="stroke:#181818;stroke-width:1.0;"/><line style="stroke:#181818;stroke-width:1.0;stroke-dasharray:2.0,2.0;" x1="722.5" x2="1057.5" y1="477.0352" y2="477.0352"/><text fill="#000000" font-family="sans-serif" font-size="20" font-weight="bold" lengthAdjust="spacing" textLength="13" x="734.5" y="470.8164">9</text><text fill="#000000" font-family="sans-serif" font-size="20" lengthAdjust="spacing" textLength="241" x="751.5" y="470.8164">AdvertisementRepository</text><polygon fill="#181818" points="1041.5,510.5898,1051.5,514.5898,1041.5,518.5898,1045.5,514.5898" style="stroke:#181818;stroke-width:1.0;"/><line style="stroke:#181818;stroke-width:1.0;" x1="717.5" x2="1047.5" y1="514.5898" y2="514.5898"/><text fill="#000000" font-family="sans-serif" font-size="20" font-weight="bold" lengthAdjust="spacing" textLength="26" x="724.5" y="508.3711">10</text><text fill="#000000" font-family="sans-serif" font-size="20" lengthAdjust="spacing" textLength="195" x="754.5" y="508.3711">getStoreRepository()</text><polygon fill="#181818" points="728.5,548.1445,718.5,552.1445,728.5,556.1445,724.5,552.1445" style="stroke:#181818;stroke-width:1.0;"/><line style="stroke:#181818;stroke-width:1.0;stroke-dasharray:2.0,2.0;" x1="722.5" x2="1057.5" y1="552.1445" y2="552.1445"/><text fill="#000000" font-family="sans-serif" font-size="20" font-weight="bold" lengthAdjust="spacing" textLength="26" x="734.5" y="545.9258">11</text><text fill="#000000" font-family="sans-serif" font-size="20" lengthAdjust="spacing" textLength="151" x="764.5" y="545.9258">StoreRepository</text><polygon fill="#181818" points="1041.5,585.6992,1051.5,589.6992,1041.5,593.6992,1045.5,589.6992" style="stroke:#181818;stroke-width:1.0;"/><line style="stroke:#181818;stroke-width:1.0;" x1="717.5" x2="1047.5" y1="589.6992" y2="589.6992"/><text fill="#000000" font-family="sans-serif" font-size="20" font-weight="bold" lengthAdjust="spacing" textLength="26" x="724.5" y="583.4805">12</text><text fill="#000000" font-family="sans-serif" font-size="20" lengthAdjust="spacing" textLength="223" x="754.5" y="583.4805">getRequestRepository()</text><polygon fill="#181818" points="728.5,623.2539,718.5,627.2539,728.5,631.2539,724.5,627.2539" style="stroke:#181818;stroke-width:1.0;"/><line style="stroke:#181818;stroke-width:1.0;stroke-dasharray:2.0,2.0;" x1="722.5" x2="1057.5" y1="627.2539" y2="627.2539"/><text fill="#000000" font-family="sans-serif" font-size="20" font-weight="bold" lengthAdjust="spacing" textLength="26" x="734.5" y="621.0352">13</text><text fill="#000000" font-family="sans-serif" font-size="20" lengthAdjust="spacing" textLength="179" x="764.5" y="621.0352">RequestRepository</text><polygon fill="#181818" points="1041.5,660.8086,1051.5,664.8086,1041.5,668.8086,1045.5,664.8086" style="stroke:#181818;stroke-width:1.0;"/><line style="stroke:#181818;stroke-width:1.0;" x1="717.5" x2="1047.5" y1="664.8086" y2="664.8086"/><text fill="#000000" font-family="sans-serif" font-size="20" font-weight="bold" lengthAdjust="spacing" textLength="26" x="724.5" y="658.5898">14</text><text fill="#000000" font-family="sans-serif" font-size="20" lengthAdjust="spacing" textLength="266" x="754.5" y="658.5898">getCommissionRepository()</text><polygon fill="#181818" points="728.5,698.3633,718.5,702.3633,728.5,706.3633,724.5,702.3633" style="stroke:#181818;stroke-width:1.0;"/><line style="stroke:#181818;stroke-width:1.0;stroke-dasharray:2.0,2.0;" x1="722.5" x2="1057.5" y1="702.3633" y2="702.3633"/><text fill="#000000" font-family="sans-serif" font-size="20" font-weight="bold" lengthAdjust="spacing" textLength="26" x="734.5" y="696.1445">15</text><text fill="#000000" font-family="sans-serif" font-size="20" lengthAdjust="spacing" textLength="222" x="764.5" y="696.1445">CommissionRepository</text><polygon fill="#181818" points="1041.5,735.918,1051.5,739.918,1041.5,743.918,1045.5,739.918" style="stroke:#181818;stroke-width:1.0;"/><line style="stroke:#181818;stroke-width:1.0;" x1="717.5" x2="1047.5" y1="739.918" y2="739.918"/><text fill="#000000" font-family="sans-serif" font-size="20" font-weight="bold" lengthAdjust="spacing" textLength="26" x="724.5" y="733.6992">16</text><text fill="#000000" font-family="sans-serif" font-size="20" lengthAdjust="spacing" textLength="202" x="754.5" y="733.6992">getClientRepository()</text><polygon fill="#181818" points="728.5,773.4727,718.5,777.4727,728.5,781.4727,724.5,777.4727" style="stroke:#181818;stroke-width:1.0;"/><line style="stroke:#181818;stroke-width:1.0;stroke-dasharray:2.0,2.0;" x1="722.5" x2="1057.5" y1="777.4727" y2="777.4727"/><text fill="#000000" font-family="sans-serif" font-size="20" font-weight="bold" lengthAdjust="spacing" textLength="26" x="734.5" y="771.2539">17</text><text fill="#000000" font-family="sans-serif" font-size="20" lengthAdjust="spacing" textLength="158" x="764.5" y="771.2539">ClientRepository</text><polygon fill="#181818" points="1041.5,811.0273,1051.5,815.0273,1041.5,819.0273,1045.5,815.0273" style="stroke:#181818;stroke-width:1.0;"/><line style="stroke:#181818;stroke-width:1.0;" x1="717.5" x2="1047.5" y1="815.0273" y2="815.0273"/><text fill="#000000" font-family="sans-serif" font-size="20" font-weight="bold" lengthAdjust="spacing" textLength="26" x="724.5" y="808.8086">18</text><text fill="#000000" font-family="sans-serif" font-size="20" lengthAdjust="spacing" textLength="287" x="754.5" y="808.8086">getPurchaseOrderRepository()</text><polygon fill="#181818" points="728.5,848.582,718.5,852.582,728.5,856.582,724.5,852.582" style="stroke:#181818;stroke-width:1.0;"/><line style="stroke:#181818;stroke-width:1.0;stroke-dasharray:2.0,2.0;" x1="722.5" x2="1057.5" y1="852.582" y2="852.582"/><text fill="#000000" font-family="sans-serif" font-size="20" font-weight="bold" lengthAdjust="spacing" textLength="26" x="734.5" y="846.3633">19</text><text fill="#000000" font-family="sans-serif" font-size="20" lengthAdjust="spacing" textLength="243" x="764.5" y="846.3633">PurchaseOrderRepository</text><path d="M595,867.582 L686,867.582 L686,883.1367 L676,893.1367 L595,893.1367 L595,867.582 " fill="#EEEEEE" style="stroke:#000000;stroke-width:1.5;"/><rect fill="none" height="1287.4141" style="stroke:#000000;stroke-width:1.5;" width="2483.5" x="595" y="867.582"/><text fill="#000000" font-family="sans-serif" font-size="20" font-weight="bold" lengthAdjust="spacing" textLength="46" x="610" y="887.918">loop</text><polygon fill="#181818" points="1857.5,918.6914,1867.5,922.6914,1857.5,926.6914,1861.5,922.6914" style="stroke:#181818;stroke-width:1.0;"/><line style="stroke:#181818;stroke-width:1.0;" x1="717.5" x2="1863.5" y1="922.6914" y2="922.6914"/><text fill="#000000" font-family="sans-serif" font-size="20" font-weight="bold" lengthAdjust="spacing" textLength="26" x="724.5" y="916.4727">20</text><text fill="#000000" font-family="sans-serif" font-size="20" lengthAdjust="spacing" textLength="522" x="754.5" y="916.4727">createRequest(property, owner, agent, DateOfRequest)</text><polygon fill="#181818" points="2645.5,956.2461,2655.5,960.2461,2645.5,964.2461,2649.5,960.2461" style="stroke:#181818;stroke-width:1.0;"/><line style="stroke:#181818;stroke-width:1.0;" x1="1879.5" x2="2651.5" y1="960.2461" y2="960.2461"/><text fill="#000000" font-family="sans-serif" font-size="20" font-weight="bold" lengthAdjust="spacing" textLength="26" x="1886.5" y="954.0273">21</text><text fill="#000000" font-family="sans-serif" font-size="20" lengthAdjust="spacing" textLength="522" x="1916.5" y="954.0273">createRequest(property, owner, agent, DateOfRequest)</text><rect fill="#E3E3E3" height="61.1094" rx="2.5" ry="2.5" style="stroke:#181818;stroke-width:0.5;" width="92" x="2657.5" y="930.6914"/><text fill="#000000" font-family="sans-serif" font-size="20" lengthAdjust="spacing" textLength="78" x="2664.5" y="957.0273">request:</text><text fill="#000000" font-family="sans-serif" font-size="20" lengthAdjust="spacing" textLength="77" x="2665" y="980.582">Request</text><polygon fill="#181818" points="728.5,1028.3555,718.5,1032.3555,728.5,1036.3555,724.5,1032.3555" style="stroke:#181818;stroke-width:1.0;"/><line style="stroke:#181818;stroke-width:1.0;stroke-dasharray:2.0,2.0;" x1="722.5" x2="1873.5" y1="1032.3555" y2="1032.3555"/><text fill="#000000" font-family="sans-serif" font-size="20" font-weight="bold" lengthAdjust="spacing" textLength="26" x="734.5" y="1026.1367">22</text><text fill="#000000" font-family="sans-serif" font-size="20" lengthAdjust="spacing" textLength="72" x="764.5" y="1026.1367">request</text><polygon fill="#181818" points="2083.5,1065.9102,2093.5,1069.9102,2083.5,1073.9102,2087.5,1069.9102" style="stroke:#181818;stroke-width:1.0;"/><line style="stroke:#181818;stroke-width:1.0;" x1="717.5" x2="2089.5" y1="1069.9102" y2="1069.9102"/><text fill="#000000" font-family="sans-serif" font-size="20" font-weight="bold" lengthAdjust="spacing" textLength="26" x="724.5" y="1063.6914">23</text><text fill="#000000" font-family="sans-serif" font-size="20" lengthAdjust="spacing" textLength="543" x="754.5" y="1063.6914">createCommission(commissionType, "commissionValue)</text><polygon fill="#181818" points="2747.5,1103.4648,2757.5,1107.4648,2747.5,1111.4648,2751.5,1107.4648" style="stroke:#181818;stroke-width:1.0;"/><line style="stroke:#181818;stroke-width:1.0;" x1="2105.5" x2="2753.5" y1="1107.4648" y2="1107.4648"/><text fill="#000000" font-family="sans-serif" font-size="20" font-weight="bold" lengthAdjust="spacing" textLength="26" x="2112.5" y="1101.2461">24</text><text fill="#000000" font-family="sans-serif" font-size="20" lengthAdjust="spacing" textLength="543" x="2142.5" y="1101.2461">createCommission(commissionType, "commissionValue)</text><rect fill="#E3E3E3" height="61.1094" rx="2.5" ry="2.5" style="stroke:#181818;stroke-width:0.5;" width="136" x="2759.5" y="1077.9102"/><text fill="#000000" font-family="sans-serif" font-size="20" lengthAdjust="spacing" textLength="122" x="2766.5" y="1104.2461">commission:</text><text fill="#000000" font-family="sans-serif" font-size="20" lengthAdjust="spacing" textLength="120" x="2767.5" y="1127.8008">Commission</text><polygon fill="#181818" points="728.5,1175.5742,718.5,1179.5742,728.5,1183.5742,724.5,1179.5742" style="stroke:#181818;stroke-width:1.0;"/><line style="stroke:#181818;stroke-width:1.0;stroke-dasharray:2.0,2.0;" x1="722.5" x2="2099.5" y1="1179.5742" y2="1179.5742"/><text fill="#000000" font-family="sans-serif" font-size="20" font-weight="bold" lengthAdjust="spacing" textLength="26" x="734.5" y="1173.3555">25</text><text fill="#000000" font-family="sans-serif" font-size="20" lengthAdjust="spacing" textLength="116" x="764.5" y="1173.3555">commission</text><polygon fill="#181818" points="1665.5,1213.1289,1675.5,1217.1289,1665.5,1221.1289,1669.5,1217.1289" style="stroke:#181818;stroke-width:1.0;"/><line style="stroke:#181818;stroke-width:1.0;" x1="717.5" x2="1671.5" y1="1217.1289" y2="1217.1289"/><text fill="#000000" font-family="sans-serif" font-size="20" font-weight="bold" lengthAdjust="spacing" textLength="26" x="724.5" y="1210.9102">26</text><text fill="#000000" font-family="sans-serif" font-size="20" lengthAdjust="spacing" textLength="648" x="754.5" y="1210.9102">createStore(address, storeDesignation, storeEmail, storePhoneNum)</text><polygon fill="#181818" points="2567.5,1250.6836,2577.5,1254.6836,2567.5,1258.6836,2571.5,1254.6836" style="stroke:#181818;stroke-width:1.0;"/><line style="stroke:#181818;stroke-width:1.0;" x1="1687.5" x2="2573.5" y1="1254.6836" y2="1254.6836"/><text fill="#000000" font-family="sans-serif" font-size="20" font-weight="bold" lengthAdjust="spacing" textLength="26" x="1694.5" y="1248.4648">27</text><text fill="#000000" font-family="sans-serif" font-size="20" lengthAdjust="spacing" textLength="648" x="1724.5" y="1248.4648">createStore(address, storeDesignation, storeEmail, storePhoneNum)</text><rect fill="#E3E3E3" height="61.1094" rx="2.5" ry="2.5" style="stroke:#181818;stroke-width:0.5;" width="68" x="2579.5" y="1225.1289"/><text fill="#000000" font-family="sans-serif" font-size="20" lengthAdjust="spacing" textLength="54" x="2586.5" y="1251.4648">store:</text><text fill="#000000" font-family="sans-serif" font-size="20" lengthAdjust="spacing" textLength="49" x="2589" y="1275.0195">Store</text><polygon fill="#181818" points="728.5,1322.793,718.5,1326.793,728.5,1330.793,724.5,1326.793" style="stroke:#181818;stroke-width:1.0;"/><line style="stroke:#181818;stroke-width:1.0;stroke-dasharray:2.0,2.0;" x1="722.5" x2="1681.5" y1="1326.793" y2="1326.793"/><text fill="#000000" font-family="sans-serif" font-size="20" font-weight="bold" lengthAdjust="spacing" textLength="26" x="734.5" y="1320.5742">28</text><text fill="#000000" font-family="sans-serif" font-size="20" lengthAdjust="spacing" textLength="48" x="764.5" y="1320.5742">store</text><polygon fill="#181818" points="1441.5,1360.3477,1451.5,1364.3477,1441.5,1368.3477,1445.5,1364.3477" style="stroke:#181818;stroke-width:1.0;"/><line style="stroke:#181818;stroke-width:1.0;" x1="717.5" x2="1447.5" y1="1364.3477" y2="1364.3477"/><text fill="#000000" font-family="sans-serif" font-size="20" font-weight="bold" lengthAdjust="spacing" textLength="26" x="724.5" y="1358.1289">29</text><text fill="#000000" font-family="sans-serif" font-size="20" lengthAdjust="spacing" textLength="687" x="754.5" y="1358.1289">createAdvertisement(dateOfAdvertisement, request, commission, store)</text><polygon fill="#181818" points="2401.5,1397.9023,2411.5,1401.9023,2401.5,1405.9023,2405.5,1401.9023" style="stroke:#181818;stroke-width:1.0;"/><line style="stroke:#181818;stroke-width:1.0;" x1="1463.5" x2="2407.5" y1="1401.9023" y2="1401.9023"/><text fill="#000000" font-family="sans-serif" font-size="20" font-weight="bold" lengthAdjust="spacing" textLength="26" x="1470.5" y="1395.6836">30</text><text fill="#000000" font-family="sans-serif" font-size="20" lengthAdjust="spacing" textLength="687" x="1500.5" y="1395.6836">createAdvertisement(dateOfAdvertisement, request, commission, store)</text><rect fill="#E3E3E3" height="61.1094" rx="2.5" ry="2.5" style="stroke:#181818;stroke-width:0.5;" width="156" x="2413.5" y="1372.3477"/><text fill="#000000" font-family="sans-serif" font-size="20" lengthAdjust="spacing" textLength="142" x="2420.5" y="1398.6836">advertisement:</text><text fill="#000000" font-family="sans-serif" font-size="20" lengthAdjust="spacing" textLength="139" x="2422" y="1422.2383">Advertisement</text><polygon fill="#181818" points="728.5,1470.0117,718.5,1474.0117,728.5,1478.0117,724.5,1474.0117" style="stroke:#181818;stroke-width:1.0;"/><line style="stroke:#181818;stroke-width:1.0;stroke-dasharray:2.0,2.0;" x1="722.5" x2="1457.5" y1="1474.0117" y2="1474.0117"/><text fill="#000000" font-family="sans-serif" font-size="20" font-weight="bold" lengthAdjust="spacing" textLength="26" x="734.5" y="1467.793">31</text><text fill="#000000" font-family="sans-serif" font-size="20" lengthAdjust="spacing" textLength="136" x="764.5" y="1467.793">advertisement</text><polygon fill="#181818" points="2299.5,1507.5664,2309.5,1511.5664,2299.5,1515.5664,2303.5,1511.5664" style="stroke:#181818;stroke-width:1.0;"/><line style="stroke:#181818;stroke-width:1.0;" x1="717.5" x2="2305.5" y1="1511.5664" y2="1511.5664"/><text fill="#000000" font-family="sans-serif" font-size="20" font-weight="bold" lengthAdjust="spacing" textLength="26" x="724.5" y="1505.3477">32</text><text fill="#000000" font-family="sans-serif" font-size="20" lengthAdjust="spacing" textLength="216" x="754.5" y="1505.3477">getClient(legacyClient)</text><polygon fill="#181818" points="728.5,1545.1211,718.5,1549.1211,728.5,1553.1211,724.5,1549.1211" style="stroke:#181818;stroke-width:1.0;"/><line style="stroke:#181818;stroke-width:1.0;stroke-dasharray:2.0,2.0;" x1="722.5" x2="2315.5" y1="1549.1211" y2="1549.1211"/><text fill="#000000" font-family="sans-serif" font-size="20" font-weight="bold" lengthAdjust="spacing" textLength="26" x="734.5" y="1542.9023">33</text><text fill="#000000" font-family="sans-serif" font-size="20" lengthAdjust="spacing" textLength="54" x="764.5" y="1542.9023">buyer</text><polygon fill="#181818" points="1441.5,1582.6758,1451.5,1586.6758,1441.5,1590.6758,1445.5,1586.6758" style="stroke:#181818;stroke-width:1.0;"/><line style="stroke:#181818;stroke-width:1.0;" x1="717.5" x2="1447.5" y1="1586.6758" y2="1586.6758"/><text fill="#000000" font-family="sans-serif" font-size="20" font-weight="bold" lengthAdjust="spacing" textLength="26" x="724.5" y="1580.457">34</text><text fill="#000000" font-family="sans-serif" font-size="20" lengthAdjust="spacing" textLength="496" x="754.5" y="1580.457">createPurchaseOrder(buyer, dateOfSale, priceBuyer)</text><polygon fill="#181818" points="2893.5,1620.2305,2903.5,1624.2305,2893.5,1628.2305,2897.5,1624.2305" style="stroke:#181818;stroke-width:1.0;"/><line style="stroke:#181818;stroke-width:1.0;" x1="1463.5" x2="2899.5" y1="1624.2305" y2="1624.2305"/><text fill="#000000" font-family="sans-serif" font-size="20" font-weight="bold" lengthAdjust="spacing" textLength="26" x="1470.5" y="1618.0117">35</text><text fill="#000000" font-family="sans-serif" font-size="20" lengthAdjust="spacing" textLength="496" x="1500.5" y="1618.0117">createPurchaseOrder(buyer, dateOfSale, priceBuyer)</text><rect fill="#E3E3E3" height="61.1094" rx="2.5" ry="2.5" style="stroke:#181818;stroke-width:0.5;" width="163" x="2905.5" y="1594.6758"/><text fill="#000000" font-family="sans-serif" font-size="20" lengthAdjust="spacing" textLength="149" x="2912.5" y="1621.0117">purchaseOrder:</text><text fill="#000000" font-family="sans-serif" font-size="20" lengthAdjust="spacing" textLength="141" x="2916.5" y="1644.5664">PurchaseOrder</text><polygon fill="#181818" points="728.5,1692.3398,718.5,1696.3398,728.5,1700.3398,724.5,1696.3398" style="stroke:#181818;stroke-width:1.0;"/><line style="stroke:#181818;stroke-width:1.0;stroke-dasharray:2.0,2.0;" x1="722.5" x2="1457.5" y1="1696.3398" y2="1696.3398"/><text fill="#000000" font-family="sans-serif" font-size="20" font-weight="bold" lengthAdjust="spacing" textLength="26" x="734.5" y="1690.1211">36</text><text fill="#000000" font-family="sans-serif" font-size="20" lengthAdjust="spacing" textLength="143" x="764.5" y="1690.1211">purchaseOrder</text><polygon fill="#181818" points="1441.5,1729.8945,1451.5,1733.8945,1441.5,1737.8945,1445.5,1733.8945" style="stroke:#181818;stroke-width:1.0;"/><line style="stroke:#181818;stroke-width:1.0;" x1="717.5" x2="1447.5" y1="1733.8945" y2="1733.8945"/><text fill="#000000" font-family="sans-serif" font-size="20" font-weight="bold" lengthAdjust="spacing" textLength="26" x="724.5" y="1727.6758">37</text><text fill="#000000" font-family="sans-serif" font-size="20" lengthAdjust="spacing" textLength="335" x="754.5" y="1727.6758">addPurchaseOrder(purchaseOrder)</text><polygon fill="#181818" points="2970,1767.4492,2980,1771.4492,2970,1775.4492,2974,1771.4492" style="stroke:#181818;stroke-width:1.0;"/><line style="stroke:#181818;stroke-width:1.0;" x1="1463.5" x2="2976" y1="1771.4492" y2="1771.4492"/><text fill="#000000" font-family="sans-serif" font-size="20" font-weight="bold" lengthAdjust="spacing" textLength="26" x="1470.5" y="1765.2305">38</text><text fill="#000000" font-family="sans-serif" font-size="20" lengthAdjust="spacing" textLength="335" x="1500.5" y="1765.2305">addPurchaseOrder(purchaseOrder)</text><polygon fill="#181818" points="1474.5,1805.0039,1464.5,1809.0039,1474.5,1813.0039,1470.5,1809.0039" style="stroke:#181818;stroke-width:1.0;"/><line style="stroke:#181818;stroke-width:1.0;stroke-dasharray:2.0,2.0;" x1="1468.5" x2="2986" y1="1809.0039" y2="1809.0039"/><text fill="#000000" font-family="sans-serif" font-size="20" font-weight="bold" lengthAdjust="spacing" textLength="26" x="1480.5" y="1802.7852">39</text><text fill="#000000" font-family="sans-serif" font-size="20" lengthAdjust="spacing" textLength="6" x="1510.5" y="1802.7852"> </text><polygon fill="#181818" points="728.5,1842.5586,718.5,1846.5586,728.5,1850.5586,724.5,1846.5586" style="stroke:#181818;stroke-width:1.0;"/><line style="stroke:#181818;stroke-width:1.0;stroke-dasharray:2.0,2.0;" x1="722.5" x2="1457.5" y1="1846.5586" y2="1846.5586"/><text fill="#000000" font-family="sans-serif" font-size="20" font-weight="bold" lengthAdjust="spacing" textLength="26" x="734.5" y="1840.3398">40</text><text fill="#000000" font-family="sans-serif" font-size="20" lengthAdjust="spacing" textLength="6" x="764.5" y="1840.3398"> </text><polygon fill="#181818" points="1665.5,1880.1133,1675.5,1884.1133,1665.5,1888.1133,1669.5,1884.1133" style="stroke:#181818;stroke-width:1.0;"/><line style="stroke:#181818;stroke-width:1.0;" x1="717.5" x2="1671.5" y1="1884.1133" y2="1884.1133"/><text fill="#000000" font-family="sans-serif" font-size="20" font-weight="bold" lengthAdjust="spacing" textLength="26" x="724.5" y="1877.8945">41</text><text fill="#000000" font-family="sans-serif" font-size="20" lengthAdjust="spacing" textLength="148" x="754.5" y="1877.8945">addStore(store)</text><polygon fill="#181818" points="2596.5,1917.668,2606.5,1921.668,2596.5,1925.668,2600.5,1921.668" style="stroke:#181818;stroke-width:1.0;"/><line style="stroke:#181818;stroke-width:1.0;" x1="1687.5" x2="2602.5" y1="1921.668" y2="1921.668"/><text fill="#000000" font-family="sans-serif" font-size="20" font-weight="bold" lengthAdjust="spacing" textLength="26" x="1694.5" y="1915.4492">42</text><text fill="#000000" font-family="sans-serif" font-size="20" lengthAdjust="spacing" textLength="148" x="1724.5" y="1915.4492">addStore(store)</text><polygon fill="#181818" points="1698.5,1955.2227,1688.5,1959.2227,1698.5,1963.2227,1694.5,1959.2227" style="stroke:#181818;stroke-width:1.0;"/><line style="stroke:#181818;stroke-width:1.0;stroke-dasharray:2.0,2.0;" x1="1692.5" x2="2612.5" y1="1959.2227" y2="1959.2227"/><text fill="#000000" font-family="sans-serif" font-size="20" font-weight="bold" lengthAdjust="spacing" textLength="26" x="1704.5" y="1953.0039">43</text><text fill="#000000" font-family="sans-serif" font-size="20" lengthAdjust="spacing" textLength="6" x="1734.5" y="1953.0039"> </text><polygon fill="#181818" points="728.5,1992.7773,718.5,1996.7773,728.5,2000.7773,724.5,1996.7773" style="stroke:#181818;stroke-width:1.0;"/><line style="stroke:#181818;stroke-width:1.0;stroke-dasharray:2.0,2.0;" x1="722.5" x2="1681.5" y1="1996.7773" y2="1996.7773"/><text fill="#000000" font-family="sans-serif" font-size="20" font-weight="bold" lengthAdjust="spacing" textLength="26" x="734.5" y="1990.5586">44</text><text fill="#000000" font-family="sans-serif" font-size="20" lengthAdjust="spacing" textLength="6" x="764.5" y="1990.5586"> </text><polygon fill="#181818" points="1441.5,2030.332,1451.5,2034.332,1441.5,2038.332,1445.5,2034.332" style="stroke:#181818;stroke-width:1.0;"/><line style="stroke:#181818;stroke-width:1.0;" x1="717.5" x2="1447.5" y1="2034.332" y2="2034.332"/><text fill="#000000" font-family="sans-serif" font-size="20" font-weight="bold" lengthAdjust="spacing" textLength="26" x="724.5" y="2028.1133">45</text><text fill="#000000" font-family="sans-serif" font-size="20" lengthAdjust="spacing" textLength="326" x="754.5" y="2028.1133">addAdvertisement(advertisement)</text><polygon fill="#181818" points="2474.5,2067.8867,2484.5,2071.8867,2474.5,2075.8867,2478.5,2071.8867" style="stroke:#181818;stroke-width:1.0;"/><line style="stroke:#181818;stroke-width:1.0;" x1="1463.5" x2="2480.5" y1="2071.8867" y2="2071.8867"/><text fill="#000000" font-family="sans-serif" font-size="20" font-weight="bold" lengthAdjust="spacing" textLength="26" x="1470.5" y="2065.668">46</text><text fill="#000000" font-family="sans-serif" font-size="20" lengthAdjust="spacing" textLength="326" x="1500.5" y="2065.668">addAdvertisement(advertisement)</text><polygon fill="#181818" points="1474.5,2105.4414,1464.5,2109.4414,1474.5,2113.4414,1470.5,2109.4414" style="stroke:#181818;stroke-width:1.0;"/><line style="stroke:#181818;stroke-width:1.0;stroke-dasharray:2.0,2.0;" x1="1468.5" x2="2490.5" y1="2109.4414" y2="2109.4414"/><text fill="#000000" font-family="sans-serif" font-size="20" font-weight="bold" lengthAdjust="spacing" textLength="26" x="1480.5" y="2103.2227">47</text><text fill="#000000" font-family="sans-serif" font-size="20" lengthAdjust="spacing" textLength="6" x="1510.5" y="2103.2227"> </text><polygon fill="#181818" points="728.5,2142.9961,718.5,2146.9961,728.5,2150.9961,724.5,2146.9961" style="stroke:#181818;stroke-width:1.0;"/><line style="stroke:#181818;stroke-width:1.0;stroke-dasharray:2.0,2.0;" x1="722.5" x2="1457.5" y1="2146.9961" y2="2146.9961"/><text fill="#000000" font-family="sans-serif" font-size="20" font-weight="bold" lengthAdjust="spacing" textLength="26" x="734.5" y="2140.7773">48</text><text fill="#000000" font-family="sans-serif" font-size="20" lengthAdjust="spacing" textLength="6" x="764.5" y="2140.7773"> </text><polygon fill="#181818" points="424.5,2187.5508,414.5,2191.5508,424.5,2195.5508,420.5,2191.5508" style="stroke:#181818;stroke-width:1.0;"/><line style="stroke:#181818;stroke-width:1.0;stroke-dasharray:2.0,2.0;" x1="418.5" x2="711.5" y1="2191.5508" y2="2191.5508"/><text fill="#000000" font-family="sans-serif" font-size="20" font-weight="bold" lengthAdjust="spacing" textLength="26" x="430.5" y="2185.332">49</text><text fill="#000000" font-family="sans-serif" font-size="20" lengthAdjust="spacing" textLength="171" x="460.5" y="2185.332">operation success</text><polygon fill="#181818" points="124.5,2225.1055,114.5,2229.1055,124.5,2233.1055,120.5,2229.1055" style="stroke:#181818;stroke-width:1.0;"/><line style="stroke:#181818;stroke-width:1.0;stroke-dasharray:2.0,2.0;" x1="118.5" x2="407.5" y1="2229.1055" y2="2229.1055"/><text fill="#000000" font-family="sans-serif" font-size="20" font-weight="bold" lengthAdjust="spacing" textLength="26" x="130.5" y="2222.8867">50</text><text fill="#000000" font-family="sans-serif" font-size="20" lengthAdjust="spacing" textLength="236" x="160.5" y="2222.8867">shows operation success</text><!--SRC=[lLXBRzmu3BxxLmYvh5DCWBR7EIpG9XjWBctHsUof5zLc9a9aoP7a1jDVlxJaX-JNs9v9VR8bwYFrKQGfwcScSgfencNo32b9uP4MtDnBOVRiDv2FxoDTYv1C2fayAPa1CQe0RoQdoJCzmDuSEH05YQ7Ym7q1_KHJ-Sh4WJnIhY6A33Ce-h0ZUtWfG2H0xXWzbABnVdztJMx8Wtx_uMCKqS98KMG_GU5xOgGYL_kZDf1zIZCcc3QAuk0LePhWk1sCKATX2SkfCEHgkyjogSmzu_2mit8Fkr69Mzouafo3Gsm_Eok-GourGyKCj9Nq1q9PvSty4FsLQdGbJNy1Vch8G9XctN7xGtmQdh5uE8SZ8PB6MGWGzk68uy-etafLkaU7shztnoe6Ndgh4vbbJ6icHG1mEp1SyPtrCJZhRl-sC-JMSjPR6p3OvQrcQu2gcg2Qba5EMYRg_OzjFjXolT5GE2zKyaGrV5KfA9J_vd_R9JY27v6D0lQB6cZFUqJmgR_8pTzbN6rnpRCcHX9cJpUXHC0hUSH3RiKR58m6Eu1hS6LxuicxTmYIA40X9r5BeLYZR8kXBL-rnVrB4uu1QMLJy1IG4GirSCmLUebHMt80SqSDlSSyL4PiN2x-GZEu3X6yqBKJ7WOY-b6uHSITq9Yp4eYlcvsEFOs68EHxo_nPIrbhm3QC-UvAZxff5U6MV4n7qqYMEB77HhcQLEu_QdolQCc86PE87WVppJZ5HoVdpV3r6PpCvwTZrcpKLHmjuQkNvnSmTa7svZFPCtYLZZ5Urs2TedZeJxYIvJTYV3xxGtivM-KbdR78CPqIum9E-GCEMk2iplukglgjdBR4WK41zMP-_CC-dU_VaUr7R-tYYodWKkOjMk1jTzDeYjCgwyUvaZaM6iSDaQy2r8RWZLIO3S5g4Ru-LbAj-xqYorvSehPoi_2sIdpng-25Ylg8NITL5ubeiF8BZGe8SDUangusySRjdUFVOmuR_nBo7-K5UAVVgvIpG9KNOfaZ0bzy7XRfgt1hh2u5hNpK9y6tB230tLGRWsm55TCqLQ3rXjWht1reTX3K878ryaz66Q_Ulpr90L-AR3mRjBSiTokUFDYLFTOmdwbp3BCQQ-0kRLOswX4sO6l0c-iDDEO5bNcSskCRZ6tg8xhn75LP6b3NM51r7qROglHRGtoUpZGaK5Vhw58Mz0AYuLGsO7qOUBR7u5S8COS3JOxkOvYIgZ4HW3gSdeq_YoFULuTjgs7cEZVu0yGMUKCSjNlACLPpnHBuN8wVvKhNbq1lhb8yotL1SsIbwqX33uPZQ680FvkBXe2gCxCIkMxhU7CLtarZzCYM1vOEChYMiIRBuhvS9ki7_lACsUJAycqL-0IoQquv_ISBbsceQHv74VqO7J-0OS8BKjFCxinqT7QFQ9blBwVufDQHipj5tHpOsIwPSzPx3uXqVd-fRc6MbQ3zbnDT90d-vUTQrErFJZLNXvLqMwp_0m00]--></g></svg>