<?xml version="1.0" encoding="UTF-8" standalone="no"?><svg xmlns="http://www.w3.org/2000/svg" xmlns:xlink="http://www.w3.org/1999/xlink" contentStyleType="text/css" height="1313px" preserveAspectRatio="none" style="width:3465px;height:1313px;background:#FFFFFF;" version="1.1" viewBox="0 0 3465 1313" width="3465px" zoomAndPan="magnify"><defs/><g><!--class ImportFilesUI--><g id="elem_ImportFilesUI"><rect codeLine="8" fill="#F1F1F1" height="50" id="ImportFilesUI" rx="2.5" ry="2.5" style="stroke:#181818;stroke-width:0.5;" width="163" x="1416.5" y="7"/><ellipse cx="1432.5" cy="24" fill="#ADD1B2" rx="12" ry="12" style="stroke:#181818;stroke-width:1.0;"/><path d="M1435.3066,31.0801 Q1434.623,31.4316 1433.8711,31.6074 Q1433.1191,31.7832 1432.2891,31.7832 Q1429.3398,31.7832 1427.7871,29.8398 Q1426.2344,27.8965 1426.2344,24.2246 Q1426.2344,20.543 1427.7871,18.5996 Q1429.3398,16.6563 1432.2891,16.6563 Q1433.1191,16.6563 1433.8809,16.832 Q1434.6426,17.0078 1435.3066,17.3594 L1435.3066,20.5625 Q1434.5645,19.8789 1433.8662,19.5615 Q1433.168,19.2441 1432.4258,19.2441 Q1430.8438,19.2441 1430.0381,20.499 Q1429.2324,21.7539 1429.2324,24.2246 Q1429.2324,26.6855 1430.0381,27.9404 Q1430.8438,29.1953 1432.4258,29.1953 Q1433.168,29.1953 1433.8662,28.8779 Q1434.5645,28.5605 1435.3066,27.877 Z " fill="#000000"/><text fill="#000000" font-family="sans-serif" font-size="20" lengthAdjust="spacing" textLength="129" x="1447.5" y="31.5586">ImportFilesUI</text><line style="stroke:#181818;stroke-width:0.5;" x1="1417.5" x2="1578.5" y1="41" y2="41"/><line style="stroke:#181818;stroke-width:0.5;" x1="1417.5" x2="1578.5" y1="49" y2="49"/></g><!--class ImportFilesController--><g id="elem_ImportFilesController"><rect codeLine="10" fill="#F1F1F1" height="73.5547" id="ImportFilesController" rx="2.5" ry="2.5" style="stroke:#181818;stroke-width:0.5;" width="504" x="1246" y="117"/><ellipse cx="1391" cy="134" fill="#ADD1B2" rx="12" ry="12" style="stroke:#181818;stroke-width:1.0;"/><path d="M1393.8066,141.0801 Q1393.123,141.4316 1392.3711,141.6074 Q1391.6191,141.7832 1390.7891,141.7832 Q1387.8398,141.7832 1386.2871,139.8398 Q1384.7344,137.8965 1384.7344,134.2246 Q1384.7344,130.543 1386.2871,128.5996 Q1387.8398,126.6563 1390.7891,126.6563 Q1391.6191,126.6563 1392.3809,126.832 Q1393.1426,127.0078 1393.8066,127.3594 L1393.8066,130.5625 Q1393.0645,129.8789 1392.3662,129.5615 Q1391.668,129.2441 1390.9258,129.2441 Q1389.3438,129.2441 1388.5381,130.499 Q1387.7324,131.7539 1387.7324,134.2246 Q1387.7324,136.6855 1388.5381,137.9404 Q1389.3438,139.1953 1390.9258,139.1953 Q1391.668,139.1953 1392.3662,138.8779 Q1393.0645,138.5605 1393.8066,137.877 Z " fill="#000000"/><text fill="#000000" font-family="sans-serif" font-size="20" lengthAdjust="spacing" textLength="205" x="1413" y="141.5586">ImportFilesController</text><line style="stroke:#181818;stroke-width:0.5;" x1="1247" x2="1749" y1="151" y2="151"/><line style="stroke:#181818;stroke-width:0.5;" x1="1247" x2="1749" y1="159" y2="159"/><text fill="#000000" font-family="sans-serif" font-size="20" lengthAdjust="spacing" textLength="492" x="1252" y="182.3359">+listAllDeals(sortMethod, ascendingOrDescending)</text></g><!--class Repositories--><g id="elem_Repositories"><rect codeLine="14" fill="#F1F1F1" height="191.3281" id="Repositories" rx="2.5" ry="2.5" style="stroke:#181818;stroke-width:0.5;" width="299" x="1348.5" y="251"/><ellipse cx="1434" cy="268" fill="#ADD1B2" rx="12" ry="12" style="stroke:#181818;stroke-width:1.0;"/><path d="M1436.8066,275.0801 Q1436.123,275.4316 1435.3711,275.6074 Q1434.6191,275.7832 1433.7891,275.7832 Q1430.8398,275.7832 1429.2871,273.8398 Q1427.7344,271.8965 1427.7344,268.2246 Q1427.7344,264.543 1429.2871,262.5996 Q1430.8398,260.6563 1433.7891,260.6563 Q1434.6191,260.6563 1435.3809,260.832 Q1436.1426,261.0078 1436.8066,261.3594 L1436.8066,264.5625 Q1436.0645,263.8789 1435.3662,263.5615 Q1434.668,263.2441 1433.9258,263.2441 Q1432.3438,263.2441 1431.5381,264.499 Q1430.7324,265.7539 1430.7324,268.2246 Q1430.7324,270.6855 1431.5381,271.9404 Q1432.3438,273.1953 1433.9258,273.1953 Q1434.668,273.1953 1435.3662,272.8779 Q1436.0645,272.5605 1436.8066,271.877 Z " fill="#000000"/><text fill="#000000" font-family="sans-serif" font-size="20" lengthAdjust="spacing" textLength="119" x="1456" y="275.5586">Repositories</text><line style="stroke:#181818;stroke-width:0.5;" x1="1349.5" x2="1646.5" y1="285" y2="285"/><text fill="#000000" font-family="sans-serif" font-size="20" lengthAdjust="spacing" textLength="125" x="1354.5" y="308.3359">+getInstance</text><text fill="#000000" font-family="sans-serif" font-size="20" lengthAdjust="spacing" textLength="287" x="1354.5" y="331.8906">+getAdvertisementRepository</text><text fill="#000000" font-family="sans-serif" font-size="20" lengthAdjust="spacing" textLength="204" x="1354.5" y="355.4453">+getClientRepository</text><text fill="#000000" font-family="sans-serif" font-size="20" lengthAdjust="spacing" textLength="197" x="1354.5" y="379">+getStoreRepository</text><text fill="#000000" font-family="sans-serif" font-size="20" lengthAdjust="spacing" textLength="268" x="1354.5" y="402.5547">+getCommissionRepository</text><text fill="#000000" font-family="sans-serif" font-size="20" lengthAdjust="spacing" textLength="225" x="1354.5" y="426.1094">+getRequestRepository</text><line style="stroke:#181818;stroke-width:0.5;" x1="1349.5" x2="1646.5" y1="434.3281" y2="434.3281"/></g><!--class AdvertisementRepository--><g id="elem_AdvertisementRepository"><rect codeLine="23" fill="#F1F1F1" height="167.7734" id="AdvertisementRepository" rx="2.5" ry="2.5" style="stroke:#181818;stroke-width:0.5;" width="715" x="1343.5" y="502"/><ellipse cx="1576" cy="519" fill="#ADD1B2" rx="12" ry="12" style="stroke:#181818;stroke-width:1.0;"/><path d="M1578.8066,526.0801 Q1578.123,526.4316 1577.3711,526.6074 Q1576.6191,526.7832 1575.7891,526.7832 Q1572.8398,526.7832 1571.2871,524.8398 Q1569.7344,522.8965 1569.7344,519.2246 Q1569.7344,515.543 1571.2871,513.5996 Q1572.8398,511.6563 1575.7891,511.6563 Q1576.6191,511.6563 1577.3809,511.832 Q1578.1426,512.0078 1578.8066,512.3594 L1578.8066,515.5625 Q1578.0645,514.8789 1577.3662,514.5615 Q1576.668,514.2441 1575.9258,514.2441 Q1574.3438,514.2441 1573.5381,515.499 Q1572.7324,516.7539 1572.7324,519.2246 Q1572.7324,521.6855 1573.5381,522.9404 Q1574.3438,524.1953 1575.9258,524.1953 Q1576.668,524.1953 1577.3662,523.8779 Q1578.0645,523.5605 1578.8066,522.877 Z " fill="#000000"/><text fill="#000000" font-family="sans-serif" font-size="20" lengthAdjust="spacing" textLength="241" x="1598" y="526.5586">AdvertisementRepository</text><line style="stroke:#181818;stroke-width:0.5;" x1="1344.5" x2="2057.5" y1="536" y2="536"/><text fill="#000000" font-family="sans-serif" font-size="20" lengthAdjust="spacing" textLength="396" x="1349.5" y="559.3359">-List&lt;Advertisement&gt; AdvertisementList</text><line style="stroke:#181818;stroke-width:0.5;" x1="1344.5" x2="2057.5" y1="567.5547" y2="567.5547"/><text fill="#000000" font-family="sans-serif" font-size="20" lengthAdjust="spacing" textLength="703" x="1349.5" y="590.8906">+createAdvertisement(dateOfAdvertisement, request, commission, store)</text><text fill="#000000" font-family="sans-serif" font-size="20" lengthAdjust="spacing" textLength="512" x="1349.5" y="614.4453">+createPurchaseOrder(buyer, dateOfSale, priceBuyer)</text><text fill="#000000" font-family="sans-serif" font-size="20" lengthAdjust="spacing" textLength="351" x="1349.5" y="638">+addPurchaseOrder(purchaseOrder)</text><text fill="#000000" font-family="sans-serif" font-size="20" lengthAdjust="spacing" textLength="342" x="1349.5" y="661.5547">+addAdvertisement(advertisement)</text></g><!--class StoreRepository--><g id="elem_StoreRepository"><rect codeLine="33" fill="#F1F1F1" height="120.6641" id="StoreRepository" rx="2.5" ry="2.5" style="stroke:#181818;stroke-width:0.5;" width="676" x="2764" y="525.5"/><ellipse cx="3022" cy="542.5" fill="#ADD1B2" rx="12" ry="12" style="stroke:#181818;stroke-width:1.0;"/><path d="M3024.8066,549.5801 Q3024.123,549.9316 3023.3711,550.1074 Q3022.6191,550.2832 3021.7891,550.2832 Q3018.8398,550.2832 3017.2871,548.3398 Q3015.7344,546.3965 3015.7344,542.7246 Q3015.7344,539.043 3017.2871,537.0996 Q3018.8398,535.1563 3021.7891,535.1563 Q3022.6191,535.1563 3023.3809,535.332 Q3024.1426,535.5078 3024.8066,535.8594 L3024.8066,539.0625 Q3024.0645,538.3789 3023.3662,538.0615 Q3022.668,537.7441 3021.9258,537.7441 Q3020.3438,537.7441 3019.5381,538.999 Q3018.7324,540.2539 3018.7324,542.7246 Q3018.7324,545.1855 3019.5381,546.4404 Q3020.3438,547.6953 3021.9258,547.6953 Q3022.668,547.6953 3023.3662,547.3779 Q3024.0645,547.0605 3024.8066,546.377 Z " fill="#000000"/><text fill="#000000" font-family="sans-serif" font-size="20" lengthAdjust="spacing" textLength="151" x="3044" y="550.0586">StoreRepository</text><line style="stroke:#181818;stroke-width:0.5;" x1="2765" x2="3439" y1="559.5" y2="559.5"/><text fill="#000000" font-family="sans-serif" font-size="20" lengthAdjust="spacing" textLength="216" x="2770" y="582.8359">-List&lt;Store&gt; StoreList</text><line style="stroke:#181818;stroke-width:0.5;" x1="2765" x2="3439" y1="591.0547" y2="591.0547"/><text fill="#000000" font-family="sans-serif" font-size="20" lengthAdjust="spacing" textLength="664" x="2770" y="614.3906">+createStore(address, storeDesignation, storeEmail, storePhoneNum)</text><text fill="#000000" font-family="sans-serif" font-size="20" lengthAdjust="spacing" textLength="164" x="2770" y="637.9453">+addStore(store)</text></g><!--class RequestRepository--><g id="elem_RequestRepository"><rect codeLine="39" fill="#F1F1F1" height="97.1094" id="RequestRepository" rx="2.5" ry="2.5" style="stroke:#181818;stroke-width:0.5;" width="550" x="758" y="537.5"/><ellipse cx="939" cy="554.5" fill="#ADD1B2" rx="12" ry="12" style="stroke:#181818;stroke-width:1.0;"/><path d="M941.8066,561.5801 Q941.123,561.9316 940.3711,562.1074 Q939.6191,562.2832 938.7891,562.2832 Q935.8398,562.2832 934.2871,560.3398 Q932.7344,558.3965 932.7344,554.7246 Q932.7344,551.043 934.2871,549.0996 Q935.8398,547.1563 938.7891,547.1563 Q939.6191,547.1563 940.3809,547.332 Q941.1426,547.5078 941.8066,547.8594 L941.8066,551.0625 Q941.0645,550.3789 940.3662,550.0615 Q939.668,549.7441 938.9258,549.7441 Q937.3438,549.7441 936.5381,550.999 Q935.7324,552.2539 935.7324,554.7246 Q935.7324,557.1855 936.5381,558.4404 Q937.3438,559.6953 938.9258,559.6953 Q939.668,559.6953 940.3662,559.3779 Q941.0645,559.0605 941.8066,558.377 Z " fill="#000000"/><text fill="#000000" font-family="sans-serif" font-size="20" lengthAdjust="spacing" textLength="179" x="961" y="562.0586">RequestRepository</text><line style="stroke:#181818;stroke-width:0.5;" x1="759" x2="1307" y1="571.5" y2="571.5"/><text fill="#000000" font-family="sans-serif" font-size="20" lengthAdjust="spacing" textLength="272" x="764" y="594.8359">-List&lt;Request&gt; RequestList</text><line style="stroke:#181818;stroke-width:0.5;" x1="759" x2="1307" y1="603.0547" y2="603.0547"/><text fill="#000000" font-family="sans-serif" font-size="20" lengthAdjust="spacing" textLength="538" x="764" y="626.3906">+createRequest(property, owner, agent, DateOfRequest)</text></g><!--class CommissionRepository--><g id="elem_CommissionRepository"><rect codeLine="44" fill="#F1F1F1" height="97.1094" id="CommissionRepository" rx="2.5" ry="2.5" style="stroke:#181818;stroke-width:0.5;" width="564" x="2165" y="537.5"/><ellipse cx="2331.5" cy="554.5" fill="#ADD1B2" rx="12" ry="12" style="stroke:#181818;stroke-width:1.0;"/><path d="M2334.3066,561.5801 Q2333.623,561.9316 2332.8711,562.1074 Q2332.1191,562.2832 2331.2891,562.2832 Q2328.3398,562.2832 2326.7871,560.3398 Q2325.2344,558.3965 2325.2344,554.7246 Q2325.2344,551.043 2326.7871,549.0996 Q2328.3398,547.1563 2331.2891,547.1563 Q2332.1191,547.1563 2332.8809,547.332 Q2333.6426,547.5078 2334.3066,547.8594 L2334.3066,551.0625 Q2333.5645,550.3789 2332.8662,550.0615 Q2332.168,549.7441 2331.4258,549.7441 Q2329.8438,549.7441 2329.0381,550.999 Q2328.2324,552.2539 2328.2324,554.7246 Q2328.2324,557.1855 2329.0381,558.4404 Q2329.8438,559.6953 2331.4258,559.6953 Q2332.168,559.6953 2332.8662,559.3779 Q2333.5645,559.0605 2334.3066,558.377 Z " fill="#000000"/><text fill="#000000" font-family="sans-serif" font-size="20" lengthAdjust="spacing" textLength="222" x="2353.5" y="562.0586">CommissionRepository</text><line style="stroke:#181818;stroke-width:0.5;" x1="2166" x2="2728" y1="571.5" y2="571.5"/><text fill="#000000" font-family="sans-serif" font-size="20" lengthAdjust="spacing" textLength="358" x="2171" y="594.8359">-List&lt;Commission&gt; CommissionList</text><line style="stroke:#181818;stroke-width:0.5;" x1="2166" x2="2728" y1="603.0547" y2="603.0547"/><text fill="#000000" font-family="sans-serif" font-size="20" lengthAdjust="spacing" textLength="552" x="2171" y="626.3906">+createCommission(commissionType, commissionValue)</text></g><!--class ClientRepository--><g id="elem_ClientRepository"><rect codeLine="49" fill="#F1F1F1" height="97.1094" id="ClientRepository" rx="2.5" ry="2.5" style="stroke:#181818;stroke-width:0.5;" width="242" x="410" y="537.5"/><ellipse cx="448.5" cy="554.5" fill="#ADD1B2" rx="12" ry="12" style="stroke:#181818;stroke-width:1.0;"/><path d="M451.3066,561.5801 Q450.623,561.9316 449.8711,562.1074 Q449.1191,562.2832 448.2891,562.2832 Q445.3398,562.2832 443.7871,560.3398 Q442.2344,558.3965 442.2344,554.7246 Q442.2344,551.043 443.7871,549.0996 Q445.3398,547.1563 448.2891,547.1563 Q449.1191,547.1563 449.8809,547.332 Q450.6426,547.5078 451.3066,547.8594 L451.3066,551.0625 Q450.5645,550.3789 449.8662,550.0615 Q449.168,549.7441 448.4258,549.7441 Q446.8438,549.7441 446.0381,550.999 Q445.2324,552.2539 445.2324,554.7246 Q445.2324,557.1855 446.0381,558.4404 Q446.8438,559.6953 448.4258,559.6953 Q449.168,559.6953 449.8662,559.3779 Q450.5645,559.0605 451.3066,558.377 Z " fill="#000000"/><text fill="#000000" font-family="sans-serif" font-size="20" lengthAdjust="spacing" textLength="158" x="468.5" y="562.0586">ClientRepository</text><line style="stroke:#181818;stroke-width:0.5;" x1="411" x2="651" y1="571.5" y2="571.5"/><text fill="#000000" font-family="sans-serif" font-size="20" lengthAdjust="spacing" textLength="230" x="416" y="594.8359">-List&lt;Client&gt; ClientList</text><line style="stroke:#181818;stroke-width:0.5;" x1="411" x2="651" y1="603.0547" y2="603.0547"/><text fill="#000000" font-family="sans-serif" font-size="20" lengthAdjust="spacing" textLength="168" x="416" y="626.3906">+getClient(client)</text></g><!--class Advertisement--><g id="elem_Advertisement"><rect codeLine="57" fill="#F1F1F1" height="167.7734" id="Advertisement" rx="2.5" ry="2.5" style="stroke:#181818;stroke-width:0.5;" width="715" x="616.5" y="730"/><ellipse cx="900" cy="747" fill="#ADD1B2" rx="12" ry="12" style="stroke:#181818;stroke-width:1.0;"/><path d="M902.8066,754.0801 Q902.123,754.4316 901.3711,754.6074 Q900.6191,754.7832 899.7891,754.7832 Q896.8398,754.7832 895.2871,752.8398 Q893.7344,750.8965 893.7344,747.2246 Q893.7344,743.543 895.2871,741.5996 Q896.8398,739.6563 899.7891,739.6563 Q900.6191,739.6563 901.3809,739.832 Q902.1426,740.0078 902.8066,740.3594 L902.8066,743.5625 Q902.0645,742.8789 901.3662,742.5615 Q900.668,742.2441 899.9258,742.2441 Q898.3438,742.2441 897.5381,743.499 Q896.7324,744.7539 896.7324,747.2246 Q896.7324,749.6855 897.5381,750.9404 Q898.3438,752.1953 899.9258,752.1953 Q900.668,752.1953 901.3662,751.8779 Q902.0645,751.5605 902.8066,750.877 Z " fill="#000000"/><text fill="#000000" font-family="sans-serif" font-size="20" lengthAdjust="spacing" textLength="139" x="922" y="754.5586">Advertisement</text><line style="stroke:#181818;stroke-width:0.5;" x1="617.5" x2="1330.5" y1="764" y2="764"/><text fill="#000000" font-family="sans-serif" font-size="20" lengthAdjust="spacing" textLength="278" x="622.5" y="787.3359">-String dateOfAdvertisement</text><text fill="#000000" font-family="sans-serif" font-size="20" lengthAdjust="spacing" textLength="453" x="622.5" y="810.8906">-ArrayList&lt;PurchaseOrder&gt; purchaseOrderList</text><text fill="#000000" font-family="sans-serif" font-size="20" lengthAdjust="spacing" textLength="404" x="622.5" y="834.4453">-ArrayList&lt;VisitRequest&gt; visitRequestList</text><text fill="#000000" font-family="sans-serif" font-size="20" lengthAdjust="spacing" textLength="131" x="622.5" y="858">-String status</text><line style="stroke:#181818;stroke-width:0.5;" x1="617.5" x2="1330.5" y1="866.2188" y2="866.2188"/><text fill="#000000" font-family="sans-serif" font-size="20" lengthAdjust="spacing" textLength="703" x="622.5" y="889.5547">+createAdvertisement(dateOfAdvertisement, request, commission, store)</text></g><!--class Store--><g id="elem_Store"><rect codeLine="67" fill="#F1F1F1" height="167.7734" id="Store" rx="2.5" ry="2.5" style="stroke:#181818;stroke-width:0.5;" width="676" x="2764" y="730"/><ellipse cx="3073" cy="747" fill="#ADD1B2" rx="12" ry="12" style="stroke:#181818;stroke-width:1.0;"/><path d="M3075.8066,754.0801 Q3075.123,754.4316 3074.3711,754.6074 Q3073.6191,754.7832 3072.7891,754.7832 Q3069.8398,754.7832 3068.2871,752.8398 Q3066.7344,750.8965 3066.7344,747.2246 Q3066.7344,743.543 3068.2871,741.5996 Q3069.8398,739.6563 3072.7891,739.6563 Q3073.6191,739.6563 3074.3809,739.832 Q3075.1426,740.0078 3075.8066,740.3594 L3075.8066,743.5625 Q3075.0645,742.8789 3074.3662,742.5615 Q3073.668,742.2441 3072.9258,742.2441 Q3071.3438,742.2441 3070.5381,743.499 Q3069.7324,744.7539 3069.7324,747.2246 Q3069.7324,749.6855 3070.5381,750.9404 Q3071.3438,752.1953 3072.9258,752.1953 Q3073.668,752.1953 3074.3662,751.8779 Q3075.0645,751.5605 3075.8066,750.877 Z " fill="#000000"/><text fill="#000000" font-family="sans-serif" font-size="20" lengthAdjust="spacing" textLength="49" x="3095" y="754.5586">Store</text><line style="stroke:#181818;stroke-width:0.5;" x1="2765" x2="3439" y1="764" y2="764"/><text fill="#000000" font-family="sans-serif" font-size="20" lengthAdjust="spacing" textLength="278" x="2770" y="787.3359">-String dateOfAdvertisement</text><text fill="#000000" font-family="sans-serif" font-size="20" lengthAdjust="spacing" textLength="453" x="2770" y="810.8906">-ArrayList&lt;PurchaseOrder&gt; purchaseOrderList</text><text fill="#000000" font-family="sans-serif" font-size="20" lengthAdjust="spacing" textLength="404" x="2770" y="834.4453">-ArrayList&lt;VisitRequest&gt; visitRequestList</text><text fill="#000000" font-family="sans-serif" font-size="20" lengthAdjust="spacing" textLength="131" x="2770" y="858">-String status</text><line style="stroke:#181818;stroke-width:0.5;" x1="2765" x2="3439" y1="866.2188" y2="866.2188"/><text fill="#000000" font-family="sans-serif" font-size="20" lengthAdjust="spacing" textLength="664" x="2770" y="889.5547">+createStore(address, storeDesignation, storeEmail, storePhoneNum)</text></g><!--class Client--><g id="elem_Client"><rect codeLine="77" fill="#F1F1F1" height="73.5547" id="Client" rx="2.5" ry="2.5" style="stroke:#181818;stroke-width:0.5;" width="197" x="690.5" y="1233"/><ellipse cx="756.5" cy="1250" fill="#ADD1B2" rx="12" ry="12" style="stroke:#181818;stroke-width:1.0;"/><path d="M759.3066,1257.0801 Q758.623,1257.4316 757.8711,1257.6074 Q757.1191,1257.7832 756.2891,1257.7832 Q753.3398,1257.7832 751.7871,1255.8398 Q750.2344,1253.8965 750.2344,1250.2246 Q750.2344,1246.543 751.7871,1244.5996 Q753.3398,1242.6563 756.2891,1242.6563 Q757.1191,1242.6563 757.8809,1242.832 Q758.6426,1243.0078 759.3066,1243.3594 L759.3066,1246.5625 Q758.5645,1245.8789 757.8662,1245.5615 Q757.168,1245.2441 756.4258,1245.2441 Q754.8438,1245.2441 754.0381,1246.499 Q753.2324,1247.7539 753.2324,1250.2246 Q753.2324,1252.6855 754.0381,1253.9404 Q754.8438,1255.1953 756.4258,1255.1953 Q757.168,1255.1953 757.8662,1254.8779 Q758.5645,1254.5605 759.3066,1253.877 Z " fill="#000000"/><text fill="#000000" font-family="sans-serif" font-size="20" lengthAdjust="spacing" textLength="56" x="778.5" y="1257.5586">Client</text><line style="stroke:#181818;stroke-width:0.5;" x1="691.5" x2="886.5" y1="1267" y2="1267"/><text fill="#000000" font-family="sans-serif" font-size="20" lengthAdjust="spacing" textLength="185" x="696.5" y="1290.3359">-PersonInfo person</text><line style="stroke:#181818;stroke-width:0.5;" x1="691.5" x2="886.5" y1="1298.5547" y2="1298.5547"/></g><!--class Request--><g id="elem_Request"><rect codeLine="82" fill="#F1F1F1" height="214.8828" id="Request" rx="2.5" ry="2.5" style="stroke:#181818;stroke-width:0.5;" width="550" x="658" y="958"/><ellipse cx="890" cy="975" fill="#ADD1B2" rx="12" ry="12" style="stroke:#181818;stroke-width:1.0;"/><path d="M892.8066,982.0801 Q892.123,982.4316 891.3711,982.6074 Q890.6191,982.7832 889.7891,982.7832 Q886.8398,982.7832 885.2871,980.8398 Q883.7344,978.8965 883.7344,975.2246 Q883.7344,971.543 885.2871,969.5996 Q886.8398,967.6563 889.7891,967.6563 Q890.6191,967.6563 891.3809,967.832 Q892.1426,968.0078 892.8066,968.3594 L892.8066,971.5625 Q892.0645,970.8789 891.3662,970.5615 Q890.668,970.2441 889.9258,970.2441 Q888.3438,970.2441 887.5381,971.499 Q886.7324,972.7539 886.7324,975.2246 Q886.7324,977.6855 887.5381,978.9404 Q888.3438,980.1953 889.9258,980.1953 Q890.668,980.1953 891.3662,979.8779 Q892.0645,979.5605 892.8066,978.877 Z " fill="#000000"/><text fill="#000000" font-family="sans-serif" font-size="20" lengthAdjust="spacing" textLength="77" x="912" y="982.5586">Request</text><line style="stroke:#181818;stroke-width:0.5;" x1="659" x2="1207" y1="992" y2="992"/><text fill="#000000" font-family="sans-serif" font-size="20" lengthAdjust="spacing" textLength="180" x="664" y="1015.3359">-Property property</text><text fill="#000000" font-family="sans-serif" font-size="20" lengthAdjust="spacing" textLength="164" x="664" y="1038.8906">-Employee agent</text><text fill="#000000" font-family="sans-serif" font-size="20" lengthAdjust="spacing" textLength="216" x="664" y="1062.4453">-String dateOfRequest</text><text fill="#000000" font-family="sans-serif" font-size="20" lengthAdjust="spacing" textLength="221" x="664" y="1086">-String typeOfBusiness</text><text fill="#000000" font-family="sans-serif" font-size="20" lengthAdjust="spacing" textLength="122" x="664" y="1109.5547">-String price</text><text fill="#000000" font-family="sans-serif" font-size="20" lengthAdjust="spacing" textLength="131" x="664" y="1133.1094">-String status</text><line style="stroke:#181818;stroke-width:0.5;" x1="659" x2="1207" y1="1141.3281" y2="1141.3281"/><text fill="#000000" font-family="sans-serif" font-size="20" lengthAdjust="spacing" textLength="538" x="664" y="1164.6641">+createRequest(property, owner, agent, DateOfRequest)</text></g><!--class Commission--><g id="elem_Commission"><rect codeLine="93" fill="#F1F1F1" height="120.6641" id="Commission" rx="2.5" ry="2.5" style="stroke:#181818;stroke-width:0.5;" width="564" x="2165" y="1005"/><ellipse cx="2382.5" cy="1022" fill="#ADD1B2" rx="12" ry="12" style="stroke:#181818;stroke-width:1.0;"/><path d="M2385.3066,1029.0801 Q2384.623,1029.4316 2383.8711,1029.6074 Q2383.1191,1029.7832 2382.2891,1029.7832 Q2379.3398,1029.7832 2377.7871,1027.8398 Q2376.2344,1025.8965 2376.2344,1022.2246 Q2376.2344,1018.543 2377.7871,1016.5996 Q2379.3398,1014.6563 2382.2891,1014.6563 Q2383.1191,1014.6563 2383.8809,1014.832 Q2384.6426,1015.0078 2385.3066,1015.3594 L2385.3066,1018.5625 Q2384.5645,1017.8789 2383.8662,1017.5615 Q2383.168,1017.2441 2382.4258,1017.2441 Q2380.8438,1017.2441 2380.0381,1018.499 Q2379.2324,1019.7539 2379.2324,1022.2246 Q2379.2324,1024.6855 2380.0381,1025.9404 Q2380.8438,1027.1953 2382.4258,1027.1953 Q2383.168,1027.1953 2383.8662,1026.8779 Q2384.5645,1026.5605 2385.3066,1025.877 Z " fill="#000000"/><text fill="#000000" font-family="sans-serif" font-size="20" lengthAdjust="spacing" textLength="120" x="2404.5" y="1029.5586">Commission</text><line style="stroke:#181818;stroke-width:0.5;" x1="2166" x2="2728" y1="1039" y2="1039"/><text fill="#000000" font-family="sans-serif" font-size="20" lengthAdjust="spacing" textLength="258" x="2171" y="1062.3359">-String typeOfCommission</text><text fill="#000000" font-family="sans-serif" font-size="20" lengthAdjust="spacing" textLength="124" x="2171" y="1085.8906">-String value</text><line style="stroke:#181818;stroke-width:0.5;" x1="2166" x2="2728" y1="1094.1094" y2="1094.1094"/><text fill="#000000" font-family="sans-serif" font-size="20" lengthAdjust="spacing" textLength="552" x="2171" y="1117.4453">+createCommission(commissionType, commissionValue)</text></g><!--class PurchaseOrder--><g id="elem_PurchaseOrder"><rect codeLine="100" fill="#F1F1F1" height="144.2188" id="PurchaseOrder" rx="2.5" ry="2.5" style="stroke:#181818;stroke-width:0.5;" width="524" x="7" y="993.5"/><ellipse cx="194" cy="1010.5" fill="#ADD1B2" rx="12" ry="12" style="stroke:#181818;stroke-width:1.0;"/><path d="M196.8066,1017.5801 Q196.123,1017.9316 195.3711,1018.1074 Q194.6191,1018.2832 193.7891,1018.2832 Q190.8398,1018.2832 189.2871,1016.3398 Q187.7344,1014.3965 187.7344,1010.7246 Q187.7344,1007.043 189.2871,1005.0996 Q190.8398,1003.1563 193.7891,1003.1563 Q194.6191,1003.1563 195.3809,1003.332 Q196.1426,1003.5078 196.8066,1003.8594 L196.8066,1007.0625 Q196.0645,1006.3789 195.3662,1006.0615 Q194.668,1005.7441 193.9258,1005.7441 Q192.3438,1005.7441 191.5381,1006.999 Q190.7324,1008.2539 190.7324,1010.7246 Q190.7324,1013.1855 191.5381,1014.4404 Q192.3438,1015.6953 193.9258,1015.6953 Q194.668,1015.6953 195.3662,1015.3779 Q196.0645,1015.0605 196.8066,1014.377 Z " fill="#000000"/><text fill="#000000" font-family="sans-serif" font-size="20" lengthAdjust="spacing" textLength="141" x="216" y="1018.0586">PurchaseOrder</text><line style="stroke:#181818;stroke-width:0.5;" x1="8" x2="530" y1="1027.5" y2="1027.5"/><text fill="#000000" font-family="sans-serif" font-size="20" lengthAdjust="spacing" textLength="282" x="13" y="1050.8359">-String DateOfPurchaseOrder</text><text fill="#000000" font-family="sans-serif" font-size="20" lengthAdjust="spacing" textLength="122" x="13" y="1074.3906">-String price</text><text fill="#000000" font-family="sans-serif" font-size="20" lengthAdjust="spacing" textLength="131" x="13" y="1097.9453">-String status</text><line style="stroke:#181818;stroke-width:0.5;" x1="8" x2="530" y1="1106.1641" y2="1106.1641"/><text fill="#000000" font-family="sans-serif" font-size="20" lengthAdjust="spacing" textLength="512" x="13" y="1129.5">+createPurchaseOrder(buyer, dateOfSale, priceBuyer)</text></g><!--link ImportFilesUI to ImportFilesController--><g id="link_ImportFilesUI_ImportFilesController"><path codeLine="111" d="M1498,57.28 C1498,72.93 1498,93.68 1498,111.86 " fill="none" id="ImportFilesUI-to-ImportFilesController" style="stroke:#181818;stroke-width:1.0;stroke-dasharray:7.0,7.0;"/><polygon fill="#181818" points="1498,116.91,1502,107.91,1498,111.91,1494,107.91,1498,116.91" style="stroke:#181818;stroke-width:1.0;"/></g><!--link ImportFilesController to AdvertisementRepository--><g id="link_ImportFilesController_AdvertisementRepository"><path codeLine="112" d="M1560.66,191.02 C1608.05,218.26 1665,251 1665,251 C1665,251 1680.78,397.37 1691.44,496.31 " fill="none" id="ImportFilesController-to-AdvertisementRepository" style="stroke:#181818;stroke-width:1.0;stroke-dasharray:7.0,7.0;"/><polygon fill="#181818" points="1692.01,501.58,1695.0094,492.199,1691.4672,496.6095,1687.0567,493.0674,1692.01,501.58" style="stroke:#181818;stroke-width:1.0;"/></g><!--link ImportFilesController to ClientRepository--><g id="link_ImportFilesController_ClientRepository"><path codeLine="113" d="M1245.87,184.55 C1005.2,212.76 679,251 679,251 C679,251 595.96,438.41 554.28,532.46 " fill="none" id="ImportFilesController-to-ClientRepository" style="stroke:#181818;stroke-width:1.0;stroke-dasharray:7.0,7.0;"/><polygon fill="#181818" points="552.2,537.15,559.4894,530.5269,554.2161,532.5745,552.1685,527.3012,552.2,537.15" style="stroke:#181818;stroke-width:1.0;"/></g><!--link ImportFilesController to CommissionRepository--><g id="link_ImportFilesController_CommissionRepository"><path codeLine="114" d="M1738.13,191.02 C1919.74,218.26 2138,251 2138,251 C2138,251 2312.42,439.53 2399.17,533.3 " fill="none" id="ImportFilesController-to-CommissionRepository" style="stroke:#181818;stroke-width:1.0;stroke-dasharray:7.0,7.0;"/><polygon fill="#181818" points="2402.73,537.15,2399.5692,527.8221,2399.3404,533.4743,2393.6882,533.2455,2402.73,537.15" style="stroke:#181818;stroke-width:1.0;"/></g><!--link ImportFilesController to StoreRepository--><g id="link_ImportFilesController_StoreRepository"><path codeLine="115" d="M1750.05,187.13 C1968.91,215.04 2251,251 2251,251 C2251,251 2699.93,427.2 2945.66,523.64 " fill="none" id="ImportFilesController-to-StoreRepository" style="stroke:#181818;stroke-width:1.0;stroke-dasharray:7.0,7.0;"/><polygon fill="#181818" points="2950.35,525.48,2943.4159,518.4859,2945.6911,523.665,2940.5119,525.9402,2950.35,525.48" style="stroke:#181818;stroke-width:1.0;"/></g><!--link ImportFilesController to RequestRepository--><g id="link_ImportFilesController_RequestRepository"><path codeLine="116" d="M1435.34,191.02 C1387.95,218.26 1331,251 1331,251 C1331,251 1162.79,439.53 1079.13,533.3 " fill="none" id="ImportFilesController-to-RequestRepository" style="stroke:#181818;stroke-width:1.0;stroke-dasharray:7.0,7.0;"/><polygon fill="#181818" points="1075.7,537.15,1084.6776,533.0999,1079.0298,533.4201,1078.7097,527.7723,1075.7,537.15" style="stroke:#181818;stroke-width:1.0;"/></g><!--link ImportFilesController to PurchaseOrder--><g id="link_ImportFilesController_PurchaseOrder"><path codeLine="117" d="M1245.97,176.69 C926.19,205.01 416,251 416,251 C416,251 308.11,786.16 276.42,988.37 " fill="none" id="ImportFilesController-to-PurchaseOrder" style="stroke:#181818;stroke-width:1.0;stroke-dasharray:7.0,7.0;"/><polygon fill="#181818" points="275.64,993.38,280.9566,985.0894,276.3971,988.4376,273.0488,983.8781,275.64,993.38" style="stroke:#181818;stroke-width:1.0;"/></g><!--link ImportFilesController to PurchaseOrder--><g id="link_ImportFilesController_PurchaseOrder"><path codeLine="131" d="M1245.84,178.85 C935.96,207.29 451,251 451,251 C451,251 343.11,786.16 292.74,988.37 " fill="none" id="ImportFilesController-to-PurchaseOrder-1" style="stroke:#181818;stroke-width:1.0;stroke-dasharray:7.0,7.0;"/><polygon fill="#181818" points="291.49,993.38,297.5588,985.6231,292.706,988.5301,289.799,983.6774,291.49,993.38" style="stroke:#181818;stroke-width:1.0;"/></g><!--link ImportFilesController to Repositories--><g id="link_ImportFilesController_Repositories"><path codeLine="118" d="M1498,191.28 C1498,206.87 1498,225.94 1498,245.28 " fill="none" id="ImportFilesController-to-Repositories" style="stroke:#181818;stroke-width:1.0;stroke-dasharray:7.0,7.0;"/><polygon fill="#181818" points="1498,250.74,1502,241.74,1498,245.74,1494,241.74,1498,250.74" style="stroke:#181818;stroke-width:1.0;"/></g><!--link AdvertisementRepository to Advertisement--><g id="link_AdvertisementRepository_Advertisement"><path codeLine="120" d="M1433.9,670.03 C1372.62,689.08 1307.39,709.36 1245.9,728.48 " fill="none" id="AdvertisementRepository-to-Advertisement" style="stroke:#181818;stroke-width:1.0;"/><polygon fill="#181818" points="1241.1,729.97,1250.8791,731.1402,1245.878,728.4966,1248.5216,723.4954,1241.1,729.97" style="stroke:#181818;stroke-width:1.0;"/><text fill="#000000" font-family="sans-serif" font-size="20" lengthAdjust="spacing" textLength="13" x="1399.0975" y="697.0096">1</text><text fill="#000000" font-family="sans-serif" font-size="20" lengthAdjust="spacing" textLength="10" x="1254.4433" y="717.8326">*</text></g><!--link RequestRepository to Request--><g id="link_RequestRepository_Request"><path codeLine="121" d="M1138.22,634.62 C1230.15,676.22 1349,730 1349,730 C1349,730 1349,898 1349,898 C1349,898 1283.16,924.35 1203.86,956.09 " fill="none" id="RequestRepository-to-Request" style="stroke:#181818;stroke-width:1.0;"/><polygon fill="#181818" points="1199.11,957.99,1208.9519,958.3614,1203.7524,956.133,1205.9807,950.9336,1199.11,957.99" style="stroke:#181818;stroke-width:1.0;"/><text fill="#000000" font-family="sans-serif" font-size="20" lengthAdjust="spacing" textLength="13" x="1138.4855" y="662.0645">1</text><text fill="#000000" font-family="sans-serif" font-size="20" lengthAdjust="spacing" textLength="10" x="1208.2853" y="945.6108">*</text></g><!--link StoreRepository to Store--><g id="link_StoreRepository_Store"><path codeLine="122" d="M3102,646.67 C3102,670.46 3102,698.33 3102,724.39 " fill="none" id="StoreRepository-to-Store" style="stroke:#181818;stroke-width:1.0;"/><polygon fill="#181818" points="3102,729.58,3106,720.58,3102,724.58,3098,720.58,3102,729.58" style="stroke:#181818;stroke-width:1.0;"/><text fill="#000000" font-family="sans-serif" font-size="20" lengthAdjust="spacing" textLength="13" x="3088.3297" y="673.4944">1</text><text fill="#000000" font-family="sans-serif" font-size="20" lengthAdjust="spacing" textLength="10" x="3091.5703" y="717.7064">*</text></g><!--link CommissionRepository to Commission--><g id="link_CommissionRepository_Commission"><path codeLine="123" d="M2447,634.53 C2447,720.62 2447,902.46 2447,999.79 " fill="none" id="CommissionRepository-to-Commission" style="stroke:#181818;stroke-width:1.0;"/><polygon fill="#181818" points="2447,1004.93,2451,995.93,2447,999.93,2443,995.93,2447,1004.93" style="stroke:#181818;stroke-width:1.0;"/><text fill="#000000" font-family="sans-serif" font-size="20" lengthAdjust="spacing" textLength="13" x="2433.1266" y="661.9624">1</text><text fill="#000000" font-family="sans-serif" font-size="20" lengthAdjust="spacing" textLength="10" x="2436.4219" y="992.9843">*</text></g><!--link ClientRepository to Client--><g id="link_ClientRepository_Client"><path codeLine="124" d="M539.92,634.95 C565.95,774.91 640,1173 640,1173 C640,1173 687.5,1203.6 728.86,1230.25 " fill="none" id="ClientRepository-to-Client" style="stroke:#181818;stroke-width:1.0;"/><polygon fill="#181818" points="733.09,1232.98,727.7022,1224.7355,728.8906,1230.2661,723.36,1231.4545,733.09,1232.98" style="stroke:#181818;stroke-width:1.0;"/><text fill="#000000" font-family="sans-serif" font-size="20" lengthAdjust="spacing" textLength="13" x="527.2301" y="662.0596">1</text><text fill="#000000" font-family="sans-serif" font-size="20" lengthAdjust="spacing" textLength="10" x="712.2404" y="1220.7624">*</text></g><!--link Advertisement to PurchaseOrder--><g id="link_Advertisement_PurchaseOrder"><path codeLine="125" d="M739.25,898.08 C653.63,928.38 557.54,962.38 474.65,991.72 " fill="none" id="Advertisement-to-PurchaseOrder" style="stroke:#181818;stroke-width:1.0;"/><polygon fill="#181818" points="469.71,993.47,479.5293,994.2326,474.4226,991.7992,476.856,986.6925,469.71,993.47" style="stroke:#181818;stroke-width:1.0;"/><text fill="#000000" font-family="sans-serif" font-size="20" lengthAdjust="spacing" textLength="13" x="707.0254" y="925.0636">1</text><text fill="#000000" font-family="sans-serif" font-size="20" lengthAdjust="spacing" textLength="10" x="479.8926" y="981.2092">*</text></g><!--link ImportFilesController to Advertisement--><g id="link_ImportFilesController_Advertisement"><path codeLine="128" d="M1370.05,191.02 C1273.29,218.26 1157,251 1157,251 C1157,251 740,502 740,502 C740,502 740,670 740,670 C740,670 783.72,696.72 833.37,727.06 " fill="none" id="ImportFilesController-to-Advertisement" style="stroke:#181818;stroke-width:1.0;stroke-dasharray:7.0,7.0;"/><polygon fill="#181818" points="837.88,729.82,832.3039,721.7017,833.6193,727.2035,828.1175,728.5189,837.88,729.82" style="stroke:#181818;stroke-width:1.0;"/></g><!--link ImportFilesController to Store--><g id="link_ImportFilesController_Store"><path codeLine="129" d="M1750.29,178.79 C2051.77,207.22 2516,251 2516,251 C2516,251 3458,502 3458,502 C3458,502 3458,670 3458,670 C3458,670 3390.26,697.21 3313.87,727.89 " fill="none" id="ImportFilesController-to-Store" style="stroke:#181818;stroke-width:1.0;stroke-dasharray:7.0,7.0;"/><polygon fill="#181818" points="3308.83,729.92,3318.6719,730.2914,3313.4724,728.063,3315.7007,722.8636,3308.83,729.92" style="stroke:#181818;stroke-width:1.0;"/></g><!--link ImportFilesController to Request--><g id="link_ImportFilesController_Request"><path codeLine="130" d="M1246,181.61 C976.99,210.02 589,251 589,251 C589,251 392,502 392,502 C392,502 392,670 392,670 C392,670 599,898 599,898 C599,898 651.32,924.08 714.54,955.6 " fill="none" id="ImportFilesController-to-Request" style="stroke:#181818;stroke-width:1.0;stroke-dasharray:7.0,7.0;"/><polygon fill="#181818" points="719.11,957.88,712.8587,950.2694,714.6407,955.6382,709.2719,957.4202,719.11,957.88" style="stroke:#181818;stroke-width:1.0;"/></g><!--link ImportFilesController to Client--><g id="link_ImportFilesController_Client"><path codeLine="132" d="M1574.54,191.02 C1632.43,218.26 1702,251 1702,251 C1702,251 2076,502 2076,502 C2076,502 2112,585 2112,585 C2112,585 2112,585 2112,815 C2112,815 1225,1173 1225,1173 C1225,1173 1021.54,1217.8 892.6,1246.19 " fill="none" id="ImportFilesController-to-Client" style="stroke:#181818;stroke-width:1.0;stroke-dasharray:7.0,7.0;"/><polygon fill="#181818" points="887.66,1247.28,897.3079,1249.2593,892.5439,1246.209,895.5943,1241.445,887.66,1247.28" style="stroke:#181818;stroke-width:1.0;"/></g><!--link ImportFilesController to Commission--><g id="link_ImportFilesController_Commission"><path codeLine="133" d="M1750.29,178.79 C2051.77,207.22 2516,251 2516,251 C2516,251 3458,502 3458,502 C3458,502 3458,898 3458,898 C3458,898 3033.43,967.92 2734.56,1017.14 " fill="none" id="ImportFilesController-to-Commission" style="stroke:#181818;stroke-width:1.0;stroke-dasharray:7.0,7.0;"/><polygon fill="#181818" points="2729.29,1018.01,2738.8217,1020.4894,2734.2231,1017.195,2737.5176,1012.5964,2729.29,1018.01" style="stroke:#181818;stroke-width:1.0;"/></g><!--link Repositories to AdvertisementRepository--><g id="link_Repositories_AdvertisementRepository"><path codeLine="135" d="M1578.81,442.05 C1594.54,460.45 1610.96,479.66 1626.47,497.81 " fill="none" id="Repositories-to-AdvertisementRepository" style="stroke:#181818;stroke-width:1.0;"/><polygon fill="#181818" points="1629.98,501.91,1627.1804,492.4674,1626.7343,498.1067,1621.0951,497.6606,1629.98,501.91" style="stroke:#181818;stroke-width:1.0;"/><text fill="#000000" font-family="sans-serif" font-size="20" lengthAdjust="spacing" textLength="13" x="1610.0759" y="489.7672">1</text></g><!--link Repositories to StoreRepository--><g id="link_Repositories_StoreRepository"><path codeLine="136" d="M1647.61,366.02 C1979.04,407.05 2746,502 2746,502 C2746,502 2787.23,511.61 2841.63,524.3 " fill="none" id="Repositories-to-StoreRepository" style="stroke:#181818;stroke-width:1.0;"/><polygon fill="#181818" points="2846.59,525.45,2838.7415,519.5001,2841.7222,524.308,2836.9143,527.2886,2846.59,525.45" style="stroke:#181818;stroke-width:1.0;"/><text fill="#000000" font-family="sans-serif" font-size="20" lengthAdjust="spacing" textLength="13" x="2801.6697" y="513.0591">1</text></g><!--link Repositories to RequestRepository--><g id="link_Repositories_RequestRepository"><path codeLine="137" d="M1348.31,423.95 C1277.01,460.37 1193.76,502.89 1130.71,535.1 " fill="none" id="Repositories-to-RequestRepository" style="stroke:#181818;stroke-width:1.0;"/><polygon fill="#181818" points="1126.2,537.4,1136.035,536.8774,1130.6549,535.1297,1132.4026,529.7496,1126.2,537.4" style="stroke:#181818;stroke-width:1.0;"/><text fill="#000000" font-family="sans-serif" font-size="20" lengthAdjust="spacing" textLength="13" x="1125.3922" y="525.3157">1</text></g><!--link Repositories to CommissionRepository--><g id="link_Repositories_CommissionRepository"><path codeLine="138" d="M1647.59,384.94 C1810.79,425.78 2072.67,491.32 2251.92,536.18 " fill="none" id="Repositories-to-CommissionRepository" style="stroke:#181818;stroke-width:1.0;"/><polygon fill="#181818" points="2256.93,537.43,2249.1689,531.3666,2252.0793,536.2173,2247.2286,539.1277,2256.93,537.43" style="stroke:#181818;stroke-width:1.0;"/><text fill="#000000" font-family="sans-serif" font-size="20" lengthAdjust="spacing" textLength="13" x="2216.2873" y="525.3499">1</text></g><!--link Repositories to ClientRepository--><g id="link_Repositories_ClientRepository"><path codeLine="139" d="M1348.24,378.02 C1127.34,423.05 740,502 740,502 C740,502 700.4,517.73 655.67,535.49 " fill="none" id="Repositories-to-ClientRepository" style="stroke:#181818;stroke-width:1.0;"/><polygon fill="#181818" points="650.76,537.44,660.6008,537.8375,655.4073,535.5954,657.6494,530.4018,650.76,537.44" style="stroke:#181818;stroke-width:1.0;"/><text fill="#000000" font-family="sans-serif" font-size="20" lengthAdjust="spacing" textLength="13" x="653.6872" y="525.3613">1</text></g><!--link Advertisement to Request--><g id="link_Advertisement_Request"><path codeLine="141" d="M960.35,898.08 C957.47,915.57 954.4,934.3 951.38,952.65 " fill="none" id="Advertisement-to-Request" style="stroke:#181818;stroke-width:1.0;"/><polygon fill="#181818" points="950.53,957.82,955.9436,949.5924,951.345,952.8869,948.0506,948.2883,950.53,957.82" style="stroke:#181818;stroke-width:1.0;"/></g><!--link Advertisement to Commission--><g id="link_Advertisement_Commission"><path codeLine="142" d="M1331.51,875.56 C1585.73,918.62 1922.75,975.7 2159.57,1015.82 " fill="none" id="Advertisement-to-Commission" style="stroke:#181818;stroke-width:1.0;"/><polygon fill="#181818" points="2164.8,1016.7,2156.5877,1011.2633,2159.8692,1015.8711,2155.2614,1019.1525,2164.8,1016.7" style="stroke:#181818;stroke-width:1.0;"/></g><!--link PurchaseOrder to Client--><g id="link_PurchaseOrder_Client"><path codeLine="144" d="M451.6,1137.61 C532.34,1169.05 624.02,1204.75 691.42,1231 " fill="none" id="PurchaseOrder-to-Client" style="stroke:#181818;stroke-width:1.0;"/><polygon fill="#181818" points="696.23,1232.87,689.2959,1225.8759,691.5711,1231.055,686.3919,1233.3302,696.23,1232.87" style="stroke:#181818;stroke-width:1.0;"/></g><!--link Request to Client--><g id="link_Request_Client"><path codeLine="146" d="M857.2,1173.09 C843.21,1192.77 829.4,1212.18 817.91,1228.34 " fill="none" id="Request-to-Client" style="stroke:#181818;stroke-width:1.0;"/><polygon fill="#181818" points="814.74,1232.81,823.2194,1227.8001,817.6408,1228.7375,816.7034,1223.1588,814.74,1232.81" style="stroke:#181818;stroke-width:1.0;"/></g><!--SRC=[pLR9Rjim4BtpAmYVd4OEqfuB0Su666Zh86vpPwInJOGYLP9Ae1hvzrBKHb9IjkRGaycPHywycJUYrJtbEP4aOoAvXnIdi2K5qrU2wmtz0_ZBAL8j1ESakISxsEYI0PQGQC9t31o0sfDKF5A-mrl2bEjXbCFFCWUS2rPM6uGSRyA8Kakj9RqhDAmImMtmKuIi1w-oN4XzHHceNojyU1gndvkCfM0Cv04TCwhqah4BC5dCbO5y1xqNQOI9Ie2d9i6rl81sVOIw2syW5ufg8IaeSyyEz8ehGpC1krcc3o0rLP01rnssjBvpHeV6ZLb121HPHfMYWWUE6_XTW7AlwFAQ27n0Ys-6wbVF7Vle2e3GSIA1QF0yyzHOrblF5fc-sYmYd7HvHbXLF8xQMwuBcUo9WhLCGSxlYX9aXElBDeH1X7D94pYhxEOCILF_GExkQe2V5t5tHwWlGr3EbhurnxNNesijvhfKWb8D2zDtkkD4zxmkCq9PixxU2mu_YgnEgpxVa7_gD1AqgKsZSSGjmakbiSrpAN93heomUEHLtSn0LMM_iELhK7smCR6qyNfVxE2ygBrvthUpcaEtlRU45Gw_KCXTE6kF6tyJfXF-FB4_TfP6LMkksPW1Dz-64TcXnL9AKjeudbXYxAd5HdMmjzJasDNzmTdLo2QY6M5Tg8-QWa2F_n6nVz5xpwfkgA5r3L89lk9RWNExjCtrfg12DOh6hRJHuZBBcIW1Qd47zMbETbPjvBZUdXNAl0fATMRx3PaY-kPf6epJ8OZVUph7GpKNxnob9fxNyZvadPxdV1tlDtrvxIGY_-qyEOd7NqqqQhNugLTl-iJWBNm6ElOQJiF31tKQENnDfx5-9vwxi_zxWD14NV3iysonY6UVPdxbq20Z1zaEHS3FGLWF6YkN0t9K7FR0HLcNdx_Zzgk1NgkCbxhsSgy-e4CDjTVe3I6tdTYGhsem9VOnR2Z6CSnGXcEeqIaO1OQJ5NInWhNL77fSybv5QszTkrQddWtz1G00]--></g></svg>