<?xml version="1.0" encoding="UTF-8" standalone="no"?><svg xmlns="http://www.w3.org/2000/svg" xmlns:xlink="http://www.w3.org/1999/xlink" contentStyleType="text/css" height="713px" preserveAspectRatio="none" style="width:813px;height:713px;background:#FFFFFF;" version="1.1" viewBox="0 0 813 713" width="813px" zoomAndPan="magnify"><defs/><g><g id="cluster_##6"><rect fill="none" height="700" rx="2.5" ry="2.5" style="stroke:#181818;stroke-width:1.0;" width="550" x="257" y="7"/></g><g id="elem_UC1"><ellipse cx="532.0543" cy="59.9109" fill="#F1F1F1" rx="172.5543" ry="36.9109" style="stroke:#181818;stroke-width:0.5;"/><text fill="#000000" font-family="sans-serif" font-size="20" lengthAdjust="spacing" textLength="306" x="379.0543" y="65.4694">UC1 - Consult List of Properties</text></g><g id="elem_UC2"><ellipse cx="532.0296" cy="174.8059" fill="#F1F1F1" rx="199.5296" ry="42.3059" style="stroke:#181818;stroke-width:0.5;"/><text fill="#000000" font-family="sans-serif" font-size="20" lengthAdjust="spacing" textLength="363" x="350.5296" y="180.3645">UC2 - Create Property Announcement</text></g><g id="elem_UC3"><ellipse cx="532.1484" cy="289.1297" fill="#F1F1F1" rx="171.1484" ry="36.6297" style="stroke:#181818;stroke-width:0.5;"/><text fill="#000000" font-family="sans-serif" font-size="20" lengthAdjust="spacing" textLength="303" x="380.6484" y="294.6883">UC3 - Register a new Employee</text></g><g id="elem_UC4"><ellipse cx="531.8684" cy="637.1737" fill="#F1F1F1" rx="258.8684" ry="54.1737" style="stroke:#181818;stroke-width:0.5;"/><text fill="#000000" font-family="sans-serif" font-size="20" lengthAdjust="spacing" textLength="486" x="288.8684" y="642.7323">UC4 - Request Announcement Choosing the Agent</text></g><g id="elem_UC5"><ellipse cx="531.8223" cy="392.0645" fill="#F1F1F1" rx="143.3223" ry="31.0645" style="stroke:#181818;stroke-width:0.5;"/><text fill="#000000" font-family="sans-serif" font-size="20" lengthAdjust="spacing" textLength="242" x="407.8223" y="398.9824">UC5 - Register new Store</text></g><g id="elem_UC6"><ellipse cx="531.9686" cy="502.7937" fill="#F1F1F1" rx="211.9686" ry="44.7937" style="stroke:#181818;stroke-width:0.5;"/><text fill="#000000" font-family="sans-serif" font-size="20" lengthAdjust="spacing" textLength="389" x="337.4686" y="508.3523">UC6 - Specify States, Districts and Cities</text></g><!--entity Unregistered User--><g id="elem_Unregistered User"><ellipse cx="109.5" cy="24.5" fill="#F1F1F1" rx="8" ry="8" style="stroke:#181818;stroke-width:0.5;"/><path d="M109.5,32.5 L109.5,59.5 M96.5,40.5 L122.5,40.5 M109.5,59.5 L96.5,74.5 M109.5,59.5 L122.5,74.5 " fill="none" style="stroke:#181818;stroke-width:0.5;"/><text fill="#000000" font-family="sans-serif" font-size="20" lengthAdjust="spacing" textLength="172" x="23.5" y="95.3359">Unregistered User</text></g><!--entity Agent--><g id="elem_Agent"><ellipse cx="109.5" cy="143.5" fill="#F1F1F1" rx="8" ry="8" style="stroke:#181818;stroke-width:0.5;"/><path d="M109.5,151.5 L109.5,178.5 M96.5,159.5 L122.5,159.5 M109.5,178.5 L96.5,193.5 M109.5,178.5 L122.5,193.5 " fill="none" style="stroke:#181818;stroke-width:0.5;"/><text fill="#000000" font-family="sans-serif" font-size="20" lengthAdjust="spacing" textLength="56" x="81.5" y="214.3359">Agent</text></g><!--entity System Administrator--><g id="elem_System Administrator"><ellipse cx="109.5" cy="358.5" fill="#F1F1F1" rx="8" ry="8" style="stroke:#181818;stroke-width:0.5;"/><path d="M109.5,366.5 L109.5,393.5 M96.5,374.5 L122.5,374.5 M109.5,393.5 L96.5,408.5 M109.5,393.5 L122.5,408.5 " fill="none" style="stroke:#181818;stroke-width:0.5;"/><text fill="#000000" font-family="sans-serif" font-size="20" lengthAdjust="spacing" textLength="207" x="6" y="429.3359">System Administrator</text></g><!--entity Owner--><g id="elem_Owner"><ellipse cx="109.5" cy="603.5" fill="#F1F1F1" rx="8" ry="8" style="stroke:#181818;stroke-width:0.5;"/><path d="M109.5,611.5 L109.5,638.5 M96.5,619.5 L122.5,619.5 M109.5,638.5 L96.5,653.5 M109.5,638.5 L122.5,653.5 " fill="none" style="stroke:#181818;stroke-width:0.5;"/><text fill="#000000" font-family="sans-serif" font-size="20" lengthAdjust="spacing" textLength="62" x="78.5" y="674.3359">Owner</text></g><!--link Unregistered User to UC1--><g id="link_Unregistered User_UC1"><path d="M195.59,58.4 C241.16,58.62 299.06,58.9 353.88,59.16 " fill="none" id="Unregistered User-to-UC1" style="stroke:#181818;stroke-width:1.0;"/><polygon fill="#181818" points="359.17,59.18,350.193,55.1286,354.1701,59.1514,350.1473,63.1285,359.17,59.18" style="stroke:#181818;stroke-width:1.0;"/></g><!--link Agent to UC2--><g id="link_Agent_UC2"><path d="M137.77,176.87 C176.91,176.68 252.56,176.32 327.14,175.97 " fill="none" id="Agent-to-UC2" style="stroke:#181818;stroke-width:1.0;"/><polygon fill="#181818" points="332.51,175.94,323.4873,171.9915,327.5101,175.9686,323.533,179.9914,332.51,175.94" style="stroke:#181818;stroke-width:1.0;"/></g><!--link System Administrator to UC3--><g id="link_System Administrator_UC3"><path d="M213.19,353.74 C225.18,349.85 237.31,346.17 249,343 C294.26,330.74 344.34,320.19 389.58,311.76 " fill="none" id="System Administrator-to-UC3" style="stroke:#181818;stroke-width:1.0;"/><polygon fill="#181818" points="394.5,310.85,384.9202,308.5637,389.5843,311.7645,386.3835,316.4287,394.5,310.85" style="stroke:#181818;stroke-width:1.0;"/></g><!--link Owner to UC4--><g id="link_Owner_UC4"><path d="M140.74,637 C169.69,637 216.43,637 267.68,637 " fill="none" id="Owner-to-UC4" style="stroke:#181818;stroke-width:1.0;"/><polygon fill="#181818" points="272.97,637,263.97,633,267.97,637,263.97,641,272.97,637" style="stroke:#181818;stroke-width:1.0;"/></g><!--link System Administrator to UC5--><g id="link_System Administrator_UC5"><path d="M213.1,392 C264.19,392 326.9,392 383.08,392 " fill="none" id="System Administrator-to-UC5" style="stroke:#181818;stroke-width:1.0;"/><polygon fill="#181818" points="388.15,392,379.15,388,383.15,392,379.15,396,388.15,392" style="stroke:#181818;stroke-width:1.0;"/></g><!--link System Administrator to UC6--><g id="link_System Administrator_UC6"><path d="M213.32,429.08 C225.29,432.97 237.37,436.7 249,440 C288.76,451.29 332.15,461.84 372.7,470.96 " fill="none" id="System Administrator-to-UC6" style="stroke:#181818;stroke-width:1.0;"/><polygon fill="#181818" points="377.63,472.06,369.712,466.2029,372.7491,470.9753,367.9766,474.0124,377.63,472.06" style="stroke:#181818;stroke-width:1.0;"/></g><!--SRC=[XP7DQiCm48JlVeeXvmRQ_1qBmMrFXPQQF82Gruw8lN8bcU2MldlNiH8S4uYEg_bsTcVzmN2ZdAehgm-K8wT2jLLuinmoyqDOF2R-B46Zz46Lb8Mk8ZZIGN5PKP9KL0G42sVAVK1k-YzZEO4yfODrcEtOKMby82ScEqzkDlxTbiJXgf9regsnpMl3WZabrIl1nv7x9ibb3FoUlbjFMdaIn_G9SwIMlUo3Tsa2M-3JsOPSCEHdK1uYcbABddAa0ft57RRCjcLDTJ_cm2sct5AuhxWZ59YEUAsRodP44LbEaTK9-Mv9PXjR8DrRwmsN27l24CxGOZLjiHwxzfwPf7CsN4_L6r5d3MbJT2AK5Vq3NlfuZGuUYdEaPfJDviJVk1tcy-TBTl5wiJRaSlj-KJBa42yOQwlxsFg-P9Fy_GC0]--></g></svg>