<?xml version="1.0" encoding="UTF-8" standalone="no"?><svg xmlns="http://www.w3.org/2000/svg" xmlns:xlink="http://www.w3.org/1999/xlink" contentStyleType="text/css" height="1151px" preserveAspectRatio="none" style="width:3058px;height:1151px;background:#FFFFFF;" version="1.1" viewBox="0 0 3058 1151" width="3058px" zoomAndPan="magnify"><defs/><g><rect fill="#FFFFFF" height="890.3125" style="stroke:#181818;stroke-width:1.0;" width="10" x="875" y="177.3281"/><rect fill="#FFFFFF" height="48.5547" style="stroke:#181818;stroke-width:1.0;" width="10" x="880" y="626.5391"/><rect fill="#FFFFFF" height="295.4375" style="stroke:#181818;stroke-width:1.0;" width="10" x="2133.5" y="285.5469"/><rect fill="#FFFFFF" height="48.5547" style="stroke:#181818;stroke-width:1.0;" width="10" x="2138.5" y="331.1016"/><rect fill="#FFFFFF" height="37.5547" style="stroke:#181818;stroke-width:1.0;" width="10" x="2352.5" y="842.3125"/><rect fill="#FFFFFF" height="37.5547" style="stroke:#181818;stroke-width:1.0;" width="10" x="2501.5" y="917.4219"/><rect fill="#FFFFFF" height="37.5547" style="stroke:#181818;stroke-width:1.0;" width="10" x="2711.5" y="992.5313"/><line style="stroke:#181818;stroke-width:0.5;stroke-dasharray:5.0,5.0;" x1="879.5" x2="879.5" y1="67.1094" y2="1085.6406"/><line style="stroke:#181818;stroke-width:0.5;stroke-dasharray:5.0,5.0;" x1="1912" x2="1912" y1="736.1484" y2="1085.6406"/><line style="stroke:#181818;stroke-width:0.5;stroke-dasharray:5.0,5.0;" x1="2138" x2="2138" y1="67.1094" y2="1085.6406"/><line style="stroke:#181818;stroke-width:0.5;stroke-dasharray:5.0,5.0;" x1="2357" x2="2357" y1="67.1094" y2="1085.6406"/><line style="stroke:#181818;stroke-width:0.5;stroke-dasharray:5.0,5.0;" x1="2506" x2="2506" y1="67.1094" y2="1085.6406"/><line style="stroke:#181818;stroke-width:0.5;stroke-dasharray:5.0,5.0;" x1="2716" x2="2716" y1="67.1094" y2="1085.6406"/><line style="stroke:#181818;stroke-width:0.5;stroke-dasharray:5.0,5.0;" x1="2904.5" x2="2904.5" y1="458.7656" y2="1085.6406"/><line style="stroke:#181818;stroke-width:0.5;stroke-dasharray:5.0,5.0;" x1="3006.5" x2="3006.5" y1="537.1523" y2="1085.6406"/><rect fill="#E3E3E3" height="61.1094" rx="2.5" ry="2.5" style="stroke:#181818;stroke-width:0.5;" width="335" x="712.5" y="5"/><text fill="#000000" font-family="sans-serif" font-size="20" lengthAdjust="spacing" textLength="317" x="721.5" y="31.3359">manageAdvertisementRepository</text><text fill="#000000" font-family="sans-serif" font-size="20" lengthAdjust="spacing" textLength="321" x="719.5" y="54.8906">:ManageAdvertisementRepository</text><rect fill="#E3E3E3" height="61.1094" rx="2.5" ry="2.5" style="stroke:#181818;stroke-width:0.5;" width="335" x="712.5" y="1084.6406"/><text fill="#000000" font-family="sans-serif" font-size="20" lengthAdjust="spacing" textLength="317" x="721.5" y="1110.9766">manageAdvertisementRepository</text><text fill="#000000" font-family="sans-serif" font-size="20" lengthAdjust="spacing" textLength="321" x="719.5" y="1134.5313">:ManageAdvertisementRepository</text><rect fill="#E3E3E3" height="61.1094" rx="2.5" ry="2.5" style="stroke:#181818;stroke-width:0.5;" width="159" x="1833" y="1084.6406"/><text fill="#000000" font-family="sans-serif" font-size="20" lengthAdjust="spacing" textLength="145" x="1840" y="1110.9766">Advertisement:</text><text fill="#000000" font-family="sans-serif" font-size="20" lengthAdjust="spacing" textLength="139" x="1843" y="1134.5313">Advertisement</text><rect fill="#E3E3E3" height="61.1094" rx="2.5" ry="2.5" style="stroke:#181818;stroke-width:0.5;" width="273" x="2002" y="5"/><text fill="#000000" font-family="sans-serif" font-size="20" lengthAdjust="spacing" textLength="255" x="2011" y="31.3359">manageRequestRepository</text><text fill="#000000" font-family="sans-serif" font-size="20" lengthAdjust="spacing" textLength="259" x="2009" y="54.8906">:ManageRequestRepository</text><rect fill="#E3E3E3" height="61.1094" rx="2.5" ry="2.5" style="stroke:#181818;stroke-width:0.5;" width="273" x="2002" y="1084.6406"/><text fill="#000000" font-family="sans-serif" font-size="20" lengthAdjust="spacing" textLength="255" x="2011" y="1110.9766">manageRequestRepository</text><text fill="#000000" font-family="sans-serif" font-size="20" lengthAdjust="spacing" textLength="259" x="2009" y="1134.5313">:ManageRequestRepository</text><rect fill="#E3E3E3" height="37.5547" rx="2.5" ry="2.5" style="stroke:#181818;stroke-width:0.5;" width="139" x="2288" y="28.5547"/><text fill="#000000" font-family="sans-serif" font-size="20" lengthAdjust="spacing" textLength="125" x="2295" y="54.8906">:Repositories</text><rect fill="#E3E3E3" height="37.5547" rx="2.5" ry="2.5" style="stroke:#181818;stroke-width:0.5;" width="139" x="2288" y="1084.6406"/><text fill="#000000" font-family="sans-serif" font-size="20" lengthAdjust="spacing" textLength="125" x="2295" y="1110.9766">:Repositories</text><rect fill="#E3E3E3" height="61.1094" rx="2.5" ry="2.5" style="stroke:#181818;stroke-width:0.5;" width="139" x="2437" y="5"/><text fill="#000000" font-family="sans-serif" font-size="20" lengthAdjust="spacing" textLength="114" x="2449.5" y="31.3359">repositories</text><text fill="#000000" font-family="sans-serif" font-size="20" lengthAdjust="spacing" textLength="125" x="2444" y="54.8906">:Repositories</text><rect fill="#E3E3E3" height="61.1094" rx="2.5" ry="2.5" style="stroke:#181818;stroke-width:0.5;" width="139" x="2437" y="1084.6406"/><text fill="#000000" font-family="sans-serif" font-size="20" lengthAdjust="spacing" textLength="114" x="2449.5" y="1110.9766">repositories</text><text fill="#000000" font-family="sans-serif" font-size="20" lengthAdjust="spacing" textLength="125" x="2444" y="1134.5313">:Repositories</text><rect fill="#E3E3E3" height="61.1094" rx="2.5" ry="2.5" style="stroke:#181818;stroke-width:0.5;" width="261" x="2586" y="5"/><text fill="#000000" font-family="sans-serif" font-size="20" lengthAdjust="spacing" textLength="247" x="2593" y="31.3359">AdvertisementRepository:</text><text fill="#000000" font-family="sans-serif" font-size="20" lengthAdjust="spacing" textLength="241" x="2596" y="54.8906">AdvertisementRepository</text><rect fill="#E3E3E3" height="61.1094" rx="2.5" ry="2.5" style="stroke:#181818;stroke-width:0.5;" width="261" x="2586" y="1084.6406"/><text fill="#000000" font-family="sans-serif" font-size="20" lengthAdjust="spacing" textLength="247" x="2593" y="1110.9766">AdvertisementRepository:</text><text fill="#000000" font-family="sans-serif" font-size="20" lengthAdjust="spacing" textLength="241" x="2596" y="1134.5313">AdvertisementRepository</text><rect fill="#E3E3E3" height="37.5547" rx="2.5" ry="2.5" style="stroke:#181818;stroke-width:0.5;" width="94" x="2857.5" y="1084.6406"/><text fill="#000000" font-family="sans-serif" font-size="20" lengthAdjust="spacing" textLength="80" x="2864.5" y="1110.9766">Property</text><rect fill="#E3E3E3" height="37.5547" rx="2.5" ry="2.5" style="stroke:#181818;stroke-width:0.5;" width="91" x="2961.5" y="1084.6406"/><text fill="#000000" font-family="sans-serif" font-size="20" lengthAdjust="spacing" textLength="77" x="2968.5" y="1110.9766">Request</text><rect fill="#FFFFFF" height="890.3125" style="stroke:#181818;stroke-width:1.0;" width="10" x="875" y="177.3281"/><rect fill="#FFFFFF" height="48.5547" style="stroke:#181818;stroke-width:1.0;" width="10" x="880" y="626.5391"/><rect fill="#FFFFFF" height="295.4375" style="stroke:#181818;stroke-width:1.0;" width="10" x="2133.5" y="285.5469"/><rect fill="#FFFFFF" height="48.5547" style="stroke:#181818;stroke-width:1.0;" width="10" x="2138.5" y="331.1016"/><rect fill="#FFFFFF" height="37.5547" style="stroke:#181818;stroke-width:1.0;" width="10" x="2352.5" y="842.3125"/><rect fill="#FFFFFF" height="37.5547" style="stroke:#181818;stroke-width:1.0;" width="10" x="2501.5" y="917.4219"/><rect fill="#FFFFFF" height="37.5547" style="stroke:#181818;stroke-width:1.0;" width="10" x="2711.5" y="992.5313"/><polygon fill="#181818" points="863,173.3281,873,177.3281,863,181.3281,867,177.3281" style="stroke:#181818;stroke-width:1.0;"/><line style="stroke:#181818;stroke-width:1.0;" x1="0" x2="869" y1="177.3281" y2="177.3281"/><text fill="#000000" font-family="sans-serif" font-size="20" font-weight="bold" lengthAdjust="spacing" textLength="26" x="7" y="135.7773">22</text><text fill="#000000" font-family="sans-serif" font-size="20" lengthAdjust="spacing" textLength="556" x="37" y="100.4453">submitAdvertisement(price, area, distCityCenter, address,</text><text fill="#000000" font-family="sans-serif" font-size="20" lengthAdjust="spacing" textLength="820" x="43" y="124">photographs(linkURI), commission value,\ nBedrooms, nBathRooms, nParkingSpaces,</text><text fill="#000000" font-family="sans-serif" font-size="20" lengthAdjust="spacing" textLength="514" x="43" y="147.5547">EquipmentDesignation, SunExposure, Basement, Loft,</text><text fill="#000000" font-family="sans-serif" font-size="20" lengthAdjust="spacing" textLength="577" x="43" y="171.1094">TypeofBusiness, TypeofProperty, TypeofCommission, agent)</text><polygon fill="#181818" points="2121.5,281.5469,2131.5,285.5469,2121.5,289.5469,2125.5,285.5469" style="stroke:#181818;stroke-width:1.0;"/><line style="stroke:#181818;stroke-width:1.0;" x1="885" x2="2127.5" y1="285.5469" y2="285.5469"/><text fill="#000000" font-family="sans-serif" font-size="20" font-weight="bold" lengthAdjust="spacing" textLength="44" x="892" y="243.9961">22.1</text><text fill="#000000" font-family="sans-serif" font-size="20" lengthAdjust="spacing" textLength="485" x="940" y="208.6641">createRequest(price, area, distCityCenter, address,</text><text fill="#000000" font-family="sans-serif" font-size="20" lengthAdjust="spacing" textLength="636" x="946" y="232.2188">photographs(linkURI),\ nBedrooms, nBathRooms, nParkingSpaces,</text><text fill="#000000" font-family="sans-serif" font-size="20" lengthAdjust="spacing" textLength="514" x="946" y="255.7734">EquipmentDesignation, SunExposure, Basement, Loft,</text><text fill="#000000" font-family="sans-serif" font-size="20" lengthAdjust="spacing" textLength="382" x="946" y="279.3281">TypeofBusiness, TypeofProperty, Agent)</text><line style="stroke:#181818;stroke-width:1.0;" x1="2143.5" x2="2190.5" y1="318.1016" y2="318.1016"/><line style="stroke:#181818;stroke-width:1.0;" x1="2190.5" x2="2190.5" y1="318.1016" y2="331.1016"/><line style="stroke:#181818;stroke-width:1.0;" x1="2149.5" x2="2190.5" y1="331.1016" y2="331.1016"/><polygon fill="#181818" points="2159.5,327.1016,2149.5,331.1016,2159.5,335.1016,2155.5,331.1016" style="stroke:#181818;stroke-width:1.0;"/><text fill="#000000" font-family="sans-serif" font-size="20" font-weight="bold" lengthAdjust="spacing" textLength="44" x="2155.5" y="311.8828">22.2</text><text fill="#000000" font-family="sans-serif" font-size="20" lengthAdjust="spacing" textLength="88" x="2203.5" y="311.8828">getDate()</text><line style="stroke:#181818;stroke-width:1.0;stroke-dasharray:2.0,2.0;" x1="2148.5" x2="2190.5" y1="378.6563" y2="378.6563"/><line style="stroke:#181818;stroke-width:1.0;stroke-dasharray:2.0,2.0;" x1="2190.5" x2="2190.5" y1="378.6563" y2="391.6563"/><line style="stroke:#181818;stroke-width:1.0;stroke-dasharray:2.0,2.0;" x1="2143.5" x2="2190.5" y1="391.6563" y2="391.6563"/><polygon fill="#181818" points="2153.5,387.6563,2143.5,391.6563,2153.5,395.6563,2149.5,391.6563" style="stroke:#181818;stroke-width:1.0;"/><text fill="#000000" font-family="sans-serif" font-size="20" font-weight="bold" lengthAdjust="spacing" textLength="44" x="2155.5" y="372.4375">22.3</text><text fill="#000000" font-family="sans-serif" font-size="20" lengthAdjust="spacing" textLength="142" x="2203.5" y="372.4375">dateOfRequest</text><polygon fill="#181818" points="2845.5,490.875,2855.5,494.875,2845.5,498.875,2849.5,494.875" style="stroke:#181818;stroke-width:1.0;"/><line style="stroke:#181818;stroke-width:1.0;" x1="2143.5" x2="2851.5" y1="494.875" y2="494.875"/><text fill="#000000" font-family="sans-serif" font-size="20" font-weight="bold" lengthAdjust="spacing" textLength="44" x="2150.5" y="453.3242">22.4</text><text fill="#000000" font-family="sans-serif" font-size="20" lengthAdjust="spacing" textLength="488" x="2198.5" y="417.9922">createProperty(price, area, distCityCenter, address,</text><text fill="#000000" font-family="sans-serif" font-size="20" lengthAdjust="spacing" textLength="636" x="2204.5" y="441.5469">photographs(linkURI),\ nBedrooms, nBathRooms, nParkingSpaces,</text><text fill="#000000" font-family="sans-serif" font-size="20" lengthAdjust="spacing" textLength="514" x="2204.5" y="465.1016">EquipmentDesignation, SunExposure, Basement, Loft,</text><text fill="#000000" font-family="sans-serif" font-size="20" lengthAdjust="spacing" textLength="314" x="2204.5" y="488.6563">TypeofBusiness, TypeofProperty)</text><rect fill="#E3E3E3" height="37.5547" rx="2.5" ry="2.5" style="stroke:#181818;stroke-width:0.5;" width="94" x="2857.5" y="454.3203"/><text fill="#000000" font-family="sans-serif" font-size="20" lengthAdjust="spacing" textLength="80" x="2864.5" y="480.6563">Property</text><polygon fill="#181818" points="2949.5,528.4297,2959.5,532.4297,2949.5,536.4297,2953.5,532.4297" style="stroke:#181818;stroke-width:1.0;"/><line style="stroke:#181818;stroke-width:1.0;" x1="2143.5" x2="2955.5" y1="532.4297" y2="532.4297"/><text fill="#000000" font-family="sans-serif" font-size="20" font-weight="bold" lengthAdjust="spacing" textLength="44" x="2150.5" y="526.2109">22.5</text><text fill="#000000" font-family="sans-serif" font-size="20" lengthAdjust="spacing" textLength="450" x="2198.5" y="526.2109">createRequest(property, agent, dateOfRequest)</text><rect fill="#E3E3E3" height="37.5547" rx="2.5" ry="2.5" style="stroke:#181818;stroke-width:0.5;" width="91" x="2961.5" y="502.875"/><text fill="#000000" font-family="sans-serif" font-size="20" lengthAdjust="spacing" textLength="77" x="2968.5" y="529.2109">Request</text><polygon fill="#181818" points="896,576.9844,886,580.9844,896,584.9844,892,580.9844" style="stroke:#181818;stroke-width:1.0;"/><line style="stroke:#181818;stroke-width:1.0;stroke-dasharray:2.0,2.0;" x1="890" x2="2137.5" y1="580.9844" y2="580.9844"/><text fill="#000000" font-family="sans-serif" font-size="20" font-weight="bold" lengthAdjust="spacing" textLength="44" x="902" y="574.7656">22.6</text><text fill="#000000" font-family="sans-serif" font-size="20" lengthAdjust="spacing" textLength="72" x="950" y="574.7656">request</text><line style="stroke:#181818;stroke-width:1.0;" x1="885" x2="932" y1="613.5391" y2="613.5391"/><line style="stroke:#181818;stroke-width:1.0;" x1="932" x2="932" y1="613.5391" y2="626.5391"/><line style="stroke:#181818;stroke-width:1.0;" x1="891" x2="932" y1="626.5391" y2="626.5391"/><polygon fill="#181818" points="901,622.5391,891,626.5391,901,630.5391,897,626.5391" style="stroke:#181818;stroke-width:1.0;"/><text fill="#000000" font-family="sans-serif" font-size="20" font-weight="bold" lengthAdjust="spacing" textLength="44" x="897" y="607.3203">22.7</text><text fill="#000000" font-family="sans-serif" font-size="20" lengthAdjust="spacing" textLength="88" x="945" y="607.3203">getDate()</text><line style="stroke:#181818;stroke-width:1.0;stroke-dasharray:2.0,2.0;" x1="890" x2="932" y1="674.0938" y2="674.0938"/><line style="stroke:#181818;stroke-width:1.0;stroke-dasharray:2.0,2.0;" x1="932" x2="932" y1="674.0938" y2="687.0938"/><line style="stroke:#181818;stroke-width:1.0;stroke-dasharray:2.0,2.0;" x1="885" x2="932" y1="687.0938" y2="687.0938"/><polygon fill="#181818" points="895,683.0938,885,687.0938,895,691.0938,891,687.0938" style="stroke:#181818;stroke-width:1.0;"/><text fill="#000000" font-family="sans-serif" font-size="20" font-weight="bold" lengthAdjust="spacing" textLength="44" x="897" y="667.875">22.8</text><text fill="#000000" font-family="sans-serif" font-size="20" lengthAdjust="spacing" textLength="204" x="945" y="667.875">dateOfAdvertisement</text><polygon fill="#181818" points="1821,715.6484,1831,719.6484,1821,723.6484,1825,719.6484" style="stroke:#181818;stroke-width:1.0;"/><line style="stroke:#181818;stroke-width:1.0;" x1="885" x2="1827" y1="719.6484" y2="719.6484"/><text fill="#000000" font-family="sans-serif" font-size="20" font-weight="bold" lengthAdjust="spacing" textLength="44" x="892" y="713.4297">22.9</text><text fill="#000000" font-family="sans-serif" font-size="20" lengthAdjust="spacing" textLength="876" x="940" y="713.4297">createAdvertisement(request, typeOfCommission, commissionValue, dateOfAdvertisement)</text><rect fill="#E3E3E3" height="61.1094" rx="2.5" ry="2.5" style="stroke:#181818;stroke-width:0.5;" width="159" x="1833" y="690.0938"/><text fill="#000000" font-family="sans-serif" font-size="20" lengthAdjust="spacing" textLength="145" x="1840" y="716.4297">Advertisement:</text><text fill="#000000" font-family="sans-serif" font-size="20" lengthAdjust="spacing" textLength="139" x="1843" y="739.9844">Advertisement</text><line style="stroke:#181818;stroke-width:1.0;" x1="885" x2="927" y1="791.7578" y2="791.7578"/><line style="stroke:#181818;stroke-width:1.0;" x1="927" x2="927" y1="791.7578" y2="804.7578"/><line style="stroke:#181818;stroke-width:1.0;" x1="886" x2="927" y1="804.7578" y2="804.7578"/><polygon fill="#181818" points="896,800.7578,886,804.7578,896,808.7578,892,804.7578" style="stroke:#181818;stroke-width:1.0;"/><text fill="#000000" font-family="sans-serif" font-size="20" font-weight="bold" lengthAdjust="spacing" textLength="57" x="892" y="785.5391">22.10</text><text fill="#000000" font-family="sans-serif" font-size="20" lengthAdjust="spacing" textLength="367" x="953" y="785.5391">validateAdvertisement(Advertisement)</text><polygon fill="#181818" points="2340.5,838.3125,2350.5,842.3125,2340.5,846.3125,2344.5,842.3125" style="stroke:#181818;stroke-width:1.0;"/><line style="stroke:#181818;stroke-width:1.0;" x1="885" x2="2346.5" y1="842.3125" y2="842.3125"/><text fill="#000000" font-family="sans-serif" font-size="20" font-weight="bold" lengthAdjust="spacing" textLength="57" x="892" y="836.0938">22.11</text><text fill="#000000" font-family="sans-serif" font-size="20" lengthAdjust="spacing" textLength="123" x="953" y="836.0938">getInstance()</text><polygon fill="#181818" points="896,875.8672,886,879.8672,896,883.8672,892,879.8672" style="stroke:#181818;stroke-width:1.0;"/><line style="stroke:#181818;stroke-width:1.0;stroke-dasharray:2.0,2.0;" x1="890" x2="2356.5" y1="879.8672" y2="879.8672"/><text fill="#000000" font-family="sans-serif" font-size="20" font-weight="bold" lengthAdjust="spacing" textLength="57" x="902" y="873.6484">22.12</text><text fill="#000000" font-family="sans-serif" font-size="20" lengthAdjust="spacing" textLength="114" x="963" y="873.6484">repositories</text><polygon fill="#181818" points="2489.5,913.4219,2499.5,917.4219,2489.5,921.4219,2493.5,917.4219" style="stroke:#181818;stroke-width:1.0;"/><line style="stroke:#181818;stroke-width:1.0;" x1="885" x2="2495.5" y1="917.4219" y2="917.4219"/><text fill="#000000" font-family="sans-serif" font-size="20" font-weight="bold" lengthAdjust="spacing" textLength="57" x="892" y="911.2031">22.13</text><text fill="#000000" font-family="sans-serif" font-size="20" lengthAdjust="spacing" textLength="285" x="953" y="911.2031">getAdvertisementRepository()</text><polygon fill="#181818" points="896,950.9766,886,954.9766,896,958.9766,892,954.9766" style="stroke:#181818;stroke-width:1.0;"/><line style="stroke:#181818;stroke-width:1.0;stroke-dasharray:2.0,2.0;" x1="890" x2="2505.5" y1="954.9766" y2="954.9766"/><text fill="#000000" font-family="sans-serif" font-size="20" font-weight="bold" lengthAdjust="spacing" textLength="57" x="902" y="948.7578">22.14</text><text fill="#000000" font-family="sans-serif" font-size="20" lengthAdjust="spacing" textLength="241" x="963" y="948.7578">AdvertisementRepository</text><polygon fill="#181818" points="2699.5,988.5313,2709.5,992.5313,2699.5,996.5313,2703.5,992.5313" style="stroke:#181818;stroke-width:1.0;"/><line style="stroke:#181818;stroke-width:1.0;" x1="885" x2="2705.5" y1="992.5313" y2="992.5313"/><text fill="#000000" font-family="sans-serif" font-size="20" font-weight="bold" lengthAdjust="spacing" textLength="57" x="892" y="986.3125">22.15</text><text fill="#000000" font-family="sans-serif" font-size="20" lengthAdjust="spacing" textLength="329" x="953" y="986.3125">addAdvertisement(Advertisement)</text><polygon fill="#181818" points="896,1026.0859,886,1030.0859,896,1034.0859,892,1030.0859" style="stroke:#181818;stroke-width:1.0;"/><line style="stroke:#181818;stroke-width:1.0;stroke-dasharray:2.0,2.0;" x1="890" x2="2715.5" y1="1030.0859" y2="1030.0859"/><text fill="#000000" font-family="sans-serif" font-size="20" font-weight="bold" lengthAdjust="spacing" textLength="57" x="902" y="1023.8672">22.16</text><text fill="#000000" font-family="sans-serif" font-size="20" lengthAdjust="spacing" textLength="6" x="963" y="1023.8672"> </text><polygon fill="#181818" points="11,1063.6406,1,1067.6406,11,1071.6406,7,1067.6406" style="stroke:#181818;stroke-width:1.0;"/><line style="stroke:#181818;stroke-width:1.0;" x1="5" x2="879" y1="1067.6406" y2="1067.6406"/><text fill="#000000" font-family="sans-serif" font-size="20" font-weight="bold" lengthAdjust="spacing" textLength="26" x="17" y="1061.4219">23</text><text fill="#000000" font-family="sans-serif" font-size="20" lengthAdjust="spacing" textLength="139" x="47" y="1061.4219">Advertisement</text><!--SRC=[rLRVRzem47xFNs7r2QemRUmDJKX0EwbIfrRGzOaNDpc2HMAdjiF6_leT8Gans6dITfl6KpYVxxxxxeTFRHXFgQH9B88DX2I45SrY_LLmlM2_W0m_UgfK8OdW8bXBaG3HCeFQIKg33OrWeNSn40c1fZoAwmfgJKFnW_68h6YimFDefWNFaYUGP3ZqF0_LD0jOIhac5mdbQ6qIRW652XBWUWwfK4mBkLloqRUcymj25R5OKAOFusoqvCR_t8OXiG6SmtC6oWRjxAG6gZWxWJEgT1ceNFjuUS7sR29VvXLPku6UpmpStquU6c8-sZ-D_WIsumoJvX7BRp2siaz6H6LF2TE6k9TA5e1Fg0Jgav0fFMDwDyCJa2WDGmbA-KjEqhNG8f8qNQjUpFZc-_ocxvD090bJYWbEjZJEm5yIFeLG2f4e7p-fNi-BxtigiHgZ1POgv1QldpEMxZ5SWM8Hfngj-6IHyUkV668c4TMK7b3wv5QizFxImou5iPfcYl4ziEB_lHGfnhGh_yygM1X3X0RwLgQC7lZmoQuJQBQb6kmLRRrYPR_AIbb-c8y0ITUbu6sP-DUyJnfODXcisi-gxEQpucqmFYCo0ds57dhzrZR_2D0su6rr4ABJkrKXU9Et4FvA46DIPlxoighZKlG_5tBVUs-YYkyQJyT-Bvid7r6-MGQ8n5awPuDT5gNJaFukayhXfRdBtcrGkiCy46Ik1Qswe0sO3eFSaDGoQxwiHL9yeh74xemtwVXiFkQlfYsoBgNO_EASyOXFDGlFy9vwx-pDiZ0TgkQ6Arn8WpRpkKgSRVjgnOSDXQkczfrpNDgy3jFrLV1SnEqNnGDJZbMl2t7vrjcAgTojcnhNsjc1fNPOMhNP4G0oXOz8O-ss9ikvMhzamONDFRswyFPQwkiBxUSNjRyCscJUwxHld4pQtm00]--></g></svg>