<?xml version="1.0" encoding="UTF-8" standalone="no"?><svg xmlns="http://www.w3.org/2000/svg" xmlns:xlink="http://www.w3.org/1999/xlink" contentStyleType="text/css" height="453px" preserveAspectRatio="none" style="width:1040px;height:453px;background:#FFFFFF;" version="1.1" viewBox="0 0 1040 453" width="1040px" zoomAndPan="magnify"><defs/><g><rect fill="#FFFFFF" height="262.8828" style="stroke:#181818;stroke-width:1.0;" width="10" x="247" y="106.6641"/><rect fill="#FFFFFF" height="37.5547" style="stroke:#181818;stroke-width:1.0;" width="10" x="540.5" y="144.2188"/><rect fill="#FFFFFF" height="37.5547" style="stroke:#181818;stroke-width:1.0;" width="10" x="689.5" y="219.3281"/><rect fill="#FFFFFF" height="37.5547" style="stroke:#181818;stroke-width:1.0;" width="10" x="899" y="294.4375"/><line style="stroke:#181818;stroke-width:0.5;stroke-dasharray:5.0,5.0;" x1="252" x2="252" y1="67.1094" y2="387.5469"/><line style="stroke:#181818;stroke-width:0.5;stroke-dasharray:5.0,5.0;" x1="545" x2="545" y1="67.1094" y2="387.5469"/><line style="stroke:#181818;stroke-width:0.5;stroke-dasharray:5.0,5.0;" x1="694" x2="694" y1="67.1094" y2="387.5469"/><line style="stroke:#181818;stroke-width:0.5;stroke-dasharray:5.0,5.0;" x1="904" x2="904" y1="67.1094" y2="387.5469"/><rect fill="#E3E3E3" height="37.5547" rx="2.5" ry="2.5" style="stroke:#181818;stroke-width:0.5;" width="428" x="38" y="28.5547"/><text fill="#000000" font-family="sans-serif" font-size="20" lengthAdjust="spacing" textLength="414" x="45" y="54.8906">:CreateAdvertisementForPropertyController</text><rect fill="#E3E3E3" height="37.5547" rx="2.5" ry="2.5" style="stroke:#181818;stroke-width:0.5;" width="428" x="38" y="386.5469"/><text fill="#000000" font-family="sans-serif" font-size="20" lengthAdjust="spacing" textLength="414" x="45" y="412.8828">:CreateAdvertisementForPropertyController</text><rect fill="#E3E3E3" height="37.5547" rx="2.5" ry="2.5" style="stroke:#181818;stroke-width:0.5;" width="139" x="476" y="28.5547"/><text fill="#000000" font-family="sans-serif" font-size="20" lengthAdjust="spacing" textLength="125" x="483" y="54.8906">:Repositories</text><rect fill="#E3E3E3" height="37.5547" rx="2.5" ry="2.5" style="stroke:#181818;stroke-width:0.5;" width="139" x="476" y="386.5469"/><text fill="#000000" font-family="sans-serif" font-size="20" lengthAdjust="spacing" textLength="125" x="483" y="412.8828">:Repositories</text><rect fill="#E3E3E3" height="61.1094" rx="2.5" ry="2.5" style="stroke:#181818;stroke-width:0.5;" width="139" x="625" y="5"/><text fill="#000000" font-family="sans-serif" font-size="20" lengthAdjust="spacing" textLength="114" x="637.5" y="31.3359">repositories</text><text fill="#000000" font-family="sans-serif" font-size="20" lengthAdjust="spacing" textLength="125" x="632" y="54.8906">:Repositories</text><rect fill="#E3E3E3" height="61.1094" rx="2.5" ry="2.5" style="stroke:#181818;stroke-width:0.5;" width="139" x="625" y="386.5469"/><text fill="#000000" font-family="sans-serif" font-size="20" lengthAdjust="spacing" textLength="114" x="637.5" y="412.8828">repositories</text><text fill="#000000" font-family="sans-serif" font-size="20" lengthAdjust="spacing" textLength="125" x="632" y="436.4375">:Repositories</text><rect fill="#E3E3E3" height="37.5547" rx="2.5" ry="2.5" style="stroke:#181818;stroke-width:0.5;" width="260" x="774" y="28.5547"/><text fill="#000000" font-family="sans-serif" font-size="20" lengthAdjust="spacing" textLength="246" x="781" y="54.8906">typeOfPropertyRepository</text><rect fill="#E3E3E3" height="37.5547" rx="2.5" ry="2.5" style="stroke:#181818;stroke-width:0.5;" width="260" x="774" y="386.5469"/><text fill="#000000" font-family="sans-serif" font-size="20" lengthAdjust="spacing" textLength="246" x="781" y="412.8828">typeOfPropertyRepository</text><rect fill="#FFFFFF" height="262.8828" style="stroke:#181818;stroke-width:1.0;" width="10" x="247" y="106.6641"/><rect fill="#FFFFFF" height="37.5547" style="stroke:#181818;stroke-width:1.0;" width="10" x="540.5" y="144.2188"/><rect fill="#FFFFFF" height="37.5547" style="stroke:#181818;stroke-width:1.0;" width="10" x="689.5" y="219.3281"/><rect fill="#FFFFFF" height="37.5547" style="stroke:#181818;stroke-width:1.0;" width="10" x="899" y="294.4375"/><polygon fill="#181818" points="235,102.6641,245,106.6641,235,110.6641,239,106.6641" style="stroke:#181818;stroke-width:1.0;"/><line style="stroke:#181818;stroke-width:1.0;" x1="0" x2="241" y1="106.6641" y2="106.6641"/><text fill="#000000" font-family="sans-serif" font-size="20" font-weight="bold" lengthAdjust="spacing" textLength="13" x="7" y="100.4453">5</text><text fill="#000000" font-family="sans-serif" font-size="20" lengthAdjust="spacing" textLength="211" x="24" y="100.4453">getTypeOfProperties()</text><polygon fill="#181818" points="528.5,140.2188,538.5,144.2188,528.5,148.2188,532.5,144.2188" style="stroke:#181818;stroke-width:1.0;"/><line style="stroke:#181818;stroke-width:1.0;" x1="257" x2="534.5" y1="144.2188" y2="144.2188"/><text fill="#000000" font-family="sans-serif" font-size="20" font-weight="bold" lengthAdjust="spacing" textLength="31" x="264" y="138">5.1</text><text fill="#000000" font-family="sans-serif" font-size="20" lengthAdjust="spacing" textLength="123" x="299" y="138">getInstance()</text><polygon fill="#181818" points="268,177.7734,258,181.7734,268,185.7734,264,181.7734" style="stroke:#181818;stroke-width:1.0;"/><line style="stroke:#181818;stroke-width:1.0;stroke-dasharray:2.0,2.0;" x1="262" x2="544.5" y1="181.7734" y2="181.7734"/><text fill="#000000" font-family="sans-serif" font-size="20" font-weight="bold" lengthAdjust="spacing" textLength="31" x="274" y="175.5547">5.2</text><text fill="#000000" font-family="sans-serif" font-size="20" lengthAdjust="spacing" textLength="114" x="309" y="175.5547">repositories</text><polygon fill="#181818" points="677.5,215.3281,687.5,219.3281,677.5,223.3281,681.5,219.3281" style="stroke:#181818;stroke-width:1.0;"/><line style="stroke:#181818;stroke-width:1.0;" x1="257" x2="683.5" y1="219.3281" y2="219.3281"/><text fill="#000000" font-family="sans-serif" font-size="20" font-weight="bold" lengthAdjust="spacing" textLength="31" x="264" y="213.1094">5.3</text><text fill="#000000" font-family="sans-serif" font-size="20" lengthAdjust="spacing" textLength="313" x="299" y="213.1094">getTypeOfPropertiesRepository()</text><polygon fill="#181818" points="268,252.8828,258,256.8828,268,260.8828,264,256.8828" style="stroke:#181818;stroke-width:1.0;"/><line style="stroke:#181818;stroke-width:1.0;stroke-dasharray:2.0,2.0;" x1="262" x2="693.5" y1="256.8828" y2="256.8828"/><text fill="#000000" font-family="sans-serif" font-size="20" font-weight="bold" lengthAdjust="spacing" textLength="31" x="274" y="250.6641">5.4</text><text fill="#000000" font-family="sans-serif" font-size="20" lengthAdjust="spacing" textLength="269" x="309" y="250.6641">TypeOfPropertiesRepository</text><polygon fill="#181818" points="887,290.4375,897,294.4375,887,298.4375,891,294.4375" style="stroke:#181818;stroke-width:1.0;"/><line style="stroke:#181818;stroke-width:1.0;" x1="257" x2="893" y1="294.4375" y2="294.4375"/><text fill="#000000" font-family="sans-serif" font-size="20" font-weight="bold" lengthAdjust="spacing" textLength="31" x="264" y="288.2188">5.5</text><text fill="#000000" font-family="sans-serif" font-size="20" lengthAdjust="spacing" textLength="211" x="299" y="288.2188">getTypeOfProperties()</text><polygon fill="#181818" points="268,327.9922,258,331.9922,268,335.9922,264,331.9922" style="stroke:#181818;stroke-width:1.0;"/><line style="stroke:#181818;stroke-width:1.0;stroke-dasharray:2.0,2.0;" x1="262" x2="903" y1="331.9922" y2="331.9922"/><text fill="#000000" font-family="sans-serif" font-size="20" font-weight="bold" lengthAdjust="spacing" textLength="31" x="274" y="325.7734">5.6</text><text fill="#000000" font-family="sans-serif" font-size="20" lengthAdjust="spacing" textLength="201" x="309" y="325.7734">TypeOfPropertiesList</text><polygon fill="#181818" points="11,365.5469,1,369.5469,11,373.5469,7,369.5469" style="stroke:#181818;stroke-width:1.0;"/><line style="stroke:#181818;stroke-width:1.0;" x1="5" x2="251" y1="369.5469" y2="369.5469"/><text fill="#000000" font-family="sans-serif" font-size="20" font-weight="bold" lengthAdjust="spacing" textLength="13" x="17" y="363.3281">6</text><text fill="#000000" font-family="sans-serif" font-size="20" lengthAdjust="spacing" textLength="201" x="34" y="363.3281">TypeOfPropertiesList</text><!--SRC=[fPF1Qy8m5CRl-IiUdhP3npRO3Z868Wm6maGzxfAbpnfCavAyEhg_VcdLDTNMgdl7v7lvVkzBujPIPzpoL1cnnXXYNF9SqPlHD9S_28_tpEqba1fjnCgQ585iZi5EniMQ9pYdGY5O5CHreaA1M_7OV4kTm98hXupnd8pEqo-qyCIO5v4KCkEQO30SM-I4etY3VjLXYje3sQarcLyenfxD6gNG3e0x62zcauF-6MR6IJ9MegiqVml5N9PWthhPOeEEJtrym7GoMZ06GKMlbJCC8K5Q51b-B7U0lkVcjg4DPxrxQ6mrP8BanW- -7QbJLbPbxH5Q1jiIlMldxq3W0Sb9sxQKUhlBQgE8TW4D8SoszxWO_uUp3wQyiFQxgO-z99lZ1z1MbMizURVr9JcSPxqVd4BFedOyww6UZA3hv7wsJgQe_aM7P1Ffw9AKEkbwvwi_v_D9yKjq5Ml0MBR_0W00]--></g></svg>