<?xml version="1.0" encoding="UTF-8" standalone="no"?><svg xmlns="http://www.w3.org/2000/svg" xmlns:xlink="http://www.w3.org/1999/xlink" contentStyleType="text/css" height="2035px" preserveAspectRatio="none" style="width:1467px;height:2035px;background:#FFFFFF;" version="1.1" viewBox="0 0 1467 2035" width="1467px" zoomAndPan="magnify"><defs/><g><!--class CreateAdvertisementForPropertyUI--><g id="elem_CreateAdvertisementForPropertyUI"><rect codeLine="11" fill="#F1F1F1" height="50" id="CreateAdvertisementForPropertyUI" rx="2.5" ry="2.5" style="stroke:#181818;stroke-width:0.5;" width="366" x="651" y="7"/><ellipse cx="667" cy="24" fill="#ADD1B2" rx="12" ry="12" style="stroke:#181818;stroke-width:1.0;"/><path d="M669.8066,31.0801 Q669.123,31.4316 668.3711,31.6074 Q667.6191,31.7832 666.7891,31.7832 Q663.8398,31.7832 662.2871,29.8398 Q660.7344,27.8965 660.7344,24.2246 Q660.7344,20.543 662.2871,18.5996 Q663.8398,16.6563 666.7891,16.6563 Q667.6191,16.6563 668.3809,16.832 Q669.1426,17.0078 669.8066,17.3594 L669.8066,20.5625 Q669.0645,19.8789 668.3662,19.5615 Q667.668,19.2441 666.9258,19.2441 Q665.3438,19.2441 664.5381,20.499 Q663.7324,21.7539 663.7324,24.2246 Q663.7324,26.6855 664.5381,27.9404 Q665.3438,29.1953 666.9258,29.1953 Q667.668,29.1953 668.3662,28.8779 Q669.0645,28.5605 669.8066,27.877 Z " fill="#000000"/><text fill="#000000" font-family="sans-serif" font-size="20" lengthAdjust="spacing" textLength="332" x="682" y="31.5586">CreateAdvertisementForPropertyUI</text><line style="stroke:#181818;stroke-width:0.5;" x1="652" x2="1016" y1="41" y2="41"/><line style="stroke:#181818;stroke-width:0.5;" x1="652" x2="1016" y1="49" y2="49"/></g><!--class CreateAdvertisementForPropertyController--><g id="elem_CreateAdvertisementForPropertyController"><rect codeLine="13" fill="#F1F1F1" height="285.5469" id="CreateAdvertisementForPropertyController" rx="2.5" ry="2.5" style="stroke:#181818;stroke-width:0.5;" width="920" x="374" y="117"/><ellipse cx="625.5" cy="134" fill="#ADD1B2" rx="12" ry="12" style="stroke:#181818;stroke-width:1.0;"/><path d="M628.3066,141.0801 Q627.623,141.4316 626.8711,141.6074 Q626.1191,141.7832 625.2891,141.7832 Q622.3398,141.7832 620.7871,139.8398 Q619.2344,137.8965 619.2344,134.2246 Q619.2344,130.543 620.7871,128.5996 Q622.3398,126.6563 625.2891,126.6563 Q626.1191,126.6563 626.8809,126.832 Q627.6426,127.0078 628.3066,127.3594 L628.3066,130.5625 Q627.5645,129.8789 626.8662,129.5615 Q626.168,129.2441 625.4258,129.2441 Q623.8438,129.2441 623.0381,130.499 Q622.2324,131.7539 622.2324,134.2246 Q622.2324,136.6855 623.0381,137.9404 Q623.8438,139.1953 625.4258,139.1953 Q626.168,139.1953 626.8662,138.8779 Q627.5645,138.5605 628.3066,137.877 Z " fill="#000000"/><text fill="#000000" font-family="sans-serif" font-size="20" lengthAdjust="spacing" textLength="408" x="647.5" y="141.5586">CreateAdvertisementForPropertyController</text><line style="stroke:#181818;stroke-width:0.5;" x1="375" x2="1293" y1="151" y2="151"/><line style="stroke:#181818;stroke-width:0.5;" x1="375" x2="1293" y1="159" y2="159"/><text fill="#000000" font-family="sans-serif" font-size="20" lengthAdjust="spacing" textLength="438" x="380" y="182.3359">+CreateAdvertisementForPropertyController()</text><text fill="#000000" font-family="sans-serif" font-size="20" lengthAdjust="spacing" textLength="116" x="380" y="205.8906">+getAgent()</text><text fill="#000000" font-family="sans-serif" font-size="20" lengthAdjust="spacing" textLength="213" x="380" y="229.4453">+getTypeOfBusiness()</text><text fill="#000000" font-family="sans-serif" font-size="20" lengthAdjust="spacing" textLength="210" x="380" y="253">+getTypeOfProperty()</text><text fill="#000000" font-family="sans-serif" font-size="20" lengthAdjust="spacing" textLength="250" x="380" y="276.5547">+getTypeOfCommission()</text><text fill="#000000" font-family="sans-serif" font-size="20" lengthAdjust="spacing" textLength="184" x="380" y="300.1094">+getSunExposure()</text><text fill="#000000" font-family="sans-serif" font-size="20" lengthAdjust="spacing" textLength="572" x="380" y="323.6641">+submitAdvertisement(price, area, distCityCenter, address,</text><text fill="#000000" font-family="sans-serif" font-size="20" lengthAdjust="spacing" textLength="538" x="380" y="347.2188">photograph, numberOfBedrooms, numberOfBathrooms,</text><text fill="#000000" font-family="sans-serif" font-size="20" lengthAdjust="spacing" textLength="607" x="386" y="370.7734">numberOfParkingSpaces, equipmentDesignation, sunExposure,</text><text fill="#000000" font-family="sans-serif" font-size="20" lengthAdjust="spacing" textLength="902" x="386" y="394.3281">basement, loft, typeOfBusiness, typeOfProperty, typeOfCommission, commissionValue, agent)</text></g><!--class Repositories--><g id="elem_Repositories"><rect codeLine="23" fill="#F1F1F1" height="167.7734" id="Repositories" rx="2.5" ry="2.5" style="stroke:#181818;stroke-width:0.5;" width="313" x="831.5" y="785"/><ellipse cx="924" cy="802" fill="#ADD1B2" rx="12" ry="12" style="stroke:#181818;stroke-width:1.0;"/><path d="M926.8066,809.0801 Q926.123,809.4316 925.3711,809.6074 Q924.6191,809.7832 923.7891,809.7832 Q920.8398,809.7832 919.2871,807.8398 Q917.7344,805.8965 917.7344,802.2246 Q917.7344,798.543 919.2871,796.5996 Q920.8398,794.6563 923.7891,794.6563 Q924.6191,794.6563 925.3809,794.832 Q926.1426,795.0078 926.8066,795.3594 L926.8066,798.5625 Q926.0645,797.8789 925.3662,797.5615 Q924.668,797.2441 923.9258,797.2441 Q922.3438,797.2441 921.5381,798.499 Q920.7324,799.7539 920.7324,802.2246 Q920.7324,804.6855 921.5381,805.9404 Q922.3438,807.1953 923.9258,807.1953 Q924.668,807.1953 925.3662,806.8779 Q926.0645,806.5605 926.8066,805.877 Z " fill="#000000"/><text fill="#000000" font-family="sans-serif" font-size="20" lengthAdjust="spacing" textLength="119" x="946" y="809.5586">Repositories</text><line style="stroke:#181818;stroke-width:0.5;" x1="832.5" x2="1143.5" y1="819" y2="819"/><line style="stroke:#181818;stroke-width:0.5;" x1="832.5" x2="1143.5" y1="827" y2="827"/><text fill="#000000" font-family="sans-serif" font-size="20" lengthAdjust="spacing" textLength="145" x="837.5" y="850.3359">-Repositories()</text><text fill="#000000" font-family="sans-serif" font-size="20" lengthAdjust="spacing" textLength="276" x="837.5" y="873.8906">+getInstance() : Repositories</text><text fill="#000000" font-family="sans-serif" font-size="20" lengthAdjust="spacing" textLength="301" x="837.5" y="897.4453">+getAdvertisementRepository()</text><text fill="#000000" font-family="sans-serif" font-size="20" lengthAdjust="spacing" textLength="255" x="837.5" y="921">+getEmployeeRepository()</text><text fill="#000000" font-family="sans-serif" font-size="20" lengthAdjust="spacing" textLength="211" x="837.5" y="944.5547">+getFilterRepository()</text></g><!--class ManageEmployeeRepository--><g id="elem_ManageEmployeeRepository"><rect codeLine="30" fill="#F1F1F1" height="120.6641" id="ManageEmployeeRepository" rx="2.5" ry="2.5" style="stroke:#181818;stroke-width:0.5;" width="508" x="952" y="533.5"/><ellipse cx="1067" cy="550.5" fill="#ADD1B2" rx="12" ry="12" style="stroke:#181818;stroke-width:1.0;"/><path d="M1069.8066,557.5801 Q1069.123,557.9316 1068.3711,558.1074 Q1067.6191,558.2832 1066.7891,558.2832 Q1063.8398,558.2832 1062.2871,556.3398 Q1060.7344,554.3965 1060.7344,550.7246 Q1060.7344,547.043 1062.2871,545.0996 Q1063.8398,543.1563 1066.7891,543.1563 Q1067.6191,543.1563 1068.3809,543.332 Q1069.1426,543.5078 1069.8066,543.8594 L1069.8066,547.0625 Q1069.0645,546.3789 1068.3662,546.0615 Q1067.668,545.7441 1066.9258,545.7441 Q1065.3438,545.7441 1064.5381,546.999 Q1063.7324,548.2539 1063.7324,550.7246 Q1063.7324,553.1855 1064.5381,554.4404 Q1065.3438,555.6953 1066.9258,555.6953 Q1067.668,555.6953 1068.3662,555.3779 Q1069.0645,555.0605 1069.8066,554.377 Z " fill="#000000"/><text fill="#000000" font-family="sans-serif" font-size="20" lengthAdjust="spacing" textLength="269" x="1089" y="558.0586">ManageEmployeeRepository</text><line style="stroke:#181818;stroke-width:0.5;" x1="953" x2="1459" y1="567.5" y2="567.5"/><line style="stroke:#181818;stroke-width:0.5;" x1="953" x2="1459" y1="575.5" y2="575.5"/><text fill="#000000" font-family="sans-serif" font-size="20" lengthAdjust="spacing" textLength="496" x="958" y="598.8359">+manageEmployeeRepository(employeeRepository)</text><text fill="#000000" font-family="sans-serif" font-size="20" lengthAdjust="spacing" textLength="126" x="958" y="622.3906">+getAgents()</text><text fill="#000000" font-family="sans-serif" font-size="20" lengthAdjust="spacing" textLength="277" x="958" y="645.9453">-getEmployeeByEmail(email)</text></g><!--class ManageAdvertisementRepository--><g id="elem_ManageAdvertisementRepository"><rect codeLine="36" fill="#F1F1F1" height="261.9922" id="ManageAdvertisementRepository" rx="2.5" ry="2.5" style="stroke:#181818;stroke-width:0.5;" width="910" x="7" y="463"/><ellipse cx="300" cy="480" fill="#ADD1B2" rx="12" ry="12" style="stroke:#181818;stroke-width:1.0;"/><path d="M302.8066,487.0801 Q302.123,487.4316 301.3711,487.6074 Q300.6191,487.7832 299.7891,487.7832 Q296.8398,487.7832 295.2871,485.8398 Q293.7344,483.8965 293.7344,480.2246 Q293.7344,476.543 295.2871,474.5996 Q296.8398,472.6563 299.7891,472.6563 Q300.6191,472.6563 301.3809,472.832 Q302.1426,473.0078 302.8066,473.3594 L302.8066,476.5625 Q302.0645,475.8789 301.3662,475.5615 Q300.668,475.2441 299.9258,475.2441 Q298.3438,475.2441 297.5381,476.499 Q296.7324,477.7539 296.7324,480.2246 Q296.7324,482.6855 297.5381,483.9404 Q298.3438,485.1953 299.9258,485.1953 Q300.668,485.1953 301.3662,484.8779 Q302.0645,484.5605 302.8066,483.877 Z " fill="#000000"/><text fill="#000000" font-family="sans-serif" font-size="20" lengthAdjust="spacing" textLength="315" x="322" y="487.5586">ManageAdvertisementRepository</text><line style="stroke:#181818;stroke-width:0.5;" x1="8" x2="916" y1="497" y2="497"/><line style="stroke:#181818;stroke-width:0.5;" x1="8" x2="916" y1="505" y2="505"/><text fill="#000000" font-family="sans-serif" font-size="20" lengthAdjust="spacing" textLength="585" x="13" y="528.3359">+manageAdvertisementRepository(advertisementRepository)</text><text fill="#000000" font-family="sans-serif" font-size="20" lengthAdjust="spacing" textLength="504" x="13" y="551.8906">+createProperty(price, area, distCityCenter, address,</text><text fill="#000000" font-family="sans-serif" font-size="20" lengthAdjust="spacing" textLength="538" x="13" y="575.4453">photograph, numberOfBedrooms, numberOfBathrooms,</text><text fill="#000000" font-family="sans-serif" font-size="20" lengthAdjust="spacing" textLength="607" x="19" y="599">numberOfParkingSpaces, equipmentDesignation, sunExposure,</text><text fill="#000000" font-family="sans-serif" font-size="20" lengthAdjust="spacing" textLength="460" x="19" y="622.5547">basement, loft, typeOfBusiness, typeOfProperty)</text><text fill="#000000" font-family="sans-serif" font-size="20" lengthAdjust="spacing" textLength="466" x="13" y="646.1094">+createRequest(property, agent, dateOfRequest)</text><text fill="#000000" font-family="sans-serif" font-size="20" lengthAdjust="spacing" textLength="898" x="13" y="669.6641">+createAdvertisement( request, typeOfCommission, commissionValue, dateOfAdvertisement)</text><text fill="#000000" font-family="sans-serif" font-size="20" lengthAdjust="spacing" textLength="100" x="13" y="693.2188">-getDate()</text><text fill="#000000" font-family="sans-serif" font-size="20" lengthAdjust="spacing" textLength="376" x="13" y="716.7734">-validateAdvertisement(advertisement)</text></g><!--class AdvertisementRepository--><g id="elem_AdvertisementRepository"><rect codeLine="44" fill="#F1F1F1" height="73.5547" id="AdvertisementRepository" rx="2.5" ry="2.5" style="stroke:#181818;stroke-width:0.5;" width="350" x="551" y="1013"/><ellipse cx="601" cy="1030" fill="#ADD1B2" rx="12" ry="12" style="stroke:#181818;stroke-width:1.0;"/><path d="M603.8066,1037.0801 Q603.123,1037.4316 602.3711,1037.6074 Q601.6191,1037.7832 600.7891,1037.7832 Q597.8398,1037.7832 596.2871,1035.8398 Q594.7344,1033.8965 594.7344,1030.2246 Q594.7344,1026.543 596.2871,1024.5996 Q597.8398,1022.6563 600.7891,1022.6563 Q601.6191,1022.6563 602.3809,1022.832 Q603.1426,1023.0078 603.8066,1023.3594 L603.8066,1026.5625 Q603.0645,1025.8789 602.3662,1025.5615 Q601.668,1025.2441 600.9258,1025.2441 Q599.3438,1025.2441 598.5381,1026.499 Q597.7324,1027.7539 597.7324,1030.2246 Q597.7324,1032.6855 598.5381,1033.9404 Q599.3438,1035.1953 600.9258,1035.1953 Q601.668,1035.1953 602.3662,1034.8779 Q603.0645,1034.5605 603.8066,1033.877 Z " fill="#000000"/><text fill="#000000" font-family="sans-serif" font-size="20" lengthAdjust="spacing" textLength="241" x="623" y="1037.5586">AdvertisementRepository</text><line style="stroke:#181818;stroke-width:0.5;" x1="552" x2="900" y1="1047" y2="1047"/><line style="stroke:#181818;stroke-width:0.5;" x1="552" x2="900" y1="1055" y2="1055"/><text fill="#000000" font-family="sans-serif" font-size="20" lengthAdjust="spacing" textLength="338" x="557" y="1078.3359">-addAdvertisement(advertisement)</text></g><!--class Request--><g id="elem_Request"><rect codeLine="48" fill="#F1F1F1" height="144.2188" id="Request" rx="2.5" ry="2.5" style="stroke:#181818;stroke-width:0.5;" width="415" x="409.5" y="1445"/><ellipse cx="574" cy="1462" fill="#ADD1B2" rx="12" ry="12" style="stroke:#181818;stroke-width:1.0;"/><path d="M576.8066,1469.0801 Q576.123,1469.4316 575.3711,1469.6074 Q574.6191,1469.7832 573.7891,1469.7832 Q570.8398,1469.7832 569.2871,1467.8398 Q567.7344,1465.8965 567.7344,1462.2246 Q567.7344,1458.543 569.2871,1456.5996 Q570.8398,1454.6563 573.7891,1454.6563 Q574.6191,1454.6563 575.3809,1454.832 Q576.1426,1455.0078 576.8066,1455.3594 L576.8066,1458.5625 Q576.0645,1457.8789 575.3662,1457.5615 Q574.668,1457.2441 573.9258,1457.2441 Q572.3438,1457.2441 571.5381,1458.499 Q570.7324,1459.7539 570.7324,1462.2246 Q570.7324,1464.6855 571.5381,1465.9404 Q572.3438,1467.1953 573.9258,1467.1953 Q574.668,1467.1953 575.3662,1466.8779 Q576.0645,1466.5605 576.8066,1465.877 Z " fill="#000000"/><text fill="#000000" font-family="sans-serif" font-size="20" lengthAdjust="spacing" textLength="77" x="596" y="1469.5586">Request</text><line style="stroke:#181818;stroke-width:0.5;" x1="410.5" x2="823.5" y1="1479" y2="1479"/><text fill="#000000" font-family="sans-serif" font-size="20" lengthAdjust="spacing" textLength="180" x="415.5" y="1502.3359">-Property property</text><text fill="#000000" font-family="sans-serif" font-size="20" lengthAdjust="spacing" textLength="216" x="415.5" y="1525.8906">-String dateOfRequest</text><text fill="#000000" font-family="sans-serif" font-size="20" lengthAdjust="spacing" textLength="127" x="415.5" y="1549.4453">-Agent agent</text><line style="stroke:#181818;stroke-width:0.5;" x1="410.5" x2="823.5" y1="1557.6641" y2="1557.6641"/><text fill="#000000" font-family="sans-serif" font-size="20" lengthAdjust="spacing" textLength="403" x="415.5" y="1581">+request(property, dateOfRequest, agent)</text></g><!--class Advertisement--><g id="elem_Advertisement"><rect codeLine="54" fill="#F1F1F1" height="144.2188" id="Advertisement" rx="2.5" ry="2.5" style="stroke:#181818;stroke-width:0.5;" width="404" x="480" y="1194"/><ellipse cx="608" cy="1211" fill="#ADD1B2" rx="12" ry="12" style="stroke:#181818;stroke-width:1.0;"/><path d="M610.8066,1218.0801 Q610.123,1218.4316 609.3711,1218.6074 Q608.6191,1218.7832 607.7891,1218.7832 Q604.8398,1218.7832 603.2871,1216.8398 Q601.7344,1214.8965 601.7344,1211.2246 Q601.7344,1207.543 603.2871,1205.5996 Q604.8398,1203.6563 607.7891,1203.6563 Q608.6191,1203.6563 609.3809,1203.832 Q610.1426,1204.0078 610.8066,1204.3594 L610.8066,1207.5625 Q610.0645,1206.8789 609.3662,1206.5615 Q608.668,1206.2441 607.9258,1206.2441 Q606.3438,1206.2441 605.5381,1207.499 Q604.7324,1208.7539 604.7324,1211.2246 Q604.7324,1213.6855 605.5381,1214.9404 Q606.3438,1216.1953 607.9258,1216.1953 Q608.668,1216.1953 609.3662,1215.8779 Q610.0645,1215.5605 610.8066,1214.877 Z " fill="#000000"/><text fill="#000000" font-family="sans-serif" font-size="20" lengthAdjust="spacing" textLength="139" x="630" y="1218.5586">Advertisement</text><line style="stroke:#181818;stroke-width:0.5;" x1="481" x2="883" y1="1228" y2="1228"/><text fill="#000000" font-family="sans-serif" font-size="20" lengthAdjust="spacing" textLength="167" x="486" y="1251.3359">-Request request</text><text fill="#000000" font-family="sans-serif" font-size="20" lengthAdjust="spacing" textLength="254" x="486" y="1274.8906">-double commissionValue</text><text fill="#000000" font-family="sans-serif" font-size="20" lengthAdjust="spacing" textLength="278" x="486" y="1298.4453">-String dateOfAdvertisement</text><text fill="#000000" font-family="sans-serif" font-size="20" lengthAdjust="spacing" textLength="392" x="486" y="1322">-TypeOfCommission typeOfCommission</text><line style="stroke:#181818;stroke-width:0.5;" x1="481" x2="883" y1="1330.2188" y2="1330.2188"/></g><!--class Property--><g id="elem_Property"><rect codeLine="60" fill="#F1F1F1" height="379.7656" id="Property" rx="2.5" ry="2.5" style="stroke:#181818;stroke-width:0.5;" width="330" x="321" y="1649"/><ellipse cx="441.5" cy="1666" fill="#ADD1B2" rx="12" ry="12" style="stroke:#181818;stroke-width:1.0;"/><path d="M444.3066,1673.0801 Q443.623,1673.4316 442.8711,1673.6074 Q442.1191,1673.7832 441.2891,1673.7832 Q438.3398,1673.7832 436.7871,1671.8398 Q435.2344,1669.8965 435.2344,1666.2246 Q435.2344,1662.543 436.7871,1660.5996 Q438.3398,1658.6563 441.2891,1658.6563 Q442.1191,1658.6563 442.8809,1658.832 Q443.6426,1659.0078 444.3066,1659.3594 L444.3066,1662.5625 Q443.5645,1661.8789 442.8662,1661.5615 Q442.168,1661.2441 441.4258,1661.2441 Q439.8438,1661.2441 439.0381,1662.499 Q438.2324,1663.7539 438.2324,1666.2246 Q438.2324,1668.6855 439.0381,1669.9404 Q439.8438,1671.1953 441.4258,1671.1953 Q442.168,1671.1953 442.8662,1670.8779 Q443.5645,1670.5605 444.3066,1669.877 Z " fill="#000000"/><text fill="#000000" font-family="sans-serif" font-size="20" lengthAdjust="spacing" textLength="80" x="463.5" y="1673.5586">Property</text><line style="stroke:#181818;stroke-width:0.5;" x1="322" x2="650" y1="1683" y2="1683"/><text fill="#000000" font-family="sans-serif" font-size="20" lengthAdjust="spacing" textLength="133" x="327" y="1706.3359">-double price</text><text fill="#000000" font-family="sans-serif" font-size="20" lengthAdjust="spacing" textLength="126" x="327" y="1729.8906">-double area</text><text fill="#000000" font-family="sans-serif" font-size="20" lengthAdjust="spacing" textLength="221" x="327" y="1753.4453">-double distCityCenter</text><text fill="#000000" font-family="sans-serif" font-size="20" lengthAdjust="spacing" textLength="173" x="327" y="1777">-Address address</text><text fill="#000000" font-family="sans-serif" font-size="20" lengthAdjust="spacing" textLength="240" x="327" y="1800.5547">-Photograph photograph</text><text fill="#000000" font-family="sans-serif" font-size="20" lengthAdjust="spacing" textLength="244" x="327" y="1824.1094">-int numberOfBathrooms</text><text fill="#000000" font-family="sans-serif" font-size="20" lengthAdjust="spacing" textLength="238" x="327" y="1847.6641">-int numberOfBedrooms</text><text fill="#000000" font-family="sans-serif" font-size="20" lengthAdjust="spacing" textLength="279" x="327" y="1871.2188">-int numberOfParkingSpaces</text><text fill="#000000" font-family="sans-serif" font-size="20" lengthAdjust="spacing" textLength="226" x="327" y="1894.7734">-Equipment equipment</text><text fill="#000000" font-family="sans-serif" font-size="20" lengthAdjust="spacing" textLength="197" x="327" y="1918.3281">-String sunExposure</text><text fill="#000000" font-family="sans-serif" font-size="20" lengthAdjust="spacing" textLength="189" x="327" y="1941.8828">-boolean basement</text><text fill="#000000" font-family="sans-serif" font-size="20" lengthAdjust="spacing" textLength="127" x="327" y="1965.4375">-boolean loft</text><text fill="#000000" font-family="sans-serif" font-size="20" lengthAdjust="spacing" textLength="318" x="327" y="1988.9922">-TypeOfBusiness typeOfBusiness</text><text fill="#000000" font-family="sans-serif" font-size="20" lengthAdjust="spacing" textLength="312" x="327" y="2012.5469">-TypeOfProperty typeOfProperty</text><line style="stroke:#181818;stroke-width:0.5;" x1="322" x2="650" y1="2020.7656" y2="2020.7656"/></g><!--class Employee--><g id="elem_Employee"><rect codeLine="77" fill="#F1F1F1" height="238.4375" id="Employee" rx="2.5" ry="2.5" style="stroke:#181818;stroke-width:0.5;" width="539" x="919.5" y="1147"/><ellipse cx="1138" cy="1164" fill="#ADD1B2" rx="12" ry="12" style="stroke:#181818;stroke-width:1.0;"/><path d="M1140.8066,1171.0801 Q1140.123,1171.4316 1139.3711,1171.6074 Q1138.6191,1171.7832 1137.7891,1171.7832 Q1134.8398,1171.7832 1133.2871,1169.8398 Q1131.7344,1167.8965 1131.7344,1164.2246 Q1131.7344,1160.543 1133.2871,1158.5996 Q1134.8398,1156.6563 1137.7891,1156.6563 Q1138.6191,1156.6563 1139.3809,1156.832 Q1140.1426,1157.0078 1140.8066,1157.3594 L1140.8066,1160.5625 Q1140.0645,1159.8789 1139.3662,1159.5615 Q1138.668,1159.2441 1137.9258,1159.2441 Q1136.3438,1159.2441 1135.5381,1160.499 Q1134.7324,1161.7539 1134.7324,1164.2246 Q1134.7324,1166.6855 1135.5381,1167.9404 Q1136.3438,1169.1953 1137.9258,1169.1953 Q1138.668,1169.1953 1139.3662,1168.8779 Q1140.0645,1168.5605 1140.8066,1167.877 Z " fill="#000000"/><text fill="#000000" font-family="sans-serif" font-size="20" lengthAdjust="spacing" textLength="93" x="1160" y="1171.5586">Employee</text><line style="stroke:#181818;stroke-width:0.5;" x1="920.5" x2="1457.5" y1="1181" y2="1181"/><text fill="#000000" font-family="sans-serif" font-size="20" lengthAdjust="spacing" textLength="127" x="925.5" y="1204.3359">-String name</text><text fill="#000000" font-family="sans-serif" font-size="20" lengthAdjust="spacing" textLength="247" x="925.5" y="1227.8906">-String telephoneNumber</text><text fill="#000000" font-family="sans-serif" font-size="20" lengthAdjust="spacing" textLength="124" x="925.5" y="1251.4453">-Email email</text><text fill="#000000" font-family="sans-serif" font-size="20" lengthAdjust="spacing" textLength="354" x="925.5" y="1275">-PassportCard passportCardNumber</text><text fill="#000000" font-family="sans-serif" font-size="20" lengthAdjust="spacing" textLength="303" x="925.5" y="1298.5547">-SocialSecurityCard taxNumber</text><text fill="#000000" font-family="sans-serif" font-size="20" lengthAdjust="spacing" textLength="173" x="925.5" y="1322.1094">-Address address</text><line style="stroke:#181818;stroke-width:0.5;" x1="920.5" x2="1457.5" y1="1330.3281" y2="1330.3281"/><text fill="#000000" font-family="sans-serif" font-size="20" lengthAdjust="spacing" textLength="515" x="925.5" y="1353.6641">+Employee(name, passportCardNumber, taxNumber,</text><text fill="#000000" font-family="sans-serif" font-size="20" lengthAdjust="spacing" textLength="521" x="931.5" y="1377.2188">address, emailAddress, telephoneNumber, store, role)</text></g><!--class EmployeeRepository--><g id="elem_EmployeeRepository"><rect fill="#F1F1F1" height="50" id="EmployeeRepository" rx="2.5" ry="2.5" style="stroke:#181818;stroke-width:0.5;" width="229" x="1005.5" y="1025"/><ellipse cx="1021.5" cy="1042" fill="#ADD1B2" rx="12" ry="12" style="stroke:#181818;stroke-width:1.0;"/><path d="M1024.3066,1049.0801 Q1023.623,1049.4316 1022.8711,1049.6074 Q1022.1191,1049.7832 1021.2891,1049.7832 Q1018.3398,1049.7832 1016.7871,1047.8398 Q1015.2344,1045.8965 1015.2344,1042.2246 Q1015.2344,1038.543 1016.7871,1036.5996 Q1018.3398,1034.6563 1021.2891,1034.6563 Q1022.1191,1034.6563 1022.8809,1034.832 Q1023.6426,1035.0078 1024.3066,1035.3594 L1024.3066,1038.5625 Q1023.5645,1037.8789 1022.8662,1037.5615 Q1022.168,1037.2441 1021.4258,1037.2441 Q1019.8438,1037.2441 1019.0381,1038.499 Q1018.2324,1039.7539 1018.2324,1042.2246 Q1018.2324,1044.6855 1019.0381,1045.9404 Q1019.8438,1047.1953 1021.4258,1047.1953 Q1022.168,1047.1953 1022.8662,1046.8779 Q1023.5645,1046.5605 1024.3066,1045.877 Z " fill="#000000"/><text fill="#000000" font-family="sans-serif" font-size="20" lengthAdjust="spacing" textLength="195" x="1036.5" y="1049.5586">EmployeeRepository</text><line style="stroke:#181818;stroke-width:0.5;" x1="1006.5" x2="1233.5" y1="1059" y2="1059"/><line style="stroke:#181818;stroke-width:0.5;" x1="1006.5" x2="1233.5" y1="1067" y2="1067"/></g><!--link CreateAdvertisementForPropertyUI to CreateAdvertisementForPropertyController--><g id="link_CreateAdvertisementForPropertyUI_CreateAdvertisementForPropertyController"><path codeLine="91" d="M834,57.19 C834,71.42 834,90.73 834,111.79 " fill="none" id="CreateAdvertisementForPropertyUI-to-CreateAdvertisementForPropertyController" style="stroke:#181818;stroke-width:1.0;"/><polygon fill="#181818" points="834,116.88,838,107.88,834,111.88,830,107.88,834,116.88" style="stroke:#181818;stroke-width:1.0;"/></g><!--link CreateAdvertisementForPropertyController to ManageEmployeeRepository--><g id="link_CreateAdvertisementForPropertyController_ManageEmployeeRepository"><path codeLine="93" d="M993.11,403 C1042.62,447.19 1094.73,493.7 1135.01,529.64 " fill="none" id="CreateAdvertisementForPropertyController-to-ManageEmployeeRepository" style="stroke:#181818;stroke-width:1.0;stroke-dasharray:7.0,7.0;"/><polygon fill="#181818" points="1138.87,533.08,1134.8199,524.1024,1135.1401,529.7502,1129.4923,530.0703,1138.87,533.08" style="stroke:#181818;stroke-width:1.0;"/></g><!--link CreateAdvertisementForPropertyController to ManageAdvertisementRepository--><g id="link_CreateAdvertisementForPropertyController_ManageAdvertisementRepository"><path codeLine="94" d="M674.89,403 C653.9,421.74 632.44,440.89 611.61,459.48 " fill="none" id="CreateAdvertisementForPropertyController-to-ManageAdvertisementRepository" style="stroke:#181818;stroke-width:1.0;stroke-dasharray:7.0,7.0;"/><polygon fill="#181818" points="607.73,462.94,617.1134,459.9481,611.4663,459.6173,611.7971,453.9701,607.73,462.94" style="stroke:#181818;stroke-width:1.0;"/></g><!--link ManageEmployeeRepository to Repositories--><g id="link_ManageEmployeeRepository_Repositories"><path codeLine="96" d="M1158.43,654.57 C1128.88,691.58 1090.38,739.79 1057.45,781.03 " fill="none" id="ManageEmployeeRepository-to-Repositories" style="stroke:#181818;stroke-width:1.0;stroke-dasharray:7.0,7.0;"/><polygon fill="#181818" points="1054.28,785,1063.0136,780.4476,1057.393,781.0873,1056.7533,775.4667,1054.28,785" style="stroke:#181818;stroke-width:1.0;"/></g><!--link ManageAdvertisementRepository to Repositories--><g id="link_ManageAdvertisementRepository_Repositories"><path codeLine="97" d="M712.68,725.1 C751.42,745.21 790.52,765.51 826.61,784.24 " fill="none" id="ManageAdvertisementRepository-to-Repositories" style="stroke:#181818;stroke-width:1.0;stroke-dasharray:7.0,7.0;"/><polygon fill="#181818" points="831.45,786.75,825.2964,779.0602,827.0097,784.4513,821.6186,786.1646,831.45,786.75" style="stroke:#181818;stroke-width:1.0;"/></g><!--link Repositories to AdvertisementRepository--><g id="link_Repositories_AdvertisementRepository"><path codeLine="99" d="M866.2,953.21 C837.15,973.06 807.49,993.33 782.97,1010.07 " fill="none" id="Repositories-to-AdvertisementRepository" style="stroke:#181818;stroke-width:1.0;"/><polygon fill="#181818" points="778.77,1012.94,788.4554,1011.1531,782.8948,1010.114,783.9338,1004.5534,778.77,1012.94" style="stroke:#181818;stroke-width:1.0;"/></g><!--link Repositories to EmployeeRepository--><g id="link_Repositories_EmployeeRepository"><path codeLine="100" d="M1049.36,953.21 C1067.26,977.49 1085.62,1002.38 1099.14,1020.71 " fill="none" id="Repositories-to-EmployeeRepository" style="stroke:#181818;stroke-width:1.0;"/><polygon fill="#181818" points="1102.12,1024.75,1100.0189,1015.1279,1099.1613,1020.7193,1093.5699,1019.8618,1102.12,1024.75" style="stroke:#181818;stroke-width:1.0;"/></g><!--link EmployeeRepository to Employee--><g id="link_EmployeeRepository_Employee"><path codeLine="102" d="M1127.78,1075.13 C1133.29,1092.21 1141.14,1116.56 1149.39,1142.14 " fill="none" id="EmployeeRepository-to-Employee" style="stroke:#181818;stroke-width:1.0;"/><polygon fill="#181818" points="1150.93,1146.93,1151.985,1137.1378,1149.4004,1142.1697,1144.3685,1139.5851,1150.93,1146.93" style="stroke:#181818;stroke-width:1.0;"/></g><!--link ManageAdvertisementRepository to AdvertisementRepository--><g id="link_ManageAdvertisementRepository_AdvertisementRepository"><path codeLine="104" d="M537.65,725.1 C593.45,821.05 665.79,945.45 702.46,1008.51 " fill="none" id="ManageAdvertisementRepository-to-AdvertisementRepository" style="stroke:#181818;stroke-width:1.0;stroke-dasharray:7.0,7.0;"/><polygon fill="#181818" points="705.03,1012.94,703.9543,1003.1501,702.5124,1008.6201,697.0424,1007.1782,705.03,1012.94" style="stroke:#181818;stroke-width:1.0;"/></g><!--link ManageAdvertisementRepository to Advertisement--><g id="link_ManageAdvertisementRepository_Advertisement"><path codeLine="105" d="M480.79,725.23 C501.83,870.99 533,1087 533,1087 C533,1087 578.38,1141.21 619.05,1189.8 " fill="none" id="ManageAdvertisementRepository-to-Advertisement" style="stroke:#181818;stroke-width:1.0;"/><polygon fill="#181818" points="622.47,1193.88,619.7466,1184.4152,619.255,1190.0506,613.6196,1189.5591,622.47,1193.88" style="stroke:#181818;stroke-width:1.0;"/></g><!--link AdvertisementRepository to Advertisement--><g id="link_AdvertisementRepository_Advertisement"><path codeLine="107" d="M718.54,1087.3 C712.83,1115.03 704.77,1154.24 697.67,1188.77 " fill="none" id="AdvertisementRepository-to-Advertisement" style="stroke:#181818;stroke-width:1.0;"/><polygon fill="#181818" points="696.63,1193.82,702.3713,1185.8176,697.6435,1188.9238,694.5373,1184.196,696.63,1193.82" style="stroke:#181818;stroke-width:1.0;"/></g><!--link Advertisement to Request--><g id="link_Advertisement_Request"><path codeLine="109" d="M663.46,1338.02 C655.16,1369.81 645.36,1407.35 636.91,1439.73 " fill="none" id="Advertisement-to-Request" style="stroke:#181818;stroke-width:1.0;"/><polygon fill="#181818" points="635.56,1444.89,641.693,1437.1838,636.8163,1440.0504,633.9497,1435.1737,635.56,1444.89" style="stroke:#181818;stroke-width:1.0;"/></g><!--link Request to Property--><g id="link_Request_Property"><path codeLine="111" d="M587.93,1589.02 C581.05,1605.82 573.38,1624.55 565.43,1643.97 " fill="none" id="Request-to-Property" style="stroke:#181818;stroke-width:1.0;"/><polygon fill="#181818" points="563.4,1648.93,570.5,1642.1044,565.2865,1644.2995,563.0913,1639.086,563.4,1648.93" style="stroke:#181818;stroke-width:1.0;"/></g><!--link ManageAdvertisementRepository to Property--><g id="link_ManageAdvertisementRepository_Property"><path codeLine="113" d="M431.62,725.1 C400.3,859.25 356,1049 356,1049 C356,1049 356,1049 356,1267 C356,1267 392,1589 392,1589 C392,1589 400.71,1612.07 412.82,1644.16 " fill="none" id="ManageAdvertisementRepository-to-Property" style="stroke:#181818;stroke-width:1.0;stroke-dasharray:7.0,7.0;"/><polygon fill="#181818" points="414.63,1648.96,415.189,1639.127,412.8619,1644.2831,407.7058,1641.956,414.63,1648.96" style="stroke:#181818;stroke-width:1.0;"/></g><!--link ManageAdvertisementRepository to Request--><g id="link_ManageAdvertisementRepository_Request"><path codeLine="114" d="M462,725.01 C462,949.26 462,1385 462,1385 C462,1385 493.97,1412.02 528.87,1441.52 " fill="none" id="ManageAdvertisementRepository-to-Request" style="stroke:#181818;stroke-width:1.0;stroke-dasharray:7.0,7.0;"/><polygon fill="#181818" points="532.7,1444.75,528.4148,1435.8823,528.8836,1441.5196,523.2462,1441.9885,532.7,1444.75" style="stroke:#181818;stroke-width:1.0;"/></g><!--SRC=[tLOzRzim4DtvAxZ5GUKWwDWXWEiuG8OsGTnsoa9BPva8HQeabSODyjzxb4YPj6J7o5WFWdKVl7Vl-2YQ9ovhfbabLFu41IrWpHfXRvIqI_uNwETBScP23AsKLFb6gmgerGsGdQTc-HChOMct0gY6t39PYZZ0R5YX_d1PqZKJ9lO8Bi5kQw2r4blt4bVidKfRHQAiN31ZPjPglceitEPAjdWl2JaJiBRKAgfvkR6qu0uELvAGDeVEDJ0Bi-8PjEK6Af3OhhxNgaR3zkSjVNqxBNIE96ab16ZwIYZ-FfsSC3dt2INOMObHiU47zdkt_jeOxDsOeISiD_JCLLLnOx3PsBTivEAbLgRHq9jDiwguJO1EQirpo2Z37ZAapTWvHype0OtMej289gEFijuegqhDwar6PLEjG2DQABHIbOaip6wywL7srdkcSOJb4lSBe0T-DxnsnQ_1y58oDwSCmVM0s-GLwn1cLAWrFcr2K7WFj8Jt7HaPpVl_lvXeN9EEz7FIJ_e1i1wtIdCmVfhJn1WJUYiDxkySsQHVag1eg36pVKWoiaLL2xK56FVUS86y9xutZ_KRamX_c1usONN0Fu61QNyRXZQdCS2lsqN5kC1qV4QSTJWET9g2EKG76xS7M7ahftw__oSRDEtk0Kk0SUeBsxVTczWWEk_Mtjtbl5PWDwfu2xcfVl7SRMDF4a2tUh90DFfhz4xIcbFwp0Gl1bNPS8cmKOzkZQcRsD6b8d6sVOMym2CDb7dx4Zy6-7r9UFEkTdDtn7hozO3s92yw8KPwyKXyR5YhCnQgMU4tS8_mpfSWJ5Ri_Fkd-62GFPp0GU34LsqLafgSMb9Bgfp0K2UV8AD0TQyakXELzt5aTA2bCPzNteWh4PltBuBYTjfBvnk9ppjMIWbWEndkcPqclIdzjExfD8dfDrcgtTsc3ATZ_xNmy2Ih8BLO483iIVZUjXtwTASfRS_KG3OkM-CzPyvqWHUgtKkIjrGvPs89UQFT35siPIz9oDWipnmSfO4Qzmoc1-MkQ_WWNXQXgubh8nj1aUsgPNZozQTksyWilEsrd7LLixPKAspoxYriEhqw-JhrtdBHJUtYukhW1_GZgnmuumWvLAJDJIuDHnSQXfFahk9eEeHX43ZICXb168UI4-0TgdyySu2Sa8-6jW7Xn2VXM7R6NhSdjD77dZAGhjO_]--></g></svg>