<?xml version="1.0" encoding="UTF-8" standalone="no"?><svg xmlns="http://www.w3.org/2000/svg" xmlns:xlink="http://www.w3.org/1999/xlink" contentStyleType="text/css" height="990px" preserveAspectRatio="none" style="width:2649px;height:990px;background:#FFFFFF;" version="1.1" viewBox="0 0 2649 990" width="2649px" zoomAndPan="magnify"><defs/><g><rect fill="#FFFFFF" height="795.2031" style="stroke:#181818;stroke-width:1.0;" width="10" x="89" y="98.5547"/><rect fill="#FFFFFF" height="37.5547" style="stroke:#181818;stroke-width:1.0;" width="10" x="698" y="128.1094"/><rect fill="#FFFFFF" height="37.5547" style="stroke:#181818;stroke-width:1.0;" width="10" x="698" y="226.7734"/><rect fill="#FFFFFF" height="582.875" style="stroke:#181818;stroke-width:1.0;" width="10" x="698" y="301.8828"/><rect fill="#FFFFFF" height="530.7656" style="stroke:#181818;stroke-width:1.0;" width="10" x="1307" y="362.9922"/><rect fill="#FFFFFF" height="385.5469" style="stroke:#181818;stroke-width:1.0;" width="10" x="1916" y="424.1016"/><rect fill="#FFFFFF" height="37.5547" style="stroke:#181818;stroke-width:1.0;" width="10" x="2154" y="584.3203"/><rect fill="#FFFFFF" height="37.5547" style="stroke:#181818;stroke-width:1.0;" width="10" x="2303" y="659.4297"/><rect fill="#FFFFFF" height="37.5547" style="stroke:#181818;stroke-width:1.0;" width="10" x="2469.5" y="734.5391"/><line style="stroke:#181818;stroke-width:0.5;stroke-dasharray:5.0,5.0;" x1="94" x2="94" y1="88.5547" y2="902.7578"/><line style="stroke:#181818;stroke-width:0.5;stroke-dasharray:5.0,5.0;" x1="702.5" x2="702.5" y1="88.5547" y2="902.7578"/><line style="stroke:#181818;stroke-width:0.5;stroke-dasharray:5.0,5.0;" x1="1311.5" x2="1311.5" y1="88.5547" y2="902.7578"/><line style="stroke:#181818;stroke-width:0.5;stroke-dasharray:5.0,5.0;" x1="1921" x2="1921" y1="88.5547" y2="902.7578"/><line style="stroke:#181818;stroke-width:0.5;stroke-dasharray:5.0,5.0;" x1="2158.5" x2="2158.5" y1="88.5547" y2="902.7578"/><line style="stroke:#181818;stroke-width:0.5;stroke-dasharray:5.0,5.0;" x1="2307.5" x2="2307.5" y1="88.5547" y2="902.7578"/><line style="stroke:#181818;stroke-width:0.5;stroke-dasharray:5.0,5.0;" x1="2474.5" x2="2474.5" y1="88.5547" y2="902.7578"/><line style="stroke:#181818;stroke-width:0.5;stroke-dasharray:5.0,5.0;" x1="2607.5" x2="2607.5" y1="478.1563" y2="902.7578"/><text fill="#000000" font-family="sans-serif" font-size="20" lengthAdjust="spacing" textLength="172" x="5" y="84.3359">Unregistered User</text><ellipse cx="94" cy="13.5" fill="#E3E3E3" rx="8" ry="8" style="stroke:#181818;stroke-width:0.5;"/><path d="M94,21.5 L94,48.5 M81,29.5 L107,29.5 M94,48.5 L81,63.5 M94,48.5 L107,63.5 " fill="none" style="stroke:#181818;stroke-width:0.5;"/><text fill="#000000" font-family="sans-serif" font-size="20" lengthAdjust="spacing" textLength="172" x="5" y="921.0938">Unregistered User</text><ellipse cx="94" cy="933.8125" fill="#E3E3E3" rx="8" ry="8" style="stroke:#181818;stroke-width:0.5;"/><path d="M94,941.8125 L94,968.8125 M81,949.8125 L107,949.8125 M94,968.8125 L81,983.8125 M94,968.8125 L107,983.8125 " fill="none" style="stroke:#181818;stroke-width:0.5;"/><rect fill="#E3E3E3" height="37.5547" rx="2.5" ry="2.5" style="stroke:#181818;stroke-width:0.5;" width="215" x="595.5" y="50"/><text fill="#000000" font-family="sans-serif" font-size="20" lengthAdjust="spacing" textLength="201" x="602.5" y="76.3359">:RegisterNewClientUI</text><rect fill="#E3E3E3" height="37.5547" rx="2.5" ry="2.5" style="stroke:#181818;stroke-width:0.5;" width="215" x="595.5" y="901.7578"/><text fill="#000000" font-family="sans-serif" font-size="20" lengthAdjust="spacing" textLength="201" x="602.5" y="928.0938">:RegisterNewClientUI</text><rect fill="#E3E3E3" height="37.5547" rx="2.5" ry="2.5" style="stroke:#181818;stroke-width:0.5;" width="291" x="1166.5" y="50"/><text fill="#000000" font-family="sans-serif" font-size="20" lengthAdjust="spacing" textLength="277" x="1173.5" y="76.3359">:RegisterNewClientController</text><rect fill="#E3E3E3" height="37.5547" rx="2.5" ry="2.5" style="stroke:#181818;stroke-width:0.5;" width="291" x="1166.5" y="901.7578"/><text fill="#000000" font-family="sans-serif" font-size="20" lengthAdjust="spacing" textLength="277" x="1173.5" y="928.0938">:RegisterNewClientController</text><rect fill="#E3E3E3" height="61.1094" rx="2.5" ry="2.5" style="stroke:#181818;stroke-width:0.5;" width="254" x="1794" y="26.4453"/><text fill="#000000" font-family="sans-serif" font-size="20" lengthAdjust="spacing" textLength="240" x="1801" y="52.7813">manageClientRepository:</text><text fill="#000000" font-family="sans-serif" font-size="20" lengthAdjust="spacing" textLength="232" x="1805" y="76.3359">ManageClientRepository</text><rect fill="#E3E3E3" height="61.1094" rx="2.5" ry="2.5" style="stroke:#181818;stroke-width:0.5;" width="254" x="1794" y="901.7578"/><text fill="#000000" font-family="sans-serif" font-size="20" lengthAdjust="spacing" textLength="240" x="1801" y="928.0938">manageClientRepository:</text><text fill="#000000" font-family="sans-serif" font-size="20" lengthAdjust="spacing" textLength="232" x="1805" y="951.6484">ManageClientRepository</text><rect fill="#E3E3E3" height="37.5547" rx="2.5" ry="2.5" style="stroke:#181818;stroke-width:0.5;" width="139" x="2089.5" y="50"/><text fill="#000000" font-family="sans-serif" font-size="20" lengthAdjust="spacing" textLength="125" x="2096.5" y="76.3359">:Repositories</text><rect fill="#E3E3E3" height="37.5547" rx="2.5" ry="2.5" style="stroke:#181818;stroke-width:0.5;" width="139" x="2089.5" y="901.7578"/><text fill="#000000" font-family="sans-serif" font-size="20" lengthAdjust="spacing" textLength="125" x="2096.5" y="928.0938">:Repositories</text><rect fill="#E3E3E3" height="61.1094" rx="2.5" ry="2.5" style="stroke:#181818;stroke-width:0.5;" width="139" x="2238.5" y="26.4453"/><text fill="#000000" font-family="sans-serif" font-size="20" lengthAdjust="spacing" textLength="114" x="2251" y="52.7813">repositories</text><text fill="#000000" font-family="sans-serif" font-size="20" lengthAdjust="spacing" textLength="125" x="2245.5" y="76.3359">:Repositories</text><rect fill="#E3E3E3" height="61.1094" rx="2.5" ry="2.5" style="stroke:#181818;stroke-width:0.5;" width="139" x="2238.5" y="901.7578"/><text fill="#000000" font-family="sans-serif" font-size="20" lengthAdjust="spacing" textLength="114" x="2251" y="928.0938">repositories</text><text fill="#000000" font-family="sans-serif" font-size="20" lengthAdjust="spacing" textLength="125" x="2245.5" y="951.6484">:Repositories</text><rect fill="#E3E3E3" height="61.1094" rx="2.5" ry="2.5" style="stroke:#181818;stroke-width:0.5;" width="174" x="2387.5" y="26.4453"/><text fill="#000000" font-family="sans-serif" font-size="20" lengthAdjust="spacing" textLength="160" x="2394.5" y="52.7813">clientRepository:</text><text fill="#000000" font-family="sans-serif" font-size="20" lengthAdjust="spacing" textLength="158" x="2395.5" y="76.3359">ClientRepository</text><rect fill="#E3E3E3" height="61.1094" rx="2.5" ry="2.5" style="stroke:#181818;stroke-width:0.5;" width="174" x="2387.5" y="901.7578"/><text fill="#000000" font-family="sans-serif" font-size="20" lengthAdjust="spacing" textLength="160" x="2394.5" y="928.0938">clientRepository:</text><text fill="#000000" font-family="sans-serif" font-size="20" lengthAdjust="spacing" textLength="158" x="2395.5" y="951.6484">ClientRepository</text><rect fill="#E3E3E3" height="61.1094" rx="2.5" ry="2.5" style="stroke:#181818;stroke-width:0.5;" width="72" x="2571.5" y="901.7578"/><text fill="#000000" font-family="sans-serif" font-size="20" lengthAdjust="spacing" textLength="58" x="2578.5" y="928.0938">client:</text><text fill="#000000" font-family="sans-serif" font-size="20" lengthAdjust="spacing" textLength="56" x="2579.5" y="951.6484">Client</text><rect fill="#FFFFFF" height="795.2031" style="stroke:#181818;stroke-width:1.0;" width="10" x="89" y="98.5547"/><rect fill="#FFFFFF" height="37.5547" style="stroke:#181818;stroke-width:1.0;" width="10" x="698" y="128.1094"/><rect fill="#FFFFFF" height="37.5547" style="stroke:#181818;stroke-width:1.0;" width="10" x="698" y="226.7734"/><rect fill="#FFFFFF" height="582.875" style="stroke:#181818;stroke-width:1.0;" width="10" x="698" y="301.8828"/><rect fill="#FFFFFF" height="530.7656" style="stroke:#181818;stroke-width:1.0;" width="10" x="1307" y="362.9922"/><rect fill="#FFFFFF" height="385.5469" style="stroke:#181818;stroke-width:1.0;" width="10" x="1916" y="424.1016"/><rect fill="#FFFFFF" height="37.5547" style="stroke:#181818;stroke-width:1.0;" width="10" x="2154" y="584.3203"/><rect fill="#FFFFFF" height="37.5547" style="stroke:#181818;stroke-width:1.0;" width="10" x="2303" y="659.4297"/><rect fill="#FFFFFF" height="37.5547" style="stroke:#181818;stroke-width:1.0;" width="10" x="2469.5" y="734.5391"/><polygon fill="#181818" points="686,124.1094,696,128.1094,686,132.1094,690,128.1094" style="stroke:#181818;stroke-width:1.0;"/><line style="stroke:#181818;stroke-width:1.0;" x1="99" x2="692" y1="128.1094" y2="128.1094"/><text fill="#000000" font-family="sans-serif" font-size="20" font-weight="bold" lengthAdjust="spacing" textLength="13" x="106" y="121.8906">1</text><text fill="#000000" font-family="sans-serif" font-size="20" lengthAdjust="spacing" textLength="280" x="123" y="121.8906">asks to register in the system</text><polygon fill="#181818" points="110,161.6641,100,165.6641,110,169.6641,106,165.6641" style="stroke:#181818;stroke-width:1.0;"/><line style="stroke:#181818;stroke-width:1.0;stroke-dasharray:2.0,2.0;" x1="104" x2="702" y1="165.6641" y2="165.6641"/><text fill="#000000" font-family="sans-serif" font-size="20" font-weight="bold" lengthAdjust="spacing" textLength="13" x="116" y="159.4453">2</text><text fill="#000000" font-family="sans-serif" font-size="20" lengthAdjust="spacing" textLength="130" x="133" y="159.4453">requests data</text><polygon fill="#181818" points="686,222.7734,696,226.7734,686,230.7734,690,226.7734" style="stroke:#181818;stroke-width:1.0;"/><line style="stroke:#181818;stroke-width:1.0;" x1="99" x2="692" y1="226.7734" y2="226.7734"/><text fill="#000000" font-family="sans-serif" font-size="20" font-weight="bold" lengthAdjust="spacing" textLength="13" x="106" y="208.7773">3</text><text fill="#000000" font-family="sans-serif" font-size="20" lengthAdjust="spacing" textLength="493" x="123" y="197">types requested data (name, passportCardNumber,</text><text fill="#000000" font-family="sans-serif" font-size="20" lengthAdjust="spacing" textLength="557" x="129" y="220.5547">taxNumber, address, email, telephoneNumber, password)</text><polygon fill="#181818" points="110,260.3281,100,264.3281,110,268.3281,106,264.3281" style="stroke:#181818;stroke-width:1.0;"/><line style="stroke:#181818;stroke-width:1.0;stroke-dasharray:2.0,2.0;" x1="104" x2="702" y1="264.3281" y2="264.3281"/><text fill="#000000" font-family="sans-serif" font-size="20" font-weight="bold" lengthAdjust="spacing" textLength="13" x="116" y="258.1094">4</text><text fill="#000000" font-family="sans-serif" font-size="20" lengthAdjust="spacing" textLength="209" x="133" y="258.1094">shows requested data</text><polygon fill="#181818" points="686,297.8828,696,301.8828,686,305.8828,690,301.8828" style="stroke:#181818;stroke-width:1.0;"/><line style="stroke:#181818;stroke-width:1.0;" x1="99" x2="692" y1="301.8828" y2="301.8828"/><text fill="#000000" font-family="sans-serif" font-size="20" font-weight="bold" lengthAdjust="spacing" textLength="13" x="106" y="295.6641">5</text><text fill="#000000" font-family="sans-serif" font-size="20" lengthAdjust="spacing" textLength="125" x="123" y="295.6641">submits data</text><polygon fill="#181818" points="1295,358.9922,1305,362.9922,1295,366.9922,1299,362.9922" style="stroke:#181818;stroke-width:1.0;"/><line style="stroke:#181818;stroke-width:1.0;" x1="708" x2="1301" y1="362.9922" y2="362.9922"/><text fill="#000000" font-family="sans-serif" font-size="20" font-weight="bold" lengthAdjust="spacing" textLength="13" x="715" y="344.9961">6</text><text fill="#000000" font-family="sans-serif" font-size="20" lengthAdjust="spacing" textLength="402" x="732" y="333.2188">registerUser(name, passportCardNumber,</text><text fill="#000000" font-family="sans-serif" font-size="20" lengthAdjust="spacing" textLength="557" x="738" y="356.7734">taxNumber, address, email, telephoneNumber, password)</text><polygon fill="#181818" points="1904,420.1016,1914,424.1016,1904,428.1016,1908,424.1016" style="stroke:#181818;stroke-width:1.0;"/><line style="stroke:#181818;stroke-width:1.0;" x1="1317" x2="1910" y1="424.1016" y2="424.1016"/><text fill="#000000" font-family="sans-serif" font-size="20" font-weight="bold" lengthAdjust="spacing" textLength="13" x="1324" y="406.1055">7</text><text fill="#000000" font-family="sans-serif" font-size="20" lengthAdjust="spacing" textLength="402" x="1341" y="394.3281">registerUser(name, passportCardNumber,</text><text fill="#000000" font-family="sans-serif" font-size="20" lengthAdjust="spacing" textLength="557" x="1347" y="417.8828">taxNumber, address, email, telephoneNumber, password)</text><polygon fill="#181818" points="2559.5,481.2109,2569.5,485.2109,2559.5,489.2109,2563.5,485.2109" style="stroke:#181818;stroke-width:1.0;"/><line style="stroke:#181818;stroke-width:1.0;" x1="1926" x2="2565.5" y1="485.2109" y2="485.2109"/><text fill="#000000" font-family="sans-serif" font-size="20" font-weight="bold" lengthAdjust="spacing" textLength="13" x="1933" y="467.2148">8</text><text fill="#000000" font-family="sans-serif" font-size="20" lengthAdjust="spacing" textLength="402" x="1950" y="455.4375">registerUser(name, passportCardNumber,</text><text fill="#000000" font-family="sans-serif" font-size="20" lengthAdjust="spacing" textLength="453" x="1956" y="478.9922">taxNumber, address, email, telephoneNumber)</text><rect fill="#E3E3E3" height="61.1094" rx="2.5" ry="2.5" style="stroke:#181818;stroke-width:0.5;" width="72" x="2571.5" y="432.1016"/><text fill="#000000" font-family="sans-serif" font-size="20" lengthAdjust="spacing" textLength="58" x="2578.5" y="458.4375">client:</text><text fill="#000000" font-family="sans-serif" font-size="20" lengthAdjust="spacing" textLength="56" x="2579.5" y="481.9922">Client</text><line style="stroke:#181818;stroke-width:1.0;" x1="1926" x2="1968" y1="533.7656" y2="533.7656"/><line style="stroke:#181818;stroke-width:1.0;" x1="1968" x2="1968" y1="533.7656" y2="546.7656"/><line style="stroke:#181818;stroke-width:1.0;" x1="1927" x2="1968" y1="546.7656" y2="546.7656"/><polygon fill="#181818" points="1937,542.7656,1927,546.7656,1937,550.7656,1933,546.7656" style="stroke:#181818;stroke-width:1.0;"/><text fill="#000000" font-family="sans-serif" font-size="20" font-weight="bold" lengthAdjust="spacing" textLength="13" x="1933" y="527.5469">9</text><text fill="#000000" font-family="sans-serif" font-size="20" lengthAdjust="spacing" textLength="197" x="1950" y="527.5469">validateClient(client)</text><polygon fill="#181818" points="2142,580.3203,2152,584.3203,2142,588.3203,2146,584.3203" style="stroke:#181818;stroke-width:1.0;"/><line style="stroke:#181818;stroke-width:1.0;" x1="1926" x2="2148" y1="584.3203" y2="584.3203"/><text fill="#000000" font-family="sans-serif" font-size="20" font-weight="bold" lengthAdjust="spacing" textLength="26" x="1933" y="578.1016">10</text><text fill="#000000" font-family="sans-serif" font-size="20" lengthAdjust="spacing" textLength="123" x="1963" y="578.1016">getInstance()</text><polygon fill="#181818" points="1937,617.875,1927,621.875,1937,625.875,1933,621.875" style="stroke:#181818;stroke-width:1.0;"/><line style="stroke:#181818;stroke-width:1.0;stroke-dasharray:2.0,2.0;" x1="1931" x2="2158" y1="621.875" y2="621.875"/><text fill="#000000" font-family="sans-serif" font-size="20" font-weight="bold" lengthAdjust="spacing" textLength="26" x="1943" y="615.6563">11</text><text fill="#000000" font-family="sans-serif" font-size="20" lengthAdjust="spacing" textLength="114" x="1973" y="615.6563">repositories</text><polygon fill="#181818" points="2291,655.4297,2301,659.4297,2291,663.4297,2295,659.4297" style="stroke:#181818;stroke-width:1.0;"/><line style="stroke:#181818;stroke-width:1.0;" x1="1926" x2="2297" y1="659.4297" y2="659.4297"/><text fill="#000000" font-family="sans-serif" font-size="20" font-weight="bold" lengthAdjust="spacing" textLength="26" x="1933" y="653.2109">12</text><text fill="#000000" font-family="sans-serif" font-size="20" lengthAdjust="spacing" textLength="202" x="1963" y="653.2109">getClientRepository()</text><polygon fill="#181818" points="1937,692.9844,1927,696.9844,1937,700.9844,1933,696.9844" style="stroke:#181818;stroke-width:1.0;"/><line style="stroke:#181818;stroke-width:1.0;stroke-dasharray:2.0,2.0;" x1="1931" x2="2307" y1="696.9844" y2="696.9844"/><text fill="#000000" font-family="sans-serif" font-size="20" font-weight="bold" lengthAdjust="spacing" textLength="26" x="1943" y="690.7656">13</text><text fill="#000000" font-family="sans-serif" font-size="20" lengthAdjust="spacing" textLength="158" x="1973" y="690.7656">ClientRepository</text><polygon fill="#181818" points="2457.5,730.5391,2467.5,734.5391,2457.5,738.5391,2461.5,734.5391" style="stroke:#181818;stroke-width:1.0;"/><line style="stroke:#181818;stroke-width:1.0;" x1="1926" x2="2463.5" y1="734.5391" y2="734.5391"/><text fill="#000000" font-family="sans-serif" font-size="20" font-weight="bold" lengthAdjust="spacing" textLength="26" x="1933" y="728.3203">14</text><text fill="#000000" font-family="sans-serif" font-size="20" lengthAdjust="spacing" textLength="159" x="1963" y="728.3203">addClient(client)</text><polygon fill="#181818" points="1937,768.0938,1927,772.0938,1937,776.0938,1933,772.0938" style="stroke:#181818;stroke-width:1.0;"/><line style="stroke:#181818;stroke-width:1.0;stroke-dasharray:2.0,2.0;" x1="1931" x2="2473.5" y1="772.0938" y2="772.0938"/><text fill="#000000" font-family="sans-serif" font-size="20" font-weight="bold" lengthAdjust="spacing" textLength="26" x="1943" y="765.875">15</text><text fill="#000000" font-family="sans-serif" font-size="20" lengthAdjust="spacing" textLength="6" x="1973" y="765.875"> </text><polygon fill="#181818" points="1328,805.6484,1318,809.6484,1328,813.6484,1324,809.6484" style="stroke:#181818;stroke-width:1.0;"/><line style="stroke:#181818;stroke-width:1.0;stroke-dasharray:2.0,2.0;" x1="1322" x2="1920" y1="809.6484" y2="809.6484"/><text fill="#000000" font-family="sans-serif" font-size="20" font-weight="bold" lengthAdjust="spacing" textLength="26" x="1334" y="803.4297">16</text><text fill="#000000" font-family="sans-serif" font-size="20" lengthAdjust="spacing" textLength="236" x="1364" y="803.4297">shows operation success</text><polygon fill="#181818" points="719,843.2031,709,847.2031,719,851.2031,715,847.2031" style="stroke:#181818;stroke-width:1.0;"/><line style="stroke:#181818;stroke-width:1.0;stroke-dasharray:2.0,2.0;" x1="713" x2="1306" y1="847.2031" y2="847.2031"/><text fill="#000000" font-family="sans-serif" font-size="20" font-weight="bold" lengthAdjust="spacing" textLength="26" x="725" y="840.9844">17</text><text fill="#000000" font-family="sans-serif" font-size="20" lengthAdjust="spacing" textLength="236" x="755" y="840.9844">shows operation success</text><polygon fill="#181818" points="110,880.7578,100,884.7578,110,888.7578,106,884.7578" style="stroke:#181818;stroke-width:1.0;"/><line style="stroke:#181818;stroke-width:1.0;stroke-dasharray:2.0,2.0;" x1="104" x2="702" y1="884.7578" y2="884.7578"/><text fill="#000000" font-family="sans-serif" font-size="20" font-weight="bold" lengthAdjust="spacing" textLength="26" x="116" y="878.5391">18</text><text fill="#000000" font-family="sans-serif" font-size="20" lengthAdjust="spacing" textLength="236" x="146" y="878.5391">shows operation success</text><!--SRC=[nLKzR-Cm3DtzAuXCQP40HSSCNG8SaA4T6cJBmbfi8aIMV9BSNExN7_tzxReeYlCaItpaUwH8kOlKCLgCb0al943GEoRA_pBQx-LVWiU7m9Kc41bjmhCr4O6t2JLEOWmlUAAzloa2Iw57VL9D0tT6OQvId-0TbQCWmCGRdKHlP7aTUcDXST2MJj9viapauCWk01qSqbN0NhmCPOpQmsBpMjYzq7Mh96b_s6MsvNuAEUm-0srPf3LA5O4gy9viVTHs4g5ccJdybMBZ93E_ROxwUV0Wy_kC-NQFJc4boHNnwusshMsS77KVQKUHOP_f8CTgSmXUWKhJh6Bo0pqLrGc0lsm9wwTE5M33g8i3Rw0iBqWD_apWRlmNPU3AOQU4sM7wTPokEKuUSCDkVoVal0E17ZE0e4b_uqpzBIPNEapRWJt2KcD4AxxZpiN6-YrQyPBTtDMHTU2VuWTG24lEhO0Yb6e5dXJ5PwEfD4WzN8qLTz-MxCxcskNvFUKkUOjaCuUJVhhKdaQw9wjERVf3cHocssxZVbRRH5b2sQZ_WNGr8wgZYWmJuzNz_S-mkXkEs4Z51oh9bwAORSjy98p0cfE9eIVoE-tuBGXfMOiU_XhrQmopJq2jUEjk2Hj-fjsqccP-zAPosrFUdRFpCs3dSx0J2UWI2ERcu0lnExSqZvTEV24wzsMUzFeTcWRKiPgYPokS6wQMDpNXyc5iOhBefT4yIiEGMsusctxpZrpsuS4rECr7ACr_MuRbJ3ml_m00]--></g></svg>