<?xml version="1.0" encoding="UTF-8" standalone="no"?><svg xmlns="http://www.w3.org/2000/svg" xmlns:xlink="http://www.w3.org/1999/xlink" contentStyleType="text/css" height="1331px" preserveAspectRatio="none" style="width:2577px;height:1331px;background:#FFFFFF;" version="1.1" viewBox="0 0 2577 1331" width="2577px" zoomAndPan="magnify"><defs/><g><text fill="#000000" font-family="sans-serif" font-size="14" font-weight="bold" lengthAdjust="spacing" textLength="105" x="1229.25" y="23.5352">Domain Model</text><!--class Store--><g id="elem_Store"><rect codeLine="7" fill="#F1F1F1" height="112.2188" id="Store" rx="2.5" ry="2.5" style="stroke:#181818;stroke-width:0.5;" width="185" x="192" y="588.4883"/><text fill="#000000" font-family="sans-serif" font-size="20" lengthAdjust="spacing" textLength="49" x="260" y="612.8242">Store</text><line style="stroke:#181818;stroke-width:0.5;" x1="193" x2="376" y1="622.043" y2="622.043"/><text fill="#000000" font-family="sans-serif" font-size="20" lengthAdjust="spacing" textLength="112" x="198" y="645.3789">designation</text><text fill="#000000" font-family="sans-serif" font-size="20" lengthAdjust="spacing" textLength="132" x="198" y="668.9336">emailAddress</text><text fill="#000000" font-family="sans-serif" font-size="20" lengthAdjust="spacing" textLength="173" x="198" y="692.4883">telephoneNumber</text></g><!--class Employee--><g id="elem_Employee"><rect codeLine="12" fill="#F1F1F1" height="33.5547" id="Employee" rx="2.5" ry="2.5" style="stroke:#181818;stroke-width:0.5;" width="99" x="235" y="233.4883"/><text fill="#000000" font-family="sans-serif" font-size="20" lengthAdjust="spacing" textLength="93" x="238" y="257.8242">Employee</text></g><!--class SystemAdministrator--><g id="elem_SystemAdministrator"><rect codeLine="14" fill="#F1F1F1" height="33.5547" id="SystemAdministrator" rx="2.5" ry="2.5" style="stroke:#181818;stroke-width:0.5;" width="207" x="7" y="430.4883"/><text fill="#000000" font-family="sans-serif" font-size="20" lengthAdjust="spacing" textLength="201" x="10" y="454.8242">SystemAdministrator</text></g><!--class Agent--><g id="elem_Agent"><rect codeLine="16" fill="#F1F1F1" height="33.5547" id="Agent" rx="2.5" ry="2.5" style="stroke:#181818;stroke-width:0.5;" width="62" x="1306.5" y="974.9883"/><text fill="#000000" font-family="sans-serif" font-size="20" lengthAdjust="spacing" textLength="56" x="1309.5" y="999.3242">Agent</text></g><!--class Owner--><g id="elem_Owner"><rect codeLine="18" fill="#F1F1F1" height="33.5547" id="Owner" rx="2.5" ry="2.5" style="stroke:#181818;stroke-width:0.5;" width="68" x="1589.5" y="812.9883"/><text fill="#000000" font-family="sans-serif" font-size="20" lengthAdjust="spacing" textLength="62" x="1592.5" y="837.3242">Owner</text></g><!--class Client--><g id="elem_Client"><rect codeLine="20" fill="#F1F1F1" height="33.5547" id="Client" rx="2.5" ry="2.5" style="stroke:#181818;stroke-width:0.5;" width="62" x="1501.5" y="627.4883"/><text fill="#000000" font-family="sans-serif" font-size="20" lengthAdjust="spacing" textLength="56" x="1504.5" y="651.8242">Client</text></g><!--class Person--><g id="elem_Person"><rect codeLine="22" fill="#F1F1F1" height="112.2188" id="Person" rx="2.5" ry="2.5" style="stroke:#181818;stroke-width:0.5;" width="185" x="562" y="194.4883"/><text fill="#000000" font-family="sans-serif" font-size="20" lengthAdjust="spacing" textLength="64" x="622.5" y="218.8242">Person</text><line style="stroke:#181818;stroke-width:0.5;" x1="563" x2="746" y1="228.043" y2="228.043"/><text fill="#000000" font-family="sans-serif" font-size="20" lengthAdjust="spacing" textLength="53" x="568" y="251.3789">name</text><text fill="#000000" font-family="sans-serif" font-size="20" lengthAdjust="spacing" textLength="132" x="568" y="274.9336">emailAddress</text><text fill="#000000" font-family="sans-serif" font-size="20" lengthAdjust="spacing" textLength="173" x="568" y="298.4883">telephoneNumber</text></g><!--class Role--><g id="elem_Role"><rect codeLine="28" fill="#F1F1F1" height="65.1094" id="Role" rx="2.5" ry="2.5" style="stroke:#181818;stroke-width:0.5;" width="124" x="222.5" y="44.4883"/><text fill="#000000" font-family="sans-serif" font-size="20" lengthAdjust="spacing" textLength="42" x="263.5" y="68.8242">Role</text><line style="stroke:#181818;stroke-width:0.5;" x1="223.5" x2="345.5" y1="78.043" y2="78.043"/><text fill="#000000" font-family="sans-serif" font-size="20" lengthAdjust="spacing" textLength="112" x="228.5" y="101.3789">designation</text></g><!--class AdvertisementRequest--><g id="elem_AdvertisementRequest"><rect codeLine="32" fill="#F1F1F1" height="88.6641" id="AdvertisementRequest" rx="2.5" ry="2.5" style="stroke:#181818;stroke-width:0.5;" width="222" x="1796.5" y="785.4883"/><text fill="#000000" font-family="sans-serif" font-size="20" lengthAdjust="spacing" textLength="216" x="1799.5" y="809.8242">AdvertisementRequest</text><line style="stroke:#181818;stroke-width:0.5;" x1="1797.5" x2="2017.5" y1="819.043" y2="819.043"/><text fill="#000000" font-family="sans-serif" font-size="20" lengthAdjust="spacing" textLength="48" x="1802.5" y="842.3789">price</text><text fill="#000000" font-family="sans-serif" font-size="20" lengthAdjust="spacing" textLength="142" x="1802.5" y="865.9336">dateOfRequest</text></g><!--class TypeOfBusiness--><g id="elem_TypeOfBusiness"><rect codeLine="37" fill="#F1F1F1" height="65.1094" id="TypeOfBusiness" rx="2.5" ry="2.5" style="stroke:#181818;stroke-width:0.5;" width="159" x="1694" y="959.4883"/><text fill="#000000" font-family="sans-serif" font-size="20" lengthAdjust="spacing" textLength="153" x="1697" y="983.8242">TypeOfBusiness</text><line style="stroke:#181818;stroke-width:0.5;" x1="1695" x2="1852" y1="993.043" y2="993.043"/><text fill="#000000" font-family="sans-serif" font-size="20" lengthAdjust="spacing" textLength="112" x="1700" y="1016.3789">designation</text></g><!--class Advertisement--><g id="elem_Advertisement"><rect codeLine="41" fill="#F1F1F1" height="65.1094" id="Advertisement" rx="2.5" ry="2.5" style="stroke:#181818;stroke-width:0.5;" width="216" x="1449.5" y="1259.4883"/><text fill="#000000" font-family="sans-serif" font-size="20" lengthAdjust="spacing" textLength="139" x="1488" y="1283.8242">Advertisement</text><line style="stroke:#181818;stroke-width:0.5;" x1="1450.5" x2="1664.5" y1="1293.043" y2="1293.043"/><text fill="#000000" font-family="sans-serif" font-size="20" lengthAdjust="spacing" textLength="204" x="1455.5" y="1316.3789">dateOfAdvertisement</text></g><!--class Property--><g id="elem_Property"><rect codeLine="45" fill="#F1F1F1" height="88.6641" id="Property" rx="2.5" ry="2.5" style="stroke:#181818;stroke-width:0.5;" width="192" x="1751.5" y="205.9883"/><text fill="#000000" font-family="sans-serif" font-size="20" lengthAdjust="spacing" textLength="80" x="1807.5" y="230.3242">Property</text><line style="stroke:#181818;stroke-width:0.5;" x1="1752.5" x2="1942.5" y1="239.543" y2="239.543"/><text fill="#000000" font-family="sans-serif" font-size="20" lengthAdjust="spacing" textLength="41" x="1757.5" y="262.8789">area</text><text fill="#000000" font-family="sans-serif" font-size="20" lengthAdjust="spacing" textLength="180" x="1757.5" y="286.4336">distanceCityCentre</text></g><!--class Residence--><g id="elem_Residence"><rect codeLine="50" fill="#F1F1F1" height="112.2188" id="Residence" rx="2.5" ry="2.5" style="stroke:#181818;stroke-width:0.5;" width="248" x="2146.5" y="391.4883"/><text fill="#000000" font-family="sans-serif" font-size="20" lengthAdjust="spacing" textLength="97" x="2222" y="415.8242">Residence</text><line style="stroke:#181818;stroke-width:0.5;" x1="2147.5" x2="2393.5" y1="425.043" y2="425.043"/><text fill="#000000" font-family="sans-serif" font-size="20" lengthAdjust="spacing" textLength="195" x="2152.5" y="448.3789">numberOfBedrooms</text><text fill="#000000" font-family="sans-serif" font-size="20" lengthAdjust="spacing" textLength="201" x="2152.5" y="471.9336">numberOfBathrooms</text><text fill="#000000" font-family="sans-serif" font-size="20" lengthAdjust="spacing" textLength="236" x="2152.5" y="495.4883">numberOfParkingSpaces</text></g><!--class House--><g id="elem_House"><rect codeLine="56" fill="#F1F1F1" height="112.2188" id="House" rx="2.5" ry="2.5" style="stroke:#181818;stroke-width:0.5;" width="270" x="2141.5" y="588.4883"/><text fill="#000000" font-family="sans-serif" font-size="20" lengthAdjust="spacing" textLength="60" x="2246.5" y="612.8242">House</text><line style="stroke:#181818;stroke-width:0.5;" x1="2142.5" x2="2410.5" y1="622.043" y2="622.043"/><text fill="#000000" font-family="sans-serif" font-size="20" lengthAdjust="spacing" textLength="206" x="2147.5" y="645.3789">existenceOfBasement</text><text fill="#000000" font-family="sans-serif" font-size="20" lengthAdjust="spacing" textLength="258" x="2147.5" y="668.9336">existenceOfInhabitableLoft</text><text fill="#000000" font-family="sans-serif" font-size="20" lengthAdjust="spacing" textLength="123" x="2147.5" y="692.4883">sunExposure</text></g><!--class Address--><g id="elem_Address"><rect codeLine="62" fill="#F1F1F1" height="112.2188" id="Address" rx="2.5" ry="2.5" style="stroke:#181818;stroke-width:0.5;" width="85" x="793" y="391.4883"/><text fill="#000000" font-family="sans-serif" font-size="20" lengthAdjust="spacing" textLength="79" x="796" y="415.8242">Address</text><line style="stroke:#181818;stroke-width:0.5;" x1="794" x2="877" y1="425.043" y2="425.043"/><text fill="#000000" font-family="sans-serif" font-size="20" lengthAdjust="spacing" textLength="46" x="799" y="448.3789">state</text><text fill="#000000" font-family="sans-serif" font-size="20" lengthAdjust="spacing" textLength="67" x="799" y="471.9336">district</text><text fill="#000000" font-family="sans-serif" font-size="20" lengthAdjust="spacing" textLength="33" x="799" y="495.4883">city</text></g><!--class Photograph--><g id="elem_Photograph"><rect codeLine="68" fill="#F1F1F1" height="65.1094" id="Photograph" rx="2.5" ry="2.5" style="stroke:#181818;stroke-width:0.5;" width="116" x="2429.5" y="414.9883"/><text fill="#000000" font-family="sans-serif" font-size="20" lengthAdjust="spacing" textLength="110" x="2432.5" y="439.3242">Photograph</text><line style="stroke:#181818;stroke-width:0.5;" x1="2430.5" x2="2544.5" y1="448.543" y2="448.543"/><text fill="#000000" font-family="sans-serif" font-size="20" lengthAdjust="spacing" textLength="69" x="2435.5" y="471.8789">linkURI</text></g><!--class SocialSecurityCard--><g id="elem_SocialSecurityCard"><rect codeLine="72" fill="#F1F1F1" height="65.1094" id="SocialSecurityCard" rx="2.5" ry="2.5" style="stroke:#181818;stroke-width:0.5;" width="183" x="575" y="414.9883"/><text fill="#000000" font-family="sans-serif" font-size="20" lengthAdjust="spacing" textLength="177" x="578" y="439.3242">SocialSecurityCard</text><line style="stroke:#181818;stroke-width:0.5;" x1="576" x2="757" y1="448.543" y2="448.543"/><text fill="#000000" font-family="sans-serif" font-size="20" lengthAdjust="spacing" textLength="108" x="581" y="471.8789">taxNumber</text></g><!--class Passport--><g id="elem_Passport"><rect codeLine="76" fill="#F1F1F1" height="65.1094" id="Passport" rx="2.5" ry="2.5" style="stroke:#181818;stroke-width:0.5;" width="88" x="451.5" y="414.9883"/><text fill="#000000" font-family="sans-serif" font-size="20" lengthAdjust="spacing" textLength="82" x="454.5" y="439.3242">Passport</text><line style="stroke:#181818;stroke-width:0.5;" x1="452.5" x2="538.5" y1="448.543" y2="448.543"/><text fill="#000000" font-family="sans-serif" font-size="20" lengthAdjust="spacing" textLength="75" x="457.5" y="471.8789">number</text></g><!--class Equipment--><g id="elem_Equipment"><rect codeLine="80" fill="#F1F1F1" height="65.1094" id="Equipment" rx="2.5" ry="2.5" style="stroke:#181818;stroke-width:0.5;" width="124" x="2446.5" y="611.9883"/><text fill="#000000" font-family="sans-serif" font-size="20" lengthAdjust="spacing" textLength="104" x="2456.5" y="636.3242">Equipment</text><line style="stroke:#181818;stroke-width:0.5;" x1="2447.5" x2="2569.5" y1="645.543" y2="645.543"/><text fill="#000000" font-family="sans-serif" font-size="20" lengthAdjust="spacing" textLength="112" x="2452.5" y="668.8789">designation</text></g><!--class TypeOfCommission--><g id="elem_TypeOfCommission"><rect codeLine="84" fill="#F1F1F1" height="65.1094" id="TypeOfCommission" rx="2.5" ry="2.5" style="stroke:#181818;stroke-width:0.5;" width="196" x="930.5" y="1259.4883"/><text fill="#000000" font-family="sans-serif" font-size="20" lengthAdjust="spacing" textLength="190" x="933.5" y="1283.8242">TypeOfCommission</text><line style="stroke:#181818;stroke-width:0.5;" x1="931.5" x2="1125.5" y1="1293.043" y2="1293.043"/><text fill="#000000" font-family="sans-serif" font-size="20" lengthAdjust="spacing" textLength="112" x="936.5" y="1316.3789">designation</text></g><!--class TypeOfProperty--><g id="elem_TypeOfProperty"><rect codeLine="88" fill="#F1F1F1" height="65.1094" id="TypeOfProperty" rx="2.5" ry="2.5" style="stroke:#181818;stroke-width:0.5;" width="156" x="1638.5" y="414.9883"/><text fill="#000000" font-family="sans-serif" font-size="20" lengthAdjust="spacing" textLength="150" x="1641.5" y="439.3242">TypeOfProperty</text><line style="stroke:#181818;stroke-width:0.5;" x1="1639.5" x2="1793.5" y1="448.543" y2="448.543"/><text fill="#000000" font-family="sans-serif" font-size="20" lengthAdjust="spacing" textLength="112" x="1644.5" y="471.8789">designation</text></g><!--class Commission--><g id="elem_Commission"><rect codeLine="92" fill="#F1F1F1" height="65.1094" id="Commission" rx="2.5" ry="2.5" style="stroke:#181818;stroke-width:0.5;" width="126" x="1185.5" y="1109.4883"/><text fill="#000000" font-family="sans-serif" font-size="20" lengthAdjust="spacing" textLength="120" x="1188.5" y="1133.8242">Commission</text><line style="stroke:#181818;stroke-width:0.5;" x1="1186.5" x2="1310.5" y1="1143.043" y2="1143.043"/><text fill="#000000" font-family="sans-serif" font-size="20" lengthAdjust="spacing" textLength="50" x="1191.5" y="1166.3789">value</text></g><!--class PropertyVisit--><g id="elem_PropertyVisit"><rect codeLine="96" fill="#F1F1F1" height="65.1094" id="PropertyVisit" rx="2.5" ry="2.5" style="stroke:#181818;stroke-width:0.5;" width="128" x="1248.5" y="414.9883"/><text fill="#000000" font-family="sans-serif" font-size="20" lengthAdjust="spacing" textLength="122" x="1251.5" y="439.3242">PropertyVisit</text><line style="stroke:#181818;stroke-width:0.5;" x1="1249.5" x2="1375.5" y1="448.543" y2="448.543"/><text fill="#000000" font-family="sans-serif" font-size="20" lengthAdjust="spacing" textLength="107" x="1254.5" y="471.8789">dateOfVisit</text></g><!--link Property to Agent--><g id="link_Property_Agent"><path codeLine="100" d="M1751.31,258.7583 C1562.92,275.6483 1163.5,325.7083 1163.5,446.4883 C1163.5,446.4883 1163.5,446.4883 1163.5,830.9883 C1163.5,907.7283 1256.34,957.7283 1306.39,979.1083 " fill="none" id="Property-Agent" style="stroke:#181818;stroke-width:1.0;"/><polygon fill="#000000" points="1175.7039,637.9592,1164.0983,647.8011,1172.0996,652.7431,1175.7039,637.9592" style="stroke:#000000;stroke-width:1.0;"/><text fill="#000000" font-family="sans-serif" font-size="20" lengthAdjust="spacing" textLength="145" x="1184.5" y="652.3242">responsible for</text><text fill="#000000" font-family="sans-serif" font-size="20" lengthAdjust="spacing" textLength="10" x="1733.5626" y="254.881">*</text><text fill="#000000" font-family="sans-serif" font-size="20" lengthAdjust="spacing" textLength="13" x="1285.6329" y="970.519">1</text></g><!--link Property to Client--><g id="link_Property_Client"><path codeLine="101" d="M1751.28,266.7883 C1680.63,283.7983 1590.18,319.1083 1549.5,391.4883 C1505.25,470.2383 1521.21,585.4283 1529.13,627.4183 " fill="none" id="Property-Client" style="stroke:#181818;stroke-width:1.0;"/><polygon fill="#000000" points="1561.6958,440.9542,1550.1019,450.8099,1558.1091,455.7424,1561.6958,440.9542" style="stroke:#000000;stroke-width:1.0;"/><text fill="#000000" font-family="sans-serif" font-size="20" lengthAdjust="spacing" textLength="49" x="1570.5" y="455.3242">visits</text><text fill="#000000" font-family="sans-serif" font-size="20" lengthAdjust="spacing" textLength="10" x="1733.5303" y="288.2868">*</text><text fill="#000000" font-family="sans-serif" font-size="20" lengthAdjust="spacing" textLength="13" x="1513.1073" y="615.1578">1</text></g><!--link Property to Address--><g id="link_Property_Address"><path codeLine="102" d="M1751.17,256.2083 C1563.33,266.2783 1154.82,292.5583 1021.5,336.4883 C968.59,353.9283 914.47,388.1483 878.36,413.8083 " fill="none" id="Property-Address" style="stroke:#181818;stroke-width:1.0;"/><polygon fill="#000000" points="1021.6273,350.6872,1036.7047,352.743,1035.0336,343.4881,1021.6273,350.6872" style="stroke:#000000;stroke-width:1.0;"/><text fill="#000000" font-family="sans-serif" font-size="20" lengthAdjust="spacing" textLength="94" x="1042.5" y="356.8242">located at</text><text fill="#000000" font-family="sans-serif" font-size="20" lengthAdjust="spacing" textLength="13" x="1730.6184" y="276.8415">1</text><text fill="#000000" font-family="sans-serif" font-size="20" lengthAdjust="spacing" textLength="13" x="885.9183" y="403.2518">1</text></g><!--link Property to Owner--><g id="link_Property_Owner"><path codeLine="103" d="M1846.53,295.0183 C1844.25,346.2183 1836.76,433.1283 1812.5,503.4883 C1768.09,632.2883 1670.65,767.1983 1636.02,812.8283 " fill="none" id="Property-Owner" style="stroke:#181818;stroke-width:1.0;"/><polygon fill="#000000" points="1810.5129,538.8546,1800.7065,550.4903,1809.4186,554.0321,1810.5129,538.8546" style="stroke:#000000;stroke-width:1.0;"/><text fill="#000000" font-family="sans-serif" font-size="20" lengthAdjust="spacing" textLength="49" x="1820.5" y="553.8242">owns</text><text fill="#000000" font-family="sans-serif" font-size="20" lengthAdjust="spacing" textLength="35" x="1809.0481" y="321.9431">1..*</text><text fill="#000000" font-family="sans-serif" font-size="20" lengthAdjust="spacing" textLength="13" x="1624.7884" y="800.8922">1</text></g><!--link Property to Photograph--><g id="link_Property_Photograph"><path codeLine="104" d="M1943.52,263.6483 C2059.1,280.8683 2257.02,318.7083 2412.5,391.4883 C2425.66,397.6483 2438.84,406.2783 2450.39,414.8783 " fill="none" id="Property-Photograph" style="stroke:#181818;stroke-width:1.0;"/><polygon fill="#000000" points="2339.8339,346.9784,2352.3576,355.622,2355.0464,346.6101,2339.8339,346.9784" style="stroke:#000000;stroke-width:1.0;"/><text fill="#000000" font-family="sans-serif" font-size="20" lengthAdjust="spacing" textLength="94" x="2360.5" y="356.8242">illustrates</text><text fill="#000000" font-family="sans-serif" font-size="20" lengthAdjust="spacing" textLength="13" x="1951.3692" y="260.1454">1</text><text fill="#000000" font-family="sans-serif" font-size="20" lengthAdjust="spacing" textLength="51" x="2392.6757" y="402.905">1..30</text></g><!--link Property to Advertisement--><g id="link_Property_Advertisement"><path codeLine="105" d="M1943.79,285.5083 C2010.92,316.0783 2088.5,368.3083 2088.5,446.4883 C2088.5,446.4883 2088.5,446.4883 2088.5,1142.9883 C2088.5,1229.9583 1820.85,1268.0383 1665.6,1282.8083 " fill="none" id="Property-Advertisement" style="stroke:#181818;stroke-width:1.0;"/><polygon fill="#000000" points="2098.6495,822.5598,2090.2317,835.2363,2099.2904,837.7632,2098.6495,822.5598" style="stroke:#000000;stroke-width:1.0;"/><text fill="#000000" font-family="sans-serif" font-size="20" lengthAdjust="spacing" textLength="92" x="2109.5" y="837.8242">describes</text><text fill="#000000" font-family="sans-serif" font-size="20" lengthAdjust="spacing" textLength="13" x="1951.6599" y="283.6791">1</text><text fill="#000000" font-family="sans-serif" font-size="20" lengthAdjust="spacing" textLength="13" x="1673.6578" y="1277.7058">1</text></g><!--link Property to TypeOfProperty--><g id="link_Property_TypeOfProperty"><path codeLine="106" d="M1751.38,266.7883 C1710.33,278.5983 1666.24,299.5083 1641.5,336.4883 C1623.76,362.9983 1646.94,392.8883 1672.08,414.8183 " fill="none" id="Property-TypeOfProperty" style="stroke:#181818;stroke-width:1.0;"/><polygon fill="#000000" points="1645.7223,356.3175,1656.7012,345.781,1648.4112,341.3401,1645.7223,356.3175" style="stroke:#000000;stroke-width:1.0;"/><text fill="#000000" font-family="sans-serif" font-size="20" lengthAdjust="spacing" textLength="158" x="1662.5" y="356.8242">characterized by</text><text fill="#000000" font-family="sans-serif" font-size="20" lengthAdjust="spacing" textLength="10" x="1733.4408" y="264.1569">*</text><text fill="#000000" font-family="sans-serif" font-size="20" lengthAdjust="spacing" textLength="13" x="1649.3734" y="402.7768">1</text></g><!--link Property to AdvertisementRequest--><g id="link_Property_AdvertisementRequest"><path codeLine="107" d="M1861.85,295.3683 C1865.9,308.5183 1870.12,323.0183 1873.5,336.4883 C1895.25,423.0483 1903.79,444.6583 1912.5,533.4883 C1913.58,544.5483 1912.6,547.3783 1912.5,558.4883 C1911.76,638.5683 1909.79,731.9683 1908.55,785.4183 " fill="none" id="Property-AdvertisementRequest" style="stroke:#181818;stroke-width:1.0;"/><polygon fill="#000000" points="1919.7411,538.3017,1916.4329,553.1547,1925.7951,552.2625,1919.7411,538.3017" style="stroke:#000000;stroke-width:1.0;"/><text fill="#000000" font-family="sans-serif" font-size="20" lengthAdjust="spacing" textLength="92" x="1933.5" y="553.8242">describes</text><text fill="#000000" font-family="sans-serif" font-size="20" lengthAdjust="spacing" textLength="13" x="1849.8558" y="321.985">1</text><text fill="#000000" font-family="sans-serif" font-size="20" lengthAdjust="spacing" textLength="13" x="1894.7155" y="773.2367">1</text></g><!--reverse link Property to Residence--><g id="link_Property_Residence"><path codeLine="108" d="M1962.98,279.8783 C2011.13,293.8283 2066.83,312.7983 2114.5,336.4883 C2144.77,351.5283 2175.68,372.0483 2201.92,391.2883 " fill="none" id="Property-backto-Residence" style="stroke:#181818;stroke-width:1.0;"/><polygon fill="none" points="1960.89,286.5583,1943.54,274.3983,1964.69,273.0883,1960.89,286.5583" style="stroke:#181818;stroke-width:1.0;"/></g><!--link PropertyVisit to Client--><g id="link_PropertyVisit_Client"><path codeLine="110" d="M1320.32,480.2583 C1327.59,504.2183 1340.52,536.6083 1361.5,558.4883 C1372,569.4383 1454.87,608.1683 1501.28,629.3683 " fill="none" id="PropertyVisit-Client" style="stroke:#181818;stroke-width:1.0;"/><polygon fill="#000000" points="1363.326,541.1783,1371.5046,554.0104,1377.4852,546.7524,1363.326,541.1783" style="stroke:#000000;stroke-width:1.0;"/><text fill="#000000" font-family="sans-serif" font-size="20" lengthAdjust="spacing" textLength="82" x="1382.5" y="553.8242">requests</text><text fill="#000000" font-family="sans-serif" font-size="20" lengthAdjust="spacing" textLength="10" x="1322.6036" y="507.5195">*</text><text fill="#000000" font-family="sans-serif" font-size="20" lengthAdjust="spacing" textLength="13" x="1480.5003" y="620.317">1</text></g><!--link PropertyVisit to Agent--><g id="link_PropertyVisit_Agent"><path codeLine="111" d="M1320.12,480.2283 C1326.48,508.4483 1335.04,550.9483 1338.5,588.4883 C1352.27,738.0983 1342.21,920.3083 1338.63,974.8383 " fill="none" id="PropertyVisit-Agent" style="stroke:#181818;stroke-width:1.0;"/><polygon fill="#000000" points="1354.7992,751.26,1358.957,736.6222,1349.559,736.9739,1354.7992,751.26" style="stroke:#000000;stroke-width:1.0;"/><text fill="#000000" font-family="sans-serif" font-size="20" lengthAdjust="spacing" textLength="96" x="1367.5" y="750.8242">guided by</text><text fill="#000000" font-family="sans-serif" font-size="20" lengthAdjust="spacing" textLength="10" x="1310.5867" y="507.4841">*</text><text fill="#000000" font-family="sans-serif" font-size="20" lengthAdjust="spacing" textLength="13" x="1324.0526" y="962.9052">1</text></g><!--reverse link Residence to House--><g id="link_Residence_House"><path codeLine="113" d="M2272.81,523.5783 C2273.47,545.0783 2274.18,568.1083 2274.8,588.1883 " fill="none" id="Residence-backto-House" style="stroke:#181818;stroke-width:1.0;"/><polygon fill="none" points="2265.81,523.7883,2272.2,503.5883,2279.81,523.3583,2265.81,523.7883" style="stroke:#181818;stroke-width:1.0;"/></g><!--link Residence to Equipment--><g id="link_Residence_Equipment"><path codeLine="114" d="M2337.75,503.5883 C2380.5,538.6083 2434.31,582.7083 2469.98,611.9283 " fill="none" id="Residence-Equipment" style="stroke:#181818;stroke-width:1.0;"/><polygon fill="#000000" points="2417.6882,551.3358,2409.4738,538.5265,2403.5135,545.8011,2417.6882,551.3358" style="stroke:#000000;stroke-width:1.0;"/><text fill="#000000" font-family="sans-serif" font-size="20" lengthAdjust="spacing" textLength="80" x="2424.5" y="553.8242">contains</text><text fill="#000000" font-family="sans-serif" font-size="20" lengthAdjust="spacing" textLength="13" x="2332.1539" y="531.1834">1</text><text fill="#000000" font-family="sans-serif" font-size="20" lengthAdjust="spacing" textLength="10" x="2451.412" y="599.6337">*</text></g><!--link Address to Store--><g id="link_Address_Store"><path codeLine="116" d="M792.76,491.8583 C787.23,496.1783 781.42,500.1783 775.5,503.4883 C647.46,575.0883 479.76,612.6183 377.2,630.2083 " fill="none" id="Address-Store" style="stroke:#181818;stroke-width:1.0;"/><polygon fill="#000000" points="730.0904,543.7386,714.8739,543.8485,717.8446,552.7716,730.0904,543.7386" style="stroke:#000000;stroke-width:1.0;"/><text fill="#000000" font-family="sans-serif" font-size="20" lengthAdjust="spacing" textLength="94" x="735.5" y="553.8242">located at</text><text fill="#000000" font-family="sans-serif" font-size="20" lengthAdjust="spacing" textLength="13" x="771.9124" y="493.4596">1</text><text fill="#000000" font-family="sans-serif" font-size="20" lengthAdjust="spacing" textLength="13" x="385.105" y="624.5033">1</text></g><!--link Person to Passport--><g id="link_Person_Passport"><path codeLine="118" d="M561.7,298.9183 C547.27,309.6383 533.77,322.1683 523.5,336.4883 C506.96,359.5483 500.17,391.4683 497.39,414.9883 " fill="none" id="Person-Passport" style="stroke:#181818;stroke-width:1.0;"/><polygon fill="#000000" points="527.6228,356.2633,538.7498,345.8833,530.5235,341.3254,527.6228,356.2633" style="stroke:#000000;stroke-width:1.0;"/><text fill="#000000" font-family="sans-serif" font-size="20" lengthAdjust="spacing" textLength="97" x="544.5" y="356.8242">possesses</text><text fill="#000000" font-family="sans-serif" font-size="20" lengthAdjust="spacing" textLength="13" x="541.0973" y="298.0945">1</text><text fill="#000000" font-family="sans-serif" font-size="20" lengthAdjust="spacing" textLength="13" x="483.4824" y="402.7056">1</text></g><!--link Person to Address--><g id="link_Person_Address"><path codeLine="119" d="M742.32,306.5683 C753.85,315.7783 764.96,325.8383 774.5,336.4883 C788.92,352.5883 801.31,372.6883 811.09,391.2883 " fill="none" id="Person-Address" style="stroke:#181818;stroke-width:1.0;"/><polygon fill="#000000" points="806.5419,355.4769,801.0719,341.2771,793.7702,347.2042,806.5419,355.4769" style="stroke:#000000;stroke-width:1.0;"/><text fill="#000000" font-family="sans-serif" font-size="20" lengthAdjust="spacing" textLength="67" x="814.5" y="356.8242">lives at</text><text fill="#000000" font-family="sans-serif" font-size="20" lengthAdjust="spacing" textLength="10" x="742.4137" y="334.161">*</text><text fill="#000000" font-family="sans-serif" font-size="20" lengthAdjust="spacing" textLength="13" x="794.3228" y="379.3938">1</text></g><!--link Person to SocialSecurityCard--><g id="link_Person_SocialSecurityCard"><path codeLine="120" d="M650.52,306.6783 C649.92,324.2283 649.94,343.6983 651.5,361.4883 C653.06,379.2483 656.41,398.8683 659.55,414.7783 " fill="none" id="Person-SocialSecurityCard" style="stroke:#181818;stroke-width:1.0;"/><polygon fill="#000000" points="660.166,357.2379,663.6472,342.4245,654.2753,343.2074,660.166,357.2379" style="stroke:#000000;stroke-width:1.0;"/><text fill="#000000" font-family="sans-serif" font-size="20" lengthAdjust="spacing" textLength="97" x="672.5" y="356.8242">possesses</text><text fill="#000000" font-family="sans-serif" font-size="20" lengthAdjust="spacing" textLength="13" x="636.3082" y="333.8603">1</text><text fill="#000000" font-family="sans-serif" font-size="20" lengthAdjust="spacing" textLength="13" x="643.9861" y="402.7291">1</text></g><!--link Employee to Person--><g id="link_Employee_Person"><path codeLine="121" d="M334,250.4883 C403.28,250.4883 472.55,250.4883 541.83,250.4883 " fill="none" id="Employee-to-Person" style="stroke:#181818;stroke-width:1.0;"/><polygon fill="none" points="541.86,243.4883,561.86,250.4883,541.86,257.4883,541.86,243.4883" style="stroke:#181818;stroke-width:1.0;"/></g><!--reverse link Person to Client--><g id="link_Person_Client"><path codeLine="122" d="M767.13,261.0983 C948.52,278.4883 1295,320.1283 1393.5,391.4883 C1478.06,452.7583 1517.2,581.9483 1528.72,627.3183 " fill="none" id="Person-backto-Client" style="stroke:#181818;stroke-width:1.0;"/><polygon fill="none" points="766.44,268.0683,747.18,259.2283,767.75,254.1283,766.44,268.0683" style="stroke:#181818;stroke-width:1.0;"/></g><!--reverse link Client to Owner--><g id="link_Client_Owner"><path codeLine="123" d="M1549.5,679.7783 C1569.17,719.4283 1600.72,783.0483 1615.44,812.7383 " fill="none" id="Client-backto-Owner" style="stroke:#181818;stroke-width:1.0;"/><polygon fill="none" points="1543.19,682.7983,1540.58,661.7683,1555.73,676.5783,1543.19,682.7983" style="stroke:#181818;stroke-width:1.0;"/></g><!--link Role to Employee--><g id="link_Role_Employee"><path codeLine="125" d="M284.5,109.8483 C284.5,146.4583 284.5,205.1283 284.5,233.3283 " fill="none" id="Role-Employee" style="stroke:#181818;stroke-width:1.0;"/><polygon fill="#000000" points="292.5,160.2656,297.2023,145.7935,287.7977,145.7935,292.5,160.2656" style="stroke:#000000;stroke-width:1.0;"/><text fill="#000000" font-family="sans-serif" font-size="20" lengthAdjust="spacing" textLength="70" x="305.5" y="159.8242">defines</text><text fill="#000000" font-family="sans-serif" font-size="20" lengthAdjust="spacing" textLength="13" x="270.3828" y="136.8469">1</text><text fill="#000000" font-family="sans-serif" font-size="20" lengthAdjust="spacing" textLength="10" x="273.0313" y="221.3922">*</text></g><!--reverse link Role to SystemAdministrator--><g id="link_Role_SystemAdministrator"><path codeLine="126" d="M248.82,125.8083 C213.33,175.7783 160.02,257.7283 130.5,336.4883 C118.51,368.4783 113.55,408.4783 111.63,430.3483 " fill="none" id="Role-backto-SystemAdministrator" style="stroke:#181818;stroke-width:1.0;"/><polygon fill="none" points="243.19,121.6583,260.57,109.5283,254.54,129.8483,243.19,121.6583" style="stroke:#181818;stroke-width:1.0;"/></g><!--reverse link Role to Agent--><g id="link_Role_Agent"><path codeLine="127" d="M366.49,91.2383 C555.87,123.7183 1014.15,213.6983 1100.5,336.4883 C1123.8,369.6183 1117.42,660.0983 1120.5,700.4883 C1126.41,777.9683 1105.29,803.7783 1137.5,874.4883 C1168.15,941.7783 1258.06,972.5183 1306.21,984.4983 " fill="none" id="Role-backto-Agent" style="stroke:#181818;stroke-width:1.0;"/><polygon fill="none" points="365.17,98.1183,346.62,87.8683,367.51,84.3083,365.17,98.1183" style="stroke:#181818;stroke-width:1.0;"/></g><!--link Client to Advertisement--><g id="link_Client_Advertisement"><path codeLine="129" d="M1533.13,661.7683 C1536.44,747.1083 1551.78,1143.3883 1556.27,1259.1583 " fill="none" id="Client-Advertisement" style="stroke:#181818;stroke-width:1.0;"/><polygon fill="#000000" points="1555.8096,1000.2596,1559.9482,985.6163,1550.5507,985.9803,1555.8096,1000.2596" style="stroke:#000000;stroke-width:1.0;"/><text fill="#000000" font-family="sans-serif" font-size="20" lengthAdjust="spacing" textLength="79" x="1568.5" y="999.8242">consults</text><text fill="#000000" font-family="sans-serif" font-size="20" lengthAdjust="spacing" textLength="10" x="1522.0648" y="688.2412">*</text><text fill="#000000" font-family="sans-serif" font-size="20" lengthAdjust="spacing" textLength="10" x="1545.1213" y="1247.3619">*</text></g><!--link Owner to AdvertisementRequest--><g id="link_Owner_AdvertisementRequest"><path codeLine="131" d="M1657.76,829.9883 C1692.13,829.9883 1746.94,829.9883 1796.47,829.9883 " fill="none" id="Owner-AdvertisementRequest" style="stroke:#181818;stroke-width:1.0;"/><polygon fill="#000000" points="1691,814.7656,1676.5279,810.0633,1676.5279,819.4679,1691,814.7656" style="stroke:#000000;stroke-width:1.0;"/><text fill="#000000" font-family="sans-serif" font-size="20" lengthAdjust="spacing" textLength="82" x="1696" y="822.3242">requests</text><text fill="#000000" font-family="sans-serif" font-size="20" lengthAdjust="spacing" textLength="13" x="1665.5299" y="824.2273">1</text><text fill="#000000" font-family="sans-serif" font-size="20" lengthAdjust="spacing" textLength="10" x="1778.6742" y="825.5815">*</text></g><!--link AdvertisementRequest to Agent--><g id="link_AdvertisementRequest_Agent"><path codeLine="132" d="M1796.25,862.2183 C1663.25,899.5483 1448.63,959.7983 1368.76,982.2183 " fill="none" id="AdvertisementRequest-Agent" style="stroke:#181818;stroke-width:1.0;"/><polygon fill="#000000" points="1656.2023,915.1035,1640.9979,914.4875,1643.5396,923.5421,1656.2023,915.1035" style="stroke:#000000;stroke-width:1.0;"/><text fill="#000000" font-family="sans-serif" font-size="20" lengthAdjust="spacing" textLength="85" x="1661.5" y="924.8242">validates</text><text fill="#000000" font-family="sans-serif" font-size="20" lengthAdjust="spacing" textLength="10" x="1778.4395" y="859.9769">*</text><text fill="#000000" font-family="sans-serif" font-size="20" lengthAdjust="spacing" textLength="13" x="1376.548" y="974.2704">1</text></g><!--link AdvertisementRequest to Advertisement--><g id="link_AdvertisementRequest_Advertisement"><path codeLine="133" d="M1907.7,874.8383 C1906,916.2283 1898.41,978.6083 1870.5,1024.4883 C1805.87,1130.7383 1684.21,1215.8183 1613.1,1259.3183 " fill="none" id="AdvertisementRequest-Advertisement" style="stroke:#181818;stroke-width:1.0;"/><polygon fill="#000000" points="1861.3657,1060.9154,1848.831,1069.543,1856.2961,1075.263,1861.3657,1060.9154" style="stroke:#000000;stroke-width:1.0;"/><text fill="#000000" font-family="sans-serif" font-size="20" lengthAdjust="spacing" textLength="121" x="1869.5" y="1074.8242">derives from</text><text fill="#000000" font-family="sans-serif" font-size="20" lengthAdjust="spacing" textLength="13" x="1893.8928" y="901.4511">1</text><text fill="#000000" font-family="sans-serif" font-size="20" lengthAdjust="spacing" textLength="13" x="1609.4597" y="1247.2768">1</text></g><!--link Employee to Store--><g id="link_Employee_Store"><path codeLine="135" d="M284.5,267.8283 C284.5,322.0283 284.5,497.4883 284.5,588.1383 " fill="none" id="Employee-Store" style="stroke:#181818;stroke-width:1.0;"/><polygon fill="#000000" points="292.5,455.7656,297.2023,441.2935,287.7977,441.2935,292.5,455.7656" style="stroke:#000000;stroke-width:1.0;"/><text fill="#000000" font-family="sans-serif" font-size="20" lengthAdjust="spacing" textLength="110" x="305.5" y="455.3242">assigned to</text><text fill="#000000" font-family="sans-serif" font-size="20" lengthAdjust="spacing" textLength="10" x="273.2813" y="294.3158">*</text><text fill="#000000" font-family="sans-serif" font-size="20" lengthAdjust="spacing" textLength="13" x="270.7078" y="576.2255">1</text></g><!--link Employee to SystemAdministrator--><g id="link_Employee_SystemAdministrator"><path codeLine="136" d="M247.76,267.4983 C218.68,281.8383 178.85,305.3883 153.5,336.4883 C130.31,364.9383 118.53,407.3783 113.54,430.3383 " fill="none" id="Employee-SystemAdministrator" style="stroke:#181818;stroke-width:1.0;"/><polygon fill="#000000" points="166.5883,343.0924,153.7549,351.2691,161.012,357.2507,166.5883,343.0924" style="stroke:#000000;stroke-width:1.0;"/><text fill="#000000" font-family="sans-serif" font-size="20" lengthAdjust="spacing" textLength="83" x="174.5" y="356.8242">registers</text><text fill="#000000" font-family="sans-serif" font-size="20" lengthAdjust="spacing" textLength="10" x="227.0641" y="294.268">*</text><text fill="#000000" font-family="sans-serif" font-size="20" lengthAdjust="spacing" textLength="13" x="99.5236" y="418.4052">1</text></g><!--link SystemAdministrator to Store--><g id="link_SystemAdministrator_Store"><path codeLine="137" d="M113.54,464.6383 C118.53,487.5983 130.31,530.0383 153.5,558.4883 C164.29,571.7283 177.71,583.5983 191.8,593.9683 " fill="none" id="SystemAdministrator-Store" style="stroke:#181818;stroke-width:1.0;"/><polygon fill="#000000" points="165.6417,553.1101,162.1724,538.2939,154.1262,543.1628,165.6417,553.1101" style="stroke:#000000;stroke-width:1.0;"/><text fill="#000000" font-family="sans-serif" font-size="20" lengthAdjust="spacing" textLength="83" x="174.5" y="553.8242">registers</text><text fill="#000000" font-family="sans-serif" font-size="20" lengthAdjust="spacing" textLength="13" x="99.6534" y="491.4439">1</text><text fill="#000000" font-family="sans-serif" font-size="20" lengthAdjust="spacing" textLength="10" x="174.0145" y="585.3754">*</text></g><!--link Agent to Advertisement--><g id="link_Agent_Advertisement"><path codeLine="139" d="M1345.34,1009.0783 C1351.29,1021.4383 1359.6,1038.9483 1366.5,1054.4883 C1389.94,1107.2983 1382.11,1128.0583 1416.5,1174.4883 C1441.54,1208.2983 1478.43,1238.3183 1508.2,1259.4183 " fill="none" id="Agent-Advertisement" style="stroke:#181818;stroke-width:1.0;"/><polygon fill="#000000" points="1428.8625,1148.9715,1424.9122,1134.2763,1417.029,1139.4047,1428.8625,1148.9715" style="stroke:#000000;stroke-width:1.0;"/><text fill="#000000" font-family="sans-serif" font-size="20" lengthAdjust="spacing" textLength="93" x="1437.5" y="1149.8242">publishes</text><text fill="#000000" font-family="sans-serif" font-size="20" lengthAdjust="spacing" textLength="13" x="1332.6834" y="1035.8685">1</text><text fill="#000000" font-family="sans-serif" font-size="20" lengthAdjust="spacing" textLength="10" x="1487.8491" y="1247.3958">*</text></g><!--link Agent to Commission--><g id="link_Agent_Commission"><path codeLine="140" d="M1327.81,1009.1083 C1313.39,1033.0783 1286.01,1078.6083 1267.51,1109.3783 " fill="none" id="Agent-Commission" style="stroke:#181818;stroke-width:1.0;"/><polygon fill="#000000" points="1302.3771,1074.1214,1313.8652,1064.1426,1305.8058,1059.2958,1302.3771,1074.1214" style="stroke:#000000;stroke-width:1.0;"/><text fill="#000000" font-family="sans-serif" font-size="20" lengthAdjust="spacing" textLength="38" x="1319.5" y="1074.8242">sets</text><text fill="#000000" font-family="sans-serif" font-size="20" lengthAdjust="spacing" textLength="13" x="1310.6613" y="1035.9062">1</text><text fill="#000000" font-family="sans-serif" font-size="20" lengthAdjust="spacing" textLength="10" x="1260.1807" y="1097.3482">*</text></g><!--link Commission to TypeOfCommission--><g id="link_Commission_TypeOfCommission"><path codeLine="142" d="M1185.32,1151.7983 C1126.44,1161.4583 1044.87,1179.0483 1025.5,1204.4883 C1013.85,1219.7883 1014.6,1241.4183 1018.26,1259.2183 " fill="none" id="Commission-TypeOfCommission" style="stroke:#181818;stroke-width:1.0;"/><polygon fill="#000000" points="1026.771,1221.5924,1041.4871,1217.7204,1036.4007,1209.81,1026.771,1221.5924" style="stroke:#000000;stroke-width:1.0;"/><text fill="#000000" font-family="sans-serif" font-size="20" lengthAdjust="spacing" textLength="158" x="1046.5" y="1224.8242">characterized by</text><text fill="#000000" font-family="sans-serif" font-size="20" lengthAdjust="spacing" textLength="10" x="1167.4367" y="1147.9646">*</text><text fill="#000000" font-family="sans-serif" font-size="20" lengthAdjust="spacing" textLength="13" x="1002.0689" y="1247.1577">1</text></g><!--link Commission to Advertisement--><g id="link_Commission_Advertisement"><path codeLine="143" d="M1237.93,1174.6783 C1234.05,1192.6683 1233.19,1214.5183 1245.5,1229.4883 C1271.18,1260.7283 1369.65,1276.3483 1449.18,1284.0083 " fill="none" id="Commission-Advertisement" style="stroke:#181818;stroke-width:1.0;"/><polygon fill="#000000" points="1260.6049,1220.9427,1249.9133,1210.1147,1245.5907,1218.467,1260.6049,1220.9427" style="stroke:#000000;stroke-width:1.0;"/><text fill="#000000" font-family="sans-serif" font-size="20" lengthAdjust="spacing" textLength="96" x="1266.5" y="1224.8242">present in</text><text fill="#000000" font-family="sans-serif" font-size="20" lengthAdjust="spacing" textLength="13" x="1221.8894" y="1201.9252">1</text><text fill="#000000" font-family="sans-serif" font-size="20" lengthAdjust="spacing" textLength="13" x="1428.4655" y="1279.0504">1</text></g><!--link AdvertisementRequest to TypeOfBusiness--><g id="link_AdvertisementRequest_TypeOfBusiness"><path codeLine="145" d="M1797.6,874.6783 C1786.88,883.0483 1777.43,892.9083 1770.5,904.4883 C1760.78,920.7383 1761.35,941.9483 1764.44,959.2983 " fill="none" id="AdvertisementRequest-TypeOfBusiness" style="stroke:#181818;stroke-width:1.0;"/><polygon fill="#000000" points="1781.4188,909.8171,1771.7605,921.5759,1780.5167,925.0073,1781.4188,909.8171" style="stroke:#000000;stroke-width:1.0;"/><text fill="#000000" font-family="sans-serif" font-size="20" lengthAdjust="spacing" textLength="96" x="1791.5" y="924.8242">present in</text><text fill="#000000" font-family="sans-serif" font-size="20" lengthAdjust="spacing" textLength="10" x="1778.4439" y="898.5273">*</text><text fill="#000000" font-family="sans-serif" font-size="20" lengthAdjust="spacing" textLength="13" x="1748.4739" y="947.2529">1</text></g><!--SRC=[ZLPTJzim57tthx3wY4G5srjKJM8Tqv2sKT5jxsvysreuTh2TGjVnttVjEBMJfcoeWiO-z-kSUs-mZqBLpB1Awl8HEEMmPerqdxLoI_4RwBihGhQ20os5AIMqtw6gtPvMKAt0M4ASS1Be9rqneUWtpK4IKafcBLqwRO0U20ShDeeveHK1XCaRpWrOInn8gBTQmVV6EoElqV2sggNU0zg-7dtjhOFgXbT22UiCGzVPxSq6bCkUxvyLvFTpAH2GdXUOkLO7ebW5_qefcZneEQmbXUSxC4vOg33A0pmrO34RKXjH0k7CmVqwdYQR7_iQZpysLYYC-p-EVVJWgtUQm0kZQppV8uuPO8GZKKoLC1TkFqUaWQmQZCO1Bn6iGgMO2t2ZTMNJ0NFR_ic26UoOpR9c9TZaxOjkB1m8l614xzIRnkooipkrPIlXs4h2Lxrsn3RgzgNMjiaJYpeS2ERk8DI0B3fIOX5PgLljzCQmUdiWKgZ7dmztwNAfIy7a4ih6-CgPuLYaOoz3HHVugzR67Ib8LxTFZQWxpiU4QTMRwweIrWhVIc_0Ec7EW78lEoORE9Nqbx32TVA71u_fRYSN4thfV-ZaUX96eQ18OgsL5KWsNUEip0Pe3ssdeg0xxz3caEiE4kKeA2u83CufS_H3XfjEZzx2p1LKFwjHLzFf-wj9qgsWGiecJ3AS2vrrUO6hoPP6hFhWO_0-qGKjjxZLIWS6jnYdgtqlwT48SK370r4w-uCsnwb9t0SnJYarhRVSnm0PTTeqw35cID9KXd1XhD9Xb_Z59BKdLegx6ZUlzVPHhLHXsC0zyMQOUbX-2TJDGK5n62tuZwUhHLsSTeBO8Q3jWu6dqyaRyncAaySbdvzUqhYgIVkdvI5q5hA36pZZ89fxmTP-XwB_iAE3oSZh8hiDt9COeolnOjXnoAp5bs5azhHLMaFf2wUn-JFPpri4WoW_phlWSGH6BQwJnN0UJ11YRNJbLUtu234oxL5SN3aeljDOI0_LmawPydLi_DesFgqHG58X1abupvKlBK46UTVDIWgx3NfbI8vxmwFJCYoeXPRyT3OS-1mzClAPuRcrKcDJ-qR3_rtUbBdD3xtqtziz1pFo5m00]--></g></svg>