<?xml version="1.0" encoding="UTF-8" standalone="no"?><svg xmlns="http://www.w3.org/2000/svg" xmlns:xlink="http://www.w3.org/1999/xlink" contentStyleType="text/css" height="299px" preserveAspectRatio="none" style="width:589px;height:299px;background:#FFFFFF;" version="1.1" viewBox="0 0 589 299" width="589px" zoomAndPan="magnify"><defs/><g><!--class Client--><g id="elem_Client"><rect codeLine="10" fill="#F1F1F1" height="41.5547" id="Client" rx="2.5" ry="2.5" style="stroke:#181818;stroke-width:0.5;" width="62" x="7" y="204"/><text fill="#000000" font-family="sans-serif" font-size="20" lengthAdjust="spacing" textLength="56" x="10" y="228.3359">Client</text><line style="stroke:#181818;stroke-width:0.5;" x1="8" x2="68" y1="237.5547" y2="237.5547"/></g><!--class PropertyVisit--><g id="elem_PropertyVisit"><rect codeLine="12" fill="#F1F1F1" height="65.1094" id="PropertyVisit" rx="2.5" ry="2.5" style="stroke:#181818;stroke-width:0.5;" width="128" x="227" y="7"/><text fill="#000000" font-family="sans-serif" font-size="20" lengthAdjust="spacing" textLength="122" x="230" y="31.3359">PropertyVisit</text><line style="stroke:#181818;stroke-width:0.5;" x1="228" x2="354" y1="40.5547" y2="40.5547"/><text fill="#000000" font-family="sans-serif" font-size="20" lengthAdjust="spacing" textLength="107" x="233" y="63.8906">dateOfVisit</text></g><!--class Agent--><g id="elem_Agent"><rect codeLine="16" fill="#F1F1F1" height="41.5547" id="Agent" rx="2.5" ry="2.5" style="stroke:#181818;stroke-width:0.5;" width="62" x="510" y="204"/><text fill="#000000" font-family="sans-serif" font-size="20" lengthAdjust="spacing" textLength="56" x="513" y="228.3359">Agent</text><line style="stroke:#181818;stroke-width:0.5;" x1="511" x2="571" y1="237.5547" y2="237.5547"/></g><!--class VisitRequest--><g id="elem_VisitRequest"><rect codeLine="18" fill="#F1F1F1" height="135.7734" id="VisitRequest" rx="2.5" ry="2.5" style="stroke:#181818;stroke-width:0.5;" width="166" x="208" y="157"/><text fill="#000000" font-family="sans-serif" font-size="20" lengthAdjust="spacing" textLength="119" x="231.5" y="181.3359">VisitRequest</text><line style="stroke:#181818;stroke-width:0.5;" x1="209" x2="373" y1="190.5547" y2="190.5547"/><text fill="#000000" font-family="sans-serif" font-size="20" lengthAdjust="spacing" textLength="154" x="214" y="213.8906">timeToStartVisit</text><text fill="#000000" font-family="sans-serif" font-size="20" lengthAdjust="spacing" textLength="146" x="214" y="237.4453">timeToEndVisit</text><text fill="#000000" font-family="sans-serif" font-size="20" lengthAdjust="spacing" textLength="107" x="214" y="261">dateOfVisit</text><text fill="#000000" font-family="sans-serif" font-size="20" lengthAdjust="spacing" textLength="142" x="214" y="284.5547">dateOfRequest</text></g><!--link Client to VisitRequest--><g id="link_Client_VisitRequest"><path codeLine="25" d="M69.02,225 C103.4,225 160.25,225 207.82,225 " fill="none" id="Client-VisitRequest" style="stroke:#181818;stroke-width:1.0;"/><polygon fill="#000000" points="102.5,209.7773,88.0279,205.0751,88.0279,214.4796,102.5,209.7773" style="stroke:#000000;stroke-width:1.0;"/><text fill="#000000" font-family="sans-serif" font-size="20" lengthAdjust="spacing" textLength="82" x="107.5" y="217.3359">requests</text><text fill="#000000" font-family="sans-serif" font-size="20" lengthAdjust="spacing" textLength="13" x="77.2275" y="218.9297">1</text><text fill="#000000" font-family="sans-serif" font-size="20" lengthAdjust="spacing" textLength="10" x="189.9665" y="220.3465">*</text></g><!--link VisitRequest to Agent--><g id="link_VisitRequest_Agent"><path codeLine="26" d="M374.25,225 C420.84,225 476.17,225 509.92,225 " fill="none" id="VisitRequest-Agent" style="stroke:#181818;stroke-width:1.0;"/><polygon fill="#000000" points="391.5,209.7773,405.9721,214.4796,405.9721,205.0751,391.5,209.7773" style="stroke:#000000;stroke-width:1.0;"/><text fill="#000000" font-family="sans-serif" font-size="20" lengthAdjust="spacing" textLength="79" x="412.5" y="217.3359">consults</text><text fill="#000000" font-family="sans-serif" font-size="20" lengthAdjust="spacing" textLength="10" x="382.1098" y="220.3465">*</text><text fill="#000000" font-family="sans-serif" font-size="20" lengthAdjust="spacing" textLength="13" x="489.1691" y="219.0672">1</text></g><!--link PropertyVisit to Agent--><g id="link_PropertyVisit_Agent"><path codeLine="28" d="M355.28,58.67 C383.59,68.61 416.19,82.87 442,102 C480.35,130.43 512.53,177 529.06,203.63 " fill="none" id="PropertyVisit-Agent" style="stroke:#181818;stroke-width:1.0;"/><polygon fill="#000000" points="468.8567,109.6529,476.9579,122.5341,482.9821,115.3122,468.8567,109.6529" style="stroke:#000000;stroke-width:1.0;"/><text fill="#000000" font-family="sans-serif" font-size="20" lengthAdjust="spacing" textLength="93" x="488" y="122.3359">organizes</text><text fill="#000000" font-family="sans-serif" font-size="20" lengthAdjust="spacing" textLength="10" x="362.8575" y="55.8692">*</text><text fill="#000000" font-family="sans-serif" font-size="20" lengthAdjust="spacing" textLength="13" x="511.3348" y="191.6711">1</text></g><!--link PropertyVisit to Client--><g id="link_PropertyVisit_Client"><path codeLine="29" d="M226.61,54.43 C193.55,63.88 154.02,78.95 124,102 C87.82,129.78 60.74,177.02 47.35,203.84 " fill="none" id="PropertyVisit-Client" style="stroke:#181818;stroke-width:1.0;"/><polygon fill="#000000" points="138.1453,109.6553,124.0177,115.309,130.039,122.5333,138.1453,109.6553" style="stroke:#000000;stroke-width:1.0;"/><text fill="#000000" font-family="sans-serif" font-size="20" lengthAdjust="spacing" textLength="137" x="145" y="122.3359">participates in</text><text fill="#000000" font-family="sans-serif" font-size="20" lengthAdjust="spacing" textLength="10" x="209.0205" y="51.1654">*</text><text fill="#000000" font-family="sans-serif" font-size="20" lengthAdjust="spacing" textLength="13" x="35.0803" y="191.9349">1</text></g><!--link PropertyVisit to VisitRequest--><g id="link_PropertyVisit_VisitRequest"><path codeLine="30" d="M291,72.04 C291,95.31 291,127.81 291,156.79 " fill="none" id="PropertyVisit-VisitRequest" style="stroke:#181818;stroke-width:1.0;"/><polygon fill="#000000" points="299,122.7773,303.7023,108.3052,294.2977,108.3052,299,122.7773" style="stroke:#000000;stroke-width:1.0;"/><text fill="#000000" font-family="sans-serif" font-size="20" lengthAdjust="spacing" textLength="121" x="312" y="122.3359">derives from</text><text fill="#000000" font-family="sans-serif" font-size="20" lengthAdjust="spacing" textLength="13" x="276.8016" y="99.5369">1</text><text fill="#000000" font-family="sans-serif" font-size="20" lengthAdjust="spacing" textLength="13" x="277.3297" y="144.9461">1</text></g><!--SRC=[RPB1JiCm38RlUGghHwH9WsE5a2O4qauWYhY7n6sjfab9ND2OU7VST8CETelZxxUTtqaT-K57tRjWEhHWiTQZu_lWkQ9FXAkrIaS4-k23QMFe4JYEkCWCsdIwmOft3Y6YOUqRjmHIgstu8Dz0hLr2jKWPfrFQC4Tw7Hct9lZSUQrKInR1K3HIAfzxv3ROf5JMmAqZzBp_EiQFCGmOUVT2YNYlh6Pyg7EWVfXD8nBurUJq4xwDc4J2rEDpg5X7ddNpnPstSxWiEPyFqgd1ibHnKS1gvQ2uBEOfIx4bPn9Sdo7ZHERPIX07aknW0jN9a_wZ8JRQYriJUmPTjXUpcGmDCdK2ydy54tfGd7W2fVo9IEyYgcNpSAE-0G00]--></g></svg>