<?xml version="1.0" encoding="UTF-8" standalone="no"?><svg xmlns="http://www.w3.org/2000/svg" xmlns:xlink="http://www.w3.org/1999/xlink" contentStyleType="text/css" height="1378px" preserveAspectRatio="none" style="width:2644px;height:1378px;background:#FFFFFF;" version="1.1" viewBox="0 0 2644 1378" width="2644px" zoomAndPan="magnify"><defs/><g><text fill="#000000" font-family="sans-serif" font-size="14" font-weight="bold" lengthAdjust="spacing" textLength="105" x="1262.75" y="23.5352">Domain Model</text><!--class Store--><g id="elem_Store"><rect codeLine="7" fill="#F1F1F1" height="112.2188" id="Store" rx="2.5" ry="2.5" style="stroke:#181818;stroke-width:0.5;" width="185" x="192" y="635.4883"/><text fill="#000000" font-family="sans-serif" font-size="20" lengthAdjust="spacing" textLength="49" x="260" y="659.8242">Store</text><line style="stroke:#181818;stroke-width:0.5;" x1="193" x2="376" y1="669.043" y2="669.043"/><text fill="#000000" font-family="sans-serif" font-size="20" lengthAdjust="spacing" textLength="112" x="198" y="692.3789">designation</text><text fill="#000000" font-family="sans-serif" font-size="20" lengthAdjust="spacing" textLength="132" x="198" y="715.9336">emailAddress</text><text fill="#000000" font-family="sans-serif" font-size="20" lengthAdjust="spacing" textLength="173" x="198" y="739.4883">telephoneNumber</text></g><!--class Employee--><g id="elem_Employee"><rect codeLine="12" fill="#F1F1F1" height="33.5547" id="Employee" rx="2.5" ry="2.5" style="stroke:#181818;stroke-width:0.5;" width="99" x="235" y="233.4883"/><text fill="#000000" font-family="sans-serif" font-size="20" lengthAdjust="spacing" textLength="93" x="238" y="257.8242">Employee</text></g><!--class SystemAdministrator--><g id="elem_SystemAdministrator"><rect codeLine="14" fill="#F1F1F1" height="33.5547" id="SystemAdministrator" rx="2.5" ry="2.5" style="stroke:#181818;stroke-width:0.5;" width="207" x="7" y="453.9883"/><text fill="#000000" font-family="sans-serif" font-size="20" lengthAdjust="spacing" textLength="201" x="10" y="478.3242">SystemAdministrator</text></g><!--class Agent--><g id="elem_Agent"><rect codeLine="16" fill="#F1F1F1" height="33.5547" id="Agent" rx="2.5" ry="2.5" style="stroke:#181818;stroke-width:0.5;" width="62" x="1326.5" y="1021.9883"/><text fill="#000000" font-family="sans-serif" font-size="20" lengthAdjust="spacing" textLength="56" x="1329.5" y="1046.3242">Agent</text></g><!--class Owner--><g id="elem_Owner"><rect codeLine="18" fill="#F1F1F1" height="33.5547" id="Owner" rx="2.5" ry="2.5" style="stroke:#181818;stroke-width:0.5;" width="68" x="1418.5" y="859.9883"/><text fill="#000000" font-family="sans-serif" font-size="20" lengthAdjust="spacing" textLength="62" x="1421.5" y="884.3242">Owner</text></g><!--class Client--><g id="elem_Client"><rect codeLine="20" fill="#F1F1F1" height="33.5547" id="Client" rx="2.5" ry="2.5" style="stroke:#181818;stroke-width:0.5;" width="62" x="1515.5" y="674.4883"/><text fill="#000000" font-family="sans-serif" font-size="20" lengthAdjust="spacing" textLength="56" x="1518.5" y="698.8242">Client</text></g><!--class Person--><g id="elem_Person"><rect codeLine="22" fill="#F1F1F1" height="112.2188" id="Person" rx="2.5" ry="2.5" style="stroke:#181818;stroke-width:0.5;" width="185" x="571" y="194.4883"/><text fill="#000000" font-family="sans-serif" font-size="20" lengthAdjust="spacing" textLength="64" x="631.5" y="218.8242">Person</text><line style="stroke:#181818;stroke-width:0.5;" x1="572" x2="755" y1="228.043" y2="228.043"/><text fill="#000000" font-family="sans-serif" font-size="20" lengthAdjust="spacing" textLength="53" x="577" y="251.3789">name</text><text fill="#000000" font-family="sans-serif" font-size="20" lengthAdjust="spacing" textLength="132" x="577" y="274.9336">emailAddress</text><text fill="#000000" font-family="sans-serif" font-size="20" lengthAdjust="spacing" textLength="173" x="577" y="298.4883">telephoneNumber</text></g><!--class Role--><g id="elem_Role"><rect codeLine="28" fill="#F1F1F1" height="65.1094" id="Role" rx="2.5" ry="2.5" style="stroke:#181818;stroke-width:0.5;" width="124" x="222.5" y="44.4883"/><text fill="#000000" font-family="sans-serif" font-size="20" lengthAdjust="spacing" textLength="42" x="263.5" y="68.8242">Role</text><line style="stroke:#181818;stroke-width:0.5;" x1="223.5" x2="345.5" y1="78.043" y2="78.043"/><text fill="#000000" font-family="sans-serif" font-size="20" lengthAdjust="spacing" textLength="112" x="228.5" y="101.3789">designation</text></g><!--class AdvertisementRequest--><g id="elem_AdvertisementRequest"><rect codeLine="32" fill="#F1F1F1" height="88.6641" id="AdvertisementRequest" rx="2.5" ry="2.5" style="stroke:#181818;stroke-width:0.5;" width="222" x="1795.5" y="832.4883"/><text fill="#000000" font-family="sans-serif" font-size="20" lengthAdjust="spacing" textLength="216" x="1798.5" y="856.8242">AdvertisementRequest</text><line style="stroke:#181818;stroke-width:0.5;" x1="1796.5" x2="2016.5" y1="866.043" y2="866.043"/><text fill="#000000" font-family="sans-serif" font-size="20" lengthAdjust="spacing" textLength="48" x="1801.5" y="889.3789">price</text><text fill="#000000" font-family="sans-serif" font-size="20" lengthAdjust="spacing" textLength="142" x="1801.5" y="912.9336">dateOfRequest</text></g><!--class TypeOfBusiness--><g id="elem_TypeOfBusiness"><rect codeLine="37" fill="#F1F1F1" height="65.1094" id="TypeOfBusiness" rx="2.5" ry="2.5" style="stroke:#181818;stroke-width:0.5;" width="159" x="1913" y="1006.4883"/><text fill="#000000" font-family="sans-serif" font-size="20" lengthAdjust="spacing" textLength="153" x="1916" y="1030.8242">TypeOfBusiness</text><line style="stroke:#181818;stroke-width:0.5;" x1="1914" x2="2071" y1="1040.043" y2="1040.043"/><text fill="#000000" font-family="sans-serif" font-size="20" lengthAdjust="spacing" textLength="112" x="1919" y="1063.3789">designation</text></g><!--class Advertisement--><g id="elem_Advertisement"><rect codeLine="41" fill="#F1F1F1" height="65.1094" id="Advertisement" rx="2.5" ry="2.5" style="stroke:#181818;stroke-width:0.5;" width="216" x="1563.5" y="1306.4883"/><text fill="#000000" font-family="sans-serif" font-size="20" lengthAdjust="spacing" textLength="139" x="1602" y="1330.8242">Advertisement</text><line style="stroke:#181818;stroke-width:0.5;" x1="1564.5" x2="1778.5" y1="1340.043" y2="1340.043"/><text fill="#000000" font-family="sans-serif" font-size="20" lengthAdjust="spacing" textLength="204" x="1569.5" y="1363.3789">dateOfAdvertisement</text></g><!--class Property--><g id="elem_Property"><rect codeLine="45" fill="#F1F1F1" height="88.6641" id="Property" rx="2.5" ry="2.5" style="stroke:#181818;stroke-width:0.5;" width="192" x="1797.5" y="205.9883"/><text fill="#000000" font-family="sans-serif" font-size="20" lengthAdjust="spacing" textLength="80" x="1853.5" y="230.3242">Property</text><line style="stroke:#181818;stroke-width:0.5;" x1="1798.5" x2="1988.5" y1="239.543" y2="239.543"/><text fill="#000000" font-family="sans-serif" font-size="20" lengthAdjust="spacing" textLength="41" x="1803.5" y="262.8789">area</text><text fill="#000000" font-family="sans-serif" font-size="20" lengthAdjust="spacing" textLength="180" x="1803.5" y="286.4336">distanceCityCentre</text></g><!--class Residence--><g id="elem_Residence"><rect codeLine="50" fill="#F1F1F1" height="112.2188" id="Residence" rx="2.5" ry="2.5" style="stroke:#181818;stroke-width:0.5;" width="248" x="2213.5" y="414.9883"/><text fill="#000000" font-family="sans-serif" font-size="20" lengthAdjust="spacing" textLength="97" x="2289" y="439.3242">Residence</text><line style="stroke:#181818;stroke-width:0.5;" x1="2214.5" x2="2460.5" y1="448.543" y2="448.543"/><text fill="#000000" font-family="sans-serif" font-size="20" lengthAdjust="spacing" textLength="195" x="2219.5" y="471.8789">numberOfBedrooms</text><text fill="#000000" font-family="sans-serif" font-size="20" lengthAdjust="spacing" textLength="201" x="2219.5" y="495.4336">numberOfBathrooms</text><text fill="#000000" font-family="sans-serif" font-size="20" lengthAdjust="spacing" textLength="236" x="2219.5" y="518.9883">numberOfParkingSpaces</text></g><!--class House--><g id="elem_House"><rect codeLine="56" fill="#F1F1F1" height="112.2188" id="House" rx="2.5" ry="2.5" style="stroke:#181818;stroke-width:0.5;" width="270" x="2208.5" y="635.4883"/><text fill="#000000" font-family="sans-serif" font-size="20" lengthAdjust="spacing" textLength="60" x="2313.5" y="659.8242">House</text><line style="stroke:#181818;stroke-width:0.5;" x1="2209.5" x2="2477.5" y1="669.043" y2="669.043"/><text fill="#000000" font-family="sans-serif" font-size="20" lengthAdjust="spacing" textLength="206" x="2214.5" y="692.3789">existenceOfBasement</text><text fill="#000000" font-family="sans-serif" font-size="20" lengthAdjust="spacing" textLength="258" x="2214.5" y="715.9336">existenceOfInhabitableLoft</text><text fill="#000000" font-family="sans-serif" font-size="20" lengthAdjust="spacing" textLength="123" x="2214.5" y="739.4883">sunExposure</text></g><!--class Address--><g id="elem_Address"><rect codeLine="62" fill="#F1F1F1" height="159.3281" id="Address" rx="2.5" ry="2.5" style="stroke:#181818;stroke-width:0.5;" width="88" x="793.5" y="391.4883"/><text fill="#000000" font-family="sans-serif" font-size="20" lengthAdjust="spacing" textLength="79" x="798" y="415.8242">Address</text><line style="stroke:#181818;stroke-width:0.5;" x1="794.5" x2="880.5" y1="425.043" y2="425.043"/><text fill="#000000" font-family="sans-serif" font-size="20" lengthAdjust="spacing" textLength="54" x="799.5" y="448.3789">street</text><text fill="#000000" font-family="sans-serif" font-size="20" lengthAdjust="spacing" textLength="46" x="799.5" y="471.9336">state</text><text fill="#000000" font-family="sans-serif" font-size="20" lengthAdjust="spacing" textLength="67" x="799.5" y="495.4883">district</text><text fill="#000000" font-family="sans-serif" font-size="20" lengthAdjust="spacing" textLength="33" x="799.5" y="519.043">city</text><text fill="#000000" font-family="sans-serif" font-size="20" lengthAdjust="spacing" textLength="76" x="799.5" y="542.5977">zipcode</text></g><!--class Photograph--><g id="elem_Photograph"><rect codeLine="70" fill="#F1F1F1" height="65.1094" id="Photograph" rx="2.5" ry="2.5" style="stroke:#181818;stroke-width:0.5;" width="116" x="2496.5" y="438.4883"/><text fill="#000000" font-family="sans-serif" font-size="20" lengthAdjust="spacing" textLength="110" x="2499.5" y="462.8242">Photograph</text><line style="stroke:#181818;stroke-width:0.5;" x1="2497.5" x2="2611.5" y1="472.043" y2="472.043"/><text fill="#000000" font-family="sans-serif" font-size="20" lengthAdjust="spacing" textLength="69" x="2502.5" y="495.3789">linkURI</text></g><!--class SocialSecurityCard--><g id="elem_SocialSecurityCard"><rect codeLine="74" fill="#F1F1F1" height="65.1094" id="SocialSecurityCard" rx="2.5" ry="2.5" style="stroke:#181818;stroke-width:0.5;" width="183" x="575" y="438.4883"/><text fill="#000000" font-family="sans-serif" font-size="20" lengthAdjust="spacing" textLength="177" x="578" y="462.8242">SocialSecurityCard</text><line style="stroke:#181818;stroke-width:0.5;" x1="576" x2="757" y1="472.043" y2="472.043"/><text fill="#000000" font-family="sans-serif" font-size="20" lengthAdjust="spacing" textLength="108" x="581" y="495.3789">taxNumber</text></g><!--class Passport--><g id="elem_Passport"><rect codeLine="78" fill="#F1F1F1" height="65.1094" id="Passport" rx="2.5" ry="2.5" style="stroke:#181818;stroke-width:0.5;" width="88" x="451.5" y="438.4883"/><text fill="#000000" font-family="sans-serif" font-size="20" lengthAdjust="spacing" textLength="82" x="454.5" y="462.8242">Passport</text><line style="stroke:#181818;stroke-width:0.5;" x1="452.5" x2="538.5" y1="472.043" y2="472.043"/><text fill="#000000" font-family="sans-serif" font-size="20" lengthAdjust="spacing" textLength="75" x="457.5" y="495.3789">number</text></g><!--class Equipment--><g id="elem_Equipment"><rect codeLine="82" fill="#F1F1F1" height="65.1094" id="Equipment" rx="2.5" ry="2.5" style="stroke:#181818;stroke-width:0.5;" width="124" x="2513.5" y="658.9883"/><text fill="#000000" font-family="sans-serif" font-size="20" lengthAdjust="spacing" textLength="104" x="2523.5" y="683.3242">Equipment</text><line style="stroke:#181818;stroke-width:0.5;" x1="2514.5" x2="2636.5" y1="692.543" y2="692.543"/><text fill="#000000" font-family="sans-serif" font-size="20" lengthAdjust="spacing" textLength="112" x="2519.5" y="715.8789">designation</text></g><!--class TypeOfCommission--><g id="elem_TypeOfCommission"><rect codeLine="86" fill="#F1F1F1" height="65.1094" id="TypeOfCommission" rx="2.5" ry="2.5" style="stroke:#181818;stroke-width:0.5;" width="196" x="1044.5" y="1306.4883"/><text fill="#000000" font-family="sans-serif" font-size="20" lengthAdjust="spacing" textLength="190" x="1047.5" y="1330.8242">TypeOfCommission</text><line style="stroke:#181818;stroke-width:0.5;" x1="1045.5" x2="1239.5" y1="1340.043" y2="1340.043"/><text fill="#000000" font-family="sans-serif" font-size="20" lengthAdjust="spacing" textLength="112" x="1050.5" y="1363.3789">designation</text></g><!--class TypeOfProperty--><g id="elem_TypeOfProperty"><rect codeLine="90" fill="#F1F1F1" height="65.1094" id="TypeOfProperty" rx="2.5" ry="2.5" style="stroke:#181818;stroke-width:0.5;" width="156" x="1946.5" y="438.4883"/><text fill="#000000" font-family="sans-serif" font-size="20" lengthAdjust="spacing" textLength="150" x="1949.5" y="462.8242">TypeOfProperty</text><line style="stroke:#181818;stroke-width:0.5;" x1="1947.5" x2="2101.5" y1="472.043" y2="472.043"/><text fill="#000000" font-family="sans-serif" font-size="20" lengthAdjust="spacing" textLength="112" x="1952.5" y="495.3789">designation</text></g><!--class Commission--><g id="elem_Commission"><rect codeLine="94" fill="#F1F1F1" height="65.1094" id="Commission" rx="2.5" ry="2.5" style="stroke:#181818;stroke-width:0.5;" width="126" x="1294.5" y="1156.4883"/><text fill="#000000" font-family="sans-serif" font-size="20" lengthAdjust="spacing" textLength="120" x="1297.5" y="1180.8242">Commission</text><line style="stroke:#181818;stroke-width:0.5;" x1="1295.5" x2="1419.5" y1="1190.043" y2="1190.043"/><text fill="#000000" font-family="sans-serif" font-size="20" lengthAdjust="spacing" textLength="50" x="1300.5" y="1213.3789">value</text></g><!--class PropertyVisit--><g id="elem_PropertyVisit"><rect codeLine="98" fill="#F1F1F1" height="65.1094" id="PropertyVisit" rx="2.5" ry="2.5" style="stroke:#181818;stroke-width:0.5;" width="128" x="1712.5" y="438.4883"/><text fill="#000000" font-family="sans-serif" font-size="20" lengthAdjust="spacing" textLength="122" x="1715.5" y="462.8242">PropertyVisit</text><line style="stroke:#181818;stroke-width:0.5;" x1="1713.5" x2="1839.5" y1="472.043" y2="472.043"/><text fill="#000000" font-family="sans-serif" font-size="20" lengthAdjust="spacing" textLength="107" x="1718.5" y="495.3789">dateOfVisit</text></g><!--class VisitRequest--><g id="elem_VisitRequest"><rect codeLine="102" fill="#F1F1F1" height="135.7734" id="VisitRequest" rx="2.5" ry="2.5" style="stroke:#181818;stroke-width:0.5;" width="166" x="1299.5" y="402.9883"/><text fill="#000000" font-family="sans-serif" font-size="20" lengthAdjust="spacing" textLength="119" x="1323" y="427.3242">VisitRequest</text><line style="stroke:#181818;stroke-width:0.5;" x1="1300.5" x2="1464.5" y1="436.543" y2="436.543"/><text fill="#000000" font-family="sans-serif" font-size="20" lengthAdjust="spacing" textLength="154" x="1305.5" y="459.8789">timeToStartVisit</text><text fill="#000000" font-family="sans-serif" font-size="20" lengthAdjust="spacing" textLength="146" x="1305.5" y="483.4336">timeToEndVisit</text><text fill="#000000" font-family="sans-serif" font-size="20" lengthAdjust="spacing" textLength="107" x="1305.5" y="506.9883">dateOfVisit</text><text fill="#000000" font-family="sans-serif" font-size="20" lengthAdjust="spacing" textLength="142" x="1305.5" y="530.543">dateOfRequest</text></g><!--link Property to Agent--><g id="link_Property_Agent"><path codeLine="109" d="M1797.46,254.2083 C1679.98,260.0783 1476.5,278.5383 1312.5,336.4883 C1267.22,352.4883 1253.18,357.2583 1219.5,391.4883 C1100.37,512.5683 1017.37,589.7983 1080.5,747.4883 C1132.69,877.8483 1274.33,982.9683 1332.28,1021.8183 " fill="none" id="Property-Agent" style="stroke:#181818;stroke-width:1.0;"/><polygon fill="#000000" points="1092.6462,684.9239,1081.1242,694.8636,1089.1672,699.7378,1092.6462,684.9239" style="stroke:#000000;stroke-width:1.0;"/><text fill="#000000" font-family="sans-serif" font-size="20" lengthAdjust="spacing" textLength="145" x="1101.5" y="699.3242">responsible for</text><text fill="#000000" font-family="sans-serif" font-size="20" lengthAdjust="spacing" textLength="10" x="1779.4084" y="274.7925">*</text><text fill="#000000" font-family="sans-serif" font-size="20" lengthAdjust="spacing" textLength="13" x="1309.9623" y="1009.8793">1</text></g><!--link Property to Client--><g id="link_Property_Client"><path codeLine="110" d="M1797.35,279.0883 C1738.94,300.6283 1667.4,336.3383 1623.5,391.4883 C1553.07,479.9783 1546.43,625.7183 1546.27,674.2183 " fill="none" id="Property-Client" style="stroke:#181818;stroke-width:1.0;"/><polygon fill="#000000" points="1635.7905,464.5135,1624.0601,474.2063,1631.9977,479.2501,1635.7905,464.5135" style="stroke:#000000;stroke-width:1.0;"/><text fill="#000000" font-family="sans-serif" font-size="20" lengthAdjust="spacing" textLength="49" x="1644.5" y="478.8242">visits</text><text fill="#000000" font-family="sans-serif" font-size="20" lengthAdjust="spacing" textLength="10" x="1779.6057" y="301.5285">*</text><text fill="#000000" font-family="sans-serif" font-size="20" lengthAdjust="spacing" textLength="13" x="1531.2931" y="662.2499">1</text></g><!--link Property to Address--><g id="link_Property_Address"><path codeLine="111" d="M1797.38,253.0783 C1595.21,257.6383 1132.8,274.6783 989.5,336.4883 C947.74,354.4983 909.33,388.4483 881.57,417.6083 " fill="none" id="Property-Address" style="stroke:#181818;stroke-width:1.0;"/><polygon fill="#000000" points="989.6261,350.6802,1004.7016,352.7494,1003.0387,343.493,989.6261,350.6802" style="stroke:#000000;stroke-width:1.0;"/><text fill="#000000" font-family="sans-serif" font-size="20" lengthAdjust="spacing" textLength="94" x="1010.5" y="356.8242">located at</text><text fill="#000000" font-family="sans-serif" font-size="20" lengthAdjust="spacing" textLength="13" x="1776.5232" y="248.7661">1</text><text fill="#000000" font-family="sans-serif" font-size="20" lengthAdjust="spacing" textLength="13" x="889.6296" y="403.622">1</text></g><!--link Property to Owner--><g id="link_Property_Owner"><path codeLine="112" d="M1797.31,259.2083 C1641.5,273.9283 1344.94,311.8983 1281.5,391.4883 C1165.56,536.9483 1254.99,649.2983 1360.5,802.4883 C1377.08,826.5683 1403.85,846.6783 1424.24,859.7383 " fill="none" id="Property-Owner" style="stroke:#181818;stroke-width:1.0;"/><polygon fill="#000000" points="1253.7216,586.4702,1242.0904,596.2819,1250.0789,601.2446,1253.7216,586.4702" style="stroke:#000000;stroke-width:1.0;"/><text fill="#000000" font-family="sans-serif" font-size="20" lengthAdjust="spacing" textLength="49" x="1262.5" y="600.8242">owns</text><text fill="#000000" font-family="sans-serif" font-size="20" lengthAdjust="spacing" textLength="35" x="1754.6715" y="255.3874">1..*</text><text fill="#000000" font-family="sans-serif" font-size="20" lengthAdjust="spacing" textLength="13" x="1401.0293" y="847.7758">1</text></g><!--link Property to Photograph--><g id="link_Property_Photograph"><path codeLine="113" d="M1989.66,257.7483 C2111.06,269.2483 2322.92,301.5583 2479.5,391.4883 C2499.77,403.1283 2518,421.9083 2531.41,438.1883 " fill="none" id="Property-Photograph" style="stroke:#181818;stroke-width:1.0;"/><polygon fill="#000000" points="2406.9099,346.7376,2419.1546,355.7722,2422.1264,346.8495,2406.9099,346.7376" style="stroke:#000000;stroke-width:1.0;"/><text fill="#000000" font-family="sans-serif" font-size="20" lengthAdjust="spacing" textLength="94" x="2427.5" y="356.8242">illustrates</text><text fill="#000000" font-family="sans-serif" font-size="20" lengthAdjust="spacing" textLength="13" x="1997.5199" y="253.7937">1</text><text fill="#000000" font-family="sans-serif" font-size="20" lengthAdjust="spacing" textLength="51" x="2471.4512" y="426.3975">1..30</text></g><!--link Property to Advertisement--><g id="link_Property_Advertisement"><path codeLine="114" d="M1989.56,262.1283 C2039.75,272.7783 2097.97,294.0283 2133.5,336.4883 C2172.09,382.5983 2155.5,409.8583 2155.5,469.9883 C2155.5,469.9883 2155.5,469.9883 2155.5,1189.9883 C2155.5,1268.0783 1922.16,1309.0783 1779.52,1326.8483 " fill="none" id="Property-Advertisement" style="stroke:#181818;stroke-width:1.0;"/><polygon fill="#000000" points="2165.0483,869.4169,2157.634,882.7053,2166.8607,884.5255,2165.0483,869.4169" style="stroke:#000000;stroke-width:1.0;"/><text fill="#000000" font-family="sans-serif" font-size="20" lengthAdjust="spacing" textLength="92" x="2176.5" y="884.8242">describes</text><text fill="#000000" font-family="sans-serif" font-size="20" lengthAdjust="spacing" textLength="13" x="1997.4122" y="283.27">1</text><text fill="#000000" font-family="sans-serif" font-size="20" lengthAdjust="spacing" textLength="13" x="1787.5722" y="1321.5377">1</text></g><!--link Property to TypeOfProperty--><g id="link_Property_TypeOfProperty"><path codeLine="115" d="M1914,295.0483 C1924.07,315.5483 1936.77,340.1383 1949.5,361.4883 C1965.45,388.2383 1985.62,417.1883 2001.03,438.4483 " fill="none" id="Property-TypeOfProperty" style="stroke:#181818;stroke-width:1.0;"/><polygon fill="#000000" points="1961.6506,356.1047,1958.1619,341.2931,1950.1222,346.1724,1961.6506,356.1047" style="stroke:#000000;stroke-width:1.0;"/><text fill="#000000" font-family="sans-serif" font-size="20" lengthAdjust="spacing" textLength="158" x="1970.5" y="356.8242">characterized by</text><text fill="#000000" font-family="sans-serif" font-size="20" lengthAdjust="spacing" textLength="10" x="1906.0828" y="321.9771">*</text><text fill="#000000" font-family="sans-serif" font-size="20" lengthAdjust="spacing" textLength="13" x="1982.1297" y="426.1577">1</text></g><!--link Property to AdvertisementRequest--><g id="link_Property_AdvertisementRequest"><path codeLine="116" d="M1894.41,295.3983 C1896.8,410.0683 1903.2,717.5183 1905.59,832.1183 " fill="none" id="Property-AdvertisementRequest" style="stroke:#181818;stroke-width:1.0;"/><polygon fill="#000000" points="1909.3334,585.2674,1904.9335,599.8343,1914.336,599.6384,1909.3334,585.2674" style="stroke:#000000;stroke-width:1.0;"/><text fill="#000000" font-family="sans-serif" font-size="20" lengthAdjust="spacing" textLength="92" x="1922.5" y="600.8242">describes</text><text fill="#000000" font-family="sans-serif" font-size="20" lengthAdjust="spacing" textLength="13" x="1880.6938" y="322.0188">1</text><text fill="#000000" font-family="sans-serif" font-size="20" lengthAdjust="spacing" textLength="13" x="1891.5017" y="820.2403">1</text></g><!--reverse link Property to Residence--><g id="link_Property_Residence"><path codeLine="117" d="M2009.07,273.8283 C2063.5,287.2383 2128.05,307.4683 2181.5,336.4883 C2219.41,357.0683 2256.33,388.0183 2284.73,414.9383 " fill="none" id="Property-backto-Residence" style="stroke:#181818;stroke-width:1.0;"/><polygon fill="none" points="2007.36,280.6183,1989.51,269.1883,2010.59,266.9883,2007.36,280.6183" style="stroke:#181818;stroke-width:1.0;"/></g><!--link VisitRequest to Client--><g id="link_VisitRequest_Client"><path codeLine="119" d="M1376.97,539.2383 C1378.12,561.8283 1382.91,586.1783 1395.5,605.4883 C1423.18,647.9583 1479.84,671.3483 1515.34,682.3683 " fill="none" id="VisitRequest-Client" style="stroke:#181818;stroke-width:1.0;"/><polygon fill="#000000" points="1397.9396,587.5139,1404.6177,601.1872,1411.3792,594.6505,1397.9396,587.5139" style="stroke:#000000;stroke-width:1.0;"/><text fill="#000000" font-family="sans-serif" font-size="20" lengthAdjust="spacing" textLength="82" x="1416.5" y="600.8242">requests</text><text fill="#000000" font-family="sans-serif" font-size="20" lengthAdjust="spacing" textLength="10" x="1365.9664" y="566.2126">*</text><text fill="#000000" font-family="sans-serif" font-size="20" lengthAdjust="spacing" textLength="13" x="1494.5726" y="674.5545">1</text></g><!--link VisitRequest to Agent--><g id="link_VisitRequest_Agent"><path codeLine="120" d="M1379.38,539.1283 C1378.75,552.8083 1378.1,567.1183 1377.5,580.4883 C1369.74,753.2283 1360.73,962.6883 1358.19,1021.7783 " fill="none" id="VisitRequest-Agent" style="stroke:#181818;stroke-width:1.0;"/><polygon fill="#000000" points="1377.8509,782.2733,1372.5184,796.5253,1381.9139,796.9378,1377.8509,782.2733" style="stroke:#000000;stroke-width:1.0;"/><text fill="#000000" font-family="sans-serif" font-size="20" lengthAdjust="spacing" textLength="85" x="1390.5" y="797.8242">validates</text><text fill="#000000" font-family="sans-serif" font-size="20" lengthAdjust="spacing" textLength="10" x="1379.5592" y="566.0921">*</text><text fill="#000000" font-family="sans-serif" font-size="20" lengthAdjust="spacing" textLength="13" x="1343.4833" y="1009.8275">1</text></g><!--link PropertyVisit to Agent--><g id="link_PropertyVisit_Agent"><path codeLine="122" d="M1785.54,503.5783 C1791.84,531.3483 1797.09,572.3883 1784.5,605.4883 C1705.36,813.5883 1466.6,972.4583 1385.11,1021.8883 " fill="none" id="PropertyVisit-Agent" style="stroke:#181818;stroke-width:1.0;"/><polygon fill="#000000" points="1688.391,783.9349,1675.822,792.5125,1683.2643,798.2622,1688.391,783.9349" style="stroke:#000000;stroke-width:1.0;"/><text fill="#000000" font-family="sans-serif" font-size="20" lengthAdjust="spacing" textLength="93" x="1696.5" y="797.8242">organizes</text><text fill="#000000" font-family="sans-serif" font-size="20" lengthAdjust="spacing" textLength="10" x="1776.2596" y="530.8074">*</text><text fill="#000000" font-family="sans-serif" font-size="20" lengthAdjust="spacing" textLength="13" x="1378.5749" y="1009.6186">1</text></g><!--link PropertyVisit to Client--><g id="link_PropertyVisit_Client"><path codeLine="123" d="M1744.11,503.7683 C1727.46,519.0683 1706.34,536.9883 1685.5,550.4883 C1659.14,567.5783 1645.42,560.1183 1621.5,580.4883 C1589.82,607.4583 1565.61,650.8883 1554.03,674.2883 " fill="none" id="PropertyVisit-Client" style="stroke:#181818;stroke-width:1.0;"/><polygon fill="#000000" points="1635.4549,587.9235,1621.5423,594.0873,1627.8224,601.0877,1635.4549,587.9235" style="stroke:#000000;stroke-width:1.0;"/><text fill="#000000" font-family="sans-serif" font-size="20" lengthAdjust="spacing" textLength="137" x="1642.5" y="600.8242">participates in</text><text fill="#000000" font-family="sans-serif" font-size="20" lengthAdjust="spacing" textLength="10" x="1727.4499" y="531.0313">*</text><text fill="#000000" font-family="sans-serif" font-size="20" lengthAdjust="spacing" textLength="13" x="1558.1513" y="662.3405">1</text></g><!--reverse link Residence to House--><g id="link_Residence_House"><path codeLine="125" d="M2339.57,547.4183 C2340.36,576.3183 2341.25,608.7183 2341.99,635.3683 " fill="none" id="Residence-backto-House" style="stroke:#181818;stroke-width:1.0;"/><polygon fill="none" points="2332.57,547.3083,2339.01,527.1283,2346.56,546.9283,2332.57,547.3083" style="stroke:#181818;stroke-width:1.0;"/></g><!--link Residence to Equipment--><g id="link_Residence_Equipment"><path codeLine="126" d="M2397.56,527.1283 C2442.86,568.7183 2503.42,624.3083 2540.92,658.7383 " fill="none" id="Residence-Equipment" style="stroke:#181818;stroke-width:1.0;"/><polygon fill="#000000" points="2491.3932,598.6758,2483.9123,585.4248,2477.5523,592.3526,2491.3932,598.6758" style="stroke:#000000;stroke-width:1.0;"/><text fill="#000000" font-family="sans-serif" font-size="20" lengthAdjust="spacing" textLength="80" x="2498.5" y="600.8242">contains</text><text fill="#000000" font-family="sans-serif" font-size="20" lengthAdjust="spacing" textLength="13" x="2391.0876" y="554.7283">1</text><text fill="#000000" font-family="sans-serif" font-size="20" lengthAdjust="spacing" textLength="10" x="2523.3751" y="646.6815">*</text></g><!--link Address to Store--><g id="link_Address_Store"><path codeLine="128" d="M793.43,535.5783 C787.85,541.1283 781.85,546.2383 775.5,550.4883 C652.68,632.7283 481.54,667.2283 377.14,681.2883 " fill="none" id="Address-Store" style="stroke:#181818;stroke-width:1.0;"/><polygon fill="#000000" points="732.0508,590.6227,716.8378,590.9655,719.9447,599.8421,732.0508,590.6227" style="stroke:#000000;stroke-width:1.0;"/><text fill="#000000" font-family="sans-serif" font-size="20" lengthAdjust="spacing" textLength="94" x="737.5" y="600.8242">located at</text><text fill="#000000" font-family="sans-serif" font-size="20" lengthAdjust="spacing" textLength="13" x="772.3704" y="540.3935">1</text><text fill="#000000" font-family="sans-serif" font-size="20" lengthAdjust="spacing" textLength="13" x="385.0402" y="675.9084">1</text></g><!--link Person to Passport--><g id="link_Person_Passport"><path codeLine="130" d="M570.75,299.9983 C556.76,310.5183 543.65,322.6983 533.5,336.4883 C511.29,366.6683 502.04,409.4383 498.2,438.3683 " fill="none" id="Person-Passport" style="stroke:#181818;stroke-width:1.0;"/><polygon fill="#000000" points="537.7851,356.3508,548.67,345.7172,540.3408,341.35,537.7851,356.3508" style="stroke:#000000;stroke-width:1.0;"/><text fill="#000000" font-family="sans-serif" font-size="20" lengthAdjust="spacing" textLength="97" x="554.5" y="356.8242">possesses</text><text fill="#000000" font-family="sans-serif" font-size="20" lengthAdjust="spacing" textLength="13" x="550.1512" y="299.2572">1</text><text fill="#000000" font-family="sans-serif" font-size="20" lengthAdjust="spacing" textLength="13" x="484.4756" y="426.3363">1</text></g><!--link Person to Address--><g id="link_Person_Address"><path codeLine="131" d="M753.75,306.5483 C764.66,315.6483 774.94,325.6783 783.5,336.4883 C796.3,352.6583 806.46,372.2783 814.35,391.4383 " fill="none" id="Person-Address" style="stroke:#181818;stroke-width:1.0;"/><polygon fill="#000000" points="812.1481,355.7768,807.5668,341.2659,799.9124,346.7301,812.1481,355.7768" style="stroke:#000000;stroke-width:1.0;"/><text fill="#000000" font-family="sans-serif" font-size="20" lengthAdjust="spacing" textLength="67" x="820.5" y="356.8242">lives at</text><text fill="#000000" font-family="sans-serif" font-size="20" lengthAdjust="spacing" textLength="10" x="754.1398" y="334.1386">*</text><text fill="#000000" font-family="sans-serif" font-size="20" lengthAdjust="spacing" textLength="13" x="798.6166" y="379.391">1</text></g><!--link Person to SocialSecurityCard--><g id="link_Person_SocialSecurityCard"><path codeLine="132" d="M661.26,306.8083 C660.95,316.6883 660.67,326.8883 660.5,336.4883 C659.88,371.3983 662.07,411.3983 663.97,438.4483 " fill="none" id="Person-SocialSecurityCard" style="stroke:#181818;stroke-width:1.0;"/><polygon fill="#000000" points="668.6647,357.2639,673.0681,342.6981,663.6655,342.8916,668.6647,357.2639" style="stroke:#000000;stroke-width:1.0;"/><text fill="#000000" font-family="sans-serif" font-size="20" lengthAdjust="spacing" textLength="97" x="681.5" y="356.8242">possesses</text><text fill="#000000" font-family="sans-serif" font-size="20" lengthAdjust="spacing" textLength="13" x="647.2494" y="334.0053">1</text><text fill="#000000" font-family="sans-serif" font-size="20" lengthAdjust="spacing" textLength="13" x="649.1922" y="426.1577">1</text></g><!--link Employee to Person--><g id="link_Employee_Person"><path codeLine="133" d="M334.1,250.4883 C406.23,250.4883 478.37,250.4883 550.51,250.4883 " fill="none" id="Employee-to-Person" style="stroke:#181818;stroke-width:1.0;"/><polygon fill="none" points="550.86,243.4883,570.86,250.4883,550.86,257.4883,550.86,243.4883" style="stroke:#181818;stroke-width:1.0;"/></g><!--reverse link Person to Client--><g id="link_Person_Client"><path codeLine="134" d="M776.34,255.5583 C976.77,265.1783 1383.17,296.1983 1482.5,391.4883 C1523.97,431.2683 1541.07,617.6183 1545.36,674.1683 " fill="none" id="Person-backto-Client" style="stroke:#181818;stroke-width:1.0;"/><polygon fill="none" points="775.81,262.5483,756.15,254.6283,776.45,248.5583,775.81,262.5483" style="stroke:#181818;stroke-width:1.0;"/></g><!--reverse link Client to Owner--><g id="link_Client_Owner"><path codeLine="135" d="M1528.93,726.7783 C1508.62,766.4283 1476.03,830.0483 1460.82,859.7383 " fill="none" id="Client-backto-Owner" style="stroke:#181818;stroke-width:1.0;"/><polygon fill="none" points="1522.81,723.3783,1538.16,708.7683,1535.27,729.7683,1522.81,723.3783" style="stroke:#181818;stroke-width:1.0;"/></g><!--link Role to Employee--><g id="link_Role_Employee"><path codeLine="137" d="M284.5,109.8483 C284.5,146.4583 284.5,205.1283 284.5,233.3283 " fill="none" id="Role-Employee" style="stroke:#181818;stroke-width:1.0;"/><polygon fill="#000000" points="292.5,160.2656,297.2023,145.7935,287.7977,145.7935,292.5,160.2656" style="stroke:#000000;stroke-width:1.0;"/><text fill="#000000" font-family="sans-serif" font-size="20" lengthAdjust="spacing" textLength="70" x="305.5" y="159.8242">defines</text><text fill="#000000" font-family="sans-serif" font-size="20" lengthAdjust="spacing" textLength="13" x="270.3828" y="136.8469">1</text><text fill="#000000" font-family="sans-serif" font-size="20" lengthAdjust="spacing" textLength="10" x="273.0313" y="221.3922">*</text></g><!--reverse link Role to SystemAdministrator--><g id="link_Role_SystemAdministrator"><path codeLine="138" d="M248.38,126.1283 C212.82,176.0483 159.84,257.6883 131.5,336.4883 C116.89,377.1083 112.43,428.3083 111.08,453.8883 " fill="none" id="Role-backto-SystemAdministrator" style="stroke:#181818;stroke-width:1.0;"/><polygon fill="none" points="242.77,121.9383,260.16,109.8483,254.11,130.1483,242.77,121.9383" style="stroke:#181818;stroke-width:1.0;"/></g><!--reverse link Role to Agent--><g id="link_Role_Agent"><path codeLine="139" d="M366.73,82.4283 C541.59,94.1283 934.5,133.3383 934.5,249.4883 C934.5,249.4883 934.5,249.4883 934.5,877.9883 C934.5,961.8083 1228.71,1017.0983 1326.4,1033.1483 " fill="none" id="Role-backto-Agent" style="stroke:#181818;stroke-width:1.0;"/><polygon fill="none" points="366.04,89.3983,346.53,81.1383,366.94,75.4283,366.04,89.3983" style="stroke:#181818;stroke-width:1.0;"/></g><!--link Client to Advertisement--><g id="link_Client_Advertisement"><path codeLine="141" d="M1567.7,708.6483 C1603.37,737.8383 1671.5,803.1383 1671.5,875.9883 C1671.5,875.9883 1671.5,875.9883 1671.5,1189.9883 C1671.5,1230.0683 1671.5,1276.2583 1671.5,1306.2283 " fill="none" id="Client-Advertisement" style="stroke:#181818;stroke-width:1.0;"/><polygon fill="#000000" points="1680.8691,1047.1476,1683.0253,1032.0842,1673.7595,1033.6937,1680.8691,1047.1476" style="stroke:#000000;stroke-width:1.0;"/><text fill="#000000" font-family="sans-serif" font-size="20" lengthAdjust="spacing" textLength="79" x="1692.5" y="1046.8242">consults</text><text fill="#000000" font-family="sans-serif" font-size="20" lengthAdjust="spacing" textLength="10" x="1561.8513" y="735.4565">*</text><text fill="#000000" font-family="sans-serif" font-size="20" lengthAdjust="spacing" textLength="10" x="1660.5469" y="1294.1696">*</text></g><!--link Owner to AdvertisementRequest--><g id="link_Owner_AdvertisementRequest"><path codeLine="143" d="M1486.62,876.9883 C1551.27,876.9883 1694.17,876.9883 1795.26,876.9883 " fill="none" id="Owner-AdvertisementRequest" style="stroke:#181818;stroke-width:1.0;"/><polygon fill="#000000" points="1605,861.7656,1590.5279,857.0633,1590.5279,866.4679,1605,861.7656" style="stroke:#000000;stroke-width:1.0;"/><text fill="#000000" font-family="sans-serif" font-size="20" lengthAdjust="spacing" textLength="82" x="1610" y="869.3242">requests</text><text fill="#000000" font-family="sans-serif" font-size="20" lengthAdjust="spacing" textLength="13" x="1494.6171" y="871.1586">1</text><text fill="#000000" font-family="sans-serif" font-size="20" lengthAdjust="spacing" textLength="10" x="1777.4501" y="872.5815">*</text></g><!--link AdvertisementRequest to Agent--><g id="link_AdvertisementRequest_Agent"><path codeLine="144" d="M1801.34,921.5183 C1746.4,943.8283 1684.84,968.0583 1656.5,976.4883 C1560.75,1004.9683 1443.89,1024.8483 1388.93,1033.3583 " fill="none" id="AdvertisementRequest-Agent" style="stroke:#181818;stroke-width:1.0;"/><polygon fill="#000000" points="1739.2211,962.1718,1724.0227,961.4212,1726.4842,970.498,1739.2211,962.1718" style="stroke:#000000;stroke-width:1.0;"/><text fill="#000000" font-family="sans-serif" font-size="20" lengthAdjust="spacing" textLength="85" x="1744.5" y="971.8242">validates</text><text fill="#000000" font-family="sans-serif" font-size="20" lengthAdjust="spacing" textLength="10" x="1777.2257" y="948.0901">*</text><text fill="#000000" font-family="sans-serif" font-size="20" lengthAdjust="spacing" textLength="13" x="1396.3975" y="1026.4202">1</text></g><!--link AdvertisementRequest to Advertisement--><g id="link_AdvertisementRequest_Advertisement"><path codeLine="145" d="M1884.18,921.6783 C1837.15,1013.7383 1728.82,1225.7883 1687.72,1306.2483 " fill="none" id="AdvertisementRequest-Advertisement" style="stroke:#181818;stroke-width:1.0;"/><polygon fill="#000000" points="1804.1394,1107.1414,1793.3681,1117.89,1801.7431,1122.1684,1804.1394,1107.1414" style="stroke:#000000;stroke-width:1.0;"/><text fill="#000000" font-family="sans-serif" font-size="20" lengthAdjust="spacing" textLength="121" x="1813.5" y="1121.8242">derives from</text><text fill="#000000" font-family="sans-serif" font-size="20" lengthAdjust="spacing" textLength="13" x="1867.3073" y="948.6246">1</text><text fill="#000000" font-family="sans-serif" font-size="20" lengthAdjust="spacing" textLength="13" x="1676.5729" y="1294.1934">1</text></g><!--link Employee to Store--><g id="link_Employee_Store"><path codeLine="147" d="M284.5,267.6283 C284.5,326.9583 284.5,534.6483 284.5,635.1583 " fill="none" id="Employee-Store" style="stroke:#181818;stroke-width:1.0;"/><polygon fill="#000000" points="292.5,479.2656,297.2023,464.7935,287.7977,464.7935,292.5,479.2656" style="stroke:#000000;stroke-width:1.0;"/><text fill="#000000" font-family="sans-serif" font-size="20" lengthAdjust="spacing" textLength="110" x="305.5" y="478.8242">assigned to</text><text fill="#000000" font-family="sans-serif" font-size="20" lengthAdjust="spacing" textLength="10" x="273.2188" y="294.4313">*</text><text fill="#000000" font-family="sans-serif" font-size="20" lengthAdjust="spacing" textLength="13" x="270.7078" y="623.2479">1</text></g><!--link Employee to SystemAdministrator--><g id="link_Employee_SystemAdministrator"><path codeLine="148" d="M246.35,267.5283 C217.06,281.6783 177.64,304.9483 153.5,336.4883 C125.97,372.4483 115.74,426.6283 112.21,453.5683 " fill="none" id="Employee-SystemAdministrator" style="stroke:#181818;stroke-width:1.0;"/><polygon fill="#000000" points="166.1788,342.7765,153.9005,351.7653,161.529,357.2656,166.1788,342.7765" style="stroke:#000000;stroke-width:1.0;"/><text fill="#000000" font-family="sans-serif" font-size="20" lengthAdjust="spacing" textLength="83" x="174.5" y="356.8242">registers</text><text fill="#000000" font-family="sans-serif" font-size="20" lengthAdjust="spacing" textLength="10" x="225.2928" y="294.3057">*</text><text fill="#000000" font-family="sans-serif" font-size="20" lengthAdjust="spacing" textLength="13" x="97.8628" y="441.9111">1</text></g><!--link SystemAdministrator to Store--><g id="link_SystemAdministrator_Store"><path codeLine="149" d="M112.21,488.4083 C115.74,515.3483 125.97,569.5283 153.5,605.4883 C164.05,619.2683 177.51,631.4683 191.77,642.0183 " fill="none" id="SystemAdministrator-Store" style="stroke:#181818;stroke-width:1.0;"/><polygon fill="#000000" points="165.1793,600.3694,162.6989,585.356,154.3479,589.6812,165.1793,600.3694" style="stroke:#000000;stroke-width:1.0;"/><text fill="#000000" font-family="sans-serif" font-size="20" lengthAdjust="spacing" textLength="83" x="174.5" y="600.8242">registers</text><text fill="#000000" font-family="sans-serif" font-size="20" lengthAdjust="spacing" textLength="13" x="98.0424" y="514.9153">1</text><text fill="#000000" font-family="sans-serif" font-size="20" lengthAdjust="spacing" textLength="10" x="173.9821" y="633.5091">*</text></g><!--link Agent to Advertisement--><g id="link_Agent_Advertisement"><path codeLine="151" d="M1376.51,1056.1283 C1390.46,1068.2183 1409.65,1085.3783 1425.5,1101.4883 C1475.2,1152.0083 1479.69,1172.0883 1530.5,1221.4883 C1562.03,1252.1383 1600.72,1283.7283 1629.59,1306.2683 " fill="none" id="Agent-Advertisement" style="stroke:#181818;stroke-width:1.0;"/><polygon fill="#000000" points="1544.1898,1194.8893,1537.2024,1181.3716,1530.5913,1188.0603,1544.1898,1194.8893" style="stroke:#000000;stroke-width:1.0;"/><text fill="#000000" font-family="sans-serif" font-size="20" lengthAdjust="spacing" textLength="93" x="1551.5" y="1196.8242">publishes</text><text fill="#000000" font-family="sans-serif" font-size="20" lengthAdjust="spacing" textLength="13" x="1366.7157" y="1082.9313">1</text><text fill="#000000" font-family="sans-serif" font-size="20" lengthAdjust="spacing" textLength="10" x="1610.6478" y="1294.2172">*</text></g><!--link Agent to Commission--><g id="link_Agent_Commission"><path codeLine="152" d="M1357.5,1056.1083 C1357.5,1080.0783 1357.5,1125.6083 1357.5,1156.3783 " fill="none" id="Agent-Commission" style="stroke:#181818;stroke-width:1.0;"/><polygon fill="#000000" points="1365.5,1122.2656,1370.2023,1107.7935,1360.7977,1107.7935,1365.5,1122.2656" style="stroke:#000000;stroke-width:1.0;"/><text fill="#000000" font-family="sans-serif" font-size="20" lengthAdjust="spacing" textLength="38" x="1378.5" y="1121.8242">sets</text><text fill="#000000" font-family="sans-serif" font-size="20" lengthAdjust="spacing" textLength="13" x="1342.8344" y="1082.9062">1</text><text fill="#000000" font-family="sans-serif" font-size="20" lengthAdjust="spacing" textLength="10" x="1346.5469" y="1144.3482">*</text></g><!--link Commission to TypeOfCommission--><g id="link_Commission_TypeOfCommission"><path codeLine="154" d="M1294.36,1199.2383 C1236.9,1209.0983 1158.25,1226.7183 1139.5,1251.4883 C1127.89,1266.8283 1128.64,1288.4483 1132.29,1306.2383 " fill="none" id="Commission-TypeOfCommission" style="stroke:#181818;stroke-width:1.0;"/><polygon fill="#000000" points="1140.8238,1268.6733,1155.492,1264.6239,1150.3104,1256.7755,1140.8238,1268.6733" style="stroke:#000000;stroke-width:1.0;"/><text fill="#000000" font-family="sans-serif" font-size="20" lengthAdjust="spacing" textLength="158" x="1160.5" y="1271.8242">characterized by</text><text fill="#000000" font-family="sans-serif" font-size="20" lengthAdjust="spacing" textLength="10" x="1276.4813" y="1195.4554">*</text><text fill="#000000" font-family="sans-serif" font-size="20" lengthAdjust="spacing" textLength="13" x="1116.1047" y="1294.1815">1</text></g><!--link Commission to Advertisement--><g id="link_Commission_Advertisement"><path codeLine="155" d="M1349.28,1221.7883 C1346.61,1239.8183 1347.02,1261.6583 1359.5,1276.4883 C1385.54,1307.4283 1483.95,1323.0983 1563.38,1330.8383 " fill="none" id="Commission-Advertisement" style="stroke:#181818;stroke-width:1.0;"/><polygon fill="#000000" points="1374.6286,1267.8965,1363.867,1257.1381,1359.5987,1265.5183,1374.6286,1267.8965" style="stroke:#000000;stroke-width:1.0;"/><text fill="#000000" font-family="sans-serif" font-size="20" lengthAdjust="spacing" textLength="96" x="1380.5" y="1271.8242">present in</text><text fill="#000000" font-family="sans-serif" font-size="20" lengthAdjust="spacing" textLength="13" x="1333.658" y="1249.0548">1</text><text fill="#000000" font-family="sans-serif" font-size="20" lengthAdjust="spacing" textLength="13" x="1542.679" y="1325.8689">1</text></g><!--link AdvertisementRequest to TypeOfBusiness--><g id="link_AdvertisementRequest_TypeOfBusiness"><path codeLine="157" d="M1930,921.7083 C1944.32,948.3583 1962.31,981.8183 1975.3,1005.9983 " fill="none" id="AdvertisementRequest-TypeOfBusiness" style="stroke:#181818;stroke-width:1.0;"/><polygon fill="#000000" points="1961.7128,957.2188,1964.4219,972.1926,1972.7059,967.7406,1961.7128,957.2188" style="stroke:#000000;stroke-width:1.0;"/><text fill="#000000" font-family="sans-serif" font-size="20" lengthAdjust="spacing" textLength="96" x="1978.5" y="971.8242">present in</text><text fill="#000000" font-family="sans-serif" font-size="20" lengthAdjust="spacing" textLength="10" x="1922.4859" y="948.6586">*</text><text fill="#000000" font-family="sans-serif" font-size="20" lengthAdjust="spacing" textLength="13" x="1957.9303" y="994.1724">1</text></g><!--SRC=[ZLRRRXCn47ttLrXvh4H5uIsga4ef0ebBrG3lpdgIZEgrZUqj3O5_P-prnjxD5gYYDhRFNCzSwkzHM-54gqnp3v9Bs8XEXRT6XnN-1FxYEMCxbC0RT8s2_ZkqDknv2-qQd6SiO530tvXMeEOVZGJ5MAE4ztmLZ0D-O18yRhK8Q3G3WgahAHrupm8ei3kZuLCNbR7VMV2cjShiWMH_7tNjVO3sIhQeqGSdI7NrUhK57QhpvnyQwlThXGGevrlotEW3qwA5VxcKHUwCciPIpCi7S04zj6Jb3hvtuCaRPXqsmAG8y7cJRulCbxsbwzUTHqrs_qTnj9vqZMuB-DOPI_TxmWa7WabAbD0DN6FONnFIGHKDMPD0ZmJMALBo1QGpflNbGeJT-EPMEAgOxSgA1dpHzivq7WuC7ibYL1f5itVLtNkz4siCOgtWWza4vZjzysYDxsh7CWy7HYG342XGo2aKIcPW3SN2Vg9jgCwgo7SccAqJTdTW2lNzrxltvN5b6XHg1KtdOYA4anHp48zJWc_fbpKk73DIdcw-TsW72kPuwicyDcsBtcEihB_01fwU0DLQ7eJgu9JXR-Wn3DMG3WMJZhdQA4viuOjP1U52Z-ilRhJiZxMAaq8Tp2tE5lnP_E6BYqLgjIKdagpH7ebClg5Ul9oW8xJlkYL_YEfz3RaO89dk9QS1HEOb5u6_gd3dvqTjgQUNtFpGiwhEpry-NvH2M79KgakJ0fuoNNNHaaQVRnokn-2ZyJ5pIzxiQ6es0HnDISdN-v7JinPoNkSDSNxvYsIENSbOJUDfHbt_45NC0pDBL3yeSmROg7fEeCPjXQPeQhScoC4wROo03Tgac8O-wIxp90MI1aAv759ojYYTH3caBKCxmrFkMAw3ahkqEqPb4ID8Oxk0XfObbupt43-HY1vrTbfZ-420li8ccaw7n9pE59mwhgVwzXdFIuRrV_eyf9gbxD3kg7AGnMCfREBq9_rfkoIHcKLNlIQoMBOnX7WshMNAhASrdZDxMeIze8g1yznMLKKzBP44PafhLkAYI4mxpIKYDiwqaTKX7yb6nJsHIzEHo0-60XcXUjXffc8SsxXmN7Hh1b1Oo4OAFkOgXbOW4xzjjrReTucl2Ybf8aLqcTjBxg5FVhcRZf8QFJDCAi6d1fQbeew5HWtuLvfx_qZB-3-EaO9BzWS0]--></g></svg>