<?xml version="1.0" encoding="UTF-8" standalone="no"?><svg xmlns="http://www.w3.org/2000/svg" xmlns:xlink="http://www.w3.org/1999/xlink" contentStyleType="text/css" height="1097px" preserveAspectRatio="none" style="width:1415px;height:1097px;background:#FFFFFF;" version="1.1" viewBox="0 0 1415 1097" width="1415px" zoomAndPan="magnify"><defs/><g><!--class VisitRequestUI--><g id="elem_VisitRequestUI"><rect codeLine="8" fill="#F1F1F1" height="50" id="VisitRequestUI" rx="2.5" ry="2.5" style="stroke:#181818;stroke-width:0.5;" width="173" x="365" y="77.5"/><ellipse cx="381" cy="94.5" fill="#ADD1B2" rx="12" ry="12" style="stroke:#181818;stroke-width:1.0;"/><path d="M383.8066,101.5801 Q383.123,101.9316 382.3711,102.1074 Q381.6191,102.2832 380.7891,102.2832 Q377.8398,102.2832 376.2871,100.3398 Q374.7344,98.3965 374.7344,94.7246 Q374.7344,91.043 376.2871,89.0996 Q377.8398,87.1563 380.7891,87.1563 Q381.6191,87.1563 382.3809,87.332 Q383.1426,87.5078 383.8066,87.8594 L383.8066,91.0625 Q383.0645,90.3789 382.3662,90.0615 Q381.668,89.7441 380.9258,89.7441 Q379.3438,89.7441 378.5381,90.999 Q377.7324,92.2539 377.7324,94.7246 Q377.7324,97.1855 378.5381,98.4404 Q379.3438,99.6953 380.9258,99.6953 Q381.668,99.6953 382.3662,99.3779 Q383.0645,99.0605 383.8066,98.377 Z " fill="#000000"/><text fill="#000000" font-family="sans-serif" font-size="20" lengthAdjust="spacing" textLength="139" x="396" y="102.0586">VisitRequestUI</text><line style="stroke:#181818;stroke-width:0.5;" x1="366" x2="537" y1="111.5" y2="111.5"/><line style="stroke:#181818;stroke-width:0.5;" x1="366" x2="537" y1="119.5" y2="119.5"/></g><!--class VisitRequestController--><g id="elem_VisitRequestController"><rect codeLine="10" fill="#F1F1F1" height="191.3281" id="VisitRequestController" rx="2.5" ry="2.5" style="stroke:#181818;stroke-width:0.5;" width="587" x="573" y="7"/><ellipse cx="754.5" cy="24" fill="#ADD1B2" rx="12" ry="12" style="stroke:#181818;stroke-width:1.0;"/><path d="M757.3066,31.0801 Q756.623,31.4316 755.8711,31.6074 Q755.1191,31.7832 754.2891,31.7832 Q751.3398,31.7832 749.7871,29.8398 Q748.2344,27.8965 748.2344,24.2246 Q748.2344,20.543 749.7871,18.5996 Q751.3398,16.6563 754.2891,16.6563 Q755.1191,16.6563 755.8809,16.832 Q756.6426,17.0078 757.3066,17.3594 L757.3066,20.5625 Q756.5645,19.8789 755.8662,19.5615 Q755.168,19.2441 754.4258,19.2441 Q752.8438,19.2441 752.0381,20.499 Q751.2324,21.7539 751.2324,24.2246 Q751.2324,26.6855 752.0381,27.9404 Q752.8438,29.1953 754.4258,29.1953 Q755.168,29.1953 755.8662,28.8779 Q756.5645,28.5605 757.3066,27.877 Z " fill="#000000"/><text fill="#000000" font-family="sans-serif" font-size="20" lengthAdjust="spacing" textLength="215" x="776.5" y="31.5586">VisitRequestController</text><line style="stroke:#181818;stroke-width:0.5;" x1="574" x2="1159" y1="41" y2="41"/><line style="stroke:#181818;stroke-width:0.5;" x1="574" x2="1159" y1="49" y2="49"/><text fill="#000000" font-family="sans-serif" font-size="20" lengthAdjust="spacing" textLength="463" x="579" y="72.3359">+VisitRequestController(visitRequestRepository)</text><text fill="#000000" font-family="sans-serif" font-size="20" lengthAdjust="spacing" textLength="575" x="579" y="95.8906">+addVisitRequest(advertisement, dateOfVisit, timeSlotStart,</text><text fill="#000000" font-family="sans-serif" font-size="20" lengthAdjust="spacing" textLength="433" x="585" y="119.4453">timeSlotEnd, message, name  phoneNumber)</text><text fill="#000000" font-family="sans-serif" font-size="20" lengthAdjust="spacing" textLength="558" x="579" y="143">+getListOfAdvertisement(typeOfBusiness, typeOfProperty,</text><text fill="#000000" font-family="sans-serif" font-size="20" lengthAdjust="spacing" textLength="352" x="579" y="166.5547">sortingCriteria, numberOfBedrooms)</text><text fill="#000000" font-family="sans-serif" font-size="20" lengthAdjust="spacing" textLength="238" x="579" y="190.1094">+getClientFromSession()</text></g><!--class ManageVisitRequestRepository--><g id="elem_ManageVisitRequestRepository"><rect codeLine="18" fill="#F1F1F1" height="120.6641" id="ManageVisitRequestRepository" rx="2.5" ry="2.5" style="stroke:#181818;stroke-width:0.5;" width="587" x="821" y="319"/><ellipse cx="962.5" cy="336" fill="#ADD1B2" rx="12" ry="12" style="stroke:#181818;stroke-width:1.0;"/><path d="M965.3066,343.0801 Q964.623,343.4316 963.8711,343.6074 Q963.1191,343.7832 962.2891,343.7832 Q959.3398,343.7832 957.7871,341.8398 Q956.2344,339.8965 956.2344,336.2246 Q956.2344,332.543 957.7871,330.5996 Q959.3398,328.6563 962.2891,328.6563 Q963.1191,328.6563 963.8809,328.832 Q964.6426,329.0078 965.3066,329.3594 L965.3066,332.5625 Q964.5645,331.8789 963.8662,331.5615 Q963.168,331.2441 962.4258,331.2441 Q960.8438,331.2441 960.0381,332.499 Q959.2324,333.7539 959.2324,336.2246 Q959.2324,338.6855 960.0381,339.9404 Q960.8438,341.1953 962.4258,341.1953 Q963.168,341.1953 963.8662,340.8779 Q964.5645,340.5605 965.3066,339.877 Z " fill="#000000"/><text fill="#000000" font-family="sans-serif" font-size="20" lengthAdjust="spacing" textLength="295" x="984.5" y="343.5586">ManageVisitRequestRepository</text><line style="stroke:#181818;stroke-width:0.5;" x1="822" x2="1407" y1="353" y2="353"/><line style="stroke:#181818;stroke-width:0.5;" x1="822" x2="1407" y1="361" y2="361"/><text fill="#000000" font-family="sans-serif" font-size="20" lengthAdjust="spacing" textLength="575" x="827" y="384.3359">+addVisitRequest(advertisement, dateOfVisit, timeSlotStart,</text><text fill="#000000" font-family="sans-serif" font-size="20" lengthAdjust="spacing" textLength="433" x="833" y="407.8906">timeSlotEnd, message, name  phoneNumber)</text><text fill="#000000" font-family="sans-serif" font-size="20" lengthAdjust="spacing" textLength="238" x="827" y="431.4453">+getClientFromSession()</text></g><!--class ManageAdvertisementRepository--><g id="elem_ManageAdvertisementRepository"><rect codeLine="24" fill="#F1F1F1" height="97.1094" id="ManageAdvertisementRepository" rx="2.5" ry="2.5" style="stroke:#181818;stroke-width:0.5;" width="576" x="201.5" y="331"/><ellipse cx="327.5" cy="348" fill="#ADD1B2" rx="12" ry="12" style="stroke:#181818;stroke-width:1.0;"/><path d="M330.3066,355.0801 Q329.623,355.4316 328.8711,355.6074 Q328.1191,355.7832 327.2891,355.7832 Q324.3398,355.7832 322.7871,353.8398 Q321.2344,351.8965 321.2344,348.2246 Q321.2344,344.543 322.7871,342.5996 Q324.3398,340.6563 327.2891,340.6563 Q328.1191,340.6563 328.8809,340.832 Q329.6426,341.0078 330.3066,341.3594 L330.3066,344.5625 Q329.5645,343.8789 328.8662,343.5615 Q328.168,343.2441 327.4258,343.2441 Q325.8438,343.2441 325.0381,344.499 Q324.2324,345.7539 324.2324,348.2246 Q324.2324,350.6855 325.0381,351.9404 Q325.8438,353.1953 327.4258,353.1953 Q328.168,353.1953 328.8662,352.8779 Q329.5645,352.5605 330.3066,351.877 Z " fill="#000000"/><text fill="#000000" font-family="sans-serif" font-size="20" lengthAdjust="spacing" textLength="315" x="349.5" y="355.5586">ManageAdvertisementRepository</text><line style="stroke:#181818;stroke-width:0.5;" x1="202.5" x2="776.5" y1="365" y2="365"/><line style="stroke:#181818;stroke-width:0.5;" x1="202.5" x2="776.5" y1="373" y2="373"/><text fill="#000000" font-family="sans-serif" font-size="20" lengthAdjust="spacing" textLength="558" x="207.5" y="396.3359">+getListOfAdvertisement(typeOfBusiness, typeOfProperty,</text><text fill="#000000" font-family="sans-serif" font-size="20" lengthAdjust="spacing" textLength="352" x="207.5" y="419.8906">sortingCriteria, numberOfBedrooms)</text></g><!--class Repositories--><g id="elem_Repositories"><rect codeLine="29" fill="#F1F1F1" height="167.7734" id="Repositories" rx="2.5" ry="2.5" style="stroke:#181818;stroke-width:0.5;" width="313" x="317" y="523.5"/><ellipse cx="409.5" cy="540.5" fill="#ADD1B2" rx="12" ry="12" style="stroke:#181818;stroke-width:1.0;"/><path d="M412.3066,547.5801 Q411.623,547.9316 410.8711,548.1074 Q410.1191,548.2832 409.2891,548.2832 Q406.3398,548.2832 404.7871,546.3398 Q403.2344,544.3965 403.2344,540.7246 Q403.2344,537.043 404.7871,535.0996 Q406.3398,533.1563 409.2891,533.1563 Q410.1191,533.1563 410.8809,533.332 Q411.6426,533.5078 412.3066,533.8594 L412.3066,537.0625 Q411.5645,536.3789 410.8662,536.0615 Q410.168,535.7441 409.4258,535.7441 Q407.8438,535.7441 407.0381,536.999 Q406.2324,538.2539 406.2324,540.7246 Q406.2324,543.1855 407.0381,544.4404 Q407.8438,545.6953 409.4258,545.6953 Q410.168,545.6953 410.8662,545.3779 Q411.5645,545.0605 412.3066,544.377 Z " fill="#000000"/><text fill="#000000" font-family="sans-serif" font-size="20" lengthAdjust="spacing" textLength="119" x="431.5" y="548.0586">Repositories</text><line style="stroke:#181818;stroke-width:0.5;" x1="318" x2="629" y1="557.5" y2="557.5"/><line style="stroke:#181818;stroke-width:0.5;" x1="318" x2="629" y1="565.5" y2="565.5"/><text fill="#000000" font-family="sans-serif" font-size="20" lengthAdjust="spacing" textLength="145" x="323" y="588.8359">-Repositories()</text><text fill="#000000" font-family="sans-serif" font-size="20" lengthAdjust="spacing" textLength="276" x="323" y="612.3906">+getInstance() : Repositories</text><text fill="#000000" font-family="sans-serif" font-size="20" lengthAdjust="spacing" textLength="281" x="323" y="635.9453">+getVisitRequestRepository()</text><text fill="#000000" font-family="sans-serif" font-size="20" lengthAdjust="spacing" textLength="301" x="323" y="659.5">+getAuthenticationRepository()</text><text fill="#000000" font-family="sans-serif" font-size="20" lengthAdjust="spacing" textLength="301" x="323" y="683.0547">+getAdvertisementRepository()</text></g><!--class AdvertisementRepository--><g id="elem_AdvertisementRepository"><rect codeLine="38" fill="#F1F1F1" height="73.5547" id="AdvertisementRepository" rx="2.5" ry="2.5" style="stroke:#181818;stroke-width:0.5;" width="275" x="7" y="570.5"/><ellipse cx="23" cy="587.5" fill="#ADD1B2" rx="12" ry="12" style="stroke:#181818;stroke-width:1.0;"/><path d="M25.8066,594.5801 Q25.123,594.9316 24.3711,595.1074 Q23.6191,595.2832 22.7891,595.2832 Q19.8398,595.2832 18.2871,593.3398 Q16.7344,591.3965 16.7344,587.7246 Q16.7344,584.043 18.2871,582.0996 Q19.8398,580.1563 22.7891,580.1563 Q23.6191,580.1563 24.3809,580.332 Q25.1426,580.5078 25.8066,580.8594 L25.8066,584.0625 Q25.0645,583.3789 24.3662,583.0615 Q23.668,582.7441 22.9258,582.7441 Q21.3438,582.7441 20.5381,583.999 Q19.7324,585.2539 19.7324,587.7246 Q19.7324,590.1855 20.5381,591.4404 Q21.3438,592.6953 22.9258,592.6953 Q23.668,592.6953 24.3662,592.3779 Q25.0645,592.0605 25.8066,591.377 Z " fill="#000000"/><text fill="#000000" font-family="sans-serif" font-size="20" lengthAdjust="spacing" textLength="241" x="38" y="595.0586">AdvertisementRepository</text><line style="stroke:#181818;stroke-width:0.5;" x1="8" x2="281" y1="604.5" y2="604.5"/><line style="stroke:#181818;stroke-width:0.5;" x1="8" x2="281" y1="612.5" y2="612.5"/><text fill="#000000" font-family="sans-serif" font-size="20" lengthAdjust="spacing" textLength="75" x="13" y="635.8359">+copy()</text></g><!--class VisitRequestRepository--><g id="elem_VisitRequestRepository"><rect codeLine="43" fill="#F1F1F1" height="97.1094" id="VisitRequestRepository" rx="2.5" ry="2.5" style="stroke:#181818;stroke-width:0.5;" width="270" x="665.5" y="559"/><ellipse cx="688.25" cy="576" fill="#ADD1B2" rx="12" ry="12" style="stroke:#181818;stroke-width:1.0;"/><path d="M691.0566,583.0801 Q690.373,583.4316 689.6211,583.6074 Q688.8691,583.7832 688.0391,583.7832 Q685.0898,583.7832 683.5371,581.8398 Q681.9844,579.8965 681.9844,576.2246 Q681.9844,572.543 683.5371,570.5996 Q685.0898,568.6563 688.0391,568.6563 Q688.8691,568.6563 689.6309,568.832 Q690.3926,569.0078 691.0566,569.3594 L691.0566,572.5625 Q690.3145,571.8789 689.6162,571.5615 Q688.918,571.2441 688.1758,571.2441 Q686.5938,571.2441 685.7881,572.499 Q684.9824,573.7539 684.9824,576.2246 Q684.9824,578.6855 685.7881,579.9404 Q686.5938,581.1953 688.1758,581.1953 Q688.918,581.1953 689.6162,580.8779 Q690.3145,580.5605 691.0566,579.877 Z " fill="#000000"/><text fill="#000000" font-family="sans-serif" font-size="20" lengthAdjust="spacing" textLength="221" x="704.75" y="583.5586">VisitRequestRepository</text><line style="stroke:#181818;stroke-width:0.5;" x1="666.5" x2="934.5" y1="593" y2="593"/><line style="stroke:#181818;stroke-width:0.5;" x1="666.5" x2="934.5" y1="601" y2="601"/><text fill="#000000" font-family="sans-serif" font-size="20" lengthAdjust="spacing" textLength="258" x="671.5" y="624.3359">+addVisitRequest(request)</text><text fill="#000000" font-family="sans-serif" font-size="20" lengthAdjust="spacing" textLength="75" x="671.5" y="647.8906">+copy()</text></g><!--class VisitRequest--><g id="elem_VisitRequest"><rect codeLine="55" fill="#F1F1F1" height="214.8828" id="VisitRequest" rx="2.5" ry="2.5" style="stroke:#181818;stroke-width:0.5;" width="305" x="971" y="500"/><ellipse cx="1059.5" cy="517" fill="#ADD1B2" rx="12" ry="12" style="stroke:#181818;stroke-width:1.0;"/><path d="M1062.3066,524.0801 Q1061.623,524.4316 1060.8711,524.6074 Q1060.1191,524.7832 1059.2891,524.7832 Q1056.3398,524.7832 1054.7871,522.8398 Q1053.2344,520.8965 1053.2344,517.2246 Q1053.2344,513.543 1054.7871,511.5996 Q1056.3398,509.6563 1059.2891,509.6563 Q1060.1191,509.6563 1060.8809,509.832 Q1061.6426,510.0078 1062.3066,510.3594 L1062.3066,513.5625 Q1061.5645,512.8789 1060.8662,512.5615 Q1060.168,512.2441 1059.4258,512.2441 Q1057.8438,512.2441 1057.0381,513.499 Q1056.2324,514.7539 1056.2324,517.2246 Q1056.2324,519.6855 1057.0381,520.9404 Q1057.8438,522.1953 1059.4258,522.1953 Q1060.168,522.1953 1060.8662,521.8779 Q1061.5645,521.5605 1062.3066,520.877 Z " fill="#000000"/><text fill="#000000" font-family="sans-serif" font-size="20" lengthAdjust="spacing" textLength="119" x="1081.5" y="524.5586">VisitRequest</text><line style="stroke:#181818;stroke-width:0.5;" x1="972" x2="1275" y1="534" y2="534"/><text fill="#000000" font-family="sans-serif" font-size="20" lengthAdjust="spacing" textLength="293" x="977" y="557.3359">-Advertisement advertisement</text><text fill="#000000" font-family="sans-serif" font-size="20" lengthAdjust="spacing" textLength="219" x="977" y="580.8906">-LocalDate dateOfVisit</text><text fill="#000000" font-family="sans-serif" font-size="20" lengthAdjust="spacing" textLength="240" x="977" y="604.4453">-LocalTime timeSlotStart</text><text fill="#000000" font-family="sans-serif" font-size="20" lengthAdjust="spacing" textLength="232" x="977" y="628">-LocalTime timeSlotEnd</text><text fill="#000000" font-family="sans-serif" font-size="20" lengthAdjust="spacing" textLength="212" x="977" y="651.5547">-String phoneNumber</text><text fill="#000000" font-family="sans-serif" font-size="20" lengthAdjust="spacing" textLength="158" x="977" y="675.1094">-String message</text><text fill="#000000" font-family="sans-serif" font-size="20" lengthAdjust="spacing" textLength="127" x="977" y="698.6641">-String name</text><line style="stroke:#181818;stroke-width:0.5;" x1="972" x2="1275" y1="706.8828" y2="706.8828"/></g><!--class AuthenticationRepository--><g id="elem_AuthenticationRepository"><rect codeLine="66" fill="#F1F1F1" height="97.1094" id="AuthenticationRepository" rx="2.5" ry="2.5" style="stroke:#181818;stroke-width:0.5;" width="345" x="729" y="836"/><ellipse cx="776.5" cy="853" fill="#ADD1B2" rx="12" ry="12" style="stroke:#181818;stroke-width:1.0;"/><path d="M779.3066,860.0801 Q778.623,860.4316 777.8711,860.6074 Q777.1191,860.7832 776.2891,860.7832 Q773.3398,860.7832 771.7871,858.8398 Q770.2344,856.8965 770.2344,853.2246 Q770.2344,849.543 771.7871,847.5996 Q773.3398,845.6563 776.2891,845.6563 Q777.1191,845.6563 777.8809,845.832 Q778.6426,846.0078 779.3066,846.3594 L779.3066,849.5625 Q778.5645,848.8789 777.8662,848.5615 Q777.168,848.2441 776.4258,848.2441 Q774.8438,848.2441 774.0381,849.499 Q773.2324,850.7539 773.2324,853.2246 Q773.2324,855.6855 774.0381,856.9404 Q774.8438,858.1953 776.4258,858.1953 Q777.168,858.1953 777.8662,857.8779 Q778.5645,857.5605 779.3066,856.877 Z " fill="#000000"/><text fill="#000000" font-family="sans-serif" font-size="20" lengthAdjust="spacing" textLength="241" x="798.5" y="860.5586">AuthenticationRepository</text><line style="stroke:#181818;stroke-width:0.5;" x1="730" x2="1073" y1="870" y2="870"/><text fill="#000000" font-family="sans-serif" font-size="20" lengthAdjust="spacing" textLength="333" x="735" y="893.3359">-AuthFacade authenticationFacade</text><line style="stroke:#181818;stroke-width:0.5;" x1="730" x2="1073" y1="901.5547" y2="901.5547"/><text fill="#000000" font-family="sans-serif" font-size="20" lengthAdjust="spacing" textLength="247" x="735" y="924.8906">+getCurrentUserSession()</text></g><!--class AuthFacade--><g id="elem_AuthFacade"><rect codeLine="72" fill="#F1F1F1" height="97.1094" id="AuthFacade" rx="2.5" ry="2.5" style="stroke:#181818;stroke-width:0.5;" width="259" x="1109" y="836"/><ellipse cx="1178" cy="853" fill="#ADD1B2" rx="12" ry="12" style="stroke:#181818;stroke-width:1.0;"/><path d="M1180.8066,860.0801 Q1180.123,860.4316 1179.3711,860.6074 Q1178.6191,860.7832 1177.7891,860.7832 Q1174.8398,860.7832 1173.2871,858.8398 Q1171.7344,856.8965 1171.7344,853.2246 Q1171.7344,849.543 1173.2871,847.5996 Q1174.8398,845.6563 1177.7891,845.6563 Q1178.6191,845.6563 1179.3809,845.832 Q1180.1426,846.0078 1180.8066,846.3594 L1180.8066,849.5625 Q1180.0645,848.8789 1179.3662,848.5615 Q1178.668,848.2441 1177.9258,848.2441 Q1176.3438,848.2441 1175.5381,849.499 Q1174.7324,850.7539 1174.7324,853.2246 Q1174.7324,855.6855 1175.5381,856.9404 Q1176.3438,858.1953 1177.9258,858.1953 Q1178.668,858.1953 1179.3662,857.8779 Q1180.0645,857.5605 1180.8066,856.877 Z " fill="#000000"/><text fill="#000000" font-family="sans-serif" font-size="20" lengthAdjust="spacing" textLength="112" x="1200" y="860.5586">AuthFacade</text><line style="stroke:#181818;stroke-width:0.5;" x1="1110" x2="1367" y1="870" y2="870"/><text fill="#000000" font-family="sans-serif" font-size="20" lengthAdjust="spacing" textLength="246" x="1115" y="893.3359">-UserSession userSession</text><line style="stroke:#181818;stroke-width:0.5;" x1="1110" x2="1367" y1="901.5547" y2="901.5547"/><text fill="#000000" font-family="sans-serif" font-size="20" lengthAdjust="spacing" textLength="247" x="1115" y="924.8906">+getCurrentUserSession()</text></g><!--class UserSession--><g id="elem_UserSession"><rect codeLine="79" fill="#F1F1F1" height="97.1094" id="UserSession" rx="2.5" ry="2.5" style="stroke:#181818;stroke-width:0.5;" width="237" x="1120" y="993"/><ellipse cx="1176.5" cy="1010" fill="#ADD1B2" rx="12" ry="12" style="stroke:#181818;stroke-width:1.0;"/><path d="M1179.3066,1017.0801 Q1178.623,1017.4316 1177.8711,1017.6074 Q1177.1191,1017.7832 1176.2891,1017.7832 Q1173.3398,1017.7832 1171.7871,1015.8398 Q1170.2344,1013.8965 1170.2344,1010.2246 Q1170.2344,1006.543 1171.7871,1004.5996 Q1173.3398,1002.6563 1176.2891,1002.6563 Q1177.1191,1002.6563 1177.8809,1002.832 Q1178.6426,1003.0078 1179.3066,1003.3594 L1179.3066,1006.5625 Q1178.5645,1005.8789 1177.8662,1005.5615 Q1177.168,1005.2441 1176.4258,1005.2441 Q1174.8438,1005.2441 1174.0381,1006.499 Q1173.2324,1007.7539 1173.2324,1010.2246 Q1173.2324,1012.6855 1174.0381,1013.9404 Q1174.8438,1015.1953 1176.4258,1015.1953 Q1177.168,1015.1953 1177.8662,1014.8779 Q1178.5645,1014.5605 1179.3066,1013.877 Z " fill="#000000"/><text fill="#000000" font-family="sans-serif" font-size="20" lengthAdjust="spacing" textLength="115" x="1198.5" y="1017.5586">UserSession</text><line style="stroke:#181818;stroke-width:0.5;" x1="1121" x2="1356" y1="1027" y2="1027"/><text fill="#000000" font-family="sans-serif" font-size="20" lengthAdjust="spacing" textLength="225" x="1126" y="1050.3359">+getUserPhoneNumber</text><line style="stroke:#181818;stroke-width:0.5;" x1="1121" x2="1356" y1="1058.5547" y2="1058.5547"/><text fill="#000000" font-family="sans-serif" font-size="20" lengthAdjust="spacing" textLength="159" x="1126" y="1081.8906">+getUserName()</text></g><!--link VisitRequestUI to VisitRequestController--><g id="link_VisitRequestUI_VisitRequestController"><path codeLine="87" d="M538.32,102.5 C548.91,102.5 558.9,102.5 567.22,102.5 " fill="none" id="VisitRequestUI-to-VisitRequestController" style="stroke:#181818;stroke-width:1.0;stroke-dasharray:7.0,7.0;"/><polygon fill="#181818" points="572.7,102.5,563.7,98.5,567.7,102.5,563.7,106.5,572.7,102.5" style="stroke:#181818;stroke-width:1.0;"/></g><!--link VisitRequestController to ManageVisitRequestRepository--><g id="link_VisitRequestController_ManageVisitRequestRepository"><path codeLine="89" d="M951.85,198.14 C986.73,236.81 1026.14,280.52 1057.43,315.22 " fill="none" id="VisitRequestController-to-ManageVisitRequestRepository" style="stroke:#181818;stroke-width:1.0;stroke-dasharray:7.0,7.0;"/><polygon fill="#181818" points="1060.82,318.97,1057.7725,309.6045,1057.4752,315.2535,1051.8261,314.9562,1060.82,318.97" style="stroke:#181818;stroke-width:1.0;"/></g><!--link VisitRequestController to ManageAdvertisementRepository--><g id="link_VisitRequestController_ManageAdvertisementRepository"><path codeLine="90" d="M736.76,198.14 C677.09,241.66 608.7,291.55 558.99,327.81 " fill="none" id="VisitRequestController-to-ManageAdvertisementRepository" style="stroke:#181818;stroke-width:1.0;stroke-dasharray:7.0,7.0;"/><polygon fill="#181818" points="554.85,330.83,564.4757,328.7452,558.8856,327.8781,559.7527,322.2881,554.85,330.83" style="stroke:#181818;stroke-width:1.0;"/></g><!--link ManageVisitRequestRepository to Repositories--><g id="link_ManageVisitRequestRepository_Repositories"><path codeLine="93" d="M881.68,440.07 C764.71,470.01 647.5,500 647.5,500 C647.5,500 633.72,508.44 613.91,520.56 " fill="none" id="ManageVisitRequestRepository-to-Repositories" style="stroke:#181818;stroke-width:1.0;stroke-dasharray:7.0,7.0;"/><polygon fill="#181818" points="609.31,523.37,619.0757,522.0927,613.5771,520.7639,614.9059,515.2653,609.31,523.37" style="stroke:#181818;stroke-width:1.0;"/></g><!--link ManageAdvertisementRepository to Repositories--><g id="link_ManageAdvertisementRepository_Repositories"><path codeLine="94" d="M486.13,428.15 C484.28,454.23 481.93,487.38 479.77,518 " fill="none" id="ManageAdvertisementRepository-to-Repositories" style="stroke:#181818;stroke-width:1.0;stroke-dasharray:7.0,7.0;"/><polygon fill="#181818" points="479.39,523.29,484.0228,514.5988,479.7473,518.3028,476.0433,514.0272,479.39,523.29" style="stroke:#181818;stroke-width:1.0;"/></g><!--link ManageVisitRequestRepository to AuthenticationRepository--><g id="link_ManageVisitRequestRepository_AuthenticationRepository"><path codeLine="95" d="M1203.74,440.07 C1248.58,470.01 1293.5,500 1293.5,500 C1293.5,500 1293.5,715 1293.5,715 C1293.5,715 1132.67,784.13 1017.04,833.83 " fill="none" id="ManageVisitRequestRepository-to-AuthenticationRepository" style="stroke:#181818;stroke-width:1.0;stroke-dasharray:7.0,7.0;"/><polygon fill="#181818" points="1012.26,835.89,1022.1081,836.0102,1016.8535,833.9152,1018.9485,828.6606,1012.26,835.89" style="stroke:#181818;stroke-width:1.0;"/></g><!--link ManageVisitRequestRepository to VisitRequest--><g id="link_ManageVisitRequestRepository_VisitRequest"><path codeLine="96" d="M1116.88,440.17 C1117.54,456.91 1118.29,475.67 1119.04,494.4 " fill="none" id="ManageVisitRequestRepository-to-VisitRequest" style="stroke:#181818;stroke-width:1.0;"/><polygon fill="#181818" points="1119.25,499.68,1122.8871,490.5273,1119.0502,494.684,1114.8935,490.8471,1119.25,499.68" style="stroke:#181818;stroke-width:1.0;"/></g><!--reverse link AdvertisementRepository to Repositories--><g id="link_AdvertisementRepository_Repositories"><path codeLine="99" d="M287.18,607.5 C296.49,607.5 306.8,607.5 316.75,607.5 " fill="none" id="AdvertisementRepository-backto-Repositories" style="stroke:#181818;stroke-width:1.0;"/><polygon fill="#181818" points="282.12,607.5,291.12,611.5,287.12,607.5,291.12,603.5,282.12,607.5" style="stroke:#181818;stroke-width:1.0;"/><text fill="#000000" font-family="sans-serif" font-size="20" lengthAdjust="spacing" textLength="13" x="290.0016" y="603.2344">1</text></g><!--link Repositories to VisitRequestRepository--><g id="link_Repositories_VisitRequestRepository"><path codeLine="100" d="M630.31,607.5 C640.44,607.5 650.89,607.5 660.22,607.5 " fill="none" id="Repositories-to-VisitRequestRepository" style="stroke:#181818;stroke-width:1.0;"/><polygon fill="#181818" points="665.28,607.5,656.28,603.5,660.28,607.5,656.28,611.5,665.28,607.5" style="stroke:#181818;stroke-width:1.0;"/><text fill="#000000" font-family="sans-serif" font-size="20" lengthAdjust="spacing" textLength="13" x="644.5297" y="603.2192">1</text></g><!--link Repositories to AuthenticationRepository--><g id="link_Repositories_AuthenticationRepository"><path codeLine="101" d="M602.78,691.57 C674.52,737.66 761.4,793.48 822.93,833.02 " fill="none" id="Repositories-to-AuthenticationRepository" style="stroke:#181818;stroke-width:1.0;"/><polygon fill="#181818" points="827.31,835.83,821.9024,827.5985,823.1041,833.1262,817.5764,834.3279,827.31,835.83" style="stroke:#181818;stroke-width:1.0;"/></g><!--link VisitRequestRepository to VisitRequest--><g id="link_VisitRequestRepository_VisitRequest"><path codeLine="104" d="M935.61,607.5 C944.82,607.5 955.4,607.5 965.79,607.5 " fill="none" id="VisitRequestRepository-to-VisitRequest" style="stroke:#181818;stroke-width:1.0;"/><polygon fill="#181818" points="970.87,607.5,961.87,603.5,965.87,607.5,961.87,611.5,970.87,607.5" style="stroke:#181818;stroke-width:1.0;"/></g><!--link AuthenticationRepository to AuthFacade--><g id="link_AuthenticationRepository_AuthFacade"><path codeLine="107" d="M1074.27,884.5 C1084.77,884.5 1095.06,884.5 1103.68,884.5 " fill="none" id="AuthenticationRepository-to-AuthFacade" style="stroke:#181818;stroke-width:1.0;"/><polygon fill="#181818" points="1108.81,884.5,1099.81,880.5,1103.81,884.5,1099.81,888.5,1108.81,884.5" style="stroke:#181818;stroke-width:1.0;"/></g><!--link AuthFacade to UserSession--><g id="link_AuthFacade_UserSession"><path codeLine="108" d="M1238.5,933.27 C1238.5,950.44 1238.5,969.91 1238.5,987.49 " fill="none" id="AuthFacade-to-UserSession" style="stroke:#181818;stroke-width:1.0;"/><polygon fill="#181818" points="1238.5,992.89,1242.5,983.89,1238.5,987.89,1234.5,983.89,1238.5,992.89" style="stroke:#181818;stroke-width:1.0;"/></g><!--SRC=[lLHDSzem4BthL-paWfaO9ksnXynGMcQOIKCcJdBAHR4Nq21BhYIdGvd-zwx1s1AnIIuj5wpTjrzFJsitGXNSy5pgT8CPPBZafNGphLmYVYDylcBs2862fnk-miHj9OB1r76rakW1x9fd-fTGArXoQNsF50eVjWL2eUMsEZ3cULF9hPquPyHBwN2UQhKlViNOtWDFmWftZpzBjEvn3hi_NOufzMoqb6ZOZW7zBdlSqQjdliT2qqcRxR0EubdcnqKyUqNZXCKSbOiXumuNopqY1YToJAHsYUF6nS-gCNnNMGmvMajynQ1uZW35MYkyBVCND7Mj5ReROTrYEV5hH8w8MYo_bfPuifQgxCztHXS4siRmhAmcj5fDZN1e1ASA-xGKX9dHEhV7OQZ2L0fAEZCwJoYRq2eQieR07rnHXq-TX3Gq_bz6Fj1lGDVRXlybhKqdJLc1jYuy2eoHTmTpPUcnf1WDuKiOsK2wxo1gUPcKRarZY9Gx8gKRqisBJ-0xrAMw2E3dbN4g37Fu7vxc6jIrYqBMxTTNomOxDZXGG0JHR25PHr-bYj8OwhYLnA2pn-OcWZaXK6oDkD4fbzz8kxw0VTy3AJVKSw-Nn5tx4bfYjFyyPOUE-WM4nkerU5VKSz4qswZopNZACmGUm0v6TjbIzMZHTBoWDaELpmD1sNwp3oJopCsceA3AV4lpUBAiJ7SU8PI2iPETFhxkM-QismxZCSMStL_l1_Qz1iRE9QOCsNNuZC-cwyNtfgywx9N1kTZHAEIH9l7hmaXUmyMdYzur488Fs1vsVMXLjhVVy0QzET_ssfS3wlorSDjFAkpfy2y0]--></g></svg>