<?xml version="1.0" encoding="UTF-8" standalone="no"?><svg xmlns="http://www.w3.org/2000/svg" xmlns:xlink="http://www.w3.org/1999/xlink" contentStyleType="text/css" height="568px" preserveAspectRatio="none" style="width:1081px;height:568px;background:#FFFFFF;" version="1.1" viewBox="0 0 1081 568" width="1081px" zoomAndPan="magnify"><defs/><g><rect fill="#FFFFFF" height="377.5469" style="stroke:#181818;stroke-width:1.0;" width="10" x="179" y="106.6641"/><rect fill="#FFFFFF" height="262.8828" style="stroke:#181818;stroke-width:1.0;" width="10" x="473" y="176.7734"/><rect fill="#FFFFFF" height="37.5547" style="stroke:#181818;stroke-width:1.0;" width="10" x="672.5" y="214.3281"/><rect fill="#FFFFFF" height="37.5547" style="stroke:#181818;stroke-width:1.0;" width="10" x="821.5" y="289.4375"/><rect fill="#FFFFFF" height="37.5547" style="stroke:#181818;stroke-width:1.0;" width="10" x="980.5" y="364.5469"/><rect fill="none" height="325.9922" style="stroke:#000000;stroke-width:1.5;" width="1065" x="10" y="121.6641"/><line style="stroke:#181818;stroke-width:0.5;stroke-dasharray:5.0,5.0;" x1="184" x2="184" y1="67.1094" y2="502.2109"/><line style="stroke:#181818;stroke-width:0.5;stroke-dasharray:5.0,5.0;" x1="478" x2="478" y1="67.1094" y2="502.2109"/><line style="stroke:#181818;stroke-width:0.5;stroke-dasharray:5.0,5.0;" x1="677" x2="677" y1="67.1094" y2="502.2109"/><line style="stroke:#181818;stroke-width:0.5;stroke-dasharray:5.0,5.0;" x1="826" x2="826" y1="67.1094" y2="502.2109"/><line style="stroke:#181818;stroke-width:0.5;stroke-dasharray:5.0,5.0;" x1="985" x2="985" y1="67.1094" y2="502.2109"/><rect fill="#E3E3E3" height="37.5547" rx="2.5" ry="2.5" style="stroke:#181818;stroke-width:0.5;" width="328" x="20" y="28.5547"/><text fill="#000000" font-family="sans-serif" font-size="20" lengthAdjust="spacing" textLength="314" x="27" y="54.8906">:RegisterNewEmployeeController</text><rect fill="#E3E3E3" height="37.5547" rx="2.5" ry="2.5" style="stroke:#181818;stroke-width:0.5;" width="328" x="20" y="501.2109"/><text fill="#000000" font-family="sans-serif" font-size="20" lengthAdjust="spacing" textLength="314" x="27" y="527.5469">:RegisterNewEmployeeController</text><rect fill="#E3E3E3" height="61.1094" rx="2.5" ry="2.5" style="stroke:#181818;stroke-width:0.5;" width="240" x="358" y="5"/><text fill="#000000" font-family="sans-serif" font-size="20" lengthAdjust="spacing" textLength="226" x="365" y="31.3359">manageRoleRepository:</text><text fill="#000000" font-family="sans-serif" font-size="20" lengthAdjust="spacing" textLength="218" x="369" y="54.8906">ManageRoleRepository</text><rect fill="#E3E3E3" height="61.1094" rx="2.5" ry="2.5" style="stroke:#181818;stroke-width:0.5;" width="240" x="358" y="501.2109"/><text fill="#000000" font-family="sans-serif" font-size="20" lengthAdjust="spacing" textLength="226" x="365" y="527.5469">manageRoleRepository:</text><text fill="#000000" font-family="sans-serif" font-size="20" lengthAdjust="spacing" textLength="218" x="369" y="551.1016">ManageRoleRepository</text><rect fill="#E3E3E3" height="37.5547" rx="2.5" ry="2.5" style="stroke:#181818;stroke-width:0.5;" width="139" x="608" y="28.5547"/><text fill="#000000" font-family="sans-serif" font-size="20" lengthAdjust="spacing" textLength="125" x="615" y="54.8906">:Repositories</text><rect fill="#E3E3E3" height="37.5547" rx="2.5" ry="2.5" style="stroke:#181818;stroke-width:0.5;" width="139" x="608" y="501.2109"/><text fill="#000000" font-family="sans-serif" font-size="20" lengthAdjust="spacing" textLength="125" x="615" y="527.5469">:Repositories</text><rect fill="#E3E3E3" height="61.1094" rx="2.5" ry="2.5" style="stroke:#181818;stroke-width:0.5;" width="139" x="757" y="5"/><text fill="#000000" font-family="sans-serif" font-size="20" lengthAdjust="spacing" textLength="114" x="769.5" y="31.3359">repositories</text><text fill="#000000" font-family="sans-serif" font-size="20" lengthAdjust="spacing" textLength="125" x="764" y="54.8906">:Repositories</text><rect fill="#E3E3E3" height="61.1094" rx="2.5" ry="2.5" style="stroke:#181818;stroke-width:0.5;" width="139" x="757" y="501.2109"/><text fill="#000000" font-family="sans-serif" font-size="20" lengthAdjust="spacing" textLength="114" x="769.5" y="527.5469">repositories</text><text fill="#000000" font-family="sans-serif" font-size="20" lengthAdjust="spacing" textLength="125" x="764" y="551.1016">:Repositories</text><rect fill="#E3E3E3" height="61.1094" rx="2.5" ry="2.5" style="stroke:#181818;stroke-width:0.5;" width="159" x="906" y="5"/><text fill="#000000" font-family="sans-serif" font-size="20" lengthAdjust="spacing" textLength="145" x="913" y="31.3359">roleRepository:</text><text fill="#000000" font-family="sans-serif" font-size="20" lengthAdjust="spacing" textLength="144" x="913.5" y="54.8906">RoleRepository</text><rect fill="#E3E3E3" height="61.1094" rx="2.5" ry="2.5" style="stroke:#181818;stroke-width:0.5;" width="159" x="906" y="501.2109"/><text fill="#000000" font-family="sans-serif" font-size="20" lengthAdjust="spacing" textLength="145" x="913" y="527.5469">roleRepository:</text><text fill="#000000" font-family="sans-serif" font-size="20" lengthAdjust="spacing" textLength="144" x="913.5" y="551.1016">RoleRepository</text><rect fill="#FFFFFF" height="377.5469" style="stroke:#181818;stroke-width:1.0;" width="10" x="179" y="106.6641"/><rect fill="#FFFFFF" height="262.8828" style="stroke:#181818;stroke-width:1.0;" width="10" x="473" y="176.7734"/><rect fill="#FFFFFF" height="37.5547" style="stroke:#181818;stroke-width:1.0;" width="10" x="672.5" y="214.3281"/><rect fill="#FFFFFF" height="37.5547" style="stroke:#181818;stroke-width:1.0;" width="10" x="821.5" y="289.4375"/><rect fill="#FFFFFF" height="37.5547" style="stroke:#181818;stroke-width:1.0;" width="10" x="980.5" y="364.5469"/><polygon fill="#181818" points="167,102.6641,177,106.6641,167,110.6641,171,106.6641" style="stroke:#181818;stroke-width:1.0;"/><line style="stroke:#181818;stroke-width:1.0;" x1="0" x2="173" y1="106.6641" y2="106.6641"/><text fill="#000000" font-family="sans-serif" font-size="20" font-weight="bold" lengthAdjust="spacing" textLength="13" x="7" y="100.4453">5</text><text fill="#000000" font-family="sans-serif" font-size="20" lengthAdjust="spacing" textLength="96" x="24" y="100.4453">getRoles()</text><path d="M10,121.6641 L188,121.6641 L188,137.2188 L178,147.2188 L10,147.2188 L10,121.6641 " fill="#EEEEEE" style="stroke:#000000;stroke-width:1.5;"/><rect fill="none" height="325.9922" style="stroke:#000000;stroke-width:1.5;" width="1065" x="10" y="121.6641"/><text fill="#000000" font-family="sans-serif" font-size="20" font-weight="bold" lengthAdjust="spacing" textLength="133" x="25" y="142">Get Role List</text><polygon fill="#181818" points="461,172.7734,471,176.7734,461,180.7734,465,176.7734" style="stroke:#181818;stroke-width:1.0;"/><line style="stroke:#181818;stroke-width:1.0;" x1="189" x2="467" y1="176.7734" y2="176.7734"/><text fill="#000000" font-family="sans-serif" font-size="20" font-weight="bold" lengthAdjust="spacing" textLength="31" x="196" y="170.5547">5.1</text><text fill="#000000" font-family="sans-serif" font-size="20" lengthAdjust="spacing" textLength="96" x="231" y="170.5547">getRoles()</text><polygon fill="#181818" points="660.5,210.3281,670.5,214.3281,660.5,218.3281,664.5,214.3281" style="stroke:#181818;stroke-width:1.0;"/><line style="stroke:#181818;stroke-width:1.0;" x1="483" x2="666.5" y1="214.3281" y2="214.3281"/><text fill="#000000" font-family="sans-serif" font-size="20" font-weight="bold" lengthAdjust="spacing" textLength="31" x="490" y="208.1094">5.2</text><text fill="#000000" font-family="sans-serif" font-size="20" lengthAdjust="spacing" textLength="123" x="525" y="208.1094">getInstance()</text><polygon fill="#181818" points="494,247.8828,484,251.8828,494,255.8828,490,251.8828" style="stroke:#181818;stroke-width:1.0;"/><line style="stroke:#181818;stroke-width:1.0;stroke-dasharray:2.0,2.0;" x1="488" x2="676.5" y1="251.8828" y2="251.8828"/><text fill="#000000" font-family="sans-serif" font-size="20" font-weight="bold" lengthAdjust="spacing" textLength="31" x="500" y="245.6641">5.3</text><text fill="#000000" font-family="sans-serif" font-size="20" lengthAdjust="spacing" textLength="114" x="535" y="245.6641">repositories</text><polygon fill="#181818" points="809.5,285.4375,819.5,289.4375,809.5,293.4375,813.5,289.4375" style="stroke:#181818;stroke-width:1.0;"/><line style="stroke:#181818;stroke-width:1.0;" x1="483" x2="815.5" y1="289.4375" y2="289.4375"/><text fill="#000000" font-family="sans-serif" font-size="20" font-weight="bold" lengthAdjust="spacing" textLength="31" x="490" y="283.2188">5.4</text><text fill="#000000" font-family="sans-serif" font-size="20" lengthAdjust="spacing" textLength="188" x="525" y="283.2188">getRoleRepository()</text><polygon fill="#181818" points="494,322.9922,484,326.9922,494,330.9922,490,326.9922" style="stroke:#181818;stroke-width:1.0;"/><line style="stroke:#181818;stroke-width:1.0;stroke-dasharray:2.0,2.0;" x1="488" x2="825.5" y1="326.9922" y2="326.9922"/><text fill="#000000" font-family="sans-serif" font-size="20" font-weight="bold" lengthAdjust="spacing" textLength="31" x="500" y="320.7734">5.5</text><text fill="#000000" font-family="sans-serif" font-size="20" lengthAdjust="spacing" textLength="139" x="535" y="320.7734">roleRepository</text><polygon fill="#181818" points="968.5,360.5469,978.5,364.5469,968.5,368.5469,972.5,364.5469" style="stroke:#181818;stroke-width:1.0;"/><line style="stroke:#181818;stroke-width:1.0;" x1="483" x2="974.5" y1="364.5469" y2="364.5469"/><text fill="#000000" font-family="sans-serif" font-size="20" font-weight="bold" lengthAdjust="spacing" textLength="31" x="490" y="358.3281">5.6</text><text fill="#000000" font-family="sans-serif" font-size="20" lengthAdjust="spacing" textLength="96" x="525" y="358.3281">getRoles()</text><polygon fill="#181818" points="494,398.1016,484,402.1016,494,406.1016,490,402.1016" style="stroke:#181818;stroke-width:1.0;"/><line style="stroke:#181818;stroke-width:1.0;stroke-dasharray:2.0,2.0;" x1="488" x2="984.5" y1="402.1016" y2="402.1016"/><text fill="#000000" font-family="sans-serif" font-size="20" font-weight="bold" lengthAdjust="spacing" textLength="31" x="500" y="395.8828">5.7</text><text fill="#000000" font-family="sans-serif" font-size="20" lengthAdjust="spacing" textLength="71" x="535" y="395.8828">roleList</text><polygon fill="#181818" points="200,435.6563,190,439.6563,200,443.6563,196,439.6563" style="stroke:#181818;stroke-width:1.0;"/><line style="stroke:#181818;stroke-width:1.0;stroke-dasharray:2.0,2.0;" x1="194" x2="477" y1="439.6563" y2="439.6563"/><text fill="#000000" font-family="sans-serif" font-size="20" font-weight="bold" lengthAdjust="spacing" textLength="31" x="206" y="433.4375">5.8</text><text fill="#000000" font-family="sans-serif" font-size="20" lengthAdjust="spacing" textLength="85" x="241" y="433.4375">roleList()</text><polygon fill="#181818" points="11,480.2109,1,484.2109,11,488.2109,7,484.2109" style="stroke:#181818;stroke-width:1.0;"/><line style="stroke:#181818;stroke-width:1.0;stroke-dasharray:2.0,2.0;" x1="5" x2="183" y1="484.2109" y2="484.2109"/><text fill="#000000" font-family="sans-serif" font-size="20" font-weight="bold" lengthAdjust="spacing" textLength="13" x="17" y="477.9922">6</text><text fill="#000000" font-family="sans-serif" font-size="20" lengthAdjust="spacing" textLength="71" x="34" y="477.9922">roleList</text><!--SRC=[ZP8zJyCm48Pt_ueJ4mn1W0H3XLWG82JAqAvTJ79DhJfsT7QeogydJUtOQTo0nxltNZ_tORP2rPnu9NM-nG8ANFD6sbUjx5By8DpTCECbK6cbymtf2i5IWr6cvlcMbxYqUub0c5kkIXaBp8ONUYTK2Mik3JBMXgt8HSsLXOlP0ajXBD8dxbwgMkezudEBG5fAf0lW1hnYd1vQLLor80ijSO6rDi9gsizMQfu8TxvpVWYES9n6e76_Xy1GIr5cfSQLTBxob351vqACySPgrLHVI73F6BYNFKtC1MPGeZqucCkhK1CxNT-oFi5pAxwvnQb9Usr9kgdX3Mq721-jlizD0BMunt4FqM3uUX2t6fztfLtFOQP7gtTbsfFBCRX5xKGB292HGnPp3VRbr0LEkmKo6f4DbvhWevGZdUSR-2K8QPhGyIGt4BhqP-V7vOf69Dtc4rCwgVVV_tMltZ8WHQOdvu2gOEEJVkZpZrdsly-IMpvNzmi0]--></g></svg>