<?xml version="1.0" encoding="UTF-8" standalone="no"?><svg xmlns="http://www.w3.org/2000/svg" xmlns:xlink="http://www.w3.org/1999/xlink" contentStyleType="text/css" height="1573px" preserveAspectRatio="none" style="width:2270px;height:1573px;background:#FFFFFF;" version="1.1" viewBox="0 0 2270 1573" width="2270px" zoomAndPan="magnify"><defs/><g><rect fill="#FFFFFF" height="1378.1875" style="stroke:#181818;stroke-width:1.0;" width="10" x="106.5" y="98.5547"/><rect fill="#FFFFFF" height="223.3281" style="stroke:#181818;stroke-width:1.0;" width="10" x="663.5" y="128.1094"/><rect fill="#FFFFFF" height="174.7734" style="stroke:#181818;stroke-width:1.0;" width="10" x="663.5" y="388.9922"/><rect fill="#FFFFFF" height="37.5547" style="stroke:#181818;stroke-width:1.0;" width="10" x="663.5" y="601.3203"/><rect fill="#FFFFFF" height="88.1094" style="stroke:#181818;stroke-width:1.0;" width="10" x="663.5" y="723.5391"/><rect fill="#FFFFFF" height="618.5391" style="stroke:#181818;stroke-width:1.0;" width="10" x="663.5" y="849.2031"/><rect fill="#FFFFFF" height="99.6641" style="stroke:#181818;stroke-width:1.0;" width="10" x="1227.5" y="214.2188"/><rect fill="#FFFFFF" height="99.6641" style="stroke:#181818;stroke-width:1.0;" width="10" x="1227.5" y="426.5469"/><rect fill="#FFFFFF" height="496.3203" style="stroke:#181818;stroke-width:1.0;" width="10" x="1227.5" y="933.8672"/><rect fill="#FFFFFF" height="99.6641" style="stroke:#181818;stroke-width:1.0;" width="10" x="1581.5" y="971.4219"/><rect fill="#FFFFFF" height="99.6641" style="stroke:#181818;stroke-width:1.0;" width="10" x="1835" y="1108.6406"/><rect fill="#FFFFFF" height="99.6641" style="stroke:#181818;stroke-width:1.0;" width="10" x="2110.5" y="1292.9688"/><line style="stroke:#181818;stroke-width:0.5;stroke-dasharray:5.0,5.0;" x1="111" x2="111" y1="88.5547" y2="1485.7422"/><line style="stroke:#181818;stroke-width:0.5;stroke-dasharray:5.0,5.0;" x1="668.5" x2="668.5" y1="88.5547" y2="1485.7422"/><line style="stroke:#181818;stroke-width:0.5;stroke-dasharray:5.0,5.0;" x1="1232.5" x2="1232.5" y1="170.3867" y2="1485.7422"/><line style="stroke:#181818;stroke-width:0.5;stroke-dasharray:5.0,5.0;" x1="1586" x2="1586" y1="88.5547" y2="1485.7422"/><line style="stroke:#181818;stroke-width:0.5;stroke-dasharray:5.0,5.0;" x1="1840" x2="1840" y1="88.5547" y2="1485.7422"/><line style="stroke:#181818;stroke-width:0.5;stroke-dasharray:5.0,5.0;" x1="2115" x2="2115" y1="88.5547" y2="1485.7422"/><text fill="#000000" font-family="sans-serif" font-size="20" lengthAdjust="spacing" textLength="207" x="5" y="84.3359">System Administrator</text><ellipse cx="111.5" cy="13.5" fill="#E3E3E3" rx="8" ry="8" style="stroke:#181818;stroke-width:0.5;"/><path d="M111.5,21.5 L111.5,48.5 M98.5,29.5 L124.5,29.5 M111.5,48.5 L98.5,63.5 M111.5,48.5 L124.5,63.5 " fill="none" style="stroke:#181818;stroke-width:0.5;"/><text fill="#000000" font-family="sans-serif" font-size="20" lengthAdjust="spacing" textLength="207" x="5" y="1504.0781">System Administrator</text><ellipse cx="111.5" cy="1516.7969" fill="#E3E3E3" rx="8" ry="8" style="stroke:#181818;stroke-width:0.5;"/><path d="M111.5,1524.7969 L111.5,1551.7969 M98.5,1532.7969 L124.5,1532.7969 M111.5,1551.7969 L98.5,1566.7969 M111.5,1551.7969 L124.5,1566.7969 " fill="none" style="stroke:#181818;stroke-width:0.5;"/><rect fill="#E3E3E3" height="37.5547" rx="2.5" ry="2.5" style="stroke:#181818;stroke-width:0.5;" width="252" x="542.5" y="50"/><text fill="#000000" font-family="sans-serif" font-size="20" lengthAdjust="spacing" textLength="238" x="549.5" y="76.3359">:RegisterNewEmployeeUI</text><rect fill="#E3E3E3" height="37.5547" rx="2.5" ry="2.5" style="stroke:#181818;stroke-width:0.5;" width="252" x="542.5" y="1484.7422"/><text fill="#000000" font-family="sans-serif" font-size="20" lengthAdjust="spacing" textLength="238" x="549.5" y="1511.0781">:RegisterNewEmployeeUI</text><rect fill="#E3E3E3" height="37.5547" rx="2.5" ry="2.5" style="stroke:#181818;stroke-width:0.5;" width="328" x="1068.5" y="1484.7422"/><text fill="#000000" font-family="sans-serif" font-size="20" lengthAdjust="spacing" textLength="314" x="1075.5" y="1511.0781">:RegisterNewEmployeeController</text><rect fill="#E3E3E3" height="61.1094" rx="2.5" ry="2.5" style="stroke:#181818;stroke-width:0.5;" width="247" x="1463" y="26.4453"/><text fill="#000000" font-family="sans-serif" font-size="20" lengthAdjust="spacing" textLength="233" x="1470" y="52.7813">manageStoreRepository:</text><text fill="#000000" font-family="sans-serif" font-size="20" lengthAdjust="spacing" textLength="225" x="1474" y="76.3359">ManageStoreRepository</text><rect fill="#E3E3E3" height="61.1094" rx="2.5" ry="2.5" style="stroke:#181818;stroke-width:0.5;" width="247" x="1463" y="1484.7422"/><text fill="#000000" font-family="sans-serif" font-size="20" lengthAdjust="spacing" textLength="233" x="1470" y="1511.0781">manageStoreRepository:</text><text fill="#000000" font-family="sans-serif" font-size="20" lengthAdjust="spacing" textLength="225" x="1474" y="1534.6328">ManageStoreRepository</text><rect fill="#E3E3E3" height="61.1094" rx="2.5" ry="2.5" style="stroke:#181818;stroke-width:0.5;" width="240" x="1720" y="26.4453"/><text fill="#000000" font-family="sans-serif" font-size="20" lengthAdjust="spacing" textLength="226" x="1727" y="52.7813">manageRoleRepository:</text><text fill="#000000" font-family="sans-serif" font-size="20" lengthAdjust="spacing" textLength="218" x="1731" y="76.3359">ManageRoleRepository</text><rect fill="#E3E3E3" height="61.1094" rx="2.5" ry="2.5" style="stroke:#181818;stroke-width:0.5;" width="240" x="1720" y="1484.7422"/><text fill="#000000" font-family="sans-serif" font-size="20" lengthAdjust="spacing" textLength="226" x="1727" y="1511.0781">manageRoleRepository:</text><text fill="#000000" font-family="sans-serif" font-size="20" lengthAdjust="spacing" textLength="218" x="1731" y="1534.6328">ManageRoleRepository</text><rect fill="#E3E3E3" height="61.1094" rx="2.5" ry="2.5" style="stroke:#181818;stroke-width:0.5;" width="291" x="1970" y="26.4453"/><text fill="#000000" font-family="sans-serif" font-size="20" lengthAdjust="spacing" textLength="277" x="1977" y="52.7813">manageEmployeeRepository:</text><text fill="#000000" font-family="sans-serif" font-size="20" lengthAdjust="spacing" textLength="269" x="1981" y="76.3359">ManageEmployeeRepository</text><rect fill="#E3E3E3" height="61.1094" rx="2.5" ry="2.5" style="stroke:#181818;stroke-width:0.5;" width="291" x="1970" y="1484.7422"/><text fill="#000000" font-family="sans-serif" font-size="20" lengthAdjust="spacing" textLength="277" x="1977" y="1511.0781">manageEmployeeRepository:</text><text fill="#000000" font-family="sans-serif" font-size="20" lengthAdjust="spacing" textLength="269" x="1981" y="1534.6328">ManageEmployeeRepository</text><rect fill="#FFFFFF" height="1378.1875" style="stroke:#181818;stroke-width:1.0;" width="10" x="106.5" y="98.5547"/><rect fill="#FFFFFF" height="223.3281" style="stroke:#181818;stroke-width:1.0;" width="10" x="663.5" y="128.1094"/><rect fill="#FFFFFF" height="174.7734" style="stroke:#181818;stroke-width:1.0;" width="10" x="663.5" y="388.9922"/><rect fill="#FFFFFF" height="37.5547" style="stroke:#181818;stroke-width:1.0;" width="10" x="663.5" y="601.3203"/><rect fill="#FFFFFF" height="88.1094" style="stroke:#181818;stroke-width:1.0;" width="10" x="663.5" y="723.5391"/><rect fill="#FFFFFF" height="618.5391" style="stroke:#181818;stroke-width:1.0;" width="10" x="663.5" y="849.2031"/><rect fill="#FFFFFF" height="99.6641" style="stroke:#181818;stroke-width:1.0;" width="10" x="1227.5" y="214.2188"/><rect fill="#FFFFFF" height="99.6641" style="stroke:#181818;stroke-width:1.0;" width="10" x="1227.5" y="426.5469"/><rect fill="#FFFFFF" height="496.3203" style="stroke:#181818;stroke-width:1.0;" width="10" x="1227.5" y="933.8672"/><rect fill="#FFFFFF" height="99.6641" style="stroke:#181818;stroke-width:1.0;" width="10" x="1581.5" y="971.4219"/><rect fill="#FFFFFF" height="99.6641" style="stroke:#181818;stroke-width:1.0;" width="10" x="1835" y="1108.6406"/><rect fill="#FFFFFF" height="99.6641" style="stroke:#181818;stroke-width:1.0;" width="10" x="2110.5" y="1292.9688"/><polygon fill="#181818" points="651.5,124.1094,661.5,128.1094,651.5,132.1094,655.5,128.1094" style="stroke:#181818;stroke-width:1.0;"/><line style="stroke:#181818;stroke-width:1.0;" x1="116.5" x2="657.5" y1="128.1094" y2="128.1094"/><text fill="#000000" font-family="sans-serif" font-size="20" font-weight="bold" lengthAdjust="spacing" textLength="13" x="123.5" y="121.8906">1</text><text fill="#000000" font-family="sans-serif" font-size="20" lengthAdjust="spacing" textLength="307" x="140.5" y="121.8906">asks to register a new employee</text><polygon fill="#181818" points="1056.5,161.6641,1066.5,165.6641,1056.5,169.6641,1060.5,165.6641" style="stroke:#181818;stroke-width:1.0;"/><line style="stroke:#181818;stroke-width:1.0;" x1="673.5" x2="1062.5" y1="165.6641" y2="165.6641"/><text fill="#000000" font-family="sans-serif" font-size="20" font-weight="bold" lengthAdjust="spacing" textLength="13" x="680.5" y="159.4453">2</text><text fill="#000000" font-family="sans-serif" font-size="20" lengthAdjust="spacing" textLength="58" x="697.5" y="159.4453">create</text><rect fill="#E3E3E3" height="37.5547" rx="2.5" ry="2.5" style="stroke:#181818;stroke-width:0.5;" width="328" x="1068.5" y="136.1094"/><text fill="#000000" font-family="sans-serif" font-size="20" lengthAdjust="spacing" textLength="314" x="1075.5" y="162.4453">:RegisterNewEmployeeController</text><polygon fill="#181818" points="1215.5,210.2188,1225.5,214.2188,1215.5,218.2188,1219.5,214.2188" style="stroke:#181818;stroke-width:1.0;"/><line style="stroke:#181818;stroke-width:1.0;" x1="673.5" x2="1221.5" y1="214.2188" y2="214.2188"/><text fill="#000000" font-family="sans-serif" font-size="20" font-weight="bold" lengthAdjust="spacing" textLength="13" x="680.5" y="208">3</text><text fill="#000000" font-family="sans-serif" font-size="20" lengthAdjust="spacing" textLength="103" x="697.5" y="208">getStores()</text><rect fill="none" height="57.1094" style="stroke:#000000;stroke-width:1.5;" width="334" x="1065.5" y="222.2188"/><path d="M1065.5,222.2188 L1139.5,222.2188 L1139.5,237.2188 L1129.5,247.2188 L1065.5,247.2188 L1065.5,222.2188 " fill="#EEEEEE" style="stroke:#000000;stroke-width:2.0;"/><text fill="#000000" font-family="sans-serif" font-size="20" font-weight="bold" lengthAdjust="spacing" textLength="29" x="1078.5" y="243.5547">ref</text><text fill="#000000" font-family="sans-serif" font-size="20" lengthAdjust="spacing" textLength="137" x="1164" y="270.5547">Get Stores List</text><polygon fill="#181818" points="684.5,309.8828,674.5,313.8828,684.5,317.8828,680.5,313.8828" style="stroke:#181818;stroke-width:1.0;"/><line style="stroke:#181818;stroke-width:1.0;stroke-dasharray:2.0,2.0;" x1="678.5" x2="1231.5" y1="313.8828" y2="313.8828"/><text fill="#000000" font-family="sans-serif" font-size="20" font-weight="bold" lengthAdjust="spacing" textLength="13" x="690.5" y="307.6641">4</text><text fill="#000000" font-family="sans-serif" font-size="20" lengthAdjust="spacing" textLength="82" x="707.5" y="307.6641">storeList</text><polygon fill="#181818" points="127.5,347.4375,117.5,351.4375,127.5,355.4375,123.5,351.4375" style="stroke:#181818;stroke-width:1.0;"/><line style="stroke:#181818;stroke-width:1.0;stroke-dasharray:2.0,2.0;" x1="121.5" x2="667.5" y1="351.4375" y2="351.4375"/><text fill="#000000" font-family="sans-serif" font-size="20" font-weight="bold" lengthAdjust="spacing" textLength="13" x="133.5" y="345.2188">5</text><text fill="#000000" font-family="sans-serif" font-size="20" lengthAdjust="spacing" textLength="386" x="150.5" y="345.2188">displays store list and asks to select one</text><polygon fill="#181818" points="651.5,384.9922,661.5,388.9922,651.5,392.9922,655.5,388.9922" style="stroke:#181818;stroke-width:1.0;"/><line style="stroke:#181818;stroke-width:1.0;" x1="116.5" x2="657.5" y1="388.9922" y2="388.9922"/><text fill="#000000" font-family="sans-serif" font-size="20" font-weight="bold" lengthAdjust="spacing" textLength="13" x="123.5" y="382.7734">6</text><text fill="#000000" font-family="sans-serif" font-size="20" lengthAdjust="spacing" textLength="119" x="140.5" y="382.7734">selects store</text><polygon fill="#181818" points="1215.5,422.5469,1225.5,426.5469,1215.5,430.5469,1219.5,426.5469" style="stroke:#181818;stroke-width:1.0;"/><line style="stroke:#181818;stroke-width:1.0;" x1="673.5" x2="1221.5" y1="426.5469" y2="426.5469"/><text fill="#000000" font-family="sans-serif" font-size="20" font-weight="bold" lengthAdjust="spacing" textLength="13" x="680.5" y="420.3281">7</text><text fill="#000000" font-family="sans-serif" font-size="20" lengthAdjust="spacing" textLength="96" x="697.5" y="420.3281">getRoles()</text><rect fill="none" height="57.1094" style="stroke:#000000;stroke-width:1.5;" width="334" x="1065.5" y="434.5469"/><path d="M1065.5,434.5469 L1139.5,434.5469 L1139.5,449.5469 L1129.5,459.5469 L1065.5,459.5469 L1065.5,434.5469 " fill="#EEEEEE" style="stroke:#000000;stroke-width:2.0;"/><text fill="#000000" font-family="sans-serif" font-size="20" font-weight="bold" lengthAdjust="spacing" textLength="29" x="1078.5" y="455.8828">ref</text><text fill="#000000" font-family="sans-serif" font-size="20" lengthAdjust="spacing" textLength="130" x="1167.5" y="482.8828">Get Roles List</text><polygon fill="#181818" points="684.5,522.2109,674.5,526.2109,684.5,530.2109,680.5,526.2109" style="stroke:#181818;stroke-width:1.0;"/><line style="stroke:#181818;stroke-width:1.0;stroke-dasharray:2.0,2.0;" x1="678.5" x2="1231.5" y1="526.2109" y2="526.2109"/><text fill="#000000" font-family="sans-serif" font-size="20" font-weight="bold" lengthAdjust="spacing" textLength="13" x="690.5" y="519.9922">8</text><text fill="#000000" font-family="sans-serif" font-size="20" lengthAdjust="spacing" textLength="71" x="707.5" y="519.9922">roleList</text><polygon fill="#181818" points="127.5,559.7656,117.5,563.7656,127.5,567.7656,123.5,563.7656" style="stroke:#181818;stroke-width:1.0;"/><line style="stroke:#181818;stroke-width:1.0;stroke-dasharray:2.0,2.0;" x1="121.5" x2="667.5" y1="563.7656" y2="563.7656"/><text fill="#000000" font-family="sans-serif" font-size="20" font-weight="bold" lengthAdjust="spacing" textLength="13" x="133.5" y="557.5469">9</text><text fill="#000000" font-family="sans-serif" font-size="20" lengthAdjust="spacing" textLength="344" x="150.5" y="557.5469">displays role lists and asks to select</text><polygon fill="#181818" points="651.5,597.3203,661.5,601.3203,651.5,605.3203,655.5,601.3203" style="stroke:#181818;stroke-width:1.0;"/><line style="stroke:#181818;stroke-width:1.0;" x1="116.5" x2="657.5" y1="601.3203" y2="601.3203"/><text fill="#000000" font-family="sans-serif" font-size="20" font-weight="bold" lengthAdjust="spacing" textLength="26" x="123.5" y="595.1016">10</text><text fill="#000000" font-family="sans-serif" font-size="20" lengthAdjust="spacing" textLength="132" x="153.5" y="595.1016">selects role(s)</text><polygon fill="#181818" points="127.5,634.875,117.5,638.875,127.5,642.875,123.5,638.875" style="stroke:#181818;stroke-width:1.0;"/><line style="stroke:#181818;stroke-width:1.0;" x1="121.5" x2="667.5" y1="638.875" y2="638.875"/><text fill="#000000" font-family="sans-serif" font-size="20" font-weight="bold" lengthAdjust="spacing" textLength="26" x="133.5" y="632.6563">11</text><text fill="#000000" font-family="sans-serif" font-size="20" lengthAdjust="spacing" textLength="130" x="163.5" y="632.6563">requests data</text><polygon fill="#181818" points="651.5,719.5391,661.5,723.5391,651.5,727.5391,655.5,723.5391" style="stroke:#181818;stroke-width:1.0;"/><line style="stroke:#181818;stroke-width:1.0;" x1="116.5" x2="657.5" y1="723.5391" y2="723.5391"/><text fill="#000000" font-family="sans-serif" font-size="20" font-weight="bold" lengthAdjust="spacing" textLength="26" x="123.5" y="693.7656">12</text><text fill="#000000" font-family="sans-serif" font-size="20" lengthAdjust="spacing" textLength="498" x="153.5" y="670.2109">types requested data (name, passport card number,</text><text fill="#000000" font-family="sans-serif" font-size="20" lengthAdjust="spacing" textLength="270" x="159.5" y="693.7656">tax number, address, email,</text><text fill="#000000" font-family="sans-serif" font-size="20" lengthAdjust="spacing" textLength="183" x="159.5" y="717.3203">telephone number)</text><line style="stroke:#181818;stroke-width:1.0;" x1="673.5" x2="715.5" y1="761.0938" y2="761.0938"/><line style="stroke:#181818;stroke-width:1.0;" x1="715.5" x2="715.5" y1="761.0938" y2="774.0938"/><line style="stroke:#181818;stroke-width:1.0;" x1="674.5" x2="715.5" y1="774.0938" y2="774.0938"/><polygon fill="#181818" points="684.5,770.0938,674.5,774.0938,684.5,778.0938,680.5,774.0938" style="stroke:#181818;stroke-width:1.0;"/><text fill="#000000" font-family="sans-serif" font-size="20" font-weight="bold" lengthAdjust="spacing" textLength="26" x="680.5" y="754.875">13</text><text fill="#000000" font-family="sans-serif" font-size="20" lengthAdjust="spacing" textLength="133" x="710.5" y="754.875">validateData()</text><polygon fill="#181818" points="127.5,807.6484,117.5,811.6484,127.5,815.6484,123.5,811.6484" style="stroke:#181818;stroke-width:1.0;"/><line style="stroke:#181818;stroke-width:1.0;stroke-dasharray:2.0,2.0;" x1="121.5" x2="667.5" y1="811.6484" y2="811.6484"/><text fill="#000000" font-family="sans-serif" font-size="20" font-weight="bold" lengthAdjust="spacing" textLength="26" x="133.5" y="805.4297">14</text><text fill="#000000" font-family="sans-serif" font-size="20" lengthAdjust="spacing" textLength="336" x="163.5" y="805.4297">shows selected and requested data</text><polygon fill="#181818" points="651.5,845.2031,661.5,849.2031,651.5,853.2031,655.5,849.2031" style="stroke:#181818;stroke-width:1.0;"/><line style="stroke:#181818;stroke-width:1.0;" x1="116.5" x2="657.5" y1="849.2031" y2="849.2031"/><text fill="#000000" font-family="sans-serif" font-size="20" font-weight="bold" lengthAdjust="spacing" textLength="26" x="123.5" y="842.9844">15</text><text fill="#000000" font-family="sans-serif" font-size="20" lengthAdjust="spacing" textLength="125" x="153.5" y="842.9844">submits data</text><polygon fill="#181818" points="1215.5,929.8672,1225.5,933.8672,1215.5,937.8672,1219.5,933.8672" style="stroke:#181818;stroke-width:1.0;"/><line style="stroke:#181818;stroke-width:1.0;" x1="673.5" x2="1221.5" y1="933.8672" y2="933.8672"/><text fill="#000000" font-family="sans-serif" font-size="20" font-weight="bold" lengthAdjust="spacing" textLength="26" x="680.5" y="904.0938">16</text><text fill="#000000" font-family="sans-serif" font-size="20" lengthAdjust="spacing" textLength="457" x="710.5" y="880.5391">registerEmployee(name, passport card number,</text><text fill="#000000" font-family="sans-serif" font-size="20" lengthAdjust="spacing" textLength="352" x="716.5" y="904.0938">tax number, address, email address,</text><text fill="#000000" font-family="sans-serif" font-size="20" lengthAdjust="spacing" textLength="499" x="716.5" y="927.6484">contact telephone number, storeOption, roleOption)</text><polygon fill="#181818" points="1569.5,967.4219,1579.5,971.4219,1569.5,975.4219,1573.5,971.4219" style="stroke:#181818;stroke-width:1.0;"/><line style="stroke:#181818;stroke-width:1.0;" x1="1237.5" x2="1575.5" y1="971.4219" y2="971.4219"/><text fill="#000000" font-family="sans-serif" font-size="20" font-weight="bold" lengthAdjust="spacing" textLength="26" x="1244.5" y="965.2031">17</text><text fill="#000000" font-family="sans-serif" font-size="20" lengthAdjust="spacing" textLength="295" x="1274.5" y="965.2031">getStoreByOption(storeOption)</text><rect fill="none" height="57.1094" style="stroke:#000000;stroke-width:1.5;" width="253" x="1460" y="979.4219"/><path d="M1460,979.4219 L1534,979.4219 L1534,994.4219 L1524,1004.4219 L1460,1004.4219 L1460,979.4219 " fill="#EEEEEE" style="stroke:#000000;stroke-width:2.0;"/><text fill="#000000" font-family="sans-serif" font-size="20" font-weight="bold" lengthAdjust="spacing" textLength="29" x="1473" y="1000.7578">ref</text><text fill="#000000" font-family="sans-serif" font-size="20" lengthAdjust="spacing" textLength="156" x="1508.5" y="1027.7578">Get Store Object</text><polygon fill="#181818" points="1248.5,1067.0859,1238.5,1071.0859,1248.5,1075.0859,1244.5,1071.0859" style="stroke:#181818;stroke-width:1.0;"/><line style="stroke:#181818;stroke-width:1.0;stroke-dasharray:2.0,2.0;" x1="1242.5" x2="1585.5" y1="1071.0859" y2="1071.0859"/><text fill="#000000" font-family="sans-serif" font-size="20" font-weight="bold" lengthAdjust="spacing" textLength="26" x="1254.5" y="1064.8672">18</text><text fill="#000000" font-family="sans-serif" font-size="20" lengthAdjust="spacing" textLength="48" x="1284.5" y="1064.8672">store</text><polygon fill="#181818" points="1823,1104.6406,1833,1108.6406,1823,1112.6406,1827,1108.6406" style="stroke:#181818;stroke-width:1.0;"/><line style="stroke:#181818;stroke-width:1.0;" x1="1237.5" x2="1829" y1="1108.6406" y2="1108.6406"/><text fill="#000000" font-family="sans-serif" font-size="20" font-weight="bold" lengthAdjust="spacing" textLength="26" x="1244.5" y="1102.4219">19</text><text fill="#000000" font-family="sans-serif" font-size="20" lengthAdjust="spacing" textLength="277" x="1274.5" y="1102.4219">getRoleByOption(roleOption)</text><rect fill="none" height="57.1094" style="stroke:#000000;stroke-width:1.5;" width="246" x="1717" y="1116.6406"/><path d="M1717,1116.6406 L1791,1116.6406 L1791,1131.6406 L1781,1141.6406 L1717,1141.6406 L1717,1116.6406 " fill="#EEEEEE" style="stroke:#000000;stroke-width:2.0;"/><text fill="#000000" font-family="sans-serif" font-size="20" font-weight="bold" lengthAdjust="spacing" textLength="29" x="1730" y="1137.9766">ref</text><text fill="#000000" font-family="sans-serif" font-size="20" lengthAdjust="spacing" textLength="149" x="1765.5" y="1164.9766">Get Role Object</text><polygon fill="#181818" points="1248.5,1204.3047,1238.5,1208.3047,1248.5,1212.3047,1244.5,1208.3047" style="stroke:#181818;stroke-width:1.0;"/><line style="stroke:#181818;stroke-width:1.0;stroke-dasharray:2.0,2.0;" x1="1242.5" x2="1839" y1="1208.3047" y2="1208.3047"/><text fill="#000000" font-family="sans-serif" font-size="20" font-weight="bold" lengthAdjust="spacing" textLength="26" x="1254.5" y="1202.0859">20</text><text fill="#000000" font-family="sans-serif" font-size="20" lengthAdjust="spacing" textLength="37" x="1284.5" y="1202.0859">role</text><polygon fill="#181818" points="2098.5,1288.9688,2108.5,1292.9688,2098.5,1296.9688,2102.5,1292.9688" style="stroke:#181818;stroke-width:1.0;"/><line style="stroke:#181818;stroke-width:1.0;" x1="1237.5" x2="2104.5" y1="1292.9688" y2="1292.9688"/><text fill="#000000" font-family="sans-serif" font-size="20" font-weight="bold" lengthAdjust="spacing" textLength="26" x="1244.5" y="1263.1953">21</text><text fill="#000000" font-family="sans-serif" font-size="20" lengthAdjust="spacing" textLength="457" x="1274.5" y="1239.6406">registerEmployee(name, passport card number,</text><text fill="#000000" font-family="sans-serif" font-size="20" lengthAdjust="spacing" textLength="352" x="1280.5" y="1263.1953">tax number, address, email address,</text><text fill="#000000" font-family="sans-serif" font-size="20" lengthAdjust="spacing" textLength="367" x="1280.5" y="1286.75">contact telephone number, store, role)</text><rect fill="none" height="57.1094" style="stroke:#000000;stroke-width:1.5;" width="297" x="1967" y="1300.9688"/><path d="M1967,1300.9688 L2041,1300.9688 L2041,1315.9688 L2031,1325.9688 L1967,1325.9688 L1967,1300.9688 " fill="#EEEEEE" style="stroke:#000000;stroke-width:2.0;"/><text fill="#000000" font-family="sans-serif" font-size="20" font-weight="bold" lengthAdjust="spacing" textLength="29" x="1980" y="1322.3047">ref</text><text fill="#000000" font-family="sans-serif" font-size="20" lengthAdjust="spacing" textLength="177" x="2027" y="1349.3047">Register Employee</text><polygon fill="#181818" points="1248.5,1388.6328,1238.5,1392.6328,1248.5,1396.6328,1244.5,1392.6328" style="stroke:#181818;stroke-width:1.0;"/><line style="stroke:#181818;stroke-width:1.0;stroke-dasharray:2.0,2.0;" x1="1242.5" x2="2114.5" y1="1392.6328" y2="1392.6328"/><text fill="#000000" font-family="sans-serif" font-size="20" font-weight="bold" lengthAdjust="spacing" textLength="26" x="1254.5" y="1386.4141">22</text><text fill="#000000" font-family="sans-serif" font-size="20" lengthAdjust="spacing" textLength="236" x="1284.5" y="1386.4141">shows operation success</text><polygon fill="#181818" points="684.5,1426.1875,674.5,1430.1875,684.5,1434.1875,680.5,1430.1875" style="stroke:#181818;stroke-width:1.0;"/><line style="stroke:#181818;stroke-width:1.0;stroke-dasharray:2.0,2.0;" x1="678.5" x2="1231.5" y1="1430.1875" y2="1430.1875"/><text fill="#000000" font-family="sans-serif" font-size="20" font-weight="bold" lengthAdjust="spacing" textLength="26" x="690.5" y="1423.9688">23</text><text fill="#000000" font-family="sans-serif" font-size="20" lengthAdjust="spacing" textLength="236" x="720.5" y="1423.9688">shows operation success</text><polygon fill="#181818" points="127.5,1463.7422,117.5,1467.7422,127.5,1471.7422,123.5,1467.7422" style="stroke:#181818;stroke-width:1.0;"/><line style="stroke:#181818;stroke-width:1.0;stroke-dasharray:2.0,2.0;" x1="121.5" x2="667.5" y1="1467.7422" y2="1467.7422"/><text fill="#000000" font-family="sans-serif" font-size="20" font-weight="bold" lengthAdjust="spacing" textLength="26" x="133.5" y="1461.5234">24</text><text fill="#000000" font-family="sans-serif" font-size="20" lengthAdjust="spacing" textLength="236" x="163.5" y="1461.5234">shows operation success</text><!--SRC=[nLTDRzim3BtdLn0zfKKA33lcK60VtL1WNO4KlVN2scoYHPOyIKdc_VhHifKeZXgtMRBrv93q8n_vJAbsBbI91WkfipdbaDCpBgJxefMx5xy9thyRs102XLOwcnbT43YpeCXJOZR7ATsxIX8OoXoggOm3x0nplH9g2iyeBGq6k71QBOedCloSEMtWxBwoZWhua1T22UiCilKCqCA3vIZ6SI8J9Ie7P-C9JJc4p7TQNHUbr1NHmuqF3fwDkV_LJqpNQ2d9924sxcse0fKdhGrDgDHMy5CrVbItARj7laLlJS5Cj4oXR9jRaDgOmWW59t1sNIqME_m4n18TDQqUGFDN_u3BgqHBOSmlpoqupTDkd82WQ0NKnWICDN9YBY4cWP_8kfd2nGNdpmmnxC4OZ30bvwTXX-UzrKOI2B66da4l6MbFR1lwbHmqgU0RXmOpgRn6UP53LEtbIsEmDMmCcjDRIAJQngdyvCUG2rjAh6oJ1II70dBHOVQM97_heDLwtFr5H7D_ZSoQ56q5dHTFeQr65_K7zczauJCTNHNiFxqewYHU4pOXYfCBeiu-jET7aqJBpj3F1TMKSdGuU5FrUyjsLSbpRj7hWvRXOQYme16VdjQMsZZ8qEJGd8gZHmKEVuLVW7dEwyEEUC6YaDxBZIXd_EsrCUV7Nxc-yYLAmTNIPwwOFudNYSJEzCgsisAsw3KTSpzYQ-tYgH2TYPreDPYEy-01hdzoLCOPkDwTWOwQfNTNEg7Lo0k-UJveB-rR8rVXOXATYX-h9jamAc8tSRZGx6o_uEYUW73tz2DQ3zrb5-gux9l4rdaGYQXRK1_jUlzkTlwQzBvcj_Ul16LlxoptNi8-g9UlYQ2tw6xLqiUMxVz9nOr-Kytq5z3TNjRc3YkuxbmkTvjP4-pNZbzEkYJ-5uCdp0iaovX5ihrnTGVTprwTwwyFviDJFTpy0G00]--></g></svg>