<?xml version="1.0" encoding="UTF-8" standalone="no"?><svg xmlns="http://www.w3.org/2000/svg" xmlns:xlink="http://www.w3.org/1999/xlink" contentStyleType="text/css" height="1776px" preserveAspectRatio="none" style="width:1537px;height:1776px;background:#FFFFFF;" version="1.1" viewBox="0 0 1537 1776" width="1537px" zoomAndPan="magnify"><defs/><g><!--class Employee--><g id="elem_Employee"><rect codeLine="9" fill="#F1F1F1" height="238.4375" id="Employee" rx="2.5" ry="2.5" style="stroke:#181818;stroke-width:0.5;" width="539" x="513.5" y="1279"/><ellipse cx="732" cy="1296" fill="#ADD1B2" rx="12" ry="12" style="stroke:#181818;stroke-width:1.0;"/><path d="M734.8066,1303.0801 Q734.123,1303.4316 733.3711,1303.6074 Q732.6191,1303.7832 731.7891,1303.7832 Q728.8398,1303.7832 727.2871,1301.8398 Q725.7344,1299.8965 725.7344,1296.2246 Q725.7344,1292.543 727.2871,1290.5996 Q728.8398,1288.6563 731.7891,1288.6563 Q732.6191,1288.6563 733.3809,1288.832 Q734.1426,1289.0078 734.8066,1289.3594 L734.8066,1292.5625 Q734.0645,1291.8789 733.3662,1291.5615 Q732.668,1291.2441 731.9258,1291.2441 Q730.3438,1291.2441 729.5381,1292.499 Q728.7324,1293.7539 728.7324,1296.2246 Q728.7324,1298.6855 729.5381,1299.9404 Q730.3438,1301.1953 731.9258,1301.1953 Q732.668,1301.1953 733.3662,1300.8779 Q734.0645,1300.5605 734.8066,1299.877 Z " fill="#000000"/><text fill="#000000" font-family="sans-serif" font-size="20" lengthAdjust="spacing" textLength="93" x="754" y="1303.5586">Employee</text><line style="stroke:#181818;stroke-width:0.5;" x1="514.5" x2="1051.5" y1="1313" y2="1313"/><text fill="#000000" font-family="sans-serif" font-size="20" lengthAdjust="spacing" textLength="127" x="519.5" y="1336.3359">-String name</text><text fill="#000000" font-family="sans-serif" font-size="20" lengthAdjust="spacing" textLength="247" x="519.5" y="1359.8906">-String telephoneNumber</text><text fill="#000000" font-family="sans-serif" font-size="20" lengthAdjust="spacing" textLength="124" x="519.5" y="1383.4453">-Email email</text><text fill="#000000" font-family="sans-serif" font-size="20" lengthAdjust="spacing" textLength="354" x="519.5" y="1407">-PassportCard passportCardNumber</text><text fill="#000000" font-family="sans-serif" font-size="20" lengthAdjust="spacing" textLength="303" x="519.5" y="1430.5547">-SocialSecurityCard taxNumber</text><text fill="#000000" font-family="sans-serif" font-size="20" lengthAdjust="spacing" textLength="173" x="519.5" y="1454.1094">-Address address</text><line style="stroke:#181818;stroke-width:0.5;" x1="514.5" x2="1051.5" y1="1462.3281" y2="1462.3281"/><text fill="#000000" font-family="sans-serif" font-size="20" lengthAdjust="spacing" textLength="515" x="519.5" y="1485.6641">+Employee(name, passportCardNumber, taxNumber,</text><text fill="#000000" font-family="sans-serif" font-size="20" lengthAdjust="spacing" textLength="521" x="525.5" y="1509.2188">address, emailAddress, telephoneNumber, store, role)</text></g><!--class Store--><g id="elem_Store"><rect codeLine="22" fill="#F1F1F1" height="167.7734" id="Store" rx="2.5" ry="2.5" style="stroke:#181818;stroke-width:0.5;" width="620" x="7" y="1602"/><ellipse cx="288" cy="1619" fill="#ADD1B2" rx="12" ry="12" style="stroke:#181818;stroke-width:1.0;"/><path d="M290.8066,1626.0801 Q290.123,1626.4316 289.3711,1626.6074 Q288.6191,1626.7832 287.7891,1626.7832 Q284.8398,1626.7832 283.2871,1624.8398 Q281.7344,1622.8965 281.7344,1619.2246 Q281.7344,1615.543 283.2871,1613.5996 Q284.8398,1611.6563 287.7891,1611.6563 Q288.6191,1611.6563 289.3809,1611.832 Q290.1426,1612.0078 290.8066,1612.3594 L290.8066,1615.5625 Q290.0645,1614.8789 289.3662,1614.5615 Q288.668,1614.2441 287.9258,1614.2441 Q286.3438,1614.2441 285.5381,1615.499 Q284.7324,1616.7539 284.7324,1619.2246 Q284.7324,1621.6855 285.5381,1622.9404 Q286.3438,1624.1953 287.9258,1624.1953 Q288.668,1624.1953 289.3662,1623.8779 Q290.0645,1623.5605 290.8066,1622.877 Z " fill="#000000"/><text fill="#000000" font-family="sans-serif" font-size="20" lengthAdjust="spacing" textLength="49" x="310" y="1626.5586">Store</text><line style="stroke:#181818;stroke-width:0.5;" x1="8" x2="626" y1="1636" y2="1636"/><text fill="#000000" font-family="sans-serif" font-size="20" lengthAdjust="spacing" textLength="186" x="13" y="1659.3359">-String designation</text><text fill="#000000" font-family="sans-serif" font-size="20" lengthAdjust="spacing" textLength="247" x="13" y="1682.8906">-String telephoneNumber</text><text fill="#000000" font-family="sans-serif" font-size="20" lengthAdjust="spacing" textLength="124" x="13" y="1706.4453">-Email email</text><text fill="#000000" font-family="sans-serif" font-size="20" lengthAdjust="spacing" textLength="173" x="13" y="1730">-Address address</text><line style="stroke:#181818;stroke-width:0.5;" x1="8" x2="626" y1="1738.2188" y2="1738.2188"/><text fill="#000000" font-family="sans-serif" font-size="20" lengthAdjust="spacing" textLength="608" x="13" y="1761.5547">+Store(designation, emailAddress, address, telephoneNumber)</text></g><!--class Role--><g id="elem_Role"><rect codeLine="31" fill="#F1F1F1" height="97.1094" id="Role" rx="2.5" ry="2.5" style="stroke:#181818;stroke-width:0.5;" width="198" x="1141" y="1637.5"/><ellipse cx="1214.5" cy="1654.5" fill="#ADD1B2" rx="12" ry="12" style="stroke:#181818;stroke-width:1.0;"/><path d="M1217.3066,1661.5801 Q1216.623,1661.9316 1215.8711,1662.1074 Q1215.1191,1662.2832 1214.2891,1662.2832 Q1211.3398,1662.2832 1209.7871,1660.3398 Q1208.2344,1658.3965 1208.2344,1654.7246 Q1208.2344,1651.043 1209.7871,1649.0996 Q1211.3398,1647.1563 1214.2891,1647.1563 Q1215.1191,1647.1563 1215.8809,1647.332 Q1216.6426,1647.5078 1217.3066,1647.8594 L1217.3066,1651.0625 Q1216.5645,1650.3789 1215.8662,1650.0615 Q1215.168,1649.7441 1214.4258,1649.7441 Q1212.8438,1649.7441 1212.0381,1650.999 Q1211.2324,1652.2539 1211.2324,1654.7246 Q1211.2324,1657.1855 1212.0381,1658.4404 Q1212.8438,1659.6953 1214.4258,1659.6953 Q1215.168,1659.6953 1215.8662,1659.3779 Q1216.5645,1659.0605 1217.3066,1658.377 Z " fill="#000000"/><text fill="#000000" font-family="sans-serif" font-size="20" lengthAdjust="spacing" textLength="42" x="1236.5" y="1662.0586">Role</text><line style="stroke:#181818;stroke-width:0.5;" x1="1142" x2="1338" y1="1671.5" y2="1671.5"/><text fill="#000000" font-family="sans-serif" font-size="20" lengthAdjust="spacing" textLength="186" x="1147" y="1694.8359">-String designation</text><line style="stroke:#181818;stroke-width:0.5;" x1="1142" x2="1338" y1="1703.0547" y2="1703.0547"/><text fill="#000000" font-family="sans-serif" font-size="20" lengthAdjust="spacing" textLength="184" x="1147" y="1726.3906">+Role(designation)</text></g><!--class StoreRepository--><g id="elem_StoreRepository"><rect codeLine="38" fill="#F1F1F1" height="97.1094" id="StoreRepository" rx="2.5" ry="2.5" style="stroke:#181818;stroke-width:0.5;" width="323" x="155.5" y="1349.5"/><ellipse cx="237" cy="1366.5" fill="#ADD1B2" rx="12" ry="12" style="stroke:#181818;stroke-width:1.0;"/><path d="M239.8066,1373.5801 Q239.123,1373.9316 238.3711,1374.1074 Q237.6191,1374.2832 236.7891,1374.2832 Q233.8398,1374.2832 232.2871,1372.3398 Q230.7344,1370.3965 230.7344,1366.7246 Q230.7344,1363.043 232.2871,1361.0996 Q233.8398,1359.1563 236.7891,1359.1563 Q237.6191,1359.1563 238.3809,1359.332 Q239.1426,1359.5078 239.8066,1359.8594 L239.8066,1363.0625 Q239.0645,1362.3789 238.3662,1362.0615 Q237.668,1361.7441 236.9258,1361.7441 Q235.3438,1361.7441 234.5381,1362.999 Q233.7324,1364.2539 233.7324,1366.7246 Q233.7324,1369.1855 234.5381,1370.4404 Q235.3438,1371.6953 236.9258,1371.6953 Q237.668,1371.6953 238.3662,1371.3779 Q239.0645,1371.0605 239.8066,1370.377 Z " fill="#000000"/><text fill="#000000" font-family="sans-serif" font-size="20" lengthAdjust="spacing" textLength="151" x="259" y="1374.0586">StoreRepository</text><line style="stroke:#181818;stroke-width:0.5;" x1="156.5" x2="477.5" y1="1383.5" y2="1383.5"/><line style="stroke:#181818;stroke-width:0.5;" x1="156.5" x2="477.5" y1="1391.5" y2="1391.5"/><text fill="#000000" font-family="sans-serif" font-size="20" lengthAdjust="spacing" textLength="311" x="161.5" y="1414.8359">+getStoreByOption(storeOption)</text><text fill="#000000" font-family="sans-serif" font-size="20" lengthAdjust="spacing" textLength="119" x="161.5" y="1438.3906">+getStores()</text></g><!--class RoleRepository--><g id="elem_RoleRepository"><rect codeLine="43" fill="#F1F1F1" height="97.1094" id="RoleRepository" rx="2.5" ry="2.5" style="stroke:#181818;stroke-width:0.5;" width="305" x="1087.5" y="1349.5"/><ellipse cx="1163.5" cy="1366.5" fill="#ADD1B2" rx="12" ry="12" style="stroke:#181818;stroke-width:1.0;"/><path d="M1166.3066,1373.5801 Q1165.623,1373.9316 1164.8711,1374.1074 Q1164.1191,1374.2832 1163.2891,1374.2832 Q1160.3398,1374.2832 1158.7871,1372.3398 Q1157.2344,1370.3965 1157.2344,1366.7246 Q1157.2344,1363.043 1158.7871,1361.0996 Q1160.3398,1359.1563 1163.2891,1359.1563 Q1164.1191,1359.1563 1164.8809,1359.332 Q1165.6426,1359.5078 1166.3066,1359.8594 L1166.3066,1363.0625 Q1165.5645,1362.3789 1164.8662,1362.0615 Q1164.168,1361.7441 1163.4258,1361.7441 Q1161.8438,1361.7441 1161.0381,1362.999 Q1160.2324,1364.2539 1160.2324,1366.7246 Q1160.2324,1369.1855 1161.0381,1370.4404 Q1161.8438,1371.6953 1163.4258,1371.6953 Q1164.168,1371.6953 1164.8662,1371.3779 Q1165.5645,1371.0605 1166.3066,1370.377 Z " fill="#000000"/><text fill="#000000" font-family="sans-serif" font-size="20" lengthAdjust="spacing" textLength="144" x="1185.5" y="1374.0586">RoleRepository</text><line style="stroke:#181818;stroke-width:0.5;" x1="1088.5" x2="1391.5" y1="1383.5" y2="1383.5"/><line style="stroke:#181818;stroke-width:0.5;" x1="1088.5" x2="1391.5" y1="1391.5" y2="1391.5"/><text fill="#000000" font-family="sans-serif" font-size="20" lengthAdjust="spacing" textLength="293" x="1093.5" y="1414.8359">+getRoleByOption(roleOption)</text><text fill="#000000" font-family="sans-serif" font-size="20" lengthAdjust="spacing" textLength="112" x="1093.5" y="1438.3906">+getRoles()</text></g><!--class EmployeeRepository--><g id="elem_EmployeeRepository"><rect codeLine="48" fill="#F1F1F1" height="73.5547" id="EmployeeRepository" rx="2.5" ry="2.5" style="stroke:#181818;stroke-width:0.5;" width="261" x="624.5" y="1120"/><ellipse cx="654.9" cy="1137" fill="#ADD1B2" rx="12" ry="12" style="stroke:#181818;stroke-width:1.0;"/><path d="M657.7066,1144.0801 Q657.023,1144.4316 656.2711,1144.6074 Q655.5191,1144.7832 654.6891,1144.7832 Q651.7398,1144.7832 650.1871,1142.8398 Q648.6344,1140.8965 648.6344,1137.2246 Q648.6344,1133.543 650.1871,1131.5996 Q651.7398,1129.6563 654.6891,1129.6563 Q655.5191,1129.6563 656.2809,1129.832 Q657.0426,1130.0078 657.7066,1130.3594 L657.7066,1133.5625 Q656.9645,1132.8789 656.2662,1132.5615 Q655.568,1132.2441 654.8258,1132.2441 Q653.2438,1132.2441 652.4381,1133.499 Q651.6324,1134.7539 651.6324,1137.2246 Q651.6324,1139.6855 652.4381,1140.9404 Q653.2438,1142.1953 654.8258,1142.1953 Q655.568,1142.1953 656.2662,1141.8779 Q656.9645,1141.5605 657.7066,1140.877 Z " fill="#000000"/><text fill="#000000" font-family="sans-serif" font-size="20" lengthAdjust="spacing" textLength="195" x="673.1" y="1144.5586">EmployeeRepository</text><line style="stroke:#181818;stroke-width:0.5;" x1="625.5" x2="884.5" y1="1154" y2="1154"/><line style="stroke:#181818;stroke-width:0.5;" x1="625.5" x2="884.5" y1="1162" y2="1162"/><text fill="#000000" font-family="sans-serif" font-size="20" lengthAdjust="spacing" textLength="249" x="630.5" y="1185.3359">-addEmployee(employee)</text></g><!--class Repositories--><g id="elem_Repositories"><rect codeLine="52" fill="#F1F1F1" height="167.7734" id="Repositories" rx="2.5" ry="2.5" style="stroke:#181818;stroke-width:0.5;" width="288" x="611" y="867"/><ellipse cx="691" cy="884" fill="#ADD1B2" rx="12" ry="12" style="stroke:#181818;stroke-width:1.0;"/><path d="M693.8066,891.0801 Q693.123,891.4316 692.3711,891.6074 Q691.6191,891.7832 690.7891,891.7832 Q687.8398,891.7832 686.2871,889.8398 Q684.7344,887.8965 684.7344,884.2246 Q684.7344,880.543 686.2871,878.5996 Q687.8398,876.6563 690.7891,876.6563 Q691.6191,876.6563 692.3809,876.832 Q693.1426,877.0078 693.8066,877.3594 L693.8066,880.5625 Q693.0645,879.8789 692.3662,879.5615 Q691.668,879.2441 690.9258,879.2441 Q689.3438,879.2441 688.5381,880.499 Q687.7324,881.7539 687.7324,884.2246 Q687.7324,886.6855 688.5381,887.9404 Q689.3438,889.1953 690.9258,889.1953 Q691.668,889.1953 692.3662,888.8779 Q693.0645,888.5605 693.8066,887.877 Z " fill="#000000"/><text fill="#000000" font-family="sans-serif" font-size="20" lengthAdjust="spacing" textLength="119" x="713" y="891.5586">Repositories</text><line style="stroke:#181818;stroke-width:0.5;" x1="612" x2="898" y1="901" y2="901"/><line style="stroke:#181818;stroke-width:0.5;" x1="612" x2="898" y1="909" y2="909"/><text fill="#000000" font-family="sans-serif" font-size="20" lengthAdjust="spacing" textLength="145" x="617" y="932.3359">-Repositories()</text><text fill="#000000" font-family="sans-serif" font-size="20" lengthAdjust="spacing" textLength="276" x="617" y="955.8906">+getInstance() : Repositories</text><text fill="#000000" font-family="sans-serif" font-size="20" lengthAdjust="spacing" textLength="204" x="617" y="979.4453">+getRoleRepository()</text><text fill="#000000" font-family="sans-serif" font-size="20" lengthAdjust="spacing" textLength="211" x="617" y="1003">+getStoreRepository()</text><text fill="#000000" font-family="sans-serif" font-size="20" lengthAdjust="spacing" textLength="255" x="617" y="1026.5547">+getEmployeeRepository()</text></g><!--class RegisterNewEmployeeController--><g id="elem_RegisterNewEmployeeController"><rect codeLine="60" fill="#F1F1F1" height="167.7734" id="RegisterNewEmployeeController" rx="2.5" ry="2.5" style="stroke:#181818;stroke-width:0.5;" width="671" x="545.5" y="118"/><ellipse cx="722.5" cy="135" fill="#ADD1B2" rx="12" ry="12" style="stroke:#181818;stroke-width:1.0;"/><path d="M725.3066,142.0801 Q724.623,142.4316 723.8711,142.6074 Q723.1191,142.7832 722.2891,142.7832 Q719.3398,142.7832 717.7871,140.8398 Q716.2344,138.8965 716.2344,135.2246 Q716.2344,131.543 717.7871,129.5996 Q719.3398,127.6563 722.2891,127.6563 Q723.1191,127.6563 723.8809,127.832 Q724.6426,128.0078 725.3066,128.3594 L725.3066,131.5625 Q724.5645,130.8789 723.8662,130.5615 Q723.168,130.2441 722.4258,130.2441 Q720.8438,130.2441 720.0381,131.499 Q719.2324,132.7539 719.2324,135.2246 Q719.2324,137.6855 720.0381,138.9404 Q720.8438,140.1953 722.4258,140.1953 Q723.168,140.1953 723.8662,139.8779 Q724.5645,139.5605 725.3066,138.877 Z " fill="#000000"/><text fill="#000000" font-family="sans-serif" font-size="20" lengthAdjust="spacing" textLength="308" x="744.5" y="142.5586">RegisterNewEmployeeController</text><line style="stroke:#181818;stroke-width:0.5;" x1="546.5" x2="1215.5" y1="152" y2="152"/><line style="stroke:#181818;stroke-width:0.5;" x1="546.5" x2="1215.5" y1="160" y2="160"/><text fill="#000000" font-family="sans-serif" font-size="20" lengthAdjust="spacing" textLength="338" x="551.5" y="183.3359">+RegisterNewEmployeeController()</text><text fill="#000000" font-family="sans-serif" font-size="20" lengthAdjust="spacing" textLength="119" x="551.5" y="206.8906">+getStores()</text><text fill="#000000" font-family="sans-serif" font-size="20" lengthAdjust="spacing" textLength="112" x="551.5" y="230.4453">+getRoles()</text><text fill="#000000" font-family="sans-serif" font-size="20" lengthAdjust="spacing" textLength="588" x="551.5" y="254">+registerEmployee(name, passportCardNumber, taxNumber,</text><text fill="#000000" font-family="sans-serif" font-size="20" lengthAdjust="spacing" textLength="653" x="557.5" y="277.5547">address, emailAddress, telephoneNumber, storeOption, roleOption)</text></g><!--class RegisterEmployeeUI--><g id="elem_RegisterEmployeeUI"><rect codeLine="68" fill="#F1F1F1" height="50" id="RegisterEmployeeUI" rx="2.5" ry="2.5" style="stroke:#181818;stroke-width:0.5;" width="225" x="768.5" y="7"/><ellipse cx="784.5" cy="24" fill="#ADD1B2" rx="12" ry="12" style="stroke:#181818;stroke-width:1.0;"/><path d="M787.3066,31.0801 Q786.623,31.4316 785.8711,31.6074 Q785.1191,31.7832 784.2891,31.7832 Q781.3398,31.7832 779.7871,29.8398 Q778.2344,27.8965 778.2344,24.2246 Q778.2344,20.543 779.7871,18.5996 Q781.3398,16.6563 784.2891,16.6563 Q785.1191,16.6563 785.8809,16.832 Q786.6426,17.0078 787.3066,17.3594 L787.3066,20.5625 Q786.5645,19.8789 785.8662,19.5615 Q785.168,19.2441 784.4258,19.2441 Q782.8438,19.2441 782.0381,20.499 Q781.2324,21.7539 781.2324,24.2246 Q781.2324,26.6855 782.0381,27.9404 Q782.8438,29.1953 784.4258,29.1953 Q785.168,29.1953 785.8662,28.8779 Q786.5645,28.5605 787.3066,27.877 Z " fill="#000000"/><text fill="#000000" font-family="sans-serif" font-size="20" lengthAdjust="spacing" textLength="191" x="799.5" y="31.5586">RegisterEmployeeUI</text><line style="stroke:#181818;stroke-width:0.5;" x1="769.5" x2="992.5" y1="41" y2="41"/><line style="stroke:#181818;stroke-width:0.5;" x1="769.5" x2="992.5" y1="49" y2="49"/></g><!--class ManageStoreRepository--><g id="elem_ManageStoreRepository"><rect codeLine="71" fill="#F1F1F1" height="120.6641" id="ManageStoreRepository" rx="2.5" ry="2.5" style="stroke:#181818;stroke-width:0.5;" width="417" x="34.5" y="661"/><ellipse cx="126" cy="678" fill="#ADD1B2" rx="12" ry="12" style="stroke:#181818;stroke-width:1.0;"/><path d="M128.8066,685.0801 Q128.123,685.4316 127.3711,685.6074 Q126.6191,685.7832 125.7891,685.7832 Q122.8398,685.7832 121.2871,683.8398 Q119.7344,681.8965 119.7344,678.2246 Q119.7344,674.543 121.2871,672.5996 Q122.8398,670.6563 125.7891,670.6563 Q126.6191,670.6563 127.3809,670.832 Q128.1426,671.0078 128.8066,671.3594 L128.8066,674.5625 Q128.0645,673.8789 127.3662,673.5615 Q126.668,673.2441 125.9258,673.2441 Q124.3438,673.2441 123.5381,674.499 Q122.7324,675.7539 122.7324,678.2246 Q122.7324,680.6855 123.5381,681.9404 Q124.3438,683.1953 125.9258,683.1953 Q126.668,683.1953 127.3662,682.8779 Q128.0645,682.5605 128.8066,681.877 Z " fill="#000000"/><text fill="#000000" font-family="sans-serif" font-size="20" lengthAdjust="spacing" textLength="225" x="148" y="685.5586">ManageStoreRepository</text><line style="stroke:#181818;stroke-width:0.5;" x1="35.5" x2="450.5" y1="695" y2="695"/><line style="stroke:#181818;stroke-width:0.5;" x1="35.5" x2="450.5" y1="703" y2="703"/><text fill="#000000" font-family="sans-serif" font-size="20" lengthAdjust="spacing" textLength="405" x="40.5" y="726.3359">+ManageStoreRepository(storeRepository)</text><text fill="#000000" font-family="sans-serif" font-size="20" lengthAdjust="spacing" textLength="119" x="40.5" y="749.8906">+getStores()</text><text fill="#000000" font-family="sans-serif" font-size="20" lengthAdjust="spacing" textLength="307" x="40.5" y="773.4453">-getStoreByOption(storeOption)</text></g><!--class ManageRoleRepository--><g id="elem_ManageRoleRepository"><rect codeLine="78" fill="#F1F1F1" height="120.6641" id="ManageRoleRepository" rx="2.5" ry="2.5" style="stroke:#181818;stroke-width:0.5;" width="399" x="1131.5" y="661"/><ellipse cx="1217.5" cy="678" fill="#ADD1B2" rx="12" ry="12" style="stroke:#181818;stroke-width:1.0;"/><path d="M1220.3066,685.0801 Q1219.623,685.4316 1218.8711,685.6074 Q1218.1191,685.7832 1217.2891,685.7832 Q1214.3398,685.7832 1212.7871,683.8398 Q1211.2344,681.8965 1211.2344,678.2246 Q1211.2344,674.543 1212.7871,672.5996 Q1214.3398,670.6563 1217.2891,670.6563 Q1218.1191,670.6563 1218.8809,670.832 Q1219.6426,671.0078 1220.3066,671.3594 L1220.3066,674.5625 Q1219.5645,673.8789 1218.8662,673.5615 Q1218.168,673.2441 1217.4258,673.2441 Q1215.8438,673.2441 1215.0381,674.499 Q1214.2324,675.7539 1214.2324,678.2246 Q1214.2324,680.6855 1215.0381,681.9404 Q1215.8438,683.1953 1217.4258,683.1953 Q1218.168,683.1953 1218.8662,682.8779 Q1219.5645,682.5605 1220.3066,681.877 Z " fill="#000000"/><text fill="#000000" font-family="sans-serif" font-size="20" lengthAdjust="spacing" textLength="218" x="1239.5" y="685.5586">ManageRoleRepository</text><line style="stroke:#181818;stroke-width:0.5;" x1="1132.5" x2="1529.5" y1="695" y2="695"/><line style="stroke:#181818;stroke-width:0.5;" x1="1132.5" x2="1529.5" y1="703" y2="703"/><text fill="#000000" font-family="sans-serif" font-size="20" lengthAdjust="spacing" textLength="387" x="1137.5" y="726.3359">+ManageRoleRepository(roleRepository)</text><text fill="#000000" font-family="sans-serif" font-size="20" lengthAdjust="spacing" textLength="112" x="1137.5" y="749.8906">+getRoles()</text><text fill="#000000" font-family="sans-serif" font-size="20" lengthAdjust="spacing" textLength="289" x="1137.5" y="773.4453">-getRoleByOption(roleOption)</text></g><!--class ManageEmployeeRepository--><g id="elem_ManageEmployeeRepository"><rect codeLine="85" fill="#F1F1F1" height="191.3281" id="ManageEmployeeRepository" rx="2.5" ry="2.5" style="stroke:#181818;stroke-width:0.5;" width="600" x="581" y="409"/><ellipse cx="742" cy="426" fill="#ADD1B2" rx="12" ry="12" style="stroke:#181818;stroke-width:1.0;"/><path d="M744.8066,433.0801 Q744.123,433.4316 743.3711,433.6074 Q742.6191,433.7832 741.7891,433.7832 Q738.8398,433.7832 737.2871,431.8398 Q735.7344,429.8965 735.7344,426.2246 Q735.7344,422.543 737.2871,420.5996 Q738.8398,418.6563 741.7891,418.6563 Q742.6191,418.6563 743.3809,418.832 Q744.1426,419.0078 744.8066,419.3594 L744.8066,422.5625 Q744.0645,421.8789 743.3662,421.5615 Q742.668,421.2441 741.9258,421.2441 Q740.3438,421.2441 739.5381,422.499 Q738.7324,423.7539 738.7324,426.2246 Q738.7324,428.6855 739.5381,429.9404 Q740.3438,431.1953 741.9258,431.1953 Q742.668,431.1953 743.3662,430.8779 Q744.0645,430.5605 744.8066,429.877 Z " fill="#000000"/><text fill="#000000" font-family="sans-serif" font-size="20" lengthAdjust="spacing" textLength="269" x="764" y="433.5586">ManageEmployeeRepository</text><line style="stroke:#181818;stroke-width:0.5;" x1="582" x2="1180" y1="443" y2="443"/><line style="stroke:#181818;stroke-width:0.5;" x1="582" x2="1180" y1="451" y2="451"/><text fill="#000000" font-family="sans-serif" font-size="20" lengthAdjust="spacing" textLength="494" x="587" y="474.3359">+ManageEmployeeRepository(employeeRepository)</text><text fill="#000000" font-family="sans-serif" font-size="20" lengthAdjust="spacing" textLength="588" x="587" y="497.8906">+registerEmployee(name, passportCardNumber, taxNumber,</text><text fill="#000000" font-family="sans-serif" font-size="20" lengthAdjust="spacing" textLength="521" x="593" y="521.4453">address, emailAddress, telephoneNumber, store, role)</text><text fill="#000000" font-family="sans-serif" font-size="20" lengthAdjust="spacing" textLength="287" x="587" y="545">-validateEmployee(employee)</text><text fill="#000000" font-family="sans-serif" font-size="20" lengthAdjust="spacing" textLength="193" x="587" y="568.5547">-createCredentials()</text><text fill="#000000" font-family="sans-serif" font-size="20" lengthAdjust="spacing" textLength="338" x="587" y="592.1094">-sendCredentials(email, password)</text></g><!--link RegisterEmployeeUI to RegisterNewEmployeeController--><g id="link_RegisterEmployeeUI_RegisterNewEmployeeController"><path codeLine="94" d="M881,57.07 C881,71.96 881,92.09 881,112.57 " fill="none" id="RegisterEmployeeUI-to-RegisterNewEmployeeController" style="stroke:#181818;stroke-width:1.0;stroke-dasharray:7.0,7.0;"/><polygon fill="#181818" points="881,117.78,885,108.78,881,112.78,877,108.78,881,117.78" style="stroke:#181818;stroke-width:1.0;"/></g><!--link Repositories to Repositories--><g id="link_Repositories_Repositories"><path codeLine="96" d="M899.32,929.74 C920.06,933.15 934,940.23 934,951 C934,960.84 922.35,967.61 904.51,971.3 " fill="none" id="Repositories-to-Repositories" style="stroke:#181818;stroke-width:1.0;"/><polygon fill="#181818" points="899.32,972.26,908.8998,974.5463,904.2357,971.3455,907.4365,966.6813,899.32,972.26" style="stroke:#181818;stroke-width:1.0;"/><text fill="#000000" font-family="sans-serif" font-size="20" lengthAdjust="spacing" textLength="79" x="940" y="958.8359">instance</text></g><!--link RegisterNewEmployeeController to ManageEmployeeRepository--><g id="link_RegisterNewEmployeeController_ManageEmployeeRepository"><path codeLine="98" d="M881,286.31 C881,322.71 881,365.71 881,403.8 " fill="none" id="RegisterNewEmployeeController-to-ManageEmployeeRepository" style="stroke:#181818;stroke-width:1.0;stroke-dasharray:7.0,7.0;"/><polygon fill="#181818" points="881,408.9,885,399.9,881,403.9,877,399.9,881,408.9" style="stroke:#181818;stroke-width:1.0;"/></g><!--link RegisterNewEmployeeController to ManageRoleRepository--><g id="link_RegisterNewEmployeeController_ManageRoleRepository"><path codeLine="99" d="M1009.43,286.19 C1097.68,343.37 1199,409 1199,409 C1199,409 1264.99,564.74 1303.66,655.97 " fill="none" id="RegisterNewEmployeeController-to-ManageRoleRepository" style="stroke:#181818;stroke-width:1.0;stroke-dasharray:7.0,7.0;"/><polygon fill="#181818" points="1305.71,660.81,1305.8782,650.9626,1303.7576,656.2069,1298.5133,654.0864,1305.71,660.81" style="stroke:#181818;stroke-width:1.0;"/></g><!--link RegisterNewEmployeeController to ManageStoreRepository--><g id="link_RegisterNewEmployeeController_ManageStoreRepository"><path codeLine="100" d="M752.57,286.19 C664.32,343.37 563,409 563,409 C563,409 401.74,565.98 308.17,657.06 " fill="none" id="RegisterNewEmployeeController-to-ManageStoreRepository" style="stroke:#181818;stroke-width:1.0;stroke-dasharray:7.0,7.0;"/><polygon fill="#181818" points="304.32,660.81,313.5546,657.3864,307.8982,657.3177,307.9669,651.6612,304.32,660.81" style="stroke:#181818;stroke-width:1.0;"/></g><!--link ManageStoreRepository to Repositories--><g id="link_ManageStoreRepository_Repositories"><path codeLine="102" d="M451.8,763.13 C573.41,786.79 703,812 703,812 C703,812 711.66,834.98 721.91,862.18 " fill="none" id="ManageStoreRepository-to-Repositories" style="stroke:#181818;stroke-width:1.0;stroke-dasharray:7.0,7.0;"/><polygon fill="#181818" points="723.7,866.94,724.259,857.107,721.9319,862.2631,716.7758,859.936,723.7,866.94" style="stroke:#181818;stroke-width:1.0;"/><text fill="#000000" font-family="sans-serif" font-size="20" lengthAdjust="spacing" textLength="114" x="713" y="832.3359">repositories</text></g><!--link ManageRoleRepository to Repositories--><g id="link_ManageRoleRepository_Repositories"><path codeLine="103" d="M1180.04,782.12 C1094.82,815.78 988.73,857.69 903.85,891.21 " fill="none" id="ManageRoleRepository-to-Repositories" style="stroke:#181818;stroke-width:1.0;stroke-dasharray:7.0,7.0;"/><polygon fill="#181818" points="899.06,893.1,908.9008,893.4975,903.7073,891.2554,905.9494,886.0618,899.06,893.1" style="stroke:#181818;stroke-width:1.0;"/><text fill="#000000" font-family="sans-serif" font-size="20" lengthAdjust="spacing" textLength="114" x="1096" y="832.3359">repositories</text></g><!--link ManageEmployeeRepository to Repositories--><g id="link_ManageEmployeeRepository_Repositories"><path codeLine="104" d="M868.17,600.05 C854.86,698.03 836,837 836,837 C836,837 828.27,847.78 817.59,862.68 " fill="none" id="ManageEmployeeRepository-to-Repositories" style="stroke:#181818;stroke-width:1.0;stroke-dasharray:7.0,7.0;"/><polygon fill="#181818" points="814.51,866.99,823.0093,862.0139,817.427,862.9291,816.5119,857.3467,814.51,866.99" style="stroke:#181818;stroke-width:1.0;"/><text fill="#000000" font-family="sans-serif" font-size="20" lengthAdjust="spacing" textLength="114" x="861" y="729.3359">repositories</text></g><!--link ManageStoreRepository to StoreRepository--><g id="link_ManageStoreRepository_StoreRepository"><path codeLine="107" d="M249.53,782.06 C263.82,912.25 297.63,1220.41 311.21,1344.18 " fill="none" id="ManageStoreRepository-to-StoreRepository" style="stroke:#181818;stroke-width:1.0;stroke-dasharray:7.0,7.0;"/><polygon fill="#181818" points="311.76,1349.22,314.7594,1339.839,311.2172,1344.2495,306.8067,1340.7074,311.76,1349.22" style="stroke:#181818;stroke-width:1.0;"/><text fill="#000000" font-family="sans-serif" font-size="20" lengthAdjust="spacing" textLength="151" x="284" y="1085.3359">StoreRepository</text></g><!--link ManageRoleRepository to RoleRepository--><g id="link_ManageRoleRepository_RoleRepository"><path codeLine="108" d="M1321.07,782.16 C1304.74,880.29 1274,1065 1274,1065 C1274,1065 1255,1250.55 1245.41,1344.22 " fill="none" id="ManageRoleRepository-to-RoleRepository" style="stroke:#181818;stroke-width:1.0;stroke-dasharray:7.0,7.0;"/><polygon fill="#181818" points="1244.87,1349.43,1249.7749,1340.8894,1245.3845,1344.4565,1241.8173,1340.0662,1244.87,1349.43" style="stroke:#181818;stroke-width:1.0;"/><text fill="#000000" font-family="sans-serif" font-size="20" lengthAdjust="spacing" textLength="144" x="1275" y="1085.3359">RoleRepository</text></g><!--link ManageEmployeeRepository to EmployeeRepository--><g id="link_ManageEmployeeRepository_EmployeeRepository"><path codeLine="109" d="M762.7,600.17 C650.19,690.21 498,812 498,812 C498,812 498,837 498,837 C498,837 593,1035 593,1035 C593,1035 654.88,1081.22 702.16,1116.53 " fill="none" id="ManageEmployeeRepository-to-EmployeeRepository" style="stroke:#181818;stroke-width:1.0;stroke-dasharray:7.0,7.0;"/><polygon fill="#181818" points="706.39,1119.7,701.5753,1111.1082,702.3849,1116.7068,696.7863,1117.5164,706.39,1119.7" style="stroke:#181818;stroke-width:1.0;"/><text fill="#000000" font-family="sans-serif" font-size="20" lengthAdjust="spacing" textLength="195" x="499" y="832.3359">EmployeeRepository</text></g><!--link Repositories to StoreRepository--><g id="link_Repositories_StoreRepository"><path codeLine="114" d="M673.13,1035.18 C583.43,1126.31 442.39,1269.61 367.56,1345.64 " fill="none" id="Repositories-to-StoreRepository" style="stroke:#181818;stroke-width:1.0;"/><polygon fill="#181818" points="364.04,1349.21,373.2036,1345.6005,367.5469,1345.6461,367.5013,1339.9894,364.04,1349.21" style="stroke:#181818;stroke-width:1.0;"/><text fill="#000000" font-family="sans-serif" font-size="20" lengthAdjust="spacing" textLength="13" x="356.7409" y="1337.099">1</text></g><!--link Repositories to RoleRepository--><g id="link_Repositories_RoleRepository"><path codeLine="115" d="M845.66,1035.18 C944.98,1126.31 1101.16,1269.61 1184.02,1345.64 " fill="none" id="Repositories-to-RoleRepository" style="stroke:#181818;stroke-width:1.0;"/><polygon fill="#181818" points="1187.91,1349.21,1184.0055,1340.1682,1184.2343,1345.8204,1178.5821,1346.0492,1187.91,1349.21" style="stroke:#181818;stroke-width:1.0;"/><text fill="#000000" font-family="sans-serif" font-size="20" lengthAdjust="spacing" textLength="13" x="1166.6708" y="1337.099">1</text></g><!--link Repositories to EmployeeRepository--><g id="link_Repositories_EmployeeRepository"><path codeLine="116" d="M755,1035.27 C755,1062.72 755,1092.04 755,1114.92 " fill="none" id="Repositories-to-EmployeeRepository" style="stroke:#181818;stroke-width:1.0;"/><polygon fill="#181818" points="755,1119.99,759,1110.99,755,1114.99,751,1110.99,755,1119.99" style="stroke:#181818;stroke-width:1.0;"/><text fill="#000000" font-family="sans-serif" font-size="20" lengthAdjust="spacing" textLength="13" x="740.8422" y="1107.7742">1</text></g><!--link StoreRepository to Store--><g id="link_StoreRepository_Store"><path codeLine="123" d="M317,1446.55 C317,1487.32 317,1547.14 317,1596.67 " fill="none" id="StoreRepository-to-Store" style="stroke:#181818;stroke-width:1.0;"/><polygon fill="#181818" points="317,1601.73,321,1592.73,317,1596.73,313,1592.73,317,1601.73" style="stroke:#181818;stroke-width:1.0;"/><text fill="#000000" font-family="sans-serif" font-size="20" lengthAdjust="spacing" textLength="48" x="318" y="1567.3359">store</text><text fill="#000000" font-family="sans-serif" font-size="20" lengthAdjust="spacing" textLength="13" x="303.1266" y="1473.9851">1</text><text fill="#000000" font-family="sans-serif" font-size="20" lengthAdjust="spacing" textLength="10" x="306.5703" y="1589.8693">*</text></g><!--link RoleRepository to Role--><g id="link_RoleRepository_Role"><path codeLine="124" d="M1240,1446.55 C1240,1497.79 1240,1579.12 1240,1632.28 " fill="none" id="RoleRepository-to-Role" style="stroke:#181818;stroke-width:1.0;"/><polygon fill="#181818" points="1240,1637.34,1244,1628.34,1240,1632.34,1236,1628.34,1240,1637.34" style="stroke:#181818;stroke-width:1.0;"/><text fill="#000000" font-family="sans-serif" font-size="20" lengthAdjust="spacing" textLength="37" x="1241" y="1567.3359">role</text><text fill="#000000" font-family="sans-serif" font-size="20" lengthAdjust="spacing" textLength="13" x="1226.1266" y="1473.9851">1</text><text fill="#000000" font-family="sans-serif" font-size="20" lengthAdjust="spacing" textLength="10" x="1229.2969" y="1625.2472">*</text></g><!--link EmployeeRepository to Employee--><g id="link_EmployeeRepository_Employee"><path codeLine="125" d="M759.22,1194.04 C761.76,1215.67 765.15,1244.6 768.57,1273.82 " fill="none" id="EmployeeRepository-to-Employee" style="stroke:#181818;stroke-width:1.0;"/><polygon fill="#181818" points="769.16,1278.89,772.0795,1269.4838,768.575,1273.9243,764.1344,1270.4198,769.16,1278.89" style="stroke:#181818;stroke-width:1.0;"/><text fill="#000000" font-family="sans-serif" font-size="20" lengthAdjust="spacing" textLength="93" x="766" y="1244.3359">employee</text><text fill="#000000" font-family="sans-serif" font-size="20" lengthAdjust="spacing" textLength="13" x="745.8709" y="1220.8852">1</text><text fill="#000000" font-family="sans-serif" font-size="20" lengthAdjust="spacing" textLength="10" x="757.9531" y="1266.8625">*</text></g><!--link ManageStoreRepository to Store--><g id="link_ManageStoreRepository_Store"><path codeLine="127" d="M205.95,782.27 C164.18,849.68 102,950 102,950 C102,950 102,950 102,1399 C102,1399 138,1517 138,1517 C138,1517 181,1557.36 224.85,1598.51 " fill="none" id="ManageStoreRepository-to-Store" style="stroke:#181818;stroke-width:1.0;"/><polygon fill="#181818" points="228.55,1601.98,224.7187,1592.9069,224.9019,1598.5608,219.248,1598.7439,228.55,1601.98" style="stroke:#181818;stroke-width:1.0;"/><text fill="#000000" font-family="sans-serif" font-size="20" lengthAdjust="spacing" textLength="48" x="103" y="1164.8359">store</text><text fill="#000000" font-family="sans-serif" font-size="20" lengthAdjust="spacing" textLength="13" x="188.4589" y="809.1047">1</text><text fill="#000000" font-family="sans-serif" font-size="20" lengthAdjust="spacing" textLength="10" x="210.2271" y="1589.8435">*</text></g><!--link ManageRoleRepository to Role--><g id="link_ManageRoleRepository_Role"><path codeLine="128" d="M1361.21,782.27 C1395.29,849.68 1446,950 1446,950 C1446,950 1446,950 1446,1399 C1446,1399 1410,1517 1410,1517 C1410,1517 1341.83,1584.37 1291.83,1633.78 " fill="none" id="ManageRoleRepository-to-Role" style="stroke:#181818;stroke-width:1.0;"/><polygon fill="#181818" points="1288.26,1637.31,1297.4736,1633.8302,1291.8169,1633.796,1291.8512,1628.1392,1288.26,1637.31" style="stroke:#181818;stroke-width:1.0;"/><text fill="#000000" font-family="sans-serif" font-size="20" lengthAdjust="spacing" textLength="37" x="1447" y="1164.8359">role</text><text fill="#000000" font-family="sans-serif" font-size="20" lengthAdjust="spacing" textLength="13" x="1350.6551" y="809.1047">1</text><text fill="#000000" font-family="sans-serif" font-size="20" lengthAdjust="spacing" textLength="10" x="1284.3434" y="1625.213">*</text></g><!--link ManageEmployeeRepository to Employee--><g id="link_ManageEmployeeRepository_Employee"><path codeLine="129" d="M967.69,600.12 C1020.55,657.8 1078,720.5 1078,720.5 C1078,720.5 1078,720.5 1078,1078.5 C1078,1078.5 979.14,1185.23 895.88,1275.13 " fill="none" id="ManageEmployeeRepository-to-Employee" style="stroke:#181818;stroke-width:1.0;"/><polygon fill="#181818" points="892.43,1278.85,901.48,1274.9645,895.8273,1275.1815,895.6104,1269.5288,892.43,1278.85" style="stroke:#181818;stroke-width:1.0;"/><text fill="#000000" font-family="sans-serif" font-size="20" lengthAdjust="spacing" textLength="93" x="1079" y="958.8359">employee</text><text fill="#000000" font-family="sans-serif" font-size="20" lengthAdjust="spacing" textLength="13" x="960.8295" y="627.666">1</text><text fill="#000000" font-family="sans-serif" font-size="20" lengthAdjust="spacing" textLength="10" x="889.12" y="1266.8199">*</text></g><!--link Employee to Store--><g id="link_Employee_Store"><path codeLine="132" d="M590.43,1517.18 C545.62,1544.69 498.75,1573.45 456.73,1599.25 " fill="none" id="Employee-to-Store" style="stroke:#181818;stroke-width:1.0;"/><polygon fill="#181818" points="452.41,1601.89,462.1725,1600.5889,456.6707,1599.2735,457.9861,1593.7717,452.41,1601.89" style="stroke:#181818;stroke-width:1.0;"/><text fill="#000000" font-family="sans-serif" font-size="20" lengthAdjust="spacing" textLength="10" x="567.7732" y="1544.8914">*</text><text fill="#000000" font-family="sans-serif" font-size="20" lengthAdjust="spacing" textLength="13" x="450.891" y="1589.7455">1</text></g><!--link Employee to Role--><g id="link_Employee_Role"><path codeLine="133" d="M971.85,1517.18 C1037.45,1558.24 1107.55,1602.11 1159.62,1634.7 " fill="none" id="Employee-to-Role" style="stroke:#181818;stroke-width:1.0;"/><polygon fill="#181818" points="1163.97,1637.42,1158.4654,1629.253,1159.7324,1634.7662,1154.2193,1636.0332,1163.97,1637.42" style="stroke:#181818;stroke-width:1.0;"/><text fill="#000000" font-family="sans-serif" font-size="20" lengthAdjust="spacing" textLength="13" x="970.5318" y="1544.8914">1</text><text fill="#000000" font-family="sans-serif" font-size="20" lengthAdjust="spacing" textLength="35" x="1115.8173" y="1625.3385">1..*</text></g><!--SRC=[lLOxRzim4DxvAuWiKMfRI3fg2906AU2XQH6ZMnT6kZY4AL8WwQPgqVzUFlIWACe92hGUPEcUttrtHqaTA6-893KJvG4gNC4JEJBzKN2zepy1lxz4vwgtmRNWedoMeWQivH7Gg6b8UI1xsEcM0PPGQiBtB3HGpwGIBvJlyHDXAjGmoa6t3U16iDO-X1a7fP1QeC2hP4If6wqbVJngs9Q2ExoN23aDlgiR9be0_0jXyzlWdJ4rsJcfOIhHmA1v5XpkZ_KZo4vvLnFACDXh9_bYmZO6nYsHbQbtV9ZuxKH92Tj1UPHKjyvManyJavkgac0W4l_lfESMZf20bRtseWTXsJGNv2IheQhCbh5Ee5YFsTRVU9zYxGkvwP-YajS-wzgbka2_UmuzeeZ02XJTSwAfu7_7Orn-LvfBbWNHOz1a0Nq0sF5r0c-Nofg5cLo4iEO7Q8IYvgxjegtm7hHJVMW_DzOdSvJv-ul8HcKHfdGygnd2MUfdqQp595ZV_rd0ZM5d60xeRa8KlGC5DJ0K2hCWxPOhixybP1Uuc1XDaOqWifY1j6gEVa8KxAdI8E_XfJUyDSUG8OQ177WxQPMbEZ5Zqmja5-YVhfJlg5-ilhlpYdi8NxUcp47xYN1tegRdCQdrGpa-Bz6nUMMSOn0BCvnIka5E8WZftvoS_t4RVOR5gLyj6WmxC8VoNnhVdwMksE-4qOfeI2oeqvSIZFPMGWLScxV7m982NeLYbzb3VH6oyambfYWthrgUNvzU5kiP70gRw-aXKM3Q7GDZYlHgvhb9jTI8j_jEv-ZjVj4E89HUd3oV5IZ3eoqvwMzpIipdQuxBAArdB2rYoH9QctKgAoB1ASZMFQ4e4aA4K3m_Pe3EhivcI2EZpchMx4IaXQm8nVHOO-Vqhajl8Fllg8YCqD1zAnJ-wofHT6WwV4iMkD_SfVujGqbsR0dGOfDUXJNKuamcJGbKVPIhFEyoe_7t1m00]--></g></svg>