<?xml version="1.0" encoding="UTF-8" standalone="no"?><svg xmlns="http://www.w3.org/2000/svg" xmlns:xlink="http://www.w3.org/1999/xlink" contentStyleType="text/css" height="617px" preserveAspectRatio="none" style="width:739px;height:617px;background:#FFFFFF;" version="1.1" viewBox="0 0 739 617" width="739px" zoomAndPan="magnify"><defs/><g><text fill="#000000" font-family="sans-serif" font-size="14" font-weight="bold" lengthAdjust="spacing" textLength="295" x="223" y="28.5352">System Sequence Diagram (SSD) - US011</text><rect fill="#FFFFFF" height="384.6563" style="stroke:#181818;stroke-width:1.0;" width="10" x="46" y="136.043"/><rect fill="#FFFFFF" height="37.5547" style="stroke:#181818;stroke-width:1.0;" width="10" x="673" y="189.1523"/><rect fill="#FFFFFF" height="37.5547" style="stroke:#181818;stroke-width:1.0;" width="10" x="673" y="264.2617"/><rect fill="#FFFFFF" height="165.3281" style="stroke:#181818;stroke-width:1.0;" width="10" x="673" y="339.3711"/><rect fill="none" height="158.3281" style="stroke:#000000;stroke-width:1.5;" width="722" x="10" y="354.3711"/><line style="stroke:#181818;stroke-width:0.5;stroke-dasharray:5.0,5.0;" x1="51" x2="51" y1="126.043" y2="529.6992"/><line style="stroke:#181818;stroke-width:0.5;stroke-dasharray:5.0,5.0;" x1="678" x2="678" y1="126.043" y2="529.6992"/><text fill="#000000" font-family="sans-serif" font-size="20" lengthAdjust="spacing" textLength="56" x="20" y="121.8242">Agent</text><ellipse cx="51" cy="50.9883" fill="#E3E3E3" rx="8" ry="8" style="stroke:#181818;stroke-width:0.5;"/><path d="M51,58.9883 L51,85.9883 M38,66.9883 L64,66.9883 M51,85.9883 L38,100.9883 M51,85.9883 L64,100.9883 " fill="none" style="stroke:#181818;stroke-width:0.5;"/><text fill="#000000" font-family="sans-serif" font-size="20" lengthAdjust="spacing" textLength="56" x="20" y="548.0352">Agent</text><ellipse cx="51" cy="560.7539" fill="#E3E3E3" rx="8" ry="8" style="stroke:#181818;stroke-width:0.5;"/><path d="M51,568.7539 L51,595.7539 M38,576.7539 L64,576.7539 M51,595.7539 L38,610.7539 M51,595.7539 L64,610.7539 " fill="none" style="stroke:#181818;stroke-width:0.5;"/><rect fill="#E3E3E3" height="37.5547" rx="2.5" ry="2.5" style="stroke:#181818;stroke-width:0.5;" width="88" x="634" y="87.4883"/><text fill="#000000" font-family="sans-serif" font-size="20" lengthAdjust="spacing" textLength="74" x="641" y="113.8242">:System</text><rect fill="#E3E3E3" height="37.5547" rx="2.5" ry="2.5" style="stroke:#181818;stroke-width:0.5;" width="88" x="634" y="528.6992"/><text fill="#000000" font-family="sans-serif" font-size="20" lengthAdjust="spacing" textLength="74" x="641" y="555.0352">:System</text><rect fill="#FFFFFF" height="384.6563" style="stroke:#181818;stroke-width:1.0;" width="10" x="46" y="136.043"/><rect fill="#FFFFFF" height="37.5547" style="stroke:#181818;stroke-width:1.0;" width="10" x="673" y="189.1523"/><rect fill="#FFFFFF" height="37.5547" style="stroke:#181818;stroke-width:1.0;" width="10" x="673" y="264.2617"/><rect fill="#FFFFFF" height="165.3281" style="stroke:#181818;stroke-width:1.0;" width="10" x="673" y="339.3711"/><polygon fill="#181818" points="661,185.1523,671,189.1523,661,193.1523,665,189.1523" style="stroke:#181818;stroke-width:1.0;"/><line style="stroke:#181818;stroke-width:1.0;" x1="56" x2="667" y1="189.1523" y2="189.1523"/><text fill="#000000" font-family="sans-serif" font-size="20" font-weight="bold" lengthAdjust="spacing" textLength="13" x="63" y="171.1563">1</text><text fill="#000000" font-family="sans-serif" font-size="20" lengthAdjust="spacing" textLength="458" x="80" y="159.3789">asks to see the purchase order list of properties</text><text fill="#000000" font-family="sans-serif" font-size="20" lengthAdjust="spacing" textLength="205" x="80" y="182.9336">assigned to the agent</text><polygon fill="#181818" points="67,222.707,57,226.707,67,230.707,63,226.707" style="stroke:#181818;stroke-width:1.0;"/><line style="stroke:#181818;stroke-width:1.0;stroke-dasharray:2.0,2.0;" x1="61" x2="677" y1="226.707" y2="226.707"/><text fill="#000000" font-family="sans-serif" font-size="20" font-weight="bold" lengthAdjust="spacing" textLength="13" x="73" y="220.4883">2</text><text fill="#000000" font-family="sans-serif" font-size="20" lengthAdjust="spacing" textLength="265" x="90" y="220.4883">displays purchase order list</text><polygon fill="#181818" points="661,260.2617,671,264.2617,661,268.2617,665,264.2617" style="stroke:#181818;stroke-width:1.0;"/><line style="stroke:#181818;stroke-width:1.0;" x1="56" x2="667" y1="264.2617" y2="264.2617"/><text fill="#000000" font-family="sans-serif" font-size="20" font-weight="bold" lengthAdjust="spacing" textLength="13" x="63" y="258.043">3</text><text fill="#000000" font-family="sans-serif" font-size="20" lengthAdjust="spacing" textLength="257" x="80" y="258.043">selects one purchase order</text><polygon fill="#181818" points="67,297.8164,57,301.8164,67,305.8164,63,301.8164" style="stroke:#181818;stroke-width:1.0;"/><line style="stroke:#181818;stroke-width:1.0;stroke-dasharray:2.0,2.0;" x1="61" x2="677" y1="301.8164" y2="301.8164"/><text fill="#000000" font-family="sans-serif" font-size="20" font-weight="bold" lengthAdjust="spacing" textLength="13" x="73" y="295.5977">4</text><text fill="#000000" font-family="sans-serif" font-size="20" lengthAdjust="spacing" textLength="526" x="90" y="295.5977">shows purchase order and asks if approved or rejected</text><polygon fill="#181818" points="661,335.3711,671,339.3711,661,343.3711,665,339.3711" style="stroke:#181818;stroke-width:1.0;"/><line style="stroke:#181818;stroke-width:1.0;" x1="56" x2="667" y1="339.3711" y2="339.3711"/><text fill="#000000" font-family="sans-serif" font-size="20" font-weight="bold" lengthAdjust="spacing" textLength="13" x="63" y="333.1523">5</text><text fill="#000000" font-family="sans-serif" font-size="20" lengthAdjust="spacing" textLength="290" x="80" y="333.1523">selects if approved or rejected</text><path d="M10,354.3711 L82,354.3711 L82,369.9258 L72,379.9258 L10,379.9258 L10,354.3711 " fill="#EEEEEE" style="stroke:#000000;stroke-width:1.5;"/><rect fill="none" height="158.3281" style="stroke:#000000;stroke-width:1.5;" width="722" x="10" y="354.3711"/><text fill="#000000" font-family="sans-serif" font-size="20" font-weight="bold" lengthAdjust="spacing" textLength="27" x="25" y="374.707">alt</text><text fill="#000000" font-family="sans-serif" font-size="20" font-weight="bold" lengthAdjust="spacing" textLength="287" x="97" y="375.707">[purchase order is rejected]</text><polygon fill="#181818" points="67,414.0352,57,418.0352,67,422.0352,63,418.0352" style="stroke:#181818;stroke-width:1.0;"/><line style="stroke:#181818;stroke-width:1.0;stroke-dasharray:2.0,2.0;" x1="61" x2="672" y1="418.0352" y2="418.0352"/><text fill="#000000" font-family="sans-serif" font-size="20" font-weight="bold" lengthAdjust="spacing" textLength="13" x="73" y="411.8164">6</text><text fill="#000000" font-family="sans-serif" font-size="20" lengthAdjust="spacing" textLength="463" x="90" y="411.8164">notifies client and confirms success of operation</text><line style="stroke:#000000;stroke-width:1.0;stroke-dasharray:2.0,2.0;" x1="10" x2="732" y1="427.0352" y2="427.0352"/><text fill="#000000" font-family="sans-serif" font-size="20" font-weight="bold" lengthAdjust="spacing" textLength="300" x="15" y="446.3711">[purchase order is approved]</text><polygon fill="#181818" points="67,500.6992,57,504.6992,67,508.6992,63,504.6992" style="stroke:#181818;stroke-width:1.0;"/><line style="stroke:#181818;stroke-width:1.0;stroke-dasharray:2.0,2.0;" x1="61" x2="677" y1="504.6992" y2="504.6992"/><text fill="#000000" font-family="sans-serif" font-size="20" font-weight="bold" lengthAdjust="spacing" textLength="13" x="73" y="486.7031">7</text><text fill="#000000" font-family="sans-serif" font-size="20" lengthAdjust="spacing" textLength="576" x="90" y="474.9258">notifies clients, declines remaining orders for advertisement</text><text fill="#000000" font-family="sans-serif" font-size="20" lengthAdjust="spacing" textLength="328" x="90" y="498.4805">and confirms success of operation</text><!--SRC=[dLD1Rjmm3Bpx5SIUMg0B93tkeK21e1ymSkk5aMYRNPboH7g3pUjBsNKQ98ik6fraQJWp7CfwP9cmu9XoE5A4I1tEoNvaiPQV2RxUDBf1OCoImr3oI61bfbSt4uOZzjJQEH4K2eRIfzS07J3c9vOUEanAJMDi3ctFQZH2IuypII2uO-mh_5FRtds6FTotDxUtJOEpPPd71ogDVmJB1NRVUnBR0IhSgv-xZ77W2SLWTrXvbzjrkvJn2OrMU0E-wWxstpON1uSV5Io3adSu44np2GCgGIxHeOdL87SmbJoHov7-55JbNZmvBwibM6qjx7MzY6ukjei_adjNNrmS8B9E2SzwIVIbBD95ndUDA2KVWaAMjqryn9eE-UcTBvIuviKTuEIHd3m47qoXNovDySEUh_5TPCDaRmso_gtzHtEIZJiV9OJ4Fhgbhv2bup8gw1m2gTQXrv6ZSPQLZFmLNr3SdF-7edxnY7mhL0sFo59_auLHeVC4C9xgQrCQ7Uqlxgh1AycJnEOt]--></g></svg>