<?xml version="1.0" encoding="UTF-8" standalone="no"?><svg xmlns="http://www.w3.org/2000/svg" xmlns:xlink="http://www.w3.org/1999/xlink" contentStyleType="text/css" height="851px" preserveAspectRatio="none" style="width:818px;height:851px;background:#FFFFFF;" version="1.1" viewBox="0 0 818 851" width="818px" zoomAndPan="magnify"><defs/><g><text fill="#000000" font-family="sans-serif" font-size="14" font-weight="bold" lengthAdjust="spacing" textLength="300" x="260.5" y="28.5352">System Sequence Diagram (SSD) - US 004</text><rect fill="#FFFFFF" height="618.5391" style="stroke:#181818;stroke-width:1.0;" width="10" x="59" y="136.043"/><rect fill="#FFFFFF" height="61.1094" style="stroke:#181818;stroke-width:1.0;" width="10" x="743" y="165.5977"/><rect fill="#FFFFFF" height="37.5547" style="stroke:#181818;stroke-width:1.0;" width="10" x="743" y="264.2617"/><rect fill="#FFFFFF" height="78.6641" style="stroke:#181818;stroke-width:1.0;" width="10" x="743" y="362.9258"/><rect fill="#FFFFFF" height="78.6641" style="stroke:#181818;stroke-width:1.0;" width="10" x="743" y="502.6992"/><rect fill="#FFFFFF" height="51.5547" style="stroke:#181818;stroke-width:1.0;" width="10" x="743" y="618.918"/><rect fill="#FFFFFF" height="37.5547" style="stroke:#181818;stroke-width:1.0;" width="10" x="743" y="708.0273"/><rect fill="none" height="255.9922" style="stroke:#000000;stroke-width:1.5;" width="802" x="10" y="377.9258"/><rect fill="none" height="109.2188" style="stroke:#000000;stroke-width:1.5;" width="782" x="20" y="517.6992"/><line style="stroke:#181818;stroke-width:0.5;stroke-dasharray:5.0,5.0;" x1="64" x2="64" y1="126.043" y2="763.582"/><line style="stroke:#181818;stroke-width:0.5;stroke-dasharray:5.0,5.0;" x1="748" x2="748" y1="126.043" y2="763.582"/><text fill="#000000" font-family="sans-serif" font-size="20" lengthAdjust="spacing" textLength="62" x="30" y="121.8242">Owner</text><ellipse cx="64" cy="50.9883" fill="#E3E3E3" rx="8" ry="8" style="stroke:#181818;stroke-width:0.5;"/><path d="M64,58.9883 L64,85.9883 M51,66.9883 L77,66.9883 M64,85.9883 L51,100.9883 M64,85.9883 L77,100.9883 " fill="none" style="stroke:#181818;stroke-width:0.5;"/><text fill="#000000" font-family="sans-serif" font-size="20" lengthAdjust="spacing" textLength="62" x="30" y="781.918">Owner</text><ellipse cx="64" cy="794.6367" fill="#E3E3E3" rx="8" ry="8" style="stroke:#181818;stroke-width:0.5;"/><path d="M64,802.6367 L64,829.6367 M51,810.6367 L77,810.6367 M64,829.6367 L51,844.6367 M64,829.6367 L77,844.6367 " fill="none" style="stroke:#181818;stroke-width:0.5;"/><rect fill="#E3E3E3" height="37.5547" rx="2.5" ry="2.5" style="stroke:#181818;stroke-width:0.5;" width="88" x="704" y="87.4883"/><text fill="#000000" font-family="sans-serif" font-size="20" lengthAdjust="spacing" textLength="74" x="711" y="113.8242">:System</text><rect fill="#E3E3E3" height="37.5547" rx="2.5" ry="2.5" style="stroke:#181818;stroke-width:0.5;" width="88" x="704" y="762.582"/><text fill="#000000" font-family="sans-serif" font-size="20" lengthAdjust="spacing" textLength="74" x="711" y="788.918">:System</text><rect fill="#FFFFFF" height="618.5391" style="stroke:#181818;stroke-width:1.0;" width="10" x="59" y="136.043"/><rect fill="#FFFFFF" height="61.1094" style="stroke:#181818;stroke-width:1.0;" width="10" x="743" y="165.5977"/><rect fill="#FFFFFF" height="37.5547" style="stroke:#181818;stroke-width:1.0;" width="10" x="743" y="264.2617"/><rect fill="#FFFFFF" height="78.6641" style="stroke:#181818;stroke-width:1.0;" width="10" x="743" y="362.9258"/><rect fill="#FFFFFF" height="78.6641" style="stroke:#181818;stroke-width:1.0;" width="10" x="743" y="502.6992"/><rect fill="#FFFFFF" height="51.5547" style="stroke:#181818;stroke-width:1.0;" width="10" x="743" y="618.918"/><rect fill="#FFFFFF" height="37.5547" style="stroke:#181818;stroke-width:1.0;" width="10" x="743" y="708.0273"/><polygon fill="#181818" points="731,161.5977,741,165.5977,731,169.5977,735,165.5977" style="stroke:#181818;stroke-width:1.0;"/><line style="stroke:#181818;stroke-width:1.0;" x1="69" x2="737" y1="165.5977" y2="165.5977"/><text fill="#000000" font-family="sans-serif" font-size="20" font-weight="bold" lengthAdjust="spacing" textLength="13" x="76" y="159.3789">1</text><text fill="#000000" font-family="sans-serif" font-size="20" lengthAdjust="spacing" textLength="250" x="93" y="159.3789">asks to create property ad</text><polygon fill="#181818" points="80,222.707,70,226.707,80,230.707,76,226.707" style="stroke:#181818;stroke-width:1.0;"/><line style="stroke:#181818;stroke-width:1.0;stroke-dasharray:2.0,2.0;" x1="74" x2="747" y1="226.707" y2="226.707"/><text fill="#000000" font-family="sans-serif" font-size="20" font-weight="bold" lengthAdjust="spacing" textLength="13" x="86" y="208.7109">2</text><text fill="#000000" font-family="sans-serif" font-size="20" lengthAdjust="spacing" textLength="633" x="103" y="196.9336">shows list of agents and request's selected data (Type of Property,</text><text fill="#000000" font-family="sans-serif" font-size="20" lengthAdjust="spacing" textLength="430" x="109" y="220.4883">type of business)  and asks to select the data</text><polygon fill="#181818" points="731,260.2617,741,264.2617,731,268.2617,735,264.2617" style="stroke:#181818;stroke-width:1.0;"/><line style="stroke:#181818;stroke-width:1.0;" x1="69" x2="737" y1="264.2617" y2="264.2617"/><text fill="#000000" font-family="sans-serif" font-size="20" font-weight="bold" lengthAdjust="spacing" textLength="13" x="76" y="258.043">3</text><text fill="#000000" font-family="sans-serif" font-size="20" lengthAdjust="spacing" textLength="113" x="93" y="258.043">selects data</text><polygon fill="#181818" points="80,297.8164,70,301.8164,80,305.8164,76,301.8164" style="stroke:#181818;stroke-width:1.0;"/><line style="stroke:#181818;stroke-width:1.0;stroke-dasharray:2.0,2.0;" x1="74" x2="747" y1="301.8164" y2="301.8164"/><text fill="#000000" font-family="sans-serif" font-size="20" font-weight="bold" lengthAdjust="spacing" textLength="13" x="86" y="295.5977">4</text><text fill="#000000" font-family="sans-serif" font-size="20" lengthAdjust="spacing" textLength="130" x="103" y="295.5977">requests data</text><polygon fill="#181818" points="731,358.9258,741,362.9258,731,366.9258,735,362.9258" style="stroke:#181818;stroke-width:1.0;"/><line style="stroke:#181818;stroke-width:1.0;" x1="69" x2="737" y1="362.9258" y2="362.9258"/><text fill="#000000" font-family="sans-serif" font-size="20" font-weight="bold" lengthAdjust="spacing" textLength="13" x="76" y="344.9297">5</text><text fill="#000000" font-family="sans-serif" font-size="20" lengthAdjust="spacing" textLength="557" x="93" y="333.1523">types requested data (price, area, distCityCenter, address,</text><text fill="#000000" font-family="sans-serif" font-size="20" lengthAdjust="spacing" textLength="212" x="99" y="356.707">photographs(linkURI))</text><path d="M10,377.9258 L82,377.9258 L82,393.4805 L72,403.4805 L10,403.4805 L10,377.9258 " fill="#EEEEEE" style="stroke:#000000;stroke-width:1.5;"/><rect fill="none" height="255.9922" style="stroke:#000000;stroke-width:1.5;" width="802" x="10" y="377.9258"/><text fill="#000000" font-family="sans-serif" font-size="20" font-weight="bold" lengthAdjust="spacing" textLength="27" x="25" y="398.2617">alt</text><text fill="#000000" font-family="sans-serif" font-size="20" font-weight="bold" lengthAdjust="spacing" textLength="411" x="97" y="399.2617">[typeOfProperty = House or Apartment]</text><polygon fill="#181818" points="80,437.5898,70,441.5898,80,445.5898,76,441.5898" style="stroke:#181818;stroke-width:1.0;"/><line style="stroke:#181818;stroke-width:1.0;stroke-dasharray:2.0,2.0;" x1="74" x2="747" y1="441.5898" y2="441.5898"/><text fill="#000000" font-family="sans-serif" font-size="20" font-weight="bold" lengthAdjust="spacing" textLength="13" x="86" y="435.3711">6</text><text fill="#000000" font-family="sans-serif" font-size="20" lengthAdjust="spacing" textLength="130" x="103" y="435.3711">requests data</text><polygon fill="#181818" points="731,498.6992,741,502.6992,731,506.6992,735,502.6992" style="stroke:#181818;stroke-width:1.0;"/><line style="stroke:#181818;stroke-width:1.0;" x1="69" x2="737" y1="502.6992" y2="502.6992"/><text fill="#000000" font-family="sans-serif" font-size="20" font-weight="bold" lengthAdjust="spacing" textLength="13" x="76" y="484.7031">7</text><text fill="#000000" font-family="sans-serif" font-size="20" lengthAdjust="spacing" textLength="623" x="93" y="472.9258">types requested data (nBedrooms, nBathRooms, nParkingSpaces,</text><text fill="#000000" font-family="sans-serif" font-size="20" lengthAdjust="spacing" textLength="225" x="99" y="496.4805">EquipmentDesignation)</text><path d="M20,517.6992 L92,517.6992 L92,533.2539 L82,543.2539 L20,543.2539 L20,517.6992 " fill="#EEEEEE" style="stroke:#000000;stroke-width:1.5;"/><rect fill="none" height="109.2188" style="stroke:#000000;stroke-width:1.5;" width="782" x="20" y="517.6992"/><text fill="#000000" font-family="sans-serif" font-size="20" font-weight="bold" lengthAdjust="spacing" textLength="27" x="35" y="538.0352">alt</text><text fill="#000000" font-family="sans-serif" font-size="20" font-weight="bold" lengthAdjust="spacing" textLength="266" x="107" y="539.0352">[typeOfProperty = House]</text><polygon fill="#181818" points="80,577.3633,70,581.3633,80,585.3633,76,581.3633" style="stroke:#181818;stroke-width:1.0;"/><line style="stroke:#181818;stroke-width:1.0;stroke-dasharray:2.0,2.0;" x1="74" x2="747" y1="581.3633" y2="581.3633"/><text fill="#000000" font-family="sans-serif" font-size="20" font-weight="bold" lengthAdjust="spacing" textLength="13" x="86" y="575.1445">8</text><text fill="#000000" font-family="sans-serif" font-size="20" lengthAdjust="spacing" textLength="130" x="103" y="575.1445">requests data</text><polygon fill="#181818" points="731,614.918,741,618.918,731,622.918,735,618.918" style="stroke:#181818;stroke-width:1.0;"/><line style="stroke:#181818;stroke-width:1.0;" x1="69" x2="737" y1="618.918" y2="618.918"/><text fill="#000000" font-family="sans-serif" font-size="20" font-weight="bold" lengthAdjust="spacing" textLength="13" x="76" y="612.6992">9</text><text fill="#000000" font-family="sans-serif" font-size="20" lengthAdjust="spacing" textLength="499" x="93" y="612.6992">types requested data (SunExposure, Basement, Loft)</text><polygon fill="#181818" points="80,666.4727,70,670.4727,80,674.4727,76,670.4727" style="stroke:#181818;stroke-width:1.0;"/><line style="stroke:#181818;stroke-width:1.0;stroke-dasharray:2.0,2.0;" x1="74" x2="747" y1="670.4727" y2="670.4727"/><text fill="#000000" font-family="sans-serif" font-size="20" font-weight="bold" lengthAdjust="spacing" textLength="26" x="86" y="664.2539">10</text><text fill="#000000" font-family="sans-serif" font-size="20" lengthAdjust="spacing" textLength="336" x="116" y="664.2539">shows selected and requested data</text><polygon fill="#181818" points="731,704.0273,741,708.0273,731,712.0273,735,708.0273" style="stroke:#181818;stroke-width:1.0;"/><line style="stroke:#181818;stroke-width:1.0;" x1="69" x2="737" y1="708.0273" y2="708.0273"/><text fill="#000000" font-family="sans-serif" font-size="20" font-weight="bold" lengthAdjust="spacing" textLength="26" x="76" y="701.8086">11</text><text fill="#000000" font-family="sans-serif" font-size="20" lengthAdjust="spacing" textLength="125" x="106" y="701.8086">submits data</text><polygon fill="#181818" points="80,741.582,70,745.582,80,749.582,76,745.582" style="stroke:#181818;stroke-width:1.0;"/><line style="stroke:#181818;stroke-width:1.0;stroke-dasharray:2.0,2.0;" x1="74" x2="747" y1="745.582" y2="745.582"/><text fill="#000000" font-family="sans-serif" font-size="20" font-weight="bold" lengthAdjust="spacing" textLength="26" x="86" y="739.3633">12</text><text fill="#000000" font-family="sans-serif" font-size="20" lengthAdjust="spacing" textLength="226" x="116" y="739.3633">show operation success</text><!--SRC=[dLDDRzim3BtxLn2zB0OI81Xs2h01IzDX0mQqgDVRBep5s49iIHNfPTcl7_sL1ckJDTM9biZ7znvDtbeNC69T-NnB1WnjiAdaYtUIsJy4x-S9ZobGU-VpClgQG693Hoy1yoqMbCc-8eYK2xgYEaxW4etVMLV01Ykc914hcfhjMQY6Z1uRSZd1ocBHfa-oR9N231uocCy_90asubrJhobgd8kFS7MxSnIl01cwAD4-OdCRq0bSBNhWxhaFkphx2uM6_0JqT27CFer45bgmPH0FUQGsDqGVACeUq7G51v0H5OOp0CmKgmTTg6Q_OwWi2_WDg3rE6D0PDKZbihnZOAhKhDPt58J9ZtsWDlTkw3hzwK26ktN3rX5p2Xt6oBD702cfm-Zu67gHvdEnVJ4_LLuYRr31R-ZRQk8HuA0-H9lJ552Tdu9HswwjxA_LDOfwQqnKzQqZeVJYzJS99KygwxOFzz_Iz3HzhAHhUBiPROMFyDKthBP6-Dp-DxKswPDVfVECralqkYMPw7tDKt1BbF9-YEymwjuKcIuLTO9l7XiRMeuhObiu5EjTUcXtaiTfuHVEzVYSqVrwvLdZRdu7pqtKUI-HgHKtXUz-8-cpZcSK0f0p_tpzVoCFItUqYmEr2zUdMTVshUlJSe5sBDqu5IlNQVFB1Fu2]--></g></svg>