<?xml version="1.0" encoding="UTF-8" standalone="no"?><svg xmlns="http://www.w3.org/2000/svg" xmlns:xlink="http://www.w3.org/1999/xlink" contentStyleType="text/css" height="1467px" preserveAspectRatio="none" style="width:2194px;height:1467px;background:#FFFFFF;" version="1.1" viewBox="0 0 2194 1467" width="2194px" zoomAndPan="magnify"><defs/><g><!--class RegisterEmployeeUI--><g id="elem_RegisterEmployeeUI"><rect codeLine="8" fill="#F1F1F1" height="50" id="RegisterEmployeeUI" rx="2.5" ry="2.5" style="stroke:#181818;stroke-width:0.5;" width="225" x="1464" y="7"/><ellipse cx="1480" cy="24" fill="#ADD1B2" rx="12" ry="12" style="stroke:#181818;stroke-width:1.0;"/><path d="M1482.8066,31.0801 Q1482.123,31.4316 1481.3711,31.6074 Q1480.6191,31.7832 1479.7891,31.7832 Q1476.8398,31.7832 1475.2871,29.8398 Q1473.7344,27.8965 1473.7344,24.2246 Q1473.7344,20.543 1475.2871,18.5996 Q1476.8398,16.6563 1479.7891,16.6563 Q1480.6191,16.6563 1481.3809,16.832 Q1482.1426,17.0078 1482.8066,17.3594 L1482.8066,20.5625 Q1482.0645,19.8789 1481.3662,19.5615 Q1480.668,19.2441 1479.9258,19.2441 Q1478.3438,19.2441 1477.5381,20.499 Q1476.7324,21.7539 1476.7324,24.2246 Q1476.7324,26.6855 1477.5381,27.9404 Q1478.3438,29.1953 1479.9258,29.1953 Q1480.668,29.1953 1481.3662,28.8779 Q1482.0645,28.5605 1482.8066,27.877 Z " fill="#000000"/><text fill="#000000" font-family="sans-serif" font-size="20" lengthAdjust="spacing" textLength="191" x="1495" y="31.5586">RegisterEmployeeUI</text><line style="stroke:#181818;stroke-width:0.5;" x1="1465" x2="1688" y1="41" y2="41"/><line style="stroke:#181818;stroke-width:0.5;" x1="1465" x2="1688" y1="49" y2="49"/></g><!--class RegisterEmployeeController--><g id="elem_RegisterEmployeeController"><rect codeLine="11" fill="#F1F1F1" height="167.7734" id="RegisterEmployeeController" rx="2.5" ry="2.5" style="stroke:#181818;stroke-width:0.5;" width="419" x="1367" y="117"/><ellipse cx="1438.5" cy="134" fill="#ADD1B2" rx="12" ry="12" style="stroke:#181818;stroke-width:1.0;"/><path d="M1441.3066,141.0801 Q1440.623,141.4316 1439.8711,141.6074 Q1439.1191,141.7832 1438.2891,141.7832 Q1435.3398,141.7832 1433.7871,139.8398 Q1432.2344,137.8965 1432.2344,134.2246 Q1432.2344,130.543 1433.7871,128.5996 Q1435.3398,126.6563 1438.2891,126.6563 Q1439.1191,126.6563 1439.8809,126.832 Q1440.6426,127.0078 1441.3066,127.3594 L1441.3066,130.5625 Q1440.5645,129.8789 1439.8662,129.5615 Q1439.168,129.2441 1438.4258,129.2441 Q1436.8438,129.2441 1436.0381,130.499 Q1435.2324,131.7539 1435.2324,134.2246 Q1435.2324,136.6855 1436.0381,137.9404 Q1436.8438,139.1953 1438.4258,139.1953 Q1439.168,139.1953 1439.8662,138.8779 Q1440.5645,138.5605 1441.3066,137.877 Z " fill="#000000"/><text fill="#000000" font-family="sans-serif" font-size="20" lengthAdjust="spacing" textLength="267" x="1460.5" y="141.5586">RegisterEmployeeController</text><line style="stroke:#181818;stroke-width:0.5;" x1="1368" x2="1785" y1="151" y2="151"/><line style="stroke:#181818;stroke-width:0.5;" x1="1368" x2="1785" y1="159" y2="159"/><text fill="#000000" font-family="sans-serif" font-size="20" lengthAdjust="spacing" textLength="119" x="1373" y="182.3359">+getStores()</text><text fill="#000000" font-family="sans-serif" font-size="20" lengthAdjust="spacing" textLength="112" x="1373" y="205.8906">+getRoles()</text><text fill="#000000" font-family="sans-serif" font-size="20" lengthAdjust="spacing" textLength="289" x="1373" y="229.4453">+registerEmployee(employee)</text><text fill="#000000" font-family="sans-serif" font-size="20" lengthAdjust="spacing" textLength="385" x="1373" y="253">+getRoleByDesignation(roleDescription)</text><text fill="#000000" font-family="sans-serif" font-size="20" lengthAdjust="spacing" textLength="407" x="1373" y="276.5547">+getStoreByDesignation(storeDesignation)</text></g><!--class Repositories--><g id="elem_Repositories"><rect codeLine="19" fill="#F1F1F1" height="144.2188" id="Repositories" rx="2.5" ry="2.5" style="stroke:#181818;stroke-width:0.5;" width="267" x="1666" y="406"/><ellipse cx="1735.5" cy="423" fill="#ADD1B2" rx="12" ry="12" style="stroke:#181818;stroke-width:1.0;"/><path d="M1738.3066,430.0801 Q1737.623,430.4316 1736.8711,430.6074 Q1736.1191,430.7832 1735.2891,430.7832 Q1732.3398,430.7832 1730.7871,428.8398 Q1729.2344,426.8965 1729.2344,423.2246 Q1729.2344,419.543 1730.7871,417.5996 Q1732.3398,415.6563 1735.2891,415.6563 Q1736.1191,415.6563 1736.8809,415.832 Q1737.6426,416.0078 1738.3066,416.3594 L1738.3066,419.5625 Q1737.5645,418.8789 1736.8662,418.5615 Q1736.168,418.2441 1735.4258,418.2441 Q1733.8438,418.2441 1733.0381,419.499 Q1732.2324,420.7539 1732.2324,423.2246 Q1732.2324,425.6855 1733.0381,426.9404 Q1733.8438,428.1953 1735.4258,428.1953 Q1736.168,428.1953 1736.8662,427.8779 Q1737.5645,427.5605 1738.3066,426.877 Z " fill="#000000"/><text fill="#000000" font-family="sans-serif" font-size="20" lengthAdjust="spacing" textLength="119" x="1757.5" y="430.5586">Repositories</text><line style="stroke:#181818;stroke-width:0.5;" x1="1667" x2="1932" y1="440" y2="440"/><line style="stroke:#181818;stroke-width:0.5;" x1="1667" x2="1932" y1="448" y2="448"/><text fill="#000000" font-family="sans-serif" font-size="20" lengthAdjust="spacing" textLength="139" x="1672" y="471.3359">+getInstance()</text><text fill="#000000" font-family="sans-serif" font-size="20" lengthAdjust="spacing" textLength="255" x="1672" y="494.8906">+getEmployeeRepository()</text><text fill="#000000" font-family="sans-serif" font-size="20" lengthAdjust="spacing" textLength="211" x="1672" y="518.4453">+getStoreRepository()</text><text fill="#000000" font-family="sans-serif" font-size="20" lengthAdjust="spacing" textLength="204" x="1672" y="542">+getRoleRepository()</text></g><!--class RoleRepository--><g id="elem_RoleRepository"><rect codeLine="26" fill="#F1F1F1" height="120.6641" id="RoleRepository" rx="2.5" ry="2.5" style="stroke:#181818;stroke-width:0.5;" width="362" x="1594.5" y="621.5"/><ellipse cx="1699" cy="638.5" fill="#ADD1B2" rx="12" ry="12" style="stroke:#181818;stroke-width:1.0;"/><path d="M1701.8066,645.5801 Q1701.123,645.9316 1700.3711,646.1074 Q1699.6191,646.2832 1698.7891,646.2832 Q1695.8398,646.2832 1694.2871,644.3398 Q1692.7344,642.3965 1692.7344,638.7246 Q1692.7344,635.043 1694.2871,633.0996 Q1695.8398,631.1563 1698.7891,631.1563 Q1699.6191,631.1563 1700.3809,631.332 Q1701.1426,631.5078 1701.8066,631.8594 L1701.8066,635.0625 Q1701.0645,634.3789 1700.3662,634.0615 Q1699.668,633.7441 1698.9258,633.7441 Q1697.3438,633.7441 1696.5381,634.999 Q1695.7324,636.2539 1695.7324,638.7246 Q1695.7324,641.1855 1696.5381,642.4404 Q1697.3438,643.6953 1698.9258,643.6953 Q1699.668,643.6953 1700.3662,643.3779 Q1701.0645,643.0605 1701.8066,642.377 Z " fill="#000000"/><text fill="#000000" font-family="sans-serif" font-size="20" lengthAdjust="spacing" textLength="144" x="1721" y="646.0586">RoleRepository</text><line style="stroke:#181818;stroke-width:0.5;" x1="1595.5" x2="1955.5" y1="655.5" y2="655.5"/><text fill="#000000" font-family="sans-serif" font-size="20" lengthAdjust="spacing" textLength="202" x="1600.5" y="678.8359">-List&lt;Role&gt; RoleList</text><line style="stroke:#181818;stroke-width:0.5;" x1="1595.5" x2="1955.5" y1="687.0547" y2="687.0547"/><text fill="#000000" font-family="sans-serif" font-size="20" lengthAdjust="spacing" textLength="75" x="1600.5" y="710.3906">+copy()</text><text fill="#000000" font-family="sans-serif" font-size="20" lengthAdjust="spacing" textLength="350" x="1600.5" y="733.9453">+getRoleByDesignation(designation)</text></g><!--class EmployeeRepository--><g id="elem_EmployeeRepository"><rect codeLine="32" fill="#F1F1F1" height="144.2188" id="EmployeeRepository" rx="2.5" ry="2.5" style="stroke:#181818;stroke-width:0.5;" width="316" x="1851.5" y="814"/><ellipse cx="1907.5" cy="831" fill="#ADD1B2" rx="12" ry="12" style="stroke:#181818;stroke-width:1.0;"/><path d="M1910.3066,838.0801 Q1909.623,838.4316 1908.8711,838.6074 Q1908.1191,838.7832 1907.2891,838.7832 Q1904.3398,838.7832 1902.7871,836.8398 Q1901.2344,834.8965 1901.2344,831.2246 Q1901.2344,827.543 1902.7871,825.5996 Q1904.3398,823.6563 1907.2891,823.6563 Q1908.1191,823.6563 1908.8809,823.832 Q1909.6426,824.0078 1910.3066,824.3594 L1910.3066,827.5625 Q1909.5645,826.8789 1908.8662,826.5615 Q1908.168,826.2441 1907.4258,826.2441 Q1905.8438,826.2441 1905.0381,827.499 Q1904.2324,828.7539 1904.2324,831.2246 Q1904.2324,833.6855 1905.0381,834.9404 Q1905.8438,836.1953 1907.4258,836.1953 Q1908.168,836.1953 1908.8662,835.8779 Q1909.5645,835.5605 1910.3066,834.877 Z " fill="#000000"/><text fill="#000000" font-family="sans-serif" font-size="20" lengthAdjust="spacing" textLength="195" x="1929.5" y="838.5586">EmployeeRepository</text><line style="stroke:#181818;stroke-width:0.5;" x1="1852.5" x2="2166.5" y1="848" y2="848"/><text fill="#000000" font-family="sans-serif" font-size="20" lengthAdjust="spacing" textLength="304" x="1857.5" y="871.3359">-List&lt;Employee&gt; employeeList</text><line style="stroke:#181818;stroke-width:0.5;" x1="1852.5" x2="2166.5" y1="879.5547" y2="879.5547"/><text fill="#000000" font-family="sans-serif" font-size="20" lengthAdjust="spacing" textLength="289" x="1857.5" y="902.8906">+registerEmployee(employee)</text><text fill="#000000" font-family="sans-serif" font-size="20" lengthAdjust="spacing" textLength="291" x="1857.5" y="926.4453">+validateEmployee(employee)</text><text fill="#000000" font-family="sans-serif" font-size="20" lengthAdjust="spacing" textLength="253" x="1857.5" y="950">+addEmployee(employee)</text></g><!--class PasswordValidator--><g id="elem_PasswordValidator"><rect codeLine="39" fill="#F1F1F1" height="73.5547" id="PasswordValidator" rx="2.5" ry="2.5" style="stroke:#181818;stroke-width:0.5;" width="215" x="1796" y="1100"/><ellipse cx="1813.8" cy="1117" fill="#ADD1B2" rx="12" ry="12" style="stroke:#181818;stroke-width:1.0;"/><path d="M1816.6066,1124.0801 Q1815.923,1124.4316 1815.1711,1124.6074 Q1814.4191,1124.7832 1813.5891,1124.7832 Q1810.6398,1124.7832 1809.0871,1122.8398 Q1807.5344,1120.8965 1807.5344,1117.2246 Q1807.5344,1113.543 1809.0871,1111.5996 Q1810.6398,1109.6563 1813.5891,1109.6563 Q1814.4191,1109.6563 1815.1809,1109.832 Q1815.9426,1110.0078 1816.6066,1110.3594 L1816.6066,1113.5625 Q1815.8645,1112.8789 1815.1662,1112.5615 Q1814.468,1112.2441 1813.7258,1112.2441 Q1812.1438,1112.2441 1811.3381,1113.499 Q1810.5324,1114.7539 1810.5324,1117.2246 Q1810.5324,1119.6855 1811.3381,1120.9404 Q1812.1438,1122.1953 1813.7258,1122.1953 Q1814.468,1122.1953 1815.1662,1121.8779 Q1815.8645,1121.5605 1816.6066,1120.877 Z " fill="#000000"/><text fill="#000000" font-family="sans-serif" font-size="20" lengthAdjust="spacing" textLength="177" x="1829.2" y="1124.5586">PasswordValidator</text><line style="stroke:#181818;stroke-width:0.5;" x1="1797" x2="2010" y1="1134" y2="1134"/><line style="stroke:#181818;stroke-width:0.5;" x1="1797" x2="2010" y1="1142" y2="1142"/><text fill="#000000" font-family="sans-serif" font-size="20" lengthAdjust="spacing" textLength="203" x="1802" y="1165.3359">+generatePassword()</text></g><!--class Employee--><g id="elem_Employee"><rect codeLine="43" fill="#F1F1F1" height="73.5547" id="Employee" rx="2.5" ry="2.5" style="stroke:#181818;stroke-width:0.5;" width="136" x="1288.5" y="1100"/><ellipse cx="1308.55" cy="1117" fill="#B4A7E5" rx="12" ry="12" style="stroke:#181818;stroke-width:1.0;"/><path d="M1304.2297,1112.459 L1304.2297,1109.9199 L1312.9113,1109.9199 L1312.9113,1112.459 L1310.0109,1112.459 L1310.0109,1121.9609 L1312.9113,1121.9609 L1312.9113,1124.5 L1304.2297,1124.5 L1304.2297,1121.9609 L1307.1301,1121.9609 L1307.1301,1112.459 Z " fill="#000000"/><text fill="#000000" font-family="sans-serif" font-size="20" font-style="italic" lengthAdjust="spacing" textLength="93" x="1324.45" y="1124.5586">Employee</text><line style="stroke:#181818;stroke-width:0.5;" x1="1289.5" x2="1423.5" y1="1134" y2="1134"/><line style="stroke:#181818;stroke-width:0.5;" x1="1289.5" x2="1423.5" y1="1142" y2="1142"/><text fill="#000000" font-family="sans-serif" font-size="20" lengthAdjust="spacing" textLength="124" x="1294.5" y="1165.3359">+getPerson()</text></g><!--class Agent--><g id="elem_Agent"><rect codeLine="47" fill="#F1F1F1" height="73.5547" id="Agent" rx="2.5" ry="2.5" style="stroke:#181818;stroke-width:0.5;" width="253" x="371" y="441"/><ellipse cx="465" cy="458" fill="#ADD1B2" rx="12" ry="12" style="stroke:#181818;stroke-width:1.0;"/><path d="M467.8066,465.0801 Q467.123,465.4316 466.3711,465.6074 Q465.6191,465.7832 464.7891,465.7832 Q461.8398,465.7832 460.2871,463.8398 Q458.7344,461.8965 458.7344,458.2246 Q458.7344,454.543 460.2871,452.5996 Q461.8398,450.6563 464.7891,450.6563 Q465.6191,450.6563 466.3809,450.832 Q467.1426,451.0078 467.8066,451.3594 L467.8066,454.5625 Q467.0645,453.8789 466.3662,453.5615 Q465.668,453.2441 464.9258,453.2441 Q463.3438,453.2441 462.5381,454.499 Q461.7324,455.7539 461.7324,458.2246 Q461.7324,460.6855 462.5381,461.9404 Q463.3438,463.1953 464.9258,463.1953 Q465.668,463.1953 466.3662,462.8779 Q467.0645,462.5605 467.8066,461.877 Z " fill="#000000"/><text fill="#000000" font-family="sans-serif" font-size="20" lengthAdjust="spacing" textLength="56" x="487" y="465.5586">Agent</text><line style="stroke:#181818;stroke-width:0.5;" x1="372" x2="623" y1="475" y2="475"/><text fill="#000000" font-family="sans-serif" font-size="20" lengthAdjust="spacing" textLength="241" x="377" y="498.3359">-EmployeeInfo employee</text><line style="stroke:#181818;stroke-width:0.5;" x1="372" x2="623" y1="506.5547" y2="506.5547"/></g><!--class NetworkManager--><g id="elem_NetworkManager"><rect codeLine="50" fill="#F1F1F1" height="73.5547" id="NetworkManager" rx="2.5" ry="2.5" style="stroke:#181818;stroke-width:0.5;" width="253" x="659" y="441"/><ellipse cx="700.65" cy="458" fill="#ADD1B2" rx="12" ry="12" style="stroke:#181818;stroke-width:1.0;"/><path d="M703.4566,465.0801 Q702.773,465.4316 702.0211,465.6074 Q701.2691,465.7832 700.4391,465.7832 Q697.4898,465.7832 695.9371,463.8398 Q694.3844,461.8965 694.3844,458.2246 Q694.3844,454.543 695.9371,452.5996 Q697.4898,450.6563 700.4391,450.6563 Q701.2691,450.6563 702.0309,450.832 Q702.7926,451.0078 703.4566,451.3594 L703.4566,454.5625 Q702.7145,453.8789 702.0162,453.5615 Q701.318,453.2441 700.5758,453.2441 Q698.9938,453.2441 698.1881,454.499 Q697.3824,455.7539 697.3824,458.2246 Q697.3824,460.6855 698.1881,461.9404 Q698.9938,463.1953 700.5758,463.1953 Q701.318,463.1953 702.0162,462.8779 Q702.7145,462.5605 703.4566,461.877 Z " fill="#000000"/><text fill="#000000" font-family="sans-serif" font-size="20" lengthAdjust="spacing" textLength="162" x="721.35" y="465.5586">NetworkManager</text><line style="stroke:#181818;stroke-width:0.5;" x1="660" x2="911" y1="475" y2="475"/><text fill="#000000" font-family="sans-serif" font-size="20" lengthAdjust="spacing" textLength="241" x="665" y="498.3359">-EmployeeInfo employee</text><line style="stroke:#181818;stroke-width:0.5;" x1="660" x2="911" y1="506.5547" y2="506.5547"/></g><!--class StoreManager--><g id="elem_StoreManager"><rect codeLine="53" fill="#F1F1F1" height="73.5547" id="StoreManager" rx="2.5" ry="2.5" style="stroke:#181818;stroke-width:0.5;" width="253" x="947" y="441"/><ellipse cx="1003.5" cy="458" fill="#ADD1B2" rx="12" ry="12" style="stroke:#181818;stroke-width:1.0;"/><path d="M1006.3066,465.0801 Q1005.623,465.4316 1004.8711,465.6074 Q1004.1191,465.7832 1003.2891,465.7832 Q1000.3398,465.7832 998.7871,463.8398 Q997.2344,461.8965 997.2344,458.2246 Q997.2344,454.543 998.7871,452.5996 Q1000.3398,450.6563 1003.2891,450.6563 Q1004.1191,450.6563 1004.8809,450.832 Q1005.6426,451.0078 1006.3066,451.3594 L1006.3066,454.5625 Q1005.5645,453.8789 1004.8662,453.5615 Q1004.168,453.2441 1003.4258,453.2441 Q1001.8438,453.2441 1001.0381,454.499 Q1000.2324,455.7539 1000.2324,458.2246 Q1000.2324,460.6855 1001.0381,461.9404 Q1001.8438,463.1953 1003.4258,463.1953 Q1004.168,463.1953 1004.8662,462.8779 Q1005.5645,462.5605 1006.3066,461.877 Z " fill="#000000"/><text fill="#000000" font-family="sans-serif" font-size="20" lengthAdjust="spacing" textLength="131" x="1025.5" y="465.5586">StoreManager</text><line style="stroke:#181818;stroke-width:0.5;" x1="948" x2="1199" y1="475" y2="475"/><text fill="#000000" font-family="sans-serif" font-size="20" lengthAdjust="spacing" textLength="241" x="953" y="498.3359">-EmployeeInfo employee</text><line style="stroke:#181818;stroke-width:0.5;" x1="948" x2="1199" y1="506.5547" y2="506.5547"/></g><!--class SystemAdministrator--><g id="elem_SystemAdministrator"><rect codeLine="56" fill="#F1F1F1" height="73.5547" id="SystemAdministrator" rx="2.5" ry="2.5" style="stroke:#181818;stroke-width:0.5;" width="253" x="1235" y="441"/><ellipse cx="1259.1" cy="458" fill="#ADD1B2" rx="12" ry="12" style="stroke:#181818;stroke-width:1.0;"/><path d="M1261.9066,465.0801 Q1261.223,465.4316 1260.4711,465.6074 Q1259.7191,465.7832 1258.8891,465.7832 Q1255.9398,465.7832 1254.3871,463.8398 Q1252.8344,461.8965 1252.8344,458.2246 Q1252.8344,454.543 1254.3871,452.5996 Q1255.9398,450.6563 1258.8891,450.6563 Q1259.7191,450.6563 1260.4809,450.832 Q1261.2426,451.0078 1261.9066,451.3594 L1261.9066,454.5625 Q1261.1645,453.8789 1260.4662,453.5615 Q1259.768,453.2441 1259.0258,453.2441 Q1257.4438,453.2441 1256.6381,454.499 Q1255.8324,455.7539 1255.8324,458.2246 Q1255.8324,460.6855 1256.6381,461.9404 Q1257.4438,463.1953 1259.0258,463.1953 Q1259.768,463.1953 1260.4662,462.8779 Q1261.1645,462.5605 1261.9066,461.877 Z " fill="#000000"/><text fill="#000000" font-family="sans-serif" font-size="20" lengthAdjust="spacing" textLength="201" x="1275.9" y="465.5586">SystemAdministrator</text><line style="stroke:#181818;stroke-width:0.5;" x1="1236" x2="1487" y1="475" y2="475"/><text fill="#000000" font-family="sans-serif" font-size="20" lengthAdjust="spacing" textLength="241" x="1241" y="498.3359">-EmployeeInfo employee</text><line style="stroke:#181818;stroke-width:0.5;" x1="1236" x2="1487" y1="506.5547" y2="506.5547"/></g><!--class EmployeeInfo--><g id="elem_EmployeeInfo"><rect codeLine="60" fill="#F1F1F1" height="144.2188" id="EmployeeInfo" rx="2.5" ry="2.5" style="stroke:#181818;stroke-width:0.5;" width="646" x="657.5" y="610"/><ellipse cx="911" cy="627" fill="#ADD1B2" rx="12" ry="12" style="stroke:#181818;stroke-width:1.0;"/><path d="M913.8066,634.0801 Q913.123,634.4316 912.3711,634.6074 Q911.6191,634.7832 910.7891,634.7832 Q907.8398,634.7832 906.2871,632.8398 Q904.7344,630.8965 904.7344,627.2246 Q904.7344,623.543 906.2871,621.5996 Q907.8398,619.6563 910.7891,619.6563 Q911.6191,619.6563 912.3809,619.832 Q913.1426,620.0078 913.8066,620.3594 L913.8066,623.5625 Q913.0645,622.8789 912.3662,622.5615 Q911.668,622.2441 910.9258,622.2441 Q909.3438,622.2441 908.5381,623.499 Q907.7324,624.7539 907.7324,627.2246 Q907.7324,629.6855 908.5381,630.9404 Q909.3438,632.1953 910.9258,632.1953 Q911.668,632.1953 912.3662,631.8779 Q913.0645,631.5605 913.8066,630.877 Z " fill="#000000"/><text fill="#000000" font-family="sans-serif" font-size="20" lengthAdjust="spacing" textLength="130" x="933" y="634.5586">EmployeeInfo</text><line style="stroke:#181818;stroke-width:0.5;" x1="658.5" x2="1302.5" y1="644" y2="644"/><line style="stroke:#181818;stroke-width:0.5;" x1="658.5" x2="1302.5" y1="652" y2="652"/><text fill="#000000" font-family="sans-serif" font-size="20" lengthAdjust="spacing" textLength="335" x="663.5" y="675.3359">+EmployeeInfo(person, store, role)</text><text fill="#000000" font-family="sans-serif" font-size="20" lengthAdjust="spacing" textLength="634" x="663.5" y="698.8906">+createEmployee(person, StoreByDesignation, RoleByDesignation)</text><text fill="#000000" font-family="sans-serif" font-size="20" lengthAdjust="spacing" textLength="595" x="663.5" y="722.4453">+validateInfo(person, StoreByDesignation, RoleByDesignation)</text><text fill="#000000" font-family="sans-serif" font-size="20" lengthAdjust="spacing" textLength="124" x="663.5" y="746">+getPerson()</text></g><!--class PersonInfo--><g id="elem_PersonInfo"><rect codeLine="67" fill="#F1F1F1" height="238.4375" id="PersonInfo" rx="2.5" ry="2.5" style="stroke:#181818;stroke-width:0.5;" width="885" x="126" y="1018"/><ellipse cx="513.5" cy="1035" fill="#ADD1B2" rx="12" ry="12" style="stroke:#181818;stroke-width:1.0;"/><path d="M516.3066,1042.0801 Q515.623,1042.4316 514.8711,1042.6074 Q514.1191,1042.7832 513.2891,1042.7832 Q510.3398,1042.7832 508.7871,1040.8398 Q507.2344,1038.8965 507.2344,1035.2246 Q507.2344,1031.543 508.7871,1029.5996 Q510.3398,1027.6563 513.2891,1027.6563 Q514.1191,1027.6563 514.8809,1027.832 Q515.6426,1028.0078 516.3066,1028.3594 L516.3066,1031.5625 Q515.5645,1030.8789 514.8662,1030.5615 Q514.168,1030.2441 513.4258,1030.2441 Q511.8438,1030.2441 511.0381,1031.499 Q510.2324,1032.7539 510.2324,1035.2246 Q510.2324,1037.6855 511.0381,1038.9404 Q511.8438,1040.1953 513.4258,1040.1953 Q514.168,1040.1953 514.8662,1039.8779 Q515.5645,1039.5605 516.3066,1038.877 Z " fill="#000000"/><text fill="#000000" font-family="sans-serif" font-size="20" lengthAdjust="spacing" textLength="101" x="535.5" y="1042.5586">PersonInfo</text><line style="stroke:#181818;stroke-width:0.5;" x1="127" x2="1010" y1="1052" y2="1052"/><text fill="#000000" font-family="sans-serif" font-size="20" lengthAdjust="spacing" textLength="127" x="132" y="1075.3359">-String name</text><text fill="#000000" font-family="sans-serif" font-size="20" lengthAdjust="spacing" textLength="247" x="132" y="1098.8906">-String telephoneNumber</text><text fill="#000000" font-family="sans-serif" font-size="20" lengthAdjust="spacing" textLength="127" x="132" y="1122.4453">-String email</text><line style="stroke:#181818;stroke-width:0.5;" x1="127" x2="1010" y1="1130.6641" y2="1130.6641"/><text fill="#000000" font-family="sans-serif" font-size="20" lengthAdjust="spacing" textLength="852" x="132" y="1154">+PersonInfo(name, telephoneNumber, email, address, passportCard, socialSecurityCard)</text><text fill="#000000" font-family="sans-serif" font-size="20" lengthAdjust="spacing" textLength="97" x="132" y="1177.5547">+getInfo()</text><text fill="#000000" font-family="sans-serif" font-size="20" lengthAdjust="spacing" textLength="445" x="132" y="1201.1094">+validateInfo(name, telephoneNumber, email)</text><text fill="#000000" font-family="sans-serif" font-size="20" lengthAdjust="spacing" textLength="873" x="132" y="1224.6641">+createPerson(name, telephoneNumber, email, address, passportCard, socialSecurityCard)</text><text fill="#000000" font-family="sans-serif" font-size="20" lengthAdjust="spacing" textLength="113" x="132" y="1248.2188">+getEmail()</text></g><!--class DataBase--><g id="elem_DataBase"><rect codeLine="79" fill="#F1F1F1" height="97.1094" id="DataBase" rx="2.5" ry="2.5" style="stroke:#181818;stroke-width:0.5;" width="141" x="2046" y="1088.5"/><ellipse cx="2070.55" cy="1105.5" fill="#ADD1B2" rx="12" ry="12" style="stroke:#181818;stroke-width:1.0;"/><path d="M2073.3566,1112.5801 Q2072.673,1112.9316 2071.9211,1113.1074 Q2071.1691,1113.2832 2070.3391,1113.2832 Q2067.3898,1113.2832 2065.8371,1111.3398 Q2064.2844,1109.3965 2064.2844,1105.7246 Q2064.2844,1102.043 2065.8371,1100.0996 Q2067.3898,1098.1563 2070.3391,1098.1563 Q2071.1691,1098.1563 2071.9309,1098.332 Q2072.6926,1098.5078 2073.3566,1098.8594 L2073.3566,1102.0625 Q2072.6145,1101.3789 2071.9162,1101.0615 Q2071.218,1100.7441 2070.4758,1100.7441 Q2068.8938,1100.7441 2068.0881,1101.999 Q2067.2824,1103.2539 2067.2824,1105.7246 Q2067.2824,1108.1855 2068.0881,1109.4404 Q2068.8938,1110.6953 2070.4758,1110.6953 Q2071.218,1110.6953 2071.9162,1110.3779 Q2072.6145,1110.0605 2073.3566,1109.377 Z " fill="#000000"/><text fill="#000000" font-family="sans-serif" font-size="20" lengthAdjust="spacing" textLength="88" x="2087.45" y="1113.0586">DataBase</text><line style="stroke:#181818;stroke-width:0.5;" x1="2047" x2="2186" y1="1122.5" y2="1122.5"/><line style="stroke:#181818;stroke-width:0.5;" x1="2047" x2="2186" y1="1130.5" y2="1130.5"/><text fill="#000000" font-family="sans-serif" font-size="20" lengthAdjust="spacing" textLength="129" x="2052" y="1153.8359">+sendEmail()</text><text fill="#000000" font-family="sans-serif" font-size="20" lengthAdjust="spacing" textLength="125" x="2052" y="1177.3906">+saveUsers()</text></g><!--class StoreRepository--><g id="elem_StoreRepository"><rect codeLine="84" fill="#F1F1F1" height="120.6641" id="StoreRepository" rx="2.5" ry="2.5" style="stroke:#181818;stroke-width:0.5;" width="257" x="7" y="417.5"/><ellipse cx="55.5" cy="434.5" fill="#ADD1B2" rx="12" ry="12" style="stroke:#181818;stroke-width:1.0;"/><path d="M58.3066,441.5801 Q57.623,441.9316 56.8711,442.1074 Q56.1191,442.2832 55.2891,442.2832 Q52.3398,442.2832 50.7871,440.3398 Q49.2344,438.3965 49.2344,434.7246 Q49.2344,431.043 50.7871,429.0996 Q52.3398,427.1563 55.2891,427.1563 Q56.1191,427.1563 56.8809,427.332 Q57.6426,427.5078 58.3066,427.8594 L58.3066,431.0625 Q57.5645,430.3789 56.8662,430.0615 Q56.168,429.7441 55.4258,429.7441 Q53.8438,429.7441 53.0381,430.999 Q52.2324,432.2539 52.2324,434.7246 Q52.2324,437.1855 53.0381,438.4404 Q53.8438,439.6953 55.4258,439.6953 Q56.168,439.6953 56.8662,439.3779 Q57.5645,439.0605 58.3066,438.377 Z " fill="#000000"/><text fill="#000000" font-family="sans-serif" font-size="20" lengthAdjust="spacing" textLength="151" x="77.5" y="442.0586">StoreRepository</text><line style="stroke:#181818;stroke-width:0.5;" x1="8" x2="263" y1="451.5" y2="451.5"/><text fill="#000000" font-family="sans-serif" font-size="20" lengthAdjust="spacing" textLength="216" x="13" y="474.8359">-List&lt;Store&gt; StoreList</text><line style="stroke:#181818;stroke-width:0.5;" x1="8" x2="263" y1="483.0547" y2="483.0547"/><text fill="#000000" font-family="sans-serif" font-size="20" lengthAdjust="spacing" textLength="75" x="13" y="506.3906">+copy()</text><text fill="#000000" font-family="sans-serif" font-size="20" lengthAdjust="spacing" textLength="245" x="13" y="529.9453">+getStoreByDesignation()</text></g><!--class Store--><g id="elem_Store"><rect codeLine="90" fill="#F1F1F1" height="144.2188" id="Store" rx="2.5" ry="2.5" style="stroke:#181818;stroke-width:0.5;" width="259" x="185" y="814"/><ellipse cx="285.5" cy="831" fill="#ADD1B2" rx="12" ry="12" style="stroke:#181818;stroke-width:1.0;"/><path d="M288.3066,838.0801 Q287.623,838.4316 286.8711,838.6074 Q286.1191,838.7832 285.2891,838.7832 Q282.3398,838.7832 280.7871,836.8398 Q279.2344,834.8965 279.2344,831.2246 Q279.2344,827.543 280.7871,825.5996 Q282.3398,823.6563 285.2891,823.6563 Q286.1191,823.6563 286.8809,823.832 Q287.6426,824.0078 288.3066,824.3594 L288.3066,827.5625 Q287.5645,826.8789 286.8662,826.5615 Q286.168,826.2441 285.4258,826.2441 Q283.8438,826.2441 283.0381,827.499 Q282.2324,828.7539 282.2324,831.2246 Q282.2324,833.6855 283.0381,834.9404 Q283.8438,836.1953 285.4258,836.1953 Q286.168,836.1953 286.8662,835.8779 Q287.5645,835.5605 288.3066,834.877 Z " fill="#000000"/><text fill="#000000" font-family="sans-serif" font-size="20" lengthAdjust="spacing" textLength="49" x="307.5" y="838.5586">Store</text><line style="stroke:#181818;stroke-width:0.5;" x1="186" x2="443" y1="848" y2="848"/><text fill="#000000" font-family="sans-serif" font-size="20" lengthAdjust="spacing" textLength="173" x="191" y="871.3359">-Address address</text><text fill="#000000" font-family="sans-serif" font-size="20" lengthAdjust="spacing" textLength="186" x="191" y="894.8906">-String designation</text><text fill="#000000" font-family="sans-serif" font-size="20" lengthAdjust="spacing" textLength="127" x="191" y="918.4453">-String email</text><text fill="#000000" font-family="sans-serif" font-size="20" lengthAdjust="spacing" textLength="247" x="191" y="942">-String telephoneNumber</text><line style="stroke:#181818;stroke-width:0.5;" x1="186" x2="443" y1="950.2188" y2="950.2188"/></g><!--class Role--><g id="elem_Role"><rect codeLine="97" fill="#F1F1F1" height="73.5547" id="Role" rx="2.5" ry="2.5" style="stroke:#181818;stroke-width:0.5;" width="198" x="1480.5" y="849"/><ellipse cx="1554" cy="866" fill="#ADD1B2" rx="12" ry="12" style="stroke:#181818;stroke-width:1.0;"/><path d="M1556.8066,873.0801 Q1556.123,873.4316 1555.3711,873.6074 Q1554.6191,873.7832 1553.7891,873.7832 Q1550.8398,873.7832 1549.2871,871.8398 Q1547.7344,869.8965 1547.7344,866.2246 Q1547.7344,862.543 1549.2871,860.5996 Q1550.8398,858.6563 1553.7891,858.6563 Q1554.6191,858.6563 1555.3809,858.832 Q1556.1426,859.0078 1556.8066,859.3594 L1556.8066,862.5625 Q1556.0645,861.8789 1555.3662,861.5615 Q1554.668,861.2441 1553.9258,861.2441 Q1552.3438,861.2441 1551.5381,862.499 Q1550.7324,863.7539 1550.7324,866.2246 Q1550.7324,868.6855 1551.5381,869.9404 Q1552.3438,871.1953 1553.9258,871.1953 Q1554.668,871.1953 1555.3662,870.8779 Q1556.0645,870.5605 1556.8066,869.877 Z " fill="#000000"/><text fill="#000000" font-family="sans-serif" font-size="20" lengthAdjust="spacing" textLength="42" x="1576" y="873.5586">Role</text><line style="stroke:#181818;stroke-width:0.5;" x1="1481.5" x2="1677.5" y1="883" y2="883"/><text fill="#000000" font-family="sans-serif" font-size="20" lengthAdjust="spacing" textLength="186" x="1486.5" y="906.3359">-String designation</text><line style="stroke:#181818;stroke-width:0.5;" x1="1481.5" x2="1677.5" y1="914.5547" y2="914.5547"/></g><!--class Address--><g id="elem_Address"><rect codeLine="101" fill="#F1F1F1" height="144.2188" id="Address" rx="2.5" ry="2.5" style="stroke:#181818;stroke-width:0.5;" width="153" x="299" y="1316"/><ellipse cx="333" cy="1333" fill="#ADD1B2" rx="12" ry="12" style="stroke:#181818;stroke-width:1.0;"/><path d="M335.8066,1340.0801 Q335.123,1340.4316 334.3711,1340.6074 Q333.6191,1340.7832 332.7891,1340.7832 Q329.8398,1340.7832 328.2871,1338.8398 Q326.7344,1336.8965 326.7344,1333.2246 Q326.7344,1329.543 328.2871,1327.5996 Q329.8398,1325.6563 332.7891,1325.6563 Q333.6191,1325.6563 334.3809,1325.832 Q335.1426,1326.0078 335.8066,1326.3594 L335.8066,1329.5625 Q335.0645,1328.8789 334.3662,1328.5615 Q333.668,1328.2441 332.9258,1328.2441 Q331.3438,1328.2441 330.5381,1329.499 Q329.7324,1330.7539 329.7324,1333.2246 Q329.7324,1335.6855 330.5381,1336.9404 Q331.3438,1338.1953 332.9258,1338.1953 Q333.668,1338.1953 334.3662,1337.8779 Q335.0645,1337.5605 335.8066,1336.877 Z " fill="#000000"/><text fill="#000000" font-family="sans-serif" font-size="20" lengthAdjust="spacing" textLength="79" x="352" y="1340.5586">Address</text><line style="stroke:#181818;stroke-width:0.5;" x1="300" x2="451" y1="1350" y2="1350"/><text fill="#000000" font-family="sans-serif" font-size="20" lengthAdjust="spacing" textLength="128" x="305" y="1373.3359">-String street</text><text fill="#000000" font-family="sans-serif" font-size="20" lengthAdjust="spacing" textLength="107" x="305" y="1396.8906">-String city</text><text fill="#000000" font-family="sans-serif" font-size="20" lengthAdjust="spacing" textLength="141" x="305" y="1420.4453">-String district</text><text fill="#000000" font-family="sans-serif" font-size="20" lengthAdjust="spacing" textLength="120" x="305" y="1444">-String state</text><line style="stroke:#181818;stroke-width:0.5;" x1="300" x2="451" y1="1452.2188" y2="1452.2188"/></g><!--class PassportCard--><g id="elem_PassportCard"><rect codeLine="108" fill="#F1F1F1" height="73.5547" id="PassportCard" rx="2.5" ry="2.5" style="stroke:#181818;stroke-width:0.5;" width="162" x="487.5" y="1351"/><ellipse cx="503.5" cy="1368" fill="#ADD1B2" rx="12" ry="12" style="stroke:#181818;stroke-width:1.0;"/><path d="M506.3066,1375.0801 Q505.623,1375.4316 504.8711,1375.6074 Q504.1191,1375.7832 503.2891,1375.7832 Q500.3398,1375.7832 498.7871,1373.8398 Q497.2344,1371.8965 497.2344,1368.2246 Q497.2344,1364.543 498.7871,1362.5996 Q500.3398,1360.6563 503.2891,1360.6563 Q504.1191,1360.6563 504.8809,1360.832 Q505.6426,1361.0078 506.3066,1361.3594 L506.3066,1364.5625 Q505.5645,1363.8789 504.8662,1363.5615 Q504.168,1363.2441 503.4258,1363.2441 Q501.8438,1363.2441 501.0381,1364.499 Q500.2324,1365.7539 500.2324,1368.2246 Q500.2324,1370.6855 501.0381,1371.9404 Q501.8438,1373.1953 503.4258,1373.1953 Q504.168,1373.1953 504.8662,1372.8779 Q505.5645,1372.5605 506.3066,1371.877 Z " fill="#000000"/><text fill="#000000" font-family="sans-serif" font-size="20" lengthAdjust="spacing" textLength="128" x="518.5" y="1375.5586">PassportCard</text><line style="stroke:#181818;stroke-width:0.5;" x1="488.5" x2="648.5" y1="1385" y2="1385"/><text fill="#000000" font-family="sans-serif" font-size="20" lengthAdjust="spacing" textLength="149" x="493.5" y="1408.3359">-String number</text><line style="stroke:#181818;stroke-width:0.5;" x1="488.5" x2="648.5" y1="1416.5547" y2="1416.5547"/></g><!--class SocialSecurityCard--><g id="elem_SocialSecurityCard"><rect codeLine="112" fill="#F1F1F1" height="73.5547" id="SocialSecurityCard" rx="2.5" ry="2.5" style="stroke:#181818;stroke-width:0.5;" width="211" x="685" y="1351"/><ellipse cx="701" cy="1368" fill="#ADD1B2" rx="12" ry="12" style="stroke:#181818;stroke-width:1.0;"/><path d="M703.8066,1375.0801 Q703.123,1375.4316 702.3711,1375.6074 Q701.6191,1375.7832 700.7891,1375.7832 Q697.8398,1375.7832 696.2871,1373.8398 Q694.7344,1371.8965 694.7344,1368.2246 Q694.7344,1364.543 696.2871,1362.5996 Q697.8398,1360.6563 700.7891,1360.6563 Q701.6191,1360.6563 702.3809,1360.832 Q703.1426,1361.0078 703.8066,1361.3594 L703.8066,1364.5625 Q703.0645,1363.8789 702.3662,1363.5615 Q701.668,1363.2441 700.9258,1363.2441 Q699.3438,1363.2441 698.5381,1364.499 Q697.7324,1365.7539 697.7324,1368.2246 Q697.7324,1370.6855 698.5381,1371.9404 Q699.3438,1373.1953 700.9258,1373.1953 Q701.668,1373.1953 702.3662,1372.8779 Q703.0645,1372.5605 703.8066,1371.877 Z " fill="#000000"/><text fill="#000000" font-family="sans-serif" font-size="20" lengthAdjust="spacing" textLength="177" x="716" y="1375.5586">SocialSecurityCard</text><line style="stroke:#181818;stroke-width:0.5;" x1="686" x2="895" y1="1385" y2="1385"/><text fill="#000000" font-family="sans-serif" font-size="20" lengthAdjust="spacing" textLength="182" x="691" y="1408.3359">-String taxNumber</text><line style="stroke:#181818;stroke-width:0.5;" x1="686" x2="895" y1="1416.5547" y2="1416.5547"/></g><!--link RegisterEmployeeUI to RegisterEmployeeController--><g id="link_RegisterEmployeeUI_RegisterEmployeeController"><path codeLine="117" d="M1576.5,57.28 C1576.5,71.96 1576.5,91.67 1576.5,111.74 " fill="none" id="RegisterEmployeeUI-to-RegisterEmployeeController" style="stroke:#181818;stroke-width:1.0;stroke-dasharray:7.0,7.0;"/><polygon fill="#181818" points="1576.5,116.85,1580.5,107.85,1576.5,111.85,1572.5,107.85,1576.5,116.85" style="stroke:#181818;stroke-width:1.0;"/></g><!--link RegisterEmployeeController to Repositories--><g id="link_RegisterEmployeeController_Repositories"><path codeLine="119" d="M1644.01,285.26 C1674.07,322.32 1709.2,365.65 1738.46,401.73 " fill="none" id="RegisterEmployeeController-to-Repositories" style="stroke:#181818;stroke-width:1.0;stroke-dasharray:7.0,7.0;"/><polygon fill="#181818" points="1741.64,405.64,1739.0902,396.1269,1738.4957,401.7524,1732.8701,401.1579,1741.64,405.64" style="stroke:#181818;stroke-width:1.0;"/></g><!--link RegisterEmployeeController to EmployeeRepository--><g id="link_RegisterEmployeeController_EmployeeRepository"><path codeLine="120" d="M1728.89,285.12 C1832.37,341.57 1950.5,406 1950.5,406 C1950.5,406 2008.5,610 2008.5,610 C2008.5,610 2008.93,727.14 2009.22,808.52 " fill="none" id="RegisterEmployeeController-to-EmployeeRepository" style="stroke:#181818;stroke-width:1.0;stroke-dasharray:7.0,7.0;"/><polygon fill="#181818" points="2009.24,813.82,2013.2143,804.8086,2009.2257,808.82,2005.2143,804.8315,2009.24,813.82" style="stroke:#181818;stroke-width:1.0;"/></g><!--link RegisterEmployeeController to RoleRepository--><g id="link_RegisterEmployeeController_RoleRepository"><path codeLine="121" d="M1593.75,285.35 C1615.05,388.31 1648.5,550 1648.5,550 C1648.5,550 1681.62,584.17 1714.04,617.6 " fill="none" id="RegisterEmployeeController-to-RoleRepository" style="stroke:#181818;stroke-width:1.0;stroke-dasharray:7.0,7.0;"/><polygon fill="#181818" points="1717.57,621.25,1714.1648,612.0085,1714.0848,617.6648,1708.4285,617.5848,1717.57,621.25" style="stroke:#181818;stroke-width:1.0;"/></g><!--link RegisterEmployeeController to StoreRepository--><g id="link_RegisterEmployeeController_StoreRepository"><path codeLine="122" d="M1366.82,225.33 C1002.6,265.87 291.5,345 291.5,345 C291.5,345 250.18,379.96 210.07,413.9 " fill="none" id="RegisterEmployeeController-to-StoreRepository" style="stroke:#181818;stroke-width:1.0;stroke-dasharray:7.0,7.0;"/><polygon fill="#181818" points="206.2,417.18,215.6589,414.4359,210.0223,413.9567,210.5016,408.3202,206.2,417.18" style="stroke:#181818;stroke-width:1.0;"/></g><!--link RegisterEmployeeController to Store--><g id="link_RegisterEmployeeController_Store"><path codeLine="123" d="M1366.95,236.95 C1017.46,295.25 353.5,406 353.5,406 C353.5,406 331.72,673.45 320.72,808.66 " fill="none" id="RegisterEmployeeController-to-Store" style="stroke:#181818;stroke-width:1.0;stroke-dasharray:7.0,7.0;"/><polygon fill="#181818" points="320.3,813.81,325.0069,805.1587,320.6999,808.826,317.0326,804.5189,320.3,813.81" style="stroke:#181818;stroke-width:1.0;"/></g><!--link RegisterEmployeeController to Role--><g id="link_RegisterEmployeeController_Role"><path codeLine="124" d="M1576.5,285.24 C1576.5,439.44 1576.5,754 1576.5,754 C1576.5,754 1577.68,805.37 1578.56,843.77 " fill="none" id="RegisterEmployeeController-to-Role" style="stroke:#181818;stroke-width:1.0;stroke-dasharray:7.0,7.0;"/><polygon fill="#181818" points="1578.67,848.86,1582.4633,839.7709,1578.5557,843.8613,1574.4654,839.9538,1578.67,848.86" style="stroke:#181818;stroke-width:1.0;"/></g><!--link Repositories to EmployeeRepository--><g id="link_Repositories_EmployeeRepository"><path codeLine="126" d="M1894.43,550.06 C1935.57,580.85 1974.5,610 1974.5,610 C1974.5,610 1989.41,727.14 1999.77,808.52 " fill="none" id="Repositories-to-EmployeeRepository" style="stroke:#181818;stroke-width:1.0;"/><polygon fill="#181818" points="2000.44,813.82,2003.2795,804.3893,1999.8128,808.8595,1995.3427,805.3928,2000.44,813.82" style="stroke:#181818;stroke-width:1.0;"/><text fill="#000000" font-family="sans-serif" font-size="20" lengthAdjust="spacing" textLength="13" x="1985.8354" y="801.5438">1</text></g><!--reverse link StoreRepository to Repositories--><g id="link_StoreRepository_Repositories"><path codeLine="127" d="M269.1,420.14 C322.24,397.12 371,376 371,376 C371,376 1621,376 1621,376 C1621,376 1643.8,389.03 1673.11,405.78 " fill="none" id="StoreRepository-backto-Repositories" style="stroke:#181818;stroke-width:1.0;"/><polygon fill="#181818" points="264.27,422.22,274.1184,422.3143,268.8583,420.2332,270.9395,414.9731,264.27,422.22" style="stroke:#181818;stroke-width:1.0;"/><text fill="#000000" font-family="sans-serif" font-size="20" lengthAdjust="spacing" textLength="13" x="272.0903" y="414.6921">1</text></g><!--link Repositories to RoleRepository--><g id="link_Repositories_RoleRepository"><path codeLine="128" d="M1791.04,550.22 C1788.48,571.77 1785.68,595.32 1783.17,616.42 " fill="none" id="Repositories-to-RoleRepository" style="stroke:#181818;stroke-width:1.0;"/><polygon fill="#181818" points="1782.58,621.44,1787.6084,612.9715,1783.1667,616.4745,1779.6637,612.0328,1782.58,621.44" style="stroke:#181818;stroke-width:1.0;"/><text fill="#000000" font-family="sans-serif" font-size="20" lengthAdjust="spacing" textLength="13" x="1769.6471" y="609.4955">1</text></g><!--link RoleRepository to Role--><g id="link_RoleRepository_Role"><path codeLine="130" d="M1717.75,742.51 C1685.77,775.48 1646.85,815.59 1618.47,844.84 " fill="none" id="RoleRepository-to-Role" style="stroke:#181818;stroke-width:1.0;"/><polygon fill="#181818" points="1614.71,848.71,1623.8515,845.0448,1618.1952,845.1248,1618.1152,839.4685,1614.71,848.71" style="stroke:#181818;stroke-width:1.0;"/><text fill="#000000" font-family="sans-serif" font-size="20" lengthAdjust="spacing" textLength="13" x="1698.1242" y="769.3179">1</text><text fill="#000000" font-family="sans-serif" font-size="20" lengthAdjust="spacing" textLength="35" x="1582.7539" y="836.7461">1..*</text></g><!--link StoreRepository to Store--><g id="link_StoreRepository_Store"><path codeLine="131" d="M161.91,538.91 C193.57,610.71 246.65,731.1 281.12,809.28 " fill="none" id="StoreRepository-to-Store" style="stroke:#181818;stroke-width:1.0;"/><polygon fill="#181818" points="283.15,813.9,283.1815,804.0512,281.1339,809.3245,275.8606,807.2769,283.15,813.9" style="stroke:#181818;stroke-width:1.0;"/><text fill="#000000" font-family="sans-serif" font-size="20" lengthAdjust="spacing" textLength="13" x="150.8699" y="565.4176">1</text><text fill="#000000" font-family="sans-serif" font-size="20" lengthAdjust="spacing" textLength="35" x="243.1123" y="801.632">1..*</text></g><!--link EmployeeRepository to Employee--><g id="link_EmployeeRepository_Employee"><path codeLine="132" d="M1851.43,947.28 C1717.29,998.42 1530.94,1069.48 1429.46,1108.18 " fill="none" id="EmployeeRepository-to-Employee" style="stroke:#181818;stroke-width:1.0;"/><polygon fill="#181818" points="1424.7,1110,1434.5335,1110.549,1429.3752,1108.2272,1431.697,1103.0688,1424.7,1110" style="stroke:#181818;stroke-width:1.0;"/><text fill="#000000" font-family="sans-serif" font-size="20" lengthAdjust="spacing" textLength="13" x="1830.4586" y="946.0353">1</text><text fill="#000000" font-family="sans-serif" font-size="20" lengthAdjust="spacing" textLength="35" x="1432.6005" y="1102.8328">1..*</text></g><!--link EmployeeRepository to DataBase--><g id="link_EmployeeRepository_DataBase"><path codeLine="134" d="M2040.02,958.02 C2057.16,997.92 2078.19,1046.86 2093.86,1083.31 " fill="none" id="EmployeeRepository-to-DataBase" style="stroke:#181818;stroke-width:1.0;stroke-dasharray:7.0,7.0;"/><polygon fill="#181818" points="2095.94,1088.15,2096.0713,1078.302,2093.9704,1083.5543,2088.7181,1081.4534,2095.94,1088.15" style="stroke:#181818;stroke-width:1.0;"/></g><!--link EmployeeRepository to PasswordValidator--><g id="link_EmployeeRepository_PasswordValidator"><path codeLine="135" d="M1979.27,958.02 C1960.41,1002.32 1936.8,1057.77 1921,1094.9 " fill="none" id="EmployeeRepository-to-PasswordValidator" style="stroke:#181818;stroke-width:1.0;stroke-dasharray:7.0,7.0;"/><polygon fill="#181818" points="1918.92,1099.78,1926.1242,1093.0644,1920.8775,1095.1791,1918.7628,1089.9324,1918.92,1099.78" style="stroke:#181818;stroke-width:1.0;"/></g><!--link Agent to Employee--><g id="link_Agent_Employee"><path codeLine="137" d="M515.16,515.23 C551.54,589.91 631.5,754 631.5,754 C631.5,754 749.5,958 749.5,958 C749.5,958 1028.5,1018 1028.5,1018 C1028.5,1018 1171.91,1069.59 1269.08,1104.55 " fill="none" id="Agent-to-Employee" style="stroke:#181818;stroke-width:1.0;stroke-dasharray:7.0,7.0;"/><polygon fill="none" points="1271.69,1098.05,1288.14,1111.41,1266.95,1111.22,1271.69,1098.05" style="stroke:#181818;stroke-width:1.0;"/></g><!--link NetworkManager to Employee--><g id="link_NetworkManager_Employee"><path codeLine="138" d="M745.22,515.14 C702,553.92 639.5,610 639.5,610 C639.5,610 639.5,754 639.5,754 C639.5,754 1080.6,989.01 1270.85,1090.37 " fill="none" id="NetworkManager-to-Employee" style="stroke:#181818;stroke-width:1.0;stroke-dasharray:7.0,7.0;"/><polygon fill="none" points="1274.36,1084.31,1288.72,1099.89,1267.78,1096.66,1274.36,1084.31" style="stroke:#181818;stroke-width:1.0;"/></g><!--link StoreManager to Employee--><g id="link_StoreManager_Employee"><path codeLine="139" d="M1141.65,515.14 C1214.76,553.92 1320.5,610 1320.5,610 C1320.5,610 1343.38,944.28 1352.66,1079.87 " fill="none" id="StoreManager-to-Employee" style="stroke:#181818;stroke-width:1.0;stroke-dasharray:7.0,7.0;"/><polygon fill="none" points="1359.64,1079.41,1354.03,1099.85,1345.68,1080.37,1359.64,1079.41" style="stroke:#181818;stroke-width:1.0;"/></g><!--link SystemAdministrator to Employee--><g id="link_SystemAdministrator_Employee"><path codeLine="140" d="M1367.29,515.14 C1373.51,553.92 1382.5,610 1382.5,610 C1382.5,610 1382.5,958 1382.5,958 C1382.5,958 1372.3,1027.81 1364.68,1079.99 " fill="none" id="SystemAdministrator-to-Employee" style="stroke:#181818;stroke-width:1.0;stroke-dasharray:7.0,7.0;"/><polygon fill="none" points="1371.58,1081.2,1361.76,1099.98,1357.73,1079.18,1371.58,1081.2" style="stroke:#181818;stroke-width:1.0;"/></g><!--link Agent to EmployeeInfo--><g id="link_Agent_EmployeeInfo"><path codeLine="142" d="M570.77,515.12 C606.34,532.66 641.5,550 641.5,550 C641.5,550 714,578.02 791.95,608.14 " fill="none" id="Agent-to-EmployeeInfo" style="stroke:#181818;stroke-width:1.0;"/><polygon fill="#181818" points="796.61,609.94,789.6573,602.9644,791.9462,608.1374,786.7732,610.4264,796.61,609.94" style="stroke:#181818;stroke-width:1.0;"/></g><!--link NetworkManager to EmployeeInfo--><g id="link_NetworkManager_EmployeeInfo"><path codeLine="143" d="M820.36,515.11 C844.68,540.3 878.01,574.83 907.97,605.87 " fill="none" id="NetworkManager-to-EmployeeInfo" style="stroke:#181818;stroke-width:1.0;"/><polygon fill="#181818" points="911.61,609.63,908.2422,600.3749,908.1393,606.0308,902.4834,605.9279,911.61,609.63" style="stroke:#181818;stroke-width:1.0;"/></g><!--link StoreManager to EmployeeInfo--><g id="link_StoreManager_EmployeeInfo"><path codeLine="144" d="M1056.87,515.11 C1045.42,540 1029.77,573.99 1015.61,604.73 " fill="none" id="StoreManager-to-EmployeeInfo" style="stroke:#181818;stroke-width:1.0;"/><polygon fill="#181818" points="1013.36,609.63,1020.7504,603.1198,1015.4462,605.086,1013.48,599.7819,1013.36,609.63" style="stroke:#181818;stroke-width:1.0;"/></g><!--link SystemAdministrator to EmployeeInfo--><g id="link_SystemAdministrator_EmployeeInfo"><path codeLine="145" d="M1293.38,515.11 C1245.09,540.72 1178.6,575.97 1119.33,607.39 " fill="none" id="SystemAdministrator-to-EmployeeInfo" style="stroke:#181818;stroke-width:1.0;"/><polygon fill="#181818" points="1114.72,609.84,1124.5458,609.1671,1119.1396,607.5019,1120.8048,602.0957,1114.72,609.84" style="stroke:#181818;stroke-width:1.0;"/></g><!--link EmployeeInfo to Store--><g id="link_EmployeeInfo_Store"><path codeLine="147" d="M742.91,754.06 C639.95,784.85 542.5,814 542.5,814 C542.5,814 498.38,827.74 448.95,843.13 " fill="none" id="EmployeeInfo-to-Store" style="stroke:#181818;stroke-width:1.0;"/><polygon fill="#181818" points="444.15,844.63,453.9323,845.7735,448.9239,843.1435,451.5539,838.1352,444.15,844.63" style="stroke:#181818;stroke-width:1.0;"/><text fill="#000000" font-family="sans-serif" font-size="20" lengthAdjust="spacing" textLength="13" x="705.8824" y="781.6379">1</text><text fill="#000000" font-family="sans-serif" font-size="20" lengthAdjust="spacing" textLength="13" x="452.0212" y="837.9191">1</text></g><!--link EmployeeInfo to Role--><g id="link_EmployeeInfo_Role"><path codeLine="148" d="M1191.26,754.08 C1287.38,786.49 1396.9,823.42 1475.05,849.78 " fill="none" id="EmployeeInfo-to-Role" style="stroke:#181818;stroke-width:1.0;"/><polygon fill="#181818" points="1480.16,851.5,1472.9108,844.833,1475.4223,849.9017,1470.3536,852.4133,1480.16,851.5" style="stroke:#181818;stroke-width:1.0;"/><text fill="#000000" font-family="sans-serif" font-size="20" lengthAdjust="spacing" textLength="13" x="1198.3668" y="781.6599">1</text><text fill="#000000" font-family="sans-serif" font-size="20" lengthAdjust="spacing" textLength="35" x="1437.6749" y="844.9211">1..*</text></g><!--link EmployeeInfo to PersonInfo--><g id="link_EmployeeInfo_PersonInfo"><path codeLine="149" d="M915.67,754.28 C852.43,823.81 754.99,930.95 679.42,1014.04 " fill="none" id="EmployeeInfo-to-PersonInfo" style="stroke:#181818;stroke-width:1.0;"/><polygon fill="#181818" points="675.84,1017.98,684.8576,1014.0199,679.2069,1014.2835,678.9433,1008.6328,675.84,1017.98" style="stroke:#181818;stroke-width:1.0;"/><text fill="#000000" font-family="sans-serif" font-size="20" lengthAdjust="spacing" textLength="13" x="895.8714" y="781.6172">1</text><text fill="#000000" font-family="sans-serif" font-size="20" lengthAdjust="spacing" textLength="13" x="669.3001" y="1005.9583">1</text></g><!--link PersonInfo to Address--><g id="link_PersonInfo_Address"><path codeLine="151" d="M476.8,1256.3 C462.28,1275.04 447.61,1293.97 434.11,1311.38 " fill="none" id="PersonInfo-to-Address" style="stroke:#181818;stroke-width:1.0;"/><polygon fill="#181818" points="430.71,1315.77,439.3859,1311.1085,433.7738,1311.8186,433.0636,1306.2065,430.71,1315.77" style="stroke:#181818;stroke-width:1.0;"/><text fill="#000000" font-family="sans-serif" font-size="20" lengthAdjust="spacing" textLength="13" x="457.8159" y="1283.6101">1</text><text fill="#000000" font-family="sans-serif" font-size="20" lengthAdjust="spacing" textLength="13" x="422.5049" y="1303.8803">1</text></g><!--link PersonInfo to PassportCard--><g id="link_PersonInfo_PassportCard"><path codeLine="152" d="M568.5,1256.3 C568.5,1288.4 568.5,1321.05 568.5,1345.69 " fill="none" id="PersonInfo-to-PassportCard" style="stroke:#181818;stroke-width:1.0;"/><polygon fill="#181818" points="568.5,1350.82,572.5,1341.82,568.5,1345.82,564.5,1341.82,568.5,1350.82" style="stroke:#181818;stroke-width:1.0;"/><text fill="#000000" font-family="sans-serif" font-size="20" lengthAdjust="spacing" textLength="13" x="555.1039" y="1283.6101">1</text><text fill="#000000" font-family="sans-serif" font-size="20" lengthAdjust="spacing" textLength="13" x="554.3828" y="1338.875">1</text></g><!--link PersonInfo to SocialSecurityCard--><g id="link_PersonInfo_SocialSecurityCard"><path codeLine="153" d="M673.97,1256.3 C703.07,1288.94 732.68,1322.14 754.76,1346.92 " fill="none" id="PersonInfo-to-SocialSecurityCard" style="stroke:#181818;stroke-width:1.0;"/><polygon fill="#181818" points="758.24,1350.82,755.2303,1341.4423,754.9102,1347.0901,749.2624,1346.7699,758.24,1350.82" style="stroke:#181818;stroke-width:1.0;"/><text fill="#000000" font-family="sans-serif" font-size="20" lengthAdjust="spacing" textLength="13" x="667.001" y="1283.6101">1</text><text fill="#000000" font-family="sans-serif" font-size="20" lengthAdjust="spacing" textLength="13" x="738.5781" y="1338.875">1</text></g><!--SRC=[hLLDRniX4BtpAr0ljUiFfJrNbfoFIfRQA8gLtidks45cOGKugPlsltTOl0iiwpY7NbOBxp4pRmPcp8xBccbM2LNieAGbRDXUs6zAsZN_3VJB1VbeMWwjb5J5arOLKAltG09IisB7jh2s1m5KGs6Pt8gOO9vOgLwutD8D4oP619TW3pNGMec3Mv08B0GpPccjvezx2wj2oIQi2q8QXDx3bXiB-gQgXJe0FAnUoTzJu1Mgqae8qFILJBPWrrPfCADnixXNml_hth4H77y2x_9m3OPl9RDSoH7Q15mNcjTkFGwsKvvnMz76E0wrLeOZpi7us5RIO18BE4RN1jCH3wF8JxRhWamsWwS4UIMpxoZsgzjTD9XRaacXwjXKggCSb917s1flaGLjC-cTl9NePoPuoImCOQmi1xQxGExmyw9q-TERKBf9g0IDvbhCPsGbqVk65T05xtD_1zgWpiZc4WrOrDFoLdAZEZL8ywnRi6XyzuD9V0lwBBqftRl91qnLjImhBZ5fskiwUQPN4mUZj7WvgXkHKzhSoYbrbnXpMsY8izwIyjiyfTd5YCgMU7ZluS7C-nqlOBR6He0jHB8AkeK50VMJad2xhnv1T_jGCIu8cGG38tTksZymzSmfnMk5tS1CiPaPKojjhvWkCJ-gu4oieTXhRWzkRtnye6YnB_aj3rrsZoB_QpGtxbISjsjcsIKpxaORa6MBJmnxXWU34SJaNXDf7swplV1erXS66bpV8jfPUXcjdAuwKG_fLUnKNPCEzZfeA3nNxosmyCK0s6vPOEw21VUUU64ZCXOfxITj0Q8xs8jgdHKcS2tx5KIGV6RH-NpnnhJAZqIJRExFXl5nbfmtwlFsaw5nbjwxJcVutObty5mWBXr1BftDPeiFdpyCoqfumXFpw19Mm-a99kcQ8iNnvlDFdafwDXE2rvQ7rv0wLekJ8QQJtZxeKtWszWXffXQ2VqBHIJgZUc0yaVfGFdzwZACxb9JCdRx734-SvkY0tun4aZde2kWeNR5FmQ5-0uIZWJ0-20d_YOzZjpa5n_tZ52Vl7kGV]--></g></svg>