<?xml version="1.0" encoding="UTF-8" standalone="no"?><svg xmlns="http://www.w3.org/2000/svg" xmlns:xlink="http://www.w3.org/1999/xlink" contentStyleType="text/css" height="938px" preserveAspectRatio="none" style="width:1592px;height:938px;background:#FFFFFF;" version="1.1" viewBox="0 0 1592 938" width="1592px" zoomAndPan="magnify"><defs/><g><!--class fix--><!--class Equipment--><g id="elem_Equipment"><rect codeLine="9" fill="#F1F1F1" height="65.1094" id="Equipment" rx="2.5" ry="2.5" style="stroke:#181818;stroke-width:0.5;" width="124" x="1280.8" y="259.7188"/><text fill="#000000" font-family="sans-serif" font-size="20" lengthAdjust="spacing" textLength="104" x="1290.8" y="284.0547">Equipment</text><line style="stroke:#181818;stroke-width:0.5;" x1="1281.8" x2="1403.8" y1="293.2734" y2="293.2734"/><text fill="#000000" font-family="sans-serif" font-size="20" lengthAdjust="spacing" textLength="112" x="1286.8" y="316.6094">designation</text></g><!--class Photograph--><g id="elem_Photograph"><rect codeLine="12" fill="#F1F1F1" height="65.1094" id="Photograph" rx="2.5" ry="2.5" style="stroke:#181818;stroke-width:0.5;" width="116" x="1071.8" y="86.2188"/><text fill="#000000" font-family="sans-serif" font-size="20" lengthAdjust="spacing" textLength="110" x="1074.8" y="110.5547">Photograph</text><line style="stroke:#181818;stroke-width:0.5;" x1="1072.8" x2="1186.8" y1="119.7734" y2="119.7734"/><text fill="#000000" font-family="sans-serif" font-size="20" lengthAdjust="spacing" textLength="69" x="1077.8" y="143.1094">linkURI</text></g><!--class Commission--><g id="elem_Commission"><rect codeLine="15" fill="#F1F1F1" height="65.1094" id="Commission" rx="2.5" ry="2.5" style="stroke:#181818;stroke-width:0.5;" width="126" x="906.8" y="654.2188"/><text fill="#000000" font-family="sans-serif" font-size="20" lengthAdjust="spacing" textLength="120" x="909.8" y="678.5547">Commission</text><line style="stroke:#181818;stroke-width:0.5;" x1="907.8" x2="1031.8" y1="687.7734" y2="687.7734"/><text fill="#000000" font-family="sans-serif" font-size="20" lengthAdjust="spacing" textLength="50" x="912.8" y="711.1094">value</text></g><!--class Property--><g id="elem_Property"><rect codeLine="18" fill="#F1F1F1" height="88.6641" id="Property" rx="2.5" ry="2.5" style="stroke:#181818;stroke-width:0.5;" width="192" x="618.8" y="421.2188"/><text fill="#000000" font-family="sans-serif" font-size="20" lengthAdjust="spacing" textLength="80" x="674.8" y="445.5547">Property</text><line style="stroke:#181818;stroke-width:0.5;" x1="619.8" x2="809.8" y1="454.7734" y2="454.7734"/><text fill="#000000" font-family="sans-serif" font-size="20" lengthAdjust="spacing" textLength="41" x="624.8" y="478.1094">area</text><text fill="#000000" font-family="sans-serif" font-size="20" lengthAdjust="spacing" textLength="180" x="624.8" y="501.6641">distanceCityCentre</text></g><!--class Residence--><g id="elem_Residence"><rect codeLine="22" fill="#F1F1F1" height="112.2188" id="Residence" rx="2.5" ry="2.5" style="stroke:#181818;stroke-width:0.5;" width="248" x="1032.8" y="409.7188"/><text fill="#000000" font-family="sans-serif" font-size="20" lengthAdjust="spacing" textLength="97" x="1108.3" y="434.0547">Residence</text><line style="stroke:#181818;stroke-width:0.5;" x1="1033.8" x2="1279.8" y1="443.2734" y2="443.2734"/><text fill="#000000" font-family="sans-serif" font-size="20" lengthAdjust="spacing" textLength="195" x="1038.8" y="466.6094">numberOfBedrooms</text><text fill="#000000" font-family="sans-serif" font-size="20" lengthAdjust="spacing" textLength="201" x="1038.8" y="490.1641">numberOfBathrooms</text><text fill="#000000" font-family="sans-serif" font-size="20" lengthAdjust="spacing" textLength="236" x="1038.8" y="513.7188">numberOfParkingSpaces</text></g><!--class House--><g id="elem_House"><rect codeLine="27" fill="#F1F1F1" height="112.2188" id="House" rx="2.5" ry="2.5" style="stroke:#181818;stroke-width:0.5;" width="270" x="1315.8" y="409.7188"/><text fill="#000000" font-family="sans-serif" font-size="20" lengthAdjust="spacing" textLength="60" x="1420.8" y="434.0547">House</text><line style="stroke:#181818;stroke-width:0.5;" x1="1316.8" x2="1584.8" y1="443.2734" y2="443.2734"/><text fill="#000000" font-family="sans-serif" font-size="20" lengthAdjust="spacing" textLength="206" x="1321.8" y="466.6094">existenceOfBasement</text><text fill="#000000" font-family="sans-serif" font-size="20" lengthAdjust="spacing" textLength="258" x="1321.8" y="490.1641">existenceOfInhabitableLoft</text><text fill="#000000" font-family="sans-serif" font-size="20" lengthAdjust="spacing" textLength="123" x="1321.8" y="513.7188">sunExposure</text></g><!--class Person--><g id="elem_Person"><rect codeLine="32" fill="#F1F1F1" height="112.2188" id="Person" rx="2.5" ry="2.5" style="stroke:#181818;stroke-width:0.5;" width="185" x="101.3" y="62.7188"/><text fill="#000000" font-family="sans-serif" font-size="20" lengthAdjust="spacing" textLength="64" x="161.8" y="87.0547">Person</text><line style="stroke:#181818;stroke-width:0.5;" x1="102.3" x2="285.3" y1="96.2734" y2="96.2734"/><text fill="#000000" font-family="sans-serif" font-size="20" lengthAdjust="spacing" textLength="53" x="107.3" y="119.6094">name</text><text fill="#000000" font-family="sans-serif" font-size="20" lengthAdjust="spacing" textLength="132" x="107.3" y="143.1641">emailAddress</text><text fill="#000000" font-family="sans-serif" font-size="20" lengthAdjust="spacing" textLength="173" x="107.3" y="166.7188">telephoneNumber</text></g><!--class Owner--><g id="elem_Owner"><rect codeLine="37" fill="#F1F1F1" height="33.5547" id="Owner" rx="2.5" ry="2.5" style="stroke:#181818;stroke-width:0.5;" width="68" x="102.8" y="448.7188"/><text fill="#000000" font-family="sans-serif" font-size="20" lengthAdjust="spacing" textLength="62" x="105.8" y="473.0547">Owner</text></g><!--class Agent--><g id="elem_Agent"><rect codeLine="39" fill="#F1F1F1" height="33.5547" id="Agent" rx="2.5" ry="2.5" style="stroke:#181818;stroke-width:0.5;" width="62" x="325.8" y="669.7188"/><text fill="#000000" font-family="sans-serif" font-size="20" lengthAdjust="spacing" textLength="56" x="328.8" y="694.0547">Agent</text></g><!--class TypeOfCommission--><g id="elem_TypeOfCommission"><rect codeLine="41" fill="#F1F1F1" height="65.1094" id="TypeOfCommission" rx="2.5" ry="2.5" style="stroke:#181818;stroke-width:0.5;" width="196" x="1247.8" y="654.2188"/><text fill="#000000" font-family="sans-serif" font-size="20" lengthAdjust="spacing" textLength="190" x="1250.8" y="678.5547">TypeOfCommission</text><line style="stroke:#181818;stroke-width:0.5;" x1="1248.8" x2="1442.8" y1="687.7734" y2="687.7734"/><text fill="#000000" font-family="sans-serif" font-size="20" lengthAdjust="spacing" textLength="112" x="1253.8" y="711.1094">designation</text></g><!--class Address--><g id="elem_Address"><rect codeLine="44" fill="#F1F1F1" height="112.2188" id="Address" rx="2.5" ry="2.5" style="stroke:#181818;stroke-width:0.5;" width="85" x="563.3" y="62.7188"/><text fill="#000000" font-family="sans-serif" font-size="20" lengthAdjust="spacing" textLength="79" x="566.3" y="87.0547">Address</text><line style="stroke:#181818;stroke-width:0.5;" x1="564.3" x2="647.3" y1="96.2734" y2="96.2734"/><text fill="#000000" font-family="sans-serif" font-size="20" lengthAdjust="spacing" textLength="46" x="569.3" y="119.6094">state</text><text fill="#000000" font-family="sans-serif" font-size="20" lengthAdjust="spacing" textLength="67" x="569.3" y="143.1641">district</text><text fill="#000000" font-family="sans-serif" font-size="20" lengthAdjust="spacing" textLength="33" x="569.3" y="166.7188">city</text></g><!--class SocialSecurityCard--><g id="elem_SocialSecurityCard"><rect codeLine="49" fill="#F1F1F1" height="65.1094" id="SocialSecurityCard" rx="2.5" ry="2.5" style="stroke:#181818;stroke-width:0.5;" width="183" x="440.3" y="259.7188"/><text fill="#000000" font-family="sans-serif" font-size="20" lengthAdjust="spacing" textLength="177" x="443.3" y="284.0547">SocialSecurityCard</text><line style="stroke:#181818;stroke-width:0.5;" x1="441.3" x2="622.3" y1="293.2734" y2="293.2734"/><text fill="#000000" font-family="sans-serif" font-size="20" lengthAdjust="spacing" textLength="108" x="446.3" y="316.6094">taxNumber</text></g><!--class Passport--><g id="elem_Passport"><rect codeLine="52" fill="#F1F1F1" height="65.1094" id="Passport" rx="2.5" ry="2.5" style="stroke:#181818;stroke-width:0.5;" width="88" x="439.8" y="86.2188"/><text fill="#000000" font-family="sans-serif" font-size="20" lengthAdjust="spacing" textLength="82" x="442.8" y="110.5547">Passport</text><line style="stroke:#181818;stroke-width:0.5;" x1="440.8" x2="526.8" y1="119.7734" y2="119.7734"/><text fill="#000000" font-family="sans-serif" font-size="20" lengthAdjust="spacing" textLength="75" x="445.8" y="143.1094">number</text></g><!--class Advertisement--><g id="elem_Advertisement"><rect codeLine="55" fill="#F1F1F1" height="112.2188" id="Advertisement" rx="2.5" ry="2.5" style="stroke:#181818;stroke-width:0.5;" width="216" x="537.8" y="630.7188"/><text fill="#000000" font-family="sans-serif" font-size="20" lengthAdjust="spacing" textLength="139" x="576.3" y="655.0547">Advertisement</text><line style="stroke:#181818;stroke-width:0.5;" x1="538.8" x2="752.8" y1="664.2734" y2="664.2734"/><text fill="#000000" font-family="sans-serif" font-size="20" lengthAdjust="spacing" textLength="204" x="543.8" y="687.6094">dateOfAdvertisement</text><text fill="#000000" font-family="sans-serif" font-size="20" lengthAdjust="spacing" textLength="48" x="543.8" y="711.1641">price</text><text fill="#000000" font-family="sans-serif" font-size="20" lengthAdjust="spacing" textLength="153" x="543.8" y="734.7188">purchaseOrders</text></g><!--class TypeOfProperty--><g id="elem_TypeOfProperty"><rect codeLine="60" fill="#F1F1F1" height="65.1094" id="TypeOfProperty" rx="2.5" ry="2.5" style="stroke:#181818;stroke-width:0.5;" width="156" x="801.8" y="86.2188"/><text fill="#000000" font-family="sans-serif" font-size="20" lengthAdjust="spacing" textLength="150" x="804.8" y="110.5547">TypeOfProperty</text><line style="stroke:#181818;stroke-width:0.5;" x1="802.8" x2="956.8" y1="119.7734" y2="119.7734"/><text fill="#000000" font-family="sans-serif" font-size="20" lengthAdjust="spacing" textLength="112" x="807.8" y="143.1094">designation</text></g><!--class TypeOfBusiness--><g id="elem_TypeOfBusiness"><rect codeLine="63" fill="#F1F1F1" height="65.1094" id="TypeOfBusiness" rx="2.5" ry="2.5" style="stroke:#181818;stroke-width:0.5;" width="159" x="566.3" y="866.2188"/><text fill="#000000" font-family="sans-serif" font-size="20" lengthAdjust="spacing" textLength="153" x="569.3" y="890.5547">TypeOfBusiness</text><line style="stroke:#181818;stroke-width:0.5;" x1="567.3" x2="724.3" y1="899.7734" y2="899.7734"/><text fill="#000000" font-family="sans-serif" font-size="20" lengthAdjust="spacing" textLength="112" x="572.3" y="923.1094">designation</text></g><!--class Role--><g id="elem_Role"><rect codeLine="66" fill="#F1F1F1" height="65.1094" id="Role" rx="2.5" ry="2.5" style="stroke:#181818;stroke-width:0.5;" width="124" x="280.8" y="259.7188"/><text fill="#000000" font-family="sans-serif" font-size="20" lengthAdjust="spacing" textLength="42" x="321.8" y="284.0547">Role</text><line style="stroke:#181818;stroke-width:0.5;" x1="281.8" x2="403.8" y1="293.2734" y2="293.2734"/><text fill="#000000" font-family="sans-serif" font-size="20" lengthAdjust="spacing" textLength="112" x="286.8" y="316.6094">designation</text></g><!--class Employee--><g id="elem_Employee"><rect fill="#F1F1F1" height="33.5547" id="Employee" rx="2.5" ry="2.5" style="stroke:#181818;stroke-width:0.5;" width="99" x="55.3" y="275.2188"/><text fill="#000000" font-family="sans-serif" font-size="20" lengthAdjust="spacing" textLength="93" x="58.3" y="299.5547">Employee</text></g><!--link Person to Address--><g id="link_Person_Address"><path codeLine="74" d="M282.96,62.5688 C312.76,46.7787 346.91,31.7287 380.3,23.7188 C418.77,14.4887 430.87,14.3787 469.3,23.7188 C504.65,32.3088 538.27,55.4588 563.3,76.7487 " fill="none" id="Person-Address" style="stroke:#181818;stroke-width:1.0;"/><polygon fill="#000000" points="396.2898,20.9002,382.0737,15.4729,381.5986,24.8654,396.2898,20.9002" style="stroke:#000000;stroke-width:1.0;"/><text fill="#000000" font-family="sans-serif" font-size="20" lengthAdjust="spacing" textLength="67" x="401.3" y="28.0547">lives at</text><text fill="#000000" font-family="sans-serif" font-size="20" lengthAdjust="spacing" textLength="10" x="283.217" y="50.6803">*</text><text fill="#000000" font-family="sans-serif" font-size="20" lengthAdjust="spacing" textLength="13" x="542.1844" y="64.2565">1</text></g><!--link Person to SocialSecurityCard--><g id="link_Person_SocialSecurityCard"><path codeLine="75" d="M286.61,166.8088 C344.85,196.3588 418.36,233.6588 469.63,259.6688 " fill="none" id="Person-SocialSecurityCard" style="stroke:#181818;stroke-width:1.0;"/><polygon fill="#000000" points="418.9342,221.1158,408.1559,210.3743,403.9006,218.7611,418.9342,221.1158" style="stroke:#000000;stroke-width:1.0;"/><text fill="#000000" font-family="sans-serif" font-size="20" lengthAdjust="spacing" textLength="97" x="424.8" y="225.0547">possesses</text><text fill="#000000" font-family="sans-serif" font-size="20" lengthAdjust="spacing" textLength="13" x="294.2134" y="165.959">1</text><text fill="#000000" font-family="sans-serif" font-size="20" lengthAdjust="spacing" textLength="13" x="443.1106" y="247.3762">1</text></g><!--link Person to Passport--><g id="link_Person_Passport"><path codeLine="76" d="M286.36,118.7188 C337.58,118.7188 398.89,118.7188 439.46,118.7188 " fill="none" id="Person-Passport" style="stroke:#181818;stroke-width:1.0;"/><polygon fill="#000000" points="319.55,103.4961,305.0779,98.7938,305.0779,108.1984,319.55,103.4961" style="stroke:#000000;stroke-width:1.0;"/><text fill="#000000" font-family="sans-serif" font-size="20" lengthAdjust="spacing" textLength="97" x="324.55" y="111.0547">possesses</text><text fill="#000000" font-family="sans-serif" font-size="20" lengthAdjust="spacing" textLength="13" x="294.2538" y="114.1517">1</text><text fill="#000000" font-family="sans-serif" font-size="20" lengthAdjust="spacing" textLength="13" x="418.6751" y="113.3278">1</text></g><!--link Employee to Role--><g id="link_Employee_Role"><path codeLine="78" d="M154.41,292.2188 C191.05,292.2188 241.2,292.2188 280.54,292.2188 " fill="none" id="Employee-Role" style="stroke:#181818;stroke-width:1.0;"/><polygon fill="#000000" points="171.55,276.9961,186.0221,281.6984,186.0221,272.2938,171.55,276.9961" style="stroke:#000000;stroke-width:1.0;"/><text fill="#000000" font-family="sans-serif" font-size="20" lengthAdjust="spacing" textLength="70" x="192.55" y="284.5547">defines</text><text fill="#000000" font-family="sans-serif" font-size="20" lengthAdjust="spacing" textLength="10" x="162.4308" y="286.9391">*</text><text fill="#000000" font-family="sans-serif" font-size="20" lengthAdjust="spacing" textLength="13" x="259.5896" y="287.2507">1</text></g><!--reverse link Role to Agent--><g id="link_Role_Agent"><path codeLine="79" d="M344.66,345.2587 C347.86,435.0488 354.27,614.7188 356.22,669.4988 " fill="none" id="Role-backto-Agent" style="stroke:#181818;stroke-width:1.0;"/><polygon fill="none" points="337.65,345.2388,343.94,325.0087,351.65,344.7488,337.65,345.2388" style="stroke:#181818;stroke-width:1.0;"/></g><!--reverse link Person to Employee--><g id="link_Person_Employee"><path codeLine="80" d="M155.76,193.0187 C139.93,223.5388 122.97,256.2088 113.16,275.1188 " fill="none" id="Person-backto-Employee" style="stroke:#181818;stroke-width:1.0;"/><polygon fill="none" points="149.73,189.4588,165.15,174.9288,162.15,195.8987,149.73,189.4588" style="stroke:#181818;stroke-width:1.0;"/></g><!--link Advertisement to TypeOfBusiness--><g id="link_Advertisement_TypeOfBusiness"><path codeLine="82" d="M645.8,742.8988 C645.8,782.1488 645.8,833.4888 645.8,866.0488 " fill="none" id="Advertisement-TypeOfBusiness" style="stroke:#181818;stroke-width:1.0;"/><polygon fill="#000000" points="653.8,777.4961,649.0977,791.9682,658.5023,791.9682,653.8,777.4961" style="stroke:#000000;stroke-width:1.0;"/><text fill="#000000" font-family="sans-serif" font-size="20" lengthAdjust="spacing" textLength="96" x="666.8" y="793.0547">present in</text><text fill="#000000" font-family="sans-serif" font-size="20" lengthAdjust="spacing" textLength="10" x="635.2219" y="770.0796">*</text><text fill="#000000" font-family="sans-serif" font-size="20" lengthAdjust="spacing" textLength="13" x="631.5609" y="854.0072">1</text></g><!--link Advertisement to fix--><!--link Owner to Property--><g id="link_Owner_Property"><path codeLine="85" d="M171.23,465.7188 C257.81,465.7188 487.07,465.7188 618.54,465.7188 " fill="none" id="Owner-Property" style="stroke:#181818;stroke-width:1.0;"/><polygon fill="#000000" points="375.3,450.4961,360.8279,445.7938,360.8279,455.1984,375.3,450.4961" style="stroke:#000000;stroke-width:1.0;"/><text fill="#000000" font-family="sans-serif" font-size="20" lengthAdjust="spacing" textLength="49" x="380.3" y="458.0547">owns</text></g><!--link Address to Property--><g id="link_Address_Property"><path codeLine="86" d="M623.2,174.7687 C644.8,243.1588 681.23,358.4588 701.01,421.0788 " fill="none" id="Address-Property" style="stroke:#181818;stroke-width:1.0;"/><polygon fill="#000000" points="674.3902,284.8677,674.2657,300.0841,683.2335,297.2511,674.3902,284.8677" style="stroke:#000000;stroke-width:1.0;"/><text fill="#000000" font-family="sans-serif" font-size="20" lengthAdjust="spacing" textLength="94" x="689.8" y="300.0547">located at</text><text fill="#000000" font-family="sans-serif" font-size="20" lengthAdjust="spacing" textLength="13" x="611.5284" y="202.3578">1</text><text fill="#000000" font-family="sans-serif" font-size="20" lengthAdjust="spacing" textLength="13" x="684.9031" y="408.8864">1</text></g><!--link Photograph to Property--><g id="link_Photograph_Property"><path codeLine="87" d="M1118.24,151.3987 C1100.79,195.3787 1063.9,275.1088 1009.8,324.7188 C952.98,376.8288 873.28,413.0788 811.04,435.6188 " fill="none" id="Photograph-Property" style="stroke:#181818;stroke-width:1.0;"/><polygon fill="#000000" points="1063.9278,297.929,1077.7441,291.5523,1071.3573,284.6491,1063.9278,297.929" style="stroke:#000000;stroke-width:1.0;"/><text fill="#000000" font-family="sans-serif" font-size="20" lengthAdjust="spacing" textLength="94" x="1082.8" y="300.0547">illustrates</text><text fill="#000000" font-family="sans-serif" font-size="20" lengthAdjust="spacing" textLength="51" x="1060.6387" y="178.6439">1..30</text><text fill="#000000" font-family="sans-serif" font-size="20" lengthAdjust="spacing" textLength="13" x="818.906" y="428.8038">1</text></g><!--link TypeOfProperty to Property--><g id="link_TypeOfProperty_Property"><path codeLine="88" d="M867.56,151.4488 C851.59,192.1387 822.19,264.6287 792.8,324.7188 C776.73,357.5888 756.59,393.6287 740.8,420.9088 " fill="none" id="TypeOfProperty-Property" style="stroke:#181818;stroke-width:1.0;"/><polygon fill="#000000" points="833.2054,285.2571,822.79,296.3509,831.3,300.3542,833.2054,285.2571" style="stroke:#000000;stroke-width:1.0;"/><text fill="#000000" font-family="sans-serif" font-size="20" lengthAdjust="spacing" textLength="158" x="842.8" y="300.0547">characterized by</text><text fill="#000000" font-family="sans-serif" font-size="20" lengthAdjust="spacing" textLength="13" x="851.2219" y="178.7028">1</text><text fill="#000000" font-family="sans-serif" font-size="20" lengthAdjust="spacing" textLength="10" x="733.8844" y="409.0396">*</text></g><!--link Commission to TypeOfCommission--><g id="link_Commission_TypeOfCommission"><path codeLine="90" d="M1033.16,686.7188 C1091.76,686.7188 1179.77,686.7188 1247.5,686.7188 " fill="none" id="Commission-TypeOfCommission" style="stroke:#181818;stroke-width:1.0;"/><polygon fill="#000000" points="1066.3,671.4961,1051.8279,666.7938,1051.8279,676.1984,1066.3,671.4961" style="stroke:#000000;stroke-width:1.0;"/><text fill="#000000" font-family="sans-serif" font-size="20" lengthAdjust="spacing" textLength="158" x="1071.3" y="679.0547">characterized by</text><text fill="#000000" font-family="sans-serif" font-size="20" lengthAdjust="spacing" textLength="10" x="1040.6369" y="681.8212">*</text><text fill="#000000" font-family="sans-serif" font-size="20" lengthAdjust="spacing" textLength="13" x="1226.8038" y="682.2265">1</text></g><!--link Advertisement to Commission--><g id="link_Advertisement_Commission"><path codeLine="91" d="M754.14,686.7188 C804.73,686.7188 863.19,686.7188 906.47,686.7188 " fill="none" id="Advertisement-Commission" style="stroke:#181818;stroke-width:1.0;"/><polygon fill="#000000" points="771.3,671.4961,785.7721,676.1984,785.7721,666.7938,771.3,671.4961" style="stroke:#000000;stroke-width:1.0;"/><text fill="#000000" font-family="sans-serif" font-size="20" lengthAdjust="spacing" textLength="96" x="792.3" y="679.0547">present in</text><text fill="#000000" font-family="sans-serif" font-size="20" lengthAdjust="spacing" textLength="13" x="761.8558" y="682.2933">1</text><text fill="#000000" font-family="sans-serif" font-size="20" lengthAdjust="spacing" textLength="13" x="885.8323" y="681.8212">1</text></g><!--link Agent to fix--><!--link Owner to fix--><!--reverse link Property to Residence--><g id="link_Property_Residence"><path codeLine="96" d="M831.39,465.7188 C898.44,465.7188 965.5,465.7188 1032.55,465.7188 " fill="none" id="Property-backto-Residence" style="stroke:#181818;stroke-width:1.0;"/><polygon fill="none" points="831.06,472.7188,811.06,465.7188,831.06,458.7188,831.06,472.7188" style="stroke:#181818;stroke-width:1.0;"/></g><!--reverse link Residence to House--><g id="link_Residence_House"><path codeLine="97" d="M1300.99,465.7188 C1305.89,465.7188 1310.79,465.7188 1315.69,465.7188 " fill="none" id="Residence-backto-House" style="stroke:#181818;stroke-width:1.0;"/><polygon fill="none" points="1300.83,472.7188,1280.83,465.7188,1300.83,458.7188,1300.83,472.7188" style="stroke:#181818;stroke-width:1.0;"/></g><!--link Equipment to Residence--><g id="link_Equipment_Residence"><path codeLine="98" d="M1308.25,325.0788 C1282.62,348.7088 1247.02,381.5287 1216.78,409.4188 " fill="none" id="Equipment-Residence" style="stroke:#181818;stroke-width:1.0;"/><polygon fill="#000000" points="1285.6814,362.0731,1271.8543,368.4264,1278.2294,375.3404,1285.6814,362.0731" style="stroke:#000000;stroke-width:1.0;"/><text fill="#000000" font-family="sans-serif" font-size="20" lengthAdjust="spacing" textLength="80" x="1292.8" y="375.0547">contains</text></g><!--reverse link Person to Owner--><g id="link_Person_Owner"><path codeLine="99" d="M92.14,188.3188 C70.17,208.5187 49.91,232.5788 37.8,259.7188 C6,330.9988 82.19,414.3088 118.67,448.6588 " fill="none" id="Person-backto-Owner" style="stroke:#181818;stroke-width:1.0;"/><polygon fill="none" points="87.85,182.7687,107.55,174.9588,97.02,193.3488,87.85,182.7687" style="stroke:#181818;stroke-width:1.0;"/></g><!--link Agent to Advertisement--><g id="link_Agent_Advertisement"><path codeLine="100" d="M388.01,686.7188 C423.76,686.7188 484.33,686.7188 537.78,686.7188 " fill="none" id="Agent-Advertisement" style="stroke:#181818;stroke-width:1.0;"/><polygon fill="#000000" points="421.3,671.4961,406.8279,666.7938,406.8279,676.1984,421.3,671.4961" style="stroke:#000000;stroke-width:1.0;"/><text fill="#000000" font-family="sans-serif" font-size="20" lengthAdjust="spacing" textLength="93" x="426.3" y="679.0547">publishes</text><text fill="#000000" font-family="sans-serif" font-size="20" lengthAdjust="spacing" textLength="13" x="395.7877" y="680.7859">1</text><text fill="#000000" font-family="sans-serif" font-size="20" lengthAdjust="spacing" textLength="10" x="519.8333" y="682.2579">*</text></g><!--link Agent to Commission--><g id="link_Agent_Commission"><path codeLine="101" d="M387.88,674.2788 C420.33,661.7088 472.94,642.5088 519.8,630.7188 C598.1,611.0288 806.45,547.9788 879.8,581.7188 C911.98,596.5188 936.95,629.1188 952.34,654.0988 " fill="none" id="Agent-Commission" style="stroke:#181818;stroke-width:1.0;"/><polygon fill="#000000" points="835.7949,576.2103,821.164,572.0281,821.5,581.4266,835.7949,576.2103" style="stroke:#000000;stroke-width:1.0;"/><text fill="#000000" font-family="sans-serif" font-size="20" lengthAdjust="spacing" textLength="38" x="840.8" y="584.0547">sets</text><text fill="#000000" font-family="sans-serif" font-size="20" lengthAdjust="spacing" textLength="13" x="388.7063" y="657.4297">1</text><text fill="#000000" font-family="sans-serif" font-size="20" lengthAdjust="spacing" textLength="10" x="938.0586" y="642.0668">*</text></g><!--link Owner to Agent--><g id="link_Owner_Agent"><path codeLine="102" d="M139.71,483.1188 C145.32,510.5387 160.02,566.0688 191.8,600.7188 C228.72,640.9688 289.09,665.1788 325.67,676.9488 " fill="none" id="Owner-Agent" style="stroke:#181818;stroke-width:1.0;"/><text fill="#000000" font-family="sans-serif" font-size="20" lengthAdjust="spacing" textLength="124" x="199.3" y="572.0547">requests and</text><polygon fill="#000000" points="206.3384,593.8236,199.7125,580.125,192.9261,586.6359,206.3384,593.8236" style="stroke:#000000;stroke-width:1.0;"/><text fill="#000000" font-family="sans-serif" font-size="20" lengthAdjust="spacing" textLength="117" x="212.8" y="595.6094">gives info to</text></g><!--link Property to Agent--><g id="link_Property_Agent"><path codeLine="103" d="M618.54,495.7088 C579.73,509.6188 535.55,528.3888 498.8,551.7188 C445,585.8788 393.64,642.1288 370.15,669.6088 " fill="none" id="Property-Agent" style="stroke:#181818;stroke-width:1.0;"/><polygon fill="#000000" points="513.3535,571.9079,498.8012,576.3559,504.195,584.0601,513.3535,571.9079" style="stroke:#000000;stroke-width:1.0;"/><text fill="#000000" font-family="sans-serif" font-size="20" lengthAdjust="spacing" textLength="145" x="519.8" y="584.0547">responsible for</text><text fill="#000000" font-family="sans-serif" font-size="20" lengthAdjust="spacing" textLength="10" x="600.7873" y="493.4944">*</text><text fill="#000000" font-family="sans-serif" font-size="20" lengthAdjust="spacing" textLength="13" x="359.2478" y="657.336">1</text></g><!--link Property to Advertisement--><g id="link_Property_Advertisement"><path codeLine="104" d="M701.09,510.2488 C690.2,544.7987 674.91,593.3288 663.17,630.5888 " fill="none" id="Property-Advertisement" style="stroke:#181818;stroke-width:1.0;"/><polygon fill="#000000" points="696.2043,568.8659,687.37,581.2558,696.3398,584.0822,696.2043,568.8659" style="stroke:#000000;stroke-width:1.0;"/><text fill="#000000" font-family="sans-serif" font-size="20" lengthAdjust="spacing" textLength="88" x="706.8" y="584.0547">based on</text></g><!--SRC=[RPLDRzim38Rl-XL2ZWLSjDijA0fqHOSL69QWsKxR3ef4sq9aoTL7cypRVnybVybjW298n9SY-P1YtK7gbbdMACCF8AY0aWNbFnljT_8Fq0zNn8qIsXXjU6rD0zJR09cbPVp0AjZvam9gWNkcAvKBNCs4UPMweYLJBhTmnPoxyzxAVV3mo8rEWQz8BGLGBYt7Yz9tQ5f_eWqqUx2E498ywSDpa6q3sdT4W9ELPbuQJVuDvcrjlAaiQ-kEAAaFFvuU9zkzQHhf7Cexyi8KLZHvMTE2nMWTOHOO4T9XIHpkfJ_TOomxIvymg02qeLQ7cDkc_0J26jEu-O3vUdcoPHOHL3ia1swwx8i93Ze2HumNxuoU3c9r-TcZhjbUUhPNyDMKdhYW7uwjSI5BQukCObsQDK2WOLBT2M71EU91GLiR3TzIAfF7vbM3nIB6ttSLXir-Vp-r63jdText4AKZ2Cn30cSbzuGZkKcqCrmojGCUR0JAhC0udXtVPBJ5ZzPOFv7DehnWUsIF1iq2OstAnIbfCIwGDbXU8yED5N5gbiMCRJvVIg_v59pKgQ9pcYUZOkENfk4rq3YrtI0ivJ6nJ9CSF_1xtwFLnOeMT7Mz6j2jgP8lu2Zpz7QKNACaQTwJMrFil8FujzH7-KXmAI8nwwHHK7gA2JmqhJ8dW7LS0B5SLANIRluMXUr7ORWx7T7HWP05z5HBYlo67YQ0jSLcIRo1H1f5yHCvuDFv7TfbGzUq9AGVns9wYcjgNdNCQy3KC-chd2IunN0IH6HtGyRZGObHLjUNbn-lLlDEM5EfLC0HHI-NkrpCBglbhAmfpfDbt8F5FINe_XI9pizYQkVRztBMCVDBMVODYREmu971ms29NWOlkgOMHN1Bj2eP4yj4TLfiVMTbLVjvWv5vbytMj98oIw8oBLsALU7_2YRrF7tzXFH1ISfhcCUBTsM5lPAkJkEs5ERO7FWe60QY64kry1p0eObfyKlJAZqQgKj3lOcvvArCI4StV17QILoUj3GMcxvS9gc-kTbxt1s2Ob6t_m40]--></g></svg>