<?xml version="1.0" encoding="UTF-8" standalone="no"?><svg xmlns="http://www.w3.org/2000/svg" xmlns:xlink="http://www.w3.org/1999/xlink" contentStyleType="text/css" height="962px" preserveAspectRatio="none" style="width:1592px;height:962px;background:#FFFFFF;" version="1.1" viewBox="0 0 1592 962" width="1592px" zoomAndPan="magnify"><defs/><g><!--class fix--><!--class Equipment--><g id="elem_Equipment"><rect codeLine="9" fill="#F1F1F1" height="65.1094" id="Equipment" rx="2.5" ry="2.5" style="stroke:#181818;stroke-width:0.5;" width="124" x="1280.8" y="259.7188"/><text fill="#000000" font-family="sans-serif" font-size="20" lengthAdjust="spacing" textLength="104" x="1290.8" y="284.0547">Equipment</text><line style="stroke:#181818;stroke-width:0.5;" x1="1281.8" x2="1403.8" y1="293.2734" y2="293.2734"/><text fill="#000000" font-family="sans-serif" font-size="20" lengthAdjust="spacing" textLength="112" x="1286.8" y="316.6094">designation</text></g><!--class Photograph--><g id="elem_Photograph"><rect codeLine="12" fill="#F1F1F1" height="65.1094" id="Photograph" rx="2.5" ry="2.5" style="stroke:#181818;stroke-width:0.5;" width="116" x="1071.8" y="86.2188"/><text fill="#000000" font-family="sans-serif" font-size="20" lengthAdjust="spacing" textLength="110" x="1074.8" y="110.5547">Photograph</text><line style="stroke:#181818;stroke-width:0.5;" x1="1072.8" x2="1186.8" y1="119.7734" y2="119.7734"/><text fill="#000000" font-family="sans-serif" font-size="20" lengthAdjust="spacing" textLength="69" x="1077.8" y="143.1094">linkURI</text></g><!--class Commission--><g id="elem_Commission"><rect codeLine="15" fill="#F1F1F1" height="65.1094" id="Commission" rx="2.5" ry="2.5" style="stroke:#181818;stroke-width:0.5;" width="126" x="906.8" y="666.2188"/><text fill="#000000" font-family="sans-serif" font-size="20" lengthAdjust="spacing" textLength="120" x="909.8" y="690.5547">Commission</text><line style="stroke:#181818;stroke-width:0.5;" x1="907.8" x2="1031.8" y1="699.7734" y2="699.7734"/><text fill="#000000" font-family="sans-serif" font-size="20" lengthAdjust="spacing" textLength="50" x="912.8" y="723.1094">value</text></g><!--class Property--><g id="elem_Property"><rect codeLine="18" fill="#F1F1F1" height="88.6641" id="Property" rx="2.5" ry="2.5" style="stroke:#181818;stroke-width:0.5;" width="192" x="618.8" y="421.2188"/><text fill="#000000" font-family="sans-serif" font-size="20" lengthAdjust="spacing" textLength="80" x="674.8" y="445.5547">Property</text><line style="stroke:#181818;stroke-width:0.5;" x1="619.8" x2="809.8" y1="454.7734" y2="454.7734"/><text fill="#000000" font-family="sans-serif" font-size="20" lengthAdjust="spacing" textLength="41" x="624.8" y="478.1094">area</text><text fill="#000000" font-family="sans-serif" font-size="20" lengthAdjust="spacing" textLength="180" x="624.8" y="501.6641">distanceCityCentre</text></g><!--class Residence--><g id="elem_Residence"><rect codeLine="22" fill="#F1F1F1" height="112.2188" id="Residence" rx="2.5" ry="2.5" style="stroke:#181818;stroke-width:0.5;" width="248" x="1032.8" y="409.7188"/><text fill="#000000" font-family="sans-serif" font-size="20" lengthAdjust="spacing" textLength="97" x="1108.3" y="434.0547">Residence</text><line style="stroke:#181818;stroke-width:0.5;" x1="1033.8" x2="1279.8" y1="443.2734" y2="443.2734"/><text fill="#000000" font-family="sans-serif" font-size="20" lengthAdjust="spacing" textLength="195" x="1038.8" y="466.6094">numberOfBedrooms</text><text fill="#000000" font-family="sans-serif" font-size="20" lengthAdjust="spacing" textLength="201" x="1038.8" y="490.1641">numberOfBathrooms</text><text fill="#000000" font-family="sans-serif" font-size="20" lengthAdjust="spacing" textLength="236" x="1038.8" y="513.7188">numberOfParkingSpaces</text></g><!--class House--><g id="elem_House"><rect codeLine="27" fill="#F1F1F1" height="112.2188" id="House" rx="2.5" ry="2.5" style="stroke:#181818;stroke-width:0.5;" width="270" x="1315.8" y="409.7188"/><text fill="#000000" font-family="sans-serif" font-size="20" lengthAdjust="spacing" textLength="60" x="1420.8" y="434.0547">House</text><line style="stroke:#181818;stroke-width:0.5;" x1="1316.8" x2="1584.8" y1="443.2734" y2="443.2734"/><text fill="#000000" font-family="sans-serif" font-size="20" lengthAdjust="spacing" textLength="206" x="1321.8" y="466.6094">existenceOfBasement</text><text fill="#000000" font-family="sans-serif" font-size="20" lengthAdjust="spacing" textLength="258" x="1321.8" y="490.1641">existenceOfInhabitableLoft</text><text fill="#000000" font-family="sans-serif" font-size="20" lengthAdjust="spacing" textLength="123" x="1321.8" y="513.7188">sunExposure</text></g><!--class Person--><g id="elem_Person"><rect codeLine="32" fill="#F1F1F1" height="112.2188" id="Person" rx="2.5" ry="2.5" style="stroke:#181818;stroke-width:0.5;" width="185" x="101.3" y="62.7188"/><text fill="#000000" font-family="sans-serif" font-size="20" lengthAdjust="spacing" textLength="64" x="161.8" y="87.0547">Person</text><line style="stroke:#181818;stroke-width:0.5;" x1="102.3" x2="285.3" y1="96.2734" y2="96.2734"/><text fill="#000000" font-family="sans-serif" font-size="20" lengthAdjust="spacing" textLength="53" x="107.3" y="119.6094">name</text><text fill="#000000" font-family="sans-serif" font-size="20" lengthAdjust="spacing" textLength="132" x="107.3" y="143.1641">emailAddress</text><text fill="#000000" font-family="sans-serif" font-size="20" lengthAdjust="spacing" textLength="173" x="107.3" y="166.7188">telephoneNumber</text></g><!--class Owner--><g id="elem_Owner"><rect codeLine="37" fill="#F1F1F1" height="33.5547" id="Owner" rx="2.5" ry="2.5" style="stroke:#181818;stroke-width:0.5;" width="68" x="102.8" y="448.7188"/><text fill="#000000" font-family="sans-serif" font-size="20" lengthAdjust="spacing" textLength="62" x="105.8" y="473.0547">Owner</text></g><!--class Agent--><g id="elem_Agent"><rect codeLine="39" fill="#F1F1F1" height="33.5547" id="Agent" rx="2.5" ry="2.5" style="stroke:#181818;stroke-width:0.5;" width="62" x="325.8" y="681.7188"/><text fill="#000000" font-family="sans-serif" font-size="20" lengthAdjust="spacing" textLength="56" x="328.8" y="706.0547">Agent</text></g><!--class TypeOfCommission--><g id="elem_TypeOfCommission"><rect codeLine="41" fill="#F1F1F1" height="65.1094" id="TypeOfCommission" rx="2.5" ry="2.5" style="stroke:#181818;stroke-width:0.5;" width="196" x="1247.8" y="666.2188"/><text fill="#000000" font-family="sans-serif" font-size="20" lengthAdjust="spacing" textLength="190" x="1250.8" y="690.5547">TypeOfCommission</text><line style="stroke:#181818;stroke-width:0.5;" x1="1248.8" x2="1442.8" y1="699.7734" y2="699.7734"/><text fill="#000000" font-family="sans-serif" font-size="20" lengthAdjust="spacing" textLength="112" x="1253.8" y="723.1094">designation</text></g><!--class Address--><g id="elem_Address"><rect codeLine="44" fill="#F1F1F1" height="112.2188" id="Address" rx="2.5" ry="2.5" style="stroke:#181818;stroke-width:0.5;" width="85" x="563.3" y="62.7188"/><text fill="#000000" font-family="sans-serif" font-size="20" lengthAdjust="spacing" textLength="79" x="566.3" y="87.0547">Address</text><line style="stroke:#181818;stroke-width:0.5;" x1="564.3" x2="647.3" y1="96.2734" y2="96.2734"/><text fill="#000000" font-family="sans-serif" font-size="20" lengthAdjust="spacing" textLength="46" x="569.3" y="119.6094">state</text><text fill="#000000" font-family="sans-serif" font-size="20" lengthAdjust="spacing" textLength="67" x="569.3" y="143.1641">district</text><text fill="#000000" font-family="sans-serif" font-size="20" lengthAdjust="spacing" textLength="33" x="569.3" y="166.7188">city</text></g><!--class SocialSecurityCard--><g id="elem_SocialSecurityCard"><rect codeLine="49" fill="#F1F1F1" height="65.1094" id="SocialSecurityCard" rx="2.5" ry="2.5" style="stroke:#181818;stroke-width:0.5;" width="183" x="440.3" y="259.7188"/><text fill="#000000" font-family="sans-serif" font-size="20" lengthAdjust="spacing" textLength="177" x="443.3" y="284.0547">SocialSecurityCard</text><line style="stroke:#181818;stroke-width:0.5;" x1="441.3" x2="622.3" y1="293.2734" y2="293.2734"/><text fill="#000000" font-family="sans-serif" font-size="20" lengthAdjust="spacing" textLength="108" x="446.3" y="316.6094">taxNumber</text></g><!--class Passport--><g id="elem_Passport"><rect codeLine="52" fill="#F1F1F1" height="65.1094" id="Passport" rx="2.5" ry="2.5" style="stroke:#181818;stroke-width:0.5;" width="88" x="439.8" y="86.2188"/><text fill="#000000" font-family="sans-serif" font-size="20" lengthAdjust="spacing" textLength="82" x="442.8" y="110.5547">Passport</text><line style="stroke:#181818;stroke-width:0.5;" x1="440.8" x2="526.8" y1="119.7734" y2="119.7734"/><text fill="#000000" font-family="sans-serif" font-size="20" lengthAdjust="spacing" textLength="75" x="445.8" y="143.1094">number</text></g><!--class Advertisement--><g id="elem_Advertisement"><rect codeLine="55" fill="#F1F1F1" height="135.7734" id="Advertisement" rx="2.5" ry="2.5" style="stroke:#181818;stroke-width:0.5;" width="216" x="537.8" y="630.7188"/><text fill="#000000" font-family="sans-serif" font-size="20" lengthAdjust="spacing" textLength="139" x="576.3" y="655.0547">Advertisement</text><line style="stroke:#181818;stroke-width:0.5;" x1="538.8" x2="752.8" y1="664.2734" y2="664.2734"/><text fill="#000000" font-family="sans-serif" font-size="20" lengthAdjust="spacing" textLength="204" x="543.8" y="687.6094">dateOfAdvertisement</text><text fill="#000000" font-family="sans-serif" font-size="20" lengthAdjust="spacing" textLength="48" x="543.8" y="711.1641">price</text><text fill="#000000" font-family="sans-serif" font-size="20" lengthAdjust="spacing" textLength="101" x="543.8" y="734.7188">rentperiod</text><text fill="#000000" font-family="sans-serif" font-size="20" lengthAdjust="spacing" textLength="57" x="543.8" y="758.2734">status</text></g><!--class TypeOfProperty--><g id="elem_TypeOfProperty"><rect codeLine="61" fill="#F1F1F1" height="65.1094" id="TypeOfProperty" rx="2.5" ry="2.5" style="stroke:#181818;stroke-width:0.5;" width="156" x="801.8" y="86.2188"/><text fill="#000000" font-family="sans-serif" font-size="20" lengthAdjust="spacing" textLength="150" x="804.8" y="110.5547">TypeOfProperty</text><line style="stroke:#181818;stroke-width:0.5;" x1="802.8" x2="956.8" y1="119.7734" y2="119.7734"/><text fill="#000000" font-family="sans-serif" font-size="20" lengthAdjust="spacing" textLength="112" x="807.8" y="143.1094">designation</text></g><!--class TypeOfBusiness--><g id="elem_TypeOfBusiness"><rect codeLine="64" fill="#F1F1F1" height="65.1094" id="TypeOfBusiness" rx="2.5" ry="2.5" style="stroke:#181818;stroke-width:0.5;" width="159" x="566.3" y="890.2188"/><text fill="#000000" font-family="sans-serif" font-size="20" lengthAdjust="spacing" textLength="153" x="569.3" y="914.5547">TypeOfBusiness</text><line style="stroke:#181818;stroke-width:0.5;" x1="567.3" x2="724.3" y1="923.7734" y2="923.7734"/><text fill="#000000" font-family="sans-serif" font-size="20" lengthAdjust="spacing" textLength="112" x="572.3" y="947.1094">designation</text></g><!--class Role--><g id="elem_Role"><rect codeLine="67" fill="#F1F1F1" height="65.1094" id="Role" rx="2.5" ry="2.5" style="stroke:#181818;stroke-width:0.5;" width="124" x="280.8" y="259.7188"/><text fill="#000000" font-family="sans-serif" font-size="20" lengthAdjust="spacing" textLength="42" x="321.8" y="284.0547">Role</text><line style="stroke:#181818;stroke-width:0.5;" x1="281.8" x2="403.8" y1="293.2734" y2="293.2734"/><text fill="#000000" font-family="sans-serif" font-size="20" lengthAdjust="spacing" textLength="112" x="286.8" y="316.6094">designation</text></g><!--class Employee--><g id="elem_Employee"><rect fill="#F1F1F1" height="33.5547" id="Employee" rx="2.5" ry="2.5" style="stroke:#181818;stroke-width:0.5;" width="99" x="55.3" y="275.2188"/><text fill="#000000" font-family="sans-serif" font-size="20" lengthAdjust="spacing" textLength="93" x="58.3" y="299.5547">Employee</text></g><!--link Person to Address--><g id="link_Person_Address"><path codeLine="75" d="M282.96,62.5688 C312.76,46.7787 346.91,31.7287 380.3,23.7188 C418.77,14.4887 430.87,14.3787 469.3,23.7188 C504.65,32.3088 538.27,55.4588 563.3,76.7487 " fill="none" id="Person-Address" style="stroke:#181818;stroke-width:1.0;"/><polygon fill="#000000" points="396.2898,20.9002,382.0737,15.4729,381.5986,24.8654,396.2898,20.9002" style="stroke:#000000;stroke-width:1.0;"/><text fill="#000000" font-family="sans-serif" font-size="20" lengthAdjust="spacing" textLength="67" x="401.3" y="28.0547">lives at</text><text fill="#000000" font-family="sans-serif" font-size="20" lengthAdjust="spacing" textLength="10" x="283.217" y="50.6803">*</text><text fill="#000000" font-family="sans-serif" font-size="20" lengthAdjust="spacing" textLength="13" x="542.1844" y="64.2565">1</text></g><!--link Person to SocialSecurityCard--><g id="link_Person_SocialSecurityCard"><path codeLine="76" d="M286.61,166.8088 C344.85,196.3588 418.36,233.6588 469.63,259.6688 " fill="none" id="Person-SocialSecurityCard" style="stroke:#181818;stroke-width:1.0;"/><polygon fill="#000000" points="418.9342,221.1158,408.1559,210.3743,403.9006,218.7611,418.9342,221.1158" style="stroke:#000000;stroke-width:1.0;"/><text fill="#000000" font-family="sans-serif" font-size="20" lengthAdjust="spacing" textLength="97" x="424.8" y="225.0547">possesses</text><text fill="#000000" font-family="sans-serif" font-size="20" lengthAdjust="spacing" textLength="13" x="294.2134" y="165.959">1</text><text fill="#000000" font-family="sans-serif" font-size="20" lengthAdjust="spacing" textLength="13" x="443.1106" y="247.3762">1</text></g><!--link Person to Passport--><g id="link_Person_Passport"><path codeLine="77" d="M286.36,118.7188 C337.58,118.7188 398.89,118.7188 439.46,118.7188 " fill="none" id="Person-Passport" style="stroke:#181818;stroke-width:1.0;"/><polygon fill="#000000" points="319.55,103.4961,305.0779,98.7938,305.0779,108.1984,319.55,103.4961" style="stroke:#000000;stroke-width:1.0;"/><text fill="#000000" font-family="sans-serif" font-size="20" lengthAdjust="spacing" textLength="97" x="324.55" y="111.0547">possesses</text><text fill="#000000" font-family="sans-serif" font-size="20" lengthAdjust="spacing" textLength="13" x="294.2538" y="114.1517">1</text><text fill="#000000" font-family="sans-serif" font-size="20" lengthAdjust="spacing" textLength="13" x="418.6751" y="113.3278">1</text></g><!--link Employee to Role--><g id="link_Employee_Role"><path codeLine="79" d="M154.41,292.2188 C191.05,292.2188 241.2,292.2188 280.54,292.2188 " fill="none" id="Employee-Role" style="stroke:#181818;stroke-width:1.0;"/><polygon fill="#000000" points="171.55,276.9961,186.0221,281.6984,186.0221,272.2938,171.55,276.9961" style="stroke:#000000;stroke-width:1.0;"/><text fill="#000000" font-family="sans-serif" font-size="20" lengthAdjust="spacing" textLength="70" x="192.55" y="284.5547">defines</text><text fill="#000000" font-family="sans-serif" font-size="20" lengthAdjust="spacing" textLength="10" x="162.4308" y="286.9391">*</text><text fill="#000000" font-family="sans-serif" font-size="20" lengthAdjust="spacing" textLength="13" x="259.5896" y="287.2507">1</text></g><!--reverse link Role to Agent--><g id="link_Role_Agent"><path codeLine="80" d="M344.6,345.1588 C347.79,437.2687 354.28,624.8788 356.24,681.3087 " fill="none" id="Role-backto-Agent" style="stroke:#181818;stroke-width:1.0;"/><polygon fill="none" points="337.6,345.1888,343.9,324.9588,351.59,344.7088,337.6,345.1888" style="stroke:#181818;stroke-width:1.0;"/></g><!--reverse link Person to Employee--><g id="link_Person_Employee"><path codeLine="81" d="M155.76,193.0187 C139.93,223.5388 122.97,256.2088 113.16,275.1188 " fill="none" id="Person-backto-Employee" style="stroke:#181818;stroke-width:1.0;"/><polygon fill="none" points="149.73,189.4588,165.15,174.9288,162.15,195.8987,149.73,189.4588" style="stroke:#181818;stroke-width:1.0;"/></g><!--link Advertisement to TypeOfBusiness--><g id="link_Advertisement_TypeOfBusiness"><path codeLine="83" d="M645.8,766.9288 C645.8,807.7688 645.8,858.0188 645.8,889.9688 " fill="none" id="Advertisement-TypeOfBusiness" style="stroke:#181818;stroke-width:1.0;"/><polygon fill="#000000" points="653.8,801.4961,649.0977,815.9682,658.5023,815.9682,653.8,801.4961" style="stroke:#000000;stroke-width:1.0;"/><text fill="#000000" font-family="sans-serif" font-size="20" lengthAdjust="spacing" textLength="96" x="666.8" y="817.0547">present in</text><text fill="#000000" font-family="sans-serif" font-size="20" lengthAdjust="spacing" textLength="10" x="635.3234" y="793.8993">*</text><text fill="#000000" font-family="sans-serif" font-size="20" lengthAdjust="spacing" textLength="13" x="631.5609" y="877.912">1</text></g><!--link Advertisement to fix--><!--link Owner to Property--><g id="link_Owner_Property"><path codeLine="86" d="M171.23,465.7188 C257.81,465.7188 487.07,465.7188 618.54,465.7188 " fill="none" id="Owner-Property" style="stroke:#181818;stroke-width:1.0;"/><polygon fill="#000000" points="375.3,450.4961,360.8279,445.7938,360.8279,455.1984,375.3,450.4961" style="stroke:#000000;stroke-width:1.0;"/><text fill="#000000" font-family="sans-serif" font-size="20" lengthAdjust="spacing" textLength="49" x="380.3" y="458.0547">owns</text></g><!--link Address to Property--><g id="link_Address_Property"><path codeLine="87" d="M623.2,174.7687 C644.8,243.1588 681.23,358.4588 701.01,421.0788 " fill="none" id="Address-Property" style="stroke:#181818;stroke-width:1.0;"/><polygon fill="#000000" points="674.3902,284.8677,674.2657,300.0841,683.2335,297.2511,674.3902,284.8677" style="stroke:#000000;stroke-width:1.0;"/><text fill="#000000" font-family="sans-serif" font-size="20" lengthAdjust="spacing" textLength="94" x="689.8" y="300.0547">located at</text><text fill="#000000" font-family="sans-serif" font-size="20" lengthAdjust="spacing" textLength="13" x="611.5284" y="202.3578">1</text><text fill="#000000" font-family="sans-serif" font-size="20" lengthAdjust="spacing" textLength="13" x="684.9031" y="408.8864">1</text></g><!--link Photograph to Property--><g id="link_Photograph_Property"><path codeLine="88" d="M1118.24,151.3987 C1100.79,195.3787 1063.9,275.1088 1009.8,324.7188 C952.98,376.8288 873.28,413.0788 811.04,435.6188 " fill="none" id="Photograph-Property" style="stroke:#181818;stroke-width:1.0;"/><polygon fill="#000000" points="1063.9278,297.929,1077.7441,291.5523,1071.3573,284.6491,1063.9278,297.929" style="stroke:#000000;stroke-width:1.0;"/><text fill="#000000" font-family="sans-serif" font-size="20" lengthAdjust="spacing" textLength="94" x="1082.8" y="300.0547">illustrates</text><text fill="#000000" font-family="sans-serif" font-size="20" lengthAdjust="spacing" textLength="51" x="1060.6387" y="178.6439">1..30</text><text fill="#000000" font-family="sans-serif" font-size="20" lengthAdjust="spacing" textLength="13" x="818.906" y="428.8038">1</text></g><!--link TypeOfProperty to Property--><g id="link_TypeOfProperty_Property"><path codeLine="89" d="M867.56,151.4488 C851.59,192.1387 822.19,264.6287 792.8,324.7188 C776.73,357.5888 756.59,393.6287 740.8,420.9088 " fill="none" id="TypeOfProperty-Property" style="stroke:#181818;stroke-width:1.0;"/><polygon fill="#000000" points="833.2054,285.2571,822.79,296.3509,831.3,300.3542,833.2054,285.2571" style="stroke:#000000;stroke-width:1.0;"/><text fill="#000000" font-family="sans-serif" font-size="20" lengthAdjust="spacing" textLength="158" x="842.8" y="300.0547">characterized by</text><text fill="#000000" font-family="sans-serif" font-size="20" lengthAdjust="spacing" textLength="13" x="851.2219" y="178.7028">1</text><text fill="#000000" font-family="sans-serif" font-size="20" lengthAdjust="spacing" textLength="10" x="733.8844" y="409.0396">*</text></g><!--link Commission to TypeOfCommission--><g id="link_Commission_TypeOfCommission"><path codeLine="91" d="M1033.16,698.7188 C1091.76,698.7188 1179.77,698.7188 1247.5,698.7188 " fill="none" id="Commission-TypeOfCommission" style="stroke:#181818;stroke-width:1.0;"/><polygon fill="#000000" points="1066.3,683.4961,1051.8279,678.7938,1051.8279,688.1984,1066.3,683.4961" style="stroke:#000000;stroke-width:1.0;"/><text fill="#000000" font-family="sans-serif" font-size="20" lengthAdjust="spacing" textLength="158" x="1071.3" y="691.0547">characterized by</text><text fill="#000000" font-family="sans-serif" font-size="20" lengthAdjust="spacing" textLength="10" x="1040.6369" y="693.8212">*</text><text fill="#000000" font-family="sans-serif" font-size="20" lengthAdjust="spacing" textLength="13" x="1226.8038" y="694.2265">1</text></g><!--link Advertisement to Commission--><g id="link_Advertisement_Commission"><path codeLine="92" d="M754.14,698.7188 C804.73,698.7188 863.19,698.7188 906.47,698.7188 " fill="none" id="Advertisement-Commission" style="stroke:#181818;stroke-width:1.0;"/><polygon fill="#000000" points="771.3,683.4961,785.7721,688.1984,785.7721,678.7938,771.3,683.4961" style="stroke:#000000;stroke-width:1.0;"/><text fill="#000000" font-family="sans-serif" font-size="20" lengthAdjust="spacing" textLength="96" x="792.3" y="691.0547">present in</text><text fill="#000000" font-family="sans-serif" font-size="20" lengthAdjust="spacing" textLength="13" x="761.8558" y="694.3083">1</text><text fill="#000000" font-family="sans-serif" font-size="20" lengthAdjust="spacing" textLength="13" x="885.8323" y="693.8212">1</text></g><!--link Agent to fix--><!--link Owner to fix--><!--reverse link Property to Residence--><g id="link_Property_Residence"><path codeLine="97" d="M831.39,465.7188 C898.44,465.7188 965.5,465.7188 1032.55,465.7188 " fill="none" id="Property-backto-Residence" style="stroke:#181818;stroke-width:1.0;"/><polygon fill="none" points="831.06,472.7188,811.06,465.7188,831.06,458.7188,831.06,472.7188" style="stroke:#181818;stroke-width:1.0;"/></g><!--reverse link Residence to House--><g id="link_Residence_House"><path codeLine="98" d="M1300.99,465.7188 C1305.89,465.7188 1310.79,465.7188 1315.69,465.7188 " fill="none" id="Residence-backto-House" style="stroke:#181818;stroke-width:1.0;"/><polygon fill="none" points="1300.83,472.7188,1280.83,465.7188,1300.83,458.7188,1300.83,472.7188" style="stroke:#181818;stroke-width:1.0;"/></g><!--link Equipment to Residence--><g id="link_Equipment_Residence"><path codeLine="99" d="M1308.25,325.0788 C1282.62,348.7088 1247.02,381.5287 1216.78,409.4188 " fill="none" id="Equipment-Residence" style="stroke:#181818;stroke-width:1.0;"/><polygon fill="#000000" points="1285.6814,362.0731,1271.8543,368.4264,1278.2294,375.3404,1285.6814,362.0731" style="stroke:#000000;stroke-width:1.0;"/><text fill="#000000" font-family="sans-serif" font-size="20" lengthAdjust="spacing" textLength="80" x="1292.8" y="375.0547">contains</text></g><!--reverse link Person to Owner--><g id="link_Person_Owner"><path codeLine="100" d="M92.14,188.3188 C70.17,208.5187 49.91,232.5788 37.8,259.7188 C6,330.9988 82.19,414.3088 118.67,448.6588 " fill="none" id="Person-backto-Owner" style="stroke:#181818;stroke-width:1.0;"/><polygon fill="none" points="87.85,182.7687,107.55,174.9588,97.02,193.3488,87.85,182.7687" style="stroke:#181818;stroke-width:1.0;"/></g><!--link Agent to Advertisement--><g id="link_Agent_Advertisement"><path codeLine="101" d="M388.01,698.7188 C423.76,698.7188 484.33,698.7188 537.78,698.7188 " fill="none" id="Agent-Advertisement" style="stroke:#181818;stroke-width:1.0;"/><polygon fill="#000000" points="421.3,683.4961,406.8279,678.7938,406.8279,688.1984,421.3,683.4961" style="stroke:#000000;stroke-width:1.0;"/><text fill="#000000" font-family="sans-serif" font-size="20" lengthAdjust="spacing" textLength="93" x="426.3" y="691.0547">publishes</text><text fill="#000000" font-family="sans-serif" font-size="20" lengthAdjust="spacing" textLength="13" x="395.7877" y="692.7859">1</text><text fill="#000000" font-family="sans-serif" font-size="20" lengthAdjust="spacing" textLength="10" x="519.8333" y="694.2736">*</text></g><!--link Agent to Commission--><g id="link_Agent_Commission"><path codeLine="102" d="M387.86,683.1188 C420.07,667.5788 472.3,644.1388 519.8,630.7188 C597.44,608.7887 807.27,548.3788 879.8,583.7188 C914.67,600.7088 940.01,638.4688 954.75,666.0988 " fill="none" id="Agent-Commission" style="stroke:#181818;stroke-width:1.0;"/><polygon fill="#000000" points="835.7964,576.256,821.1897,571.9902,821.4719,581.3905,835.7964,576.256" style="stroke:#000000;stroke-width:1.0;"/><text fill="#000000" font-family="sans-serif" font-size="20" lengthAdjust="spacing" textLength="38" x="840.8" y="584.0547">sets</text><text fill="#000000" font-family="sans-serif" font-size="20" lengthAdjust="spacing" textLength="13" x="383.9165" y="669.6459">1</text><text fill="#000000" font-family="sans-serif" font-size="20" lengthAdjust="spacing" textLength="10" x="940.928" y="654.0668">*</text></g><!--link Owner to Agent--><g id="link_Owner_Agent"><path codeLine="103" d="M139.92,482.9288 C145.85,510.0688 160.99,565.1888 191.8,600.7188 C228.7,643.2688 289.07,671.9988 325.66,686.5487 " fill="none" id="Owner-Agent" style="stroke:#181818;stroke-width:1.0;"/><text fill="#000000" font-family="sans-serif" font-size="20" lengthAdjust="spacing" textLength="124" x="199.3" y="572.0547">requests and</text><polygon fill="#000000" points="206.1914,593.9612,199.9123,580.1002,192.9642,586.4382,206.1914,593.9612" style="stroke:#000000;stroke-width:1.0;"/><text fill="#000000" font-family="sans-serif" font-size="20" lengthAdjust="spacing" textLength="117" x="212.8" y="595.6094">gives info to</text></g><!--link Property to Agent--><g id="link_Property_Agent"><path codeLine="104" d="M618.75,495.2787 C580.3,509.1088 536.71,527.9288 500.8,551.7188 C444.12,589.2788 391.86,652.0688 368.98,681.5288 " fill="none" id="Property-Agent" style="stroke:#181818;stroke-width:1.0;"/><polygon fill="#000000" points="515.2133,571.7138,500.8006,576.5954,506.4225,584.1347,515.2133,571.7138" style="stroke:#000000;stroke-width:1.0;"/><text fill="#000000" font-family="sans-serif" font-size="20" lengthAdjust="spacing" textLength="145" x="521.8" y="584.0547">responsible for</text><text fill="#000000" font-family="sans-serif" font-size="20" lengthAdjust="spacing" textLength="10" x="600.6976" y="493.0893">*</text><text fill="#000000" font-family="sans-serif" font-size="20" lengthAdjust="spacing" textLength="13" x="357.6485" y="669.5839">1</text></g><!--link Property to Advertisement--><g id="link_Property_Advertisement"><path codeLine="105" d="M701.74,510.4388 C691.62,544.3188 677.43,591.8388 665.87,630.5387 " fill="none" id="Property-Advertisement" style="stroke:#181818;stroke-width:1.0;"/><polygon fill="#000000" points="698.0894,568.8307,689.4422,581.3519,698.4534,584.0432,698.0894,568.8307" style="stroke:#000000;stroke-width:1.0;"/><text fill="#000000" font-family="sans-serif" font-size="20" lengthAdjust="spacing" textLength="88" x="708.8" y="584.0547">based on</text></g><!--SRC=[RLLDQnin4BthLmWV0mv9UpCXa9YK1afZulRKzg2LPdU5jT967uaTj_-z8-sNrZ4OizQysJVlpMZiTbAtpB966Ru3GGMKB2Z_nMY_bUz0FrqHDq1eOxJXjJKDK6y3P96MyHshOEiF2gW5xfckL0vmDHFcJUgAbaovFC8LS-xEUokBuE6H6vs8hqWj1L0kBSSNfMTeMd-W3JG5M4S8IPdquIN8jW7jZqI0avLcNXfD_lNXJMsygInhwoDHKkz-FZ-EiRLf6kaSme_abIbKD6PPqu95jYDX5XWHqg4a3clf3slaiXFq6Ka5O0onEiJQdifx4DQOnaq7pDVpamspQ46rHUV0ZI_xQeA38u4zyiLtnam7KLr-zgXhLaZF2WNVJEc92_fXtneNih8sw57KfLa311ecrPqG5fmZ7XIqjT7mFPKoPZozQR0eOlXzLo5jzll7eKNktBDpVlSiHuA6UKZ6MSazuUZS2DeQBfdQ0Wys6igiG1xFzYSLRV2hDTQFpcOihzWUsLc3OO5SJ-NibBJ82yJY8xPI6f4g2kv4pz3fysewp7rmKYTHvp3FHiNUpqFzXQ1nS8yzi9JxP6SQvlY5prsR5XSBkgIBwqNlteeg-GgECazl1yWrGXBcetahYirt43zpV8GF9iv195QTC0fAJx60XwPLvW2mYZiWoaLKadRpTxcqtJJqxqv7T4WWPEPxqfAOJzp30b1Rx9V4Dv3endBv2tt0s_CdjFEUhcX9I3UHo_4shgXvqx6ktgREaqxb2C55XiCWedStP3ZkaSYokBwy_7orcDR2Yagb0aufPhayvM9AMSndPKLvZRkBUvohTwGg3j7HwMQCxJozCcSJixnKPTUGE0ipFpBpa2ovbvaNKrEBed5pQrKA9Y-Jg-DkwpehgzfFIunCwsoAfgsKHP8huzwbg0h_BfZKq_Hr4zAHabHNFuyN7sI5GabNft6R0tFR7FW8w0TYEKYry1B0OOXfyLlJAbqQgKj3lOcrvArCbWvfU2EqaxW_QMaiDds-JvA-gTa5hc11KTJjVm00]--></g></svg>