<?xml version="1.0" encoding="UTF-8" standalone="no"?><svg xmlns="http://www.w3.org/2000/svg" xmlns:xlink="http://www.w3.org/1999/xlink" contentStyleType="text/css" height="482px" preserveAspectRatio="none" style="width:759px;height:482px;background:#FFFFFF;" version="1.1" viewBox="0 0 759 482" width="759px" zoomAndPan="magnify"><defs/><g><text fill="#000000" font-family="sans-serif" font-size="14" font-weight="bold" lengthAdjust="spacing" textLength="231" x="263" y="28.5352">System Sequence Diagram (SSD)</text><rect fill="#FFFFFF" height="249.8828" style="stroke:#181818;stroke-width:1.0;" width="10" x="89" y="136.043"/><rect fill="#FFFFFF" height="37.5547" style="stroke:#181818;stroke-width:1.0;" width="10" x="704" y="165.5977"/><rect fill="#FFFFFF" height="37.5547" style="stroke:#181818;stroke-width:1.0;" width="10" x="704" y="264.2617"/><rect fill="#FFFFFF" height="37.5547" style="stroke:#181818;stroke-width:1.0;" width="10" x="704" y="339.3711"/><line style="stroke:#181818;stroke-width:0.5;stroke-dasharray:5.0,5.0;" x1="94" x2="94" y1="126.043" y2="394.9258"/><line style="stroke:#181818;stroke-width:0.5;stroke-dasharray:5.0,5.0;" x1="709" x2="709" y1="126.043" y2="394.9258"/><text fill="#000000" font-family="sans-serif" font-size="20" lengthAdjust="spacing" textLength="172" x="5" y="121.8242">Unregistered User</text><ellipse cx="94" cy="50.9883" fill="#E3E3E3" rx="8" ry="8" style="stroke:#181818;stroke-width:0.5;"/><path d="M94,58.9883 L94,85.9883 M81,66.9883 L107,66.9883 M94,85.9883 L81,100.9883 M94,85.9883 L107,100.9883 " fill="none" style="stroke:#181818;stroke-width:0.5;"/><text fill="#000000" font-family="sans-serif" font-size="20" lengthAdjust="spacing" textLength="172" x="5" y="413.2617">Unregistered User</text><ellipse cx="94" cy="425.9805" fill="#E3E3E3" rx="8" ry="8" style="stroke:#181818;stroke-width:0.5;"/><path d="M94,433.9805 L94,460.9805 M81,441.9805 L107,441.9805 M94,460.9805 L81,475.9805 M94,460.9805 L107,475.9805 " fill="none" style="stroke:#181818;stroke-width:0.5;"/><rect fill="#E3E3E3" height="37.5547" rx="2.5" ry="2.5" style="stroke:#181818;stroke-width:0.5;" width="88" x="665" y="87.4883"/><text fill="#000000" font-family="sans-serif" font-size="20" lengthAdjust="spacing" textLength="74" x="672" y="113.8242">:System</text><rect fill="#E3E3E3" height="37.5547" rx="2.5" ry="2.5" style="stroke:#181818;stroke-width:0.5;" width="88" x="665" y="393.9258"/><text fill="#000000" font-family="sans-serif" font-size="20" lengthAdjust="spacing" textLength="74" x="672" y="420.2617">:System</text><rect fill="#FFFFFF" height="249.8828" style="stroke:#181818;stroke-width:1.0;" width="10" x="89" y="136.043"/><rect fill="#FFFFFF" height="37.5547" style="stroke:#181818;stroke-width:1.0;" width="10" x="704" y="165.5977"/><rect fill="#FFFFFF" height="37.5547" style="stroke:#181818;stroke-width:1.0;" width="10" x="704" y="264.2617"/><rect fill="#FFFFFF" height="37.5547" style="stroke:#181818;stroke-width:1.0;" width="10" x="704" y="339.3711"/><polygon fill="#181818" points="692,161.5977,702,165.5977,692,169.5977,696,165.5977" style="stroke:#181818;stroke-width:1.0;"/><line style="stroke:#181818;stroke-width:1.0;" x1="99" x2="698" y1="165.5977" y2="165.5977"/><text fill="#000000" font-family="sans-serif" font-size="20" font-weight="bold" lengthAdjust="spacing" textLength="13" x="106" y="159.3789">1</text><text fill="#000000" font-family="sans-serif" font-size="20" lengthAdjust="spacing" textLength="280" x="123" y="159.3789">asks to register in the system</text><polygon fill="#181818" points="110,199.1523,100,203.1523,110,207.1523,106,203.1523" style="stroke:#181818;stroke-width:1.0;"/><line style="stroke:#181818;stroke-width:1.0;stroke-dasharray:2.0,2.0;" x1="104" x2="708" y1="203.1523" y2="203.1523"/><text fill="#000000" font-family="sans-serif" font-size="20" font-weight="bold" lengthAdjust="spacing" textLength="13" x="116" y="196.9336">2</text><text fill="#000000" font-family="sans-serif" font-size="20" lengthAdjust="spacing" textLength="130" x="133" y="196.9336">requests data</text><polygon fill="#181818" points="692,260.2617,702,264.2617,692,268.2617,696,264.2617" style="stroke:#181818;stroke-width:1.0;"/><line style="stroke:#181818;stroke-width:1.0;" x1="99" x2="698" y1="264.2617" y2="264.2617"/><text fill="#000000" font-family="sans-serif" font-size="20" font-weight="bold" lengthAdjust="spacing" textLength="13" x="106" y="246.2656">3</text><text fill="#000000" font-family="sans-serif" font-size="20" lengthAdjust="spacing" textLength="498" x="123" y="234.4883">types requested data (name, passport card number,</text><text fill="#000000" font-family="sans-serif" font-size="20" lengthAdjust="spacing" textLength="563" x="129" y="258.043">tax number, address, email, telephone number, password)</text><polygon fill="#181818" points="110,297.8164,100,301.8164,110,305.8164,106,301.8164" style="stroke:#181818;stroke-width:1.0;"/><line style="stroke:#181818;stroke-width:1.0;stroke-dasharray:2.0,2.0;" x1="104" x2="708" y1="301.8164" y2="301.8164"/><text fill="#000000" font-family="sans-serif" font-size="20" font-weight="bold" lengthAdjust="spacing" textLength="13" x="116" y="295.5977">4</text><text fill="#000000" font-family="sans-serif" font-size="20" lengthAdjust="spacing" textLength="209" x="133" y="295.5977">shows requested data</text><polygon fill="#181818" points="692,335.3711,702,339.3711,692,343.3711,696,339.3711" style="stroke:#181818;stroke-width:1.0;"/><line style="stroke:#181818;stroke-width:1.0;" x1="99" x2="698" y1="339.3711" y2="339.3711"/><text fill="#000000" font-family="sans-serif" font-size="20" font-weight="bold" lengthAdjust="spacing" textLength="13" x="106" y="333.1523">5</text><text fill="#000000" font-family="sans-serif" font-size="20" lengthAdjust="spacing" textLength="125" x="123" y="333.1523">submits data</text><polygon fill="#181818" points="110,372.9258,100,376.9258,110,380.9258,106,376.9258" style="stroke:#181818;stroke-width:1.0;"/><line style="stroke:#181818;stroke-width:1.0;stroke-dasharray:2.0,2.0;" x1="104" x2="708" y1="376.9258" y2="376.9258"/><text fill="#000000" font-family="sans-serif" font-size="20" font-weight="bold" lengthAdjust="spacing" textLength="13" x="116" y="370.707">6</text><text fill="#000000" font-family="sans-serif" font-size="20" lengthAdjust="spacing" textLength="237" x="133" y="370.707">Shows operation success</text><!--SRC=[dP4zRiCm38LtdOB8b00kK7JCq2dj1OniNHY9iGNhhoBTr3rzPJjEWo8TKauKzFZnaUJEXeGPlOkw8mE6ZjWxUOr1Qlj5yFIeU960Zo7gDaTF8Bcdgv-4kiE6QXaSGIOj61ftBU0MJJpPqC0H7PDIOgL8wu65FDJqtbFG13kBpIXVr_LkenJs4aFl3vHBhYLcMEr3fiQMgbpSxfdo2f3XnISN1o9LkedLDc4GM6rd_AIOqmbZFr3efqH1YUK53y-BgMqfwnWamj8HR01f2NXcZNKNtCA7SvmX3uLtOMyBgGpAmc1GSD8QkecuwKU6HBmmncCL2Am3UghA1PXJp08Qiu5vQTLRyOkVomlGc4pC5P17woeGSfJQ6EYY62cdcCtcFyDn6q-_xTqz8_S7RwyNTAU9UZ8H4sKK6qFXQLrc_ik7-WO0]--></g></svg>