<?xml version="1.0" encoding="UTF-8" standalone="no"?><svg xmlns="http://www.w3.org/2000/svg" xmlns:xlink="http://www.w3.org/1999/xlink" contentStyleType="text/css" height="1648px" preserveAspectRatio="none" style="width:2699px;height:1648px;background:#FFFFFF;" version="1.1" viewBox="0 0 2699 1648" width="2699px" zoomAndPan="magnify"><defs/><g><rect fill="#FFFFFF" height="1452.5234" style="stroke:#181818;stroke-width:1.0;" width="10" x="31" y="98.5547"/><rect fill="#FFFFFF" height="37.5547" style="stroke:#181818;stroke-width:1.0;" width="10" x="533" y="128.1094"/><rect fill="#FFFFFF" height="560.3203" style="stroke:#181818;stroke-width:1.0;" width="10" x="533" y="203.2188"/><rect fill="#FFFFFF" height="37.5547" style="stroke:#181818;stroke-width:1.0;" width="10" x="533" y="801.0938"/><rect fill="#FFFFFF" height="674.875" style="stroke:#181818;stroke-width:1.0;" width="10" x="533" y="876.2031"/><rect fill="#FFFFFF" height="436.6563" style="stroke:#181818;stroke-width:1.0;" width="10" x="1092" y="289.3281"/><rect fill="#FFFFFF" height="637.3203" style="stroke:#181818;stroke-width:1.0;" width="10" x="1092" y="913.7578"/><rect fill="#FFFFFF" height="168.2188" style="stroke:#181818;stroke-width:1.0;" width="10" x="1097" y="1336.3047"/><rect fill="#FFFFFF" height="37.5547" style="stroke:#181818;stroke-width:1.0;" width="10" x="1858" y="326.8828"/><rect fill="#FFFFFF" height="37.5547" style="stroke:#181818;stroke-width:1.0;" width="10" x="1858" y="951.3125"/><rect fill="#FFFFFF" height="37.5547" style="stroke:#181818;stroke-width:1.0;" width="10" x="2007" y="401.9922"/><rect fill="#FFFFFF" height="37.5547" style="stroke:#181818;stroke-width:1.0;" width="10" x="2007" y="477.1016"/><rect fill="#FFFFFF" height="37.5547" style="stroke:#181818;stroke-width:1.0;" width="10" x="2215.5" y="552.2109"/><rect fill="#FFFFFF" height="37.5547" style="stroke:#181818;stroke-width:1.0;" width="10" x="2215.5" y="650.875"/><rect fill="#FFFFFF" height="37.5547" style="stroke:#181818;stroke-width:1.0;" width="10" x="2215.5" y="1101.5313"/><rect fill="#FFFFFF" height="37.5547" style="stroke:#181818;stroke-width:1.0;" width="10" x="2462" y="1026.4219"/><rect fill="#FFFFFF" height="37.5547" style="stroke:#181818;stroke-width:1.0;" width="10" x="2634" y="1429.4141"/><line style="stroke:#181818;stroke-width:0.5;stroke-dasharray:5.0,5.0;" x1="36" x2="36" y1="88.5547" y2="1560.0781"/><line style="stroke:#181818;stroke-width:0.5;stroke-dasharray:5.0,5.0;" x1="537.5" x2="537.5" y1="88.5547" y2="1560.0781"/><line style="stroke:#181818;stroke-width:0.5;stroke-dasharray:5.0,5.0;" x1="1096.5" x2="1096.5" y1="245.4961" y2="1560.0781"/><line style="stroke:#181818;stroke-width:0.5;stroke-dasharray:5.0,5.0;" x1="1862.5" x2="1862.5" y1="88.5547" y2="1560.0781"/><line style="stroke:#181818;stroke-width:0.5;stroke-dasharray:5.0,5.0;" x1="2011.5" x2="2011.5" y1="88.5547" y2="1560.0781"/><line style="stroke:#181818;stroke-width:0.5;stroke-dasharray:5.0,5.0;" x1="2220.5" x2="2220.5" y1="88.5547" y2="1560.0781"/><line style="stroke:#181818;stroke-width:0.5;stroke-dasharray:5.0,5.0;" x1="2466.5" x2="2466.5" y1="88.5547" y2="1560.0781"/><line style="stroke:#181818;stroke-width:0.5;stroke-dasharray:5.0,5.0;" x1="2638.5" x2="2638.5" y1="88.5547" y2="1560.0781"/><text fill="#000000" font-family="sans-serif" font-size="20" lengthAdjust="spacing" textLength="56" x="5" y="84.3359">Agent</text><ellipse cx="36" cy="13.5" fill="#E3E3E3" rx="8" ry="8" style="stroke:#181818;stroke-width:0.5;"/><path d="M36,21.5 L36,48.5 M23,29.5 L49,29.5 M36,48.5 L23,63.5 M36,48.5 L49,63.5 " fill="none" style="stroke:#181818;stroke-width:0.5;"/><text fill="#000000" font-family="sans-serif" font-size="20" lengthAdjust="spacing" textLength="56" x="5" y="1578.4141">Agent</text><ellipse cx="36" cy="1591.1328" fill="#E3E3E3" rx="8" ry="8" style="stroke:#181818;stroke-width:0.5;"/><path d="M36,1599.1328 L36,1626.1328 M23,1607.1328 L49,1607.1328 M36,1626.1328 L23,1641.1328 M36,1626.1328 L49,1641.1328 " fill="none" style="stroke:#181818;stroke-width:0.5;"/><rect fill="#E3E3E3" height="37.5547" rx="2.5" ry="2.5" style="stroke:#181818;stroke-width:0.5;" width="229" x="423.5" y="50"/><text fill="#000000" font-family="sans-serif" font-size="20" lengthAdjust="spacing" textLength="215" x="430.5" y="76.3359">:ListBookingRequestUI</text><rect fill="#E3E3E3" height="37.5547" rx="2.5" ry="2.5" style="stroke:#181818;stroke-width:0.5;" width="229" x="423.5" y="1559.0781"/><text fill="#000000" font-family="sans-serif" font-size="20" lengthAdjust="spacing" textLength="215" x="430.5" y="1585.4141">:ListBookingRequestUI</text><rect fill="#E3E3E3" height="37.5547" rx="2.5" ry="2.5" style="stroke:#181818;stroke-width:0.5;" width="305" x="944.5" y="1559.0781"/><text fill="#000000" font-family="sans-serif" font-size="20" lengthAdjust="spacing" textLength="291" x="951.5" y="1585.4141">:ListBookingRequestController</text><rect fill="#E3E3E3" height="37.5547" rx="2.5" ry="2.5" style="stroke:#181818;stroke-width:0.5;" width="139" x="1793.5" y="50"/><text fill="#000000" font-family="sans-serif" font-size="20" lengthAdjust="spacing" textLength="125" x="1800.5" y="76.3359">:Repositories</text><rect fill="#E3E3E3" height="37.5547" rx="2.5" ry="2.5" style="stroke:#181818;stroke-width:0.5;" width="139" x="1793.5" y="1559.0781"/><text fill="#000000" font-family="sans-serif" font-size="20" lengthAdjust="spacing" textLength="125" x="1800.5" y="1585.4141">:Repositories</text><rect fill="#E3E3E3" height="61.1094" rx="2.5" ry="2.5" style="stroke:#181818;stroke-width:0.5;" width="139" x="1942.5" y="26.4453"/><text fill="#000000" font-family="sans-serif" font-size="20" lengthAdjust="spacing" textLength="114" x="1955" y="52.7813">repositories</text><text fill="#000000" font-family="sans-serif" font-size="20" lengthAdjust="spacing" textLength="125" x="1949.5" y="76.3359">:Repositories</text><rect fill="#E3E3E3" height="61.1094" rx="2.5" ry="2.5" style="stroke:#181818;stroke-width:0.5;" width="139" x="1942.5" y="1559.0781"/><text fill="#000000" font-family="sans-serif" font-size="20" lengthAdjust="spacing" textLength="114" x="1955" y="1585.4141">repositories</text><text fill="#000000" font-family="sans-serif" font-size="20" lengthAdjust="spacing" textLength="125" x="1949.5" y="1608.9688">:Repositories</text><rect fill="#E3E3E3" height="61.1094" rx="2.5" ry="2.5" style="stroke:#181818;stroke-width:0.5;" width="258" x="2091.5" y="26.4453"/><text fill="#000000" font-family="sans-serif" font-size="20" lengthAdjust="spacing" textLength="244" x="2098.5" y="52.7813">advertisementRepository:</text><text fill="#000000" font-family="sans-serif" font-size="20" lengthAdjust="spacing" textLength="241" x="2100" y="76.3359">AdvertisementRepository</text><rect fill="#E3E3E3" height="61.1094" rx="2.5" ry="2.5" style="stroke:#181818;stroke-width:0.5;" width="258" x="2091.5" y="1559.0781"/><text fill="#000000" font-family="sans-serif" font-size="20" lengthAdjust="spacing" textLength="244" x="2098.5" y="1585.4141">advertisementRepository:</text><text fill="#000000" font-family="sans-serif" font-size="20" lengthAdjust="spacing" textLength="241" x="2100" y="1608.9688">AdvertisementRepository</text><rect fill="#E3E3E3" height="61.1094" rx="2.5" ry="2.5" style="stroke:#181818;stroke-width:0.5;" width="215" x="2359.5" y="26.4453"/><text fill="#000000" font-family="sans-serif" font-size="20" lengthAdjust="spacing" textLength="201" x="2366.5" y="52.7813">employeeRepository:</text><text fill="#000000" font-family="sans-serif" font-size="20" lengthAdjust="spacing" textLength="195" x="2369.5" y="76.3359">EmployeeRepository</text><rect fill="#E3E3E3" height="61.1094" rx="2.5" ry="2.5" style="stroke:#181818;stroke-width:0.5;" width="215" x="2359.5" y="1559.0781"/><text fill="#000000" font-family="sans-serif" font-size="20" lengthAdjust="spacing" textLength="201" x="2366.5" y="1585.4141">employeeRepository:</text><text fill="#000000" font-family="sans-serif" font-size="20" lengthAdjust="spacing" textLength="195" x="2369.5" y="1608.9688">EmployeeRepository</text><rect fill="#E3E3E3" height="37.5547" rx="2.5" ry="2.5" style="stroke:#181818;stroke-width:0.5;" width="109" x="2584.5" y="50"/><text fill="#000000" font-family="sans-serif" font-size="20" lengthAdjust="spacing" textLength="95" x="2591.5" y="76.3359">:Database</text><rect fill="#E3E3E3" height="37.5547" rx="2.5" ry="2.5" style="stroke:#181818;stroke-width:0.5;" width="109" x="2584.5" y="1559.0781"/><text fill="#000000" font-family="sans-serif" font-size="20" lengthAdjust="spacing" textLength="95" x="2591.5" y="1585.4141">:Database</text><rect fill="#FFFFFF" height="1452.5234" style="stroke:#181818;stroke-width:1.0;" width="10" x="31" y="98.5547"/><rect fill="#FFFFFF" height="37.5547" style="stroke:#181818;stroke-width:1.0;" width="10" x="533" y="128.1094"/><rect fill="#FFFFFF" height="560.3203" style="stroke:#181818;stroke-width:1.0;" width="10" x="533" y="203.2188"/><rect fill="#FFFFFF" height="37.5547" style="stroke:#181818;stroke-width:1.0;" width="10" x="533" y="801.0938"/><rect fill="#FFFFFF" height="674.875" style="stroke:#181818;stroke-width:1.0;" width="10" x="533" y="876.2031"/><rect fill="#FFFFFF" height="436.6563" style="stroke:#181818;stroke-width:1.0;" width="10" x="1092" y="289.3281"/><rect fill="#FFFFFF" height="637.3203" style="stroke:#181818;stroke-width:1.0;" width="10" x="1092" y="913.7578"/><rect fill="#FFFFFF" height="168.2188" style="stroke:#181818;stroke-width:1.0;" width="10" x="1097" y="1336.3047"/><rect fill="#FFFFFF" height="37.5547" style="stroke:#181818;stroke-width:1.0;" width="10" x="1858" y="326.8828"/><rect fill="#FFFFFF" height="37.5547" style="stroke:#181818;stroke-width:1.0;" width="10" x="1858" y="951.3125"/><rect fill="#FFFFFF" height="37.5547" style="stroke:#181818;stroke-width:1.0;" width="10" x="2007" y="401.9922"/><rect fill="#FFFFFF" height="37.5547" style="stroke:#181818;stroke-width:1.0;" width="10" x="2007" y="477.1016"/><rect fill="#FFFFFF" height="37.5547" style="stroke:#181818;stroke-width:1.0;" width="10" x="2215.5" y="552.2109"/><rect fill="#FFFFFF" height="37.5547" style="stroke:#181818;stroke-width:1.0;" width="10" x="2215.5" y="650.875"/><rect fill="#FFFFFF" height="37.5547" style="stroke:#181818;stroke-width:1.0;" width="10" x="2215.5" y="1101.5313"/><rect fill="#FFFFFF" height="37.5547" style="stroke:#181818;stroke-width:1.0;" width="10" x="2462" y="1026.4219"/><rect fill="#FFFFFF" height="37.5547" style="stroke:#181818;stroke-width:1.0;" width="10" x="2634" y="1429.4141"/><polygon fill="#181818" points="521,124.1094,531,128.1094,521,132.1094,525,128.1094" style="stroke:#181818;stroke-width:1.0;"/><line style="stroke:#181818;stroke-width:1.0;" x1="41" x2="527" y1="128.1094" y2="128.1094"/><text fill="#000000" font-family="sans-serif" font-size="20" font-weight="bold" lengthAdjust="spacing" textLength="13" x="48" y="121.8906">1</text><text fill="#000000" font-family="sans-serif" font-size="20" lengthAdjust="spacing" textLength="400" x="65" y="121.8906">asks to list the property booking requests</text><polygon fill="#181818" points="52,161.6641,42,165.6641,52,169.6641,48,165.6641" style="stroke:#181818;stroke-width:1.0;"/><line style="stroke:#181818;stroke-width:1.0;stroke-dasharray:2.0,2.0;" x1="46" x2="537" y1="165.6641" y2="165.6641"/><text fill="#000000" font-family="sans-serif" font-size="20" font-weight="bold" lengthAdjust="spacing" textLength="13" x="58" y="159.4453">2</text><text fill="#000000" font-family="sans-serif" font-size="20" lengthAdjust="spacing" textLength="346" x="75" y="159.4453">requests beginning and ending date</text><polygon fill="#181818" points="521,199.2188,531,203.2188,521,207.2188,525,203.2188" style="stroke:#181818;stroke-width:1.0;"/><line style="stroke:#181818;stroke-width:1.0;" x1="41" x2="527" y1="203.2188" y2="203.2188"/><text fill="#000000" font-family="sans-serif" font-size="20" font-weight="bold" lengthAdjust="spacing" textLength="13" x="48" y="197">3</text><text fill="#000000" font-family="sans-serif" font-size="20" lengthAdjust="spacing" textLength="341" x="65" y="197">submits beginning and ending date</text><polygon fill="#181818" points="932.5,236.7734,942.5,240.7734,932.5,244.7734,936.5,240.7734" style="stroke:#181818;stroke-width:1.0;"/><line style="stroke:#181818;stroke-width:1.0;" x1="543" x2="938.5" y1="240.7734" y2="240.7734"/><text fill="#000000" font-family="sans-serif" font-size="20" font-weight="bold" lengthAdjust="spacing" textLength="13" x="550" y="234.5547">4</text><text fill="#000000" font-family="sans-serif" font-size="20" lengthAdjust="spacing" textLength="58" x="567" y="234.5547">create</text><rect fill="#E3E3E3" height="37.5547" rx="2.5" ry="2.5" style="stroke:#181818;stroke-width:0.5;" width="305" x="944.5" y="211.2188"/><text fill="#000000" font-family="sans-serif" font-size="20" lengthAdjust="spacing" textLength="291" x="951.5" y="237.5547">:ListBookingRequestController</text><polygon fill="#181818" points="1080,285.3281,1090,289.3281,1080,293.3281,1084,289.3281" style="stroke:#181818;stroke-width:1.0;"/><line style="stroke:#181818;stroke-width:1.0;" x1="543" x2="1086" y1="289.3281" y2="289.3281"/><text fill="#000000" font-family="sans-serif" font-size="20" font-weight="bold" lengthAdjust="spacing" textLength="13" x="550" y="283.1094">5</text><text fill="#000000" font-family="sans-serif" font-size="20" lengthAdjust="spacing" textLength="433" x="567" y="283.1094">getVisitRequest(beginning date, ending date)</text><polygon fill="#181818" points="1846,322.8828,1856,326.8828,1846,330.8828,1850,326.8828" style="stroke:#181818;stroke-width:1.0;"/><line style="stroke:#181818;stroke-width:1.0;" x1="1102" x2="1852" y1="326.8828" y2="326.8828"/><text fill="#000000" font-family="sans-serif" font-size="20" font-weight="bold" lengthAdjust="spacing" textLength="13" x="1109" y="320.6641">6</text><text fill="#000000" font-family="sans-serif" font-size="20" lengthAdjust="spacing" textLength="123" x="1126" y="320.6641">getInstance()</text><polygon fill="#181818" points="1113,360.4375,1103,364.4375,1113,368.4375,1109,364.4375" style="stroke:#181818;stroke-width:1.0;"/><line style="stroke:#181818;stroke-width:1.0;stroke-dasharray:2.0,2.0;" x1="1107" x2="1862" y1="364.4375" y2="364.4375"/><text fill="#000000" font-family="sans-serif" font-size="20" font-weight="bold" lengthAdjust="spacing" textLength="13" x="1119" y="358.2188">7</text><text fill="#000000" font-family="sans-serif" font-size="20" lengthAdjust="spacing" textLength="114" x="1136" y="358.2188">repositories</text><polygon fill="#181818" points="1995,397.9922,2005,401.9922,1995,405.9922,1999,401.9922" style="stroke:#181818;stroke-width:1.0;"/><line style="stroke:#181818;stroke-width:1.0;" x1="1102" x2="2001" y1="401.9922" y2="401.9922"/><text fill="#000000" font-family="sans-serif" font-size="20" font-weight="bold" lengthAdjust="spacing" textLength="13" x="1109" y="395.7734">8</text><text fill="#000000" font-family="sans-serif" font-size="20" lengthAdjust="spacing" textLength="305" x="1126" y="395.7734">getUserSession().getUserEmail()</text><polygon fill="#181818" points="1113,435.5469,1103,439.5469,1113,443.5469,1109,439.5469" style="stroke:#181818;stroke-width:1.0;"/><line style="stroke:#181818;stroke-width:1.0;stroke-dasharray:2.0,2.0;" x1="1107" x2="2011" y1="439.5469" y2="439.5469"/><text fill="#000000" font-family="sans-serif" font-size="20" font-weight="bold" lengthAdjust="spacing" textLength="13" x="1119" y="433.3281">9</text><text fill="#000000" font-family="sans-serif" font-size="20" lengthAdjust="spacing" textLength="53" x="1136" y="433.3281">email</text><polygon fill="#181818" points="1995,473.1016,2005,477.1016,1995,481.1016,1999,477.1016" style="stroke:#181818;stroke-width:1.0;"/><line style="stroke:#181818;stroke-width:1.0;" x1="1102" x2="2001" y1="477.1016" y2="477.1016"/><text fill="#000000" font-family="sans-serif" font-size="20" font-weight="bold" lengthAdjust="spacing" textLength="26" x="1109" y="470.8828">10</text><text fill="#000000" font-family="sans-serif" font-size="20" lengthAdjust="spacing" textLength="285" x="1139" y="470.8828">getAdvertisementRepository()</text><polygon fill="#181818" points="1113,510.6563,1103,514.6563,1113,518.6563,1109,514.6563" style="stroke:#181818;stroke-width:1.0;"/><line style="stroke:#181818;stroke-width:1.0;stroke-dasharray:2.0,2.0;" x1="1107" x2="2011" y1="514.6563" y2="514.6563"/><text fill="#000000" font-family="sans-serif" font-size="20" font-weight="bold" lengthAdjust="spacing" textLength="26" x="1119" y="508.4375">11</text><text fill="#000000" font-family="sans-serif" font-size="20" lengthAdjust="spacing" textLength="241" x="1149" y="508.4375">AdvertisementRepository</text><polygon fill="#181818" points="2203.5,548.2109,2213.5,552.2109,2203.5,556.2109,2207.5,552.2109" style="stroke:#181818;stroke-width:1.0;"/><line style="stroke:#181818;stroke-width:1.0;" x1="1102" x2="2209.5" y1="552.2109" y2="552.2109"/><text fill="#000000" font-family="sans-serif" font-size="20" font-weight="bold" lengthAdjust="spacing" textLength="26" x="1109" y="545.9922">12</text><text fill="#000000" font-family="sans-serif" font-size="20" lengthAdjust="spacing" textLength="302" x="1139" y="545.9922">getAgentAdvertisements(email)</text><polygon fill="#181818" points="1113,585.7656,1103,589.7656,1113,593.7656,1109,589.7656" style="stroke:#181818;stroke-width:1.0;"/><line style="stroke:#181818;stroke-width:1.0;stroke-dasharray:2.0,2.0;" x1="1107" x2="2219.5" y1="589.7656" y2="589.7656"/><text fill="#000000" font-family="sans-serif" font-size="20" font-weight="bold" lengthAdjust="spacing" textLength="26" x="1119" y="583.5469">13</text><text fill="#000000" font-family="sans-serif" font-size="20" lengthAdjust="spacing" textLength="229" x="1149" y="583.5469">AgentAdvertisementList</text><polygon fill="#181818" points="2203.5,646.875,2213.5,650.875,2203.5,654.875,2207.5,650.875" style="stroke:#181818;stroke-width:1.0;"/><line style="stroke:#181818;stroke-width:1.0;" x1="1102" x2="2209.5" y1="650.875" y2="650.875"/><text fill="#000000" font-family="sans-serif" font-size="20" font-weight="bold" lengthAdjust="spacing" textLength="26" x="1109" y="632.8789">14</text><text fill="#000000" font-family="sans-serif" font-size="20" lengthAdjust="spacing" textLength="425" x="1139" y="621.1016">getVisitRequestList(AgentAdvertisementList,</text><text fill="#000000" font-family="sans-serif" font-size="20" lengthAdjust="spacing" textLength="277" x="1139" y="644.6563">beginning date, ending date)</text><polygon fill="#181818" points="1113,684.4297,1103,688.4297,1113,692.4297,1109,688.4297" style="stroke:#181818;stroke-width:1.0;"/><line style="stroke:#181818;stroke-width:1.0;stroke-dasharray:2.0,2.0;" x1="1107" x2="2219.5" y1="688.4297" y2="688.4297"/><text fill="#000000" font-family="sans-serif" font-size="20" font-weight="bold" lengthAdjust="spacing" textLength="26" x="1119" y="682.2109">15</text><text fill="#000000" font-family="sans-serif" font-size="20" lengthAdjust="spacing" textLength="73" x="1149" y="682.2109">visitList</text><polygon fill="#181818" points="554,721.9844,544,725.9844,554,729.9844,550,725.9844" style="stroke:#181818;stroke-width:1.0;"/><line style="stroke:#181818;stroke-width:1.0;stroke-dasharray:2.0,2.0;" x1="548" x2="1096" y1="725.9844" y2="725.9844"/><text fill="#000000" font-family="sans-serif" font-size="20" font-weight="bold" lengthAdjust="spacing" textLength="26" x="560" y="719.7656">16</text><text fill="#000000" font-family="sans-serif" font-size="20" lengthAdjust="spacing" textLength="73" x="590" y="719.7656">visitList</text><polygon fill="#181818" points="52,759.5391,42,763.5391,52,767.5391,48,763.5391" style="stroke:#181818;stroke-width:1.0;"/><line style="stroke:#181818;stroke-width:1.0;stroke-dasharray:2.0,2.0;" x1="46" x2="537" y1="763.5391" y2="763.5391"/><text fill="#000000" font-family="sans-serif" font-size="20" font-weight="bold" lengthAdjust="spacing" textLength="26" x="58" y="757.3203">17</text><text fill="#000000" font-family="sans-serif" font-size="20" lengthAdjust="spacing" textLength="438" x="88" y="757.3203">shows booking request list for specific period</text><polygon fill="#181818" points="521,797.0938,531,801.0938,521,805.0938,525,801.0938" style="stroke:#181818;stroke-width:1.0;"/><line style="stroke:#181818;stroke-width:1.0;" x1="41" x2="527" y1="801.0938" y2="801.0938"/><text fill="#000000" font-family="sans-serif" font-size="20" font-weight="bold" lengthAdjust="spacing" textLength="26" x="48" y="794.875">18</text><text fill="#000000" font-family="sans-serif" font-size="20" lengthAdjust="spacing" textLength="245" x="78" y="794.875">selects a booking request</text><polygon fill="#181818" points="52,834.6484,42,838.6484,52,842.6484,48,838.6484" style="stroke:#181818;stroke-width:1.0;"/><line style="stroke:#181818;stroke-width:1.0;" x1="46" x2="537" y1="838.6484" y2="838.6484"/><text fill="#000000" font-family="sans-serif" font-size="20" font-weight="bold" lengthAdjust="spacing" textLength="26" x="58" y="832.4297">19</text><text fill="#000000" font-family="sans-serif" font-size="20" lengthAdjust="spacing" textLength="285" x="88" y="832.4297">requests data (emailMessage)</text><polygon fill="#181818" points="521,872.2031,531,876.2031,521,880.2031,525,876.2031" style="stroke:#181818;stroke-width:1.0;"/><line style="stroke:#181818;stroke-width:1.0;" x1="41" x2="527" y1="876.2031" y2="876.2031"/><text fill="#000000" font-family="sans-serif" font-size="20" font-weight="bold" lengthAdjust="spacing" textLength="26" x="48" y="869.9844">20</text><text fill="#000000" font-family="sans-serif" font-size="20" lengthAdjust="spacing" textLength="224" x="78" y="869.9844">types and submits data</text><polygon fill="#181818" points="1080,909.7578,1090,913.7578,1080,917.7578,1084,913.7578" style="stroke:#181818;stroke-width:1.0;"/><line style="stroke:#181818;stroke-width:1.0;" x1="543" x2="1086" y1="913.7578" y2="913.7578"/><text fill="#000000" font-family="sans-serif" font-size="20" font-weight="bold" lengthAdjust="spacing" textLength="26" x="550" y="907.5391">21</text><text fill="#000000" font-family="sans-serif" font-size="20" lengthAdjust="spacing" textLength="500" x="580" y="907.5391">respondToVisitRequest(emailMessage, visitRequest)</text><polygon fill="#181818" points="1846,947.3125,1856,951.3125,1846,955.3125,1850,951.3125" style="stroke:#181818;stroke-width:1.0;"/><line style="stroke:#181818;stroke-width:1.0;" x1="1102" x2="1852" y1="951.3125" y2="951.3125"/><text fill="#000000" font-family="sans-serif" font-size="20" font-weight="bold" lengthAdjust="spacing" textLength="26" x="1109" y="945.0938">22</text><text fill="#000000" font-family="sans-serif" font-size="20" lengthAdjust="spacing" textLength="123" x="1139" y="945.0938">getInstance()</text><polygon fill="#181818" points="1113,984.8672,1103,988.8672,1113,992.8672,1109,988.8672" style="stroke:#181818;stroke-width:1.0;"/><line style="stroke:#181818;stroke-width:1.0;stroke-dasharray:2.0,2.0;" x1="1107" x2="1862" y1="988.8672" y2="988.8672"/><text fill="#000000" font-family="sans-serif" font-size="20" font-weight="bold" lengthAdjust="spacing" textLength="26" x="1119" y="982.6484">23</text><text fill="#000000" font-family="sans-serif" font-size="20" lengthAdjust="spacing" textLength="114" x="1149" y="982.6484">repositories</text><polygon fill="#181818" points="2450,1022.4219,2460,1026.4219,2450,1030.4219,2454,1026.4219" style="stroke:#181818;stroke-width:1.0;"/><line style="stroke:#181818;stroke-width:1.0;" x1="1102" x2="2456" y1="1026.4219" y2="1026.4219"/><text fill="#000000" font-family="sans-serif" font-size="20" font-weight="bold" lengthAdjust="spacing" textLength="26" x="1109" y="1020.2031">24</text><text fill="#000000" font-family="sans-serif" font-size="20" lengthAdjust="spacing" textLength="265" x="1139" y="1020.2031">getEmployeeByEmail(email)</text><polygon fill="#181818" points="1113,1059.9766,1103,1063.9766,1113,1067.9766,1109,1063.9766" style="stroke:#181818;stroke-width:1.0;"/><line style="stroke:#181818;stroke-width:1.0;stroke-dasharray:2.0,2.0;" x1="1107" x2="2466" y1="1063.9766" y2="1063.9766"/><text fill="#000000" font-family="sans-serif" font-size="20" font-weight="bold" lengthAdjust="spacing" textLength="26" x="1119" y="1057.7578">25</text><text fill="#000000" font-family="sans-serif" font-size="20" lengthAdjust="spacing" textLength="93" x="1149" y="1057.7578">employee</text><polygon fill="#181818" points="2203.5,1097.5313,2213.5,1101.5313,2203.5,1105.5313,2207.5,1101.5313" style="stroke:#181818;stroke-width:1.0;"/><line style="stroke:#181818;stroke-width:1.0;" x1="1102" x2="2209.5" y1="1101.5313" y2="1101.5313"/><text fill="#000000" font-family="sans-serif" font-size="20" font-weight="bold" lengthAdjust="spacing" textLength="26" x="1109" y="1095.3125">26</text><text fill="#000000" font-family="sans-serif" font-size="20" lengthAdjust="spacing" textLength="418" x="1139" y="1095.3125">getVisitRequestAdvertisement(visitRequest)</text><polygon fill="#181818" points="1113,1135.0859,1103,1139.0859,1113,1143.0859,1109,1139.0859" style="stroke:#181818;stroke-width:1.0;"/><line style="stroke:#181818;stroke-width:1.0;stroke-dasharray:2.0,2.0;" x1="1107" x2="2219.5" y1="1139.0859" y2="1139.0859"/><text fill="#000000" font-family="sans-serif" font-size="20" font-weight="bold" lengthAdjust="spacing" textLength="26" x="1119" y="1132.8672">27</text><text fill="#000000" font-family="sans-serif" font-size="20" lengthAdjust="spacing" textLength="136" x="1149" y="1132.8672">advertisement</text><line style="stroke:#181818;stroke-width:1.0;" x1="1102" x2="1144" y1="1176.6406" y2="1176.6406"/><line style="stroke:#181818;stroke-width:1.0;" x1="1144" x2="1144" y1="1176.6406" y2="1189.6406"/><line style="stroke:#181818;stroke-width:1.0;" x1="1103" x2="1144" y1="1189.6406" y2="1189.6406"/><polygon fill="#181818" points="1113,1185.6406,1103,1189.6406,1113,1193.6406,1109,1189.6406" style="stroke:#181818;stroke-width:1.0;"/><text fill="#000000" font-family="sans-serif" font-size="20" font-weight="bold" lengthAdjust="spacing" textLength="26" x="1109" y="1170.4219">28</text><text fill="#000000" font-family="sans-serif" font-size="20" lengthAdjust="spacing" textLength="482" x="1139" y="1170.4219">phoneNumber = getTelephoneNumber(employee)</text><line style="stroke:#181818;stroke-width:1.0;" x1="1102" x2="1144" y1="1227.1953" y2="1227.1953"/><line style="stroke:#181818;stroke-width:1.0;" x1="1144" x2="1144" y1="1227.1953" y2="1240.1953"/><line style="stroke:#181818;stroke-width:1.0;" x1="1103" x2="1144" y1="1240.1953" y2="1240.1953"/><polygon fill="#181818" points="1113,1236.1953,1103,1240.1953,1113,1244.1953,1109,1240.1953" style="stroke:#181818;stroke-width:1.0;"/><text fill="#000000" font-family="sans-serif" font-size="20" font-weight="bold" lengthAdjust="spacing" textLength="26" x="1109" y="1220.9766">29</text><text fill="#000000" font-family="sans-serif" font-size="20" lengthAdjust="spacing" textLength="274" x="1139" y="1220.9766">name = getName(employee)</text><line style="stroke:#181818;stroke-width:1.0;" x1="1102" x2="1144" y1="1277.75" y2="1277.75"/><line style="stroke:#181818;stroke-width:1.0;" x1="1144" x2="1144" y1="1277.75" y2="1290.75"/><line style="stroke:#181818;stroke-width:1.0;" x1="1103" x2="1144" y1="1290.75" y2="1290.75"/><polygon fill="#181818" points="1113,1286.75,1103,1290.75,1113,1294.75,1109,1290.75" style="stroke:#181818;stroke-width:1.0;"/><text fill="#000000" font-family="sans-serif" font-size="20" font-weight="bold" lengthAdjust="spacing" textLength="26" x="1109" y="1271.5313">30</text><text fill="#000000" font-family="sans-serif" font-size="20" lengthAdjust="spacing" textLength="551" x="1139" y="1271.5313">propertyAddress = getAddressOfProperty(advertisement)</text><line style="stroke:#181818;stroke-width:1.0;" x1="1102" x2="1149" y1="1323.3047" y2="1323.3047"/><line style="stroke:#181818;stroke-width:1.0;" x1="1149" x2="1149" y1="1323.3047" y2="1336.3047"/><line style="stroke:#181818;stroke-width:1.0;" x1="1108" x2="1149" y1="1336.3047" y2="1336.3047"/><polygon fill="#181818" points="1118,1332.3047,1108,1336.3047,1118,1340.3047,1114,1336.3047" style="stroke:#181818;stroke-width:1.0;"/><text fill="#000000" font-family="sans-serif" font-size="20" font-weight="bold" lengthAdjust="spacing" textLength="26" x="1114" y="1317.0859">31</text><text fill="#000000" font-family="sans-serif" font-size="20" lengthAdjust="spacing" textLength="712" x="1144" y="1317.0859">generateResponse(phoneNumber, name, propertyAddress, emailMessage)</text><line style="stroke:#181818;stroke-width:1.0;stroke-dasharray:2.0,2.0;" x1="1107" x2="1149" y1="1378.8594" y2="1378.8594"/><line style="stroke:#181818;stroke-width:1.0;stroke-dasharray:2.0,2.0;" x1="1149" x2="1149" y1="1378.8594" y2="1391.8594"/><line style="stroke:#181818;stroke-width:1.0;stroke-dasharray:2.0,2.0;" x1="1108" x2="1149" y1="1391.8594" y2="1391.8594"/><polygon fill="#181818" points="1118,1387.8594,1108,1391.8594,1118,1395.8594,1114,1391.8594" style="stroke:#181818;stroke-width:1.0;"/><text fill="#000000" font-family="sans-serif" font-size="20" font-weight="bold" lengthAdjust="spacing" textLength="26" x="1114" y="1372.6406">32</text><text fill="#000000" font-family="sans-serif" font-size="20" lengthAdjust="spacing" textLength="87" x="1144" y="1372.6406">response</text><polygon fill="#181818" points="2622,1425.4141,2632,1429.4141,2622,1433.4141,2626,1429.4141" style="stroke:#181818;stroke-width:1.0;"/><line style="stroke:#181818;stroke-width:1.0;" x1="1107" x2="2628" y1="1429.4141" y2="1429.4141"/><text fill="#000000" font-family="sans-serif" font-size="20" font-weight="bold" lengthAdjust="spacing" textLength="26" x="1114" y="1423.1953">33</text><text fill="#000000" font-family="sans-serif" font-size="20" lengthAdjust="spacing" textLength="200" x="1144" y="1423.1953">sendEmail(response)</text><polygon fill="#181818" points="1118,1462.9688,1108,1466.9688,1118,1470.9688,1114,1466.9688" style="stroke:#181818;stroke-width:1.0;"/><line style="stroke:#181818;stroke-width:1.0;stroke-dasharray:2.0,2.0;" x1="1112" x2="2638" y1="1466.9688" y2="1466.9688"/><text fill="#000000" font-family="sans-serif" font-size="20" font-weight="bold" lengthAdjust="spacing" textLength="26" x="1124" y="1460.75">34</text><text fill="#000000" font-family="sans-serif" font-size="20" lengthAdjust="spacing" textLength="171" x="1154" y="1460.75">operation success</text><polygon fill="#181818" points="554,1500.5234,544,1504.5234,554,1508.5234,550,1504.5234" style="stroke:#181818;stroke-width:1.0;"/><line style="stroke:#181818;stroke-width:1.0;stroke-dasharray:2.0,2.0;" x1="548" x2="1091" y1="1504.5234" y2="1504.5234"/><text fill="#000000" font-family="sans-serif" font-size="20" font-weight="bold" lengthAdjust="spacing" textLength="26" x="560" y="1498.3047">35</text><text fill="#000000" font-family="sans-serif" font-size="20" lengthAdjust="spacing" textLength="171" x="590" y="1498.3047">operation success</text><polygon fill="#181818" points="52,1538.0781,42,1542.0781,52,1546.0781,48,1542.0781" style="stroke:#181818;stroke-width:1.0;"/><line style="stroke:#181818;stroke-width:1.0;stroke-dasharray:2.0,2.0;" x1="46" x2="532" y1="1542.0781" y2="1542.0781"/><text fill="#000000" font-family="sans-serif" font-size="20" font-weight="bold" lengthAdjust="spacing" textLength="26" x="58" y="1535.8594">36</text><text fill="#000000" font-family="sans-serif" font-size="20" lengthAdjust="spacing" textLength="256" x="88" y="1535.8594">displays operation success</text><!--SRC=[fLRVRziW47xtNu7wCgTAfccFbZQftJefqjPD_R6dlX1pIL1jy82qo_xw7M0dOEFMKNcouUwxZ-Fk0_t8HKCLhIjPFW8Z3DPqLvblKfXR_W_8nm-Pxan8BOKijqhMG8pQGR3IqFAHRk3Mx2iW2af3nQOA3VIMCldCnOQiQQKXo-ZEIB6hLw2oxDsMCo1hASrA_ireQQGYPnSR4EQCK4tkDHeXZE4bRwWmvApuphMvb1BXDpVmPmVQt2-zxV9Loo-uDoMh2fJpEFxsF6-WaPeZ5mxQMOOJiQqALXx4q5EDUbBs1FYheSRT7lpsnOEuIAyuF5p3cHW9wgQIUu08v6emwVnnUk1VVAM6hgW6Ps5_CXnu6Fo96l27a14SzeiiFcEgIO6cZveOIIfCCp5R88sI3VBUavLFEkxTPLqxtoFSqeCvm2LPM3oBMnpioGesN0WBGGKZ89ZzPEZi71aCi29YUhUg-QieGuobHJZM13a_Hx1IWVL8MnHa0-Otn_Is1POVOzf0yp3gB0uR59zR260nI5X71GPP2esDLK8-E-Gk70VKg52TQJYpYEWNSN7sKZj4YXc6lZuHzX1kGMikHJvxtqvSrPHNUM_lQe0TeItwMGOBqYUeJYOuqbTlPJS2UofVtzajKwk04QxENH9wL5irS9Ej_v3U0CiAOvzTY3JEAwnrYvAdmUSFOdeZJDd3aurx2krE2qOT- -tNKoDKaQryrdqfysAtnajADr3oDIy9IXwNB25CTiP3n-e45LwIcj0-TZPevWZae3y3jSISKkBBumUs7rx6Hv4OepIWPVODrhOLoau-BMoIKuzFT50AT2C5kvEHAeRSvlvCsgNPC4BgPDuaZXD4iXidYMKYnsdacBs_WNq_TPVqvTxhPD3Z4UFsrZuij1W9eVHugVFlOqphygYtyrUEBkp6bzevUleak8wHZ42QhHHmxTwHv9EbVOUT5KpcNJ9ca-04nRUjmxd6hnETkwVF1MFO0ThZj3y_rx_QrJpQzpHar5TGc98RrrWQyc27SqTwtey-9sajcDnXwQRMeyTYNunEsGJpPTmv96BxrsKtxJm7yUnkgC5d16fHMU8sKkKS0wMqVnBC2_T09xICwwQYUvq0_0y0]--></g></svg>