<?xml version="1.0" encoding="UTF-8" standalone="no"?><svg xmlns="http://www.w3.org/2000/svg" xmlns:xlink="http://www.w3.org/1999/xlink" contentStyleType="text/css" height="1179px" preserveAspectRatio="none" style="width:1205px;height:1179px;background:#FFFFFF;" version="1.1" viewBox="0 0 1205 1179" width="1205px" zoomAndPan="magnify"><defs/><g><!--class ListBookingRequestUI--><g id="elem_ListBookingRequestUI"><rect codeLine="8" fill="#F1F1F1" height="50" id="ListBookingRequestUI" rx="2.5" ry="2.5" style="stroke:#181818;stroke-width:0.5;" width="243" x="287.5" y="7"/><ellipse cx="303.5" cy="24" fill="#ADD1B2" rx="12" ry="12" style="stroke:#181818;stroke-width:1.0;"/><path d="M306.3066,31.0801 Q305.623,31.4316 304.8711,31.6074 Q304.1191,31.7832 303.2891,31.7832 Q300.3398,31.7832 298.7871,29.8398 Q297.2344,27.8965 297.2344,24.2246 Q297.2344,20.543 298.7871,18.5996 Q300.3398,16.6563 303.2891,16.6563 Q304.1191,16.6563 304.8809,16.832 Q305.6426,17.0078 306.3066,17.3594 L306.3066,20.5625 Q305.5645,19.8789 304.8662,19.5615 Q304.168,19.2441 303.4258,19.2441 Q301.8438,19.2441 301.0381,20.499 Q300.2324,21.7539 300.2324,24.2246 Q300.2324,26.6855 301.0381,27.9404 Q301.8438,29.1953 303.4258,29.1953 Q304.168,29.1953 304.8662,28.8779 Q305.5645,28.5605 306.3066,27.877 Z " fill="#000000"/><text fill="#000000" font-family="sans-serif" font-size="20" lengthAdjust="spacing" textLength="209" x="318.5" y="31.5586">ListBookingRequestUI</text><line style="stroke:#181818;stroke-width:0.5;" x1="288.5" x2="529.5" y1="41" y2="41"/><line style="stroke:#181818;stroke-width:0.5;" x1="288.5" x2="529.5" y1="49" y2="49"/></g><!--class ListBookingRequestController--><g id="elem_ListBookingRequestController"><rect codeLine="10" fill="#F1F1F1" height="97.1094" id="ListBookingRequestController" rx="2.5" ry="2.5" style="stroke:#181818;stroke-width:0.5;" width="350" x="234" y="117"/><ellipse cx="263.95" cy="134" fill="#ADD1B2" rx="12" ry="12" style="stroke:#181818;stroke-width:1.0;"/><path d="M266.7566,141.0801 Q266.073,141.4316 265.3211,141.6074 Q264.5691,141.7832 263.7391,141.7832 Q260.7898,141.7832 259.2371,139.8398 Q257.6844,137.8965 257.6844,134.2246 Q257.6844,130.543 259.2371,128.5996 Q260.7898,126.6563 263.7391,126.6563 Q264.5691,126.6563 265.3309,126.832 Q266.0926,127.0078 266.7566,127.3594 L266.7566,130.5625 Q266.0145,129.8789 265.3162,129.5615 Q264.618,129.2441 263.8758,129.2441 Q262.2938,129.2441 261.4881,130.499 Q260.6824,131.7539 260.6824,134.2246 Q260.6824,136.6855 261.4881,137.9404 Q262.2938,139.1953 263.8758,139.1953 Q264.618,139.1953 265.3162,138.8779 Q266.0145,138.5605 266.7566,137.877 Z " fill="#000000"/><text fill="#000000" font-family="sans-serif" font-size="20" lengthAdjust="spacing" textLength="285" x="282.05" y="141.5586">ListBookingRequestController</text><line style="stroke:#181818;stroke-width:0.5;" x1="235" x2="583" y1="151" y2="151"/><line style="stroke:#181818;stroke-width:0.5;" x1="235" x2="583" y1="159" y2="159"/><text fill="#000000" font-family="sans-serif" font-size="20" lengthAdjust="spacing" textLength="318" x="240" y="182.3359">+getAgentAdvertisements(email)</text><text fill="#000000" font-family="sans-serif" font-size="20" lengthAdjust="spacing" textLength="338" x="240" y="205.8906">+getVisitRequest(list, dStart, dEnd)</text></g><!--class Repositories--><g id="elem_Repositories"><rect codeLine="15" fill="#F1F1F1" height="120.6641" id="Repositories" rx="2.5" ry="2.5" style="stroke:#181818;stroke-width:0.5;" width="313" x="357.5" y="274"/><ellipse cx="450" cy="291" fill="#ADD1B2" rx="12" ry="12" style="stroke:#181818;stroke-width:1.0;"/><path d="M452.8066,298.0801 Q452.123,298.4316 451.3711,298.6074 Q450.6191,298.7832 449.7891,298.7832 Q446.8398,298.7832 445.2871,296.8398 Q443.7344,294.8965 443.7344,291.2246 Q443.7344,287.543 445.2871,285.5996 Q446.8398,283.6563 449.7891,283.6563 Q450.6191,283.6563 451.3809,283.832 Q452.1426,284.0078 452.8066,284.3594 L452.8066,287.5625 Q452.0645,286.8789 451.3662,286.5615 Q450.668,286.2441 449.9258,286.2441 Q448.3438,286.2441 447.5381,287.499 Q446.7324,288.7539 446.7324,291.2246 Q446.7324,293.6855 447.5381,294.9404 Q448.3438,296.1953 449.9258,296.1953 Q450.668,296.1953 451.3662,295.8779 Q452.0645,295.5605 452.8066,294.877 Z " fill="#000000"/><text fill="#000000" font-family="sans-serif" font-size="20" lengthAdjust="spacing" textLength="119" x="472" y="298.5586">Repositories</text><line style="stroke:#181818;stroke-width:0.5;" x1="358.5" x2="669.5" y1="308" y2="308"/><line style="stroke:#181818;stroke-width:0.5;" x1="358.5" x2="669.5" y1="316" y2="316"/><text fill="#000000" font-family="sans-serif" font-size="20" lengthAdjust="spacing" textLength="139" x="363.5" y="339.3359">+getInstance()</text><text fill="#000000" font-family="sans-serif" font-size="20" lengthAdjust="spacing" textLength="301" x="363.5" y="362.8906">+getAdvertisementRepository()</text><text fill="#000000" font-family="sans-serif" font-size="20" lengthAdjust="spacing" textLength="255" x="363.5" y="386.4453">+getEmployeeRepository()</text></g><!--class AdvertisementRepository--><g id="elem_AdvertisementRepository"><rect codeLine="21" fill="#F1F1F1" height="120.6641" id="AdvertisementRepository" rx="2.5" ry="2.5" style="stroke:#181818;stroke-width:0.5;" width="408" x="100" y="455"/><ellipse cx="179" cy="472" fill="#ADD1B2" rx="12" ry="12" style="stroke:#181818;stroke-width:1.0;"/><path d="M181.8066,479.0801 Q181.123,479.4316 180.3711,479.6074 Q179.6191,479.7832 178.7891,479.7832 Q175.8398,479.7832 174.2871,477.8398 Q172.7344,475.8965 172.7344,472.2246 Q172.7344,468.543 174.2871,466.5996 Q175.8398,464.6563 178.7891,464.6563 Q179.6191,464.6563 180.3809,464.832 Q181.1426,465.0078 181.8066,465.3594 L181.8066,468.5625 Q181.0645,467.8789 180.3662,467.5615 Q179.668,467.2441 178.9258,467.2441 Q177.3438,467.2441 176.5381,468.499 Q175.7324,469.7539 175.7324,472.2246 Q175.7324,474.6855 176.5381,475.9404 Q177.3438,477.1953 178.9258,477.1953 Q179.668,477.1953 180.3662,476.8779 Q181.0645,476.5605 181.8066,475.877 Z " fill="#000000"/><text fill="#000000" font-family="sans-serif" font-size="20" lengthAdjust="spacing" textLength="241" x="201" y="479.5586">AdvertisementRepository</text><line style="stroke:#181818;stroke-width:0.5;" x1="101" x2="507" y1="489" y2="489"/><text fill="#000000" font-family="sans-serif" font-size="20" lengthAdjust="spacing" textLength="396" x="106" y="512.3359">-List&lt;Advertisement&gt; AdvertisementList</text><line style="stroke:#181818;stroke-width:0.5;" x1="101" x2="507" y1="520.5547" y2="520.5547"/><text fill="#000000" font-family="sans-serif" font-size="20" lengthAdjust="spacing" textLength="372" x="106" y="543.8906">+getVisitRequestList(list, dStart, dEnd)</text><text fill="#000000" font-family="sans-serif" font-size="20" lengthAdjust="spacing" textLength="318" x="106" y="567.4453">+getAgentAdvertisements(email)</text></g><!--class EmployeeRepository--><g id="elem_EmployeeRepository"><rect codeLine="27" fill="#F1F1F1" height="97.1094" id="EmployeeRepository" rx="2.5" ry="2.5" style="stroke:#181818;stroke-width:0.5;" width="316" x="543" y="467"/><ellipse cx="599" cy="484" fill="#ADD1B2" rx="12" ry="12" style="stroke:#181818;stroke-width:1.0;"/><path d="M601.8066,491.0801 Q601.123,491.4316 600.3711,491.6074 Q599.6191,491.7832 598.7891,491.7832 Q595.8398,491.7832 594.2871,489.8398 Q592.7344,487.8965 592.7344,484.2246 Q592.7344,480.543 594.2871,478.5996 Q595.8398,476.6563 598.7891,476.6563 Q599.6191,476.6563 600.3809,476.832 Q601.1426,477.0078 601.8066,477.3594 L601.8066,480.5625 Q601.0645,479.8789 600.3662,479.5615 Q599.668,479.2441 598.9258,479.2441 Q597.3438,479.2441 596.5381,480.499 Q595.7324,481.7539 595.7324,484.2246 Q595.7324,486.6855 596.5381,487.9404 Q597.3438,489.1953 598.9258,489.1953 Q599.668,489.1953 600.3662,488.8779 Q601.0645,488.5605 601.8066,487.877 Z " fill="#000000"/><text fill="#000000" font-family="sans-serif" font-size="20" lengthAdjust="spacing" textLength="195" x="621" y="491.5586">EmployeeRepository</text><line style="stroke:#181818;stroke-width:0.5;" x1="544" x2="858" y1="501" y2="501"/><text fill="#000000" font-family="sans-serif" font-size="20" lengthAdjust="spacing" textLength="304" x="549" y="524.3359">-List&lt;Employee&gt; EmployeeList</text><line style="stroke:#181818;stroke-width:0.5;" x1="544" x2="858" y1="532.5547" y2="532.5547"/><text fill="#000000" font-family="sans-serif" font-size="20" lengthAdjust="spacing" textLength="281" x="549" y="555.8906">+getEmployeeByEmail(email)</text></g><!--class Database--><g id="elem_Database"><rect codeLine="32" fill="#F1F1F1" height="73.5547" id="Database" rx="2.5" ry="2.5" style="stroke:#181818;stroke-width:0.5;" width="233" x="965.5" y="297.5"/><ellipse cx="1033" cy="314.5" fill="#ADD1B2" rx="12" ry="12" style="stroke:#181818;stroke-width:1.0;"/><path d="M1035.8066,321.5801 Q1035.123,321.9316 1034.3711,322.1074 Q1033.6191,322.2832 1032.7891,322.2832 Q1029.8398,322.2832 1028.2871,320.3398 Q1026.7344,318.3965 1026.7344,314.7246 Q1026.7344,311.043 1028.2871,309.0996 Q1029.8398,307.1563 1032.7891,307.1563 Q1033.6191,307.1563 1034.3809,307.332 Q1035.1426,307.5078 1035.8066,307.8594 L1035.8066,311.0625 Q1035.0645,310.3789 1034.3662,310.0615 Q1033.668,309.7441 1032.9258,309.7441 Q1031.3438,309.7441 1030.5381,310.999 Q1029.7324,312.2539 1029.7324,314.7246 Q1029.7324,317.1855 1030.5381,318.4404 Q1031.3438,319.6953 1032.9258,319.6953 Q1033.668,319.6953 1034.3662,319.3779 Q1035.0645,319.0605 1035.8066,318.377 Z " fill="#000000"/><text fill="#000000" font-family="sans-serif" font-size="20" lengthAdjust="spacing" textLength="89" x="1055" y="322.0586">Database</text><line style="stroke:#181818;stroke-width:0.5;" x1="966.5" x2="1197.5" y1="331.5" y2="331.5"/><line style="stroke:#181818;stroke-width:0.5;" x1="966.5" x2="1197.5" y1="339.5" y2="339.5"/><text fill="#000000" font-family="sans-serif" font-size="20" lengthAdjust="spacing" textLength="221" x="971.5" y="362.8359">+sendEmail(emailMsg)</text></g><!--class Advertisement--><g id="elem_Advertisement"><rect codeLine="37" fill="#F1F1F1" height="261.9922" id="Advertisement" rx="2.5" ry="2.5" style="stroke:#181818;stroke-width:0.5;" width="465" x="29.5" y="636"/><ellipse cx="188" cy="653" fill="#ADD1B2" rx="12" ry="12" style="stroke:#181818;stroke-width:1.0;"/><path d="M190.8066,660.0801 Q190.123,660.4316 189.3711,660.6074 Q188.6191,660.7832 187.7891,660.7832 Q184.8398,660.7832 183.2871,658.8398 Q181.7344,656.8965 181.7344,653.2246 Q181.7344,649.543 183.2871,647.5996 Q184.8398,645.6563 187.7891,645.6563 Q188.6191,645.6563 189.3809,645.832 Q190.1426,646.0078 190.8066,646.3594 L190.8066,649.5625 Q190.0645,648.8789 189.3662,648.5615 Q188.668,648.2441 187.9258,648.2441 Q186.3438,648.2441 185.5381,649.499 Q184.7324,650.7539 184.7324,653.2246 Q184.7324,655.6855 185.5381,656.9404 Q186.3438,658.1953 187.9258,658.1953 Q188.668,658.1953 189.3662,657.8779 Q190.0645,657.5605 190.8066,656.877 Z " fill="#000000"/><text fill="#000000" font-family="sans-serif" font-size="20" lengthAdjust="spacing" textLength="139" x="210" y="660.5586">Advertisement</text><line style="stroke:#181818;stroke-width:0.5;" x1="30.5" x2="493.5" y1="670" y2="670"/><text fill="#000000" font-family="sans-serif" font-size="20" lengthAdjust="spacing" textLength="278" x="35.5" y="693.3359">-String dateOfAdvertisement</text><text fill="#000000" font-family="sans-serif" font-size="20" lengthAdjust="spacing" textLength="167" x="35.5" y="716.8906">-Request request</text><text fill="#000000" font-family="sans-serif" font-size="20" lengthAdjust="spacing" textLength="254" x="35.5" y="740.4453">-Commission commission</text><text fill="#000000" font-family="sans-serif" font-size="20" lengthAdjust="spacing" textLength="453" x="35.5" y="764">-ArrayList&lt;PurchaseOrder&gt; purchaseOrderList</text><text fill="#000000" font-family="sans-serif" font-size="20" lengthAdjust="spacing" textLength="404" x="35.5" y="787.5547">-ArrayList&lt;VisitRequest&gt; visitRequestList</text><text fill="#000000" font-family="sans-serif" font-size="20" lengthAdjust="spacing" textLength="131" x="35.5" y="811.1094">-String status</text><text fill="#000000" font-family="sans-serif" font-size="20" lengthAdjust="spacing" textLength="115" x="35.5" y="834.6641">-Store store</text><line style="stroke:#181818;stroke-width:0.5;" x1="30.5" x2="493.5" y1="842.8828" y2="842.8828"/><text fill="#000000" font-family="sans-serif" font-size="20" lengthAdjust="spacing" textLength="228" x="35.5" y="866.2188">+getEmployeeByEmail()</text><text fill="#000000" font-family="sans-serif" font-size="20" lengthAdjust="spacing" textLength="435" x="35.5" y="889.7734">+getVisitRequestAdvertisement(visit request)</text></g><!--class VisitRequest--><g id="elem_VisitRequest"><rect codeLine="51" fill="#F1F1F1" height="214.8828" id="VisitRequest" rx="2.5" ry="2.5" style="stroke:#181818;stroke-width:0.5;" width="224" x="7" y="958"/><ellipse cx="55" cy="975" fill="#ADD1B2" rx="12" ry="12" style="stroke:#181818;stroke-width:1.0;"/><path d="M57.8066,982.0801 Q57.123,982.4316 56.3711,982.6074 Q55.6191,982.7832 54.7891,982.7832 Q51.8398,982.7832 50.2871,980.8398 Q48.7344,978.8965 48.7344,975.2246 Q48.7344,971.543 50.2871,969.5996 Q51.8398,967.6563 54.7891,967.6563 Q55.6191,967.6563 56.3809,967.832 Q57.1426,968.0078 57.8066,968.3594 L57.8066,971.5625 Q57.0645,970.8789 56.3662,970.5615 Q55.668,970.2441 54.9258,970.2441 Q53.3438,970.2441 52.5381,971.499 Q51.7324,972.7539 51.7324,975.2246 Q51.7324,977.6855 52.5381,978.9404 Q53.3438,980.1953 54.9258,980.1953 Q55.668,980.1953 56.3662,979.8779 Q57.0645,979.5605 57.8066,978.877 Z " fill="#000000"/><text fill="#000000" font-family="sans-serif" font-size="20" lengthAdjust="spacing" textLength="119" x="77" y="982.5586">VisitRequest</text><line style="stroke:#181818;stroke-width:0.5;" x1="8" x2="230" y1="992" y2="992"/><text fill="#000000" font-family="sans-serif" font-size="20" lengthAdjust="spacing" textLength="127" x="13" y="1015.3359">-String name</text><text fill="#000000" font-family="sans-serif" font-size="20" lengthAdjust="spacing" textLength="212" x="13" y="1038.8906">-String phoneNumber</text><text fill="#000000" font-family="sans-serif" font-size="20" lengthAdjust="spacing" textLength="181" x="13" y="1062.4453">-String dateOfVisit</text><text fill="#000000" font-family="sans-serif" font-size="20" lengthAdjust="spacing" textLength="197" x="13" y="1086">-String timeSlotStart</text><text fill="#000000" font-family="sans-serif" font-size="20" lengthAdjust="spacing" textLength="189" x="13" y="1109.5547">-String timeSlotEnd</text><text fill="#000000" font-family="sans-serif" font-size="20" lengthAdjust="spacing" textLength="158" x="13" y="1133.1094">-String message</text><text fill="#000000" font-family="sans-serif" font-size="20" lengthAdjust="spacing" textLength="131" x="13" y="1156.6641">-String status</text><line style="stroke:#181818;stroke-width:0.5;" x1="8" x2="230" y1="1164.8828" y2="1164.8828"/></g><!--class Employee--><g id="elem_Employee"><rect codeLine="61" fill="#F1F1F1" height="50" id="Employee" rx="2.5" ry="2.5" style="stroke:#181818;stroke-width:0.5;" width="127" x="742.5" y="742"/><ellipse cx="758.5" cy="759" fill="#B4A7E5" rx="12" ry="12" style="stroke:#181818;stroke-width:1.0;"/><path d="M754.1797,754.459 L754.1797,751.9199 L762.8613,751.9199 L762.8613,754.459 L759.9609,754.459 L759.9609,763.9609 L762.8613,763.9609 L762.8613,766.5 L754.1797,766.5 L754.1797,763.9609 L757.0801,763.9609 L757.0801,754.459 Z " fill="#000000"/><text fill="#000000" font-family="sans-serif" font-size="20" font-style="italic" lengthAdjust="spacing" textLength="93" x="773.5" y="766.5586">Employee</text><line style="stroke:#181818;stroke-width:0.5;" x1="743.5" x2="868.5" y1="776" y2="776"/><line style="stroke:#181818;stroke-width:0.5;" x1="743.5" x2="868.5" y1="784" y2="784"/></g><!--link ListBookingRequestUI to ListBookingRequestController--><g id="link_ListBookingRequestUI_ListBookingRequestController"><path codeLine="64" d="M409,57.12 C409,72.37 409,92.69 409,111.55 " fill="none" id="ListBookingRequestUI-to-ListBookingRequestController" style="stroke:#181818;stroke-width:1.0;stroke-dasharray:7.0,7.0;"/><polygon fill="#181818" points="409,116.83,413,107.83,409,111.83,405,107.83,409,116.83" style="stroke:#181818;stroke-width:1.0;"/></g><!--link ListBookingRequestController to Repositories--><g id="link_ListBookingRequestController_Repositories"><path codeLine="65" d="M439.09,214.36 C449.82,231.42 462.08,250.92 473.53,269.14 " fill="none" id="ListBookingRequestController-to-Repositories" style="stroke:#181818;stroke-width:1.0;stroke-dasharray:7.0,7.0;"/><polygon fill="#181818" points="476.43,273.74,475.0432,263.9893,473.7762,269.5024,468.263,268.2354,476.43,273.74" style="stroke:#181818;stroke-width:1.0;"/></g><!--link ListBookingRequestController to AdvertisementRepository--><g id="link_ListBookingRequestController_AdvertisementRepository"><path codeLine="66" d="M378.33,214.28 C359.91,242.99 340,274 340,274 C340,274 324.37,378.44 313.7,449.67 " fill="none" id="ListBookingRequestController-to-AdvertisementRepository" style="stroke:#181818;stroke-width:1.0;stroke-dasharray:7.0,7.0;"/><polygon fill="#181818" points="312.95,454.74,318.2396,446.4322,313.691,449.7952,310.328,445.2466,312.95,454.74" style="stroke:#181818;stroke-width:1.0;"/></g><!--link Repositories to AdvertisementRepository--><g id="link_Repositories_AdvertisementRepository"><path codeLine="68" d="M444.07,395.1 C422.84,413.2 399.45,433.14 377.97,451.45 " fill="none" id="Repositories-to-AdvertisementRepository" style="stroke:#181818;stroke-width:1.0;"/><polygon fill="#181818" points="373.98,454.85,383.4226,452.0504,377.7833,451.6043,378.2294,445.9651,373.98,454.85" style="stroke:#181818;stroke-width:1.0;"/><text fill="#000000" font-family="sans-serif" font-size="20" lengthAdjust="spacing" textLength="13" x="368.3199" y="442.8951">1</text></g><!--link Repositories to EmployeeRepository--><g id="link_Repositories_EmployeeRepository"><path codeLine="69" d="M576.27,395.1 C599.27,417.12 625.12,441.86 647.29,463.09 " fill="none" id="Repositories-to-EmployeeRepository" style="stroke:#181818;stroke-width:1.0;"/><polygon fill="#181818" points="651.1,466.74,647.3611,457.6284,647.4868,463.2839,641.8313,463.4096,651.1,466.74" style="stroke:#181818;stroke-width:1.0;"/><text fill="#000000" font-family="sans-serif" font-size="20" lengthAdjust="spacing" textLength="13" x="630.1688" y="454.6332">1</text></g><!--link AdvertisementRepository to Advertisement--><g id="link_AdvertisementRepository_Advertisement"><path codeLine="72" d="M293.94,576.26 C291.17,592.73 288.04,611.3 284.86,630.21 " fill="none" id="AdvertisementRepository-to-Advertisement" style="stroke:#181818;stroke-width:1.0;"/><polygon fill="#181818" points="283.96,635.55,289.3967,627.3377,284.7889,630.6192,281.5075,626.0114,283.96,635.55" style="stroke:#181818;stroke-width:1.0;"/><text fill="#000000" font-family="sans-serif" font-size="20" lengthAdjust="spacing" textLength="13" x="279.2323" y="603.0937">1</text><text fill="#000000" font-family="sans-serif" font-size="20" lengthAdjust="spacing" textLength="10" x="274.9405" y="623.6379">*</text></g><!--link EmployeeRepository to Employee--><g id="link_EmployeeRepository_Employee"><path codeLine="73" d="M721,564.02 C742.48,615.07 775.94,694.57 793.8,737.01 " fill="none" id="EmployeeRepository-to-Employee" style="stroke:#181818;stroke-width:1.0;"/><polygon fill="#181818" points="795.79,741.74,795.9991,731.8934,793.8568,737.1289,788.6213,734.9865,795.79,741.74" style="stroke:#181818;stroke-width:1.0;"/><text fill="#000000" font-family="sans-serif" font-size="20" lengthAdjust="spacing" textLength="13" x="709.8141" y="591.451">1</text><text fill="#000000" font-family="sans-serif" font-size="20" lengthAdjust="spacing" textLength="10" x="782.2727" y="729.6393">*</text></g><!--link Advertisement to VisitRequest--><g id="link_Advertisement_VisitRequest"><path codeLine="75" d="M199.28,898.05 C190.42,916.41 181.39,935.15 172.72,953.12 " fill="none" id="Advertisement-to-VisitRequest" style="stroke:#181818;stroke-width:1.0;"/><polygon fill="#181818" points="170.53,957.67,178.0438,951.3027,172.7029,953.1669,170.8388,947.826,170.53,957.67" style="stroke:#181818;stroke-width:1.0;"/><text fill="#000000" font-family="sans-serif" font-size="20" lengthAdjust="spacing" textLength="13" x="182.4945" y="925.197">1</text><text fill="#000000" font-family="sans-serif" font-size="20" lengthAdjust="spacing" textLength="10" x="163.8016" y="945.6392">*</text></g><!--link ListBookingRequestController to Advertisement--><g id="link_ListBookingRequestController_Advertisement"><path codeLine="77" d="M355,214.14 C262.13,296.08 82,455 82,455 C82,455 82,576 82,576 C82,576 105.25,600.54 135.04,631.99 " fill="none" id="ListBookingRequestController-to-Advertisement" style="stroke:#181818;stroke-width:1.0;stroke-dasharray:7.0,7.0;"/><polygon fill="#181818" points="138.71,635.86,135.417,626.578,135.2685,632.2329,129.6136,632.0844,138.71,635.86" style="stroke:#181818;stroke-width:1.0;"/></g><!--link ListBookingRequestController to VisitRequest--><g id="link_ListBookingRequestController_VisitRequest"><path codeLine="78" d="M292.05,214.12 C221.44,242.87 145,274 145,274 C145,274 74,455 74,455 C74,455 12,636 12,636 C12,636 12,898 12,898 C12,898 27.89,922.72 47.42,953.12 " fill="none" id="ListBookingRequestController-to-VisitRequest" style="stroke:#181818;stroke-width:1.0;stroke-dasharray:7.0,7.0;"/><polygon fill="#181818" points="50.33,957.64,48.8429,947.9041,47.6327,953.4299,42.1068,952.2197,50.33,957.64" style="stroke:#181818;stroke-width:1.0;"/></g><!--link ListBookingRequestController to Employee--><g id="link_ListBookingRequestController_Employee"><path codeLine="79" d="M532.59,214.12 C607.22,242.87 688,274 688,274 C688,274 876,455 876,455 C876,455 876,576 876,576 C876,576 836.3,683.75 816.7,736.96 " fill="none" id="ListBookingRequestController-to-Employee" style="stroke:#181818;stroke-width:1.0;stroke-dasharray:7.0,7.0;"/><polygon fill="#181818" points="814.87,741.94,821.7307,734.8739,816.5959,737.2473,814.2224,732.1125,814.87,741.94" style="stroke:#181818;stroke-width:1.0;"/></g><!--link ListBookingRequestController to Database--><g id="link_ListBookingRequestController_Database"><path codeLine="81" d="M584.05,202.07 C738.08,233.37 938,274 938,274 C938,274 961.54,283.73 989.59,295.32 " fill="none" id="ListBookingRequestController-to-Database" style="stroke:#181818;stroke-width:1.0;"/><polygon fill="#181818" points="994.5,297.35,987.7198,290.2066,989.8817,295.434,984.6542,297.5959,994.5,297.35" style="stroke:#181818;stroke-width:1.0;"/></g><!--SRC=[bLDDZzCm4BtxLrXxQe6i5iueKdSfKYLWqHQukyaqjUhOmUCi2XN_dR6tSPsc7t1fEdvltimypU1MwaPOKIjJRA7a9Qn5gzn7ezrI_WR-xevXJ-6DABQYWgNh570BXHEwKf0GS2DAyqlgYg-5mXHHKiEthW7U6DNvWB44BPH0d3bdvQfri2YC3iNl60i8_oJHtHj3_Ee9VhQ0xljYz-Sy-a3jMwCKs1rxNO6RLQ3Th7m6woH2JG5Ee1PIJGFyGw9q-zI98hKtl5mwOVrthiifYwMUe374DLO2laWlD98D1KnUf0P58hlRe_EwKQO3601H_4pkZcL-mlS3E1-oFM4qYdyyESuLIs93utRxNdeaZvpOGVzmtyszt4ZqWt1Y9H38FWHT9gJFM0NUAJkey9BMWpQh50uUrmEGPVk9QId3bsKFfgubeZIQ5_4losRMYYvCyBMrnORQUBGbs9mtQHXcIRYfgJb_Fh8uTaQBu5hqeR504VsoavQCjsumpYHKw6UPieDtQSh14IrgY46pCHg-jFKAx95b8Jc-ELd3KXaN5cFqIciItsf0fAi_7fEQMcW7TYqAY5kmyy-dhfNVtkON3vLT0aDsUdlNsMUEYR5KXcTPVlFsvYpv57Ty5BInPmGu9VYqLqSbs5WaeVRWaQndy3qbNGJsdsPSe_k4WVu_y0yjNoHJz_7-_m80]--></g></svg>