<?xml version="1.0" encoding="UTF-8" standalone="no"?><svg xmlns="http://www.w3.org/2000/svg" xmlns:xlink="http://www.w3.org/1999/xlink" contentStyleType="text/css" height="534px" preserveAspectRatio="none" style="width:1043px;height:534px;background:#FFFFFF;" version="1.1" viewBox="0 0 1043 534" width="1043px" zoomAndPan="magnify"><defs/><g><text fill="#000000" font-family="sans-serif" font-size="14" font-weight="bold" lengthAdjust="spacing" textLength="300" x="370.5" y="28.5352">System Sequence Diagram (SSD) - US 010</text><rect fill="#FFFFFF" height="301.4375" style="stroke:#181818;stroke-width:1.0;" width="10" x="31" y="136.043"/><rect fill="#FFFFFF" height="37.5547" style="stroke:#181818;stroke-width:1.0;" width="10" x="988" y="165.5977"/><rect fill="#FFFFFF" height="37.5547" style="stroke:#181818;stroke-width:1.0;" width="10" x="988" y="240.707"/><rect fill="#FFFFFF" height="37.5547" style="stroke:#181818;stroke-width:1.0;" width="10" x="988" y="315.8164"/><rect fill="#FFFFFF" height="37.5547" style="stroke:#181818;stroke-width:1.0;" width="10" x="988" y="390.9258"/><line style="stroke:#181818;stroke-width:0.5;stroke-dasharray:5.0,5.0;" x1="36" x2="36" y1="126.043" y2="446.4805"/><line style="stroke:#181818;stroke-width:0.5;stroke-dasharray:5.0,5.0;" x1="993" x2="993" y1="126.043" y2="446.4805"/><text fill="#000000" font-family="sans-serif" font-size="20" lengthAdjust="spacing" textLength="56" x="5" y="121.8242">Client</text><ellipse cx="36" cy="50.9883" fill="#E3E3E3" rx="8" ry="8" style="stroke:#181818;stroke-width:0.5;"/><path d="M36,58.9883 L36,85.9883 M23,66.9883 L49,66.9883 M36,85.9883 L23,100.9883 M36,85.9883 L49,100.9883 " fill="none" style="stroke:#181818;stroke-width:0.5;"/><text fill="#000000" font-family="sans-serif" font-size="20" lengthAdjust="spacing" textLength="56" x="5" y="464.8164">Client</text><ellipse cx="36" cy="477.5352" fill="#E3E3E3" rx="8" ry="8" style="stroke:#181818;stroke-width:0.5;"/><path d="M36,485.5352 L36,512.5352 M23,493.5352 L49,493.5352 M36,512.5352 L23,527.5352 M36,512.5352 L49,527.5352 " fill="none" style="stroke:#181818;stroke-width:0.5;"/><rect fill="#E3E3E3" height="37.5547" rx="2.5" ry="2.5" style="stroke:#181818;stroke-width:0.5;" width="88" x="949" y="87.4883"/><text fill="#000000" font-family="sans-serif" font-size="20" lengthAdjust="spacing" textLength="74" x="956" y="113.8242">:System</text><rect fill="#E3E3E3" height="37.5547" rx="2.5" ry="2.5" style="stroke:#181818;stroke-width:0.5;" width="88" x="949" y="445.4805"/><text fill="#000000" font-family="sans-serif" font-size="20" lengthAdjust="spacing" textLength="74" x="956" y="471.8164">:System</text><rect fill="#FFFFFF" height="301.4375" style="stroke:#181818;stroke-width:1.0;" width="10" x="31" y="136.043"/><rect fill="#FFFFFF" height="37.5547" style="stroke:#181818;stroke-width:1.0;" width="10" x="988" y="165.5977"/><rect fill="#FFFFFF" height="37.5547" style="stroke:#181818;stroke-width:1.0;" width="10" x="988" y="240.707"/><rect fill="#FFFFFF" height="37.5547" style="stroke:#181818;stroke-width:1.0;" width="10" x="988" y="315.8164"/><rect fill="#FFFFFF" height="37.5547" style="stroke:#181818;stroke-width:1.0;" width="10" x="988" y="390.9258"/><polygon fill="#181818" points="976,161.5977,986,165.5977,976,169.5977,980,165.5977" style="stroke:#181818;stroke-width:1.0;"/><line style="stroke:#181818;stroke-width:1.0;" x1="41" x2="982" y1="165.5977" y2="165.5977"/><text fill="#000000" font-family="sans-serif" font-size="20" font-weight="bold" lengthAdjust="spacing" textLength="13" x="48" y="159.3789">1</text><text fill="#000000" font-family="sans-serif" font-size="20" lengthAdjust="spacing" textLength="246" x="65" y="159.3789">asks to show property list</text><polygon fill="#181818" points="52,199.1523,42,203.1523,52,207.1523,48,203.1523" style="stroke:#181818;stroke-width:1.0;"/><line style="stroke:#181818;stroke-width:1.0;stroke-dasharray:2.0,2.0;" x1="46" x2="992" y1="203.1523" y2="203.1523"/><text fill="#000000" font-family="sans-serif" font-size="20" font-weight="bold" lengthAdjust="spacing" textLength="13" x="58" y="196.9336">2</text><text fill="#000000" font-family="sans-serif" font-size="20" lengthAdjust="spacing" textLength="713" x="75" y="196.9336">shows list of properties and request's selected data (one of the properties)</text><polygon fill="#181818" points="976,236.707,986,240.707,976,244.707,980,240.707" style="stroke:#181818;stroke-width:1.0;"/><line style="stroke:#181818;stroke-width:1.0;" x1="41" x2="982" y1="240.707" y2="240.707"/><text fill="#000000" font-family="sans-serif" font-size="20" font-weight="bold" lengthAdjust="spacing" textLength="13" x="48" y="234.4883">3</text><text fill="#000000" font-family="sans-serif" font-size="20" lengthAdjust="spacing" textLength="194" x="65" y="234.4883">selects one property</text><polygon fill="#181818" points="52,274.2617,42,278.2617,52,282.2617,48,278.2617" style="stroke:#181818;stroke-width:1.0;"/><line style="stroke:#181818;stroke-width:1.0;stroke-dasharray:2.0,2.0;" x1="46" x2="992" y1="278.2617" y2="278.2617"/><text fill="#000000" font-family="sans-serif" font-size="20" font-weight="bold" lengthAdjust="spacing" textLength="13" x="58" y="272.043">4</text><text fill="#000000" font-family="sans-serif" font-size="20" lengthAdjust="spacing" textLength="906" x="75" y="272.043">shows info and a menu about the property chosen and asks for an option(Buy Property Option)</text><polygon fill="#181818" points="976,311.8164,986,315.8164,976,319.8164,980,315.8164" style="stroke:#181818;stroke-width:1.0;"/><line style="stroke:#181818;stroke-width:1.0;" x1="41" x2="982" y1="315.8164" y2="315.8164"/><text fill="#000000" font-family="sans-serif" font-size="20" font-weight="bold" lengthAdjust="spacing" textLength="13" x="48" y="309.5977">5</text><text fill="#000000" font-family="sans-serif" font-size="20" lengthAdjust="spacing" textLength="263" x="65" y="309.5977">selects Buy Property Option</text><polygon fill="#181818" points="52,349.3711,42,353.3711,52,357.3711,48,353.3711" style="stroke:#181818;stroke-width:1.0;"/><line style="stroke:#181818;stroke-width:1.0;stroke-dasharray:2.0,2.0;" x1="46" x2="992" y1="353.3711" y2="353.3711"/><text fill="#000000" font-family="sans-serif" font-size="20" font-weight="bold" lengthAdjust="spacing" textLength="13" x="58" y="347.1523">6</text><text fill="#000000" font-family="sans-serif" font-size="20" lengthAdjust="spacing" textLength="242" x="75" y="347.1523">asks for an order amount</text><polygon fill="#181818" points="976,386.9258,986,390.9258,976,394.9258,980,390.9258" style="stroke:#181818;stroke-width:1.0;"/><line style="stroke:#181818;stroke-width:1.0;" x1="41" x2="982" y1="390.9258" y2="390.9258"/><text fill="#000000" font-family="sans-serif" font-size="20" font-weight="bold" lengthAdjust="spacing" textLength="13" x="48" y="384.707">7</text><text fill="#000000" font-family="sans-serif" font-size="20" lengthAdjust="spacing" textLength="509" x="65" y="384.707">inputs order amount and submits the purchase order</text><polygon fill="#181818" points="52,424.4805,42,428.4805,52,432.4805,48,428.4805" style="stroke:#181818;stroke-width:1.0;"/><line style="stroke:#181818;stroke-width:1.0;stroke-dasharray:2.0,2.0;" x1="46" x2="992" y1="428.4805" y2="428.4805"/><text fill="#000000" font-family="sans-serif" font-size="20" font-weight="bold" lengthAdjust="spacing" textLength="13" x="58" y="422.2617">8</text><text fill="#000000" font-family="sans-serif" font-size="20" lengthAdjust="spacing" textLength="236" x="75" y="422.2617">shows operation success</text><!--SRC=[dPAnJiD038RtF8NLXJ9KAemT6A1Y1IdY0ToBqvoQsE7i0uMdvt9fK92wj3TPkT-V_zyNFNdkCM3NYZjH1HNL65jx5RRI_n0yRWkT9T09Ysk2T0GM8YrkUdGdF59fGqiGo1doiLqAjC5AlZqVeSPMgIZCMvAMWnfrKD9d97O4Uu_7KRuko_qzRE2ZXEt3jYWmcd3i3XHIxKm2h5vQJsmhG8MfBD8ayyxto0QhtOJEzrEPE_qN6iqD1QGprR1vcitiKij9mIIPbc_eW_GKR83Mg-MEFypCXVCv0pQ9TQRkCaDpBqWzmpmf85TfKoctsfs2KfksDZu06i9Qc4QvDRHekS-3Aheu_qACYQammkOKjmRmN4ksZD0HHy23H5lw6y0reiIJQ5nWdLu96QGtBxn-ZWEypzAt_EtMF1TGryVwPp5Kb8fE8jkLdjB_7SSLBmXv0neFdKyNUKCnk0QL9jMjBp3cnJ5hOZj7gfUT_W80]--></g></svg>