<?xml version="1.0" encoding="UTF-8" standalone="no"?><svg xmlns="http://www.w3.org/2000/svg" xmlns:xlink="http://www.w3.org/1999/xlink" contentStyleType="text/css" height="670px" preserveAspectRatio="none" style="width:919px;height:670px;background:#FFFFFF;" version="1.1" viewBox="0 0 919 670" width="919px" zoomAndPan="magnify"><defs/><g><!--class SystemAdministrator--><g id="elem_SystemAdministrator"><rect codeLine="21" fill="#F1F1F1" height="41.5547" id="SystemAdministrator" rx="2.5" ry="2.5" style="stroke:#181818;stroke-width:0.5;" width="207" x="705" y="389"/><text fill="#000000" font-family="sans-serif" font-size="20" lengthAdjust="spacing" textLength="201" x="708" y="413.3359">SystemAdministrator</text><line style="stroke:#181818;stroke-width:0.5;" x1="706" x2="911" y1="422.5547" y2="422.5547"/></g><!--class Store--><g id="elem_Store"><rect codeLine="14" fill="#F1F1F1" height="112.2188" id="Store" rx="2.5" ry="2.5" style="stroke:#181818;stroke-width:0.5;" width="185" x="452" y="551"/><text fill="#000000" font-family="sans-serif" font-size="20" lengthAdjust="spacing" textLength="49" x="520" y="575.3359">Store</text><line style="stroke:#181818;stroke-width:0.5;" x1="453" x2="636" y1="584.5547" y2="584.5547"/><text fill="#000000" font-family="sans-serif" font-size="20" lengthAdjust="spacing" textLength="112" x="458" y="607.8906">designation</text><text fill="#000000" font-family="sans-serif" font-size="20" lengthAdjust="spacing" textLength="132" x="458" y="631.4453">emailAddress</text><text fill="#000000" font-family="sans-serif" font-size="20" lengthAdjust="spacing" textLength="173" x="458" y="655">telephoneNumber</text></g><!--class Employee--><g id="elem_Employee"><rect codeLine="19" fill="#F1F1F1" height="41.5547" id="Employee" rx="2.5" ry="2.5" style="stroke:#181818;stroke-width:0.5;" width="99" x="466" y="389"/><text fill="#000000" font-family="sans-serif" font-size="20" lengthAdjust="spacing" textLength="93" x="469" y="413.3359">Employee</text><line style="stroke:#181818;stroke-width:0.5;" x1="467" x2="564" y1="422.5547" y2="422.5547"/></g><!--class Person--><g id="elem_Person"><rect codeLine="23" fill="#F1F1F1" height="112.2188" id="Person" rx="2.5" ry="2.5" style="stroke:#181818;stroke-width:0.5;" width="185" x="344" y="157"/><text fill="#000000" font-family="sans-serif" font-size="20" lengthAdjust="spacing" textLength="64" x="404.5" y="181.3359">Person</text><line style="stroke:#181818;stroke-width:0.5;" x1="345" x2="528" y1="190.5547" y2="190.5547"/><text fill="#000000" font-family="sans-serif" font-size="20" lengthAdjust="spacing" textLength="53" x="350" y="213.8906">name</text><text fill="#000000" font-family="sans-serif" font-size="20" lengthAdjust="spacing" textLength="132" x="350" y="237.4453">emailAddress</text><text fill="#000000" font-family="sans-serif" font-size="20" lengthAdjust="spacing" textLength="173" x="350" y="261">telephoneNumber</text></g><!--class Role--><g id="elem_Role"><rect codeLine="29" fill="#F1F1F1" height="65.1094" id="Role" rx="2.5" ry="2.5" style="stroke:#181818;stroke-width:0.5;" width="124" x="646.5" y="180.5"/><text fill="#000000" font-family="sans-serif" font-size="20" lengthAdjust="spacing" textLength="42" x="687.5" y="204.8359">Role</text><line style="stroke:#181818;stroke-width:0.5;" x1="647.5" x2="769.5" y1="214.0547" y2="214.0547"/><text fill="#000000" font-family="sans-serif" font-size="20" lengthAdjust="spacing" textLength="112" x="652.5" y="237.3906">designation</text></g><!--class SocialSecurityCard--><g id="elem_SocialSecurityCard"><rect codeLine="33" fill="#F1F1F1" height="65.1094" id="SocialSecurityCard" rx="2.5" ry="2.5" style="stroke:#181818;stroke-width:0.5;" width="183" x="7" y="180.5"/><text fill="#000000" font-family="sans-serif" font-size="20" lengthAdjust="spacing" textLength="177" x="10" y="204.8359">SocialSecurityCard</text><line style="stroke:#181818;stroke-width:0.5;" x1="8" x2="189" y1="214.0547" y2="214.0547"/><text fill="#000000" font-family="sans-serif" font-size="20" lengthAdjust="spacing" textLength="108" x="13" y="237.3906">taxNumber</text></g><!--class Passport--><g id="elem_Passport"><rect codeLine="37" fill="#F1F1F1" height="65.1094" id="Passport" rx="2.5" ry="2.5" style="stroke:#181818;stroke-width:0.5;" width="88" x="392.5" y="7"/><text fill="#000000" font-family="sans-serif" font-size="20" lengthAdjust="spacing" textLength="82" x="395.5" y="31.3359">Passport</text><line style="stroke:#181818;stroke-width:0.5;" x1="393.5" x2="479.5" y1="40.5547" y2="40.5547"/><text fill="#000000" font-family="sans-serif" font-size="20" lengthAdjust="spacing" textLength="75" x="398.5" y="63.8906">number</text></g><!--class Address--><g id="elem_Address"><rect codeLine="41" fill="#F1F1F1" height="112.2188" id="Address" rx="2.5" ry="2.5" style="stroke:#181818;stroke-width:0.5;" width="85" x="346" y="354"/><text fill="#000000" font-family="sans-serif" font-size="20" lengthAdjust="spacing" textLength="79" x="349" y="378.3359">Address</text><line style="stroke:#181818;stroke-width:0.5;" x1="347" x2="430" y1="387.5547" y2="387.5547"/><text fill="#000000" font-family="sans-serif" font-size="20" lengthAdjust="spacing" textLength="46" x="352" y="410.8906">state</text><text fill="#000000" font-family="sans-serif" font-size="20" lengthAdjust="spacing" textLength="67" x="352" y="434.4453">district</text><text fill="#000000" font-family="sans-serif" font-size="20" lengthAdjust="spacing" textLength="33" x="352" y="458">city</text></g><!--link Employee to Store--><g id="link_Employee_Store"><path codeLine="47" d="M518.49,431.13 C522.66,459.16 530.37,510.98 536.32,550.97 " fill="none" id="Employee-Store" style="stroke:#181818;stroke-width:1.0;"/><polygon fill="#000000" points="540.6773,516.6902,543.1986,501.6837,533.8965,503.0677,540.6773,516.6902" style="stroke:#000000;stroke-width:1.0;"/><text fill="#000000" font-family="sans-serif" font-size="20" lengthAdjust="spacing" textLength="110" x="552.5" y="516.3359">assigned to</text><text fill="#000000" font-family="sans-serif" font-size="20" lengthAdjust="spacing" textLength="10" x="508.0503" y="457.7131">*</text><text fill="#000000" font-family="sans-serif" font-size="20" lengthAdjust="spacing" textLength="13" x="521.4391" y="538.6752">1</text></g><!--link Employee to SystemAdministrator--><g id="link_Employee_SystemAdministrator"><path codeLine="48" d="M565.2,410 C603.41,410 657.51,410 705,410 " fill="none" id="Employee-SystemAdministrator" style="stroke:#181818;stroke-width:1.0;"/><polygon fill="#000000" points="582.5,394.7773,596.9721,399.4796,596.9721,390.0751,582.5,394.7773" style="stroke:#000000;stroke-width:1.0;"/><text fill="#000000" font-family="sans-serif" font-size="20" lengthAdjust="spacing" textLength="83" x="603.5" y="402.3359">registers</text><text fill="#000000" font-family="sans-serif" font-size="20" lengthAdjust="spacing" textLength="10" x="572.8922" y="404.7891">*</text><text fill="#000000" font-family="sans-serif" font-size="20" lengthAdjust="spacing" textLength="13" x="683.9219" y="405.5281">1</text></g><!--link Address to Store--><g id="link_Address_Store"><path codeLine="49" d="M386.65,466.1 C388.35,484.79 392.96,504.98 403.5,521 C415.6,539.39 433.17,554.4 451.84,566.41 " fill="none" id="Address-Store" style="stroke:#181818;stroke-width:1.0;"/><polygon fill="#000000" points="407.1406,502.0694,411.084,516.7665,418.9696,511.6418,407.1406,502.0694" style="stroke:#000000;stroke-width:1.0;"/><text fill="#000000" font-family="sans-serif" font-size="20" lengthAdjust="spacing" textLength="94" x="424.5" y="516.3359">located at</text><text fill="#000000" font-family="sans-serif" font-size="20" lengthAdjust="spacing" textLength="13" x="372.6323" y="493.6952">1</text><text fill="#000000" font-family="sans-serif" font-size="20" lengthAdjust="spacing" textLength="13" x="430.9382" y="558.6084">1</text></g><!--link Role to Employee--><g id="link_Role_Employee"><path codeLine="50" d="M677.06,245.76 C637.01,286.23 568.96,354.99 535.41,388.89 " fill="none" id="Role-Employee" style="stroke:#181818;stroke-width:1.0;"/><polygon fill="#000000" points="625.8726,317.4635,639.3949,310.4848,632.7104,303.8694,625.8726,317.4635" style="stroke:#000000;stroke-width:1.0;"/><text fill="#000000" font-family="sans-serif" font-size="20" lengthAdjust="spacing" textLength="70" x="644.5" y="319.3359">defines</text><text fill="#000000" font-family="sans-serif" font-size="20" lengthAdjust="spacing" textLength="13" x="657.3019" y="273.0194">1</text><text fill="#000000" font-family="sans-serif" font-size="20" lengthAdjust="spacing" textLength="10" x="529.4171" y="376.5964">*</text></g><!--reverse link Role to SystemAdministrator--><g id="link_Role_SystemAdministrator"><path codeLine="51" d="M734.03,263.79 C754.85,304.38 783.18,359.62 798.18,388.89 " fill="none" id="Role-backto-SystemAdministrator" style="stroke:#181818;stroke-width:1.0;"/><polygon fill="none" points="727.69,266.75,724.79,245.76,740.14,260.37,727.69,266.75" style="stroke:#181818;stroke-width:1.0;"/></g><!--link Passport to Person--><g id="link_Passport_Person"><path codeLine="52" d="M436.5,72.36 C436.5,95.99 436.5,128.81 436.5,156.7 " fill="none" id="Passport-Person" style="stroke:#181818;stroke-width:1.0;"/><polygon fill="#000000" points="444.5,106.7773,439.7977,121.2495,449.2023,121.2495,444.5,106.7773" style="stroke:#000000;stroke-width:1.0;"/><text fill="#000000" font-family="sans-serif" font-size="20" lengthAdjust="spacing" textLength="97" x="457.5" y="122.3359">possesses</text><text fill="#000000" font-family="sans-serif" font-size="20" lengthAdjust="spacing" textLength="13" x="422.3828" y="99.3586">1</text><text fill="#000000" font-family="sans-serif" font-size="20" lengthAdjust="spacing" textLength="13" x="422.7078" y="144.7933">1</text></g><!--link Person to Address--><g id="link_Person_Address"><path codeLine="53" d="M407.02,269.14 C402.85,278.87 399.1,289.06 396.5,299 C391.91,316.5 389.62,336.07 388.56,353.8 " fill="none" id="Person-Address" style="stroke:#181818;stroke-width:1.0;"/><polygon fill="#000000" points="402.7957,319.5937,410.4732,306.4556,401.2845,304.452,402.7957,319.5937" style="stroke:#000000;stroke-width:1.0;"/><text fill="#000000" font-family="sans-serif" font-size="20" lengthAdjust="spacing" textLength="67" x="417.5" y="319.3359">lives at</text><text fill="#000000" font-family="sans-serif" font-size="20" lengthAdjust="spacing" textLength="10" x="392.8178" y="296.74">*</text><text fill="#000000" font-family="sans-serif" font-size="20" lengthAdjust="spacing" textLength="13" x="374.7751" y="341.9055">1</text></g><!--link SocialSecurityCard to Person--><g id="link_SocialSecurityCard_Person"><path codeLine="54" d="M190.41,213 C238.01,213 296,213 343.72,213 " fill="none" id="SocialSecurityCard-Person" style="stroke:#181818;stroke-width:1.0;"/><polygon fill="#000000" points="207.5,197.7773,221.9721,202.4796,221.9721,193.0751,207.5,197.7773" style="stroke:#000000;stroke-width:1.0;"/><text fill="#000000" font-family="sans-serif" font-size="20" lengthAdjust="spacing" textLength="97" x="228.5" y="205.3359">possesses</text><text fill="#000000" font-family="sans-serif" font-size="20" lengthAdjust="spacing" textLength="13" x="197.9445" y="208.4725">1</text><text fill="#000000" font-family="sans-serif" font-size="20" lengthAdjust="spacing" textLength="13" x="323.1189" y="208.4683">1</text></g><!--reverse link Person to Employee--><g id="link_Person_Employee"><path codeLine="55" d="M484.18,287.3 C486.09,291.2 487.88,295.11 489.5,299 C502.03,329.07 509.24,366.39 512.76,388.92 " fill="none" id="Person-backto-Employee" style="stroke:#181818;stroke-width:1.0;"/><polygon fill="none" points="477.82,290.24,474.53,269.31,490.16,283.63,477.82,290.24" style="stroke:#181818;stroke-width:1.0;"/></g><!--link SystemAdministrator to Store--><g id="link_SystemAdministrator_Store"><path codeLine="56" d="M784.74,431.12 C757.81,453.68 712.32,491.04 671.5,521 C658.03,530.89 643.49,541.06 629.24,550.77 " fill="none" id="SystemAdministrator-Store" style="stroke:#181818;stroke-width:1.0;"/><polygon fill="#000000" points="703.1597,513.6559,717.497,508.5572,711.7619,501.1038,703.1597,513.6559" style="stroke:#000000;stroke-width:1.0;"/><text fill="#000000" font-family="sans-serif" font-size="20" lengthAdjust="spacing" textLength="83" x="722.5" y="516.3359">registers</text><text fill="#000000" font-family="sans-serif" font-size="20" lengthAdjust="spacing" textLength="13" x="765.1206" y="457.7009">1</text><text fill="#000000" font-family="sans-serif" font-size="20" lengthAdjust="spacing" textLength="10" x="628.9583" y="538.8718">*</text></g><!--SRC=[XLBHQkCm47pVhn1-30JQUmmb44eBVIdXyWLRQMkBI5eZhTlBvVhljtRinAJX3eonjBCpi-CjUvzQp1W3spqvu-WTko3Fd6JdVvFvSGTbWfZ8YMsJEPAHtD6iqgBTOqqxEGGocQnWgiCSK1fq_EbJRTun589PoGOiPIEI_Lidz68v3Sft08rtPApFLgc6xqZIi2i0Gu_P7OfGtBZeao-IKJYR8y3NkQuNf3UEYgyJYkS45D67ZNEPIW6XG6t3YLwx-4PPEq-DJx4DV23j_VgdrhcwfLmu7I5XfFz9Z2q_ELnxkuYnzHXsPBlivV28sIbIyDSrnrPVBMVHQhegZVf7A892u7hJtWfO9UnHquZLeZ9BKzrNGrWhextgHpT1sAnleBx7iD8VNkj18p0FCEegr2pdlBfVwiCP50Nriq-8HJM9hFhjyucA2W_fFFnHm0r5ECKzC7Jje38biJ8jbqBzeomZRZ5v6Ssf6_-X0FModdE5a-5luTyYxStbvNbJu8RDouHZ1fUSrW1_0G00]--></g></svg>