<?xml version="1.0" encoding="UTF-8" standalone="no"?><svg xmlns="http://www.w3.org/2000/svg" xmlns:xlink="http://www.w3.org/1999/xlink" contentStyleType="text/css" height="680px" preserveAspectRatio="none" style="width:1119px;height:680px;background:#FFFFFF;" version="1.1" viewBox="0 0 1119 680" width="1119px" zoomAndPan="magnify"><defs/><g><text fill="#000000" font-family="sans-serif" font-size="14" font-weight="bold" lengthAdjust="spacing" textLength="231" x="443" y="28.5352">System Sequence Diagram (SSD)</text><rect fill="#FFFFFF" height="447.2109" style="stroke:#181818;stroke-width:1.0;" width="10" x="31" y="136.043"/><rect fill="#FFFFFF" height="61.1094" style="stroke:#181818;stroke-width:1.0;" width="10" x="1064" y="165.5977"/><rect fill="#FFFFFF" height="61.1094" style="stroke:#181818;stroke-width:1.0;" width="10" x="1064" y="264.2617"/><rect fill="#FFFFFF" height="61.1094" style="stroke:#181818;stroke-width:1.0;" width="10" x="1064" y="362.9258"/><rect fill="#FFFFFF" height="37.5547" style="stroke:#181818;stroke-width:1.0;" width="10" x="1064" y="461.5898"/><rect fill="#FFFFFF" height="37.5547" style="stroke:#181818;stroke-width:1.0;" width="10" x="1064" y="536.6992"/><line style="stroke:#181818;stroke-width:0.5;stroke-dasharray:5.0,5.0;" x1="36" x2="36" y1="126.043" y2="592.2539"/><line style="stroke:#181818;stroke-width:0.5;stroke-dasharray:5.0,5.0;" x1="1069" x2="1069" y1="126.043" y2="592.2539"/><text fill="#000000" font-family="sans-serif" font-size="20" lengthAdjust="spacing" textLength="56" x="5" y="121.8242">Agent</text><ellipse cx="36" cy="50.9883" fill="#E3E3E3" rx="8" ry="8" style="stroke:#181818;stroke-width:0.5;"/><path d="M36,58.9883 L36,85.9883 M23,66.9883 L49,66.9883 M36,85.9883 L23,100.9883 M36,85.9883 L49,100.9883 " fill="none" style="stroke:#181818;stroke-width:0.5;"/><text fill="#000000" font-family="sans-serif" font-size="20" lengthAdjust="spacing" textLength="56" x="5" y="610.5898">Agent</text><ellipse cx="36" cy="623.3086" fill="#E3E3E3" rx="8" ry="8" style="stroke:#181818;stroke-width:0.5;"/><path d="M36,631.3086 L36,658.3086 M23,639.3086 L49,639.3086 M36,658.3086 L23,673.3086 M36,658.3086 L49,673.3086 " fill="none" style="stroke:#181818;stroke-width:0.5;"/><rect fill="#E3E3E3" height="37.5547" rx="2.5" ry="2.5" style="stroke:#181818;stroke-width:0.5;" width="88" x="1025" y="87.4883"/><text fill="#000000" font-family="sans-serif" font-size="20" lengthAdjust="spacing" textLength="74" x="1032" y="113.8242">:System</text><rect fill="#E3E3E3" height="37.5547" rx="2.5" ry="2.5" style="stroke:#181818;stroke-width:0.5;" width="88" x="1025" y="591.2539"/><text fill="#000000" font-family="sans-serif" font-size="20" lengthAdjust="spacing" textLength="74" x="1032" y="617.5898">:System</text><rect fill="#FFFFFF" height="447.2109" style="stroke:#181818;stroke-width:1.0;" width="10" x="31" y="136.043"/><rect fill="#FFFFFF" height="61.1094" style="stroke:#181818;stroke-width:1.0;" width="10" x="1064" y="165.5977"/><rect fill="#FFFFFF" height="61.1094" style="stroke:#181818;stroke-width:1.0;" width="10" x="1064" y="264.2617"/><rect fill="#FFFFFF" height="61.1094" style="stroke:#181818;stroke-width:1.0;" width="10" x="1064" y="362.9258"/><rect fill="#FFFFFF" height="37.5547" style="stroke:#181818;stroke-width:1.0;" width="10" x="1064" y="461.5898"/><rect fill="#FFFFFF" height="37.5547" style="stroke:#181818;stroke-width:1.0;" width="10" x="1064" y="536.6992"/><polygon fill="#181818" points="1052,161.5977,1062,165.5977,1052,169.5977,1056,165.5977" style="stroke:#181818;stroke-width:1.0;"/><line style="stroke:#181818;stroke-width:1.0;" x1="41" x2="1058" y1="165.5977" y2="165.5977"/><text fill="#000000" font-family="sans-serif" font-size="20" font-weight="bold" lengthAdjust="spacing" textLength="13" x="48" y="159.3789">1</text><text fill="#000000" font-family="sans-serif" font-size="20" lengthAdjust="spacing" textLength="426" x="65" y="159.3789">Asks to create a new property advertisement</text><polygon fill="#181818" points="52,222.707,42,226.707,52,230.707,48,226.707" style="stroke:#181818;stroke-width:1.0;"/><line style="stroke:#181818;stroke-width:1.0;stroke-dasharray:2.0,2.0;" x1="46" x2="1068" y1="226.707" y2="226.707"/><text fill="#000000" font-family="sans-serif" font-size="20" font-weight="bold" lengthAdjust="spacing" textLength="13" x="58" y="208.7109">2</text><text fill="#000000" font-family="sans-serif" font-size="20" lengthAdjust="spacing" textLength="634" x="75" y="196.9336">Shows property category list(land, apartment, house), commission</text><text fill="#000000" font-family="sans-serif" font-size="20" lengthAdjust="spacing" textLength="825" x="81" y="220.4883">type(percentage/fixed value) and advertisement type(sale/rent) and asks to select one</text><polygon fill="#181818" points="1052,260.2617,1062,264.2617,1052,268.2617,1056,264.2617" style="stroke:#181818;stroke-width:1.0;"/><line style="stroke:#181818;stroke-width:1.0;" x1="41" x2="1058" y1="264.2617" y2="264.2617"/><text fill="#000000" font-family="sans-serif" font-size="20" font-weight="bold" lengthAdjust="spacing" textLength="13" x="48" y="258.043">3</text><text fill="#000000" font-family="sans-serif" font-size="20" lengthAdjust="spacing" textLength="202" x="65" y="258.043">Selects data required</text><polygon fill="#181818" points="52,321.3711,42,325.3711,52,329.3711,48,325.3711" style="stroke:#181818;stroke-width:1.0;"/><line style="stroke:#181818;stroke-width:1.0;stroke-dasharray:2.0,2.0;" x1="46" x2="1068" y1="325.3711" y2="325.3711"/><text fill="#000000" font-family="sans-serif" font-size="20" font-weight="bold" lengthAdjust="spacing" textLength="13" x="58" y="307.375">4</text><text fill="#000000" font-family="sans-serif" font-size="20" lengthAdjust="spacing" textLength="668" x="75" y="295.5977">Requests data(commission amount, price, location, distance from city</text><text fill="#000000" font-family="sans-serif" font-size="20" lengthAdjust="spacing" textLength="321" x="75" y="319.1523">center, area and photos location).</text><polygon fill="#181818" points="1052,358.9258,1062,362.9258,1052,366.9258,1056,362.9258" style="stroke:#181818;stroke-width:1.0;"/><line style="stroke:#181818;stroke-width:1.0;" x1="41" x2="1058" y1="362.9258" y2="362.9258"/><text fill="#000000" font-family="sans-serif" font-size="20" font-weight="bold" lengthAdjust="spacing" textLength="13" x="48" y="356.707">5</text><text fill="#000000" font-family="sans-serif" font-size="20" lengthAdjust="spacing" textLength="207" x="65" y="356.707">Types requested data</text><polygon fill="#181818" points="52,420.0352,42,424.0352,52,428.0352,48,424.0352" style="stroke:#181818;stroke-width:1.0;"/><line style="stroke:#181818;stroke-width:1.0;stroke-dasharray:2.0,2.0;" x1="46" x2="1068" y1="424.0352" y2="424.0352"/><text fill="#000000" font-family="sans-serif" font-size="20" font-weight="bold" lengthAdjust="spacing" textLength="13" x="58" y="406.0391">6</text><text fill="#000000" font-family="sans-serif" font-size="20" lengthAdjust="spacing" textLength="880" x="75" y="394.2617">Asks user to type remaining data if applicable(number of bedrooms, number of bathrooms,</text><text fill="#000000" font-family="sans-serif" font-size="20" lengthAdjust="spacing" textLength="702" x="75" y="417.8164">number of parking spaces and description of other available equipment).</text><polygon fill="#181818" points="1052,457.5898,1062,461.5898,1052,465.5898,1056,461.5898" style="stroke:#181818;stroke-width:1.0;"/><line style="stroke:#181818;stroke-width:1.0;" x1="41" x2="1058" y1="461.5898" y2="461.5898"/><text fill="#000000" font-family="sans-serif" font-size="20" font-weight="bold" lengthAdjust="spacing" textLength="13" x="48" y="455.3711">7</text><text fill="#000000" font-family="sans-serif" font-size="20" lengthAdjust="spacing" textLength="126" x="65" y="455.3711">Submits data</text><polygon fill="#181818" points="52,495.1445,42,499.1445,52,503.1445,48,499.1445" style="stroke:#181818;stroke-width:1.0;"/><line style="stroke:#181818;stroke-width:1.0;stroke-dasharray:2.0,2.0;" x1="46" x2="1068" y1="499.1445" y2="499.1445"/><text fill="#000000" font-family="sans-serif" font-size="20" font-weight="bold" lengthAdjust="spacing" textLength="13" x="58" y="492.9258">8</text><text fill="#000000" font-family="sans-serif" font-size="20" lengthAdjust="spacing" textLength="982" x="75" y="492.9258">Asks user to type remaining data if applicable(existence of loft, existence of basement, sun exposure).</text><polygon fill="#181818" points="1052,532.6992,1062,536.6992,1052,540.6992,1056,536.6992" style="stroke:#181818;stroke-width:1.0;"/><line style="stroke:#181818;stroke-width:1.0;" x1="41" x2="1058" y1="536.6992" y2="536.6992"/><text fill="#000000" font-family="sans-serif" font-size="20" font-weight="bold" lengthAdjust="spacing" textLength="13" x="48" y="530.4805">9</text><text fill="#000000" font-family="sans-serif" font-size="20" lengthAdjust="spacing" textLength="126" x="65" y="530.4805">Submits data</text><polygon fill="#181818" points="52,570.2539,42,574.2539,52,578.2539,48,574.2539" style="stroke:#181818;stroke-width:1.0;"/><line style="stroke:#181818;stroke-width:1.0;stroke-dasharray:2.0,2.0;" x1="46" x2="1068" y1="574.2539" y2="574.2539"/><text fill="#000000" font-family="sans-serif" font-size="20" font-weight="bold" lengthAdjust="spacing" textLength="26" x="58" y="568.0352">10</text><text fill="#000000" font-family="sans-serif" font-size="20" lengthAdjust="spacing" textLength="237" x="88" y="568.0352">Shows operation success</text><!--SRC=[lLEzRjim4Dxr58TCDg0qHKSF1G84VO2gevSpTP88Kpo5HzfHdxv7IeuTD8k7LejfykxZVJ-Ke_KJ1XmTcoErq5A7oSKVx6DZVnDy-rh9fGH6zco6m2D138bkJYOqH-ofYRCZ26GY-jxT5iY0BP-jxw539rHLqKOjRMQ9D493hucy8NYnsEVoJTEyRAiAKsIVnWC5NPl80HwUU_Bn0L2Wh2g5ZzRO2Ns4Xzs2LuwNPUcp9uoqrbUWNrd2u_VB_JjubgD0P321SYs2fpDCWISASGPiJ_fhXSOCaH7UKI_NmFgjY8yAljooWsRWirp1ZBRr76PmLkB6eMzhm4mZWzSmS1BQrc1u7As8PR_t4EU9Djfkj4HrVkhicvfrGfTe2uhmSSAbND3HKz2_QyNAKCYfFy2UoimjVKhbRuMQqYVGOaIr-3NPGEtTMlpCJiiAixbo11mvPVfJi8Pgq3XYrFqQMbK9SpOw3HuO6-Uzpp9GKDdKhK9k6ZYol7Tjlzp7xPVg9OMKpfPVWGvtDxKI8VKkP9Mp0meuelKvz4KqswdFaxC63uusIww1EpXG6vX7gU5c3-EmRExzTLTJSinmekzD1yxCMn8Jx9HPvmgEWvRY2QtBjq3sQSgPk5UI9Xr6k_hqhwMWD_Mul7zbuBZJ67pOEk2IwneaUJsQM5AW_yfeUSFv1PU0wI167P3F9_W3]--></g></svg>