<?xml version="1.0" encoding="us-ascii" standalone="no"?><svg xmlns="http://www.w3.org/2000/svg" xmlns:xlink="http://www.w3.org/1999/xlink" contentStyleType="text/css" height="434px" preserveAspectRatio="none" style="width:779px;height:434px;background:#FFFFFF;" version="1.1" viewBox="0 0 779 434" width="779px" zoomAndPan="magnify"><defs/><g><rect fill="#FFFFFF" height="252.3281" style="stroke:#181818;stroke-width:1.0;" width="10" x="321" y="107.8242"/><rect fill="#FFFFFF" height="31.291" style="stroke:#181818;stroke-width:1.0;" width="10" x="454" y="165.4063"/><rect fill="#FFFFFF" height="31.291" style="stroke:#181818;stroke-width:1.0;" width="10" x="561" y="227.9883"/><rect fill="#FFFFFF" height="31.291" style="stroke:#181818;stroke-width:1.0;" width="10" x="689" y="290.5703"/><rect fill="none" height="207.0371" style="stroke:#000000;stroke-width:1.5;" width="519" x="254.5" y="122.8242"/><line style="stroke:#181818;stroke-width:0.5;stroke-dasharray:5.0,5.0;" x1="325.5" x2="325.5" y1="57.2422" y2="378.1523"/><line style="stroke:#181818;stroke-width:0.5;stroke-dasharray:5.0,5.0;" x1="458.5" x2="458.5" y1="57.2422" y2="378.1523"/><line style="stroke:#181818;stroke-width:0.5;stroke-dasharray:5.0,5.0;" x1="565.5" x2="565.5" y1="57.2422" y2="378.1523"/><line style="stroke:#181818;stroke-width:0.5;stroke-dasharray:5.0,5.0;" x1="693.5" x2="693.5" y1="57.2422" y2="378.1523"/><rect fill="#E3E3E3" height="51.2422" rx="2.5" ry="2.5" style="stroke:#181818;stroke-width:0.5;" width="123" x="264.5" y="5"/><text fill="#000000" font-family="sans-serif" font-size="14" lengthAdjust="spacing" textLength="105" x="273.5" y="27.1074">manageProperty</text><text fill="#000000" font-family="sans-serif" font-size="14" lengthAdjust="spacing" textLength="109" x="271.5" y="45.7285">:ManageProperty</text><rect fill="#E3E3E3" height="51.2422" rx="2.5" ry="2.5" style="stroke:#181818;stroke-width:0.5;" width="123" x="264.5" y="377.1523"/><text fill="#000000" font-family="sans-serif" font-size="14" lengthAdjust="spacing" textLength="105" x="273.5" y="399.2598">manageProperty</text><text fill="#000000" font-family="sans-serif" font-size="14" lengthAdjust="spacing" textLength="109" x="271.5" y="417.8809">:ManageProperty</text><rect fill="#E3E3E3" height="32.6211" rx="2.5" ry="2.5" style="stroke:#181818;stroke-width:0.5;" width="97" x="410.5" y="23.6211"/><text fill="#000000" font-family="sans-serif" font-size="14" lengthAdjust="spacing" textLength="83" x="417.5" y="45.7285">:Repositories</text><rect fill="#E3E3E3" height="32.6211" rx="2.5" ry="2.5" style="stroke:#181818;stroke-width:0.5;" width="97" x="410.5" y="377.1523"/><text fill="#000000" font-family="sans-serif" font-size="14" lengthAdjust="spacing" textLength="83" x="417.5" y="399.2598">:Repositories</text><rect fill="#E3E3E3" height="51.2422" rx="2.5" ry="2.5" style="stroke:#181818;stroke-width:0.5;" width="97" x="517.5" y="5"/><text fill="#000000" font-family="sans-serif" font-size="14" lengthAdjust="spacing" textLength="74" x="529" y="27.1074">repositories</text><text fill="#000000" font-family="sans-serif" font-size="14" lengthAdjust="spacing" textLength="83" x="524.5" y="45.7285">:Repositories</text><rect fill="#E3E3E3" height="51.2422" rx="2.5" ry="2.5" style="stroke:#181818;stroke-width:0.5;" width="97" x="517.5" y="377.1523"/><text fill="#000000" font-family="sans-serif" font-size="14" lengthAdjust="spacing" textLength="74" x="529" y="399.2598">repositories</text><text fill="#000000" font-family="sans-serif" font-size="14" lengthAdjust="spacing" textLength="83" x="524.5" y="417.8809">:Repositories</text><rect fill="#E3E3E3" height="51.2422" rx="2.5" ry="2.5" style="stroke:#181818;stroke-width:0.5;" width="139" x="624.5" y="5"/><text fill="#000000" font-family="sans-serif" font-size="14" lengthAdjust="spacing" textLength="121" x="633.5" y="27.1074">propertyRepository</text><text fill="#000000" font-family="sans-serif" font-size="14" lengthAdjust="spacing" textLength="125" x="631.5" y="45.7285">:propertyRepository</text><rect fill="#E3E3E3" height="51.2422" rx="2.5" ry="2.5" style="stroke:#181818;stroke-width:0.5;" width="139" x="624.5" y="377.1523"/><text fill="#000000" font-family="sans-serif" font-size="14" lengthAdjust="spacing" textLength="121" x="633.5" y="399.2598">propertyRepository</text><text fill="#000000" font-family="sans-serif" font-size="14" lengthAdjust="spacing" textLength="125" x="631.5" y="417.8809">:propertyRepository</text><rect fill="#FFFFFF" height="252.3281" style="stroke:#181818;stroke-width:1.0;" width="10" x="321" y="107.8242"/><rect fill="#FFFFFF" height="31.291" style="stroke:#181818;stroke-width:1.0;" width="10" x="454" y="165.4063"/><rect fill="#FFFFFF" height="31.291" style="stroke:#181818;stroke-width:1.0;" width="10" x="561" y="227.9883"/><rect fill="#FFFFFF" height="31.291" style="stroke:#181818;stroke-width:1.0;" width="10" x="689" y="290.5703"/><polygon fill="#181818" points="309,103.8242,319,107.8242,309,111.8242,313,107.8242" style="stroke:#181818;stroke-width:1.0;"/><line style="stroke:#181818;stroke-width:1.0;" x1="0" x2="315" y1="107.8242" y2="107.8242"/><text fill="#000000" font-family="sans-serif" font-size="13" font-weight="bold" lengthAdjust="spacing" textLength="14" x="7" y="93.916">10</text><text fill="#000000" font-family="sans-serif" font-size="13" lengthAdjust="spacing" textLength="229" x="25" y="85.2705">getPropertiesByFilters(typeOfBusiness,</text><text fill="#000000" font-family="sans-serif" font-size="13" lengthAdjust="spacing" textLength="284" x="25" y="102.5615">typeOfProperty, numberOfRooms, sortingCriteria)</text><path d="M254.5,122.8242 L434.5,122.8242 L434.5,132.1152 L424.5,142.1152 L254.5,142.1152 L254.5,122.8242 " fill="#EEEEEE" style="stroke:#000000;stroke-width:1.5;"/><rect fill="none" height="207.0371" style="stroke:#000000;stroke-width:1.5;" width="519" x="254.5" y="122.8242"/><text fill="#000000" font-family="sans-serif" font-size="13" font-weight="bold" lengthAdjust="spacing" textLength="135" x="269.5" y="137.8525">Get List Of Properties</text><polygon fill="#181818" points="442,161.4063,452,165.4063,442,169.4063,446,165.4063" style="stroke:#181818;stroke-width:1.0;"/><line style="stroke:#181818;stroke-width:1.0;" x1="331" x2="448" y1="165.4063" y2="165.4063"/><text fill="#000000" font-family="sans-serif" font-size="13" font-weight="bold" lengthAdjust="spacing" textLength="25" x="338" y="160.1436">10.1</text><text fill="#000000" font-family="sans-serif" font-size="13" lengthAdjust="spacing" textLength="75" x="367" y="160.1436">getInstance()</text><polygon fill="#181818" points="342,192.6973,332,196.6973,342,200.6973,338,196.6973" style="stroke:#181818;stroke-width:1.0;"/><line style="stroke:#181818;stroke-width:1.0;stroke-dasharray:2.0,2.0;" x1="336" x2="458" y1="196.6973" y2="196.6973"/><text fill="#000000" font-family="sans-serif" font-size="13" font-weight="bold" lengthAdjust="spacing" textLength="25" x="348" y="191.4346">10.2</text><text fill="#000000" font-family="sans-serif" font-size="13" lengthAdjust="spacing" textLength="67" x="377" y="191.4346">repositories</text><polygon fill="#181818" points="549,223.9883,559,227.9883,549,231.9883,553,227.9883" style="stroke:#181818;stroke-width:1.0;"/><line style="stroke:#181818;stroke-width:1.0;" x1="331" x2="555" y1="227.9883" y2="227.9883"/><text fill="#000000" font-family="sans-serif" font-size="13" font-weight="bold" lengthAdjust="spacing" textLength="25" x="338" y="222.7256">10.3</text><text fill="#000000" font-family="sans-serif" font-size="13" lengthAdjust="spacing" textLength="137" x="367" y="222.7256">getPropertyRepository()</text><polygon fill="#181818" points="342,255.2793,332,259.2793,342,263.2793,338,259.2793" style="stroke:#181818;stroke-width:1.0;"/><line style="stroke:#181818;stroke-width:1.0;stroke-dasharray:2.0,2.0;" x1="336" x2="565" y1="259.2793" y2="259.2793"/><text fill="#000000" font-family="sans-serif" font-size="13" font-weight="bold" lengthAdjust="spacing" textLength="25" x="348" y="254.0166">10.4</text><text fill="#000000" font-family="sans-serif" font-size="13" lengthAdjust="spacing" textLength="109" x="377" y="254.0166">propertyRepository</text><polygon fill="#181818" points="677,286.5703,687,290.5703,677,294.5703,681,290.5703" style="stroke:#181818;stroke-width:1.0;"/><line style="stroke:#181818;stroke-width:1.0;stroke-dasharray:2.0,2.0;" x1="331" x2="683" y1="290.5703" y2="290.5703"/><text fill="#000000" font-family="sans-serif" font-size="13" font-weight="bold" lengthAdjust="spacing" textLength="25" x="338" y="285.3076">10.5</text><text fill="#000000" font-family="sans-serif" font-size="13" lengthAdjust="spacing" textLength="111" x="367" y="285.3076">getListOfProperties</text><polygon fill="#181818" points="342,317.8613,332,321.8613,342,325.8613,338,321.8613" style="stroke:#181818;stroke-width:1.0;"/><line style="stroke:#181818;stroke-width:1.0;stroke-dasharray:2.0,2.0;" x1="336" x2="693" y1="321.8613" y2="321.8613"/><text fill="#000000" font-family="sans-serif" font-size="13" font-weight="bold" lengthAdjust="spacing" textLength="25" x="348" y="316.5986">10.6</text><text fill="#000000" font-family="sans-serif" font-size="13" lengthAdjust="spacing" textLength="89" x="377" y="316.5986">listOfProperties</text><polygon fill="#181818" points="11,356.1523,1,360.1523,11,364.1523,7,360.1523" style="stroke:#181818;stroke-width:1.0;"/><line style="stroke:#181818;stroke-width:1.0;stroke-dasharray:2.0,2.0;" x1="5" x2="325" y1="360.1523" y2="360.1523"/><text fill="#000000" font-family="sans-serif" font-size="13" font-weight="bold" lengthAdjust="spacing" textLength="14" x="17" y="354.8896">11</text><text fill="#000000" font-family="sans-serif" font-size="13" lengthAdjust="spacing" textLength="89" x="35" y="354.8896">listOfProperties</text><!--SRC=[fLF1ReCm3BtdAwnUrafbMgzechHEsZIfKwjsnrvIC3Gg92W9s_Zx1ThH13BQQRuWZ9_VyxDH1yOBAcaEkU0YsakH8sXP8b7jbu961vhYHbSPWiH8KvvcTe7QqrXyCfv2GZE5XD1I2rxcEvI4tEnPZ908eNVYYn23q2nY1UKQHZdbfl5AYWAbhhOyV7CI8w0At9IB3zTO2CMqa0nLKzqcgWshLHeTBaHQ24FOQx1QFBwxYE94VMvjSFraW-wdYUq6pEu8WU2XCnI4aA8-lHaXy-gPPHgb6kkgm6KoBnNZgDGKjloO-K5EuTXucQo5o4s14gO3JvyaCtX69oxvxOpGIBCFgh7hAvX8fIWBU44D2wOqB1CuQo9DnIawyir07j-FKxroPUubml74Rj2FLfTlWyDG7tVGCpa4U_N37MFyXvo-EVLDEJksxkDgNvh37Awje-4AV2VckSrhJRZCtHtQ2EZp7JseRwkzu4khQ2Nu_gmXe8VTwqhs5pMM9R_fGHutJ_k_cpMP-o3eqlluBGwt-Xi0]--></g></svg>