<?xml version="1.0" encoding="UTF-8" standalone="no"?><svg xmlns="http://www.w3.org/2000/svg" xmlns:xlink="http://www.w3.org/1999/xlink" contentStyleType="text/css" height="1770px" preserveAspectRatio="none" style="width:2438px;height:1770px;background:#FFFFFF;" version="1.1" viewBox="0 0 2438 1770" width="2438px" zoomAndPan="magnify"><defs/><g><!--class ListPropertyUI--><g id="elem_ListPropertyUI"><rect codeLine="11" fill="#F1F1F1" height="50" id="ListPropertyUI" rx="2.5" ry="2.5" style="stroke:#181818;stroke-width:0.5;" width="168" x="734" y="7"/><ellipse cx="750" cy="24" fill="#ADD1B2" rx="12" ry="12" style="stroke:#181818;stroke-width:1.0;"/><path d="M752.8066,31.0801 Q752.123,31.4316 751.3711,31.6074 Q750.6191,31.7832 749.7891,31.7832 Q746.8398,31.7832 745.2871,29.8398 Q743.7344,27.8965 743.7344,24.2246 Q743.7344,20.543 745.2871,18.5996 Q746.8398,16.6563 749.7891,16.6563 Q750.6191,16.6563 751.3809,16.832 Q752.1426,17.0078 752.8066,17.3594 L752.8066,20.5625 Q752.0645,19.8789 751.3662,19.5615 Q750.668,19.2441 749.9258,19.2441 Q748.3438,19.2441 747.5381,20.499 Q746.7324,21.7539 746.7324,24.2246 Q746.7324,26.6855 747.5381,27.9404 Q748.3438,29.1953 749.9258,29.1953 Q750.668,29.1953 751.3662,28.8779 Q752.0645,28.5605 752.8066,27.877 Z " fill="#000000"/><text fill="#000000" font-family="sans-serif" font-size="20" lengthAdjust="spacing" textLength="134" x="765" y="31.5586">ListPropertyUI</text><line style="stroke:#181818;stroke-width:0.5;" x1="735" x2="901" y1="41" y2="41"/><line style="stroke:#181818;stroke-width:0.5;" x1="735" x2="901" y1="49" y2="49"/></g><!--class ListPropertyController--><g id="elem_ListPropertyController"><rect codeLine="13" fill="#F1F1F1" height="191.3281" id="ListPropertyController" rx="2.5" ry="2.5" style="stroke:#181818;stroke-width:0.5;" width="595" x="520.5" y="118"/><ellipse cx="708.5" cy="135" fill="#ADD1B2" rx="12" ry="12" style="stroke:#181818;stroke-width:1.0;"/><path d="M711.3066,142.0801 Q710.623,142.4316 709.8711,142.6074 Q709.1191,142.7832 708.2891,142.7832 Q705.3398,142.7832 703.7871,140.8398 Q702.2344,138.8965 702.2344,135.2246 Q702.2344,131.543 703.7871,129.5996 Q705.3398,127.6563 708.2891,127.6563 Q709.1191,127.6563 709.8809,127.832 Q710.6426,128.0078 711.3066,128.3594 L711.3066,131.5625 Q710.5645,130.8789 709.8662,130.5615 Q709.168,130.2441 708.4258,130.2441 Q706.8438,130.2441 706.0381,131.499 Q705.2324,132.7539 705.2324,135.2246 Q705.2324,137.6855 706.0381,138.9404 Q706.8438,140.1953 708.4258,140.1953 Q709.168,140.1953 709.8662,139.8779 Q710.5645,139.5605 711.3066,138.877 Z " fill="#000000"/><text fill="#000000" font-family="sans-serif" font-size="20" lengthAdjust="spacing" textLength="210" x="730.5" y="142.5586">ListPropertyController</text><line style="stroke:#181818;stroke-width:0.5;" x1="521.5" x2="1114.5" y1="152" y2="152"/><line style="stroke:#181818;stroke-width:0.5;" x1="521.5" x2="1114.5" y1="160" y2="160"/><text fill="#000000" font-family="sans-serif" font-size="20" lengthAdjust="spacing" textLength="583" x="526.5" y="183.3359">+ListPropertyController(filterRepository, propertyRepository)</text><text fill="#000000" font-family="sans-serif" font-size="20" lengthAdjust="spacing" textLength="119" x="526.5" y="206.8906">+getFilters()</text><text fill="#000000" font-family="sans-serif" font-size="20" lengthAdjust="spacing" textLength="452" x="526.5" y="230.4453">+listProperties(typeOfBusiness,typeOfProperty,</text><text fill="#000000" font-family="sans-serif" font-size="20" lengthAdjust="spacing" textLength="346" x="526.5" y="254">numberOfBedrooms,sortingCriteria)</text><text fill="#000000" font-family="sans-serif" font-size="20" lengthAdjust="spacing" textLength="437" x="526.5" y="277.5547">-getListOfPropertiesByFilters(typeOfBusiness,</text><text fill="#000000" font-family="sans-serif" font-size="20" lengthAdjust="spacing" textLength="508" x="526.5" y="301.1094">typeOfProperty, numberOfBedrooms, sortingCriteria)</text></g><!--class Repositories--><g id="elem_Repositories"><rect codeLine="20" fill="#F1F1F1" height="144.2188" id="Repositories" rx="2.5" ry="2.5" style="stroke:#181818;stroke-width:0.5;" width="288" x="763" y="646"/><ellipse cx="843" cy="663" fill="#ADD1B2" rx="12" ry="12" style="stroke:#181818;stroke-width:1.0;"/><path d="M845.8066,670.0801 Q845.123,670.4316 844.3711,670.6074 Q843.6191,670.7832 842.7891,670.7832 Q839.8398,670.7832 838.2871,668.8398 Q836.7344,666.8965 836.7344,663.2246 Q836.7344,659.543 838.2871,657.5996 Q839.8398,655.6563 842.7891,655.6563 Q843.6191,655.6563 844.3809,655.832 Q845.1426,656.0078 845.8066,656.3594 L845.8066,659.5625 Q845.0645,658.8789 844.3662,658.5615 Q843.668,658.2441 842.9258,658.2441 Q841.3438,658.2441 840.5381,659.499 Q839.7324,660.7539 839.7324,663.2246 Q839.7324,665.6855 840.5381,666.9404 Q841.3438,668.1953 842.9258,668.1953 Q843.668,668.1953 844.3662,667.8779 Q845.0645,667.5605 845.8066,666.877 Z " fill="#000000"/><text fill="#000000" font-family="sans-serif" font-size="20" lengthAdjust="spacing" textLength="119" x="865" y="670.5586">Repositories</text><line style="stroke:#181818;stroke-width:0.5;" x1="764" x2="1050" y1="680" y2="680"/><line style="stroke:#181818;stroke-width:0.5;" x1="764" x2="1050" y1="688" y2="688"/><text fill="#000000" font-family="sans-serif" font-size="20" lengthAdjust="spacing" textLength="145" x="769" y="711.3359">-Repositories()</text><text fill="#000000" font-family="sans-serif" font-size="20" lengthAdjust="spacing" textLength="276" x="769" y="734.8906">+getInstance() : Repositories</text><text fill="#000000" font-family="sans-serif" font-size="20" lengthAdjust="spacing" textLength="242" x="769" y="758.4453">+getPropertyRepository()</text><text fill="#000000" font-family="sans-serif" font-size="20" lengthAdjust="spacing" textLength="211" x="769" y="782">+getFilterRepository()</text></g><!--class SortingCriteria--><g id="elem_SortingCriteria"><rect codeLine="29" fill="#F1F1F1" height="50" id="SortingCriteria" rx="2.5" ry="2.5" style="stroke:#181818;stroke-width:0.5;" width="173" x="1621.5" y="863"/><ellipse cx="1637.5" cy="880" fill="#ADD1B2" rx="12" ry="12" style="stroke:#181818;stroke-width:1.0;"/><path d="M1640.3066,887.0801 Q1639.623,887.4316 1638.8711,887.6074 Q1638.1191,887.7832 1637.2891,887.7832 Q1634.3398,887.7832 1632.7871,885.8398 Q1631.2344,883.8965 1631.2344,880.2246 Q1631.2344,876.543 1632.7871,874.5996 Q1634.3398,872.6563 1637.2891,872.6563 Q1638.1191,872.6563 1638.8809,872.832 Q1639.6426,873.0078 1640.3066,873.3594 L1640.3066,876.5625 Q1639.5645,875.8789 1638.8662,875.5615 Q1638.168,875.2441 1637.4258,875.2441 Q1635.8438,875.2441 1635.0381,876.499 Q1634.2324,877.7539 1634.2324,880.2246 Q1634.2324,882.6855 1635.0381,883.9404 Q1635.8438,885.1953 1637.4258,885.1953 Q1638.168,885.1953 1638.8662,884.8779 Q1639.5645,884.5605 1640.3066,883.877 Z " fill="#000000"/><text fill="#000000" font-family="sans-serif" font-size="20" lengthAdjust="spacing" textLength="139" x="1652.5" y="887.5586">SortingCriteria</text><line style="stroke:#181818;stroke-width:0.5;" x1="1622.5" x2="1793.5" y1="897" y2="897"/><line style="stroke:#181818;stroke-width:0.5;" x1="1622.5" x2="1793.5" y1="905" y2="905"/></g><!--class ComparatorAscendingPrice--><g id="elem_ComparatorAscendingPrice"><rect codeLine="31" fill="#F1F1F1" height="73.5547" id="ComparatorAscendingPrice" rx="2.5" ry="2.5" style="stroke:#181818;stroke-width:0.5;" width="295" x="1728.5" y="681"/><ellipse cx="1744.5" cy="698" fill="#ADD1B2" rx="12" ry="12" style="stroke:#181818;stroke-width:1.0;"/><path d="M1747.3066,705.0801 Q1746.623,705.4316 1745.8711,705.6074 Q1745.1191,705.7832 1744.2891,705.7832 Q1741.3398,705.7832 1739.7871,703.8398 Q1738.2344,701.8965 1738.2344,698.2246 Q1738.2344,694.543 1739.7871,692.5996 Q1741.3398,690.6563 1744.2891,690.6563 Q1745.1191,690.6563 1745.8809,690.832 Q1746.6426,691.0078 1747.3066,691.3594 L1747.3066,694.5625 Q1746.5645,693.8789 1745.8662,693.5615 Q1745.168,693.2441 1744.4258,693.2441 Q1742.8438,693.2441 1742.0381,694.499 Q1741.2324,695.7539 1741.2324,698.2246 Q1741.2324,700.6855 1742.0381,701.9404 Q1742.8438,703.1953 1744.4258,703.1953 Q1745.168,703.1953 1745.8662,702.8779 Q1746.5645,702.5605 1747.3066,701.877 Z " fill="#000000"/><text fill="#000000" font-family="sans-serif" font-size="20" lengthAdjust="spacing" textLength="261" x="1759.5" y="705.5586">ComparatorAscendingPrice</text><line style="stroke:#181818;stroke-width:0.5;" x1="1729.5" x2="2022.5" y1="715" y2="715"/><line style="stroke:#181818;stroke-width:0.5;" x1="1729.5" x2="2022.5" y1="723" y2="723"/><text fill="#000000" font-family="sans-serif" font-size="20" lengthAdjust="spacing" textLength="114" x="1734.5" y="746.3359">+compare()</text></g><!--class ComparatorDescendingPrice--><g id="elem_ComparatorDescendingPrice"><rect codeLine="35" fill="#F1F1F1" height="73.5547" id="ComparatorDescendingPrice" rx="2.5" ry="2.5" style="stroke:#181818;stroke-width:0.5;" width="307" x="1386.5" y="681"/><ellipse cx="1402.5" cy="698" fill="#ADD1B2" rx="12" ry="12" style="stroke:#181818;stroke-width:1.0;"/><path d="M1405.3066,705.0801 Q1404.623,705.4316 1403.8711,705.6074 Q1403.1191,705.7832 1402.2891,705.7832 Q1399.3398,705.7832 1397.7871,703.8398 Q1396.2344,701.8965 1396.2344,698.2246 Q1396.2344,694.543 1397.7871,692.5996 Q1399.3398,690.6563 1402.2891,690.6563 Q1403.1191,690.6563 1403.8809,690.832 Q1404.6426,691.0078 1405.3066,691.3594 L1405.3066,694.5625 Q1404.5645,693.8789 1403.8662,693.5615 Q1403.168,693.2441 1402.4258,693.2441 Q1400.8438,693.2441 1400.0381,694.499 Q1399.2324,695.7539 1399.2324,698.2246 Q1399.2324,700.6855 1400.0381,701.9404 Q1400.8438,703.1953 1402.4258,703.1953 Q1403.168,703.1953 1403.8662,702.8779 Q1404.5645,702.5605 1405.3066,701.877 Z " fill="#000000"/><text fill="#000000" font-family="sans-serif" font-size="20" lengthAdjust="spacing" textLength="273" x="1417.5" y="705.5586">ComparatorDescendingPrice</text><line style="stroke:#181818;stroke-width:0.5;" x1="1387.5" x2="1692.5" y1="715" y2="715"/><line style="stroke:#181818;stroke-width:0.5;" x1="1387.5" x2="1692.5" y1="723" y2="723"/><text fill="#000000" font-family="sans-serif" font-size="20" lengthAdjust="spacing" textLength="114" x="1392.5" y="746.3359">+compare()</text></g><!--class ComparatorCityAlphabetic--><g id="elem_ComparatorCityAlphabetic"><rect codeLine="39" fill="#F1F1F1" height="73.5547" id="ComparatorCityAlphabetic" rx="2.5" ry="2.5" style="stroke:#181818;stroke-width:0.5;" width="289" x="1829.5" y="851"/><ellipse cx="1845.5" cy="868" fill="#ADD1B2" rx="12" ry="12" style="stroke:#181818;stroke-width:1.0;"/><path d="M1848.3066,875.0801 Q1847.623,875.4316 1846.8711,875.6074 Q1846.1191,875.7832 1845.2891,875.7832 Q1842.3398,875.7832 1840.7871,873.8398 Q1839.2344,871.8965 1839.2344,868.2246 Q1839.2344,864.543 1840.7871,862.5996 Q1842.3398,860.6563 1845.2891,860.6563 Q1846.1191,860.6563 1846.8809,860.832 Q1847.6426,861.0078 1848.3066,861.3594 L1848.3066,864.5625 Q1847.5645,863.8789 1846.8662,863.5615 Q1846.168,863.2441 1845.4258,863.2441 Q1843.8438,863.2441 1843.0381,864.499 Q1842.2324,865.7539 1842.2324,868.2246 Q1842.2324,870.6855 1843.0381,871.9404 Q1843.8438,873.1953 1845.4258,873.1953 Q1846.168,873.1953 1846.8662,872.8779 Q1847.5645,872.5605 1848.3066,871.877 Z " fill="#000000"/><text fill="#000000" font-family="sans-serif" font-size="20" lengthAdjust="spacing" textLength="255" x="1860.5" y="875.5586">ComparatorCityAlphabetic</text><line style="stroke:#181818;stroke-width:0.5;" x1="1830.5" x2="2117.5" y1="885" y2="885"/><line style="stroke:#181818;stroke-width:0.5;" x1="1830.5" x2="2117.5" y1="893" y2="893"/><text fill="#000000" font-family="sans-serif" font-size="20" lengthAdjust="spacing" textLength="114" x="1835.5" y="916.3359">+compare()</text></g><!--class ComparatorCityAlphabeticReverse--><g id="elem_ComparatorCityAlphabeticReverse"><rect codeLine="43" fill="#F1F1F1" height="73.5547" id="ComparatorCityAlphabeticReverse" rx="2.5" ry="2.5" style="stroke:#181818;stroke-width:0.5;" width="363" x="1709.5" y="986"/><ellipse cx="1725.5" cy="1003" fill="#ADD1B2" rx="12" ry="12" style="stroke:#181818;stroke-width:1.0;"/><path d="M1728.3066,1010.0801 Q1727.623,1010.4316 1726.8711,1010.6074 Q1726.1191,1010.7832 1725.2891,1010.7832 Q1722.3398,1010.7832 1720.7871,1008.8398 Q1719.2344,1006.8965 1719.2344,1003.2246 Q1719.2344,999.543 1720.7871,997.5996 Q1722.3398,995.6563 1725.2891,995.6563 Q1726.1191,995.6563 1726.8809,995.832 Q1727.6426,996.0078 1728.3066,996.3594 L1728.3066,999.5625 Q1727.5645,998.8789 1726.8662,998.5615 Q1726.168,998.2441 1725.4258,998.2441 Q1723.8438,998.2441 1723.0381,999.499 Q1722.2324,1000.7539 1722.2324,1003.2246 Q1722.2324,1005.6855 1723.0381,1006.9404 Q1723.8438,1008.1953 1725.4258,1008.1953 Q1726.168,1008.1953 1726.8662,1007.8779 Q1727.5645,1007.5605 1728.3066,1006.877 Z " fill="#000000"/><text fill="#000000" font-family="sans-serif" font-size="20" lengthAdjust="spacing" textLength="329" x="1740.5" y="1010.5586">ComparatorCityAlphabeticReverse</text><line style="stroke:#181818;stroke-width:0.5;" x1="1710.5" x2="2071.5" y1="1020" y2="1020"/><line style="stroke:#181818;stroke-width:0.5;" x1="1710.5" x2="2071.5" y1="1028" y2="1028"/><text fill="#000000" font-family="sans-serif" font-size="20" lengthAdjust="spacing" textLength="114" x="1715.5" y="1051.3359">+compare()</text></g><!--class ComparatorStateAlphabetic--><g id="elem_ComparatorStateAlphabetic"><rect codeLine="47" fill="#F1F1F1" height="73.5547" id="ComparatorStateAlphabetic" rx="2.5" ry="2.5" style="stroke:#181818;stroke-width:0.5;" width="299" x="1375.5" y="986"/><ellipse cx="1391.5" cy="1003" fill="#ADD1B2" rx="12" ry="12" style="stroke:#181818;stroke-width:1.0;"/><path d="M1394.3066,1010.0801 Q1393.623,1010.4316 1392.8711,1010.6074 Q1392.1191,1010.7832 1391.2891,1010.7832 Q1388.3398,1010.7832 1386.7871,1008.8398 Q1385.2344,1006.8965 1385.2344,1003.2246 Q1385.2344,999.543 1386.7871,997.5996 Q1388.3398,995.6563 1391.2891,995.6563 Q1392.1191,995.6563 1392.8809,995.832 Q1393.6426,996.0078 1394.3066,996.3594 L1394.3066,999.5625 Q1393.5645,998.8789 1392.8662,998.5615 Q1392.168,998.2441 1391.4258,998.2441 Q1389.8438,998.2441 1389.0381,999.499 Q1388.2324,1000.7539 1388.2324,1003.2246 Q1388.2324,1005.6855 1389.0381,1006.9404 Q1389.8438,1008.1953 1391.4258,1008.1953 Q1392.168,1008.1953 1392.8662,1007.8779 Q1393.5645,1007.5605 1394.3066,1006.877 Z " fill="#000000"/><text fill="#000000" font-family="sans-serif" font-size="20" lengthAdjust="spacing" textLength="265" x="1406.5" y="1010.5586">ComparatorStateAlphabetic</text><line style="stroke:#181818;stroke-width:0.5;" x1="1376.5" x2="1673.5" y1="1020" y2="1020"/><line style="stroke:#181818;stroke-width:0.5;" x1="1376.5" x2="1673.5" y1="1028" y2="1028"/><text fill="#000000" font-family="sans-serif" font-size="20" lengthAdjust="spacing" textLength="114" x="1381.5" y="1051.3359">+compare()</text></g><!--class ComparatorStateAlphabeticReverse--><g id="elem_ComparatorStateAlphabeticReverse"><rect codeLine="51" fill="#F1F1F1" height="73.5547" id="ComparatorStateAlphabeticReverse" rx="2.5" ry="2.5" style="stroke:#181818;stroke-width:0.5;" width="373" x="2058.5" y="681"/><ellipse cx="2074.5" cy="698" fill="#ADD1B2" rx="12" ry="12" style="stroke:#181818;stroke-width:1.0;"/><path d="M2077.3066,705.0801 Q2076.623,705.4316 2075.8711,705.6074 Q2075.1191,705.7832 2074.2891,705.7832 Q2071.3398,705.7832 2069.7871,703.8398 Q2068.2344,701.8965 2068.2344,698.2246 Q2068.2344,694.543 2069.7871,692.5996 Q2071.3398,690.6563 2074.2891,690.6563 Q2075.1191,690.6563 2075.8809,690.832 Q2076.6426,691.0078 2077.3066,691.3594 L2077.3066,694.5625 Q2076.5645,693.8789 2075.8662,693.5615 Q2075.168,693.2441 2074.4258,693.2441 Q2072.8438,693.2441 2072.0381,694.499 Q2071.2324,695.7539 2071.2324,698.2246 Q2071.2324,700.6855 2072.0381,701.9404 Q2072.8438,703.1953 2074.4258,703.1953 Q2075.168,703.1953 2075.8662,702.8779 Q2076.5645,702.5605 2077.3066,701.877 Z " fill="#000000"/><text fill="#000000" font-family="sans-serif" font-size="20" lengthAdjust="spacing" textLength="339" x="2089.5" y="705.5586">ComparatorStateAlphabeticReverse</text><line style="stroke:#181818;stroke-width:0.5;" x1="2059.5" x2="2430.5" y1="715" y2="715"/><line style="stroke:#181818;stroke-width:0.5;" x1="2059.5" x2="2430.5" y1="723" y2="723"/><text fill="#000000" font-family="sans-serif" font-size="20" lengthAdjust="spacing" textLength="114" x="2064.5" y="746.3359">+compare()</text></g><!--class ManageAdvertisement--><g id="elem_ManageAdvertisement"><rect codeLine="55" fill="#F1F1F1" height="191.3281" id="ManageAdvertisement" rx="2.5" ry="2.5" style="stroke:#181818;stroke-width:0.5;" width="520" x="228" y="394"/><ellipse cx="377" cy="411" fill="#ADD1B2" rx="12" ry="12" style="stroke:#181818;stroke-width:1.0;"/><path d="M379.8066,418.0801 Q379.123,418.4316 378.3711,418.6074 Q377.6191,418.7832 376.7891,418.7832 Q373.8398,418.7832 372.2871,416.8398 Q370.7344,414.8965 370.7344,411.2246 Q370.7344,407.543 372.2871,405.5996 Q373.8398,403.6563 376.7891,403.6563 Q377.6191,403.6563 378.3809,403.832 Q379.1426,404.0078 379.8066,404.3594 L379.8066,407.5625 Q379.0645,406.8789 378.3662,406.5615 Q377.668,406.2441 376.9258,406.2441 Q375.3438,406.2441 374.5381,407.499 Q373.7324,408.7539 373.7324,411.2246 Q373.7324,413.6855 374.5381,414.9404 Q375.3438,416.1953 376.9258,416.1953 Q377.668,416.1953 378.3662,415.8779 Q379.0645,415.5605 379.8066,414.877 Z " fill="#000000"/><text fill="#000000" font-family="sans-serif" font-size="20" lengthAdjust="spacing" textLength="213" x="399" y="418.5586">ManageAdvertisement</text><line style="stroke:#181818;stroke-width:0.5;" x1="229" x2="747" y1="428" y2="428"/><line style="stroke:#181818;stroke-width:0.5;" x1="229" x2="747" y1="436" y2="436"/><text fill="#000000" font-family="sans-serif" font-size="20" lengthAdjust="spacing" textLength="157" x="234" y="459.3359">+getProperties()</text><text fill="#000000" font-family="sans-serif" font-size="20" lengthAdjust="spacing" textLength="383" x="234" y="482.8906">+getSortedListByFilters(typeOfBusiness,</text><text fill="#000000" font-family="sans-serif" font-size="20" lengthAdjust="spacing" textLength="503" x="234" y="506.4453">typeOfProperty,numberOfBedrooms, sortingMethod)</text><text fill="#000000" font-family="sans-serif" font-size="20" lengthAdjust="spacing" textLength="321" x="234" y="530">+getListByFilters(typeOfBusiness,</text><text fill="#000000" font-family="sans-serif" font-size="20" lengthAdjust="spacing" textLength="508" x="234" y="553.5547">typeOfProperty, numberOfBedrooms, sortingCriteria)</text><text fill="#000000" font-family="sans-serif" font-size="20" lengthAdjust="spacing" textLength="335" x="234" y="577.1094">+getSortedList(list, sortingCriteria)</text></g><!--class ManageFilter--><g id="elem_ManageFilter"><rect codeLine="62" fill="#F1F1F1" height="191.3281" id="ManageFilter" rx="2.5" ry="2.5" style="stroke:#181818;stroke-width:0.5;" width="520" x="969" y="394"/><ellipse cx="1163" cy="411" fill="#ADD1B2" rx="12" ry="12" style="stroke:#181818;stroke-width:1.0;"/><path d="M1165.8066,418.0801 Q1165.123,418.4316 1164.3711,418.6074 Q1163.6191,418.7832 1162.7891,418.7832 Q1159.8398,418.7832 1158.2871,416.8398 Q1156.7344,414.8965 1156.7344,411.2246 Q1156.7344,407.543 1158.2871,405.5996 Q1159.8398,403.6563 1162.7891,403.6563 Q1163.6191,403.6563 1164.3809,403.832 Q1165.1426,404.0078 1165.8066,404.3594 L1165.8066,407.5625 Q1165.0645,406.8789 1164.3662,406.5615 Q1163.668,406.2441 1162.9258,406.2441 Q1161.3438,406.2441 1160.5381,407.499 Q1159.7324,408.7539 1159.7324,411.2246 Q1159.7324,413.6855 1160.5381,414.9404 Q1161.3438,416.1953 1162.9258,416.1953 Q1163.668,416.1953 1164.3662,415.8779 Q1165.0645,415.5605 1165.8066,414.877 Z " fill="#000000"/><text fill="#000000" font-family="sans-serif" font-size="20" lengthAdjust="spacing" textLength="123" x="1185" y="418.5586">ManageFilter</text><line style="stroke:#181818;stroke-width:0.5;" x1="970" x2="1488" y1="428" y2="428"/><line style="stroke:#181818;stroke-width:0.5;" x1="970" x2="1488" y1="436" y2="436"/><text fill="#000000" font-family="sans-serif" font-size="20" lengthAdjust="spacing" textLength="157" x="975" y="459.3359">+getProperties()</text><text fill="#000000" font-family="sans-serif" font-size="20" lengthAdjust="spacing" textLength="383" x="975" y="482.8906">+getSortedListByFilters(typeOfBusiness,</text><text fill="#000000" font-family="sans-serif" font-size="20" lengthAdjust="spacing" textLength="503" x="975" y="506.4453">typeOfProperty,numberOfBedrooms, sortingMethod)</text><text fill="#000000" font-family="sans-serif" font-size="20" lengthAdjust="spacing" textLength="321" x="975" y="530">+getListByFilters(typeOfBusiness,</text><text fill="#000000" font-family="sans-serif" font-size="20" lengthAdjust="spacing" textLength="508" x="975" y="553.5547">typeOfProperty, numberOfBedrooms, sortingCriteria)</text><text fill="#000000" font-family="sans-serif" font-size="20" lengthAdjust="spacing" textLength="335" x="975" y="577.1094">+getSortedList(list, sortingCriteria)</text></g><!--class AdvertisementRepository--><g id="elem_AdvertisementRepository"><rect codeLine="69" fill="#F1F1F1" height="73.5547" id="AdvertisementRepository" rx="2.5" ry="2.5" style="stroke:#181818;stroke-width:0.5;" width="275" x="403.5" y="851"/><ellipse cx="419.5" cy="868" fill="#ADD1B2" rx="12" ry="12" style="stroke:#181818;stroke-width:1.0;"/><path d="M422.3066,875.0801 Q421.623,875.4316 420.8711,875.6074 Q420.1191,875.7832 419.2891,875.7832 Q416.3398,875.7832 414.7871,873.8398 Q413.2344,871.8965 413.2344,868.2246 Q413.2344,864.543 414.7871,862.5996 Q416.3398,860.6563 419.2891,860.6563 Q420.1191,860.6563 420.8809,860.832 Q421.6426,861.0078 422.3066,861.3594 L422.3066,864.5625 Q421.5645,863.8789 420.8662,863.5615 Q420.168,863.2441 419.4258,863.2441 Q417.8438,863.2441 417.0381,864.499 Q416.2324,865.7539 416.2324,868.2246 Q416.2324,870.6855 417.0381,871.9404 Q417.8438,873.1953 419.4258,873.1953 Q420.168,873.1953 420.8662,872.8779 Q421.5645,872.5605 422.3066,871.877 Z " fill="#000000"/><text fill="#000000" font-family="sans-serif" font-size="20" lengthAdjust="spacing" textLength="241" x="434.5" y="875.5586">AdvertisementRepository</text><line style="stroke:#181818;stroke-width:0.5;" x1="404.5" x2="677.5" y1="885" y2="885"/><line style="stroke:#181818;stroke-width:0.5;" x1="404.5" x2="677.5" y1="893" y2="893"/><text fill="#000000" font-family="sans-serif" font-size="20" lengthAdjust="spacing" textLength="209" x="409.5" y="916.3359">+getAdvertisements()</text></g><!--class FilterRepository--><g id="elem_FilterRepository"><rect codeLine="73" fill="#F1F1F1" height="50" id="FilterRepository" rx="2.5" ry="2.5" style="stroke:#181818;stroke-width:0.5;" width="185" x="1109.5" y="863"/><ellipse cx="1125.5" cy="880" fill="#ADD1B2" rx="12" ry="12" style="stroke:#181818;stroke-width:1.0;"/><path d="M1128.3066,887.0801 Q1127.623,887.4316 1126.8711,887.6074 Q1126.1191,887.7832 1125.2891,887.7832 Q1122.3398,887.7832 1120.7871,885.8398 Q1119.2344,883.8965 1119.2344,880.2246 Q1119.2344,876.543 1120.7871,874.5996 Q1122.3398,872.6563 1125.2891,872.6563 Q1126.1191,872.6563 1126.8809,872.832 Q1127.6426,873.0078 1128.3066,873.3594 L1128.3066,876.5625 Q1127.5645,875.8789 1126.8662,875.5615 Q1126.168,875.2441 1125.4258,875.2441 Q1123.8438,875.2441 1123.0381,876.499 Q1122.2324,877.7539 1122.2324,880.2246 Q1122.2324,882.6855 1123.0381,883.9404 Q1123.8438,885.1953 1125.4258,885.1953 Q1126.168,885.1953 1126.8662,884.8779 Q1127.5645,884.5605 1128.3066,883.877 Z " fill="#000000"/><text fill="#000000" font-family="sans-serif" font-size="20" lengthAdjust="spacing" textLength="151" x="1140.5" y="887.5586">FilterRepository</text><line style="stroke:#181818;stroke-width:0.5;" x1="1110.5" x2="1293.5" y1="897" y2="897"/><line style="stroke:#181818;stroke-width:0.5;" x1="1110.5" x2="1293.5" y1="905" y2="905"/></g><!--class Advertisement--><g id="elem_Advertisement"><rect codeLine="77" fill="#F1F1F1" height="73.5547" id="Advertisement" rx="2.5" ry="2.5" style="stroke:#181818;stroke-width:0.5;" width="290" x="396" y="986"/><ellipse cx="467" cy="1003" fill="#ADD1B2" rx="12" ry="12" style="stroke:#181818;stroke-width:1.0;"/><path d="M469.8066,1010.0801 Q469.123,1010.4316 468.3711,1010.6074 Q467.6191,1010.7832 466.7891,1010.7832 Q463.8398,1010.7832 462.2871,1008.8398 Q460.7344,1006.8965 460.7344,1003.2246 Q460.7344,999.543 462.2871,997.5996 Q463.8398,995.6563 466.7891,995.6563 Q467.6191,995.6563 468.3809,995.832 Q469.1426,996.0078 469.8066,996.3594 L469.8066,999.5625 Q469.0645,998.8789 468.3662,998.5615 Q467.668,998.2441 466.9258,998.2441 Q465.3438,998.2441 464.5381,999.499 Q463.7324,1000.7539 463.7324,1003.2246 Q463.7324,1005.6855 464.5381,1006.9404 Q465.3438,1008.1953 466.9258,1008.1953 Q467.668,1008.1953 468.3662,1007.8779 Q469.0645,1007.5605 469.8066,1006.877 Z " fill="#000000"/><text fill="#000000" font-family="sans-serif" font-size="20" lengthAdjust="spacing" textLength="139" x="489" y="1010.5586">Advertisement</text><line style="stroke:#181818;stroke-width:0.5;" x1="397" x2="685" y1="1020" y2="1020"/><text fill="#000000" font-family="sans-serif" font-size="20" lengthAdjust="spacing" textLength="278" x="402" y="1043.3359">-String dateOfAdvertisement</text><line style="stroke:#181818;stroke-width:0.5;" x1="397" x2="685" y1="1051.5547" y2="1051.5547"/></g><!--class Request--><g id="elem_Request"><rect codeLine="81" fill="#F1F1F1" height="97.1094" id="Request" rx="2.5" ry="2.5" style="stroke:#181818;stroke-width:0.5;" width="228" x="427" y="1121"/><ellipse cx="498" cy="1138" fill="#ADD1B2" rx="12" ry="12" style="stroke:#181818;stroke-width:1.0;"/><path d="M500.8066,1145.0801 Q500.123,1145.4316 499.3711,1145.6074 Q498.6191,1145.7832 497.7891,1145.7832 Q494.8398,1145.7832 493.2871,1143.8398 Q491.7344,1141.8965 491.7344,1138.2246 Q491.7344,1134.543 493.2871,1132.5996 Q494.8398,1130.6563 497.7891,1130.6563 Q498.6191,1130.6563 499.3809,1130.832 Q500.1426,1131.0078 500.8066,1131.3594 L500.8066,1134.5625 Q500.0645,1133.8789 499.3662,1133.5615 Q498.668,1133.2441 497.9258,1133.2441 Q496.3438,1133.2441 495.5381,1134.499 Q494.7324,1135.7539 494.7324,1138.2246 Q494.7324,1140.6855 495.5381,1141.9404 Q496.3438,1143.1953 497.9258,1143.1953 Q498.668,1143.1953 499.3662,1142.8779 Q500.0645,1142.5605 500.8066,1141.877 Z " fill="#000000"/><text fill="#000000" font-family="sans-serif" font-size="20" lengthAdjust="spacing" textLength="77" x="520" y="1145.5586">Request</text><line style="stroke:#181818;stroke-width:0.5;" x1="428" x2="654" y1="1155" y2="1155"/><text fill="#000000" font-family="sans-serif" font-size="20" lengthAdjust="spacing" textLength="133" x="433" y="1178.3359">-double price</text><text fill="#000000" font-family="sans-serif" font-size="20" lengthAdjust="spacing" textLength="216" x="433" y="1201.8906">-String dateOfRequest</text><line style="stroke:#181818;stroke-width:0.5;" x1="428" x2="654" y1="1210.1094" y2="1210.1094"/></g><!--class PropertyInfo--><g id="elem_PropertyInfo"><rect codeLine="86" fill="#F1F1F1" height="97.1094" id="PropertyInfo" rx="2.5" ry="2.5" style="stroke:#181818;stroke-width:0.5;" width="233" x="424.5" y="1291"/><ellipse cx="478" cy="1308" fill="#ADD1B2" rx="12" ry="12" style="stroke:#181818;stroke-width:1.0;"/><path d="M480.8066,1315.0801 Q480.123,1315.4316 479.3711,1315.6074 Q478.6191,1315.7832 477.7891,1315.7832 Q474.8398,1315.7832 473.2871,1313.8398 Q471.7344,1311.8965 471.7344,1308.2246 Q471.7344,1304.543 473.2871,1302.5996 Q474.8398,1300.6563 477.7891,1300.6563 Q478.6191,1300.6563 479.3809,1300.832 Q480.1426,1301.0078 480.8066,1301.3594 L480.8066,1304.5625 Q480.0645,1303.8789 479.3662,1303.5615 Q478.668,1303.2441 477.9258,1303.2441 Q476.3438,1303.2441 475.5381,1304.499 Q474.7324,1305.7539 474.7324,1308.2246 Q474.7324,1310.6855 475.5381,1311.9404 Q476.3438,1313.1953 477.9258,1313.1953 Q478.668,1313.1953 479.3662,1312.8779 Q480.0645,1312.5605 480.8066,1311.877 Z " fill="#000000"/><text fill="#000000" font-family="sans-serif" font-size="20" lengthAdjust="spacing" textLength="117" x="500" y="1315.5586">PropertyInfo</text><line style="stroke:#181818;stroke-width:0.5;" x1="425.5" x2="656.5" y1="1325" y2="1325"/><text fill="#000000" font-family="sans-serif" font-size="20" lengthAdjust="spacing" textLength="126" x="430.5" y="1348.3359">-double area</text><text fill="#000000" font-family="sans-serif" font-size="20" lengthAdjust="spacing" textLength="221" x="430.5" y="1371.8906">-double distCityCenter</text><line style="stroke:#181818;stroke-width:0.5;" x1="425.5" x2="656.5" y1="1380.1094" y2="1380.1094"/></g><!--class Address--><g id="elem_Address"><rect codeLine="91" fill="#F1F1F1" height="120.6641" id="Address" rx="2.5" ry="2.5" style="stroke:#181818;stroke-width:0.5;" width="155" x="234.5" y="1279"/><ellipse cx="269.4" cy="1296" fill="#ADD1B2" rx="12" ry="12" style="stroke:#181818;stroke-width:1.0;"/><path d="M272.2066,1303.0801 Q271.523,1303.4316 270.7711,1303.6074 Q270.0191,1303.7832 269.1891,1303.7832 Q266.2398,1303.7832 264.6871,1301.8398 Q263.1344,1299.8965 263.1344,1296.2246 Q263.1344,1292.543 264.6871,1290.5996 Q266.2398,1288.6563 269.1891,1288.6563 Q270.0191,1288.6563 270.7809,1288.832 Q271.5426,1289.0078 272.2066,1289.3594 L272.2066,1292.5625 Q271.4645,1291.8789 270.7662,1291.5615 Q270.068,1291.2441 269.3258,1291.2441 Q267.7438,1291.2441 266.9381,1292.499 Q266.1324,1293.7539 266.1324,1296.2246 Q266.1324,1298.6855 266.9381,1299.9404 Q267.7438,1301.1953 269.3258,1301.1953 Q270.068,1301.1953 270.7662,1300.8779 Q271.4645,1300.5605 272.2066,1299.877 Z " fill="#000000"/><text fill="#000000" font-family="sans-serif" font-size="20" lengthAdjust="spacing" textLength="79" x="288.6" y="1303.5586">Address</text><line style="stroke:#181818;stroke-width:0.5;" x1="235.5" x2="388.5" y1="1313" y2="1313"/><text fill="#000000" font-family="sans-serif" font-size="20" lengthAdjust="spacing" textLength="121" x="240.5" y="1336.3359">-String State</text><text fill="#000000" font-family="sans-serif" font-size="20" lengthAdjust="spacing" textLength="111" x="240.5" y="1359.8906">-String City</text><text fill="#000000" font-family="sans-serif" font-size="20" lengthAdjust="spacing" textLength="143" x="240.5" y="1383.4453">-String District</text><line style="stroke:#181818;stroke-width:0.5;" x1="235.5" x2="388.5" y1="1391.6641" y2="1391.6641"/></g><!--class Photograph--><g id="elem_Photograph"><rect codeLine="97" fill="#F1F1F1" height="73.5547" id="Photograph" rx="2.5" ry="2.5" style="stroke:#181818;stroke-width:0.5;" width="144" x="693" y="1302.5"/><ellipse cx="709" cy="1319.5" fill="#ADD1B2" rx="12" ry="12" style="stroke:#181818;stroke-width:1.0;"/><path d="M711.8066,1326.5801 Q711.123,1326.9316 710.3711,1327.1074 Q709.6191,1327.2832 708.7891,1327.2832 Q705.8398,1327.2832 704.2871,1325.3398 Q702.7344,1323.3965 702.7344,1319.7246 Q702.7344,1316.043 704.2871,1314.0996 Q705.8398,1312.1563 708.7891,1312.1563 Q709.6191,1312.1563 710.3809,1312.332 Q711.1426,1312.5078 711.8066,1312.8594 L711.8066,1316.0625 Q711.0645,1315.3789 710.3662,1315.0615 Q709.668,1314.7441 708.9258,1314.7441 Q707.3438,1314.7441 706.5381,1315.999 Q705.7324,1317.2539 705.7324,1319.7246 Q705.7324,1322.1855 706.5381,1323.4404 Q707.3438,1324.6953 708.9258,1324.6953 Q709.668,1324.6953 710.3662,1324.3779 Q711.0645,1324.0605 711.8066,1323.377 Z " fill="#000000"/><text fill="#000000" font-family="sans-serif" font-size="20" lengthAdjust="spacing" textLength="110" x="724" y="1327.0586">Photograph</text><line style="stroke:#181818;stroke-width:0.5;" x1="694" x2="836" y1="1336.5" y2="1336.5"/><text fill="#000000" font-family="sans-serif" font-size="20" lengthAdjust="spacing" textLength="107" x="699" y="1359.8359">-String URI</text><line style="stroke:#181818;stroke-width:0.5;" x1="694" x2="836" y1="1368.0547" y2="1368.0547"/></g><!--class Land--><g id="elem_Land"><rect codeLine="101" fill="#F1F1F1" height="50" id="Land" rx="2.5" ry="2.5" style="stroke:#181818;stroke-width:0.5;" width="81" x="566.5" y="1496.5"/><ellipse cx="582.5" cy="1513.5" fill="#ADD1B2" rx="12" ry="12" style="stroke:#181818;stroke-width:1.0;"/><path d="M585.3066,1520.5801 Q584.623,1520.9316 583.8711,1521.1074 Q583.1191,1521.2832 582.2891,1521.2832 Q579.3398,1521.2832 577.7871,1519.3398 Q576.2344,1517.3965 576.2344,1513.7246 Q576.2344,1510.043 577.7871,1508.0996 Q579.3398,1506.1563 582.2891,1506.1563 Q583.1191,1506.1563 583.8809,1506.332 Q584.6426,1506.5078 585.3066,1506.8594 L585.3066,1510.0625 Q584.5645,1509.3789 583.8662,1509.0615 Q583.168,1508.7441 582.4258,1508.7441 Q580.8438,1508.7441 580.0381,1509.999 Q579.2324,1511.2539 579.2324,1513.7246 Q579.2324,1516.1855 580.0381,1517.4404 Q580.8438,1518.6953 582.4258,1518.6953 Q583.168,1518.6953 583.8662,1518.3779 Q584.5645,1518.0605 585.3066,1517.377 Z " fill="#000000"/><text fill="#000000" font-family="sans-serif" font-size="20" lengthAdjust="spacing" textLength="47" x="597.5" y="1521.0586">Land</text><line style="stroke:#181818;stroke-width:0.5;" x1="567.5" x2="646.5" y1="1530.5" y2="1530.5"/><line style="stroke:#181818;stroke-width:0.5;" x1="567.5" x2="646.5" y1="1538.5" y2="1538.5"/></g><!--class ResidenceInfo--><g id="elem_ResidenceInfo"><rect codeLine="105" fill="#F1F1F1" height="120.6641" id="ResidenceInfo" rx="2.5" ry="2.5" style="stroke:#181818;stroke-width:0.5;" width="291" x="240.5" y="1461"/><ellipse cx="314.5" cy="1478" fill="#ADD1B2" rx="12" ry="12" style="stroke:#181818;stroke-width:1.0;"/><path d="M317.3066,1485.0801 Q316.623,1485.4316 315.8711,1485.6074 Q315.1191,1485.7832 314.2891,1485.7832 Q311.3398,1485.7832 309.7871,1483.8398 Q308.2344,1481.8965 308.2344,1478.2246 Q308.2344,1474.543 309.7871,1472.5996 Q311.3398,1470.6563 314.2891,1470.6563 Q315.1191,1470.6563 315.8809,1470.832 Q316.6426,1471.0078 317.3066,1471.3594 L317.3066,1474.5625 Q316.5645,1473.8789 315.8662,1473.5615 Q315.168,1473.2441 314.4258,1473.2441 Q312.8438,1473.2441 312.0381,1474.499 Q311.2324,1475.7539 311.2324,1478.2246 Q311.2324,1480.6855 312.0381,1481.9404 Q312.8438,1483.1953 314.4258,1483.1953 Q315.168,1483.1953 315.8662,1482.8779 Q316.5645,1482.5605 317.3066,1481.877 Z " fill="#000000"/><text fill="#000000" font-family="sans-serif" font-size="20" lengthAdjust="spacing" textLength="134" x="336.5" y="1485.5586">ResidenceInfo</text><line style="stroke:#181818;stroke-width:0.5;" x1="241.5" x2="530.5" y1="1495" y2="1495"/><text fill="#000000" font-family="sans-serif" font-size="20" lengthAdjust="spacing" textLength="244" x="246.5" y="1518.3359">-int numberOfBathrooms</text><text fill="#000000" font-family="sans-serif" font-size="20" lengthAdjust="spacing" textLength="238" x="246.5" y="1541.8906">-int numberOfBedrooms</text><text fill="#000000" font-family="sans-serif" font-size="20" lengthAdjust="spacing" textLength="279" x="246.5" y="1565.4453">-int numberOfParkingSpaces</text><line style="stroke:#181818;stroke-width:0.5;" x1="241.5" x2="530.5" y1="1573.6641" y2="1573.6641"/></g><!--class Equipment--><g id="elem_Equipment"><rect codeLine="111" fill="#F1F1F1" height="73.5547" id="Equipment" rx="2.5" ry="2.5" style="stroke:#181818;stroke-width:0.5;" width="198" x="7" y="1484.5"/><ellipse cx="50" cy="1501.5" fill="#ADD1B2" rx="12" ry="12" style="stroke:#181818;stroke-width:1.0;"/><path d="M52.8066,1508.5801 Q52.123,1508.9316 51.3711,1509.1074 Q50.6191,1509.2832 49.7891,1509.2832 Q46.8398,1509.2832 45.2871,1507.3398 Q43.7344,1505.3965 43.7344,1501.7246 Q43.7344,1498.043 45.2871,1496.0996 Q46.8398,1494.1563 49.7891,1494.1563 Q50.6191,1494.1563 51.3809,1494.332 Q52.1426,1494.5078 52.8066,1494.8594 L52.8066,1498.0625 Q52.0645,1497.3789 51.3662,1497.0615 Q50.668,1496.7441 49.9258,1496.7441 Q48.3438,1496.7441 47.5381,1497.999 Q46.7324,1499.2539 46.7324,1501.7246 Q46.7324,1504.1855 47.5381,1505.4404 Q48.3438,1506.6953 49.9258,1506.6953 Q50.668,1506.6953 51.3662,1506.3779 Q52.0645,1506.0605 52.8066,1505.377 Z " fill="#000000"/><text fill="#000000" font-family="sans-serif" font-size="20" lengthAdjust="spacing" textLength="104" x="71" y="1509.0586">Equipment</text><line style="stroke:#181818;stroke-width:0.5;" x1="8" x2="204" y1="1518.5" y2="1518.5"/><text fill="#000000" font-family="sans-serif" font-size="20" lengthAdjust="spacing" textLength="186" x="13" y="1541.8359">-String designation</text><line style="stroke:#181818;stroke-width:0.5;" x1="8" x2="204" y1="1550.0547" y2="1550.0547"/></g><!--class House--><g id="elem_House"><rect codeLine="115" fill="#F1F1F1" height="120.6641" id="House" rx="2.5" ry="2.5" style="stroke:#181818;stroke-width:0.5;" width="201" x="183.5" y="1643"/><ellipse cx="249.5" cy="1660" fill="#ADD1B2" rx="12" ry="12" style="stroke:#181818;stroke-width:1.0;"/><path d="M252.3066,1667.0801 Q251.623,1667.4316 250.8711,1667.6074 Q250.1191,1667.7832 249.2891,1667.7832 Q246.3398,1667.7832 244.7871,1665.8398 Q243.2344,1663.8965 243.2344,1660.2246 Q243.2344,1656.543 244.7871,1654.5996 Q246.3398,1652.6563 249.2891,1652.6563 Q250.1191,1652.6563 250.8809,1652.832 Q251.6426,1653.0078 252.3066,1653.3594 L252.3066,1656.5625 Q251.5645,1655.8789 250.8662,1655.5615 Q250.168,1655.2441 249.4258,1655.2441 Q247.8438,1655.2441 247.0381,1656.499 Q246.2324,1657.7539 246.2324,1660.2246 Q246.2324,1662.6855 247.0381,1663.9404 Q247.8438,1665.1953 249.4258,1665.1953 Q250.168,1665.1953 250.8662,1664.8779 Q251.5645,1664.5605 252.3066,1663.877 Z " fill="#000000"/><text fill="#000000" font-family="sans-serif" font-size="20" lengthAdjust="spacing" textLength="60" x="271.5" y="1667.5586">House</text><line style="stroke:#181818;stroke-width:0.5;" x1="184.5" x2="383.5" y1="1677" y2="1677"/><text fill="#000000" font-family="sans-serif" font-size="20" lengthAdjust="spacing" textLength="127" x="189.5" y="1700.3359">-boolean loft</text><text fill="#000000" font-family="sans-serif" font-size="20" lengthAdjust="spacing" textLength="189" x="189.5" y="1723.8906">-boolean basement</text><text fill="#000000" font-family="sans-serif" font-size="20" lengthAdjust="spacing" textLength="185" x="189.5" y="1747.4453">-String sunExposer</text><line style="stroke:#181818;stroke-width:0.5;" x1="184.5" x2="383.5" y1="1755.6641" y2="1755.6641"/></g><!--class Apartment--><g id="elem_Apartment"><rect codeLine="121" fill="#F1F1F1" height="50" id="Apartment" rx="2.5" ry="2.5" style="stroke:#181818;stroke-width:0.5;" width="136" x="420" y="1678.5"/><ellipse cx="436" cy="1695.5" fill="#ADD1B2" rx="12" ry="12" style="stroke:#181818;stroke-width:1.0;"/><path d="M438.8066,1702.5801 Q438.123,1702.9316 437.3711,1703.1074 Q436.6191,1703.2832 435.7891,1703.2832 Q432.8398,1703.2832 431.2871,1701.3398 Q429.7344,1699.3965 429.7344,1695.7246 Q429.7344,1692.043 431.2871,1690.0996 Q432.8398,1688.1563 435.7891,1688.1563 Q436.6191,1688.1563 437.3809,1688.332 Q438.1426,1688.5078 438.8066,1688.8594 L438.8066,1692.0625 Q438.0645,1691.3789 437.3662,1691.0615 Q436.668,1690.7441 435.9258,1690.7441 Q434.3438,1690.7441 433.5381,1691.999 Q432.7324,1693.2539 432.7324,1695.7246 Q432.7324,1698.1855 433.5381,1699.4404 Q434.3438,1700.6953 435.9258,1700.6953 Q436.668,1700.6953 437.3662,1700.3779 Q438.0645,1700.0605 438.8066,1699.377 Z " fill="#000000"/><text fill="#000000" font-family="sans-serif" font-size="20" lengthAdjust="spacing" textLength="102" x="451" y="1703.0586">Apartment</text><line style="stroke:#181818;stroke-width:0.5;" x1="421" x2="555" y1="1712.5" y2="1712.5"/><line style="stroke:#181818;stroke-width:0.5;" x1="421" x2="555" y1="1720.5" y2="1720.5"/></g><!--class TypeOfBusiness--><g id="elem_TypeOfBusiness"><rect fill="#F1F1F1" height="50" id="TypeOfBusiness" rx="2.5" ry="2.5" style="stroke:#181818;stroke-width:0.5;" width="187" x="1123.5" y="998"/><ellipse cx="1139.5" cy="1015" fill="#ADD1B2" rx="12" ry="12" style="stroke:#181818;stroke-width:1.0;"/><path d="M1142.3066,1022.0801 Q1141.623,1022.4316 1140.8711,1022.6074 Q1140.1191,1022.7832 1139.2891,1022.7832 Q1136.3398,1022.7832 1134.7871,1020.8398 Q1133.2344,1018.8965 1133.2344,1015.2246 Q1133.2344,1011.543 1134.7871,1009.5996 Q1136.3398,1007.6563 1139.2891,1007.6563 Q1140.1191,1007.6563 1140.8809,1007.832 Q1141.6426,1008.0078 1142.3066,1008.3594 L1142.3066,1011.5625 Q1141.5645,1010.8789 1140.8662,1010.5615 Q1140.168,1010.2441 1139.4258,1010.2441 Q1137.8438,1010.2441 1137.0381,1011.499 Q1136.2324,1012.7539 1136.2324,1015.2246 Q1136.2324,1017.6855 1137.0381,1018.9404 Q1137.8438,1020.1953 1139.4258,1020.1953 Q1140.168,1020.1953 1140.8662,1019.8779 Q1141.5645,1019.5605 1142.3066,1018.877 Z " fill="#000000"/><text fill="#000000" font-family="sans-serif" font-size="20" lengthAdjust="spacing" textLength="153" x="1154.5" y="1022.5586">TypeOfBusiness</text><line style="stroke:#181818;stroke-width:0.5;" x1="1124.5" x2="1309.5" y1="1032" y2="1032"/><line style="stroke:#181818;stroke-width:0.5;" x1="1124.5" x2="1309.5" y1="1040" y2="1040"/></g><!--class TypeOfProperty--><g id="elem_TypeOfProperty"><rect fill="#F1F1F1" height="50" id="TypeOfProperty" rx="2.5" ry="2.5" style="stroke:#181818;stroke-width:0.5;" width="184" x="904" y="998"/><ellipse cx="920" cy="1015" fill="#ADD1B2" rx="12" ry="12" style="stroke:#181818;stroke-width:1.0;"/><path d="M922.8066,1022.0801 Q922.123,1022.4316 921.3711,1022.6074 Q920.6191,1022.7832 919.7891,1022.7832 Q916.8398,1022.7832 915.2871,1020.8398 Q913.7344,1018.8965 913.7344,1015.2246 Q913.7344,1011.543 915.2871,1009.5996 Q916.8398,1007.6563 919.7891,1007.6563 Q920.6191,1007.6563 921.3809,1007.832 Q922.1426,1008.0078 922.8066,1008.3594 L922.8066,1011.5625 Q922.0645,1010.8789 921.3662,1010.5615 Q920.668,1010.2441 919.9258,1010.2441 Q918.3438,1010.2441 917.5381,1011.499 Q916.7324,1012.7539 916.7324,1015.2246 Q916.7324,1017.6855 917.5381,1018.9404 Q918.3438,1020.1953 919.9258,1020.1953 Q920.668,1020.1953 921.3662,1019.8779 Q922.0645,1019.5605 922.8066,1018.877 Z " fill="#000000"/><text fill="#000000" font-family="sans-serif" font-size="20" lengthAdjust="spacing" textLength="150" x="935" y="1022.5586">TypeOfProperty</text><line style="stroke:#181818;stroke-width:0.5;" x1="905" x2="1087" y1="1032" y2="1032"/><line style="stroke:#181818;stroke-width:0.5;" x1="905" x2="1087" y1="1040" y2="1040"/></g><!--class NumberOfBedroomsRepository--><g id="elem_NumberOfBedroomsRepository"><rect fill="#F1F1F1" height="50" id="NumberOfBedroomsRepository" rx="2.5" ry="2.5" style="stroke:#181818;stroke-width:0.5;" width="334" x="740" y="863"/><ellipse cx="756" cy="880" fill="#ADD1B2" rx="12" ry="12" style="stroke:#181818;stroke-width:1.0;"/><path d="M758.8066,887.0801 Q758.123,887.4316 757.3711,887.6074 Q756.6191,887.7832 755.7891,887.7832 Q752.8398,887.7832 751.2871,885.8398 Q749.7344,883.8965 749.7344,880.2246 Q749.7344,876.543 751.2871,874.5996 Q752.8398,872.6563 755.7891,872.6563 Q756.6191,872.6563 757.3809,872.832 Q758.1426,873.0078 758.8066,873.3594 L758.8066,876.5625 Q758.0645,875.8789 757.3662,875.5615 Q756.668,875.2441 755.9258,875.2441 Q754.3438,875.2441 753.5381,876.499 Q752.7324,877.7539 752.7324,880.2246 Q752.7324,882.6855 753.5381,883.9404 Q754.3438,885.1953 755.9258,885.1953 Q756.668,885.1953 757.3662,884.8779 Q758.0645,884.5605 758.8066,883.877 Z " fill="#000000"/><text fill="#000000" font-family="sans-serif" font-size="20" lengthAdjust="spacing" textLength="300" x="771" y="887.5586">NumberOfBedroomsRepository</text><line style="stroke:#181818;stroke-width:0.5;" x1="741" x2="1073" y1="897" y2="897"/><line style="stroke:#181818;stroke-width:0.5;" x1="741" x2="1073" y1="905" y2="905"/></g><!--link ListPropertyUI to ListPropertyController--><g id="link_ListPropertyUI_ListPropertyController"><path codeLine="124" d="M818,57.21 C818,71.94 818,91.85 818,112.5 " fill="none" id="ListPropertyUI-to-ListPropertyController" style="stroke:#181818;stroke-width:1.0;stroke-dasharray:7.0,7.0;"/><polygon fill="#181818" points="818,117.76,822,108.76,818,112.76,814,108.76,818,117.76" style="stroke:#181818;stroke-width:1.0;"/></g><!--link ListPropertyController to Repositories--><g id="link_ListPropertyController_Repositories"><path codeLine="127" d="M822.36,309.43 C827.39,419.21 835,585 835,585 C835,585 849.61,611.79 865.67,641.23 " fill="none" id="ListPropertyController-to-Repositories" style="stroke:#181818;stroke-width:1.0;stroke-dasharray:7.0,7.0;"/><polygon fill="#181818" points="868.26,645.98,867.4485,636.1646,865.8597,641.5938,860.4306,640.0051,868.26,645.98" style="stroke:#181818;stroke-width:1.0;"/><text fill="#000000" font-family="sans-serif" font-size="20" lengthAdjust="spacing" textLength="114" x="836" y="497.3359">repositories</text></g><!--link ListPropertyController to ManageAdvertisement--><g id="link_ListPropertyController_ManageAdvertisement"><path codeLine="128" d="M703.97,309.18 C672.28,335.49 637.82,364.11 605.91,390.6 " fill="none" id="ListPropertyController-to-ManageAdvertisement" style="stroke:#181818;stroke-width:1.0;stroke-dasharray:7.0,7.0;"/><polygon fill="#181818" points="602.03,393.82,611.5057,391.1347,605.8723,390.6205,606.3865,384.987,602.03,393.82" style="stroke:#181818;stroke-width:1.0;"/><text fill="#000000" font-family="sans-serif" font-size="20" lengthAdjust="spacing" textLength="86" x="664" y="359.3359">manages</text></g><!--link ListPropertyController to ManageFilter--><g id="link_ListPropertyController_ManageFilter"><path codeLine="129" d="M960.02,309.18 C999.64,335.6 1042.76,364.34 1082.63,390.92 " fill="none" id="ListPropertyController-to-ManageFilter" style="stroke:#181818;stroke-width:1.0;stroke-dasharray:7.0,7.0;"/><polygon fill="#181818" points="1086.98,393.82,1081.7301,385.487,1082.8263,391.0366,1077.2767,392.1328,1086.98,393.82" style="stroke:#181818;stroke-width:1.0;"/><text fill="#000000" font-family="sans-serif" font-size="20" lengthAdjust="spacing" textLength="86" x="1037" y="359.3359">manages</text></g><!--link FilterRepository to SortingCriteria--><g id="link_FilterRepository_SortingCriteria"><path codeLine="131" d="M1294.72,888 C1333.91,888 1370.67,888 1370.67,888 C1370.67,888 1539.33,888 1539.33,888 C1539.33,888 1576.46,888 1615.88,888 " fill="none" id="FilterRepository-to-SortingCriteria" style="stroke:#181818;stroke-width:1.0;"/><polygon fill="#181818" points="1621.2,888,1612.2,884,1616.2,888,1612.2,892,1621.2,888" style="stroke:#181818;stroke-width:1.0;"/><text fill="#000000" font-family="sans-serif" font-size="20" lengthAdjust="spacing" textLength="13" x="1600.4736" y="883.4066">1</text></g><!--link FilterRepository to TypeOfBusiness--><g id="link_FilterRepository_TypeOfBusiness"><path codeLine="132" d="M1204.72,913.09 C1207.23,935.36 1210.97,968.52 1213.66,992.39 " fill="none" id="FilterRepository-to-TypeOfBusiness" style="stroke:#181818;stroke-width:1.0;"/><polygon fill="#181818" points="1214.25,997.64,1217.2228,988.2505,1213.6931,992.6711,1209.2725,989.1415,1214.25,997.64" style="stroke:#181818;stroke-width:1.0;"/><text fill="#000000" font-family="sans-serif" font-size="20" lengthAdjust="spacing" textLength="13" x="1199.2266" y="985.9735">1</text></g><!--link FilterRepository to TypeOfProperty--><g id="link_FilterRepository_TypeOfProperty"><path codeLine="133" d="M1164.69,913.09 C1128.93,936.18 1075.03,970.98 1037.83,995 " fill="none" id="FilterRepository-to-TypeOfProperty" style="stroke:#181818;stroke-width:1.0;"/><polygon fill="#181818" points="1033.38,997.87,1043.1136,996.3679,1037.5859,995.1662,1038.7876,989.6385,1033.38,997.87" style="stroke:#181818;stroke-width:1.0;"/><text fill="#000000" font-family="sans-serif" font-size="20" lengthAdjust="spacing" textLength="13" x="1027.521" y="985.7994">1</text></g><!--reverse link NumberOfBedroomsRepository to FilterRepository--><g id="link_NumberOfBedroomsRepository_FilterRepository"><path codeLine="134" d="M1079.45,888 C1093.37,888 1103.67,888 1103.67,888 C1103.67,888 1105.72,888 1109.24,888 " fill="none" id="NumberOfBedroomsRepository-backto-FilterRepository" style="stroke:#181818;stroke-width:1.0;"/><polygon fill="#181818" points="1074.16,888,1083.16,892,1079.16,888,1083.16,884,1074.16,888" style="stroke:#181818;stroke-width:1.0;"/><text fill="#000000" font-family="sans-serif" font-size="20" lengthAdjust="spacing" textLength="13" x="1082.029" y="883.8274">1</text></g><!--link Repositories to FilterRepository--><g id="link_Repositories_FilterRepository"><path codeLine="135" d="M1031.68,790 C1075.47,814.94 1122.02,841.45 1155.36,860.44 " fill="none" id="Repositories-to-FilterRepository" style="stroke:#181818;stroke-width:1.0;"/><polygon fill="#181818" points="1159.77,862.95,1153.9263,855.0221,1155.4244,860.477,1149.9695,861.9751,1159.77,862.95" style="stroke:#181818;stroke-width:1.0;"/><text fill="#000000" font-family="sans-serif" font-size="20" lengthAdjust="spacing" textLength="13" x="1135.5012" y="850.8979">1</text></g><!--link Repositories to AdvertisementRepository--><g id="link_Repositories_AdvertisementRepository"><path codeLine="136" d="M762.87,785.16 C715.97,806.69 665.49,829.86 624.56,848.65 " fill="none" id="Repositories-to-AdvertisementRepository" style="stroke:#181818;stroke-width:1.0;"/><polygon fill="#181818" points="619.61,850.92,629.4581,850.8,624.154,848.8338,626.1202,843.5296,619.61,850.92" style="stroke:#181818;stroke-width:1.0;"/><text fill="#000000" font-family="sans-serif" font-size="20" lengthAdjust="spacing" textLength="13" x="619.4546" y="838.6917">1</text></g><!--reverse link ComparatorAscendingPrice to SortingCriteria--><g id="link_ComparatorAscendingPrice_SortingCriteria"><path codeLine="139" d="M1836.08,758.92 C1803.72,791.28 1759.2,835.8 1732.07,862.93 " fill="none" id="ComparatorAscendingPrice-backto-SortingCriteria" style="stroke:#181818;stroke-width:1.0;"/><polygon fill="#181818" points="1839.96,755.04,1830.7676,758.5755,1836.4245,758.5755,1836.4245,764.2324,1839.96,755.04" style="stroke:#181818;stroke-width:1.0;"/></g><!--reverse link ComparatorDescendingPrice to SortingCriteria--><g id="link_ComparatorDescendingPrice_SortingCriteria"><path codeLine="140" d="M1579.92,758.92 C1612.28,791.28 1656.8,835.8 1683.93,862.93 " fill="none" id="ComparatorDescendingPrice-backto-SortingCriteria" style="stroke:#181818;stroke-width:1.0;"/><polygon fill="#181818" points="1576.04,755.04,1579.5755,764.2324,1579.5755,758.5755,1585.2324,758.5755,1576.04,755.04" style="stroke:#181818;stroke-width:1.0;"/></g><!--link SortingCriteria to ComparatorCityAlphabetic--><g id="link_SortingCriteria_ComparatorCityAlphabetic"><path codeLine="141" d="M1794.81,888 C1796.01,888 1796.67,888 1796.67,888 C1796.67,888 1808.82,888 1824.13,888 " fill="none" id="SortingCriteria-to-ComparatorCityAlphabetic" style="stroke:#181818;stroke-width:1.0;"/><polygon fill="#181818" points="1829.43,888,1820.43,884,1824.43,888,1820.43,892,1829.43,888" style="stroke:#181818;stroke-width:1.0;"/></g><!--link SortingCriteria to ComparatorCityAlphabeticReverse--><g id="link_SortingCriteria_ComparatorCityAlphabeticReverse"><path codeLine="142" d="M1741.14,913.09 C1767.85,932.5 1805.96,960.19 1837.06,982.8 " fill="none" id="SortingCriteria-to-ComparatorCityAlphabeticReverse" style="stroke:#181818;stroke-width:1.0;"/><polygon fill="#181818" points="1841.2,985.81,1836.2776,977.2794,1837.1576,982.8674,1831.5696,983.7474,1841.2,985.81" style="stroke:#181818;stroke-width:1.0;"/></g><!--link SortingCriteria to ComparatorStateAlphabetic--><g id="link_SortingCriteria_ComparatorStateAlphabetic"><path codeLine="143" d="M1674.86,913.09 C1648.15,932.5 1610.04,960.19 1578.94,982.8 " fill="none" id="SortingCriteria-to-ComparatorStateAlphabetic" style="stroke:#181818;stroke-width:1.0;"/><polygon fill="#181818" points="1574.8,985.81,1584.4304,983.7474,1578.8424,982.8674,1579.7224,977.2794,1574.8,985.81" style="stroke:#181818;stroke-width:1.0;"/></g><!--reverse link ComparatorStateAlphabeticReverse to SortingCriteria--><g id="link_ComparatorStateAlphabeticReverse_SortingCriteria"><path codeLine="144" d="M2136.77,756.67 C2087.93,773.67 2041,790 2041,790 C2041,790 1812,851 1812,851 C1812,851 1796.45,856.38 1777.37,862.99 " fill="none" id="ComparatorStateAlphabeticReverse-backto-SortingCriteria" style="stroke:#181818;stroke-width:1.0;"/><polygon fill="#181818" points="2141.51,755.02,2131.6957,754.1952,2136.7869,756.6609,2134.3212,761.7521,2141.51,755.02" style="stroke:#181818;stroke-width:1.0;"/></g><!--link ManageFilter to Repositories--><g id="link_ManageFilter_Repositories"><path codeLine="146" d="M1094.31,585.24 C1066.99,604.46 1038.63,624.41 1012.5,642.79 " fill="none" id="ManageFilter-to-Repositories" style="stroke:#181818;stroke-width:1.0;stroke-dasharray:7.0,7.0;"/><polygon fill="#181818" points="1008.32,645.73,1017.9834,643.8276,1012.4108,642.855,1013.3834,637.2824,1008.32,645.73" style="stroke:#181818;stroke-width:1.0;"/></g><!--link ManageFilter to FilterRepository--><g id="link_ManageFilter_FilterRepository"><path codeLine="147" d="M1222.55,585.22 C1216.52,673.77 1207.88,800.61 1204.01,857.47 " fill="none" id="ManageFilter-to-FilterRepository" style="stroke:#181818;stroke-width:1.0;stroke-dasharray:7.0,7.0;"/><polygon fill="#181818" points="1203.65,862.75,1208.258,854.0456,1203.993,857.7618,1200.2769,853.4968,1203.65,862.75" style="stroke:#181818;stroke-width:1.0;"/><text fill="#000000" font-family="sans-serif" font-size="20" lengthAdjust="spacing" textLength="147" x="1220" y="725.8359">filterRepository</text></g><!--link ManageAdvertisement to AdvertisementRepository--><g id="link_ManageAdvertisement_AdvertisementRepository"><path codeLine="150" d="M493.38,585.26 C498.36,673.01 505,790 505,790 C505,790 515.95,819.51 525.78,845.98 " fill="none" id="ManageAdvertisement-to-AdvertisementRepository" style="stroke:#181818;stroke-width:1.0;stroke-dasharray:7.0,7.0;"/><polygon fill="#181818" points="527.59,850.88,528.2113,841.0508,525.8516,846.1919,520.7104,843.8322,527.59,850.88" style="stroke:#181818;stroke-width:1.0;"/><text fill="#000000" font-family="sans-serif" font-size="20" lengthAdjust="spacing" textLength="238" x="506" y="725.8359">advertisementRepository</text></g><!--link ManageAdvertisement to Repositories--><g id="link_ManageAdvertisement_Repositories"><path codeLine="151" d="M662.96,585.08 C699.04,604.58 736.53,624.85 770.98,643.47 " fill="none" id="ManageAdvertisement-to-Repositories" style="stroke:#181818;stroke-width:1.0;stroke-dasharray:7.0,7.0;"/><polygon fill="#181818" points="775.6,645.97,769.5752,638.1789,771.1986,643.5978,765.7796,645.2212,775.6,645.97" style="stroke:#181818;stroke-width:1.0;"/></g><!--link AdvertisementRepository to Advertisement--><g id="link_AdvertisementRepository_Advertisement"><path codeLine="152" d="M541,925.34 C541,942.35 541,962.7 541,980.32 " fill="none" id="AdvertisementRepository-to-Advertisement" style="stroke:#181818;stroke-width:1.0;"/><polygon fill="#181818" points="541,985.7,545,976.7,541,980.7,537,976.7,541,985.7" style="stroke:#181818;stroke-width:1.0;"/></g><!--link Advertisement to Request--><g id="link_Advertisement_Request"><path codeLine="154" d="M541,1060.09 C541,1076.9 541,1097.23 541,1115.72 " fill="none" id="Advertisement-to-Request" style="stroke:#181818;stroke-width:1.0;"/><polygon fill="#181818" points="541,1120.88,545,1111.88,541,1115.88,537,1111.88,541,1120.88" style="stroke:#181818;stroke-width:1.0;"/></g><!--link Request to PropertyInfo--><g id="link_Request_PropertyInfo"><path codeLine="156" d="M541,1218.19 C541,1239.3 541,1264.19 541,1285.84 " fill="none" id="Request-to-PropertyInfo" style="stroke:#181818;stroke-width:1.0;"/><polygon fill="#181818" points="541,1290.98,545,1281.98,541,1285.98,537,1281.98,541,1290.98" style="stroke:#181818;stroke-width:1.0;"/></g><!--link PropertyInfo to ResidenceInfo--><g id="link_PropertyInfo_ResidenceInfo"><path codeLine="158" d="M499.87,1388.26 C481.73,1409.33 460.14,1434.4 440.67,1457.01 " fill="none" id="PropertyInfo-to-ResidenceInfo" style="stroke:#181818;stroke-width:1.0;"/><polygon fill="#181818" points="437.32,1460.91,446.222,1456.6964,440.581,1457.1198,440.1577,1451.4788,437.32,1460.91" style="stroke:#181818;stroke-width:1.0;"/></g><!--link PropertyInfo to Photograph--><g id="link_PropertyInfo_Photograph"><path codeLine="159" d="M657.8,1339.5 C669.71,1339.5 680.95,1339.5 687.45,1339.5 " fill="none" id="PropertyInfo-to-Photograph" style="stroke:#181818;stroke-width:1.0;"/><polygon fill="#181818" points="692.82,1339.5,683.82,1335.5,687.82,1339.5,683.82,1343.5,692.82,1339.5" style="stroke:#181818;stroke-width:1.0;"/></g><!--reverse link Address to PropertyInfo--><g id="link_Address_PropertyInfo"><path codeLine="160" d="M394.79,1339.5 C401.58,1339.5 412.85,1339.5 424.38,1339.5 " fill="none" id="Address-backto-PropertyInfo" style="stroke:#181818;stroke-width:1.0;"/><polygon fill="#181818" points="389.66,1339.5,398.66,1343.5,394.66,1339.5,398.66,1335.5,389.66,1339.5" style="stroke:#181818;stroke-width:1.0;"/></g><!--link PropertyInfo to Land--><g id="link_PropertyInfo_Land"><path codeLine="161" d="M558.51,1388.26 C570.52,1421.01 586.07,1463.41 596.28,1491.25 " fill="none" id="PropertyInfo-to-Land" style="stroke:#181818;stroke-width:1.0;"/><polygon fill="#181818" points="598.12,1496.28,598.7676,1486.4525,596.3941,1491.5873,591.2593,1489.2139,598.12,1496.28" style="stroke:#181818;stroke-width:1.0;"/></g><!--reverse link Equipment to ResidenceInfo--><g id="link_Equipment_ResidenceInfo"><path codeLine="163" d="M210.41,1521.5 C218.14,1521.5 229.07,1521.5 240.45,1521.5 " fill="none" id="Equipment-backto-ResidenceInfo" style="stroke:#181818;stroke-width:1.0;"/><polygon fill="#181818" points="205.17,1521.5,214.17,1525.5,210.17,1521.5,214.17,1517.5,205.17,1521.5" style="stroke:#181818;stroke-width:1.0;"/></g><!--link ResidenceInfo to House--><g id="link_ResidenceInfo_House"><path codeLine="164" d="M352.04,1582.44 C341.88,1600.35 330.72,1620.06 320.42,1638.24 " fill="none" id="ResidenceInfo-to-House" style="stroke:#181818;stroke-width:1.0;"/><polygon fill="#181818" points="317.82,1642.82,325.7479,1636.9763,320.293,1638.4744,318.7949,1633.0195,317.82,1642.82" style="stroke:#181818;stroke-width:1.0;"/></g><!--link ResidenceInfo to Apartment--><g id="link_ResidenceInfo_Apartment"><path codeLine="165" d="M419.96,1582.44 C437.42,1613.25 457.89,1649.36 471.78,1673.88 " fill="none" id="ResidenceInfo-to-Apartment" style="stroke:#181818;stroke-width:1.0;"/><polygon fill="#181818" points="474.3,1678.32,473.3251,1668.5195,471.827,1673.9744,466.3721,1672.4763,474.3,1678.32" style="stroke:#181818;stroke-width:1.0;"/></g><!--SRC=[xLOxRzim4DxvAuWkSL3RQ3jwCE0u2MeWQGoxsRBGqjac8fCAIQLrW_xt7lKaAIbECbURxhvxyDxwaOkKANP8PFG8COrXoxB4N4jXrlmFq6zVo9ckCFGWXOpsIXw06fK1QJWfYnxP3jRcc01L41acTeaBq7iMorzSxEYM9Thb95o0EQP0KvaSxOzhiMPAPIHnfAA4QJqpHl5DPc0HIP7xY-uci3NKIAhuRczepAqtN0f2I2v3RxWsIoLJKEPulw0lVxiOSmo0aaa2YhuGYj_d7lPWonC3QWMfrDn8THpIj0GrjFDInGxCTGxNWugKD5evw85zwzts8jFuRgs7nMzbTVWWH7ROW484n4hAWnvg30n6TQuugkMiK3kobgo_jIpglZXMjWCZz444TcZB36tPgSDMFnDjbC4QUSI1y_o5q5WQ4GpEwSG3DP1bAto3Llmy7dfI-RBslMnoEvS7MpSeCTCHY1X1IyKZg98RvNmOEEzgH2xX_J9pRewp9Dsp3HWUVK1a1S-OgxSPMnjcu9tM0fdJvcwPm0wVnS-sd3GSG9YwDvgq1Vcs2O7Obc9l-RMghxVuRi7iPUneVrNlnygwm_E1xT7NEg28JE76_v3a8V7AfEbM9pWUGhk55hRu2-dHMqsRDMu1N2mn5lJTraEuK-ef0rsBn3BRuAPARJztA2dHZNWLi8NOoch6bJgmJPXFYJ4ujfddw04er_bOOHfyh_C-z2XMr2DSeZvqr7LdButSAPRkWnZShnODweQ9s0tU2ZIF0QUlVKKzgZa6igu2PlPv6NJnoWhfO2sPmiMyM-CLW9EyjdVrbF6qAr7enqwmV2lNuEyoqr01Dr8cm0HDvDRub0qhC-igr9cu-etbuWKRvvUnIBi4IB3qnsCyHiIqPwUJCs-dZQR-ZflWsuijvkjrReRnEBy-MeBAtNYzieLlNVDsGWyvzOt2vKXgf4ZOMtGqAZtzzFLJk3wxq0NmfpTNJk4gFxjmzbehi3-2EcjWn4z7gJjKretg6KHXYXq_mY2GW83WB9tsNXGduS4rqO4lCz9t6NH8J4-T4HqoHQ7q7WGdtz5zG13YbTvuxFT0czkgYGaDJsfIAVMRmKhtf1ULi9x4zsdolEnJQoFjBnWVcWEgvK6gdME9xW8XnFqhPPpH7BBBUcY6VWWeYhTSBstbTWzORzpfNmdLCxh5dnOZkODUZrP2_W40]--></g></svg>