<?xml version="1.0" encoding="UTF-8" standalone="no"?><svg xmlns="http://www.w3.org/2000/svg" xmlns:xlink="http://www.w3.org/1999/xlink" contentStyleType="text/css" height="857px" preserveAspectRatio="none" style="width:527px;height:857px;background:#FFFFFF;" version="1.1" viewBox="0 0 527 857" width="527px" zoomAndPan="magnify"><defs/><g><text fill="#000000" font-family="sans-serif" font-size="14" font-weight="bold" lengthAdjust="spacing" textLength="295" x="117" y="28.5352">System Sequence Diagram (SSD) - US008</text><rect fill="#FFFFFF" height="623.9844" style="stroke:#181818;stroke-width:1.0;" width="10" x="46" y="136.043"/><rect fill="#FFFFFF" height="37.5547" style="stroke:#181818;stroke-width:1.0;" width="10" x="461" y="189.1523"/><rect fill="#FFFFFF" height="37.5547" style="stroke:#181818;stroke-width:1.0;" width="10" x="461" y="264.2617"/><rect fill="#FFFFFF" height="37.5547" style="stroke:#181818;stroke-width:1.0;" width="10" x="461" y="380.4805"/><rect fill="#FFFFFF" height="37.5547" style="stroke:#181818;stroke-width:1.0;" width="10" x="461" y="455.5898"/><rect fill="#FFFFFF" height="37.5547" style="stroke:#181818;stroke-width:1.0;" width="10" x="461" y="530.6992"/><rect fill="#FFFFFF" height="37.5547" style="stroke:#181818;stroke-width:1.0;" width="10" x="461" y="631.3633"/><rect fill="#FFFFFF" height="37.5547" style="stroke:#181818;stroke-width:1.0;" width="10" x="461" y="706.4727"/><rect fill="none" height="435.2109" style="stroke:#000000;stroke-width:1.5;" width="510" x="10" y="316.8164"/><line style="stroke:#181818;stroke-width:0.5;stroke-dasharray:5.0,5.0;" x1="51" x2="51" y1="126.043" y2="769.0273"/><line style="stroke:#181818;stroke-width:0.5;stroke-dasharray:5.0,5.0;" x1="466" x2="466" y1="126.043" y2="769.0273"/><text fill="#000000" font-family="sans-serif" font-size="20" lengthAdjust="spacing" textLength="56" x="20" y="121.8242">Agent</text><ellipse cx="51" cy="50.9883" fill="#E3E3E3" rx="8" ry="8" style="stroke:#181818;stroke-width:0.5;"/><path d="M51,58.9883 L51,85.9883 M38,66.9883 L64,66.9883 M51,85.9883 L38,100.9883 M51,85.9883 L64,100.9883 " fill="none" style="stroke:#181818;stroke-width:0.5;"/><text fill="#000000" font-family="sans-serif" font-size="20" lengthAdjust="spacing" textLength="56" x="20" y="787.3633">Agent</text><ellipse cx="51" cy="800.082" fill="#E3E3E3" rx="8" ry="8" style="stroke:#181818;stroke-width:0.5;"/><path d="M51,808.082 L51,835.082 M38,816.082 L64,816.082 M51,835.082 L38,850.082 M51,835.082 L64,850.082 " fill="none" style="stroke:#181818;stroke-width:0.5;"/><rect fill="#E3E3E3" height="37.5547" rx="2.5" ry="2.5" style="stroke:#181818;stroke-width:0.5;" width="88" x="422" y="87.4883"/><text fill="#000000" font-family="sans-serif" font-size="20" lengthAdjust="spacing" textLength="74" x="429" y="113.8242">:System</text><rect fill="#E3E3E3" height="37.5547" rx="2.5" ry="2.5" style="stroke:#181818;stroke-width:0.5;" width="88" x="422" y="768.0273"/><text fill="#000000" font-family="sans-serif" font-size="20" lengthAdjust="spacing" textLength="74" x="429" y="794.3633">:System</text><rect fill="#FFFFFF" height="623.9844" style="stroke:#181818;stroke-width:1.0;" width="10" x="46" y="136.043"/><rect fill="#FFFFFF" height="37.5547" style="stroke:#181818;stroke-width:1.0;" width="10" x="461" y="189.1523"/><rect fill="#FFFFFF" height="37.5547" style="stroke:#181818;stroke-width:1.0;" width="10" x="461" y="264.2617"/><rect fill="#FFFFFF" height="37.5547" style="stroke:#181818;stroke-width:1.0;" width="10" x="461" y="380.4805"/><rect fill="#FFFFFF" height="37.5547" style="stroke:#181818;stroke-width:1.0;" width="10" x="461" y="455.5898"/><rect fill="#FFFFFF" height="37.5547" style="stroke:#181818;stroke-width:1.0;" width="10" x="461" y="530.6992"/><rect fill="#FFFFFF" height="37.5547" style="stroke:#181818;stroke-width:1.0;" width="10" x="461" y="631.3633"/><rect fill="#FFFFFF" height="37.5547" style="stroke:#181818;stroke-width:1.0;" width="10" x="461" y="706.4727"/><polygon fill="#181818" points="449,185.1523,459,189.1523,449,193.1523,453,189.1523" style="stroke:#181818;stroke-width:1.0;"/><line style="stroke:#181818;stroke-width:1.0;" x1="56" x2="455" y1="189.1523" y2="189.1523"/><text fill="#000000" font-family="sans-serif" font-size="20" font-weight="bold" lengthAdjust="spacing" textLength="13" x="63" y="171.1563">1</text><text fill="#000000" font-family="sans-serif" font-size="20" lengthAdjust="spacing" textLength="152" x="80" y="159.3789">asks to view the</text><text fill="#000000" font-family="sans-serif" font-size="20" lengthAdjust="spacing" textLength="191" x="86" y="182.9336">agent's requests list</text><polygon fill="#181818" points="67,222.707,57,226.707,67,230.707,63,226.707" style="stroke:#181818;stroke-width:1.0;"/><line style="stroke:#181818;stroke-width:1.0;stroke-dasharray:2.0,2.0;" x1="61" x2="465" y1="226.707" y2="226.707"/><text fill="#000000" font-family="sans-serif" font-size="20" font-weight="bold" lengthAdjust="spacing" textLength="13" x="73" y="220.4883">2</text><text fill="#000000" font-family="sans-serif" font-size="20" lengthAdjust="spacing" textLength="202" x="90" y="220.4883">displays requests list</text><polygon fill="#181818" points="449,260.2617,459,264.2617,449,268.2617,453,264.2617" style="stroke:#181818;stroke-width:1.0;"/><line style="stroke:#181818;stroke-width:1.0;" x1="56" x2="455" y1="264.2617" y2="264.2617"/><text fill="#000000" font-family="sans-serif" font-size="20" font-weight="bold" lengthAdjust="spacing" textLength="13" x="63" y="258.043">3</text><text fill="#000000" font-family="sans-serif" font-size="20" lengthAdjust="spacing" textLength="184" x="80" y="258.043">selects one request</text><polygon fill="#181818" points="67,297.8164,57,301.8164,67,305.8164,63,301.8164" style="stroke:#181818;stroke-width:1.0;"/><line style="stroke:#181818;stroke-width:1.0;stroke-dasharray:2.0,2.0;" x1="61" x2="465" y1="301.8164" y2="301.8164"/><text fill="#000000" font-family="sans-serif" font-size="20" font-weight="bold" lengthAdjust="spacing" textLength="13" x="73" y="295.5977">4</text><text fill="#000000" font-family="sans-serif" font-size="20" lengthAdjust="spacing" textLength="361" x="90" y="295.5977">shows request and asks for validation</text><path d="M10,316.8164 L82,316.8164 L82,332.3711 L72,342.3711 L10,342.3711 L10,316.8164 " fill="#EEEEEE" style="stroke:#000000;stroke-width:1.5;"/><rect fill="none" height="435.2109" style="stroke:#000000;stroke-width:1.5;" width="510" x="10" y="316.8164"/><text fill="#000000" font-family="sans-serif" font-size="20" font-weight="bold" lengthAdjust="spacing" textLength="27" x="25" y="337.1523">alt</text><text fill="#000000" font-family="sans-serif" font-size="20" font-weight="bold" lengthAdjust="spacing" textLength="220" x="97" y="338.1523">[request is validated]</text><polygon fill="#181818" points="449,376.4805,459,380.4805,449,384.4805,453,380.4805" style="stroke:#181818;stroke-width:1.0;"/><line style="stroke:#181818;stroke-width:1.0;" x1="56" x2="455" y1="380.4805" y2="380.4805"/><text fill="#000000" font-family="sans-serif" font-size="20" font-weight="bold" lengthAdjust="spacing" textLength="13" x="63" y="374.2617">5</text><text fill="#000000" font-family="sans-serif" font-size="20" lengthAdjust="spacing" textLength="163" x="80" y="374.2617">validates request</text><polygon fill="#181818" points="67,414.0352,57,418.0352,67,422.0352,63,418.0352" style="stroke:#181818;stroke-width:1.0;"/><line style="stroke:#181818;stroke-width:1.0;stroke-dasharray:2.0,2.0;" x1="61" x2="465" y1="418.0352" y2="418.0352"/><text fill="#000000" font-family="sans-serif" font-size="20" font-weight="bold" lengthAdjust="spacing" textLength="13" x="73" y="411.8164">6</text><text fill="#000000" font-family="sans-serif" font-size="20" lengthAdjust="spacing" textLength="258" x="90" y="411.8164">displays commission types</text><polygon fill="#181818" points="449,451.5898,459,455.5898,449,459.5898,453,455.5898" style="stroke:#181818;stroke-width:1.0;"/><line style="stroke:#181818;stroke-width:1.0;" x1="56" x2="455" y1="455.5898" y2="455.5898"/><text fill="#000000" font-family="sans-serif" font-size="20" font-weight="bold" lengthAdjust="spacing" textLength="13" x="63" y="449.3711">7</text><text fill="#000000" font-family="sans-serif" font-size="20" lengthAdjust="spacing" textLength="234" x="80" y="449.3711">selects commission type</text><polygon fill="#181818" points="67,489.1445,57,493.1445,67,497.1445,63,493.1445" style="stroke:#181818;stroke-width:1.0;"/><line style="stroke:#181818;stroke-width:1.0;stroke-dasharray:2.0,2.0;" x1="61" x2="465" y1="493.1445" y2="493.1445"/><text fill="#000000" font-family="sans-serif" font-size="20" font-weight="bold" lengthAdjust="spacing" textLength="13" x="73" y="486.9258">8</text><text fill="#000000" font-family="sans-serif" font-size="20" lengthAdjust="spacing" textLength="322" x="90" y="486.9258">requests data (commission value)</text><polygon fill="#181818" points="449,526.6992,459,530.6992,449,534.6992,453,530.6992" style="stroke:#181818;stroke-width:1.0;"/><line style="stroke:#181818;stroke-width:1.0;" x1="56" x2="455" y1="530.6992" y2="530.6992"/><text fill="#000000" font-family="sans-serif" font-size="20" font-weight="bold" lengthAdjust="spacing" textLength="13" x="63" y="524.4805">9</text><text fill="#000000" font-family="sans-serif" font-size="20" lengthAdjust="spacing" textLength="326" x="80" y="524.4805">types requested data and submits</text><polygon fill="#181818" points="67,564.2539,57,568.2539,67,572.2539,63,568.2539" style="stroke:#181818;stroke-width:1.0;"/><line style="stroke:#181818;stroke-width:1.0;stroke-dasharray:2.0,2.0;" x1="61" x2="465" y1="568.2539" y2="568.2539"/><text fill="#000000" font-family="sans-serif" font-size="20" font-weight="bold" lengthAdjust="spacing" textLength="26" x="73" y="562.0352">10</text><text fill="#000000" font-family="sans-serif" font-size="20" lengthAdjust="spacing" textLength="237" x="103" y="562.0352">Shows operation success</text><line style="stroke:#000000;stroke-width:1.0;stroke-dasharray:2.0,2.0;" x1="10" x2="520" y1="577.2539" y2="577.2539"/><text fill="#000000" font-family="sans-serif" font-size="20" font-weight="bold" lengthAdjust="spacing" textLength="208" x="15" y="596.5898">[request is rejected]</text><polygon fill="#181818" points="449,627.3633,459,631.3633,449,635.3633,453,631.3633" style="stroke:#181818;stroke-width:1.0;"/><line style="stroke:#181818;stroke-width:1.0;stroke-dasharray:2.0,2.0;" x1="56" x2="455" y1="631.3633" y2="631.3633"/><text fill="#000000" font-family="sans-serif" font-size="20" font-weight="bold" lengthAdjust="spacing" textLength="26" x="63" y="625.1445">11</text><text fill="#000000" font-family="sans-serif" font-size="20" lengthAdjust="spacing" textLength="141" x="93" y="625.1445">rejects request</text><polygon fill="#181818" points="67,664.918,57,668.918,67,672.918,63,668.918" style="stroke:#181818;stroke-width:1.0;"/><line style="stroke:#181818;stroke-width:1.0;stroke-dasharray:2.0,2.0;" x1="61" x2="465" y1="668.918" y2="668.918"/><text fill="#000000" font-family="sans-serif" font-size="20" font-weight="bold" lengthAdjust="spacing" textLength="26" x="73" y="662.6992">12</text><text fill="#000000" font-family="sans-serif" font-size="20" lengthAdjust="spacing" textLength="351" x="103" y="662.6992">requests data (rejection justification)</text><polygon fill="#181818" points="449,702.4727,459,706.4727,449,710.4727,453,706.4727" style="stroke:#181818;stroke-width:1.0;"/><line style="stroke:#181818;stroke-width:1.0;" x1="56" x2="455" y1="706.4727" y2="706.4727"/><text fill="#000000" font-family="sans-serif" font-size="20" font-weight="bold" lengthAdjust="spacing" textLength="26" x="63" y="700.2539">13</text><text fill="#000000" font-family="sans-serif" font-size="20" lengthAdjust="spacing" textLength="302" x="93" y="700.2539">types request data and submits</text><polygon fill="#181818" points="67,740.0273,57,744.0273,67,748.0273,63,744.0273" style="stroke:#181818;stroke-width:1.0;"/><line style="stroke:#181818;stroke-width:1.0;stroke-dasharray:2.0,2.0;" x1="61" x2="465" y1="744.0273" y2="744.0273"/><text fill="#000000" font-family="sans-serif" font-size="20" font-weight="bold" lengthAdjust="spacing" textLength="26" x="73" y="737.8086">14</text><text fill="#000000" font-family="sans-serif" font-size="20" lengthAdjust="spacing" textLength="236" x="103" y="737.8086">shows operation success</text><!--SRC=[dPEzRkim38LtFmMHvRP3WA3JHOO21Og-W96j2oip3XjPSaqwGUxJNrgk0xUn-nDFWaaTVZm7aZs76XkiV7HxAg2WBRPUdsBGdFyHtAqo6LgWYY6wNHCh0crQ6bLgT7iiATUJ9sZ8AORIZnjaXqKySYXXYrueovJLMlEJA5MGqrjBmH4yCfPT-qsUFzx24ZRvQlKtox3L6DhgXHexEuqDB1vA2he05DY8_ROfoevh30gBTI-RglqnNUC3AlNj6TZNdM1vFq2ihNqle14EJ4VG7Jq7m6xC7x6TZ51KmBDekjrzPz5Xob1ubroQUfgoXeAbzdYQKofeKki2KSYRkm8nqA1q3Otiul6C0XYAVlUjENj0pmKgn_0LN2-ENiyYBCDLAcRWXxfyGB_6H1UhYaKC4lHKarpjuoUXxxsS1Zk7QkiXt8nKRUUMRd_DbxOQPBjtsUbsEKdxKh5AkZObTScMfwnZJKrArHIS8qcMJGQRWCWUwJZQXbxDhu_9Zddx-ZV1PZyohvVgI5zRKTwoIzozXrVvT-dURCHpJsNIlZaQ2kPJzXy0]--></g></svg>