<?xml version="1.0" encoding="UTF-8" standalone="no"?><svg xmlns="http://www.w3.org/2000/svg" xmlns:xlink="http://www.w3.org/1999/xlink" contentStyleType="text/css" height="1192px" preserveAspectRatio="none" style="width:1942px;height:1192px;background:#FFFFFF;" version="1.1" viewBox="0 0 1942 1192" width="1942px" zoomAndPan="magnify"><defs/><g><rect fill="#FFFFFF" height="996.5313" style="stroke:#181818;stroke-width:1.0;" width="10" x="87" y="98.5547"/><rect fill="#FFFFFF" height="61.1094" style="stroke:#181818;stroke-width:1.0;" width="10" x="540" y="128.1094"/><rect fill="#FFFFFF" height="859.3125" style="stroke:#181818;stroke-width:1.0;" width="10" x="540" y="226.7734"/><rect fill="#FFFFFF" height="758.6484" style="stroke:#181818;stroke-width:1.0;" width="10" x="832" y="336.4375"/><rect fill="#FFFFFF" height="37.5547" style="stroke:#181818;stroke-width:1.0;" width="10" x="1013" y="373.9922"/><rect fill="#FFFFFF" height="37.5547" style="stroke:#181818;stroke-width:1.0;" width="10" x="1163" y="449.1016"/><rect fill="#FFFFFF" height="37.5547" style="stroke:#181818;stroke-width:1.0;" width="10" x="1454" y="524.2109"/><rect fill="#FFFFFF" height="411.6563" style="stroke:#181818;stroke-width:1.0;" width="10" x="1454" y="599.3203"/><rect fill="#FFFFFF" height="37.5547" style="stroke:#181818;stroke-width:1.0;" width="10" x="1657" y="728.5391"/><rect fill="#FFFFFF" height="37.5547" style="stroke:#181818;stroke-width:1.0;" width="10" x="1786" y="805.6484"/><rect fill="#FFFFFF" height="37.5547" style="stroke:#181818;stroke-width:1.0;" width="10" x="1890" y="928.8672"/><rect fill="none" height="186.3281" style="stroke:#000000;stroke-width:1.5;" width="543.5" x="1320" y="664.875"/><rect fill="none" height="109.2188" style="stroke:#000000;stroke-width:1.5;" width="616.5" x="1320" y="865.2031"/><line style="stroke:#181818;stroke-width:0.5;stroke-dasharray:5.0,5.0;" x1="92" x2="92" y1="88.5547" y2="1104.0859"/><line style="stroke:#181818;stroke-width:0.5;stroke-dasharray:5.0,5.0;" x1="544.5" x2="544.5" y1="88.5547" y2="1104.0859"/><line style="stroke:#181818;stroke-width:0.5;stroke-dasharray:5.0,5.0;" x1="836.5" x2="836.5" y1="269.0508" y2="1104.0859"/><line style="stroke:#181818;stroke-width:0.5;stroke-dasharray:5.0,5.0;" x1="1017.5" x2="1017.5" y1="88.5547" y2="1104.0859"/><line style="stroke:#181818;stroke-width:0.5;stroke-dasharray:5.0,5.0;" x1="1167.5" x2="1167.5" y1="88.5547" y2="1104.0859"/><line style="stroke:#181818;stroke-width:0.5;stroke-dasharray:5.0,5.0;" x1="1459" x2="1459" y1="88.5547" y2="1104.0859"/><line style="stroke:#181818;stroke-width:0.5;stroke-dasharray:5.0,5.0;" x1="1661.5" x2="1661.5" y1="88.5547" y2="1104.0859"/><line style="stroke:#181818;stroke-width:0.5;stroke-dasharray:5.0,5.0;" x1="1790.5" x2="1790.5" y1="88.5547" y2="1104.0859"/><line style="stroke:#181818;stroke-width:0.5;stroke-dasharray:5.0,5.0;" x1="1894.5" x2="1894.5" y1="88.5547" y2="1104.0859"/><text fill="#000000" font-family="sans-serif" font-size="20" lengthAdjust="spacing" textLength="168" x="5" y="84.3359">Network Manager</text><ellipse cx="92" cy="13.5" fill="#E3E3E3" rx="8" ry="8" style="stroke:#181818;stroke-width:0.5;"/><path d="M92,21.5 L92,48.5 M79,29.5 L105,29.5 M92,48.5 L79,63.5 M92,48.5 L105,63.5 " fill="none" style="stroke:#181818;stroke-width:0.5;"/><text fill="#000000" font-family="sans-serif" font-size="20" lengthAdjust="spacing" textLength="168" x="5" y="1122.4219">Network Manager</text><ellipse cx="92" cy="1135.1406" fill="#E3E3E3" rx="8" ry="8" style="stroke:#181818;stroke-width:0.5;"/><path d="M92,1143.1406 L92,1170.1406 M79,1151.1406 L105,1151.1406 M92,1170.1406 L79,1185.1406 M92,1170.1406 L105,1185.1406 " fill="none" style="stroke:#181818;stroke-width:0.5;"/><rect fill="#E3E3E3" height="37.5547" rx="2.5" ry="2.5" style="stroke:#181818;stroke-width:0.5;" width="127" x="481.5" y="50"/><text fill="#000000" font-family="sans-serif" font-size="20" lengthAdjust="spacing" textLength="113" x="488.5" y="76.3359">:ListDealsUI</text><rect fill="#E3E3E3" height="37.5547" rx="2.5" ry="2.5" style="stroke:#181818;stroke-width:0.5;" width="127" x="481.5" y="1103.0859"/><text fill="#000000" font-family="sans-serif" font-size="20" lengthAdjust="spacing" textLength="113" x="488.5" y="1129.4219">:ListDealsUI</text><rect fill="#E3E3E3" height="37.5547" rx="2.5" ry="2.5" style="stroke:#181818;stroke-width:0.5;" width="203" x="735.5" y="1103.0859"/><text fill="#000000" font-family="sans-serif" font-size="20" lengthAdjust="spacing" textLength="189" x="742.5" y="1129.4219">:ListDealsController</text><rect fill="#E3E3E3" height="37.5547" rx="2.5" ry="2.5" style="stroke:#181818;stroke-width:0.5;" width="139" x="948.5" y="50"/><text fill="#000000" font-family="sans-serif" font-size="20" lengthAdjust="spacing" textLength="125" x="955.5" y="76.3359">:Repositories</text><rect fill="#E3E3E3" height="37.5547" rx="2.5" ry="2.5" style="stroke:#181818;stroke-width:0.5;" width="139" x="948.5" y="1103.0859"/><text fill="#000000" font-family="sans-serif" font-size="20" lengthAdjust="spacing" textLength="125" x="955.5" y="1129.4219">:Repositories</text><rect fill="#E3E3E3" height="61.1094" rx="2.5" ry="2.5" style="stroke:#181818;stroke-width:0.5;" width="139" x="1098.5" y="26.4453"/><text fill="#000000" font-family="sans-serif" font-size="20" lengthAdjust="spacing" textLength="114" x="1111" y="52.7813">repositories</text><text fill="#000000" font-family="sans-serif" font-size="20" lengthAdjust="spacing" textLength="125" x="1105.5" y="76.3359">:Repositories</text><rect fill="#E3E3E3" height="61.1094" rx="2.5" ry="2.5" style="stroke:#181818;stroke-width:0.5;" width="139" x="1098.5" y="1103.0859"/><text fill="#000000" font-family="sans-serif" font-size="20" lengthAdjust="spacing" textLength="114" x="1111" y="1129.4219">repositories</text><text fill="#000000" font-family="sans-serif" font-size="20" lengthAdjust="spacing" textLength="125" x="1105.5" y="1152.9766">:Repositories</text><rect fill="#E3E3E3" height="61.1094" rx="2.5" ry="2.5" style="stroke:#181818;stroke-width:0.5;" width="258" x="1330" y="26.4453"/><text fill="#000000" font-family="sans-serif" font-size="20" lengthAdjust="spacing" textLength="244" x="1337" y="52.7813">advertisementRepository:</text><text fill="#000000" font-family="sans-serif" font-size="20" lengthAdjust="spacing" textLength="241" x="1338.5" y="76.3359">AdvertisementRepository</text><rect fill="#E3E3E3" height="61.1094" rx="2.5" ry="2.5" style="stroke:#181818;stroke-width:0.5;" width="258" x="1330" y="1103.0859"/><text fill="#000000" font-family="sans-serif" font-size="20" lengthAdjust="spacing" textLength="244" x="1337" y="1129.4219">advertisementRepository:</text><text fill="#000000" font-family="sans-serif" font-size="20" lengthAdjust="spacing" textLength="241" x="1338.5" y="1152.9766">AdvertisementRepository</text><rect fill="#E3E3E3" height="37.5547" rx="2.5" ry="2.5" style="stroke:#181818;stroke-width:0.5;" width="113" x="1605.5" y="50"/><text fill="#000000" font-family="sans-serif" font-size="20" lengthAdjust="spacing" textLength="99" x="1612.5" y="76.3359">:RadixSort</text><rect fill="#E3E3E3" height="37.5547" rx="2.5" ry="2.5" style="stroke:#181818;stroke-width:0.5;" width="113" x="1605.5" y="1103.0859"/><text fill="#000000" font-family="sans-serif" font-size="20" lengthAdjust="spacing" textLength="99" x="1612.5" y="1129.4219">:RadixSort</text><rect fill="#E3E3E3" height="37.5547" rx="2.5" ry="2.5" style="stroke:#181818;stroke-width:0.5;" width="125" x="1728.5" y="50"/><text fill="#000000" font-family="sans-serif" font-size="20" lengthAdjust="spacing" textLength="111" x="1735.5" y="76.3359">:BubbleSort</text><rect fill="#E3E3E3" height="37.5547" rx="2.5" ry="2.5" style="stroke:#181818;stroke-width:0.5;" width="125" x="1728.5" y="1103.0859"/><text fill="#000000" font-family="sans-serif" font-size="20" lengthAdjust="spacing" textLength="111" x="1735.5" y="1129.4219">:BubbleSort</text><rect fill="#E3E3E3" height="37.5547" rx="2.5" ry="2.5" style="stroke:#181818;stroke-width:0.5;" width="63" x="1863.5" y="50"/><text fill="#000000" font-family="sans-serif" font-size="20" lengthAdjust="spacing" textLength="49" x="1870.5" y="76.3359">:Utils</text><rect fill="#E3E3E3" height="37.5547" rx="2.5" ry="2.5" style="stroke:#181818;stroke-width:0.5;" width="63" x="1863.5" y="1103.0859"/><text fill="#000000" font-family="sans-serif" font-size="20" lengthAdjust="spacing" textLength="49" x="1870.5" y="1129.4219">:Utils</text><rect fill="#FFFFFF" height="996.5313" style="stroke:#181818;stroke-width:1.0;" width="10" x="87" y="98.5547"/><rect fill="#FFFFFF" height="61.1094" style="stroke:#181818;stroke-width:1.0;" width="10" x="540" y="128.1094"/><rect fill="#FFFFFF" height="859.3125" style="stroke:#181818;stroke-width:1.0;" width="10" x="540" y="226.7734"/><rect fill="#FFFFFF" height="758.6484" style="stroke:#181818;stroke-width:1.0;" width="10" x="832" y="336.4375"/><rect fill="#FFFFFF" height="37.5547" style="stroke:#181818;stroke-width:1.0;" width="10" x="1013" y="373.9922"/><rect fill="#FFFFFF" height="37.5547" style="stroke:#181818;stroke-width:1.0;" width="10" x="1163" y="449.1016"/><rect fill="#FFFFFF" height="37.5547" style="stroke:#181818;stroke-width:1.0;" width="10" x="1454" y="524.2109"/><rect fill="#FFFFFF" height="411.6563" style="stroke:#181818;stroke-width:1.0;" width="10" x="1454" y="599.3203"/><rect fill="#FFFFFF" height="37.5547" style="stroke:#181818;stroke-width:1.0;" width="10" x="1657" y="728.5391"/><rect fill="#FFFFFF" height="37.5547" style="stroke:#181818;stroke-width:1.0;" width="10" x="1786" y="805.6484"/><rect fill="#FFFFFF" height="37.5547" style="stroke:#181818;stroke-width:1.0;" width="10" x="1890" y="928.8672"/><polygon fill="#181818" points="528,124.1094,538,128.1094,528,132.1094,532,128.1094" style="stroke:#181818;stroke-width:1.0;"/><line style="stroke:#181818;stroke-width:1.0;" x1="97" x2="534" y1="128.1094" y2="128.1094"/><text fill="#000000" font-family="sans-serif" font-size="20" font-weight="bold" lengthAdjust="spacing" textLength="13" x="104" y="121.8906">1</text><text fill="#000000" font-family="sans-serif" font-size="20" lengthAdjust="spacing" textLength="249" x="121" y="121.8906">asks to list all deals made</text><polygon fill="#181818" points="108,185.2188,98,189.2188,108,193.2188,104,189.2188" style="stroke:#181818;stroke-width:1.0;"/><line style="stroke:#181818;stroke-width:1.0;stroke-dasharray:2.0,2.0;" x1="102" x2="544" y1="189.2188" y2="189.2188"/><text fill="#000000" font-family="sans-serif" font-size="20" font-weight="bold" lengthAdjust="spacing" textLength="13" x="114" y="171.2227">2</text><text fill="#000000" font-family="sans-serif" font-size="20" lengthAdjust="spacing" textLength="254" x="131" y="159.4453">displays sort methods and</text><text fill="#000000" font-family="sans-serif" font-size="20" lengthAdjust="spacing" textLength="396" x="137" y="183">list order options(ascending/descending)</text><polygon fill="#181818" points="528,222.7734,538,226.7734,528,230.7734,532,226.7734" style="stroke:#181818;stroke-width:1.0;"/><line style="stroke:#181818;stroke-width:1.0;" x1="97" x2="534" y1="226.7734" y2="226.7734"/><text fill="#000000" font-family="sans-serif" font-size="20" font-weight="bold" lengthAdjust="spacing" textLength="13" x="104" y="220.5547">3</text><text fill="#000000" font-family="sans-serif" font-size="20" lengthAdjust="spacing" textLength="113" x="121" y="220.5547">selects data</text><polygon fill="#181818" points="723.5,260.3281,733.5,264.3281,723.5,268.3281,727.5,264.3281" style="stroke:#181818;stroke-width:1.0;"/><line style="stroke:#181818;stroke-width:1.0;" x1="550" x2="729.5" y1="264.3281" y2="264.3281"/><text fill="#000000" font-family="sans-serif" font-size="20" font-weight="bold" lengthAdjust="spacing" textLength="13" x="557" y="258.1094">4</text><text fill="#000000" font-family="sans-serif" font-size="20" lengthAdjust="spacing" textLength="58" x="574" y="258.1094">create</text><rect fill="#E3E3E3" height="37.5547" rx="2.5" ry="2.5" style="stroke:#181818;stroke-width:0.5;" width="203" x="735.5" y="234.7734"/><text fill="#000000" font-family="sans-serif" font-size="20" lengthAdjust="spacing" textLength="189" x="742.5" y="261.1094">:ListDealsController</text><polygon fill="#181818" points="820,332.4375,830,336.4375,820,340.4375,824,336.4375" style="stroke:#181818;stroke-width:1.0;"/><line style="stroke:#181818;stroke-width:1.0;" x1="550" x2="826" y1="336.4375" y2="336.4375"/><text fill="#000000" font-family="sans-serif" font-size="20" font-weight="bold" lengthAdjust="spacing" textLength="13" x="557" y="318.4414">5</text><text fill="#000000" font-family="sans-serif" font-size="20" lengthAdjust="spacing" textLength="230" x="574" y="306.6641">listAllDeals(sortMethod,</text><text fill="#000000" font-family="sans-serif" font-size="20" lengthAdjust="spacing" textLength="240" x="580" y="330.2188">ascendingOrDescending)</text><polygon fill="#181818" points="1001,369.9922,1011,373.9922,1001,377.9922,1005,373.9922" style="stroke:#181818;stroke-width:1.0;"/><line style="stroke:#181818;stroke-width:1.0;" x1="842" x2="1007" y1="373.9922" y2="373.9922"/><text fill="#000000" font-family="sans-serif" font-size="20" font-weight="bold" lengthAdjust="spacing" textLength="13" x="849" y="367.7734">6</text><text fill="#000000" font-family="sans-serif" font-size="20" lengthAdjust="spacing" textLength="123" x="866" y="367.7734">getInstance()</text><polygon fill="#181818" points="853,407.5469,843,411.5469,853,415.5469,849,411.5469" style="stroke:#181818;stroke-width:1.0;"/><line style="stroke:#181818;stroke-width:1.0;stroke-dasharray:2.0,2.0;" x1="847" x2="1017" y1="411.5469" y2="411.5469"/><text fill="#000000" font-family="sans-serif" font-size="20" font-weight="bold" lengthAdjust="spacing" textLength="13" x="859" y="405.3281">7</text><text fill="#000000" font-family="sans-serif" font-size="20" lengthAdjust="spacing" textLength="114" x="876" y="405.3281">repositories</text><polygon fill="#181818" points="1151,445.1016,1161,449.1016,1151,453.1016,1155,449.1016" style="stroke:#181818;stroke-width:1.0;"/><line style="stroke:#181818;stroke-width:1.0;" x1="842" x2="1157" y1="449.1016" y2="449.1016"/><text fill="#000000" font-family="sans-serif" font-size="20" font-weight="bold" lengthAdjust="spacing" textLength="13" x="849" y="442.8828">8</text><text fill="#000000" font-family="sans-serif" font-size="20" lengthAdjust="spacing" textLength="285" x="866" y="442.8828">getAdvertisementRepository()</text><polygon fill="#181818" points="853,482.6563,843,486.6563,853,490.6563,849,486.6563" style="stroke:#181818;stroke-width:1.0;"/><line style="stroke:#181818;stroke-width:1.0;stroke-dasharray:2.0,2.0;" x1="847" x2="1167" y1="486.6563" y2="486.6563"/><text fill="#000000" font-family="sans-serif" font-size="20" font-weight="bold" lengthAdjust="spacing" textLength="13" x="859" y="480.4375">9</text><text fill="#000000" font-family="sans-serif" font-size="20" lengthAdjust="spacing" textLength="241" x="876" y="480.4375">AdvertisementRepository</text><polygon fill="#181818" points="1442,520.2109,1452,524.2109,1442,528.2109,1446,524.2109" style="stroke:#181818;stroke-width:1.0;"/><line style="stroke:#181818;stroke-width:1.0;" x1="842" x2="1448" y1="524.2109" y2="524.2109"/><text fill="#000000" font-family="sans-serif" font-size="20" font-weight="bold" lengthAdjust="spacing" textLength="26" x="849" y="517.9922">10</text><text fill="#000000" font-family="sans-serif" font-size="20" lengthAdjust="spacing" textLength="123" x="879" y="517.9922">getAllDeals()</text><polygon fill="#181818" points="853,557.7656,843,561.7656,853,565.7656,849,561.7656" style="stroke:#181818;stroke-width:1.0;"/><line style="stroke:#181818;stroke-width:1.0;stroke-dasharray:2.0,2.0;" x1="847" x2="1458" y1="561.7656" y2="561.7656"/><text fill="#000000" font-family="sans-serif" font-size="20" font-weight="bold" lengthAdjust="spacing" textLength="26" x="859" y="555.5469">11</text><text fill="#000000" font-family="sans-serif" font-size="20" lengthAdjust="spacing" textLength="75" x="889" y="555.5469">dealList</text><polygon fill="#181818" points="1442,595.3203,1452,599.3203,1442,603.3203,1446,599.3203" style="stroke:#181818;stroke-width:1.0;"/><line style="stroke:#181818;stroke-width:1.0;" x1="842" x2="1448" y1="599.3203" y2="599.3203"/><text fill="#000000" font-family="sans-serif" font-size="20" font-weight="bold" lengthAdjust="spacing" textLength="26" x="849" y="593.1016">12</text><text fill="#000000" font-family="sans-serif" font-size="20" lengthAdjust="spacing" textLength="563" x="879" y="593.1016">getAreaList(dealList, sortMethod, ascendingOrDescending)</text><line style="stroke:#181818;stroke-width:1.0;" x1="1464" x2="1506" y1="636.875" y2="636.875"/><line style="stroke:#181818;stroke-width:1.0;" x1="1506" x2="1506" y1="636.875" y2="649.875"/><line style="stroke:#181818;stroke-width:1.0;" x1="1465" x2="1506" y1="649.875" y2="649.875"/><polygon fill="#181818" points="1475,645.875,1465,649.875,1475,653.875,1471,649.875" style="stroke:#181818;stroke-width:1.0;"/><text fill="#000000" font-family="sans-serif" font-size="20" font-weight="bold" lengthAdjust="spacing" textLength="26" x="1471" y="630.6563">13</text><text fill="#000000" font-family="sans-serif" font-size="20" lengthAdjust="spacing" textLength="75" x="1501" y="630.6563">areaList</text><path d="M1320,664.875 L1392,664.875 L1392,680.4297 L1382,690.4297 L1320,690.4297 L1320,664.875 " fill="#EEEEEE" style="stroke:#000000;stroke-width:1.5;"/><rect fill="none" height="186.3281" style="stroke:#000000;stroke-width:1.5;" width="543.5" x="1320" y="664.875"/><text fill="#000000" font-family="sans-serif" font-size="20" font-weight="bold" lengthAdjust="spacing" textLength="27" x="1335" y="685.2109">alt</text><text fill="#000000" font-family="sans-serif" font-size="20" font-weight="bold" lengthAdjust="spacing" textLength="268" x="1407" y="686.2109">[sortMethod =  RadixSort]</text><polygon fill="#181818" points="1645,724.5391,1655,728.5391,1645,732.5391,1649,728.5391" style="stroke:#181818;stroke-width:1.0;"/><line style="stroke:#181818;stroke-width:1.0;" x1="1464" x2="1651" y1="728.5391" y2="728.5391"/><text fill="#000000" font-family="sans-serif" font-size="20" font-weight="bold" lengthAdjust="spacing" textLength="26" x="1471" y="722.3203">14</text><text fill="#000000" font-family="sans-serif" font-size="20" lengthAdjust="spacing" textLength="126" x="1501" y="722.3203">sort(areaList)</text><polygon fill="#181818" points="1475,762.0938,1465,766.0938,1475,770.0938,1471,766.0938" style="stroke:#181818;stroke-width:1.0;"/><line style="stroke:#181818;stroke-width:1.0;stroke-dasharray:2.0,2.0;" x1="1469" x2="1661" y1="766.0938" y2="766.0938"/><text fill="#000000" font-family="sans-serif" font-size="20" font-weight="bold" lengthAdjust="spacing" textLength="26" x="1481" y="759.875">15</text><text fill="#000000" font-family="sans-serif" font-size="20" lengthAdjust="spacing" textLength="139" x="1511" y="759.875">sortedAreaList</text><line style="stroke:#000000;stroke-width:1.0;stroke-dasharray:2.0,2.0;" x1="1320" x2="1863.5" y1="775.0938" y2="775.0938"/><polygon fill="#181818" points="1774,801.6484,1784,805.6484,1774,809.6484,1778,805.6484" style="stroke:#181818;stroke-width:1.0;"/><line style="stroke:#181818;stroke-width:1.0;" x1="1464" x2="1780" y1="805.6484" y2="805.6484"/><text fill="#000000" font-family="sans-serif" font-size="20" font-weight="bold" lengthAdjust="spacing" textLength="26" x="1471" y="799.4297">16</text><text fill="#000000" font-family="sans-serif" font-size="20" lengthAdjust="spacing" textLength="126" x="1501" y="799.4297">sort(areaList)</text><polygon fill="#181818" points="1475,839.2031,1465,843.2031,1475,847.2031,1471,843.2031" style="stroke:#181818;stroke-width:1.0;"/><line style="stroke:#181818;stroke-width:1.0;stroke-dasharray:2.0,2.0;" x1="1469" x2="1790" y1="843.2031" y2="843.2031"/><text fill="#000000" font-family="sans-serif" font-size="20" font-weight="bold" lengthAdjust="spacing" textLength="26" x="1481" y="836.9844">17</text><text fill="#000000" font-family="sans-serif" font-size="20" lengthAdjust="spacing" textLength="139" x="1511" y="836.9844">sortedAreaList</text><path d="M1320,865.2031 L1399,865.2031 L1399,880.7578 L1389,890.7578 L1320,890.7578 L1320,865.2031 " fill="#EEEEEE" style="stroke:#000000;stroke-width:1.5;"/><rect fill="none" height="109.2188" style="stroke:#000000;stroke-width:1.5;" width="616.5" x="1320" y="865.2031"/><text fill="#000000" font-family="sans-serif" font-size="20" font-weight="bold" lengthAdjust="spacing" textLength="34" x="1335" y="885.5391">opt</text><text fill="#000000" font-family="sans-serif" font-size="20" font-weight="bold" lengthAdjust="spacing" textLength="416" x="1414" y="886.5391">[ascendingOrDescending = Descending]</text><polygon fill="#181818" points="1878,924.8672,1888,928.8672,1878,932.8672,1882,928.8672" style="stroke:#181818;stroke-width:1.0;"/><line style="stroke:#181818;stroke-width:1.0;" x1="1464" x2="1884" y1="928.8672" y2="928.8672"/><text fill="#000000" font-family="sans-serif" font-size="20" font-weight="bold" lengthAdjust="spacing" textLength="26" x="1471" y="922.6484">18</text><text fill="#000000" font-family="sans-serif" font-size="20" lengthAdjust="spacing" textLength="256" x="1501" y="922.6484">reverseList(sortedAreaList)</text><polygon fill="#181818" points="1475,962.4219,1465,966.4219,1475,970.4219,1471,966.4219" style="stroke:#181818;stroke-width:1.0;"/><line style="stroke:#181818;stroke-width:1.0;stroke-dasharray:2.0,2.0;" x1="1469" x2="1894" y1="966.4219" y2="966.4219"/><text fill="#000000" font-family="sans-serif" font-size="20" font-weight="bold" lengthAdjust="spacing" textLength="26" x="1481" y="960.2031">19</text><text fill="#000000" font-family="sans-serif" font-size="20" lengthAdjust="spacing" textLength="209" x="1511" y="960.2031">reverseSortedAreaList</text><polygon fill="#181818" points="853,1006.9766,843,1010.9766,853,1014.9766,849,1010.9766" style="stroke:#181818;stroke-width:1.0;"/><line style="stroke:#181818;stroke-width:1.0;stroke-dasharray:2.0,2.0;" x1="847" x2="1458" y1="1010.9766" y2="1010.9766"/><text fill="#000000" font-family="sans-serif" font-size="20" font-weight="bold" lengthAdjust="spacing" textLength="26" x="859" y="1004.7578">20</text><text fill="#000000" font-family="sans-serif" font-size="20" lengthAdjust="spacing" textLength="139" x="889" y="1004.7578">sortedAreaList</text><polygon fill="#181818" points="561,1044.5313,551,1048.5313,561,1052.5313,557,1048.5313" style="stroke:#181818;stroke-width:1.0;"/><line style="stroke:#181818;stroke-width:1.0;stroke-dasharray:2.0,2.0;" x1="555" x2="831" y1="1048.5313" y2="1048.5313"/><text fill="#000000" font-family="sans-serif" font-size="20" font-weight="bold" lengthAdjust="spacing" textLength="26" x="567" y="1042.3125">21</text><text fill="#000000" font-family="sans-serif" font-size="20" lengthAdjust="spacing" textLength="139" x="597" y="1042.3125">sortedAreaList</text><polygon fill="#181818" points="108,1082.0859,98,1086.0859,108,1090.0859,104,1086.0859" style="stroke:#181818;stroke-width:1.0;"/><line style="stroke:#181818;stroke-width:1.0;stroke-dasharray:2.0,2.0;" x1="102" x2="544" y1="1086.0859" y2="1086.0859"/><text fill="#000000" font-family="sans-serif" font-size="20" font-weight="bold" lengthAdjust="spacing" textLength="26" x="114" y="1079.8672">22</text><text fill="#000000" font-family="sans-serif" font-size="20" lengthAdjust="spacing" textLength="218" x="144" y="1079.8672">display sorted deal list</text><!--SRC=[ZLN1Rjim3BtxAuYSigB1XXqDh42xOa20TGCMv9QBOh6945ao9ALTzlMZPTcH72kDJnP5Fhudaf8z2DKmmsgfgmDouFZAZjBzqCgjn3-4hryAsxj0hPMkzaRN2CuSCTffM7LWErovaqGmM3ccTZ9si7l6zRjGEtXbqc9HiAFJwbXlqT1_vRI1sIzqxzeSu8KfmZ8pO1Q2BPWA0dEY4WrJ3cRbJs7TCnBUUkcTrykSmtVIOxIK0VMy70NymKPRGMm4MkyP6r9V4-rir6MaoKOo_eQqj5YZSaFSgToen-aTZqTxP1dpPLpyNMdZEhBjQkJnTDnk9GuktNBaitP2TgJzNz5-L1FnnXoEAr00VQaD5Wzqz50ImC62qo3fs859ITr4Pmyru-Z31amgb3TGr8A2Ht0bS64RoKuMBF666jrUSmjCSTYe3bqRJfwwSK8hEsUsGiMfkpvpx7y_-Gp4O9mqGzwYfBwrm9bZtc-ISS_w8UeXkBkZ-CeWELxnAZtpHobzHyvRQIzUsJs96XJyDiyZ2GcFg7E7pJW9fOmxiToXMofBurZX_0mtzGqfafPFGk8TNxXpuZBjzpWgAa4UEfKGOz6vaOZCP8mq3ObCDf79Qw1CcJGvFUP6FTti1YLz0sIeXpbFDaFy1TrsljexBiTl2kiAC-hW5ctUmzv3rAGVjUZD8gAaB6HC7PbqKMBu1Z1SSpb4xz0ECVdCUzGCj-wMJ1lRXozYQYqIylv8iWrzYON-UPkcsTs-rtbESWxNTjOn0D-g8FT5ogOoKibJ0zs_qsr1HJilSgVX7njeRmuQEek-zLBIcGg6LohUywP4Va1TtLJ72SGBiRaXlArJFXh5uHbAqPBdvCfJ6UByZU3VcM9AvRAt_WS0]--></g></svg>