<?xml version="1.0" encoding="UTF-8" standalone="no"?><svg xmlns="http://www.w3.org/2000/svg" xmlns:xlink="http://www.w3.org/1999/xlink" contentStyleType="text/css" height="857px" preserveAspectRatio="none" style="width:890px;height:857px;background:#FFFFFF;" version="1.1" viewBox="0 0 890 857" width="890px" zoomAndPan="magnify"><defs/><g><!--class ListDealsUI--><g id="elem_ListDealsUI"><rect codeLine="8" fill="#F1F1F1" height="50" id="ListDealsUI" rx="2.5" ry="2.5" style="stroke:#181818;stroke-width:0.5;" width="141" x="435" y="7"/><ellipse cx="451" cy="24" fill="#ADD1B2" rx="12" ry="12" style="stroke:#181818;stroke-width:1.0;"/><path d="M453.8066,31.0801 Q453.123,31.4316 452.3711,31.6074 Q451.6191,31.7832 450.7891,31.7832 Q447.8398,31.7832 446.2871,29.8398 Q444.7344,27.8965 444.7344,24.2246 Q444.7344,20.543 446.2871,18.5996 Q447.8398,16.6563 450.7891,16.6563 Q451.6191,16.6563 452.3809,16.832 Q453.1426,17.0078 453.8066,17.3594 L453.8066,20.5625 Q453.0645,19.8789 452.3662,19.5615 Q451.668,19.2441 450.9258,19.2441 Q449.3438,19.2441 448.5381,20.499 Q447.7324,21.7539 447.7324,24.2246 Q447.7324,26.6855 448.5381,27.9404 Q449.3438,29.1953 450.9258,29.1953 Q451.668,29.1953 452.3662,28.8779 Q453.0645,28.5605 453.8066,27.877 Z " fill="#000000"/><text fill="#000000" font-family="sans-serif" font-size="20" lengthAdjust="spacing" textLength="107" x="466" y="31.5586">ListDealsUI</text><line style="stroke:#181818;stroke-width:0.5;" x1="436" x2="575" y1="41" y2="41"/><line style="stroke:#181818;stroke-width:0.5;" x1="436" x2="575" y1="49" y2="49"/></g><!--class ListDealsController--><g id="elem_ListDealsController"><rect codeLine="10" fill="#F1F1F1" height="73.5547" id="ListDealsController" rx="2.5" ry="2.5" style="stroke:#181818;stroke-width:0.5;" width="504" x="253.5" y="117"/><ellipse cx="409.5" cy="134" fill="#ADD1B2" rx="12" ry="12" style="stroke:#181818;stroke-width:1.0;"/><path d="M412.3066,141.0801 Q411.623,141.4316 410.8711,141.6074 Q410.1191,141.7832 409.2891,141.7832 Q406.3398,141.7832 404.7871,139.8398 Q403.2344,137.8965 403.2344,134.2246 Q403.2344,130.543 404.7871,128.5996 Q406.3398,126.6563 409.2891,126.6563 Q410.1191,126.6563 410.8809,126.832 Q411.6426,127.0078 412.3066,127.3594 L412.3066,130.5625 Q411.5645,129.8789 410.8662,129.5615 Q410.168,129.2441 409.4258,129.2441 Q407.8438,129.2441 407.0381,130.499 Q406.2324,131.7539 406.2324,134.2246 Q406.2324,136.6855 407.0381,137.9404 Q407.8438,139.1953 409.4258,139.1953 Q410.168,139.1953 410.8662,138.8779 Q411.5645,138.5605 412.3066,137.877 Z " fill="#000000"/><text fill="#000000" font-family="sans-serif" font-size="20" lengthAdjust="spacing" textLength="183" x="431.5" y="141.5586">ListDealsController</text><line style="stroke:#181818;stroke-width:0.5;" x1="254.5" x2="756.5" y1="151" y2="151"/><line style="stroke:#181818;stroke-width:0.5;" x1="254.5" x2="756.5" y1="159" y2="159"/><text fill="#000000" font-family="sans-serif" font-size="20" lengthAdjust="spacing" textLength="492" x="259.5" y="182.3359">+listAllDeals(sortMethod, ascendingOrDescending)</text></g><!--class Repositories--><g id="elem_Repositories"><rect codeLine="14" fill="#F1F1F1" height="97.1094" id="Repositories" rx="2.5" ry="2.5" style="stroke:#181818;stroke-width:0.5;" width="299" x="153" y="251"/><ellipse cx="238.5" cy="268" fill="#ADD1B2" rx="12" ry="12" style="stroke:#181818;stroke-width:1.0;"/><path d="M241.3066,275.0801 Q240.623,275.4316 239.8711,275.6074 Q239.1191,275.7832 238.2891,275.7832 Q235.3398,275.7832 233.7871,273.8398 Q232.2344,271.8965 232.2344,268.2246 Q232.2344,264.543 233.7871,262.5996 Q235.3398,260.6563 238.2891,260.6563 Q239.1191,260.6563 239.8809,260.832 Q240.6426,261.0078 241.3066,261.3594 L241.3066,264.5625 Q240.5645,263.8789 239.8662,263.5615 Q239.168,263.2441 238.4258,263.2441 Q236.8438,263.2441 236.0381,264.499 Q235.2324,265.7539 235.2324,268.2246 Q235.2324,270.6855 236.0381,271.9404 Q236.8438,273.1953 238.4258,273.1953 Q239.168,273.1953 239.8662,272.8779 Q240.5645,272.5605 241.3066,271.877 Z " fill="#000000"/><text fill="#000000" font-family="sans-serif" font-size="20" lengthAdjust="spacing" textLength="119" x="260.5" y="275.5586">Repositories</text><line style="stroke:#181818;stroke-width:0.5;" x1="154" x2="451" y1="285" y2="285"/><text fill="#000000" font-family="sans-serif" font-size="20" lengthAdjust="spacing" textLength="125" x="159" y="308.3359">+getInstance</text><text fill="#000000" font-family="sans-serif" font-size="20" lengthAdjust="spacing" textLength="287" x="159" y="331.8906">+getAdvertisementRepository</text><line style="stroke:#181818;stroke-width:0.5;" x1="154" x2="451" y1="340.1094" y2="340.1094"/></g><!--class AdvertisementRepository--><g id="elem_AdvertisementRepository"><rect codeLine="19" fill="#F1F1F1" height="120.6641" id="AdvertisementRepository" rx="2.5" ry="2.5" style="stroke:#181818;stroke-width:0.5;" width="591" x="7" y="408"/><ellipse cx="177.5" cy="425" fill="#ADD1B2" rx="12" ry="12" style="stroke:#181818;stroke-width:1.0;"/><path d="M180.3066,432.0801 Q179.623,432.4316 178.8711,432.6074 Q178.1191,432.7832 177.2891,432.7832 Q174.3398,432.7832 172.7871,430.8398 Q171.2344,428.8965 171.2344,425.2246 Q171.2344,421.543 172.7871,419.5996 Q174.3398,417.6563 177.2891,417.6563 Q178.1191,417.6563 178.8809,417.832 Q179.6426,418.0078 180.3066,418.3594 L180.3066,421.5625 Q179.5645,420.8789 178.8662,420.5615 Q178.168,420.2441 177.4258,420.2441 Q175.8438,420.2441 175.0381,421.499 Q174.2324,422.7539 174.2324,425.2246 Q174.2324,427.6855 175.0381,428.9404 Q175.8438,430.1953 177.4258,430.1953 Q178.168,430.1953 178.8662,429.8779 Q179.5645,429.5605 180.3066,428.877 Z " fill="#000000"/><text fill="#000000" font-family="sans-serif" font-size="20" lengthAdjust="spacing" textLength="241" x="199.5" y="432.5586">AdvertisementRepository</text><line style="stroke:#181818;stroke-width:0.5;" x1="8" x2="597" y1="442" y2="442"/><text fill="#000000" font-family="sans-serif" font-size="20" lengthAdjust="spacing" textLength="396" x="13" y="465.3359">-List&lt;Advertisement&gt; AdvertisementList</text><line style="stroke:#181818;stroke-width:0.5;" x1="8" x2="597" y1="473.5547" y2="473.5547"/><text fill="#000000" font-family="sans-serif" font-size="20" lengthAdjust="spacing" textLength="139" x="13" y="496.8906">+getAllDeals()</text><text fill="#000000" font-family="sans-serif" font-size="20" lengthAdjust="spacing" textLength="579" x="13" y="520.4453">+getAreaList(dealList, sortMethod, ascendingOrDescending)</text></g><!--class RadixSort--><g id="elem_RadixSort"><rect codeLine="26" fill="#F1F1F1" height="73.5547" id="RadixSort" rx="2.5" ry="2.5" style="stroke:#181818;stroke-width:0.5;" width="154" x="37.5" y="683"/><ellipse cx="65.65" cy="700" fill="#ADD1B2" rx="12" ry="12" style="stroke:#181818;stroke-width:1.0;"/><path d="M68.4566,707.0801 Q67.773,707.4316 67.0211,707.6074 Q66.2691,707.7832 65.4391,707.7832 Q62.4898,707.7832 60.9371,705.8398 Q59.3844,703.8965 59.3844,700.2246 Q59.3844,696.543 60.9371,694.5996 Q62.4898,692.6563 65.4391,692.6563 Q66.2691,692.6563 67.0309,692.832 Q67.7926,693.0078 68.4566,693.3594 L68.4566,696.5625 Q67.7145,695.8789 67.0162,695.5615 Q66.318,695.2441 65.5758,695.2441 Q63.9938,695.2441 63.1881,696.499 Q62.3824,697.7539 62.3824,700.2246 Q62.3824,702.6855 63.1881,703.9404 Q63.9938,705.1953 65.5758,705.1953 Q66.318,705.1953 67.0162,704.8779 Q67.7145,704.5605 68.4566,703.877 Z " fill="#000000"/><text fill="#000000" font-family="sans-serif" font-size="20" lengthAdjust="spacing" textLength="93" x="83.35" y="707.5586">RadixSort</text><line style="stroke:#181818;stroke-width:0.5;" x1="38.5" x2="190.5" y1="717" y2="717"/><line style="stroke:#181818;stroke-width:0.5;" x1="38.5" x2="190.5" y1="725" y2="725"/><text fill="#000000" font-family="sans-serif" font-size="20" lengthAdjust="spacing" textLength="142" x="43.5" y="748.3359">+sort(areaList)</text></g><!--class BubbleSort--><g id="elem_BubbleSort"><rect codeLine="30" fill="#F1F1F1" height="73.5547" id="BubbleSort" rx="2.5" ry="2.5" style="stroke:#181818;stroke-width:0.5;" width="154" x="226.5" y="683"/><ellipse cx="249.25" cy="700" fill="#ADD1B2" rx="12" ry="12" style="stroke:#181818;stroke-width:1.0;"/><path d="M252.0566,707.0801 Q251.373,707.4316 250.6211,707.6074 Q249.8691,707.7832 249.0391,707.7832 Q246.0898,707.7832 244.5371,705.8398 Q242.9844,703.8965 242.9844,700.2246 Q242.9844,696.543 244.5371,694.5996 Q246.0898,692.6563 249.0391,692.6563 Q249.8691,692.6563 250.6309,692.832 Q251.3926,693.0078 252.0566,693.3594 L252.0566,696.5625 Q251.3145,695.8789 250.6162,695.5615 Q249.918,695.2441 249.1758,695.2441 Q247.5938,695.2441 246.7881,696.499 Q245.9824,697.7539 245.9824,700.2246 Q245.9824,702.6855 246.7881,703.9404 Q247.5938,705.1953 249.1758,705.1953 Q249.918,705.1953 250.6162,704.8779 Q251.3145,704.5605 252.0566,703.877 Z " fill="#000000"/><text fill="#000000" font-family="sans-serif" font-size="20" lengthAdjust="spacing" textLength="105" x="265.75" y="707.5586">BubbleSort</text><line style="stroke:#181818;stroke-width:0.5;" x1="227.5" x2="379.5" y1="717" y2="717"/><line style="stroke:#181818;stroke-width:0.5;" x1="227.5" x2="379.5" y1="725" y2="725"/><text fill="#000000" font-family="sans-serif" font-size="20" lengthAdjust="spacing" textLength="142" x="232.5" y="748.3359">+sort(areaList)</text></g><!--class Advertisement--><g id="elem_Advertisement"><rect codeLine="34" fill="#F1F1F1" height="261.9922" id="Advertisement" rx="2.5" ry="2.5" style="stroke:#181818;stroke-width:0.5;" width="465" x="418" y="589"/><ellipse cx="576.5" cy="606" fill="#ADD1B2" rx="12" ry="12" style="stroke:#181818;stroke-width:1.0;"/><path d="M579.3066,613.0801 Q578.623,613.4316 577.8711,613.6074 Q577.1191,613.7832 576.2891,613.7832 Q573.3398,613.7832 571.7871,611.8398 Q570.2344,609.8965 570.2344,606.2246 Q570.2344,602.543 571.7871,600.5996 Q573.3398,598.6563 576.2891,598.6563 Q577.1191,598.6563 577.8809,598.832 Q578.6426,599.0078 579.3066,599.3594 L579.3066,602.5625 Q578.5645,601.8789 577.8662,601.5615 Q577.168,601.2441 576.4258,601.2441 Q574.8438,601.2441 574.0381,602.499 Q573.2324,603.7539 573.2324,606.2246 Q573.2324,608.6855 574.0381,609.9404 Q574.8438,611.1953 576.4258,611.1953 Q577.168,611.1953 577.8662,610.8779 Q578.5645,610.5605 579.3066,609.877 Z " fill="#000000"/><text fill="#000000" font-family="sans-serif" font-size="20" lengthAdjust="spacing" textLength="139" x="598.5" y="613.5586">Advertisement</text><line style="stroke:#181818;stroke-width:0.5;" x1="419" x2="882" y1="623" y2="623"/><text fill="#000000" font-family="sans-serif" font-size="20" lengthAdjust="spacing" textLength="278" x="424" y="646.3359">-String dateOfAdvertisement</text><text fill="#000000" font-family="sans-serif" font-size="20" lengthAdjust="spacing" textLength="167" x="424" y="669.8906">-Request request</text><text fill="#000000" font-family="sans-serif" font-size="20" lengthAdjust="spacing" textLength="254" x="424" y="693.4453">-Commission commission</text><text fill="#000000" font-family="sans-serif" font-size="20" lengthAdjust="spacing" textLength="453" x="424" y="717">-ArrayList&lt;PurchaseOrder&gt; purchaseOrderList</text><text fill="#000000" font-family="sans-serif" font-size="20" lengthAdjust="spacing" textLength="404" x="424" y="740.5547">-ArrayList&lt;VisitRequest&gt; visitRequestList</text><text fill="#000000" font-family="sans-serif" font-size="20" lengthAdjust="spacing" textLength="131" x="424" y="764.1094">-String status</text><text fill="#000000" font-family="sans-serif" font-size="20" lengthAdjust="spacing" textLength="115" x="424" y="787.6641">-Store store</text><line style="stroke:#181818;stroke-width:0.5;" x1="419" x2="882" y1="795.8828" y2="795.8828"/><text fill="#000000" font-family="sans-serif" font-size="20" lengthAdjust="spacing" textLength="228" x="424" y="819.2188">+getEmployeeByEmail()</text><text fill="#000000" font-family="sans-serif" font-size="20" lengthAdjust="spacing" textLength="435" x="424" y="842.7734">+getVisitRequestAdvertisement(visit request)</text></g><!--link ListDealsUI to ListDealsController--><g id="link_ListDealsUI_ListDealsController"><path codeLine="47" d="M505.5,57.28 C505.5,72.93 505.5,93.68 505.5,111.86 " fill="none" id="ListDealsUI-to-ListDealsController" style="stroke:#181818;stroke-width:1.0;stroke-dasharray:7.0,7.0;"/><polygon fill="#181818" points="505.5,116.91,509.5,107.91,505.5,111.91,501.5,107.91,505.5,116.91" style="stroke:#181818;stroke-width:1.0;"/></g><!--link ListDealsController to AdvertisementRepository--><g id="link_ListDealsController_AdvertisementRepository"><path codeLine="48" d="M498.73,191.3 C488.3,247.21 469.5,348 469.5,348 C469.5,348 430.63,375.81 390.4,404.6 " fill="none" id="ListDealsController-to-AdvertisementRepository" style="stroke:#181818;stroke-width:1.0;stroke-dasharray:7.0,7.0;"/><polygon fill="#181818" points="386,407.75,395.6479,405.7706,390.0677,404.8425,390.9958,399.2623,386,407.75" style="stroke:#181818;stroke-width:1.0;"/></g><!--link ListDealsController to Repositories--><g id="link_ListDealsController_Repositories"><path codeLine="49" d="M454.54,191.03 C430.23,208.21 400.74,229.05 374.22,247.8 " fill="none" id="ListDealsController-to-Repositories" style="stroke:#181818;stroke-width:1.0;stroke-dasharray:7.0,7.0;"/><polygon fill="#181818" points="369.99,250.79,379.6489,248.8651,374.074,247.9055,375.0337,242.3306,369.99,250.79" style="stroke:#181818;stroke-width:1.0;"/></g><!--link AdvertisementRepository to Advertisement--><g id="link_AdvertisementRepository_Advertisement"><path codeLine="51" d="M385.85,529.26 C409.91,546.51 437.17,566.05 464.82,585.88 " fill="none" id="AdvertisementRepository-to-Advertisement" style="stroke:#181818;stroke-width:1.0;"/><polygon fill="#181818" points="468.9,588.8,463.9239,580.3007,464.8391,585.883,459.2567,586.7981,468.9,588.8" style="stroke:#181818;stroke-width:1.0;"/><text fill="#000000" font-family="sans-serif" font-size="20" lengthAdjust="spacing" textLength="13" x="380.7752" y="556.0937">1</text><text fill="#000000" font-family="sans-serif" font-size="20" lengthAdjust="spacing" textLength="10" x="448.1122" y="576.9024">*</text></g><!--link AdvertisementRepository to BubbleSort--><g id="link_AdvertisementRepository_BubbleSort"><path codeLine="52" d="M302.74,529.26 C302.92,575.07 303.17,637.09 303.33,677.57 " fill="none" id="AdvertisementRepository-to-BubbleSort" style="stroke:#181818;stroke-width:1.0;stroke-dasharray:7.0,7.0;"/><polygon fill="#181818" points="303.36,682.88,307.3343,673.8686,303.3457,677.88,299.3343,673.8915,303.36,682.88" style="stroke:#181818;stroke-width:1.0;"/></g><!--link AdvertisementRepository to RadixSort--><g id="link_AdvertisementRepository_RadixSort"><path codeLine="53" d="M255.5,529.25 C232,559.12 208.5,589 208.5,589 C208.5,589 171.26,640.5 143.66,678.67 " fill="none" id="AdvertisementRepository-to-RadixSort" style="stroke:#181818;stroke-width:1.0;stroke-dasharray:7.0,7.0;"/><polygon fill="#181818" points="140.68,682.79,149.1991,677.8479,143.6132,678.7408,142.7204,673.1548,140.68,682.79" style="stroke:#181818;stroke-width:1.0;"/></g><!--link ListDealsController to Advertisement--><g id="link_ListDealsController_Advertisement"><path codeLine="55" d="M521.26,191.25 C551.68,261.21 615.5,408 615.5,408 C615.5,408 625.85,499.99 635.3,583.91 " fill="none" id="ListDealsController-to-Advertisement" style="stroke:#181818;stroke-width:1.0;stroke-dasharray:7.0,7.0;"/><polygon fill="#181818" points="635.86,588.91,638.8328,579.5205,635.3031,583.9411,630.8825,580.4115,635.86,588.91" style="stroke:#181818;stroke-width:1.0;"/></g><!--link Repositories to AdvertisementRepository--><g id="link_Repositories_AdvertisementRepository"><path codeLine="56" d="M302.5,348.36 C302.5,365.27 302.5,384.59 302.5,402.67 " fill="none" id="Repositories-to-AdvertisementRepository" style="stroke:#181818;stroke-width:1.0;"/><polygon fill="#181818" points="302.5,407.74,306.5,398.74,302.5,402.74,298.5,398.74,302.5,407.74" style="stroke:#181818;stroke-width:1.0;"/><text fill="#000000" font-family="sans-serif" font-size="20" lengthAdjust="spacing" textLength="13" x="288.7484" y="395.7724">1</text></g><!--SRC=[bLBRRjim37tdLmXvIhUwwFOy64Wl0m9ioD1iUrSa9X4YIvueT_E2_VievL8PhNTviKNoa3o79EsCQsMGZVLgXrfeNClEnlVUnQNvYUBjDT098bgfTdA3ozXR505Lb6vZiG3GLch_tRYDM4jBPSGQXv_x5aNhRPyCW2Agh2IQnHZCgeiuLzxbvjS0EI8-68fto2M_pCN-rpFlBRCDtbeCUtXjsJkpDWUcv4FyY77hzQMGfD1f9hS8TtXwNy2vt0EsdapqmI1ndGt6kIEMg30RC_s88Hh21bqyO_kd_1707gf4zDqWN0_H2G27BYVc5mSpe4p1gMPdUboA_v8ajVcnv0JMa_AcybYlmDnqgvN5lu06R5dHabV5MzOouc8z24BrWDywfCW7alzGtVgcCKJ6Ew7EJwXc8SW-Z-PJ5zHM4Yw2nb2BjZJpQ0hiLyDZFRQenMDX7P17Phous54oVK2s-7iOy7tJMjyZtlJtZJJsEEUowa3ED7SuQSaJAO_nwgf-wGpX1L_6ZXtH6BwyIO2HR35vCwcgUl9gCgm_Ya-LdzR-HzZvWk3VD479M32hH6vCDS1l]--></g></svg>