<?xml version="1.0" encoding="UTF-8" standalone="no"?><svg xmlns="http://www.w3.org/2000/svg" xmlns:xlink="http://www.w3.org/1999/xlink" contentStyleType="text/css" height="937px" preserveAspectRatio="none" style="width:1119px;height:937px;background:#FFFFFF;" version="1.1" viewBox="0 0 1119 937" width="1119px" zoomAndPan="magnify"><defs/><g><!--class Client--><g id="elem_Client"><rect codeLine="11" fill="#F1F1F1" height="41.5547" id="Client" rx="2.5" ry="2.5" style="stroke:#181818;stroke-width:0.5;" width="62" x="104.5" y="842"/><text fill="#000000" font-family="sans-serif" font-size="20" lengthAdjust="spacing" textLength="56" x="107.5" y="866.3359">Client</text><line style="stroke:#181818;stroke-width:0.5;" x1="105.5" x2="165.5" y1="875.5547" y2="875.5547"/></g><!--class PropertyVisit--><g id="elem_PropertyVisit"><rect codeLine="13" fill="#F1F1F1" height="65.1094" id="PropertyVisit" rx="2.5" ry="2.5" style="stroke:#181818;stroke-width:0.5;" width="128" x="227.5" y="227"/><text fill="#000000" font-family="sans-serif" font-size="20" lengthAdjust="spacing" textLength="122" x="230.5" y="251.3359">PropertyVisit</text><line style="stroke:#181818;stroke-width:0.5;" x1="228.5" x2="354.5" y1="260.5547" y2="260.5547"/><text fill="#000000" font-family="sans-serif" font-size="20" lengthAdjust="spacing" textLength="107" x="233.5" y="283.8906">dateOfVisit</text></g><!--class Property--><g id="elem_Property"><rect codeLine="17" fill="#F1F1F1" height="88.6641" id="Property" rx="2.5" ry="2.5" style="stroke:#181818;stroke-width:0.5;" width="192" x="873.5" y="424"/><text fill="#000000" font-family="sans-serif" font-size="20" lengthAdjust="spacing" textLength="80" x="929.5" y="448.3359">Property</text><line style="stroke:#181818;stroke-width:0.5;" x1="874.5" x2="1064.5" y1="457.5547" y2="457.5547"/><text fill="#000000" font-family="sans-serif" font-size="20" lengthAdjust="spacing" textLength="41" x="879.5" y="480.8906">area</text><text fill="#000000" font-family="sans-serif" font-size="20" lengthAdjust="spacing" textLength="180" x="879.5" y="504.4453">distanceCityCentre</text></g><!--class Agent--><g id="elem_Agent"><rect codeLine="22" fill="#F1F1F1" height="41.5547" id="Agent" rx="2.5" ry="2.5" style="stroke:#181818;stroke-width:0.5;" width="62" x="505.5" y="238.5"/><text fill="#000000" font-family="sans-serif" font-size="20" lengthAdjust="spacing" textLength="56" x="508.5" y="262.8359">Agent</text><line style="stroke:#181818;stroke-width:0.5;" x1="506.5" x2="566.5" y1="272.0547" y2="272.0547"/></g><!--class VisitRequest--><g id="elem_VisitRequest"><rect codeLine="24" fill="#F1F1F1" height="135.7734" id="VisitRequest" rx="2.5" ry="2.5" style="stroke:#181818;stroke-width:0.5;" width="166" x="491.5" y="795"/><text fill="#000000" font-family="sans-serif" font-size="20" lengthAdjust="spacing" textLength="119" x="515" y="819.3359">VisitRequest</text><line style="stroke:#181818;stroke-width:0.5;" x1="492.5" x2="656.5" y1="828.5547" y2="828.5547"/><text fill="#000000" font-family="sans-serif" font-size="20" lengthAdjust="spacing" textLength="154" x="497.5" y="851.8906">timeToStartVisit</text><text fill="#000000" font-family="sans-serif" font-size="20" lengthAdjust="spacing" textLength="146" x="497.5" y="875.4453">timeToEndVisit</text><text fill="#000000" font-family="sans-serif" font-size="20" lengthAdjust="spacing" textLength="107" x="497.5" y="899">dateOfVisit</text><text fill="#000000" font-family="sans-serif" font-size="20" lengthAdjust="spacing" textLength="142" x="497.5" y="922.5547">dateOfRequest</text></g><!--class Person--><g id="elem_Person"><rect codeLine="31" fill="#F1F1F1" height="112.2188" id="Person" rx="2.5" ry="2.5" style="stroke:#181818;stroke-width:0.5;" width="185" x="7" y="7"/><text fill="#000000" font-family="sans-serif" font-size="20" lengthAdjust="spacing" textLength="64" x="67.5" y="31.3359">Person</text><line style="stroke:#181818;stroke-width:0.5;" x1="8" x2="191" y1="40.5547" y2="40.5547"/><text fill="#000000" font-family="sans-serif" font-size="20" lengthAdjust="spacing" textLength="53" x="13" y="63.8906">name</text><text fill="#000000" font-family="sans-serif" font-size="20" lengthAdjust="spacing" textLength="132" x="13" y="87.4453">emailAddress</text><text fill="#000000" font-family="sans-serif" font-size="20" lengthAdjust="spacing" textLength="173" x="13" y="111">telephoneNumber</text></g><!--class Notification--><g id="elem_Notification"><rect codeLine="37" fill="#F1F1F1" height="41.5547" id="Notification" rx="2.5" ry="2.5" style="stroke:#181818;stroke-width:0.5;" width="117" x="390" y="633"/><text fill="#000000" font-family="sans-serif" font-size="20" lengthAdjust="spacing" textLength="111" x="393" y="657.3359">Notification</text><line style="stroke:#181818;stroke-width:0.5;" x1="391" x2="506" y1="666.5547" y2="666.5547"/></g><!--class Email--><g id="elem_Email"><rect codeLine="40" fill="#F1F1F1" height="65.1094" id="Email" rx="2.5" ry="2.5" style="stroke:#181818;stroke-width:0.5;" width="96" x="442.5" y="436"/><text fill="#000000" font-family="sans-serif" font-size="20" lengthAdjust="spacing" textLength="53" x="464" y="460.3359">Email</text><line style="stroke:#181818;stroke-width:0.5;" x1="443.5" x2="537.5" y1="469.5547" y2="469.5547"/><text fill="#000000" font-family="sans-serif" font-size="20" lengthAdjust="spacing" textLength="84" x="448.5" y="492.8906">message</text></g><!--class Address--><g id="elem_Address"><rect codeLine="44" fill="#F1F1F1" height="159.3281" id="Address" rx="2.5" ry="2.5" style="stroke:#181818;stroke-width:0.5;" width="88" x="925.5" y="180"/><text fill="#000000" font-family="sans-serif" font-size="20" lengthAdjust="spacing" textLength="79" x="930" y="204.3359">Address</text><line style="stroke:#181818;stroke-width:0.5;" x1="926.5" x2="1012.5" y1="213.5547" y2="213.5547"/><text fill="#000000" font-family="sans-serif" font-size="20" lengthAdjust="spacing" textLength="54" x="931.5" y="236.8906">street</text><text fill="#000000" font-family="sans-serif" font-size="20" lengthAdjust="spacing" textLength="46" x="931.5" y="260.4453">state</text><text fill="#000000" font-family="sans-serif" font-size="20" lengthAdjust="spacing" textLength="67" x="931.5" y="284">district</text><text fill="#000000" font-family="sans-serif" font-size="20" lengthAdjust="spacing" textLength="33" x="931.5" y="307.5547">city</text><text fill="#000000" font-family="sans-serif" font-size="20" lengthAdjust="spacing" textLength="76" x="931.5" y="331.1094">zipcode</text></g><!--class Advertisement--><g id="elem_Advertisement"><rect codeLine="52" fill="#F1F1F1" height="88.6641" id="Advertisement" rx="2.5" ry="2.5" style="stroke:#181818;stroke-width:0.5;" width="216" x="861.5" y="818.5"/><text fill="#000000" font-family="sans-serif" font-size="20" lengthAdjust="spacing" textLength="139" x="900" y="842.8359">Advertisement</text><line style="stroke:#181818;stroke-width:0.5;" x1="862.5" x2="1076.5" y1="852.0547" y2="852.0547"/><text fill="#000000" font-family="sans-serif" font-size="20" lengthAdjust="spacing" textLength="204" x="867.5" y="875.3906">dateOfAdvertisement</text><text fill="#000000" font-family="sans-serif" font-size="20" lengthAdjust="spacing" textLength="57" x="867.5" y="898.9453">status</text></g><!--class AdvertisementRequest--><g id="elem_AdvertisementRequest"><rect codeLine="57" fill="#F1F1F1" height="112.2188" id="AdvertisementRequest" rx="2.5" ry="2.5" style="stroke:#181818;stroke-width:0.5;" width="222" x="858.5" y="598"/><text fill="#000000" font-family="sans-serif" font-size="20" lengthAdjust="spacing" textLength="216" x="861.5" y="622.3359">AdvertisementRequest</text><line style="stroke:#181818;stroke-width:0.5;" x1="859.5" x2="1079.5" y1="631.5547" y2="631.5547"/><text fill="#000000" font-family="sans-serif" font-size="20" lengthAdjust="spacing" textLength="48" x="864.5" y="654.8906">price</text><text fill="#000000" font-family="sans-serif" font-size="20" lengthAdjust="spacing" textLength="142" x="864.5" y="678.4453">dateOfRequest</text><text fill="#000000" font-family="sans-serif" font-size="20" lengthAdjust="spacing" textLength="57" x="864.5" y="702">status</text></g><!--class Employee--><g id="elem_Employee"><rect fill="#F1F1F1" height="41.5547" id="Employee" rx="2.5" ry="2.5" style="stroke:#181818;stroke-width:0.5;" width="99" x="261" y="42"/><text fill="#000000" font-family="sans-serif" font-size="20" lengthAdjust="spacing" textLength="93" x="264" y="66.3359">Employee</text><line style="stroke:#181818;stroke-width:0.5;" x1="262" x2="359" y1="75.5547" y2="75.5547"/></g><!--class Role--><g id="elem_Role"><rect fill="#F1F1F1" height="41.5547" id="Role" rx="2.5" ry="2.5" style="stroke:#181818;stroke-width:0.5;" width="48" x="503.5" y="42"/><text fill="#000000" font-family="sans-serif" font-size="20" lengthAdjust="spacing" textLength="42" x="506.5" y="66.3359">Role</text><line style="stroke:#181818;stroke-width:0.5;" x1="504.5" x2="550.5" y1="75.5547" y2="75.5547"/></g><!--link Client to VisitRequest--><g id="link_Client_VisitRequest"><path codeLine="63" d="M166.72,863 C233.61,863 392.69,863 491.21,863 " fill="none" id="Client-VisitRequest" style="stroke:#181818;stroke-width:1.0;"/><polygon fill="#000000" points="293,847.7773,278.5279,843.0751,278.5279,852.4796,293,847.7773" style="stroke:#000000;stroke-width:1.0;"/><text fill="#000000" font-family="sans-serif" font-size="20" lengthAdjust="spacing" textLength="82" x="298" y="855.3359">requests</text><text fill="#000000" font-family="sans-serif" font-size="20" lengthAdjust="spacing" textLength="13" x="174.4998" y="857.0672">1</text><text fill="#000000" font-family="sans-serif" font-size="20" lengthAdjust="spacing" textLength="10" x="473.6226" y="858.3812">*</text></g><!--link Agent to VisitRequest--><g id="link_Agent_VisitRequest"><path codeLine="64" d="M559.72,280.8 C582.33,301.41 616.68,335.03 640.5,369 C690.03,439.62 706.87,459 726.5,543 C748.06,635.3 688.24,732.38 637.41,794.85 " fill="none" id="Agent-VisitRequest" style="stroke:#181818;stroke-width:1.0;"/><polygon fill="#000000" points="738.6955,563.6875,741.1823,548.6752,731.8833,550.0806,738.6955,563.6875" style="stroke:#000000;stroke-width:1.0;"/><text fill="#000000" font-family="sans-serif" font-size="20" lengthAdjust="spacing" textLength="85" x="750.5" y="563.3359">validates</text><text fill="#000000" font-family="sans-serif" font-size="20" lengthAdjust="spacing" textLength="13" x="550.3775" y="307.4203">1</text><text fill="#000000" font-family="sans-serif" font-size="20" lengthAdjust="spacing" textLength="10" x="633.382" y="783.0123">*</text></g><!--link Agent to VisitRequest--><g id="link_Agent_VisitRequest"><path codeLine="65" d="M550.58,280.53 C564.37,301.47 584.45,335.84 592.5,369 C611.63,447.75 592.64,679.49 581.43,794.99 " fill="none" id="Agent-VisitRequest-1" style="stroke:#181818;stroke-width:1.0;"/><polygon fill="#000000" points="606.9789,563.763,610.8064,549.0353,601.4187,549.5983,606.9789,563.763" style="stroke:#000000;stroke-width:1.0;"/><text fill="#000000" font-family="sans-serif" font-size="20" lengthAdjust="spacing" textLength="89" x="619.5" y="563.3359">responds</text><text fill="#000000" font-family="sans-serif" font-size="20" lengthAdjust="spacing" textLength="13" x="539.3329" y="307.5041">1</text><text fill="#000000" font-family="sans-serif" font-size="20" lengthAdjust="spacing" textLength="10" x="571.6411" y="782.6723">*</text></g><!--link VisitRequest to Advertisement--><g id="link_VisitRequest_Advertisement"><path codeLine="66" d="M657.79,863 C716.98,863 797.02,863 861.17,863 " fill="none" id="VisitRequest-Advertisement" style="stroke:#181818;stroke-width:1.0;"/><polygon fill="#000000" points="691,847.7773,676.5279,843.0751,676.5279,852.4796,691,847.7773" style="stroke:#000000;stroke-width:1.0;"/><text fill="#000000" font-family="sans-serif" font-size="20" lengthAdjust="spacing" textLength="147" x="696" y="855.3359">associated with</text><text fill="#000000" font-family="sans-serif" font-size="20" lengthAdjust="spacing" textLength="10" x="665.3774" y="858.3812">*</text><text fill="#000000" font-family="sans-serif" font-size="20" lengthAdjust="spacing" textLength="13" x="840.4549" y="858.5932">1</text></g><!--link PropertyVisit to Agent--><g id="link_PropertyVisit_Agent"><path codeLine="68" d="M355.55,259.5 C403.76,259.5 467.73,259.5 505.28,259.5 " fill="none" id="PropertyVisit-Agent" style="stroke:#181818;stroke-width:1.0;"/><polygon fill="#000000" points="373,244.2773,387.4721,248.9796,387.4721,239.5751,373,244.2773" style="stroke:#000000;stroke-width:1.0;"/><text fill="#000000" font-family="sans-serif" font-size="20" lengthAdjust="spacing" textLength="93" x="394" y="251.8359">organizes</text><text fill="#000000" font-family="sans-serif" font-size="20" lengthAdjust="spacing" textLength="10" x="363.5339" y="254.532">*</text><text fill="#000000" font-family="sans-serif" font-size="20" lengthAdjust="spacing" textLength="13" x="484.5003" y="253.5672">1</text></g><!--link PropertyVisit to Client--><g id="link_PropertyVisit_Client"><path codeLine="69" d="M260.06,292.18 C214.04,341.05 130.33,440 98.5,543 C64.84,651.93 108.57,790.39 127.52,841.69 " fill="none" id="PropertyVisit-Client" style="stroke:#181818;stroke-width:1.0;"/><polygon fill="#000000" points="108.3758,548.0004,100.4113,560.9665,109.5537,563.1716,108.3758,548.0004" style="stroke:#000000;stroke-width:1.0;"/><text fill="#000000" font-family="sans-serif" font-size="20" lengthAdjust="spacing" textLength="137" x="119.5" y="563.3359">participates in</text><text fill="#000000" font-family="sans-serif" font-size="20" lengthAdjust="spacing" textLength="10" x="243.5691" y="319.4252">*</text><text fill="#000000" font-family="sans-serif" font-size="20" lengthAdjust="spacing" textLength="13" x="110.8095" y="829.7465">1</text></g><!--link Agent to Email--><g id="link_Agent_Email"><path codeLine="71" d="M531.4,280.85 C526,302.61 517.32,338.17 510.5,369 C505.56,391.32 500.44,416.59 496.62,435.95 " fill="none" id="Agent-Email" style="stroke:#181818;stroke-width:1.0;"/><polygon fill="#000000" points="516.7495,389.5835,524.5045,376.4909,515.3278,374.4331,516.7495,389.5835" style="stroke:#000000;stroke-width:1.0;"/><text fill="#000000" font-family="sans-serif" font-size="20" lengthAdjust="spacing" textLength="56" x="531.5" y="389.3359">sends</text><text fill="#000000" font-family="sans-serif" font-size="20" lengthAdjust="spacing" textLength="13" x="515.8625" y="307.4813">1</text><text fill="#000000" font-family="sans-serif" font-size="20" lengthAdjust="spacing" textLength="10" x="486.8405" y="423.6574">*</text></g><!--link Email to Notification--><g id="link_Email_Notification"><path codeLine="72" d="M483.28,501.04 C474.63,538.86 460.38,601.09 453.1,632.91 " fill="none" id="Email-Notification" style="stroke:#181818;stroke-width:1.0;"/><polygon fill="#000000" points="483.2848,547.979,475.4723,561.0373,484.6399,563.1354,483.2848,547.979" style="stroke:#000000;stroke-width:1.0;"/><text fill="#000000" font-family="sans-serif" font-size="20" lengthAdjust="spacing" textLength="69" x="494.5" y="563.3359">derives</text><text fill="#000000" font-family="sans-serif" font-size="20" lengthAdjust="spacing" textLength="13" x="467.7504" y="528.5369">1</text><text fill="#000000" font-family="sans-serif" font-size="20" lengthAdjust="spacing" textLength="13" x="439.5894" y="620.6218">1</text></g><!--reverse link Person to Employee--><g id="link_Person_Employee"><path codeLine="75" d="M212.26,63 C228.37,63 244.49,63 260.6,63 " fill="none" id="Person-backto-Employee" style="stroke:#181818;stroke-width:1.0;"/><polygon fill="none" points="212.22,70,192.22,63,212.22,56,212.22,70" style="stroke:#181818;stroke-width:1.0;"/></g><!--reverse link Person to Client--><g id="link_Person_Client"><path codeLine="76" d="M60.21,137.48 C44.7,173.01 30.5,216.89 30.5,258.5 C30.5,258.5 30.5,258.5 30.5,655 C30.5,730.76 87.13,806.88 117.21,841.98 " fill="none" id="Person-backto-Client" style="stroke:#181818;stroke-width:1.0;"/><polygon fill="none" points="53.91,134.43,68.63,119.19,66.63,140.29,53.91,134.43" style="stroke:#181818;stroke-width:1.0;"/></g><!--link Employee to Role--><g id="link_Employee_Role"><path codeLine="77" d="M360.01,63 C404.79,63 468.84,63 503.31,63 " fill="none" id="Employee-Role" style="stroke:#181818;stroke-width:1.0;"/><polygon fill="#000000" points="385.75,47.7773,400.2221,52.4796,400.2221,43.0751,385.75,47.7773" style="stroke:#000000;stroke-width:1.0;"/><text fill="#000000" font-family="sans-serif" font-size="20" lengthAdjust="spacing" textLength="70" x="406.75" y="55.3359">defines</text><text fill="#000000" font-family="sans-serif" font-size="20" lengthAdjust="spacing" textLength="10" x="368.0162" y="57.7203">*</text><text fill="#000000" font-family="sans-serif" font-size="20" lengthAdjust="spacing" textLength="13" x="482.4457" y="56.5172">1</text></g><!--reverse link Role to Agent--><g id="link_Role_Agent"><path codeLine="78" d="M529.37,104.32 C531.26,145.16 534.1,206.67 535.56,238.24 " fill="none" id="Role-backto-Agent" style="stroke:#181818;stroke-width:1.0;"/><polygon fill="none" points="522.36,104.38,528.43,84.08,536.35,103.74,522.36,104.38" style="stroke:#181818;stroke-width:1.0;"/></g><!--link Notification to Client--><g id="link_Notification_Client"><path codeLine="80" d="M418.2,675.04 C358.37,714.61 225.66,802.37 165.81,841.95 " fill="none" id="Notification-Client" style="stroke:#181818;stroke-width:1.0;"/><polygon fill="#000000" points="326.1728,748.3645,311.5078,752.4252,316.6954,760.2696,326.1728,748.3645" style="stroke:#000000;stroke-width:1.0;"/><text fill="#000000" font-family="sans-serif" font-size="20" lengthAdjust="spacing" textLength="77" x="332.5" y="760.3359">receives</text><text fill="#000000" font-family="sans-serif" font-size="20" lengthAdjust="spacing" textLength="10" x="400.0369" y="702.0164">*</text><text fill="#000000" font-family="sans-serif" font-size="20" lengthAdjust="spacing" textLength="13" x="159.2089" y="829.6725">1</text></g><!--link Address to Property--><g id="link_Address_Property"><path codeLine="82" d="M969.5,339.05 C969.5,367.76 969.5,399.19 969.5,423.78 " fill="none" id="Address-Property" style="stroke:#181818;stroke-width:1.0;"/><polygon fill="#000000" points="977.5,373.7773,972.7977,388.2495,982.2023,388.2495,977.5,373.7773" style="stroke:#000000;stroke-width:1.0;"/><text fill="#000000" font-family="sans-serif" font-size="20" lengthAdjust="spacing" textLength="94" x="990.5" y="389.3359">located at</text><text fill="#000000" font-family="sans-serif" font-size="20" lengthAdjust="spacing" textLength="13" x="955.9008" y="366.7901">1</text><text fill="#000000" font-family="sans-serif" font-size="20" lengthAdjust="spacing" textLength="13" x="955.5453" y="411.924">1</text></g><!--link Property to AdvertisementRequest--><g id="link_Property_AdvertisementRequest"><path codeLine="83" d="M969.5,513.45 C969.5,538.79 969.5,570.88 969.5,597.9 " fill="none" id="Property-AdvertisementRequest" style="stroke:#181818;stroke-width:1.0;"/><polygon fill="#000000" points="977.5,547.7773,972.7977,562.2495,982.2023,562.2495,977.5,547.7773" style="stroke:#000000;stroke-width:1.0;"/><text fill="#000000" font-family="sans-serif" font-size="20" lengthAdjust="spacing" textLength="92" x="990.5" y="563.3359">describes</text><text fill="#000000" font-family="sans-serif" font-size="20" lengthAdjust="spacing" textLength="13" x="955.6672" y="540.0756">1</text><text fill="#000000" font-family="sans-serif" font-size="20" lengthAdjust="spacing" textLength="13" x="955.6672" y="585.5962">1</text></g><!--link AdvertisementRequest to Advertisement--><g id="link_AdvertisementRequest_Advertisement"><path codeLine="84" d="M969.5,710.2 C969.5,744.09 969.5,786.9 969.5,818.4 " fill="none" id="AdvertisementRequest-Advertisement" style="stroke:#181818;stroke-width:1.0;"/><polygon fill="#000000" points="977.5,744.7773,972.7977,759.2495,982.2023,759.2495,977.5,744.7773" style="stroke:#000000;stroke-width:1.0;"/><text fill="#000000" font-family="sans-serif" font-size="20" lengthAdjust="spacing" textLength="121" x="990.5" y="760.3359">derives from</text><text fill="#000000" font-family="sans-serif" font-size="20" lengthAdjust="spacing" textLength="13" x="955.7484" y="737.3832">1</text><text fill="#000000" font-family="sans-serif" font-size="20" lengthAdjust="spacing" textLength="13" x="955.5047" y="806.2138">1</text></g><!--link PropertyVisit to VisitRequest--><g id="link_PropertyVisit_VisitRequest"><path codeLine="85" d="M288.14,292.05 C281.45,371.13 274.67,580.68 372.5,710 C404.41,752.18 451.03,788.33 491.45,814.78 " fill="none" id="PropertyVisit-VisitRequest" style="stroke:#181818;stroke-width:1.0;"/><polygon fill="#000000" points="317.3999,563.2333,316.5364,548.0409,307.7715,551.4499,317.3999,563.2333" style="stroke:#000000;stroke-width:1.0;"/><text fill="#000000" font-family="sans-serif" font-size="20" lengthAdjust="spacing" textLength="121" x="327.5" y="563.3359">derives from</text><text fill="#000000" font-family="sans-serif" font-size="20" lengthAdjust="spacing" textLength="13" x="273.3221" y="319.5487">1</text><text fill="#000000" font-family="sans-serif" font-size="20" lengthAdjust="spacing" textLength="13" x="470.4745" y="805.8319">1</text></g><!--SRC=[XLJBRjim4BplLn0-5Z2GzcW41Wp31Nf9YxZedI5Nzi8KgP8h1uxQV- -Aj2h9IP2J-9ZPcNs8wKI-qL7NBfWJMcMnqgtZhy7pdbvGVRc3D41K7NmmnnXgL1nRdDmqsfpq0VTySQWY6jR-uAQ0TDGsF9C_g4gxX02JE-DqIXlcI4yjupSJV9Q-0pYIHMKe6ecLrpNoCTW4a3bgwmWzTt-7_OyO6eny-KM9k0Eh6RzNUGElCAe37L63fIHk3Mw9Brk95d74RWvoeCRuETGZ_cunINYc6d-6FUl8HQCSxBmjswbyML-f4pCOK_0TU5qZOAt9RQoDc18mEcoEmUD3MpzX72aFWQaYevbwul_ZNK_ke1QkD6AIGedNGPBCaEKZJdBIaGo3aQpXXHeJx8nqbX9HmZhdVtK_Eys1slGEvvgeK1kHmPlqH-gqe8jF2xLSEhNul2XzNSaavPkaxjz3vWwjr5axwZK-Haenck3jBL09ShcC6JXBVgKakM18WblrJ7nKQu3Pd1MDED48yQ2zZ70lyWPqcg7y0Ko6ckoTl12W39rWCbGOkRLY967lUmrbFm3aCnq9mLcCTCxYuZGFcBh_qplSrOqB5yJfgRh-HF0O7EQORIywGFje5NdiTNj4uMIB03FTCRThHDKNs-1WPIX4yTsMIkVPN2bvV79zDOlC7FYg8zU6zSQIaISZHtyBKVWsEvhTZnMgv2sxxT6qiBC9kQ6juHy0]--></g></svg>