<?xml version="1.0" encoding="UTF-8" standalone="no"?><svg xmlns="http://www.w3.org/2000/svg" xmlns:xlink="http://www.w3.org/1999/xlink" contentStyleType="text/css" height="1671px" preserveAspectRatio="none" style="width:1560px;height:1671px;background:#FFFFFF;" version="1.1" viewBox="0 0 1560 1671" width="1560px" zoomAndPan="magnify"><defs/><g><!--class ManageRequestUI--><g id="elem_ManageRequestUI"><rect codeLine="9" fill="#F1F1F1" height="50" id="ManageRequestUI" rx="2.5" ry="2.5" style="stroke:#181818;stroke-width:0.5;" width="205" x="658.5" y="7"/><ellipse cx="674.5" cy="24" fill="#ADD1B2" rx="12" ry="12" style="stroke:#181818;stroke-width:1.0;"/><path d="M677.3066,31.0801 Q676.623,31.4316 675.8711,31.6074 Q675.1191,31.7832 674.2891,31.7832 Q671.3398,31.7832 669.7871,29.8398 Q668.2344,27.8965 668.2344,24.2246 Q668.2344,20.543 669.7871,18.5996 Q671.3398,16.6563 674.2891,16.6563 Q675.1191,16.6563 675.8809,16.832 Q676.6426,17.0078 677.3066,17.3594 L677.3066,20.5625 Q676.5645,19.8789 675.8662,19.5615 Q675.168,19.2441 674.4258,19.2441 Q672.8438,19.2441 672.0381,20.499 Q671.2324,21.7539 671.2324,24.2246 Q671.2324,26.6855 672.0381,27.9404 Q672.8438,29.1953 674.4258,29.1953 Q675.168,29.1953 675.8662,28.8779 Q676.5645,28.5605 677.3066,27.877 Z " fill="#000000"/><text fill="#000000" font-family="sans-serif" font-size="20" lengthAdjust="spacing" textLength="171" x="689.5" y="31.5586">ManageRequestUI</text><line style="stroke:#181818;stroke-width:0.5;" x1="659.5" x2="862.5" y1="41" y2="41"/><line style="stroke:#181818;stroke-width:0.5;" x1="659.5" x2="862.5" y1="49" y2="49"/></g><!--class ManageRequestsController--><g id="elem_ManageRequestsController"><rect codeLine="11" fill="#F1F1F1" height="238.4375" id="ManageRequestsController" rx="2.5" ry="2.5" style="stroke:#181818;stroke-width:0.5;" width="418" x="552" y="117"/><ellipse cx="628" cy="134" fill="#ADD1B2" rx="12" ry="12" style="stroke:#181818;stroke-width:1.0;"/><path d="M630.8066,141.0801 Q630.123,141.4316 629.3711,141.6074 Q628.6191,141.7832 627.7891,141.7832 Q624.8398,141.7832 623.2871,139.8398 Q621.7344,137.8965 621.7344,134.2246 Q621.7344,130.543 623.2871,128.5996 Q624.8398,126.6563 627.7891,126.6563 Q628.6191,126.6563 629.3809,126.832 Q630.1426,127.0078 630.8066,127.3594 L630.8066,130.5625 Q630.0645,129.8789 629.3662,129.5615 Q628.668,129.2441 627.9258,129.2441 Q626.3438,129.2441 625.5381,130.499 Q624.7324,131.7539 624.7324,134.2246 Q624.7324,136.6855 625.5381,137.9404 Q626.3438,139.1953 627.9258,139.1953 Q628.668,139.1953 629.3662,138.8779 Q630.0645,138.5605 630.8066,137.877 Z " fill="#000000"/><text fill="#000000" font-family="sans-serif" font-size="20" lengthAdjust="spacing" textLength="257" x="650" y="141.5586">ManageRequestsController</text><line style="stroke:#181818;stroke-width:0.5;" x1="553" x2="969" y1="151" y2="151"/><line style="stroke:#181818;stroke-width:0.5;" x1="553" x2="969" y1="159" y2="159"/><text fill="#000000" font-family="sans-serif" font-size="20" lengthAdjust="spacing" textLength="292" x="558" y="182.3359">+requestTypeOfCommission()</text><text fill="#000000" font-family="sans-serif" font-size="20" lengthAdjust="spacing" textLength="222" x="558" y="205.8906">+requestCommission()</text><text fill="#000000" font-family="sans-serif" font-size="20" lengthAdjust="spacing" textLength="380" x="558" y="229.4453">+displayAndSelectAgentRequest(email)</text><text fill="#000000" font-family="sans-serif" font-size="20" lengthAdjust="spacing" textLength="271" x="558" y="253">+requestValidation(request)</text><text fill="#000000" font-family="sans-serif" font-size="20" lengthAdjust="spacing" textLength="406" x="558" y="276.5547">+addAdvertisement(request, commission)</text><text fill="#000000" font-family="sans-serif" font-size="20" lengthAdjust="spacing" textLength="284" x="558" y="300.1094">+getListOfTypeCommission()</text><text fill="#000000" font-family="sans-serif" font-size="20" lengthAdjust="spacing" textLength="256" x="558" y="323.6641">+getAgentRequests(email)</text><text fill="#000000" font-family="sans-serif" font-size="20" lengthAdjust="spacing" textLength="374" x="558" y="347.2188">+changeRequestStatus(request, status)</text></g><!--class ManageRequestRepository--><g id="elem_ManageRequestRepository"><rect codeLine="22" fill="#F1F1F1" height="97.1094" id="ManageRequestRepository" rx="2.5" ry="2.5" style="stroke:#181818;stroke-width:0.5;" width="302" x="729" y="774"/><ellipse cx="751.75" cy="791" fill="#ADD1B2" rx="12" ry="12" style="stroke:#181818;stroke-width:1.0;"/><path d="M754.5566,798.0801 Q753.873,798.4316 753.1211,798.6074 Q752.3691,798.7832 751.5391,798.7832 Q748.5898,798.7832 747.0371,796.8398 Q745.4844,794.8965 745.4844,791.2246 Q745.4844,787.543 747.0371,785.5996 Q748.5898,783.6563 751.5391,783.6563 Q752.3691,783.6563 753.1309,783.832 Q753.8926,784.0078 754.5566,784.3594 L754.5566,787.5625 Q753.8145,786.8789 753.1162,786.5615 Q752.418,786.2441 751.6758,786.2441 Q750.0938,786.2441 749.2881,787.499 Q748.4824,788.7539 748.4824,791.2246 Q748.4824,793.6855 749.2881,794.9404 Q750.0938,796.1953 751.6758,796.1953 Q752.418,796.1953 753.1162,795.8779 Q753.8145,795.5605 754.5566,794.877 Z " fill="#000000"/><text fill="#000000" font-family="sans-serif" font-size="20" lengthAdjust="spacing" textLength="253" x="768.25" y="798.5586">ManageRequestRepository</text><line style="stroke:#181818;stroke-width:0.5;" x1="730" x2="1030" y1="808" y2="808"/><line style="stroke:#181818;stroke-width:0.5;" x1="730" x2="1030" y1="816" y2="816"/><text fill="#000000" font-family="sans-serif" font-size="20" lengthAdjust="spacing" textLength="246" x="735" y="839.3359">+getAgentRequest(email)</text><text fill="#000000" font-family="sans-serif" font-size="20" lengthAdjust="spacing" textLength="290" x="735" y="862.8906">+changeRequestStatus(status)</text></g><!--class ManageAdvertisementRepository--><g id="elem_ManageAdvertisementRepository"><rect codeLine="26" fill="#F1F1F1" height="97.1094" id="ManageAdvertisementRepository" rx="2.5" ry="2.5" style="stroke:#181818;stroke-width:0.5;" width="392" x="7" y="774"/><ellipse cx="42.35" cy="791" fill="#ADD1B2" rx="12" ry="12" style="stroke:#181818;stroke-width:1.0;"/><path d="M45.1566,798.0801 Q44.473,798.4316 43.7211,798.6074 Q42.9691,798.7832 42.1391,798.7832 Q39.1898,798.7832 37.6371,796.8398 Q36.0844,794.8965 36.0844,791.2246 Q36.0844,787.543 37.6371,785.5996 Q39.1898,783.6563 42.1391,783.6563 Q42.9691,783.6563 43.7309,783.832 Q44.4926,784.0078 45.1566,784.3594 L45.1566,787.5625 Q44.4145,786.8789 43.7162,786.5615 Q43.018,786.2441 42.2758,786.2441 Q40.6938,786.2441 39.8881,787.499 Q39.0824,788.7539 39.0824,791.2246 Q39.0824,793.6855 39.8881,794.9404 Q40.6938,796.1953 42.2758,796.1953 Q43.018,796.1953 43.7162,795.8779 Q44.4145,795.5605 45.1566,794.877 Z " fill="#000000"/><text fill="#000000" font-family="sans-serif" font-size="20" lengthAdjust="spacing" textLength="315" x="61.65" y="798.5586">ManageAdvertisementRepository</text><line style="stroke:#181818;stroke-width:0.5;" x1="8" x2="398" y1="808" y2="808"/><line style="stroke:#181818;stroke-width:0.5;" x1="8" x2="398" y1="816" y2="816"/><text fill="#000000" font-family="sans-serif" font-size="20" lengthAdjust="spacing" textLength="347" x="13" y="839.3359">+addAdvertisement(request, status)</text><text fill="#000000" font-family="sans-serif" font-size="20" lengthAdjust="spacing" textLength="380" x="13" y="862.8906">+validateAdvertisement(advertisement)</text></g><!--class ManageFilterRepository--><g id="elem_ManageFilterRepository"><rect codeLine="30" fill="#F1F1F1" height="73.5547" id="ManageFilterRepository" rx="2.5" ry="2.5" style="stroke:#181818;stroke-width:0.5;" width="259" x="434.5" y="785.5"/><ellipse cx="450.5" cy="802.5" fill="#ADD1B2" rx="12" ry="12" style="stroke:#181818;stroke-width:1.0;"/><path d="M453.3066,809.5801 Q452.623,809.9316 451.8711,810.1074 Q451.1191,810.2832 450.2891,810.2832 Q447.3398,810.2832 445.7871,808.3398 Q444.2344,806.3965 444.2344,802.7246 Q444.2344,799.043 445.7871,797.0996 Q447.3398,795.1563 450.2891,795.1563 Q451.1191,795.1563 451.8809,795.332 Q452.6426,795.5078 453.3066,795.8594 L453.3066,799.0625 Q452.5645,798.3789 451.8662,798.0615 Q451.168,797.7441 450.4258,797.7441 Q448.8438,797.7441 448.0381,798.999 Q447.2324,800.2539 447.2324,802.7246 Q447.2324,805.1855 448.0381,806.4404 Q448.8438,807.6953 450.4258,807.6953 Q451.168,807.6953 451.8662,807.3779 Q452.5645,807.0605 453.3066,806.377 Z " fill="#000000"/><text fill="#000000" font-family="sans-serif" font-size="20" lengthAdjust="spacing" textLength="225" x="465.5" y="810.0586">ManageFilterRepository</text><line style="stroke:#181818;stroke-width:0.5;" x1="435.5" x2="692.5" y1="819.5" y2="819.5"/><line style="stroke:#181818;stroke-width:0.5;" x1="435.5" x2="692.5" y1="827.5" y2="827.5"/><text fill="#000000" font-family="sans-serif" font-size="20" lengthAdjust="spacing" textLength="237" x="440.5" y="850.8359">+getListOfCommission()</text></g><!--class Repositories--><g id="elem_Repositories"><rect codeLine="34" fill="#F1F1F1" height="191.3281" id="Repositories" rx="2.5" ry="2.5" style="stroke:#181818;stroke-width:0.5;" width="313" x="557.5" y="931"/><ellipse cx="650" cy="948" fill="#ADD1B2" rx="12" ry="12" style="stroke:#181818;stroke-width:1.0;"/><path d="M652.8066,955.0801 Q652.123,955.4316 651.3711,955.6074 Q650.6191,955.7832 649.7891,955.7832 Q646.8398,955.7832 645.2871,953.8398 Q643.7344,951.8965 643.7344,948.2246 Q643.7344,944.543 645.2871,942.5996 Q646.8398,940.6563 649.7891,940.6563 Q650.6191,940.6563 651.3809,940.832 Q652.1426,941.0078 652.8066,941.3594 L652.8066,944.5625 Q652.0645,943.8789 651.3662,943.5615 Q650.668,943.2441 649.9258,943.2441 Q648.3438,943.2441 647.5381,944.499 Q646.7324,945.7539 646.7324,948.2246 Q646.7324,950.6855 647.5381,951.9404 Q648.3438,953.1953 649.9258,953.1953 Q650.668,953.1953 651.3662,952.8779 Q652.0645,952.5605 652.8066,951.877 Z " fill="#000000"/><text fill="#000000" font-family="sans-serif" font-size="20" lengthAdjust="spacing" textLength="119" x="672" y="955.5586">Repositories</text><line style="stroke:#181818;stroke-width:0.5;" x1="558.5" x2="869.5" y1="965" y2="965"/><line style="stroke:#181818;stroke-width:0.5;" x1="558.5" x2="869.5" y1="973" y2="973"/><text fill="#000000" font-family="sans-serif" font-size="20" lengthAdjust="spacing" textLength="145" x="563.5" y="996.3359">-Repositories()</text><text fill="#000000" font-family="sans-serif" font-size="20" lengthAdjust="spacing" textLength="276" x="563.5" y="1019.8906">+getInstance() : Repositories</text><text fill="#000000" font-family="sans-serif" font-size="20" lengthAdjust="spacing" textLength="301" x="563.5" y="1043.4453">+getAuthenticationRepository()</text><text fill="#000000" font-family="sans-serif" font-size="20" lengthAdjust="spacing" textLength="301" x="563.5" y="1067">+getAdvertisementRepository()</text><text fill="#000000" font-family="sans-serif" font-size="20" lengthAdjust="spacing" textLength="211" x="563.5" y="1090.5547">+getFilterRepository()</text><text fill="#000000" font-family="sans-serif" font-size="20" lengthAdjust="spacing" textLength="239" x="563.5" y="1114.1094">+getRequestRepository()</text></g><!--class RequestRepository--><g id="elem_RequestRepository"><rect codeLine="43" fill="#F1F1F1" height="120.6641" id="RequestRepository" rx="2.5" ry="2.5" style="stroke:#181818;stroke-width:0.5;" width="228" x="874" y="1182"/><ellipse cx="896.75" cy="1199" fill="#ADD1B2" rx="12" ry="12" style="stroke:#181818;stroke-width:1.0;"/><path d="M899.5566,1206.0801 Q898.873,1206.4316 898.1211,1206.6074 Q897.3691,1206.7832 896.5391,1206.7832 Q893.5898,1206.7832 892.0371,1204.8398 Q890.4844,1202.8965 890.4844,1199.2246 Q890.4844,1195.543 892.0371,1193.5996 Q893.5898,1191.6563 896.5391,1191.6563 Q897.3691,1191.6563 898.1309,1191.832 Q898.8926,1192.0078 899.5566,1192.3594 L899.5566,1195.5625 Q898.8145,1194.8789 898.1162,1194.5615 Q897.418,1194.2441 896.6758,1194.2441 Q895.0938,1194.2441 894.2881,1195.499 Q893.4824,1196.7539 893.4824,1199.2246 Q893.4824,1201.6855 894.2881,1202.9404 Q895.0938,1204.1953 896.6758,1204.1953 Q897.418,1204.1953 898.1162,1203.8779 Q898.8145,1203.5605 899.5566,1202.877 Z " fill="#000000"/><text fill="#000000" font-family="sans-serif" font-size="20" lengthAdjust="spacing" textLength="179" x="913.25" y="1206.5586">RequestRepository</text><line style="stroke:#181818;stroke-width:0.5;" x1="875" x2="1101" y1="1216" y2="1216"/><line style="stroke:#181818;stroke-width:0.5;" x1="875" x2="1101" y1="1224" y2="1224"/><text fill="#000000" font-family="sans-serif" font-size="20" lengthAdjust="spacing" textLength="216" x="880" y="1247.3359">+addRequest(request)</text><text fill="#000000" font-family="sans-serif" font-size="20" lengthAdjust="spacing" textLength="75" x="880" y="1270.8906">+copy()</text><text fill="#000000" font-family="sans-serif" font-size="20" lengthAdjust="spacing" textLength="169" x="880" y="1294.4453">+setRequestList()</text></g><!--class AdvertisementRepository--><g id="elem_AdvertisementRepository"><rect codeLine="48" fill="#F1F1F1" height="97.1094" id="AdvertisementRepository" rx="2.5" ry="2.5" style="stroke:#181818;stroke-width:0.5;" width="354" x="200" y="1194"/><ellipse cx="252" cy="1211" fill="#ADD1B2" rx="12" ry="12" style="stroke:#181818;stroke-width:1.0;"/><path d="M254.8066,1218.0801 Q254.123,1218.4316 253.3711,1218.6074 Q252.6191,1218.7832 251.7891,1218.7832 Q248.8398,1218.7832 247.2871,1216.8398 Q245.7344,1214.8965 245.7344,1211.2246 Q245.7344,1207.543 247.2871,1205.5996 Q248.8398,1203.6563 251.7891,1203.6563 Q252.6191,1203.6563 253.3809,1203.832 Q254.1426,1204.0078 254.8066,1204.3594 L254.8066,1207.5625 Q254.0645,1206.8789 253.3662,1206.5615 Q252.668,1206.2441 251.9258,1206.2441 Q250.3438,1206.2441 249.5381,1207.499 Q248.7324,1208.7539 248.7324,1211.2246 Q248.7324,1213.6855 249.5381,1214.9404 Q250.3438,1216.1953 251.9258,1216.1953 Q252.668,1216.1953 253.3662,1215.8779 Q254.0645,1215.5605 254.8066,1214.877 Z " fill="#000000"/><text fill="#000000" font-family="sans-serif" font-size="20" lengthAdjust="spacing" textLength="241" x="274" y="1218.5586">AdvertisementRepository</text><line style="stroke:#181818;stroke-width:0.5;" x1="201" x2="553" y1="1228" y2="1228"/><line style="stroke:#181818;stroke-width:0.5;" x1="201" x2="553" y1="1236" y2="1236"/><text fill="#000000" font-family="sans-serif" font-size="20" lengthAdjust="spacing" textLength="342" x="206" y="1259.3359">+addAdvertisement(advertisement)</text><text fill="#000000" font-family="sans-serif" font-size="20" lengthAdjust="spacing" textLength="75" x="206" y="1282.8906">+copy()</text></g><!--class FilterRepository--><g id="elem_FilterRepository"><rect codeLine="52" fill="#F1F1F1" height="97.1094" id="FilterRepository" rx="2.5" ry="2.5" style="stroke:#181818;stroke-width:0.5;" width="249" x="589.5" y="1194"/><ellipse cx="634.3" cy="1211" fill="#ADD1B2" rx="12" ry="12" style="stroke:#181818;stroke-width:1.0;"/><path d="M637.1066,1218.0801 Q636.423,1218.4316 635.6711,1218.6074 Q634.9191,1218.7832 634.0891,1218.7832 Q631.1398,1218.7832 629.5871,1216.8398 Q628.0344,1214.8965 628.0344,1211.2246 Q628.0344,1207.543 629.5871,1205.5996 Q631.1398,1203.6563 634.0891,1203.6563 Q634.9191,1203.6563 635.6809,1203.832 Q636.4426,1204.0078 637.1066,1204.3594 L637.1066,1207.5625 Q636.3645,1206.8789 635.6662,1206.5615 Q634.968,1206.2441 634.2258,1206.2441 Q632.6438,1206.2441 631.8381,1207.499 Q631.0324,1208.7539 631.0324,1211.2246 Q631.0324,1213.6855 631.8381,1214.9404 Q632.6438,1216.1953 634.2258,1216.1953 Q634.968,1216.1953 635.6662,1215.8779 Q636.3645,1215.5605 637.1066,1214.877 Z " fill="#000000"/><text fill="#000000" font-family="sans-serif" font-size="20" lengthAdjust="spacing" textLength="151" x="655.7" y="1218.5586">FilterRepository</text><line style="stroke:#181818;stroke-width:0.5;" x1="590.5" x2="837.5" y1="1228" y2="1228"/><line style="stroke:#181818;stroke-width:0.5;" x1="590.5" x2="837.5" y1="1236" y2="1236"/><text fill="#000000" font-family="sans-serif" font-size="20" lengthAdjust="spacing" textLength="237" x="595.5" y="1259.3359">+getListOfCommission()</text><text fill="#000000" font-family="sans-serif" font-size="20" lengthAdjust="spacing" textLength="75" x="595.5" y="1282.8906">+copy()</text></g><!--class AuthenticationRepository--><g id="elem_AuthenticationRepository"><rect codeLine="56" fill="#F1F1F1" height="97.1094" id="AuthenticationRepository" rx="2.5" ry="2.5" style="stroke:#181818;stroke-width:0.5;" width="345" x="1208.5" y="1194"/><ellipse cx="1256" cy="1211" fill="#ADD1B2" rx="12" ry="12" style="stroke:#181818;stroke-width:1.0;"/><path d="M1258.8066,1218.0801 Q1258.123,1218.4316 1257.3711,1218.6074 Q1256.6191,1218.7832 1255.7891,1218.7832 Q1252.8398,1218.7832 1251.2871,1216.8398 Q1249.7344,1214.8965 1249.7344,1211.2246 Q1249.7344,1207.543 1251.2871,1205.5996 Q1252.8398,1203.6563 1255.7891,1203.6563 Q1256.6191,1203.6563 1257.3809,1203.832 Q1258.1426,1204.0078 1258.8066,1204.3594 L1258.8066,1207.5625 Q1258.0645,1206.8789 1257.3662,1206.5615 Q1256.668,1206.2441 1255.9258,1206.2441 Q1254.3438,1206.2441 1253.5381,1207.499 Q1252.7324,1208.7539 1252.7324,1211.2246 Q1252.7324,1213.6855 1253.5381,1214.9404 Q1254.3438,1216.1953 1255.9258,1216.1953 Q1256.668,1216.1953 1257.3662,1215.8779 Q1258.0645,1215.5605 1258.8066,1214.877 Z " fill="#000000"/><text fill="#000000" font-family="sans-serif" font-size="20" lengthAdjust="spacing" textLength="241" x="1278" y="1218.5586">AuthenticationRepository</text><line style="stroke:#181818;stroke-width:0.5;" x1="1209.5" x2="1552.5" y1="1228" y2="1228"/><text fill="#000000" font-family="sans-serif" font-size="20" lengthAdjust="spacing" textLength="333" x="1214.5" y="1251.3359">-AuthFacade authenticationFacade</text><line style="stroke:#181818;stroke-width:0.5;" x1="1209.5" x2="1552.5" y1="1259.5547" y2="1259.5547"/><text fill="#000000" font-family="sans-serif" font-size="20" lengthAdjust="spacing" textLength="247" x="1214.5" y="1282.8906">+getCurrentUserSession()</text></g><!--class AuthFacade--><g id="elem_AuthFacade"><rect codeLine="61" fill="#F1F1F1" height="144.2188" id="AuthFacade" rx="2.5" ry="2.5" style="stroke:#181818;stroke-width:0.5;" width="259" x="1251.5" y="1363"/><ellipse cx="1320.5" cy="1380" fill="#ADD1B2" rx="12" ry="12" style="stroke:#181818;stroke-width:1.0;"/><path d="M1323.3066,1387.0801 Q1322.623,1387.4316 1321.8711,1387.6074 Q1321.1191,1387.7832 1320.2891,1387.7832 Q1317.3398,1387.7832 1315.7871,1385.8398 Q1314.2344,1383.8965 1314.2344,1380.2246 Q1314.2344,1376.543 1315.7871,1374.5996 Q1317.3398,1372.6563 1320.2891,1372.6563 Q1321.1191,1372.6563 1321.8809,1372.832 Q1322.6426,1373.0078 1323.3066,1373.3594 L1323.3066,1376.5625 Q1322.5645,1375.8789 1321.8662,1375.5615 Q1321.168,1375.2441 1320.4258,1375.2441 Q1318.8438,1375.2441 1318.0381,1376.499 Q1317.2324,1377.7539 1317.2324,1380.2246 Q1317.2324,1382.6855 1318.0381,1383.9404 Q1318.8438,1385.1953 1320.4258,1385.1953 Q1321.168,1385.1953 1321.8662,1384.8779 Q1322.5645,1384.5605 1323.3066,1383.877 Z " fill="#000000"/><text fill="#000000" font-family="sans-serif" font-size="20" lengthAdjust="spacing" textLength="112" x="1342.5" y="1387.5586">AuthFacade</text><line style="stroke:#181818;stroke-width:0.5;" x1="1252.5" x2="1509.5" y1="1397" y2="1397"/><text fill="#000000" font-family="sans-serif" font-size="20" lengthAdjust="spacing" textLength="246" x="1257.5" y="1420.3359">-UserSession userSession</text><text fill="#000000" font-family="sans-serif" font-size="20" lengthAdjust="spacing" textLength="199" x="1257.5" y="1443.8906">-UserRoleStore roles</text><text fill="#000000" font-family="sans-serif" font-size="20" lengthAdjust="spacing" textLength="161" x="1257.5" y="1467.4453">-UserStore users</text><line style="stroke:#181818;stroke-width:0.5;" x1="1252.5" x2="1509.5" y1="1475.6641" y2="1475.6641"/><text fill="#000000" font-family="sans-serif" font-size="20" lengthAdjust="spacing" textLength="247" x="1257.5" y="1499">+getCurrentUserSession()</text></g><!--class Request--><g id="elem_Request"><rect codeLine="69" fill="#F1F1F1" height="238.4375" id="Request" rx="2.5" ry="2.5" style="stroke:#181818;stroke-width:0.5;" width="233" x="967.5" y="476"/><ellipse cx="1041" cy="493" fill="#ADD1B2" rx="12" ry="12" style="stroke:#181818;stroke-width:1.0;"/><path d="M1043.8066,500.0801 Q1043.123,500.4316 1042.3711,500.6074 Q1041.6191,500.7832 1040.7891,500.7832 Q1037.8398,500.7832 1036.2871,498.8398 Q1034.7344,496.8965 1034.7344,493.2246 Q1034.7344,489.543 1036.2871,487.5996 Q1037.8398,485.6563 1040.7891,485.6563 Q1041.6191,485.6563 1042.3809,485.832 Q1043.1426,486.0078 1043.8066,486.3594 L1043.8066,489.5625 Q1043.0645,488.8789 1042.3662,488.5615 Q1041.668,488.2441 1040.9258,488.2441 Q1039.3438,488.2441 1038.5381,489.499 Q1037.7324,490.7539 1037.7324,493.2246 Q1037.7324,495.6855 1038.5381,496.9404 Q1039.3438,498.1953 1040.9258,498.1953 Q1041.668,498.1953 1042.3662,497.8779 Q1043.0645,497.5605 1043.8066,496.877 Z " fill="#000000"/><text fill="#000000" font-family="sans-serif" font-size="20" lengthAdjust="spacing" textLength="77" x="1063" y="500.5586">Request</text><line style="stroke:#181818;stroke-width:0.5;" x1="968.5" x2="1199.5" y1="510" y2="510"/><text fill="#000000" font-family="sans-serif" font-size="20" lengthAdjust="spacing" textLength="180" x="973.5" y="533.3359">-Property property</text><text fill="#000000" font-family="sans-serif" font-size="20" lengthAdjust="spacing" textLength="126" x="973.5" y="556.8906">-Client client</text><text fill="#000000" font-family="sans-serif" font-size="20" lengthAdjust="spacing" textLength="164" x="973.5" y="580.4453">-Employee agent</text><text fill="#000000" font-family="sans-serif" font-size="20" lengthAdjust="spacing" textLength="216" x="973.5" y="604">-String dateOfRequest</text><text fill="#000000" font-family="sans-serif" font-size="20" lengthAdjust="spacing" textLength="221" x="973.5" y="627.5547">-String typeOfBusiness</text><text fill="#000000" font-family="sans-serif" font-size="20" lengthAdjust="spacing" textLength="122" x="973.5" y="651.1094">-String price</text><text fill="#000000" font-family="sans-serif" font-size="20" lengthAdjust="spacing" textLength="131" x="973.5" y="674.6641">-String status</text><line style="stroke:#181818;stroke-width:0.5;" x1="968.5" x2="1199.5" y1="682.8828" y2="682.8828"/><text fill="#000000" font-family="sans-serif" font-size="20" lengthAdjust="spacing" textLength="173" x="973.5" y="706.2188">+setStatus(status)</text></g><!--class Advertisement--><g id="elem_Advertisement"><rect codeLine="80" fill="#F1F1F1" height="120.6641" id="Advertisement" rx="2.5" ry="2.5" style="stroke:#181818;stroke-width:0.5;" width="290" x="232" y="1374.5"/><ellipse cx="303" cy="1391.5" fill="#ADD1B2" rx="12" ry="12" style="stroke:#181818;stroke-width:1.0;"/><path d="M305.8066,1398.5801 Q305.123,1398.9316 304.3711,1399.1074 Q303.6191,1399.2832 302.7891,1399.2832 Q299.8398,1399.2832 298.2871,1397.3398 Q296.7344,1395.3965 296.7344,1391.7246 Q296.7344,1388.043 298.2871,1386.0996 Q299.8398,1384.1563 302.7891,1384.1563 Q303.6191,1384.1563 304.3809,1384.332 Q305.1426,1384.5078 305.8066,1384.8594 L305.8066,1388.0625 Q305.0645,1387.3789 304.3662,1387.0615 Q303.668,1386.7441 302.9258,1386.7441 Q301.3438,1386.7441 300.5381,1387.999 Q299.7324,1389.2539 299.7324,1391.7246 Q299.7324,1394.1855 300.5381,1395.4404 Q301.3438,1396.6953 302.9258,1396.6953 Q303.668,1396.6953 304.3662,1396.3779 Q305.0645,1396.0605 305.8066,1395.377 Z " fill="#000000"/><text fill="#000000" font-family="sans-serif" font-size="20" lengthAdjust="spacing" textLength="139" x="325" y="1399.0586">Advertisement</text><line style="stroke:#181818;stroke-width:0.5;" x1="233" x2="521" y1="1408.5" y2="1408.5"/><text fill="#000000" font-family="sans-serif" font-size="20" lengthAdjust="spacing" textLength="167" x="238" y="1431.8359">-Request request</text><text fill="#000000" font-family="sans-serif" font-size="20" lengthAdjust="spacing" textLength="254" x="238" y="1455.3906">-Commission commission</text><text fill="#000000" font-family="sans-serif" font-size="20" lengthAdjust="spacing" textLength="278" x="238" y="1478.9453">-String dateOfAdvertisement</text><line style="stroke:#181818;stroke-width:0.5;" x1="233" x2="521" y1="1487.1641" y2="1487.1641"/></g><!--class Commission--><g id="elem_Commission"><rect codeLine="86" fill="#F1F1F1" height="97.1094" id="Commission" rx="2.5" ry="2.5" style="stroke:#181818;stroke-width:0.5;" width="270" x="242" y="1567"/><ellipse cx="312.5" cy="1584" fill="#ADD1B2" rx="12" ry="12" style="stroke:#181818;stroke-width:1.0;"/><path d="M315.3066,1591.0801 Q314.623,1591.4316 313.8711,1591.6074 Q313.1191,1591.7832 312.2891,1591.7832 Q309.3398,1591.7832 307.7871,1589.8398 Q306.2344,1587.8965 306.2344,1584.2246 Q306.2344,1580.543 307.7871,1578.5996 Q309.3398,1576.6563 312.2891,1576.6563 Q313.1191,1576.6563 313.8809,1576.832 Q314.6426,1577.0078 315.3066,1577.3594 L315.3066,1580.5625 Q314.5645,1579.8789 313.8662,1579.5615 Q313.168,1579.2441 312.4258,1579.2441 Q310.8438,1579.2441 310.0381,1580.499 Q309.2324,1581.7539 309.2324,1584.2246 Q309.2324,1586.6855 310.0381,1587.9404 Q310.8438,1589.1953 312.4258,1589.1953 Q313.168,1589.1953 313.8662,1588.8779 Q314.5645,1588.5605 315.3066,1587.877 Z " fill="#000000"/><text fill="#000000" font-family="sans-serif" font-size="20" lengthAdjust="spacing" textLength="120" x="334.5" y="1591.5586">Commission</text><line style="stroke:#181818;stroke-width:0.5;" x1="243" x2="511" y1="1601" y2="1601"/><text fill="#000000" font-family="sans-serif" font-size="20" lengthAdjust="spacing" textLength="258" x="248" y="1624.3359">-String typeOfCommission</text><text fill="#000000" font-family="sans-serif" font-size="20" lengthAdjust="spacing" textLength="124" x="248" y="1647.8906">-String value</text><line style="stroke:#181818;stroke-width:0.5;" x1="243" x2="511" y1="1656.1094" y2="1656.1094"/></g><!--class UserSession--><g id="elem_UserSession"><rect codeLine="92" fill="#F1F1F1" height="97.1094" id="UserSession" rx="2.5" ry="2.5" style="stroke:#181818;stroke-width:0.5;" width="149" x="1306.5" y="1567"/><ellipse cx="1322.5" cy="1584" fill="#ADD1B2" rx="12" ry="12" style="stroke:#181818;stroke-width:1.0;"/><path d="M1325.3066,1591.0801 Q1324.623,1591.4316 1323.8711,1591.6074 Q1323.1191,1591.7832 1322.2891,1591.7832 Q1319.3398,1591.7832 1317.7871,1589.8398 Q1316.2344,1587.8965 1316.2344,1584.2246 Q1316.2344,1580.543 1317.7871,1578.5996 Q1319.3398,1576.6563 1322.2891,1576.6563 Q1323.1191,1576.6563 1323.8809,1576.832 Q1324.6426,1577.0078 1325.3066,1577.3594 L1325.3066,1580.5625 Q1324.5645,1579.8789 1323.8662,1579.5615 Q1323.168,1579.2441 1322.4258,1579.2441 Q1320.8438,1579.2441 1320.0381,1580.499 Q1319.2324,1581.7539 1319.2324,1584.2246 Q1319.2324,1586.6855 1320.0381,1587.9404 Q1320.8438,1589.1953 1322.4258,1589.1953 Q1323.168,1589.1953 1323.8662,1588.8779 Q1324.5645,1588.5605 1325.3066,1587.877 Z " fill="#000000"/><text fill="#000000" font-family="sans-serif" font-size="20" lengthAdjust="spacing" textLength="115" x="1337.5" y="1591.5586">UserSession</text><line style="stroke:#181818;stroke-width:0.5;" x1="1307.5" x2="1454.5" y1="1601" y2="1601"/><text fill="#000000" font-family="sans-serif" font-size="20" lengthAdjust="spacing" textLength="102" x="1312.5" y="1624.3359">-User user</text><line style="stroke:#181818;stroke-width:0.5;" x1="1307.5" x2="1454.5" y1="1632.5547" y2="1632.5547"/><text fill="#000000" font-family="sans-serif" font-size="20" lengthAdjust="spacing" textLength="122" x="1312.5" y="1655.8906">+getUserId()</text></g><!--link ManageRequestUI to ManageRequestsController--><g id="link_ManageRequestUI_ManageRequestsController"><path codeLine="98" d="M761,57.37 C761,71.74 761,91.15 761,111.86 " fill="none" id="ManageRequestUI-to-ManageRequestsController" style="stroke:#181818;stroke-width:1.0;stroke-dasharray:7.0,7.0;"/><polygon fill="#181818" points="761,116.86,765,107.86,761,111.86,757,107.86,761,116.86" style="stroke:#181818;stroke-width:1.0;"/></g><!--link ManageRequestsController to ManageAdvertisementRepository--><g id="link_ManageRequestsController_ManageAdvertisementRepository"><path codeLine="99" d="M648.08,355.28 C526.99,482.12 340.29,677.69 252.21,769.96 " fill="none" id="ManageRequestsController-to-ManageAdvertisementRepository" style="stroke:#181818;stroke-width:1.0;stroke-dasharray:7.0,7.0;"/><polygon fill="#181818" points="248.6,773.73,257.7116,769.9911,252.0561,770.1168,251.9304,764.4613,248.6,773.73" style="stroke:#181818;stroke-width:1.0;"/></g><!--link ManageRequestsController to ManageFilterRepository--><g id="link_ManageRequestsController_ManageFilterRepository"><path codeLine="100" d="M721.13,355.28 C676.67,487.22 607.13,693.53 577.79,780.58 " fill="none" id="ManageRequestsController-to-ManageFilterRepository" style="stroke:#181818;stroke-width:1.0;stroke-dasharray:7.0,7.0;"/><polygon fill="#181818" points="576.17,785.38,582.837,778.1308,577.7683,780.6423,575.2567,775.5736,576.17,785.38" style="stroke:#181818;stroke-width:1.0;"/></g><!--link ManageRequestsController to ManageRequestRepository--><g id="link_ManageRequestsController_ManageRequestRepository"><path codeLine="101" d="M785.08,355.28 C810.78,481.49 850.33,675.76 869.23,768.58 " fill="none" id="ManageRequestsController-to-ManageRequestRepository" style="stroke:#181818;stroke-width:1.0;stroke-dasharray:7.0,7.0;"/><polygon fill="#181818" points="870.28,773.73,872.4265,764.1179,869.2939,768.8282,864.5836,765.6956,870.28,773.73" style="stroke:#181818;stroke-width:1.0;"/></g><!--link ManageRequestsController to AuthenticationRepository--><g id="link_ManageRequestsController_AuthenticationRepository"><path codeLine="102" d="M970.11,346.36 C1090.44,409.29 1218,476 1218,476 C1218,476 1317,594 1317,594 C1317,594 1317,594 1317,823.5 C1317,823.5 1355.71,1076.31 1372.92,1188.71 " fill="none" id="ManageRequestsController-to-AuthenticationRepository" style="stroke:#181818;stroke-width:1.0;stroke-dasharray:7.0,7.0;"/><polygon fill="#181818" points="1373.72,1193.96,1376.3112,1184.4581,1372.9629,1189.0176,1368.4034,1185.6694,1373.72,1193.96" style="stroke:#181818;stroke-width:1.0;"/></g><!--link ManageRequestRepository to Repositories--><g id="link_ManageRequestRepository_Repositories"><path codeLine="104" d="M840.87,871.12 C827.03,887.96 810.91,907.57 794.89,927.07 " fill="none" id="ManageRequestRepository-to-Repositories" style="stroke:#181818;stroke-width:1.0;stroke-dasharray:7.0,7.0;"/><polygon fill="#181818" points="791.69,930.96,800.4876,926.5326,794.8585,927.0921,794.299,921.463,791.69,930.96" style="stroke:#181818;stroke-width:1.0;"/></g><!--link ManageAdvertisementRepository to Repositories--><g id="link_ManageAdvertisementRepository_Repositories"><path codeLine="105" d="M323.45,871.12 C391.74,898.11 478.08,932.24 552.21,961.54 " fill="none" id="ManageAdvertisementRepository-to-Repositories" style="stroke:#181818;stroke-width:1.0;stroke-dasharray:7.0,7.0;"/><polygon fill="#181818" points="557.07,963.47,550.1732,956.4391,552.4208,961.6303,547.2296,963.8779,557.07,963.47" style="stroke:#181818;stroke-width:1.0;"/></g><!--link ManageFilterRepository to Repositories--><g id="link_ManageFilterRepository_Repositories"><path codeLine="106" d="M590.82,859.61 C604.84,878.49 622.75,902.62 640.55,926.59 " fill="none" id="ManageFilterRepository-to-Repositories" style="stroke:#181818;stroke-width:1.0;stroke-dasharray:7.0,7.0;"/><polygon fill="#181818" points="643.64,930.75,641.4784,921.1413,640.656,926.738,635.0593,925.9157,643.64,930.75" style="stroke:#181818;stroke-width:1.0;"/></g><!--link Repositories to RequestRepository--><g id="link_Repositories_RequestRepository"><path codeLine="108" d="M835.38,1122.3 C859.77,1141.35 884.83,1160.92 907.41,1178.56 " fill="none" id="Repositories-to-RequestRepository" style="stroke:#181818;stroke-width:1.0;"/><polygon fill="#181818" points="911.6,1181.83,906.9581,1173.1436,907.6555,1178.7573,902.0419,1179.4548,911.6,1181.83" style="stroke:#181818;stroke-width:1.0;"/></g><!--link Repositories to AdvertisementRepository--><g id="link_Repositories_AdvertisementRepository"><path codeLine="109" d="M564.72,1122.3 C527.31,1146.05 488.62,1170.62 456.16,1191.23 " fill="none" id="Repositories-to-AdvertisementRepository" style="stroke:#181818;stroke-width:1.0;"/><polygon fill="#181818" points="451.83,1193.98,461.5717,1192.5313,456.0507,1191.2993,457.2826,1185.7782,451.83,1193.98" style="stroke:#181818;stroke-width:1.0;"/></g><!--link Repositories to AuthenticationRepository--><g id="link_Repositories_AuthenticationRepository"><path codeLine="110" d="M870.8,1077.81 C978.56,1112.38 1120.91,1158.05 1227.87,1192.37 " fill="none" id="Repositories-to-AuthenticationRepository" style="stroke:#181818;stroke-width:1.0;"/><polygon fill="#181818" points="1232.93,1193.99,1225.5851,1187.4285,1228.1697,1192.4604,1223.1378,1195.045,1232.93,1193.99" style="stroke:#181818;stroke-width:1.0;"/></g><!--link Repositories to FilterRepository--><g id="link_Repositories_FilterRepository"><path codeLine="111" d="M714,1122.3 C714,1145.18 714,1168.81 714,1188.94 " fill="none" id="Repositories-to-FilterRepository" style="stroke:#181818;stroke-width:1.0;"/><polygon fill="#181818" points="714,1193.98,718,1184.98,714,1188.98,710,1184.98,714,1193.98" style="stroke:#181818;stroke-width:1.0;"/></g><!--link AuthenticationRepository to AuthFacade--><g id="link_AuthenticationRepository_AuthFacade"><path codeLine="113" d="M1381,1291.08 C1381,1311.26 1381,1335.3 1381,1357.84 " fill="none" id="AuthenticationRepository-to-AuthFacade" style="stroke:#181818;stroke-width:1.0;"/><polygon fill="#181818" points="1381,1362.93,1385,1353.93,1381,1357.93,1377,1353.93,1381,1362.93" style="stroke:#181818;stroke-width:1.0;"/></g><!--link AuthFacade to UserSession--><g id="link_AuthFacade_UserSession"><path codeLine="114" d="M1381,1507.06 C1381,1525.3 1381,1544.6 1381,1561.73 " fill="none" id="AuthFacade-to-UserSession" style="stroke:#181818;stroke-width:1.0;"/><polygon fill="#181818" points="1381,1566.97,1385,1557.97,1381,1561.97,1377,1557.97,1381,1566.97" style="stroke:#181818;stroke-width:1.0;"/></g><!--reverse link Request to ManageRequestRepository--><g id="link_Request_ManageRequestRepository"><path codeLine="117" d="M973.63,718.01 C955.68,737.85 938.08,757.3 923.07,773.89 " fill="none" id="Request-backto-ManageRequestRepository" style="stroke:#181818;stroke-width:1.0;"/><polygon fill="#181818" points="977.22,714.03,968.21,718.0074,973.8602,717.7329,974.1347,723.3831,977.22,714.03" style="stroke:#181818;stroke-width:1.0;"/></g><!--link RequestRepository to Request--><g id="link_RequestRepository_Request"><path codeLine="118" d="M997.64,1181.97 C1014.6,1077.24 1048,871 1048,871 C1048,871 1058.27,792.57 1067.84,719.47 " fill="none" id="RequestRepository-to-Request" style="stroke:#181818;stroke-width:1.0;"/><polygon fill="#181818" points="1068.52,714.22,1063.372,722.6163,1067.8629,719.1766,1071.3026,723.6676,1068.52,714.22" style="stroke:#181818;stroke-width:1.0;"/></g><!--link ManageAdvertisementRepository to Advertisement--><g id="link_ManageAdvertisementRepository_Advertisement"><path codeLine="119" d="M200.21,871.11 C194.5,968.63 182,1182 182,1182 C182,1182 182,1303 182,1303 C182,1303 233.87,1337.85 284.11,1371.6 " fill="none" id="ManageAdvertisementRepository-to-Advertisement" style="stroke:#181818;stroke-width:1.0;"/><polygon fill="#181818" points="288.34,1374.44,283.0901,1366.107,284.1863,1371.6566,278.6367,1372.7528,288.34,1374.44" style="stroke:#181818;stroke-width:1.0;"/></g><!--link AdvertisementRepository to Advertisement--><g id="link_AdvertisementRepository_Advertisement"><path codeLine="120" d="M377,1291.08 C377,1314.74 377,1343.69 377,1369.33 " fill="none" id="AdvertisementRepository-to-Advertisement" style="stroke:#181818;stroke-width:1.0;"/><polygon fill="#181818" points="377,1374.41,381,1365.41,377,1369.41,373,1365.41,377,1374.41" style="stroke:#181818;stroke-width:1.0;"/></g><!--link Advertisement to Commission--><g id="link_Advertisement_Commission"><path codeLine="121" d="M377,1495.93 C377,1517.22 377,1541.01 377,1561.67 " fill="none" id="Advertisement-to-Commission" style="stroke:#181818;stroke-width:1.0;"/><polygon fill="#181818" points="377,1566.84,381,1557.84,377,1561.84,373,1557.84,377,1566.84" style="stroke:#181818;stroke-width:1.0;"/></g><!--link Advertisement to Request--><g id="link_Advertisement_Request"><path codeLine="122" d="M522.27,1408.35 C738.28,1370.22 1119,1303 1119,1303 C1119,1303 1119,1182 1119,1182 C1119,1182 1101.63,891.17 1091.36,719.28 " fill="none" id="Advertisement-to-Request" style="stroke:#181818;stroke-width:1.0;"/><polygon fill="#181818" points="1091.06,714.23,1087.6062,723.4534,1091.3595,719.221,1095.5918,722.9743,1091.06,714.23" style="stroke:#181818;stroke-width:1.0;"/></g><!--SRC=[dLRTRzCm47_tNs7jfHtGQkEn3vD6nQH9mD3AU3V9jRFcni5sDfM9_vrp4iSVYKkXBudlTv-_yrsgdtXLCyNsGXPFKD8IjgmHvaPMPiD_0Nr_GMRQwT2zh6JngEGUg54D48_Kh7XYEzYOWm2ge32isebGGJ-oKhxmQaUtJEWG4Rm2SwY1rb8Sx26CE81I6Ka2gq8mhQ-DKVn7O-2sa5MRxmKXBK8_imhpkOUV3MZpS4jVVqyYUesLAYa4AFfAtgfE-WqZtctNSh_dMdDPpSy7A1QMNDU27QwhSWC2gxxUGMLwrtFOCowyvNScUCcCjUmbYB6ol2wVGHckOO-s3df7Yo4Ggkt0VEBQt6rjPd4A28LHzH2sUCGUk3etXfb6U- -wFP-JQLRkePQQ6waEbfGamj40tc_eDYenTfudmBbw-zmH5tkPi_2K1hpXme0QbT5n6F4t430eSz2eleW4bcYA3cuhpAegO7vELv52nr9Z7Z4PNhHTzj5TcwPPwD4qvLuywaYSyqIxa57NAN_F2bct7lNWqN8nzxpzIuiIwfrpv-fqybFB787O3WlTi8ALG5carGdR2Ej6AGGUDAWDZ1hiFQ2xG8Ss_hq3xgN0JIOLRZ9yqxrsAx2wcfmGhMVPtgIlIjR8ru7M_GjPh0L7KrnYza4M7_Ura0V0qdRjUODh3JUblVHtszxJ83NjSlhGQ5oDMW_YMl42XbCtFAHjU6OqevxQF5tAoWNqlGgsKP9Tv8KCpWFJroJpzTWLJZX-JJnvONVwPhNCTyJRustPaPsk-UNoAhlWINRpBvVUBZC8fncdL_yqgz4O7pT3mzoW98Hu06sYTNMqrcdbjBPKYuIdnU9gl9r66ZckHtgvSXF54VqaPqcTstvz-5S4Wkj7iemkciML6yqnwB6ZJ2-kuld9gQLSnOeM3gPgXBbKoEmUThY5GRc5OoS6_vPLIwlKGL_WnQ71wCoiRV21RBq6vnNb_QSnY3BfYWONtw51nqutjblwlmpRJHvUajcalDqbIP4glF2pgJnEjHgN_bVB8ubQqrIwIYNPX6tSMBQYARj7ihRs4y1gGaZiBxb9U9NEBi_6oIPQlTguwnE-Ce4nT4gIrMwjtlGPODhQFj5pJ4ceQI7R7NoGsKJfeUxmRLzHw5-pZJoIpMJhiZbbk_NNp7mzhKxKdH1pVYwNopuuyRy_]--></g></svg>