<?xml version="1.0" encoding="UTF-8" standalone="no"?><svg xmlns="http://www.w3.org/2000/svg" xmlns:xlink="http://www.w3.org/1999/xlink" contentStyleType="text/css" height="1714px" preserveAspectRatio="none" style="width:1132px;height:1714px;background:#FFFFFF;" version="1.1" viewBox="0 0 1132 1714" width="1132px" zoomAndPan="magnify"><defs/><g><rect fill="#FFFFFF" height="1518.4063" style="stroke:#181818;stroke-width:1.0;" width="10" x="56" y="98.5547"/><rect fill="#FFFFFF" height="37.5547" style="stroke:#181818;stroke-width:1.0;" width="10" x="1057" y="128.1094"/><rect fill="#FFFFFF" height="37.5547" style="stroke:#181818;stroke-width:1.0;" width="10" x="1057" y="203.2188"/><rect fill="#FFFFFF" height="78.6641" style="stroke:#181818;stroke-width:1.0;" width="10" x="1057" y="278.3281"/><rect fill="#FFFFFF" height="44.5547" style="stroke:#181818;stroke-width:1.0;" width="10" x="1057" y="394.5469"/><rect fill="#FFFFFF" height="37.5547" style="stroke:#181818;stroke-width:1.0;" width="10" x="1057" y="476.6563"/><rect fill="#FFFFFF" height="37.5547" style="stroke:#181818;stroke-width:1.0;" width="10" x="1057" y="551.7656"/><rect fill="#FFFFFF" height="78.6641" style="stroke:#181818;stroke-width:1.0;" width="10" x="1057" y="626.875"/><rect fill="#FFFFFF" height="85.6641" style="stroke:#181818;stroke-width:1.0;" width="10" x="1057" y="743.0938"/><rect fill="#FFFFFF" height="37.5547" style="stroke:#181818;stroke-width:1.0;" width="10" x="1057" y="866.3125"/><rect fill="#FFFFFF" height="37.5547" style="stroke:#181818;stroke-width:1.0;" width="10" x="1057" y="941.4219"/><rect fill="#FFFFFF" height="78.6641" style="stroke:#181818;stroke-width:1.0;" width="10" x="1057" y="1016.5313"/><rect fill="#FFFFFF" height="51.5547" style="stroke:#181818;stroke-width:1.0;" width="10" x="1057" y="1255.9688"/><rect fill="#FFFFFF" height="37.5547" style="stroke:#181818;stroke-width:1.0;" width="10" x="1057" y="1345.0781"/><rect fill="#FFFFFF" height="37.5547" style="stroke:#181818;stroke-width:1.0;" width="10" x="1057" y="1420.1875"/><rect fill="#FFFFFF" height="37.5547" style="stroke:#181818;stroke-width:1.0;" width="10" x="1057" y="1495.2969"/><rect fill="#FFFFFF" height="37.5547" style="stroke:#181818;stroke-width:1.0;" width="10" x="1057" y="1570.4063"/><rect fill="none" height="109.2188" style="stroke:#000000;stroke-width:1.5;" width="1096" x="20" y="293.3281"/><rect fill="none" height="109.2188" style="stroke:#000000;stroke-width:1.5;" width="1096" x="20" y="641.875"/><rect fill="none" height="505.875" style="stroke:#000000;stroke-width:1.5;" width="1116" x="10" y="765.0938"/><rect fill="none" height="109.2188" style="stroke:#000000;stroke-width:1.5;" width="1096" x="20" y="1031.5313"/><rect fill="none" height="109.2188" style="stroke:#000000;stroke-width:1.5;" width="1096" x="20" y="1154.75"/><line style="stroke:#181818;stroke-width:0.5;stroke-dasharray:5.0,5.0;" x1="61" x2="61" y1="88.5547" y2="1625.9609"/><line style="stroke:#181818;stroke-width:0.5;stroke-dasharray:5.0,5.0;" x1="1062" x2="1062" y1="88.5547" y2="1625.9609"/><text fill="#000000" font-family="sans-serif" font-size="20" lengthAdjust="spacing" textLength="56" x="30" y="84.3359">Agent</text><ellipse cx="61" cy="13.5" fill="#E3E3E3" rx="8" ry="8" style="stroke:#181818;stroke-width:0.5;"/><path d="M61,21.5 L61,48.5 M48,29.5 L74,29.5 M61,48.5 L48,63.5 M61,48.5 L74,63.5 " fill="none" style="stroke:#181818;stroke-width:0.5;"/><text fill="#000000" font-family="sans-serif" font-size="20" lengthAdjust="spacing" textLength="56" x="30" y="1644.2969">Agent</text><ellipse cx="61" cy="1657.0156" fill="#E3E3E3" rx="8" ry="8" style="stroke:#181818;stroke-width:0.5;"/><path d="M61,1665.0156 L61,1692.0156 M48,1673.0156 L74,1673.0156 M61,1692.0156 L48,1707.0156 M61,1692.0156 L74,1707.0156 " fill="none" style="stroke:#181818;stroke-width:0.5;"/><rect fill="#E3E3E3" height="37.5547" rx="2.5" ry="2.5" style="stroke:#181818;stroke-width:0.5;" width="88" x="1018" y="50"/><text fill="#000000" font-family="sans-serif" font-size="20" lengthAdjust="spacing" textLength="74" x="1025" y="76.3359">:System</text><rect fill="#E3E3E3" height="37.5547" rx="2.5" ry="2.5" style="stroke:#181818;stroke-width:0.5;" width="88" x="1018" y="1624.9609"/><text fill="#000000" font-family="sans-serif" font-size="20" lengthAdjust="spacing" textLength="74" x="1025" y="1651.2969">:System</text><rect fill="#FFFFFF" height="1518.4063" style="stroke:#181818;stroke-width:1.0;" width="10" x="56" y="98.5547"/><rect fill="#FFFFFF" height="37.5547" style="stroke:#181818;stroke-width:1.0;" width="10" x="1057" y="128.1094"/><rect fill="#FFFFFF" height="37.5547" style="stroke:#181818;stroke-width:1.0;" width="10" x="1057" y="203.2188"/><rect fill="#FFFFFF" height="78.6641" style="stroke:#181818;stroke-width:1.0;" width="10" x="1057" y="278.3281"/><rect fill="#FFFFFF" height="44.5547" style="stroke:#181818;stroke-width:1.0;" width="10" x="1057" y="394.5469"/><rect fill="#FFFFFF" height="37.5547" style="stroke:#181818;stroke-width:1.0;" width="10" x="1057" y="476.6563"/><rect fill="#FFFFFF" height="37.5547" style="stroke:#181818;stroke-width:1.0;" width="10" x="1057" y="551.7656"/><rect fill="#FFFFFF" height="78.6641" style="stroke:#181818;stroke-width:1.0;" width="10" x="1057" y="626.875"/><rect fill="#FFFFFF" height="85.6641" style="stroke:#181818;stroke-width:1.0;" width="10" x="1057" y="743.0938"/><rect fill="#FFFFFF" height="37.5547" style="stroke:#181818;stroke-width:1.0;" width="10" x="1057" y="866.3125"/><rect fill="#FFFFFF" height="37.5547" style="stroke:#181818;stroke-width:1.0;" width="10" x="1057" y="941.4219"/><rect fill="#FFFFFF" height="78.6641" style="stroke:#181818;stroke-width:1.0;" width="10" x="1057" y="1016.5313"/><rect fill="#FFFFFF" height="51.5547" style="stroke:#181818;stroke-width:1.0;" width="10" x="1057" y="1255.9688"/><rect fill="#FFFFFF" height="37.5547" style="stroke:#181818;stroke-width:1.0;" width="10" x="1057" y="1345.0781"/><rect fill="#FFFFFF" height="37.5547" style="stroke:#181818;stroke-width:1.0;" width="10" x="1057" y="1420.1875"/><rect fill="#FFFFFF" height="37.5547" style="stroke:#181818;stroke-width:1.0;" width="10" x="1057" y="1495.2969"/><rect fill="#FFFFFF" height="37.5547" style="stroke:#181818;stroke-width:1.0;" width="10" x="1057" y="1570.4063"/><polygon fill="#181818" points="1045,124.1094,1055,128.1094,1045,132.1094,1049,128.1094" style="stroke:#181818;stroke-width:1.0;"/><line style="stroke:#181818;stroke-width:1.0;" x1="66" x2="1051" y1="128.1094" y2="128.1094"/><text fill="#000000" font-family="sans-serif" font-size="20" font-weight="bold" lengthAdjust="spacing" textLength="13" x="73" y="121.8906">1</text><text fill="#000000" font-family="sans-serif" font-size="20" lengthAdjust="spacing" textLength="423" x="90" y="121.8906">asks to create a new property advertisement</text><polygon fill="#181818" points="77,161.6641,67,165.6641,77,169.6641,73,165.6641" style="stroke:#181818;stroke-width:1.0;"/><line style="stroke:#181818;stroke-width:1.0;stroke-dasharray:2.0,2.0;" x1="71" x2="1061" y1="165.6641" y2="165.6641"/><text fill="#000000" font-family="sans-serif" font-size="20" font-weight="bold" lengthAdjust="spacing" textLength="13" x="83" y="159.4453">2</text><text fill="#000000" font-family="sans-serif" font-size="20" lengthAdjust="spacing" textLength="950" x="100" y="159.4453">requests Client Data(name, telephone number, email, passport card number, tax number, address)</text><polygon fill="#181818" points="1045,199.2188,1055,203.2188,1045,207.2188,1049,203.2188" style="stroke:#181818;stroke-width:1.0;"/><line style="stroke:#181818;stroke-width:1.0;" x1="66" x2="1051" y1="203.2188" y2="203.2188"/><text fill="#000000" font-family="sans-serif" font-size="20" font-weight="bold" lengthAdjust="spacing" textLength="13" x="73" y="197">3</text><text fill="#000000" font-family="sans-serif" font-size="20" lengthAdjust="spacing" textLength="919" x="90" y="197">types Client Data(name, telephone number, email, passport card number, tax number, address)</text><polygon fill="#181818" points="77,236.7734,67,240.7734,77,244.7734,73,240.7734" style="stroke:#181818;stroke-width:1.0;"/><line style="stroke:#181818;stroke-width:1.0;stroke-dasharray:2.0,2.0;" x1="71" x2="1061" y1="240.7734" y2="240.7734"/><text fill="#000000" font-family="sans-serif" font-size="20" font-weight="bold" lengthAdjust="spacing" textLength="13" x="83" y="234.5547">4</text><text fill="#000000" font-family="sans-serif" font-size="20" lengthAdjust="spacing" textLength="290" x="100" y="234.5547">asks to select type of Business</text><polygon fill="#181818" points="1045,274.3281,1055,278.3281,1045,282.3281,1049,278.3281" style="stroke:#181818;stroke-width:1.0;"/><line style="stroke:#181818;stroke-width:1.0;" x1="66" x2="1051" y1="278.3281" y2="278.3281"/><text fill="#000000" font-family="sans-serif" font-size="20" font-weight="bold" lengthAdjust="spacing" textLength="13" x="73" y="272.1094">5</text><text fill="#000000" font-family="sans-serif" font-size="20" lengthAdjust="spacing" textLength="226" x="90" y="272.1094">selects type of Business</text><path d="M20,293.3281 L111,293.3281 L111,308.8828 L101,318.8828 L20,318.8828 L20,293.3281 " fill="#EEEEEE" style="stroke:#000000;stroke-width:1.5;"/><rect fill="none" height="109.2188" style="stroke:#000000;stroke-width:1.5;" width="1096" x="20" y="293.3281"/><text fill="#000000" font-family="sans-serif" font-size="20" font-weight="bold" lengthAdjust="spacing" textLength="46" x="35" y="313.6641">loop</text><text fill="#000000" font-family="sans-serif" font-size="20" font-weight="bold" lengthAdjust="spacing" textLength="246" x="126" y="314.6641">[typeOfBusiness = rent]</text><polygon fill="#181818" points="77,352.9922,67,356.9922,77,360.9922,73,356.9922" style="stroke:#181818;stroke-width:1.0;"/><line style="stroke:#181818;stroke-width:1.0;stroke-dasharray:2.0,2.0;" x1="71" x2="1061" y1="356.9922" y2="356.9922"/><text fill="#000000" font-family="sans-serif" font-size="20" font-weight="bold" lengthAdjust="spacing" textLength="13" x="83" y="350.7734">6</text><text fill="#000000" font-family="sans-serif" font-size="20" lengthAdjust="spacing" textLength="228" x="100" y="350.7734">asks to type rent period</text><polygon fill="#181818" points="1045,390.5469,1055,394.5469,1045,398.5469,1049,394.5469" style="stroke:#181818;stroke-width:1.0;"/><line style="stroke:#181818;stroke-width:1.0;" x1="66" x2="1051" y1="394.5469" y2="394.5469"/><text fill="#000000" font-family="sans-serif" font-size="20" font-weight="bold" lengthAdjust="spacing" textLength="13" x="73" y="388.3281">7</text><text fill="#000000" font-family="sans-serif" font-size="20" lengthAdjust="spacing" textLength="164" x="90" y="388.3281">types rent period</text><polygon fill="#181818" points="77,435.1016,67,439.1016,77,443.1016,73,439.1016" style="stroke:#181818;stroke-width:1.0;"/><line style="stroke:#181818;stroke-width:1.0;stroke-dasharray:2.0,2.0;" x1="71" x2="1061" y1="439.1016" y2="439.1016"/><text fill="#000000" font-family="sans-serif" font-size="20" font-weight="bold" lengthAdjust="spacing" textLength="13" x="83" y="432.8828">8</text><text fill="#000000" font-family="sans-serif" font-size="20" lengthAdjust="spacing" textLength="287" x="100" y="432.8828">asks to select type of Property</text><polygon fill="#181818" points="1045,472.6563,1055,476.6563,1045,480.6563,1049,476.6563" style="stroke:#181818;stroke-width:1.0;"/><line style="stroke:#181818;stroke-width:1.0;" x1="66" x2="1051" y1="476.6563" y2="476.6563"/><text fill="#000000" font-family="sans-serif" font-size="20" font-weight="bold" lengthAdjust="spacing" textLength="13" x="73" y="470.4375">9</text><text fill="#000000" font-family="sans-serif" font-size="20" lengthAdjust="spacing" textLength="223" x="90" y="470.4375">selects type of Property</text><polygon fill="#181818" points="77,510.2109,67,514.2109,77,518.2109,73,514.2109" style="stroke:#181818;stroke-width:1.0;"/><line style="stroke:#181818;stroke-width:1.0;stroke-dasharray:2.0,2.0;" x1="71" x2="1061" y1="514.2109" y2="514.2109"/><text fill="#000000" font-family="sans-serif" font-size="20" font-weight="bold" lengthAdjust="spacing" textLength="26" x="83" y="507.9922">10</text><text fill="#000000" font-family="sans-serif" font-size="20" lengthAdjust="spacing" textLength="580" x="113" y="507.9922">requests Property data(address, area, distance to city center)</text><polygon fill="#181818" points="1045,547.7656,1055,551.7656,1045,555.7656,1049,551.7656" style="stroke:#181818;stroke-width:1.0;"/><line style="stroke:#181818;stroke-width:1.0;" x1="66" x2="1051" y1="551.7656" y2="551.7656"/><text fill="#000000" font-family="sans-serif" font-size="20" font-weight="bold" lengthAdjust="spacing" textLength="26" x="73" y="545.5469">11</text><text fill="#000000" font-family="sans-serif" font-size="20" lengthAdjust="spacing" textLength="549" x="103" y="545.5469">types Property data(address, area, distance to city center)</text><polygon fill="#181818" points="77,585.3203,67,589.3203,77,593.3203,73,589.3203" style="stroke:#181818;stroke-width:1.0;"/><line style="stroke:#181818;stroke-width:1.0;stroke-dasharray:2.0,2.0;" x1="71" x2="1061" y1="589.3203" y2="589.3203"/><text fill="#000000" font-family="sans-serif" font-size="20" font-weight="bold" lengthAdjust="spacing" textLength="26" x="83" y="583.1016">12</text><text fill="#000000" font-family="sans-serif" font-size="20" lengthAdjust="spacing" textLength="518" x="113" y="583.1016">asks user to type number of photographs to introduce</text><polygon fill="#181818" points="1045,622.875,1055,626.875,1045,630.875,1049,626.875" style="stroke:#181818;stroke-width:1.0;"/><line style="stroke:#181818;stroke-width:1.0;" x1="66" x2="1051" y1="626.875" y2="626.875"/><text fill="#000000" font-family="sans-serif" font-size="20" font-weight="bold" lengthAdjust="spacing" textLength="26" x="73" y="620.6563">13</text><text fill="#000000" font-family="sans-serif" font-size="20" lengthAdjust="spacing" textLength="407" x="103" y="620.6563">types number of photographs to introduce</text><path d="M20,641.875 L111,641.875 L111,657.4297 L101,667.4297 L20,667.4297 L20,641.875 " fill="#EEEEEE" style="stroke:#000000;stroke-width:1.5;"/><rect fill="none" height="109.2188" style="stroke:#000000;stroke-width:1.5;" width="1096" x="20" y="641.875"/><text fill="#000000" font-family="sans-serif" font-size="20" font-weight="bold" lengthAdjust="spacing" textLength="46" x="35" y="662.2109">loop</text><text fill="#000000" font-family="sans-serif" font-size="20" font-weight="bold" lengthAdjust="spacing" textLength="226" x="126" y="663.2109">[for each photograph]</text><polygon fill="#181818" points="77,701.5391,67,705.5391,77,709.5391,73,705.5391" style="stroke:#181818;stroke-width:1.0;"/><line style="stroke:#181818;stroke-width:1.0;stroke-dasharray:2.0,2.0;" x1="71" x2="1061" y1="705.5391" y2="705.5391"/><text fill="#000000" font-family="sans-serif" font-size="20" font-weight="bold" lengthAdjust="spacing" textLength="26" x="83" y="699.3203">14</text><text fill="#000000" font-family="sans-serif" font-size="20" lengthAdjust="spacing" textLength="362" x="113" y="699.3203">asks user to type photograph location</text><polygon fill="#181818" points="1045,739.0938,1055,743.0938,1045,747.0938,1049,743.0938" style="stroke:#181818;stroke-width:1.0;"/><line style="stroke:#181818;stroke-width:1.0;" x1="66" x2="1051" y1="743.0938" y2="743.0938"/><text fill="#000000" font-family="sans-serif" font-size="20" font-weight="bold" lengthAdjust="spacing" textLength="26" x="73" y="736.875">15</text><text fill="#000000" font-family="sans-serif" font-size="20" lengthAdjust="spacing" textLength="251" x="103" y="736.875">types photograph location</text><path d="M10,765.0938 L82,765.0938 L82,780.6484 L72,790.6484 L10,790.6484 L10,765.0938 " fill="#EEEEEE" style="stroke:#000000;stroke-width:1.5;"/><rect fill="none" height="505.875" style="stroke:#000000;stroke-width:1.5;" width="1116" x="10" y="765.0938"/><text fill="#000000" font-family="sans-serif" font-size="20" font-weight="bold" lengthAdjust="spacing" textLength="27" x="25" y="785.4297">alt</text><text fill="#000000" font-family="sans-serif" font-size="20" font-weight="bold" lengthAdjust="spacing" textLength="405" x="97" y="786.4297">[typeOfProperty = House || Apartment]</text><polygon fill="#181818" points="77,824.7578,67,828.7578,77,832.7578,73,828.7578" style="stroke:#181818;stroke-width:1.0;"/><line style="stroke:#181818;stroke-width:1.0;stroke-dasharray:2.0,2.0;" x1="71" x2="1061" y1="828.7578" y2="828.7578"/><text fill="#000000" font-family="sans-serif" font-size="20" font-weight="bold" lengthAdjust="spacing" textLength="26" x="83" y="822.5391">16</text><text fill="#000000" font-family="sans-serif" font-size="20" lengthAdjust="spacing" textLength="386" x="113" y="822.5391">asks user to select number of bedrooms</text><polygon fill="#181818" points="1045,862.3125,1055,866.3125,1045,870.3125,1049,866.3125" style="stroke:#181818;stroke-width:1.0;"/><line style="stroke:#181818;stroke-width:1.0;" x1="66" x2="1051" y1="866.3125" y2="866.3125"/><text fill="#000000" font-family="sans-serif" font-size="20" font-weight="bold" lengthAdjust="spacing" textLength="26" x="73" y="860.0938">17</text><text fill="#000000" font-family="sans-serif" font-size="20" lengthAdjust="spacing" textLength="275" x="103" y="860.0938">selects number of bedrooms</text><polygon fill="#181818" points="77,899.8672,67,903.8672,77,907.8672,73,903.8672" style="stroke:#181818;stroke-width:1.0;"/><line style="stroke:#181818;stroke-width:1.0;stroke-dasharray:2.0,2.0;" x1="71" x2="1061" y1="903.8672" y2="903.8672"/><text fill="#000000" font-family="sans-serif" font-size="20" font-weight="bold" lengthAdjust="spacing" textLength="26" x="83" y="897.6484">18</text><text fill="#000000" font-family="sans-serif" font-size="20" lengthAdjust="spacing" textLength="815" x="113" y="897.6484">asks user to type remaining data (number of BathRooms, number of Parking Spaces).</text><polygon fill="#181818" points="1045,937.4219,1055,941.4219,1045,945.4219,1049,941.4219" style="stroke:#181818;stroke-width:1.0;"/><line style="stroke:#181818;stroke-width:1.0;" x1="66" x2="1051" y1="941.4219" y2="941.4219"/><text fill="#000000" font-family="sans-serif" font-size="20" font-weight="bold" lengthAdjust="spacing" textLength="26" x="73" y="935.2031">19</text><text fill="#000000" font-family="sans-serif" font-size="20" lengthAdjust="spacing" textLength="125" x="103" y="935.2031">submits data</text><polygon fill="#181818" points="77,974.9766,67,978.9766,77,982.9766,73,978.9766" style="stroke:#181818;stroke-width:1.0;"/><line style="stroke:#181818;stroke-width:1.0;stroke-dasharray:2.0,2.0;" x1="71" x2="1061" y1="978.9766" y2="978.9766"/><text fill="#000000" font-family="sans-serif" font-size="20" font-weight="bold" lengthAdjust="spacing" textLength="26" x="83" y="972.7578">20</text><text fill="#000000" font-family="sans-serif" font-size="20" lengthAdjust="spacing" textLength="510" x="113" y="972.7578">asks user to type number of equipments to introduce</text><polygon fill="#181818" points="1045,1012.5313,1055,1016.5313,1045,1020.5313,1049,1016.5313" style="stroke:#181818;stroke-width:1.0;"/><line style="stroke:#181818;stroke-width:1.0;" x1="66" x2="1051" y1="1016.5313" y2="1016.5313"/><text fill="#000000" font-family="sans-serif" font-size="20" font-weight="bold" lengthAdjust="spacing" textLength="26" x="73" y="1010.3125">21</text><text fill="#000000" font-family="sans-serif" font-size="20" lengthAdjust="spacing" textLength="399" x="103" y="1010.3125">types number of equipments to introduce</text><path d="M20,1031.5313 L111,1031.5313 L111,1047.0859 L101,1057.0859 L20,1057.0859 L20,1031.5313 " fill="#EEEEEE" style="stroke:#000000;stroke-width:1.5;"/><rect fill="none" height="109.2188" style="stroke:#000000;stroke-width:1.5;" width="1096" x="20" y="1031.5313"/><text fill="#000000" font-family="sans-serif" font-size="20" font-weight="bold" lengthAdjust="spacing" textLength="46" x="35" y="1051.8672">loop</text><text fill="#000000" font-family="sans-serif" font-size="20" font-weight="bold" lengthAdjust="spacing" textLength="216" x="126" y="1052.8672">[for each equipment]</text><polygon fill="#181818" points="77,1091.1953,67,1095.1953,77,1099.1953,73,1095.1953" style="stroke:#181818;stroke-width:1.0;"/><line style="stroke:#181818;stroke-width:1.0;stroke-dasharray:2.0,2.0;" x1="71" x2="1061" y1="1095.1953" y2="1095.1953"/><text fill="#000000" font-family="sans-serif" font-size="20" font-weight="bold" lengthAdjust="spacing" textLength="26" x="83" y="1088.9766">22</text><text fill="#000000" font-family="sans-serif" font-size="20" lengthAdjust="spacing" textLength="386" x="113" y="1088.9766">asks user to type equipment description</text><polygon fill="#181818" points="1050,1128.75,1060,1132.75,1050,1136.75,1054,1132.75" style="stroke:#181818;stroke-width:1.0;"/><line style="stroke:#181818;stroke-width:1.0;" x1="66" x2="1056" y1="1132.75" y2="1132.75"/><text fill="#000000" font-family="sans-serif" font-size="20" font-weight="bold" lengthAdjust="spacing" textLength="26" x="73" y="1126.5313">23</text><text fill="#000000" font-family="sans-serif" font-size="20" lengthAdjust="spacing" textLength="275" x="103" y="1126.5313">types equipment description</text><path d="M20,1154.75 L92,1154.75 L92,1170.3047 L82,1180.3047 L20,1180.3047 L20,1154.75 " fill="#EEEEEE" style="stroke:#000000;stroke-width:1.5;"/><rect fill="none" height="109.2188" style="stroke:#000000;stroke-width:1.5;" width="1096" x="20" y="1154.75"/><text fill="#000000" font-family="sans-serif" font-size="20" font-weight="bold" lengthAdjust="spacing" textLength="27" x="35" y="1175.0859">alt</text><text fill="#000000" font-family="sans-serif" font-size="20" font-weight="bold" lengthAdjust="spacing" textLength="266" x="107" y="1176.0859">[typeOfProperty = House]</text><polygon fill="#181818" points="77,1214.4141,67,1218.4141,77,1222.4141,73,1218.4141" style="stroke:#181818;stroke-width:1.0;"/><line style="stroke:#181818;stroke-width:1.0;stroke-dasharray:2.0,2.0;" x1="71" x2="1061" y1="1218.4141" y2="1218.4141"/><text fill="#000000" font-family="sans-serif" font-size="20" font-weight="bold" lengthAdjust="spacing" textLength="26" x="83" y="1212.1953">24</text><text fill="#000000" font-family="sans-serif" font-size="20" lengthAdjust="spacing" textLength="631" x="113" y="1212.1953">asks user to select remaining data (SunExposure, Basement, Loft).</text><polygon fill="#181818" points="1045,1251.9688,1055,1255.9688,1045,1259.9688,1049,1255.9688" style="stroke:#181818;stroke-width:1.0;"/><line style="stroke:#181818;stroke-width:1.0;" x1="66" x2="1051" y1="1255.9688" y2="1255.9688"/><text fill="#000000" font-family="sans-serif" font-size="20" font-weight="bold" lengthAdjust="spacing" textLength="26" x="73" y="1249.75">25</text><text fill="#000000" font-family="sans-serif" font-size="20" lengthAdjust="spacing" textLength="216" x="103" y="1249.75">selects remaining data</text><polygon fill="#181818" points="77,1303.5234,67,1307.5234,77,1311.5234,73,1307.5234" style="stroke:#181818;stroke-width:1.0;"/><line style="stroke:#181818;stroke-width:1.0;stroke-dasharray:2.0,2.0;" x1="71" x2="1061" y1="1307.5234" y2="1307.5234"/><text fill="#000000" font-family="sans-serif" font-size="20" font-weight="bold" lengthAdjust="spacing" textLength="26" x="83" y="1301.3047">26</text><text fill="#000000" font-family="sans-serif" font-size="20" lengthAdjust="spacing" textLength="300" x="113" y="1301.3047">asks user to type Property Price</text><polygon fill="#181818" points="1045,1341.0781,1055,1345.0781,1045,1349.0781,1049,1345.0781" style="stroke:#181818;stroke-width:1.0;"/><line style="stroke:#181818;stroke-width:1.0;" x1="66" x2="1051" y1="1345.0781" y2="1345.0781"/><text fill="#000000" font-family="sans-serif" font-size="20" font-weight="bold" lengthAdjust="spacing" textLength="26" x="73" y="1338.8594">27</text><text fill="#000000" font-family="sans-serif" font-size="20" lengthAdjust="spacing" textLength="189" x="103" y="1338.8594">types Property Price</text><polygon fill="#181818" points="77,1378.6328,67,1382.6328,77,1386.6328,73,1382.6328" style="stroke:#181818;stroke-width:1.0;"/><line style="stroke:#181818;stroke-width:1.0;stroke-dasharray:2.0,2.0;" x1="71" x2="1061" y1="1382.6328" y2="1382.6328"/><text fill="#000000" font-family="sans-serif" font-size="20" font-weight="bold" lengthAdjust="spacing" textLength="26" x="83" y="1376.4141">28</text><text fill="#000000" font-family="sans-serif" font-size="20" lengthAdjust="spacing" textLength="374" x="113" y="1376.4141">asks user to select type of Commission</text><polygon fill="#181818" points="1045,1416.1875,1055,1420.1875,1045,1424.1875,1049,1420.1875" style="stroke:#181818;stroke-width:1.0;"/><line style="stroke:#181818;stroke-width:1.0;" x1="66" x2="1051" y1="1420.1875" y2="1420.1875"/><text fill="#000000" font-family="sans-serif" font-size="20" font-weight="bold" lengthAdjust="spacing" textLength="26" x="73" y="1413.9688">29</text><text fill="#000000" font-family="sans-serif" font-size="20" lengthAdjust="spacing" textLength="263" x="103" y="1413.9688">selects type of Commission</text><polygon fill="#181818" points="77,1453.7422,67,1457.7422,77,1461.7422,73,1457.7422" style="stroke:#181818;stroke-width:1.0;"/><line style="stroke:#181818;stroke-width:1.0;stroke-dasharray:2.0,2.0;" x1="71" x2="1061" y1="1457.7422" y2="1457.7422"/><text fill="#000000" font-family="sans-serif" font-size="20" font-weight="bold" lengthAdjust="spacing" textLength="26" x="83" y="1451.5234">30</text><text fill="#000000" font-family="sans-serif" font-size="20" lengthAdjust="spacing" textLength="344" x="113" y="1451.5234">asks user to type Commission value</text><polygon fill="#181818" points="1045,1491.2969,1055,1495.2969,1045,1499.2969,1049,1495.2969" style="stroke:#181818;stroke-width:1.0;"/><line style="stroke:#181818;stroke-width:1.0;" x1="66" x2="1051" y1="1495.2969" y2="1495.2969"/><text fill="#000000" font-family="sans-serif" font-size="20" font-weight="bold" lengthAdjust="spacing" textLength="26" x="73" y="1489.0781">31</text><text fill="#000000" font-family="sans-serif" font-size="20" lengthAdjust="spacing" textLength="233" x="103" y="1489.0781">types Commission value</text><polygon fill="#181818" points="77,1528.8516,67,1532.8516,77,1536.8516,73,1532.8516" style="stroke:#181818;stroke-width:1.0;"/><line style="stroke:#181818;stroke-width:1.0;stroke-dasharray:2.0,2.0;" x1="71" x2="1061" y1="1532.8516" y2="1532.8516"/><text fill="#000000" font-family="sans-serif" font-size="20" font-weight="bold" lengthAdjust="spacing" textLength="26" x="83" y="1526.6328">32</text><text fill="#000000" font-family="sans-serif" font-size="20" lengthAdjust="spacing" textLength="656" x="113" y="1526.6328">shows completed advertisement and asks user to confirm procedure</text><polygon fill="#181818" points="1045,1566.4063,1055,1570.4063,1045,1574.4063,1049,1570.4063" style="stroke:#181818;stroke-width:1.0;"/><line style="stroke:#181818;stroke-width:1.0;" x1="66" x2="1051" y1="1570.4063" y2="1570.4063"/><text fill="#000000" font-family="sans-serif" font-size="20" font-weight="bold" lengthAdjust="spacing" textLength="26" x="73" y="1564.1875">33</text><text fill="#000000" font-family="sans-serif" font-size="20" lengthAdjust="spacing" textLength="251" x="103" y="1564.1875">confirms or not procedure</text><polygon fill="#181818" points="77,1603.9609,67,1607.9609,77,1611.9609,73,1607.9609" style="stroke:#181818;stroke-width:1.0;"/><line style="stroke:#181818;stroke-width:1.0;stroke-dasharray:2.0,2.0;" x1="71" x2="1061" y1="1607.9609" y2="1607.9609"/><text fill="#000000" font-family="sans-serif" font-size="20" font-weight="bold" lengthAdjust="spacing" textLength="26" x="83" y="1601.7422">34</text><text fill="#000000" font-family="sans-serif" font-size="20" lengthAdjust="spacing" textLength="236" x="113" y="1601.7422">shows operation success</text><!--SRC=[jLTDRzim3BtdLn0zjK0s33iMw82ssx33W1NBBs0b9XPYYPuajytG7p_ATfp4YztOsNo949EFN-z9SbWRLw17cxDQamPDIopp-9LTN9ZV11y_pCBM12mxLfbdIn1zINjl2bHhND4YRd82JogYM-Nx1Y53pS_6hM29UQ3P3Cl8hhIFv6Mj8dkuk5sHYnU00QhLJ3oZKQP05-7YUh49aMprkbvMVkO98pNsCv2dMiAxJuqHN8l3Ea1aK9wIBOAZPoWy5-JZ1b0_oQy9P1D4GcXHcp3GF0tWEy6kWrnBfRzA2Z70VMxIFvynugL3ItE8b5EHiIEegvm3MJJvN5eLGi4-WaAlsvSHNzerQkqfXAigigPkFZrbnar1_pEHxTFNde4sRISG91KLgqo1bt1N1kC4_m3Yv7fhi32CriNAcOlAuyToQmytCiPczASMKiLCNY0aCgodLL1Fh0-c2q9EZygnq-o7Xl3_fjb_eGsnOaWuMo3GYR4DuOHvejKvQ1Da8r5KgTU8aH9lyZi-Zcprz60ZzeIg_sKWtnAbbbDgc-WmyifZaLKZCYvwrgMYAKe_4RLN1KlPSYLYjkS-EuLQ1wNjV44E48o6tTJXz44Tqm7ciL5nEz8R-CQI6ho-mcqwEEo-fj-gfT7AhgMFf3sp3RD9Akd1EPj8FktSBXsYYS1mkOjpXp7xcGBDzu8_e5yduuMSpXIkteyifdoqHef9eQRAV4WBiWEO8asfXxIJvV0MyB0QMk_njRMkadjGtXJdoE4uM2B_0Fl74hvBg4NflhmK74el5uSxh2z5S_ZEopYQFeqM3aFqAhegR5ItszeVl9csWnv1E9VZdKFtdgqr8KoYGVV8FO9rjXftcF24UJbPVBqu4o-C8UFd08fjaLEKhvA3IpgWquUrA7PBusswr2lIGjvfbvm69e3i1OvZ3zmf9GsMbKXN7M-onIhLlR4UpVWF]--></g></svg>