<?xml version="1.0" encoding="UTF-8" standalone="no"?><svg xmlns="http://www.w3.org/2000/svg" xmlns:xlink="http://www.w3.org/1999/xlink" contentStyleType="text/css" height="323px" preserveAspectRatio="none" style="width:939px;height:323px;background:#FFFFFF;" version="1.1" viewBox="0 0 939 323" width="939px" zoomAndPan="magnify"><defs/><g><!--class Client--><g id="elem_Client"><rect codeLine="10" fill="#F1F1F1" height="41.5547" id="Client" rx="2.5" ry="2.5" style="stroke:#181818;stroke-width:0.5;" width="62" x="475" y="42"/><text fill="#000000" font-family="sans-serif" font-size="20" lengthAdjust="spacing" textLength="56" x="478" y="66.3359">Client</text><line style="stroke:#181818;stroke-width:0.5;" x1="476" x2="536" y1="75.5547" y2="75.5547"/></g><!--class Agent--><g id="elem_Agent"><rect codeLine="12" fill="#F1F1F1" height="41.5547" id="Agent" rx="2.5" ry="2.5" style="stroke:#181818;stroke-width:0.5;" width="62" x="825" y="239"/><text fill="#000000" font-family="sans-serif" font-size="20" lengthAdjust="spacing" textLength="56" x="828" y="263.3359">Agent</text><line style="stroke:#181818;stroke-width:0.5;" x1="826" x2="886" y1="272.5547" y2="272.5547"/></g><!--class PurchaseOrder--><g id="elem_PurchaseOrder"><rect codeLine="14" fill="#F1F1F1" height="112.2188" id="PurchaseOrder" rx="2.5" ry="2.5" style="stroke:#181818;stroke-width:0.5;" width="218" x="676" y="7"/><text fill="#000000" font-family="sans-serif" font-size="20" lengthAdjust="spacing" textLength="141" x="714.5" y="31.3359">PurchaseOrder</text><line style="stroke:#181818;stroke-width:0.5;" x1="677" x2="893" y1="40.5547" y2="40.5547"/><text fill="#000000" font-family="sans-serif" font-size="20" lengthAdjust="spacing" textLength="206" x="682" y="63.8906">dateOfPurchaseOrder</text><text fill="#000000" font-family="sans-serif" font-size="20" lengthAdjust="spacing" textLength="50" x="682" y="87.4453">value</text><text fill="#000000" font-family="sans-serif" font-size="20" lengthAdjust="spacing" textLength="57" x="682" y="111">status</text></g><!--class Property--><g id="elem_Property"><rect codeLine="20" fill="#F1F1F1" height="88.6641" id="Property" rx="2.5" ry="2.5" style="stroke:#181818;stroke-width:0.5;" width="192" x="22" y="18.5"/><text fill="#000000" font-family="sans-serif" font-size="20" lengthAdjust="spacing" textLength="80" x="78" y="42.8359">Property</text><line style="stroke:#181818;stroke-width:0.5;" x1="23" x2="213" y1="52.0547" y2="52.0547"/><text fill="#000000" font-family="sans-serif" font-size="20" lengthAdjust="spacing" textLength="41" x="28" y="75.3906">area</text><text fill="#000000" font-family="sans-serif" font-size="20" lengthAdjust="spacing" textLength="180" x="28" y="98.9453">distanceCityCentre</text></g><!--class Advertisement--><g id="elem_Advertisement"><rect codeLine="25" fill="#F1F1F1" height="88.6641" id="Advertisement" rx="2.5" ry="2.5" style="stroke:#181818;stroke-width:0.5;" width="216" x="407" y="215.5"/><text fill="#000000" font-family="sans-serif" font-size="20" lengthAdjust="spacing" textLength="139" x="445.5" y="239.8359">Advertisement</text><line style="stroke:#181818;stroke-width:0.5;" x1="408" x2="622" y1="249.0547" y2="249.0547"/><text fill="#000000" font-family="sans-serif" font-size="20" lengthAdjust="spacing" textLength="204" x="413" y="272.3906">dateOfAdvertisement</text><text fill="#000000" font-family="sans-serif" font-size="20" lengthAdjust="spacing" textLength="57" x="413" y="295.9453">status</text></g><!--class AdvertisementRequest--><g id="elem_AdvertisementRequest"><rect codeLine="30" fill="#F1F1F1" height="112.2188" id="AdvertisementRequest" rx="2.5" ry="2.5" style="stroke:#181818;stroke-width:0.5;" width="222" x="7" y="204"/><text fill="#000000" font-family="sans-serif" font-size="20" lengthAdjust="spacing" textLength="216" x="10" y="228.3359">AdvertisementRequest</text><line style="stroke:#181818;stroke-width:0.5;" x1="8" x2="228" y1="237.5547" y2="237.5547"/><text fill="#000000" font-family="sans-serif" font-size="20" lengthAdjust="spacing" textLength="48" x="13" y="260.8906">price</text><text fill="#000000" font-family="sans-serif" font-size="20" lengthAdjust="spacing" textLength="142" x="13" y="284.4453">dateOfRequest</text><text fill="#000000" font-family="sans-serif" font-size="20" lengthAdjust="spacing" textLength="57" x="13" y="308">status</text></g><!--link Client to Advertisement--><g id="link_Client_Advertisement"><path codeLine="36" d="M504.27,84.3 C502.65,106.39 500.8,142.75 503,174 C503.95,187.53 505.74,202.18 507.66,215.45 " fill="none" id="Client-Advertisement" style="stroke:#181818;stroke-width:1.0;"/><polygon fill="#000000" points="511.2067,169.7747,515.5335,155.1859,506.1321,155.4289,511.2067,169.7747" style="stroke:#000000;stroke-width:1.0;"/><text fill="#000000" font-family="sans-serif" font-size="20" lengthAdjust="spacing" textLength="79" x="524" y="169.3359">consults</text><text fill="#000000" font-family="sans-serif" font-size="20" lengthAdjust="spacing" textLength="10" x="492.7978" y="110.9203">*</text><text fill="#000000" font-family="sans-serif" font-size="20" lengthAdjust="spacing" textLength="10" x="495.7704" y="203.2715">*</text></g><!--link Advertisement to Agent--><g id="link_Advertisement_Agent"><path codeLine="37" d="M623.36,260 C693.37,260 779.58,260 824.85,260 " fill="none" id="Advertisement-Agent" style="stroke:#181818;stroke-width:1.0;"/><polygon fill="#000000" points="640.5,244.7773,654.9721,249.4796,654.9721,240.0751,640.5,244.7773" style="stroke:#000000;stroke-width:1.0;"/><text fill="#000000" font-family="sans-serif" font-size="20" lengthAdjust="spacing" textLength="145" x="661.5" y="252.3359">responsible for</text><text fill="#000000" font-family="sans-serif" font-size="20" lengthAdjust="spacing" textLength="10" x="630.9764" y="255.5932">*</text><text fill="#000000" font-family="sans-serif" font-size="20" lengthAdjust="spacing" textLength="13" x="804.0847" y="254.0672">1</text></g><!--link Client to PurchaseOrder--><g id="link_Client_PurchaseOrder"><path codeLine="39" d="M537.19,63 C570.75,63 626.02,63 675.86,63 " fill="none" id="Client-PurchaseOrder" style="stroke:#181818;stroke-width:1.0;"/><polygon fill="#000000" points="570.5,47.7773,556.0279,43.0751,556.0279,52.4796,570.5,47.7773" style="stroke:#000000;stroke-width:1.0;"/><text fill="#000000" font-family="sans-serif" font-size="20" lengthAdjust="spacing" textLength="82" x="575.5" y="55.3359">requests</text><text fill="#000000" font-family="sans-serif" font-size="20" lengthAdjust="spacing" textLength="13" x="544.9636" y="57.0672">1</text><text fill="#000000" font-family="sans-serif" font-size="20" lengthAdjust="spacing" textLength="10" x="657.8345" y="58.5392">*</text></g><!--link PurchaseOrder to Advertisement--><g id="link_PurchaseOrder_Advertisement"><path codeLine="41" d="M685.11,119.14 C669.69,128.62 654.19,138.74 640,149 C624.36,160.3 591.04,189.73 562.73,215.31 " fill="none" id="PurchaseOrder-Advertisement" style="stroke:#181818;stroke-width:1.0;"/><polygon fill="#000000" points="641.7098,166.7204,655.9943,161.4756,650.1834,154.0811,641.7098,166.7204" style="stroke:#000000;stroke-width:1.0;"/><text fill="#000000" font-family="sans-serif" font-size="20" lengthAdjust="spacing" textLength="147" x="661" y="169.3359">associated with</text><text fill="#000000" font-family="sans-serif" font-size="20" lengthAdjust="spacing" textLength="10" x="662.3265" y="146.74">*</text><text fill="#000000" font-family="sans-serif" font-size="20" lengthAdjust="spacing" textLength="13" x="556.0433" y="203.11">1</text></g><!--link PurchaseOrder to Agent--><g id="link_PurchaseOrder_Agent"><path codeLine="42" d="M805.98,119.27 C809.69,129.16 813.48,139.37 817,149 C828.41,180.21 841.2,216.58 848.93,238.68 " fill="none" id="PurchaseOrder-Agent" style="stroke:#181818;stroke-width:1.0;"/><polygon fill="#000000" points="830.2923,154.2495,830.7658,169.459,839.6153,166.276,830.2923,154.2495" style="stroke:#000000;stroke-width:1.0;"/><text fill="#000000" font-family="sans-serif" font-size="20" lengthAdjust="spacing" textLength="85" x="846" y="169.3359">validates</text><text fill="#000000" font-family="sans-serif" font-size="20" lengthAdjust="spacing" textLength="10" x="797.8277" y="146.4613">*</text><text fill="#000000" font-family="sans-serif" font-size="20" lengthAdjust="spacing" textLength="13" x="832.4527" y="226.7339">1</text></g><!--link AdvertisementRequest to Advertisement--><g id="link_AdvertisementRequest_Advertisement"><path codeLine="43" d="M229.11,260 C284.74,260 351.81,260 407,260 " fill="none" id="AdvertisementRequest-Advertisement" style="stroke:#181818;stroke-width:1.0;"/><polygon fill="#000000" points="246.5,244.7773,260.9721,249.4796,260.9721,240.0751,246.5,244.7773" style="stroke:#000000;stroke-width:1.0;"/><text fill="#000000" font-family="sans-serif" font-size="20" lengthAdjust="spacing" textLength="121" x="267.5" y="252.3359">derives from</text><text fill="#000000" font-family="sans-serif" font-size="20" lengthAdjust="spacing" textLength="13" x="237.0119" y="255.5746">1</text><text fill="#000000" font-family="sans-serif" font-size="20" lengthAdjust="spacing" textLength="13" x="385.9492" y="255.5587">1</text></g><!--link Property to AdvertisementRequest--><g id="link_Property_AdvertisementRequest"><path codeLine="45" d="M118,107.76 C118,136.17 118,173.43 118,203.86 " fill="none" id="Property-AdvertisementRequest" style="stroke:#181818;stroke-width:1.0;"/><polygon fill="#000000" points="126,153.7773,121.2977,168.2495,130.7023,168.2495,126,153.7773" style="stroke:#000000;stroke-width:1.0;"/><text fill="#000000" font-family="sans-serif" font-size="20" lengthAdjust="spacing" textLength="92" x="139" y="169.3359">describes</text><text fill="#000000" font-family="sans-serif" font-size="20" lengthAdjust="spacing" textLength="13" x="104.1672" y="134.3613">1</text><text fill="#000000" font-family="sans-serif" font-size="20" lengthAdjust="spacing" textLength="13" x="104.2078" y="191.9728">1</text></g><!--SRC=[RLB1QiCm3BtxAqIEWqAtOnc3KXZirB5-WMihYQXZPxRJqfNz-sGdRMEwKoBflISzoU50jfTUTiQf0shGMCl1n7Tduuv-45wM8bmXq3dhLEjTXn3zWBDABzL1DhYBPuFWKKLf6pC7X5PgToBRG2rDG34hAID3MCVeQJz4_53EvivB8LhI28gyOgdyts5idGv2P0vi3A6Dbzzhl6uuX7lyENZLoe1Rhz5VX9OHjtMH54Tfaf4eun34dUXTZpwUuIAaHoaqCS8gt50yRxY7npjshOyCfO1TRZvrAR8F-aNr2xy738dQUr8u2KpP6NLqMprLi5W0VmgH5V3U0bykm9ieAfa0rNELjxFYwuIUeRJdIzNEm-jD-Jaf-oHTx2XHyYn9MXIbX5sCuiKMLi0kdI9sek54iMLcGHnTwCI4QIw-12NhWIVwRp-tyHAbjCw2T6HYpKyp-RcURwJeX_acnKGCYfzTxla7]--></g></svg>