<?xml version="1.0" encoding="UTF-8" standalone="no"?><svg xmlns="http://www.w3.org/2000/svg" xmlns:xlink="http://www.w3.org/1999/xlink" contentStyleType="text/css" height="1016px" preserveAspectRatio="none" style="width:1376px;height:1016px;background:#FFFFFF;" version="1.1" viewBox="0 0 1376 1016" width="1376px" zoomAndPan="magnify"><defs/><g><rect fill="#FFFFFF" height="820.0938" style="stroke:#181818;stroke-width:1.0;" width="10" x="39.5" y="98.5547"/><rect fill="#FFFFFF" height="344.4375" style="stroke:#181818;stroke-width:1.0;" width="10" x="247.5" y="128.1094"/><rect fill="#FFFFFF" height="38.5547" style="stroke:#181818;stroke-width:1.0;" width="10" x="432" y="175.6641"/><rect fill="#FFFFFF" height="67.5547" style="stroke:#181818;stroke-width:1.0;" width="10" x="432" y="442.5469"/><rect fill="#FFFFFF" height="273.4375" style="stroke:#181818;stroke-width:1.0;" width="10" x="432" y="605.2109"/><rect fill="#FFFFFF" height="180.7734" style="stroke:#181818;stroke-width:1.0;" width="10" x="654.5" y="224.2188"/><rect fill="#FFFFFF" height="198.3281" style="stroke:#181818;stroke-width:1.0;" width="10" x="654.5" y="642.7656"/><rect fill="#FFFFFF" height="52.332" style="stroke:#181818;stroke-width:1.0;" width="10" x="881" y="277.5508"/><rect fill="#FFFFFF" height="123.2188" style="stroke:#181818;stroke-width:1.0;" width="10" x="881" y="680.3203"/><rect fill="#FFFFFF" height="37.5547" style="stroke:#181818;stroke-width:1.0;" width="10" x="1090" y="367.4375"/><rect fill="none" height="361.5469" style="stroke:#000000;stroke-width:1.5;" width="1360" x="10" y="550.1016"/><line style="stroke:#181818;stroke-width:0.5;stroke-dasharray:5.0,5.0;" x1="44" x2="44" y1="88.5547" y2="928.6484"/><line style="stroke:#181818;stroke-width:0.5;stroke-dasharray:5.0,5.0;" x1="252" x2="252" y1="88.5547" y2="928.6484"/><line style="stroke:#181818;stroke-width:0.5;stroke-dasharray:5.0,5.0;" x1="436.5" x2="436.5" y1="170.3867" y2="928.6484"/><line style="stroke:#181818;stroke-width:0.5;stroke-dasharray:5.0,5.0;" x1="659" x2="659" y1="218.9414" y2="928.6484"/><line style="stroke:#181818;stroke-width:0.5;stroke-dasharray:5.0,5.0;" x1="886" x2="886" y1="88.5547" y2="928.6484"/><line style="stroke:#181818;stroke-width:0.5;stroke-dasharray:5.0,5.0;" x1="1095" x2="1095" y1="88.5547" y2="928.6484"/><line style="stroke:#181818;stroke-width:0.5;stroke-dasharray:5.0,5.0;" x1="1283" x2="1283" y1="88.5547" y2="928.6484"/><text fill="#000000" font-family="sans-serif" font-size="20" lengthAdjust="spacing" textLength="43" x="20" y="84.3359">User</text><ellipse cx="44.5" cy="13.5" fill="#E3E3E3" rx="8" ry="8" style="stroke:#181818;stroke-width:0.5;"/><path d="M44.5,21.5 L44.5,48.5 M31.5,29.5 L57.5,29.5 M44.5,48.5 L31.5,63.5 M44.5,48.5 L57.5,63.5 " fill="none" style="stroke:#181818;stroke-width:0.5;"/><text fill="#000000" font-family="sans-serif" font-size="20" lengthAdjust="spacing" textLength="43" x="20" y="946.9844">User</text><ellipse cx="44.5" cy="959.7031" fill="#E3E3E3" rx="8" ry="8" style="stroke:#181818;stroke-width:0.5;"/><path d="M44.5,967.7031 L44.5,994.7031 M31.5,975.7031 L57.5,975.7031 M44.5,994.7031 L31.5,1009.7031 M44.5,994.7031 L57.5,1009.7031 " fill="none" style="stroke:#181818;stroke-width:0.5;"/><rect fill="#E3E3E3" height="37.5547" rx="2.5" ry="2.5" style="stroke:#181818;stroke-width:0.5;" width="119" x="193" y="50"/><text fill="#000000" font-family="sans-serif" font-size="20" lengthAdjust="spacing" textLength="105" x="200" y="76.3359">:{MenuX}UI</text><rect fill="#E3E3E3" height="37.5547" rx="2.5" ry="2.5" style="stroke:#181818;stroke-width:0.5;" width="119" x="193" y="927.6484"/><text fill="#000000" font-family="sans-serif" font-size="20" lengthAdjust="spacing" textLength="105" x="200" y="953.9844">:{MenuX}UI</text><rect fill="#E3E3E3" height="37.5547" rx="2.5" ry="2.5" style="stroke:#181818;stroke-width:0.5;" width="161" x="356.5" y="927.6484"/><text fill="#000000" font-family="sans-serif" font-size="20" lengthAdjust="spacing" textLength="147" x="363.5" y="953.9844">:{NameOfUC}UI</text><rect fill="#E3E3E3" height="37.5547" rx="2.5" ry="2.5" style="stroke:#181818;stroke-width:0.5;" width="237" x="541" y="927.6484"/><text fill="#000000" font-family="sans-serif" font-size="20" lengthAdjust="spacing" textLength="223" x="548" y="953.9844">:{NameOfUC}Controller</text><rect fill="#E3E3E3" height="37.5547" rx="2.5" ry="2.5" style="stroke:#181818;stroke-width:0.5;" width="196" x="788" y="50"/><text fill="#000000" font-family="sans-serif" font-size="20" lengthAdjust="spacing" textLength="182" x="795" y="76.3359">ApplicationSession</text><rect fill="#E3E3E3" height="37.5547" rx="2.5" ry="2.5" style="stroke:#181818;stroke-width:0.5;" width="196" x="788" y="927.6484"/><text fill="#000000" font-family="sans-serif" font-size="20" lengthAdjust="spacing" textLength="182" x="795" y="953.9844">ApplicationSession</text><rect fill="#E3E3E3" height="61.1094" rx="2.5" ry="2.5" style="stroke:#181818;stroke-width:0.5;" width="202" x="994" y="26.4453"/><text fill="#000000" font-family="sans-serif" font-size="20" lengthAdjust="spacing" textLength="109" x="1040.5" y="52.7813">appSession</text><text fill="#000000" font-family="sans-serif" font-size="20" lengthAdjust="spacing" textLength="188" x="1001" y="76.3359">:ApplicationSession</text><rect fill="#E3E3E3" height="61.1094" rx="2.5" ry="2.5" style="stroke:#181818;stroke-width:0.5;" width="202" x="994" y="927.6484"/><text fill="#000000" font-family="sans-serif" font-size="20" lengthAdjust="spacing" textLength="109" x="1040.5" y="953.9844">appSession</text><text fill="#000000" font-family="sans-serif" font-size="20" lengthAdjust="spacing" textLength="188" x="1001" y="977.5391">:ApplicationSession</text><rect fill="#E3E3E3" height="61.1094" rx="2.5" ry="2.5" style="stroke:#181818;stroke-width:0.5;" width="154" x="1206" y="26.4453"/><text fill="#000000" font-family="sans-serif" font-size="20" lengthAdjust="spacing" textLength="140" x="1213" y="52.7813">currentSession</text><text fill="#000000" font-family="sans-serif" font-size="20" lengthAdjust="spacing" textLength="121" x="1222.5" y="76.3359">:UserSession</text><rect fill="#E3E3E3" height="61.1094" rx="2.5" ry="2.5" style="stroke:#181818;stroke-width:0.5;" width="154" x="1206" y="927.6484"/><text fill="#000000" font-family="sans-serif" font-size="20" lengthAdjust="spacing" textLength="140" x="1213" y="953.9844">currentSession</text><text fill="#000000" font-family="sans-serif" font-size="20" lengthAdjust="spacing" textLength="121" x="1222.5" y="977.5391">:UserSession</text><rect fill="#FFFFFF" height="820.0938" style="stroke:#181818;stroke-width:1.0;" width="10" x="39.5" y="98.5547"/><rect fill="#FFFFFF" height="344.4375" style="stroke:#181818;stroke-width:1.0;" width="10" x="247.5" y="128.1094"/><rect fill="#FFFFFF" height="38.5547" style="stroke:#181818;stroke-width:1.0;" width="10" x="432" y="175.6641"/><rect fill="#FFFFFF" height="67.5547" style="stroke:#181818;stroke-width:1.0;" width="10" x="432" y="442.5469"/><rect fill="#FFFFFF" height="273.4375" style="stroke:#181818;stroke-width:1.0;" width="10" x="432" y="605.2109"/><rect fill="#FFFFFF" height="180.7734" style="stroke:#181818;stroke-width:1.0;" width="10" x="654.5" y="224.2188"/><rect fill="#FFFFFF" height="198.3281" style="stroke:#181818;stroke-width:1.0;" width="10" x="654.5" y="642.7656"/><rect fill="#FFFFFF" height="52.332" style="stroke:#181818;stroke-width:1.0;" width="10" x="881" y="277.5508"/><rect fill="#FFFFFF" height="123.2188" style="stroke:#181818;stroke-width:1.0;" width="10" x="881" y="680.3203"/><rect fill="#FFFFFF" height="37.5547" style="stroke:#181818;stroke-width:1.0;" width="10" x="1090" y="367.4375"/><polygon fill="#181818" points="235.5,124.1094,245.5,128.1094,235.5,132.1094,239.5,128.1094" style="stroke:#181818;stroke-width:1.0;"/><line style="stroke:#181818;stroke-width:1.0;" x1="49.5" x2="241.5" y1="128.1094" y2="128.1094"/><text fill="#000000" font-family="sans-serif" font-size="20" font-weight="bold" lengthAdjust="spacing" textLength="13" x="56.5" y="121.8906">1</text><text fill="#000000" font-family="sans-serif" font-size="20" lengthAdjust="spacing" textLength="162" x="73.5" y="121.8906">selects an option</text><polygon fill="#181818" points="344.5,161.6641,354.5,165.6641,344.5,169.6641,348.5,165.6641" style="stroke:#181818;stroke-width:1.0;"/><line style="stroke:#181818;stroke-width:1.0;stroke-dasharray:2.0,2.0;" x1="257.5" x2="350.5" y1="165.6641" y2="165.6641"/><text fill="#000000" font-family="sans-serif" font-size="20" font-weight="bold" lengthAdjust="spacing" textLength="13" x="264.5" y="159.4453">2</text><text fill="#000000" font-family="sans-serif" font-size="20" lengthAdjust="spacing" textLength="58" x="281.5" y="159.4453">create</text><rect fill="#E3E3E3" height="37.5547" rx="2.5" ry="2.5" style="stroke:#181818;stroke-width:0.5;" width="161" x="356.5" y="136.1094"/><text fill="#000000" font-family="sans-serif" font-size="20" lengthAdjust="spacing" textLength="147" x="363.5" y="162.4453">:{NameOfUC}UI</text><polygon fill="#181818" points="529,210.2188,539,214.2188,529,218.2188,533,214.2188" style="stroke:#181818;stroke-width:1.0;"/><line style="stroke:#181818;stroke-width:1.0;stroke-dasharray:2.0,2.0;" x1="437" x2="535" y1="214.2188" y2="214.2188"/><text fill="#000000" font-family="sans-serif" font-size="20" font-weight="bold" lengthAdjust="spacing" textLength="13" x="444" y="208">3</text><text fill="#000000" font-family="sans-serif" font-size="20" lengthAdjust="spacing" textLength="58" x="461" y="208">create</text><rect fill="#E3E3E3" height="37.5547" rx="2.5" ry="2.5" style="stroke:#181818;stroke-width:0.5;" width="237" x="541" y="184.6641"/><text fill="#000000" font-family="sans-serif" font-size="20" lengthAdjust="spacing" textLength="223" x="548" y="211">:{NameOfUC}Controller</text><polygon fill="#181818" points="869,273.5508,879,277.5508,869,281.5508,873,277.5508" style="stroke:#181818;stroke-width:1.0;"/><line style="stroke:#181818;stroke-width:1.0;" x1="664.5" x2="875" y1="277.5508" y2="277.5508"/><text fill="#000000" font-family="sans-serif" font-size="20" font-weight="bold" lengthAdjust="spacing" textLength="13" x="671.5" y="271.332">4</text><text fill="#000000" font-family="sans-serif" font-size="20" lengthAdjust="spacing" textLength="123" x="688.5" y="271.332">getinstance()</text><path d="M896,238.2188 L896,295.2188 L1095,295.2188 L1095,248.2188 L1085,238.2188 L896,238.2188 " fill="#FAFAFA" style="stroke:#181818;stroke-width:0.5;"/><path d="M1085,238.2188 L1085,248.2188 L1095,248.2188 L1085,238.2188 " fill="#FAFAFA" style="stroke:#181818;stroke-width:0.5;"/><text fill="#000000" font-family="sans-serif" font-size="20" lengthAdjust="spacing" textLength="131" x="902" y="262.5547">static method</text><text fill="#000000" font-family="sans-serif" font-size="20" lengthAdjust="spacing" textLength="178" x="902" y="286.1094">(Singleton pattern)</text><polygon fill="#181818" points="675.5,325.8828,665.5,329.8828,675.5,333.8828,671.5,329.8828" style="stroke:#181818;stroke-width:1.0;"/><line style="stroke:#181818;stroke-width:1.0;stroke-dasharray:2.0,2.0;" x1="669.5" x2="885" y1="329.8828" y2="329.8828"/><text fill="#000000" font-family="sans-serif" font-size="20" font-weight="bold" lengthAdjust="spacing" textLength="13" x="681.5" y="323.6641">5</text><text fill="#000000" font-family="sans-serif" font-size="20" lengthAdjust="spacing" textLength="109" x="698.5" y="323.6641">appSession</text><polygon fill="#181818" points="1078,363.4375,1088,367.4375,1078,371.4375,1082,367.4375" style="stroke:#181818;stroke-width:1.0;"/><line style="stroke:#181818;stroke-width:1.0;" x1="664.5" x2="1084" y1="367.4375" y2="367.4375"/><text fill="#000000" font-family="sans-serif" font-size="20" font-weight="bold" lengthAdjust="spacing" textLength="13" x="671.5" y="361.2188">6</text><text fill="#000000" font-family="sans-serif" font-size="20" lengthAdjust="spacing" textLength="188" x="688.5" y="361.2188">getCurrentSession()</text><polygon fill="#181818" points="670.5,400.9922,660.5,404.9922,670.5,408.9922,666.5,404.9922" style="stroke:#181818;stroke-width:1.0;"/><line style="stroke:#181818;stroke-width:1.0;stroke-dasharray:2.0,2.0;" x1="664.5" x2="1094" y1="404.9922" y2="404.9922"/><text fill="#000000" font-family="sans-serif" font-size="20" font-weight="bold" lengthAdjust="spacing" textLength="13" x="676.5" y="398.7734">7</text><text fill="#000000" font-family="sans-serif" font-size="20" lengthAdjust="spacing" textLength="140" x="693.5" y="398.7734">currentSession</text><polygon fill="#181818" points="420,438.5469,430,442.5469,420,446.5469,424,442.5469" style="stroke:#181818;stroke-width:1.0;"/><line style="stroke:#181818;stroke-width:1.0;" x1="257.5" x2="426" y1="442.5469" y2="442.5469"/><text fill="#000000" font-family="sans-serif" font-size="20" font-weight="bold" lengthAdjust="spacing" textLength="13" x="264.5" y="436.3281">8</text><text fill="#000000" font-family="sans-serif" font-size="20" lengthAdjust="spacing" textLength="46" x="281.5" y="436.3281">run()</text><polygon fill="#181818" points="60.5,506.1016,50.5,510.1016,60.5,514.1016,56.5,510.1016" style="stroke:#181818;stroke-width:1.0;"/><line style="stroke:#181818;stroke-width:1.0;stroke-dasharray:2.0,2.0;" x1="54.5" x2="436" y1="510.1016" y2="510.1016"/><text fill="#000000" font-family="sans-serif" font-size="20" font-weight="bold" lengthAdjust="spacing" textLength="13" x="66.5" y="503.8828">9</text><text fill="#000000" font-family="sans-serif" font-size="20" lengthAdjust="spacing" textLength="189" x="83.5" y="503.8828">requests something</text><path d="M10,550.1016 L101,550.1016 L101,565.6563 L91,575.6563 L10,575.6563 L10,550.1016 " fill="#EEEEEE" style="stroke:#000000;stroke-width:1.5;"/><rect fill="none" height="361.5469" style="stroke:#000000;stroke-width:1.5;" width="1360" x="10" y="550.1016"/><text fill="#000000" font-family="sans-serif" font-size="20" font-weight="bold" lengthAdjust="spacing" textLength="46" x="25" y="570.4375">loop</text><polygon fill="#181818" points="420,601.2109,430,605.2109,420,609.2109,424,605.2109" style="stroke:#181818;stroke-width:1.0;"/><line style="stroke:#181818;stroke-width:1.0;" x1="49.5" x2="426" y1="605.2109" y2="605.2109"/><text fill="#000000" font-family="sans-serif" font-size="20" font-weight="bold" lengthAdjust="spacing" textLength="26" x="56.5" y="598.9922">10</text><text fill="#000000" font-family="sans-serif" font-size="20" lengthAdjust="spacing" textLength="153" x="86.5" y="598.9922">does something</text><polygon fill="#181818" points="642.5,638.7656,652.5,642.7656,642.5,646.7656,646.5,642.7656" style="stroke:#181818;stroke-width:1.0;"/><line style="stroke:#181818;stroke-width:1.0;" x1="442" x2="648.5" y1="642.7656" y2="642.7656"/><text fill="#000000" font-family="sans-serif" font-size="20" font-weight="bold" lengthAdjust="spacing" textLength="26" x="449" y="636.5469">11</text><text fill="#000000" font-family="sans-serif" font-size="20" lengthAdjust="spacing" textLength="119" x="479" y="636.5469">methodX(...)</text><polygon fill="#181818" points="869,676.3203,879,680.3203,869,684.3203,873,680.3203" style="stroke:#181818;stroke-width:1.0;"/><line style="stroke:#181818;stroke-width:1.0;" x1="664.5" x2="875" y1="680.3203" y2="680.3203"/><text fill="#000000" font-family="sans-serif" font-size="20" font-weight="bold" lengthAdjust="spacing" textLength="26" x="671.5" y="674.1016">12</text><text fill="#000000" font-family="sans-serif" font-size="20" lengthAdjust="spacing" textLength="118" x="701.5" y="674.1016">methodY(...)</text><rect fill="none" height="80.6641" style="stroke:#000000;stroke-width:1.5;" width="578" x="785" y="688.3203"/><path d="M785,688.3203 L859,688.3203 L859,703.3203 L849,713.3203 L785,713.3203 L785,688.3203 " fill="#EEEEEE" style="stroke:#000000;stroke-width:2.0;"/><text fill="#000000" font-family="sans-serif" font-size="20" font-weight="bold" lengthAdjust="spacing" textLength="29" x="798" y="709.6563">ref</text><text fill="#000000" font-family="sans-serif" font-size="20" lengthAdjust="spacing" textLength="6" x="1071" y="736.6563"> </text><text fill="#000000" font-family="sans-serif" font-size="20" lengthAdjust="spacing" textLength="6" x="1071" y="760.2109"> </text><polygon fill="#181818" points="675.5,799.5391,665.5,803.5391,675.5,807.5391,671.5,803.5391" style="stroke:#181818;stroke-width:1.0;"/><line style="stroke:#181818;stroke-width:1.0;stroke-dasharray:2.0,2.0;" x1="669.5" x2="885" y1="803.5391" y2="803.5391"/><text fill="#000000" font-family="sans-serif" font-size="20" font-weight="bold" lengthAdjust="spacing" textLength="26" x="681.5" y="797.3203">13</text><text fill="#000000" font-family="sans-serif" font-size="20" lengthAdjust="spacing" textLength="67" x="711.5" y="797.3203">answer</text><polygon fill="#181818" points="453,837.0938,443,841.0938,453,845.0938,449,841.0938" style="stroke:#181818;stroke-width:1.0;"/><line style="stroke:#181818;stroke-width:1.0;stroke-dasharray:2.0,2.0;" x1="447" x2="658.5" y1="841.0938" y2="841.0938"/><text fill="#000000" font-family="sans-serif" font-size="20" font-weight="bold" lengthAdjust="spacing" textLength="26" x="459" y="834.875">14</text><text fill="#000000" font-family="sans-serif" font-size="20" lengthAdjust="spacing" textLength="67" x="489" y="834.875">answer</text><polygon fill="#181818" points="60.5,874.6484,50.5,878.6484,60.5,882.6484,56.5,878.6484" style="stroke:#181818;stroke-width:1.0;"/><line style="stroke:#181818;stroke-width:1.0;stroke-dasharray:2.0,2.0;" x1="54.5" x2="436" y1="878.6484" y2="878.6484"/><text fill="#000000" font-family="sans-serif" font-size="20" font-weight="bold" lengthAdjust="spacing" textLength="26" x="66.5" y="872.4297">15</text><text fill="#000000" font-family="sans-serif" font-size="20" lengthAdjust="spacing" textLength="303" x="96.5" y="872.4297">answers/requests another thing</text><!--SRC=[bLNBRjim4BphAmXVuWQ9M_JeGm53S041iHDO5P02kJ3IsY8iaIf99Nsu_zubBScaBCKfBpQuiyFbx2obzenNLDAo4EaUCfB1bjQ5_YguZjbl89y_1Qg5a59maUPIb42qhC69L3JTqnt4-bS1H4AgATyLBa3bD1ElZE_8bXOAWe3MMl2wV0OP15Svou1iXT3FucT0KoqacIGAv8HGHP9ukGcGHREKLPHhCfd_MG6l7_ycaGMibkka3rZJ4kwtITXYad2zM2sJQ1GNuesbA8hcqF3Rvix7BgggO2dLJF0ObC8V2rmyFCJBE8xkrw6FfrNLu9xu_69ohx2qbXAm1Hs1KSFD39DDanaOmTWBrN1KAY2up3zo-yLAG-P4GO4zKOHo8YfJX0LrULP0qYoRSekvhMJNryYGIa1a1peTsUhQXUpnpQxbCL8ESMJm1aiNiermkSs6kPeZF7BlG3Ekq7OfJ3zuU2wGHR9Thhrjin2FafCIT2woi-WqPiR4Q5EqjzOWkKyCFBFatcPNj-kBFhDRUgiGtk7a6EAbE4Avh1TKYOwgX9wJUjeCy4PlL1kvrVeMlLnmDDHuszsUzKxEmrDaxTPyRfWUdtNok1NjM20f_AX1uJmeONgFRVPI3eV3PPCMGbGTgXqtf_1Cm13_y0tEY-raFfhpSJgRpKPwTpOXurDo9Fj-JlPkwvebOKl42qWNUECq-iPzd0OPpEWWos1iR3YuUiLlHH_zdjauwU6tQ81or9fZLZfog8-TfIW-2Jbgy_-sQeMnpWfSX7dM_m40]--></g></svg>