<?xml version="1.0" encoding="UTF-8" standalone="no"?><svg xmlns="http://www.w3.org/2000/svg" xmlns:xlink="http://www.w3.org/1999/xlink" contentStyleType="text/css" height="2187px" preserveAspectRatio="none" style="width:1049px;height:2187px;background:#FFFFFF;" version="1.1" viewBox="0 0 1049 2187" width="1049px" zoomAndPan="magnify"><defs/><g><text fill="#000000" font-family="sans-serif" font-size="14" font-weight="bold" lengthAdjust="spacing" textLength="105" x="465" y="23.5352">Domain Model</text><!--class Organization--><g id="elem_Organization"><rect codeLine="7" fill="#F1F1F1" height="65.1094" id="Organization" rx="2.5" ry="2.5" style="stroke:#181818;stroke-width:0.5;" width="130" x="7" y="44.4883"/><text fill="#000000" font-family="sans-serif" font-size="20" lengthAdjust="spacing" textLength="124" x="10" y="68.8242">Organization</text><line style="stroke:#181818;stroke-width:0.5;" x1="8" x2="136" y1="78.043" y2="78.043"/><text fill="#000000" font-family="sans-serif" font-size="20" lengthAdjust="spacing" textLength="53" x="13" y="101.3789">name</text></g><!--class StoreNetwork--><g id="elem_StoreNetwork"><rect codeLine="10" fill="#F1F1F1" height="41.5547" id="StoreNetwork" rx="2.5" ry="2.5" style="stroke:#181818;stroke-width:0.5;" width="135" x="73.5" y="733.4883"/><text fill="#000000" font-family="sans-serif" font-size="20" lengthAdjust="spacing" textLength="129" x="76.5" y="757.8242">StoreNetwork</text><line style="stroke:#181818;stroke-width:0.5;" x1="74.5" x2="207.5" y1="767.043" y2="767.043"/></g><!--class Employee--><g id="elem_Employee"><rect codeLine="11" fill="#F1F1F1" height="182.8828" id="Employee" rx="2.5" ry="2.5" style="stroke:#181818;stroke-width:0.5;" width="199" x="424.5" y="194.4883"/><text fill="#000000" font-family="sans-serif" font-size="20" lengthAdjust="spacing" textLength="93" x="477.5" y="218.8242">Employee</text><line style="stroke:#181818;stroke-width:0.5;" x1="425.5" x2="622.5" y1="228.043" y2="228.043"/><text fill="#000000" font-family="sans-serif" font-size="20" lengthAdjust="spacing" textLength="53" x="430.5" y="251.3789">name</text><text fill="#000000" font-family="sans-serif" font-size="20" lengthAdjust="spacing" textLength="187" x="430.5" y="274.9336">citizenCardNumber</text><text fill="#000000" font-family="sans-serif" font-size="20" lengthAdjust="spacing" textLength="108" x="430.5" y="298.4883">taxNumber</text><text fill="#000000" font-family="sans-serif" font-size="20" lengthAdjust="spacing" textLength="76" x="430.5" y="322.043">address</text><text fill="#000000" font-family="sans-serif" font-size="20" lengthAdjust="spacing" textLength="132" x="430.5" y="345.5977">emailAddress</text><text fill="#000000" font-family="sans-serif" font-size="20" lengthAdjust="spacing" textLength="173" x="430.5" y="369.1523">telephoneNumber</text></g><!--class SystemAdministrator--><g id="elem_SystemAdministrator"><rect codeLine="19" fill="#F1F1F1" height="41.5547" id="SystemAdministrator" rx="2.5" ry="2.5" style="stroke:#181818;stroke-width:0.5;" width="207" x="383.5" y="589.4883"/><text fill="#000000" font-family="sans-serif" font-size="20" lengthAdjust="spacing" textLength="201" x="386.5" y="613.8242">SystemAdministrator</text><line style="stroke:#181818;stroke-width:0.5;" x1="384.5" x2="589.5" y1="623.043" y2="623.043"/></g><!--class Store--><g id="elem_Store"><rect codeLine="20" fill="#F1F1F1" height="135.7734" id="Store" rx="2.5" ry="2.5" style="stroke:#181818;stroke-width:0.5;" width="185" x="305.5" y="860.4883"/><text fill="#000000" font-family="sans-serif" font-size="20" lengthAdjust="spacing" textLength="49" x="373.5" y="884.8242">Store</text><line style="stroke:#181818;stroke-width:0.5;" x1="306.5" x2="489.5" y1="894.043" y2="894.043"/><text fill="#000000" font-family="sans-serif" font-size="20" lengthAdjust="spacing" textLength="112" x="311.5" y="917.3789">designation</text><text fill="#000000" font-family="sans-serif" font-size="20" lengthAdjust="spacing" textLength="76" x="311.5" y="940.9336">location</text><text fill="#000000" font-family="sans-serif" font-size="20" lengthAdjust="spacing" textLength="132" x="311.5" y="964.4883">emailAddress</text><text fill="#000000" font-family="sans-serif" font-size="20" lengthAdjust="spacing" textLength="173" x="311.5" y="988.043">telephoneNumber</text></g><!--class NetworkManager--><g id="elem_NetworkManager"><rect codeLine="26" fill="#F1F1F1" height="41.5547" id="NetworkManager" rx="2.5" ry="2.5" style="stroke:#181818;stroke-width:0.5;" width="168" x="96" y="589.4883"/><text fill="#000000" font-family="sans-serif" font-size="20" lengthAdjust="spacing" textLength="162" x="99" y="613.8242">NetworkManager</text><line style="stroke:#181818;stroke-width:0.5;" x1="97" x2="263" y1="623.043" y2="623.043"/></g><!--class LocalManager--><g id="elem_LocalManager"><rect codeLine="27" fill="#F1F1F1" height="41.5547" id="LocalManager" rx="2.5" ry="2.5" style="stroke:#181818;stroke-width:0.5;" width="138" x="254" y="661.4883"/><text fill="#000000" font-family="sans-serif" font-size="20" lengthAdjust="spacing" textLength="132" x="257" y="685.8242">LocalManager</text><line style="stroke:#181818;stroke-width:0.5;" x1="255" x2="391" y1="695.043" y2="695.043"/></g><!--class Agent--><g id="elem_Agent"><rect codeLine="28" fill="#F1F1F1" height="41.5547" id="Agent" rx="2.5" ry="2.5" style="stroke:#181818;stroke-width:0.5;" width="62" x="614" y="907.4883"/><text fill="#000000" font-family="sans-serif" font-size="20" lengthAdjust="spacing" textLength="56" x="617" y="931.8242">Agent</text><line style="stroke:#181818;stroke-width:0.5;" x1="615" x2="675" y1="941.043" y2="941.043"/></g><!--class Role--><g id="elem_Role"><rect codeLine="29" fill="#F1F1F1" height="41.5547" id="Role" rx="2.5" ry="2.5" style="stroke:#181818;stroke-width:0.5;" width="48" x="421" y="462.4883"/><text fill="#000000" font-family="sans-serif" font-size="20" lengthAdjust="spacing" textLength="42" x="424" y="486.8242">Role</text><line style="stroke:#181818;stroke-width:0.5;" x1="422" x2="468" y1="496.043" y2="496.043"/></g><!--class Owner--><g id="elem_Owner"><rect codeLine="30" fill="#F1F1F1" height="182.8828" id="Owner" rx="2.5" ry="2.5" style="stroke:#181818;stroke-width:0.5;" width="199" x="302.5" y="1153.4883"/><text fill="#000000" font-family="sans-serif" font-size="20" lengthAdjust="spacing" textLength="62" x="371" y="1177.8242">Owner</text><line style="stroke:#181818;stroke-width:0.5;" x1="303.5" x2="500.5" y1="1187.043" y2="1187.043"/><text fill="#000000" font-family="sans-serif" font-size="20" lengthAdjust="spacing" textLength="53" x="308.5" y="1210.3789">name</text><text fill="#000000" font-family="sans-serif" font-size="20" lengthAdjust="spacing" textLength="187" x="308.5" y="1233.9336">citizenCardNumber</text><text fill="#000000" font-family="sans-serif" font-size="20" lengthAdjust="spacing" textLength="108" x="308.5" y="1257.4883">taxNumber</text><text fill="#000000" font-family="sans-serif" font-size="20" lengthAdjust="spacing" textLength="76" x="308.5" y="1281.043">address</text><text fill="#000000" font-family="sans-serif" font-size="20" lengthAdjust="spacing" textLength="132" x="308.5" y="1304.5977">emailAddress</text><text fill="#000000" font-family="sans-serif" font-size="20" lengthAdjust="spacing" textLength="173" x="308.5" y="1328.1523">telephoneNumber</text></g><!--class Client--><g id="elem_Client"><rect codeLine="38" fill="#F1F1F1" height="41.5547" id="Client" rx="2.5" ry="2.5" style="stroke:#181818;stroke-width:0.5;" width="62" x="552" y="1081.4883"/><text fill="#000000" font-family="sans-serif" font-size="20" lengthAdjust="spacing" textLength="56" x="555" y="1105.8242">Client</text><line style="stroke:#181818;stroke-width:0.5;" x1="553" x2="613" y1="1115.043" y2="1115.043"/></g><!--class Advertisement--><g id="elem_Advertisement"><rect codeLine="39" fill="#F1F1F1" height="88.6641" id="Advertisement" rx="2.5" ry="2.5" style="stroke:#181818;stroke-width:0.5;" width="165" x="578.5" y="1366.4883"/><text fill="#000000" font-family="sans-serif" font-size="20" lengthAdjust="spacing" textLength="139" x="591.5" y="1390.8242">Advertisement</text><line style="stroke:#181818;stroke-width:0.5;" x1="579.5" x2="742.5" y1="1400.043" y2="1400.043"/><text fill="#000000" font-family="sans-serif" font-size="20" lengthAdjust="spacing" textLength="48" x="584.5" y="1423.3789">price</text><text fill="#000000" font-family="sans-serif" font-size="20" lengthAdjust="spacing" textLength="153" x="584.5" y="1446.9336">TypeOfBusiness</text></g><!--class Property--><g id="elem_Property"><rect codeLine="43" fill="#F1F1F1" height="135.7734" id="Property" rx="2.5" ry="2.5" style="stroke:#181818;stroke-width:0.5;" width="192" x="486" y="1626.4883"/><text fill="#000000" font-family="sans-serif" font-size="20" lengthAdjust="spacing" textLength="80" x="542" y="1650.8242">Property</text><line style="stroke:#181818;stroke-width:0.5;" x1="487" x2="677" y1="1660.043" y2="1660.043"/><text fill="#000000" font-family="sans-serif" font-size="20" lengthAdjust="spacing" textLength="41" x="492" y="1683.3789">area</text><text fill="#000000" font-family="sans-serif" font-size="20" lengthAdjust="spacing" textLength="76" x="492" y="1706.9336">location</text><text fill="#000000" font-family="sans-serif" font-size="20" lengthAdjust="spacing" textLength="180" x="492" y="1730.4883">distanceCityCentre</text><text fill="#000000" font-family="sans-serif" font-size="20" lengthAdjust="spacing" textLength="122" x="492" y="1754.043">photographs</text></g><!--class Apartment--><g id="elem_Apartment"><rect codeLine="49" fill="#F1F1F1" height="41.5547" id="Apartment" rx="2.5" ry="2.5" style="stroke:#181818;stroke-width:0.5;" width="108" x="323" y="2103.4883"/><text fill="#000000" font-family="sans-serif" font-size="20" lengthAdjust="spacing" textLength="102" x="326" y="2127.8242">Apartment</text><line style="stroke:#181818;stroke-width:0.5;" x1="324" x2="430" y1="2137.043" y2="2137.043"/></g><!--class ApartmentHouse--><g id="elem_ApartmentHouse"><rect codeLine="50" fill="#F1F1F1" height="135.7734" id="ApartmentHouse" rx="2.5" ry="2.5" style="stroke:#181818;stroke-width:0.5;" width="248" x="365" y="1847.4883"/><text fill="#000000" font-family="sans-serif" font-size="20" lengthAdjust="spacing" textLength="162" x="408" y="1871.8242">ApartmentHouse</text><line style="stroke:#181818;stroke-width:0.5;" x1="366" x2="612" y1="1881.043" y2="1881.043"/><text fill="#000000" font-family="sans-serif" font-size="20" lengthAdjust="spacing" textLength="195" x="371" y="1904.3789">numberOfBedrooms</text><text fill="#000000" font-family="sans-serif" font-size="20" lengthAdjust="spacing" textLength="201" x="371" y="1927.9336">numberOfBathrooms</text><text fill="#000000" font-family="sans-serif" font-size="20" lengthAdjust="spacing" textLength="236" x="371" y="1951.4883">numberOfParkingSpaces</text><text fill="#000000" font-family="sans-serif" font-size="20" lengthAdjust="spacing" textLength="189" x="371" y="1975.043">availableEquipment</text></g><!--class Land--><g id="elem_Land"><rect codeLine="56" fill="#F1F1F1" height="41.5547" id="Land" rx="2.5" ry="2.5" style="stroke:#181818;stroke-width:0.5;" width="53" x="648.5" y="1894.4883"/><text fill="#000000" font-family="sans-serif" font-size="20" lengthAdjust="spacing" textLength="47" x="651.5" y="1918.8242">Land</text><line style="stroke:#181818;stroke-width:0.5;" x1="649.5" x2="700.5" y1="1928.043" y2="1928.043"/></g><!--class House--><g id="elem_House"><rect codeLine="57" fill="#F1F1F1" height="112.2188" id="House" rx="2.5" ry="2.5" style="stroke:#181818;stroke-width:0.5;" width="270" x="466" y="2068.4883"/><text fill="#000000" font-family="sans-serif" font-size="20" lengthAdjust="spacing" textLength="60" x="571" y="2092.8242">House</text><line style="stroke:#181818;stroke-width:0.5;" x1="467" x2="735" y1="2102.043" y2="2102.043"/><text fill="#000000" font-family="sans-serif" font-size="20" lengthAdjust="spacing" textLength="206" x="472" y="2125.3789">existenceOfBasement</text><text fill="#000000" font-family="sans-serif" font-size="20" lengthAdjust="spacing" textLength="258" x="472" y="2148.9336">existenceOfInhabitableLoft</text><text fill="#000000" font-family="sans-serif" font-size="20" lengthAdjust="spacing" textLength="123" x="472" y="2172.4883">sunExposure</text></g><!--link Organization to Employee--><g id="link_Organization_Employee"><path codeLine="62" d="M137.24,107.8683 C212.42,142.2983 336.8,199.2583 424.17,239.2683 " fill="none" id="Organization-Employee" style="stroke:#181818;stroke-width:1.0;"/><polygon fill="#000000" points="258.7264,148.9347,269.9266,159.2357,273.8423,150.6851,258.7264,148.9347" style="stroke:#000000;stroke-width:1.0;"/><text fill="#000000" font-family="sans-serif" font-size="20" lengthAdjust="spacing" textLength="90" x="279" y="159.8242">works for</text><text fill="#000000" font-family="sans-serif" font-size="20" lengthAdjust="spacing" textLength="13" x="145.0866" y="106.3483">1</text><text fill="#000000" font-family="sans-serif" font-size="20" lengthAdjust="spacing" textLength="35" x="381.6535" y="231.896">1..*</text></g><!--link Organization to StoreNetwork--><g id="link_Organization_StoreNetwork"><path codeLine="63" d="M64.76,109.7083 C56.17,150.1683 43,222.3883 43,284.9883 C43,284.9883 43,284.9883 43,611.4883 C43,662.4083 86.22,708.3183 115.25,733.4183 " fill="none" id="Organization-StoreNetwork" style="stroke:#181818;stroke-width:1.0;"/><polygon fill="#000000" points="51.6455,491.7395,55.1647,476.9352,45.7908,477.694,51.6455,491.7395" style="stroke:#000000;stroke-width:1.0;"/><text fill="#000000" font-family="sans-serif" font-size="20" lengthAdjust="spacing" textLength="33" x="64" y="491.3242">has</text><text fill="#000000" font-family="sans-serif" font-size="20" lengthAdjust="spacing" textLength="13" x="49.3126" y="136.9606">1</text><text fill="#000000" font-family="sans-serif" font-size="20" lengthAdjust="spacing" textLength="13" x="93.5828" y="721.1354">1</text></g><!--link StoreNetwork to Store--><g id="link_StoreNetwork_Store"><path codeLine="64" d="M161.86,775.4983 C178.92,791.3583 204.06,813.5783 228,830.4883 C252.15,847.5483 279.51,864.2083 305.13,878.7783 " fill="none" id="StoreNetwork-Store" style="stroke:#181818;stroke-width:1.0;"/><polygon fill="#000000" points="242.4896,822.9438,233.4996,810.6664,228.0001,818.2954,242.4896,822.9438" style="stroke:#000000;stroke-width:1.0;"/><text fill="#000000" font-family="sans-serif" font-size="20" lengthAdjust="spacing" textLength="33" x="249" y="825.8242">has</text><text fill="#000000" font-family="sans-serif" font-size="20" lengthAdjust="spacing" textLength="13" x="152.1808" y="802.4678">1</text><text fill="#000000" font-family="sans-serif" font-size="20" lengthAdjust="spacing" textLength="10" x="287.6368" y="870.4577">*</text></g><!--link Employee to Role--><g id="link_Employee_Role"><path codeLine="65" d="M454.46,377.5283 C449.44,387.2683 445.13,397.3283 442,407.4883 C436.48,425.4183 438.12,446.9083 440.61,462.2783 " fill="none" id="Employee-Role" style="stroke:#181818;stroke-width:1.0;"/><polygon fill="#000000" points="448.7097,428.1609,455.6846,414.6366,446.4031,413.1198,448.7097,428.1609" style="stroke:#000000;stroke-width:1.0;"/><text fill="#000000" font-family="sans-serif" font-size="20" lengthAdjust="spacing" textLength="114" x="463" y="427.8242">classified in</text><text fill="#000000" font-family="sans-serif" font-size="20" lengthAdjust="spacing" textLength="13" x="435.6382" y="404.7789">1</text><text fill="#000000" font-family="sans-serif" font-size="20" lengthAdjust="spacing" textLength="13" x="424.8194" y="450.3604">1</text></g><!--link Employee to Store--><g id="link_Employee_Store"><path codeLine="66" d="M623.63,319.2083 C694.43,349.0783 777,401.3083 777,482.4883 C777,482.4883 777,482.4883 777,755.4883 C777,786.8283 602.92,854.6883 490.71,895.1783 " fill="none" id="Employee-Store" style="stroke:#181818;stroke-width:1.0;"/><polygon fill="#000000" points="783.2011,618.5607,791.0372,605.5166,781.8735,603.4019,783.2011,618.5607" style="stroke:#000000;stroke-width:1.0;"/><text fill="#000000" font-family="sans-serif" font-size="20" lengthAdjust="spacing" textLength="110" x="798" y="618.3242">assigned to</text><text fill="#000000" font-family="sans-serif" font-size="20" lengthAdjust="spacing" textLength="13" x="631.4239" y="317.164">1</text><text fill="#000000" font-family="sans-serif" font-size="20" lengthAdjust="spacing" textLength="10" x="498.4963" y="887.9745">*</text></g><!--link Role to SystemAdministrator--><g id="link_Role_SystemAdministrator"><path codeLine="67" d="M451.22,504.6083 C455.96,519.7483 462.71,540.9783 469,559.4883 C472.33,569.2683 476.19,580.0683 479.48,589.1083 " fill="none" id="Role-SystemAdministrator" style="stroke:#181818;stroke-width:1.0;"/><polygon fill="#000000" points="479.5374,554.8526,479.4067,539.6362,470.4877,542.6191,479.5374,554.8526" style="stroke:#000000;stroke-width:1.0;"/><text fill="#000000" font-family="sans-serif" font-size="20" lengthAdjust="spacing" textLength="87" x="490" y="554.8242">classifies</text><text fill="#000000" font-family="sans-serif" font-size="20" lengthAdjust="spacing" textLength="13" x="438.1588" y="531.1892">1</text><text fill="#000000" font-family="sans-serif" font-size="20" lengthAdjust="spacing" textLength="13" x="462.8874" y="577.1468">1</text></g><!--link SystemAdministrator to Store--><g id="link_SystemAdministrator_Store"><path codeLine="68" d="M482.8,631.5683 C476.17,662.6283 462.54,724.0983 448,775.4883 C440.1,803.4183 430.32,833.8783 421.51,860.1483 " fill="none" id="SystemAdministrator-Store" style="stroke:#181818;stroke-width:1.0;"/><polygon fill="#000000" points="464.9281,762.4927,473.218,749.7321,464.1343,747.2965,464.9281,762.4927" style="stroke:#000000;stroke-width:1.0;"/><text fill="#000000" font-family="sans-serif" font-size="20" lengthAdjust="spacing" textLength="83" x="480" y="762.3242">registers</text><text fill="#000000" font-family="sans-serif" font-size="20" lengthAdjust="spacing" textLength="13" x="467.3256" y="658.554">1</text><text fill="#000000" font-family="sans-serif" font-size="20" lengthAdjust="spacing" textLength="10" x="413.4188" y="848.291">*</text></g><!--link SystemAdministrator to Employee--><g id="link_SystemAdministrator_Employee"><path codeLine="69" d="M548.55,589.4583 C561.82,582.1683 574.2,572.4083 582,559.4883 C615.12,504.6283 598.42,433.5483 574.6,377.7483 " fill="none" id="SystemAdministrator-Employee" style="stroke:#181818;stroke-width:1.0;"/><polygon fill="#000000" points="609.977,475.8255,603.5425,489.6151,612.8767,490.7636,609.977,475.8255" style="stroke:#000000;stroke-width:1.0;"/><text fill="#000000" font-family="sans-serif" font-size="20" lengthAdjust="spacing" textLength="83" x="622" y="491.3242">registers</text><text fill="#000000" font-family="sans-serif" font-size="20" lengthAdjust="spacing" textLength="13" x="550.3447" y="577.1862">1</text><text fill="#000000" font-family="sans-serif" font-size="20" lengthAdjust="spacing" textLength="10" x="567.9488" y="404.692">*</text></g><!--link Role to NetworkManager--><g id="link_Role_NetworkManager"><path codeLine="70" d="M420.93,485.1083 C360.12,487.2183 202.82,496.3283 171,534.4883 C158.4,549.5983 163.66,572.7483 170.17,589.3283 " fill="none" id="Role-NetworkManager" style="stroke:#181818;stroke-width:1.0;"/><polygon fill="#000000" points="171.6126,550.3359,186.7812,549.1239,183.1718,540.4395,171.6126,550.3359" style="stroke:#000000;stroke-width:1.0;"/><text fill="#000000" font-family="sans-serif" font-size="20" lengthAdjust="spacing" textLength="87" x="192" y="554.8242">classifies</text><text fill="#000000" font-family="sans-serif" font-size="20" lengthAdjust="spacing" textLength="13" x="400.0964" y="479.0406">1</text><text fill="#000000" font-family="sans-serif" font-size="20" lengthAdjust="spacing" textLength="13" x="152.9854" y="577.4232">1</text></g><!--link Role to LocalManager--><g id="link_Role_LocalManager"><path codeLine="71" d="M420.79,489.6083 C397.22,495.9383 362.35,509.1283 344,534.4883 C316.49,572.4983 317.48,630.7583 320.35,661.2683 " fill="none" id="Role-LocalManager" style="stroke:#181818;stroke-width:1.0;"/><polygon fill="#000000" points="347.9599,554.1705,359.3271,544.0542,351.2099,539.3047,347.9599,554.1705" style="stroke:#000000;stroke-width:1.0;"/><text fill="#000000" font-family="sans-serif" font-size="20" lengthAdjust="spacing" textLength="87" x="365" y="554.8242">classifies</text><text fill="#000000" font-family="sans-serif" font-size="20" lengthAdjust="spacing" textLength="13" x="399.9206" y="513.5875">1</text><text fill="#000000" font-family="sans-serif" font-size="20" lengthAdjust="spacing" textLength="10" x="308.3897" y="649.3478">*</text></g><!--link Role to Agent--><g id="link_Role_Agent"><path codeLine="72" d="M469.1,486.9483 C499.99,491.3283 553.42,503.1783 586,534.4883 C640.16,586.5383 644.87,834.3783 645.07,907.2783 " fill="none" id="Role-Agent" style="stroke:#181818;stroke-width:1.0;"/><polygon fill="#000000" points="646.0894,690.145,644.8382,674.9797,636.1631,678.6114,646.0894,690.145" style="stroke:#000000;stroke-width:1.0;"/><text fill="#000000" font-family="sans-serif" font-size="20" lengthAdjust="spacing" textLength="87" x="656" y="690.3242">classifies</text><text fill="#000000" font-family="sans-serif" font-size="20" lengthAdjust="spacing" textLength="13" x="476.9413" y="481.3521">1</text><text fill="#000000" font-family="sans-serif" font-size="20" lengthAdjust="spacing" textLength="10" x="633.8067" y="895.3604">*</text></g><!--link LocalManager to Store--><g id="link_LocalManager_Store"><path codeLine="73" d="M324.4,703.5183 C326.05,722.3483 329.44,751.1983 336,775.4883 C343.69,803.9683 355.3,834.2583 366.4,860.2483 " fill="none" id="LocalManager-Store" style="stroke:#181818;stroke-width:1.0;"/><polygon fill="#000000" points="346.0708,762.493,346.8668,747.2969,337.7827,749.7312,346.0708,762.493" style="stroke:#000000;stroke-width:1.0;"/><text fill="#000000" font-family="sans-serif" font-size="20" lengthAdjust="spacing" textLength="86" x="357" y="762.3242">manages</text><text fill="#000000" font-family="sans-serif" font-size="20" lengthAdjust="spacing" textLength="13" x="310.2206" y="730.4924">1</text><text fill="#000000" font-family="sans-serif" font-size="20" lengthAdjust="spacing" textLength="13" x="349.4709" y="848.4013">1</text></g><!--link NetworkManager to StoreNetwork--><g id="link_NetworkManager_StoreNetwork"><path codeLine="74" d="M151.07,631.7283 C141.91,639.8183 132.91,649.9683 128,661.4883 C118.08,684.7883 125.22,714.1083 132.22,733.3083 " fill="none" id="NetworkManager-StoreNetwork" style="stroke:#181818;stroke-width:1.0;"/><polygon fill="#000000" points="134.5404,690.6313,141.8042,677.2601,132.5575,675.5442,134.5404,690.6313" style="stroke:#000000;stroke-width:1.0;"/><text fill="#000000" font-family="sans-serif" font-size="20" lengthAdjust="spacing" textLength="86" x="149" y="690.3242">manages</text><text fill="#000000" font-family="sans-serif" font-size="20" lengthAdjust="spacing" textLength="13" x="130.3197" y="658.3355">1</text><text fill="#000000" font-family="sans-serif" font-size="20" lengthAdjust="spacing" textLength="13" x="115.3045" y="721.3981">1</text></g><!--link Agent to Client--><g id="link_Agent_Client"><path codeLine="75" d="M626.28,949.5483 C610.48,967.9583 589.02,996.8183 580,1026.4883 C574.54,1044.4383 576.17,1065.9283 578.65,1081.2883 " fill="none" id="Agent-Client" style="stroke:#181818;stroke-width:1.0;"/><polygon fill="#000000" points="590.72,1031.7422,581.3773,1043.7534,590.2216,1046.951,590.72,1031.7422" style="stroke:#000000;stroke-width:1.0;"/><text fill="#000000" font-family="sans-serif" font-size="20" lengthAdjust="spacing" textLength="79" x="601" y="1046.8242">contacts</text><text fill="#000000" font-family="sans-serif" font-size="20" lengthAdjust="spacing" textLength="13" x="607.4479" y="976.5293">1</text><text fill="#000000" font-family="sans-serif" font-size="20" lengthAdjust="spacing" textLength="10" x="566.2541" y="1069.373">*</text></g><!--link Agent to Owner--><g id="link_Agent_Owner"><path codeLine="76" d="M613.88,944.5283 C561.4,970.0283 460.43,1019.6283 455,1026.4883 C426.68,1062.3183 413.19,1111.0683 406.89,1153.3483 " fill="none" id="Agent-Owner" style="stroke:#181818;stroke-width:1.0;"/><polygon fill="#000000" points="468.6319,1033.5839,455.1041,1040.5519,461.7833,1047.1726,468.6319,1033.5839" style="stroke:#000000;stroke-width:1.0;"/><text fill="#000000" font-family="sans-serif" font-size="20" lengthAdjust="spacing" textLength="92" x="476" y="1046.8242">gives info</text><text fill="#000000" font-family="sans-serif" font-size="20" lengthAdjust="spacing" textLength="13" x="593.1209" y="941.9037">1</text><text fill="#000000" font-family="sans-serif" font-size="20" lengthAdjust="spacing" textLength="10" x="396.8809" y="1141.1708">*</text></g><!--link Owner to Property--><g id="link_Owner_Property"><path codeLine="77" d="M389.68,1336.5683 C386.21,1389.2583 388.36,1455.8383 411,1510.4883 C429.39,1554.8783 463.76,1595.0383 496.9,1626.3583 " fill="none" id="Owner-Property" style="stroke:#181818;stroke-width:1.0;"/><polygon fill="#000000" points="421.776,1505.7685,421.1643,1490.5639,412.3441,1493.8273,421.776,1505.7685" style="stroke:#000000;stroke-width:1.0;"/><text fill="#000000" font-family="sans-serif" font-size="20" lengthAdjust="spacing" textLength="49" x="432" y="1505.8242">owns</text><text fill="#000000" font-family="sans-serif" font-size="20" lengthAdjust="spacing" textLength="13" x="375.2391" y="1363.822">1</text><text fill="#000000" font-family="sans-serif" font-size="20" lengthAdjust="spacing" textLength="13" x="473.8812" y="1614.0274">1</text></g><!--link Property to Agent--><g id="link_Property_Agent"><path codeLine="78" d="M678.34,1686.8883 C763.74,1675.1783 875,1642.8683 875,1553.9883 C875,1101.4883 875,1101.4883 875,1101.4883 C875,1003.2583 738.8,954.3583 676.02,937.0283 " fill="none" id="Property-Agent" style="stroke:#181818;stroke-width:1.0;"/><polygon fill="#000000" points="883.0248,1419.2656,887.6822,1404.779,878.2777,1404.8081,883.0248,1419.2656" style="stroke:#000000;stroke-width:1.0;"/><text fill="#000000" font-family="sans-serif" font-size="20" lengthAdjust="spacing" textLength="145" x="896" y="1418.8242">responsible for</text><text fill="#000000" font-family="sans-serif" font-size="20" lengthAdjust="spacing" textLength="10" x="686.0988" y="1681.7918">*</text><text fill="#000000" font-family="sans-serif" font-size="20" lengthAdjust="spacing" textLength="13" x="684.2275" y="932.8261">1</text></g><!--link Advertisement to Property--><g id="link_Advertisement_Property"><path codeLine="79" d="M648.74,1455.6683 C635.94,1501.2983 615.68,1573.4783 600.84,1626.3583 " fill="none" id="Advertisement-Property" style="stroke:#181818;stroke-width:1.0;"/><polygon fill="#000000" points="630.8385,1560.9681,639.2761,1548.3047,630.2213,1545.7637,630.8385,1560.9681" style="stroke:#000000;stroke-width:1.0;"/><text fill="#000000" font-family="sans-serif" font-size="20" lengthAdjust="spacing" textLength="92" x="646" y="1560.8242">describes</text><text fill="#000000" font-family="sans-serif" font-size="20" lengthAdjust="spacing" textLength="13" x="633.2191" y="1482.6132">1</text><text fill="#000000" font-family="sans-serif" font-size="20" lengthAdjust="spacing" textLength="13" x="589.1897" y="1614.0274">1</text></g><!--link Agent to Advertisement--><g id="link_Agent_Advertisement"><path codeLine="80" d="M656.01,949.5683 C665.83,968.6883 679.48,998.6083 685,1026.4883 C711.77,1161.6383 706.65,1200.4183 685,1336.4883 C683.44,1346.2983 680.77,1356.5783 677.78,1366.2383 " fill="none" id="Agent-Advertisement" style="stroke:#181818;stroke-width:1.0;"/><polygon fill="#000000" points="708.4174,1110.7547,712.3582,1096.057,702.9664,1096.5477,708.4174,1110.7547" style="stroke:#000000;stroke-width:1.0;"/><text fill="#000000" font-family="sans-serif" font-size="20" lengthAdjust="spacing" textLength="93" x="721" y="1110.3242">publishes</text><text fill="#000000" font-family="sans-serif" font-size="20" lengthAdjust="spacing" textLength="13" x="644.0529" y="976.554">1</text><text fill="#000000" font-family="sans-serif" font-size="20" lengthAdjust="spacing" textLength="10" x="669.5102" y="1354.3779">*</text></g><!--link Property to ApartmentHouse--><g id="link_Property_ApartmentHouse"><path codeLine="81" d="M553.46,1762.6883 C542.04,1789.5883 528.9,1820.5283 517.48,1847.4183 " fill="none" id="Property-ApartmentHouse" style="stroke:#181818;stroke-width:1.0;"/><polygon fill="#000000" points="550.1269,1797.902,540.1421,1809.385,548.7985,1813.0608,550.1269,1797.902" style="stroke:#000000;stroke-width:1.0;"/><text fill="#000000" font-family="sans-serif" font-size="20" lengthAdjust="spacing" textLength="33" x="560" y="1812.8242">is a</text><text fill="#000000" font-family="sans-serif" font-size="20" lengthAdjust="spacing" textLength="13" x="537.1203" y="1789.6579">1</text><text fill="#000000" font-family="sans-serif" font-size="20" lengthAdjust="spacing" textLength="10" x="510.0481" y="1835.094">*</text></g><!--link ApartmentHouse to Apartment--><g id="link_ApartmentHouse_Apartment"><path codeLine="82" d="M452.64,1983.6983 C430.15,2025.2483 402.83,2075.7383 387.96,2103.2383 " fill="none" id="ApartmentHouse-Apartment" style="stroke:#181818;stroke-width:1.0;"/><polygon fill="#000000" points="448.807,2019.2295,437.7843,2029.7202,446.0557,2034.1957,448.807,2019.2295" style="stroke:#000000;stroke-width:1.0;"/><text fill="#000000" font-family="sans-serif" font-size="20" lengthAdjust="spacing" textLength="33" x="458" y="2033.8242">is a</text><text fill="#000000" font-family="sans-serif" font-size="20" lengthAdjust="spacing" textLength="13" x="435.5549" y="2010.6688">1</text><text fill="#000000" font-family="sans-serif" font-size="20" lengthAdjust="spacing" textLength="13" x="376.1029" y="2091.3102">1</text></g><!--link Property to Land--><g id="link_Property_Land"><path codeLine="83" d="M610.54,1762.6883 C629.76,1807.9483 653.82,1864.6083 666.41,1894.2583 " fill="none" id="Property-Land" style="stroke:#181818;stroke-width:1.0;"/><polygon fill="#000000" points="636.8731,1797.902,638.2015,1813.0608,646.8579,1809.385,636.8731,1797.902" style="stroke:#000000;stroke-width:1.0;"/><text fill="#000000" font-family="sans-serif" font-size="20" lengthAdjust="spacing" textLength="33" x="653" y="1812.8242">is a</text><text fill="#000000" font-family="sans-serif" font-size="20" lengthAdjust="spacing" textLength="13" x="599.6407" y="1789.6579">1</text><text fill="#000000" font-family="sans-serif" font-size="20" lengthAdjust="spacing" textLength="10" x="652.9276" y="1882.3353">*</text></g><!--link ApartmentHouse to House--><g id="link_ApartmentHouse_House"><path codeLine="84" d="M525.36,1983.6983 C540.18,2011.0883 557.1,2042.3583 571.17,2068.3683 " fill="none" id="ApartmentHouse-House" style="stroke:#181818;stroke-width:1.0;"/><polygon fill="#000000" points="556.1931,2019.2294,558.9441,2034.1956,567.2156,2029.7204,556.1931,2019.2294" style="stroke:#000000;stroke-width:1.0;"/><text fill="#000000" font-family="sans-serif" font-size="20" lengthAdjust="spacing" textLength="33" x="573" y="2033.8242">is a</text><text fill="#000000" font-family="sans-serif" font-size="20" lengthAdjust="spacing" textLength="13" x="515.206" y="2010.6688">1</text><text fill="#000000" font-family="sans-serif" font-size="20" lengthAdjust="spacing" textLength="13" x="553.5152" y="2056.0619">1</text></g><!--link Client to Advertisement--><g id="link_Client_Advertisement"><path codeLine="85" d="M577.37,1123.6183 C566.8,1165.4283 547.81,1263.8083 580,1336.4883 C584.84,1347.4283 592.21,1357.4283 600.56,1366.2983 " fill="none" id="Client-Advertisement" style="stroke:#181818;stroke-width:1.0;"/><polygon fill="#000000" points="588.761,1253.2293,592.0653,1238.3755,582.7034,1239.2701,588.761,1253.2293" style="stroke:#000000;stroke-width:1.0;"/><text fill="#000000" font-family="sans-serif" font-size="20" lengthAdjust="spacing" textLength="79" x="601" y="1252.8242">consults</text><text fill="#000000" font-family="sans-serif" font-size="20" lengthAdjust="spacing" textLength="13" x="577.5603" y="1150.2014">1</text><text fill="#000000" font-family="sans-serif" font-size="20" lengthAdjust="spacing" textLength="13" x="577.3098" y="1354.0983">1</text></g><!--link Client to Property--><g id="link_Client_Property"><path codeLine="86" d="M568.47,1123.8783 C563.12,1132.5683 557.71,1143.0883 555,1153.4883 C514.94,1307.0183 543.39,1352.2483 555,1510.4883 C557.83,1549.0783 563.98,1591.8883 569.69,1626.3883 " fill="none" id="Client-Property" style="stroke:#181818;stroke-width:1.0;"/><polygon fill="#000000" points="563.0194,1506.2656,567.6866,1491.7821,558.282,1491.8049,563.0194,1506.2656" style="stroke:#000000;stroke-width:1.0;"/><text fill="#000000" font-family="sans-serif" font-size="20" lengthAdjust="spacing" textLength="49" x="576" y="1505.8242">visits</text><text fill="#000000" font-family="sans-serif" font-size="20" lengthAdjust="spacing" textLength="13" x="550.8697" y="1150.5183">1</text><text fill="#000000" font-family="sans-serif" font-size="20" lengthAdjust="spacing" textLength="13" x="554.6327" y="1614.0607">1</text></g><!--SRC=[hPNRRjim38RlzHH2RWeKQB7kqXWAP5c63UW9wrw0iMYRg2nvafmsBVRkenGVampTnUvivYF_dnBf-2So3JYejSsVK4c51RGwVBKcFD8hoeyVn9dl6Qd9ODWrAAqBbHLd6eiWWvMEoYf8HGxpGDQ8YXJAd5okSVzS8_FA2n4eQ9HVR0ravArLg4MkmNjvxqemz0en_qqOg57yxdvw3DRX7OPdwvxaMnzTrussEqJPqJa5DcnMuDHTMs_GYG0ltHCevT1xWIohbzrBG8rDPGrsq22tym7hfQh9a0yEM7rKJLvOKg6dqYItWezk__1FvRj6Ri50YPFADrn57qMN9PemllwmV7h3s_spYUn_xd-bYJL71sgBBf37EZaHZQCSnK-UWllYS-jv8hXM3pyusp2zOmuSmdWqYeyIJ8uh2hiL5t8eM3lOqa5JZVbBdhDGp-Jxo3VR-dJPoIrhetBMrduCGAZcaGTmFBhbOmCvUW5RRXus6jU_McfYoK7s1emQ59FGcy0NjeniELRUTp-DVJSLR2Z4UZUs2CAtPltIMD-wEBZJQLvSBUJ5XLnSNLwUBuQfpMIS0YyBdgvFf_d5RF0pMO6Nrs8QxD7pFJemlSfOAWvE9bE3L10lEg_VCTVLoMJ4IiCOB_UrYCaJLyVxCQcSB1uJHmeEotYMxbs-zpXFcLkQxzI1cobwlfYksL_1FPfsxu2PfXzSL2Rh58_OtD3f6vtoIMeqkLz1bkRFCEJ1yuGS46drCrdIblF953OEKOoDMlqkPj8-coZI1pWzzPYehad-8ZJMUE9nxaPojlUdgl8dC7UqEUL_bfl9fjreyXLEJSYHFjpnJ9AN42tCugE78JwGGslZFVDAlrielGxK_jGdClCk-38y_pN69Wx9yL2sv2aXGlm1]--></g></svg>