<?xml version="1.0" encoding="UTF-8" standalone="no"?><svg xmlns="http://www.w3.org/2000/svg" xmlns:xlink="http://www.w3.org/1999/xlink" contentStyleType="text/css" height="711px" preserveAspectRatio="none" style="width:995px;height:711px;background:#FFFFFF;" version="1.1" viewBox="0 0 995 711" width="995px" zoomAndPan="magnify"><defs/><g><!--class Person--><g id="elem_Person"><rect codeLine="10" fill="#F1F1F1" height="112.2188" id="Person" rx="2.5" ry="2.5" style="stroke:#181818;stroke-width:0.5;" width="185" x="7" y="7"/><text fill="#000000" font-family="sans-serif" font-size="20" lengthAdjust="spacing" textLength="64" x="67.5" y="31.3359">Person</text><line style="stroke:#181818;stroke-width:0.5;" x1="8" x2="191" y1="40.5547" y2="40.5547"/><text fill="#000000" font-family="sans-serif" font-size="20" lengthAdjust="spacing" textLength="53" x="13" y="63.8906">name</text><text fill="#000000" font-family="sans-serif" font-size="20" lengthAdjust="spacing" textLength="132" x="13" y="87.4453">emailAddress</text><text fill="#000000" font-family="sans-serif" font-size="20" lengthAdjust="spacing" textLength="173" x="13" y="111">telephoneNumber</text></g><!--class Client--><g id="elem_Client"><rect codeLine="16" fill="#F1F1F1" height="41.5547" id="Client" rx="2.5" ry="2.5" style="stroke:#181818;stroke-width:0.5;" width="62" x="46.5" y="244.5"/><text fill="#000000" font-family="sans-serif" font-size="20" lengthAdjust="spacing" textLength="56" x="49.5" y="268.8359">Client</text><line style="stroke:#181818;stroke-width:0.5;" x1="47.5" x2="107.5" y1="278.0547" y2="278.0547"/></g><!--class Owner--><g id="elem_Owner"><rect codeLine="18" fill="#F1F1F1" height="41.5547" id="Owner" rx="2.5" ry="2.5" style="stroke:#181818;stroke-width:0.5;" width="68" x="13.5" y="430"/><text fill="#000000" font-family="sans-serif" font-size="20" lengthAdjust="spacing" textLength="62" x="16.5" y="454.3359">Owner</text><line style="stroke:#181818;stroke-width:0.5;" x1="14.5" x2="80.5" y1="463.5547" y2="463.5547"/></g><!--class AdvertisementRequest--><g id="elem_AdvertisementRequest"><rect codeLine="20" fill="#F1F1F1" height="88.6641" id="AdvertisementRequest" rx="2.5" ry="2.5" style="stroke:#181818;stroke-width:0.5;" width="222" x="220.5" y="406.5"/><text fill="#000000" font-family="sans-serif" font-size="20" lengthAdjust="spacing" textLength="216" x="223.5" y="430.8359">AdvertisementRequest</text><line style="stroke:#181818;stroke-width:0.5;" x1="221.5" x2="441.5" y1="440.0547" y2="440.0547"/><text fill="#000000" font-family="sans-serif" font-size="20" lengthAdjust="spacing" textLength="48" x="226.5" y="463.3906">price</text><text fill="#000000" font-family="sans-serif" font-size="20" lengthAdjust="spacing" textLength="142" x="226.5" y="486.9453">dateOfRequest</text></g><!--class Advertisement--><g id="elem_Advertisement"><rect codeLine="24" fill="#F1F1F1" height="65.1094" id="Advertisement" rx="2.5" ry="2.5" style="stroke:#181818;stroke-width:0.5;" width="216" x="221.5" y="615.5"/><text fill="#000000" font-family="sans-serif" font-size="20" lengthAdjust="spacing" textLength="139" x="260" y="639.8359">Advertisement</text><line style="stroke:#181818;stroke-width:0.5;" x1="222.5" x2="436.5" y1="649.0547" y2="649.0547"/><text fill="#000000" font-family="sans-serif" font-size="20" lengthAdjust="spacing" textLength="204" x="227.5" y="672.3906">dateOfAdvertisement</text></g><!--class Agent--><g id="elem_Agent"><rect codeLine="28" fill="#F1F1F1" height="41.5547" id="Agent" rx="2.5" ry="2.5" style="stroke:#181818;stroke-width:0.5;" width="62" x="297.5" y="149"/><text fill="#000000" font-family="sans-serif" font-size="20" lengthAdjust="spacing" textLength="56" x="300.5" y="173.3359">Agent</text><line style="stroke:#181818;stroke-width:0.5;" x1="298.5" x2="358.5" y1="182.5547" y2="182.5547"/></g><!--class Property--><g id="elem_Property"><rect codeLine="30" fill="#F1F1F1" height="88.6641" id="Property" rx="2.5" ry="2.5" style="stroke:#181818;stroke-width:0.5;" width="192" x="494.5" y="221"/><text fill="#000000" font-family="sans-serif" font-size="20" lengthAdjust="spacing" textLength="80" x="550.5" y="245.3359">Property</text><line style="stroke:#181818;stroke-width:0.5;" x1="495.5" x2="685.5" y1="254.5547" y2="254.5547"/><text fill="#000000" font-family="sans-serif" font-size="20" lengthAdjust="spacing" textLength="41" x="500.5" y="277.8906">area</text><text fill="#000000" font-family="sans-serif" font-size="20" lengthAdjust="spacing" textLength="180" x="500.5" y="301.4453">distanceCityCentre</text></g><!--class TypeOfProperty--><g id="elem_TypeOfProperty"><rect codeLine="35" fill="#F1F1F1" height="65.1094" id="TypeOfProperty" rx="2.5" ry="2.5" style="stroke:#181818;stroke-width:0.5;" width="156" x="512.5" y="30.5"/><text fill="#000000" font-family="sans-serif" font-size="20" lengthAdjust="spacing" textLength="150" x="515.5" y="54.8359">TypeOfProperty</text><line style="stroke:#181818;stroke-width:0.5;" x1="513.5" x2="667.5" y1="64.0547" y2="64.0547"/><text fill="#000000" font-family="sans-serif" font-size="20" lengthAdjust="spacing" textLength="112" x="518.5" y="87.3906">designation</text></g><!--class Photograph--><g id="elem_Photograph"><rect codeLine="39" fill="#F1F1F1" height="65.1094" id="Photograph" rx="2.5" ry="2.5" style="stroke:#181818;stroke-width:0.5;" width="116" x="837.5" y="233"/><text fill="#000000" font-family="sans-serif" font-size="20" lengthAdjust="spacing" textLength="110" x="840.5" y="257.3359">Photograph</text><line style="stroke:#181818;stroke-width:0.5;" x1="838.5" x2="952.5" y1="266.5547" y2="266.5547"/><text fill="#000000" font-family="sans-serif" font-size="20" lengthAdjust="spacing" textLength="69" x="843.5" y="289.8906">linkURI</text></g><!--class Residence--><g id="elem_Residence"><rect codeLine="43" fill="#F1F1F1" height="112.2188" id="Residence" rx="2.5" ry="2.5" style="stroke:#181818;stroke-width:0.5;" width="248" x="479.5" y="395"/><text fill="#000000" font-family="sans-serif" font-size="20" lengthAdjust="spacing" textLength="97" x="555" y="419.3359">Residence</text><line style="stroke:#181818;stroke-width:0.5;" x1="480.5" x2="726.5" y1="428.5547" y2="428.5547"/><text fill="#000000" font-family="sans-serif" font-size="20" lengthAdjust="spacing" textLength="195" x="485.5" y="451.8906">numberOfBedrooms</text><text fill="#000000" font-family="sans-serif" font-size="20" lengthAdjust="spacing" textLength="201" x="485.5" y="475.4453">numberOfBathrooms</text><text fill="#000000" font-family="sans-serif" font-size="20" lengthAdjust="spacing" textLength="236" x="485.5" y="499">numberOfParkingSpaces</text></g><!--class House--><g id="elem_House"><rect codeLine="49" fill="#F1F1F1" height="112.2188" id="House" rx="2.5" ry="2.5" style="stroke:#181818;stroke-width:0.5;" width="270" x="472.5" y="592"/><text fill="#000000" font-family="sans-serif" font-size="20" lengthAdjust="spacing" textLength="60" x="577.5" y="616.3359">House</text><line style="stroke:#181818;stroke-width:0.5;" x1="473.5" x2="741.5" y1="625.5547" y2="625.5547"/><text fill="#000000" font-family="sans-serif" font-size="20" lengthAdjust="spacing" textLength="206" x="478.5" y="648.8906">existenceOfBasement</text><text fill="#000000" font-family="sans-serif" font-size="20" lengthAdjust="spacing" textLength="258" x="478.5" y="672.4453">existenceOfInhabitableLoft</text><text fill="#000000" font-family="sans-serif" font-size="20" lengthAdjust="spacing" textLength="123" x="478.5" y="696">sunExposure</text></g><!--class Equipment--><g id="elem_Equipment"><rect codeLine="55" fill="#F1F1F1" height="65.1094" id="Equipment" rx="2.5" ry="2.5" style="stroke:#181818;stroke-width:0.5;" width="124" x="864.5" y="418.5"/><text fill="#000000" font-family="sans-serif" font-size="20" lengthAdjust="spacing" textLength="104" x="874.5" y="442.8359">Equipment</text><line style="stroke:#181818;stroke-width:0.5;" x1="865.5" x2="987.5" y1="452.0547" y2="452.0547"/><text fill="#000000" font-family="sans-serif" font-size="20" lengthAdjust="spacing" textLength="112" x="870.5" y="475.3906">designation</text></g><!--class Role--><g id="elem_Role"><rect codeLine="59" fill="#F1F1F1" height="65.1094" id="Role" rx="2.5" ry="2.5" style="stroke:#181818;stroke-width:0.5;" width="124" x="239.5" y="30.5"/><text fill="#000000" font-family="sans-serif" font-size="20" lengthAdjust="spacing" textLength="42" x="280.5" y="54.8359">Role</text><line style="stroke:#181818;stroke-width:0.5;" x1="240.5" x2="362.5" y1="64.0547" y2="64.0547"/><text fill="#000000" font-family="sans-serif" font-size="20" lengthAdjust="spacing" textLength="112" x="245.5" y="87.3906">designation</text></g><!--class Employee--><g id="elem_Employee"><rect fill="#F1F1F1" height="41.5547" id="Employee" rx="2.5" ry="2.5" style="stroke:#181818;stroke-width:0.5;" width="99" x="149" y="244.5"/><text fill="#000000" font-family="sans-serif" font-size="20" lengthAdjust="spacing" textLength="93" x="152" y="268.8359">Employee</text><line style="stroke:#181818;stroke-width:0.5;" x1="150" x2="247" y1="278.0547" y2="278.0547"/></g><!--reverse link Person to Client--><g id="link_Person_Client"><path codeLine="63" d="M91.26,139.06 C87.12,176.79 82.42,219.62 79.73,244.2 " fill="none" id="Person-backto-Client" style="stroke:#181818;stroke-width:1.0;"/><polygon fill="none" points="84.32,138.17,93.46,119.05,98.24,139.7,84.32,138.17" style="stroke:#181818;stroke-width:1.0;"/></g><!--reverse link Client to Owner--><g id="link_Client_Owner"><path codeLine="64" d="M70.94,306.64 C64.71,344.7 55.62,400.33 50.79,429.85 " fill="none" id="Client-backto-Owner" style="stroke:#181818;stroke-width:1.0;"/><polygon fill="none" points="64.04,305.45,74.17,286.84,77.86,307.71,64.04,305.45" style="stroke:#181818;stroke-width:1.0;"/></g><!--link Owner to AdvertisementRequest--><g id="link_Owner_AdvertisementRequest"><path codeLine="65" d="M81.76,451 C116.13,451 170.94,451 220.47,451 " fill="none" id="Owner-AdvertisementRequest" style="stroke:#181818;stroke-width:1.0;"/><polygon fill="#000000" points="115,435.7773,100.5279,431.0751,100.5279,440.4796,115,435.7773" style="stroke:#000000;stroke-width:1.0;"/><text fill="#000000" font-family="sans-serif" font-size="20" lengthAdjust="spacing" textLength="82" x="120" y="443.3359">requests</text><text fill="#000000" font-family="sans-serif" font-size="20" lengthAdjust="spacing" textLength="13" x="89.5299" y="445.2391">1</text><text fill="#000000" font-family="sans-serif" font-size="20" lengthAdjust="spacing" textLength="10" x="202.6742" y="446.5932">*</text></g><!--link AdvertisementRequest to Advertisement--><g id="link_AdvertisementRequest_Advertisement"><path codeLine="66" d="M331.05,495.76 C330.68,532.03 330.16,582.73 329.83,615.22 " fill="none" id="AdvertisementRequest-Advertisement" style="stroke:#181818;stroke-width:1.0;"/><polygon fill="#000000" points="338.5817,541.7778,333.7319,556.2011,343.1359,556.2972,338.5817,541.7778" style="stroke:#000000;stroke-width:1.0;"/><text fill="#000000" font-family="sans-serif" font-size="20" lengthAdjust="spacing" textLength="121" x="351.5" y="557.3359">derives from</text><text fill="#000000" font-family="sans-serif" font-size="20" lengthAdjust="spacing" textLength="13" x="317.1595" y="522.3613">1</text><text fill="#000000" font-family="sans-serif" font-size="20" lengthAdjust="spacing" textLength="13" x="315.6538" y="603.1575">1</text></g><!--link Property to AdvertisementRequest--><g id="link_Property_AdvertisementRequest"><path codeLine="67" d="M518.62,310.1 C503.53,319.68 487.85,329.97 473.5,340 C443.59,360.9 411.36,385.67 385.18,406.41 " fill="none" id="Property-AdvertisementRequest" style="stroke:#181818;stroke-width:1.0;"/><polygon fill="#000000" points="487.9869,348.0954,473.5,352.7522,479.0039,360.378,487.9869,348.0954" style="stroke:#000000;stroke-width:1.0;"/><text fill="#000000" font-family="sans-serif" font-size="20" lengthAdjust="spacing" textLength="92" x="494.5" y="360.3359">describes</text><text fill="#000000" font-family="sans-serif" font-size="20" lengthAdjust="spacing" textLength="13" x="495.0877" y="337.0342">1</text><text fill="#000000" font-family="sans-serif" font-size="20" lengthAdjust="spacing" textLength="13" x="379.4044" y="394.2253">1</text></g><!--reverse link Property to Residence--><g id="link_Property_Residence"><path codeLine="68" d="M595.04,330.54 C596.52,351.52 598.16,374.64 599.6,394.9 " fill="none" id="Property-backto-Residence" style="stroke:#181818;stroke-width:1.0;"/><polygon fill="none" points="588.04,330.9,593.61,310.45,602.01,329.91,588.04,330.9" style="stroke:#181818;stroke-width:1.0;"/></g><!--reverse link Residence to House--><g id="link_Residence_House"><path codeLine="69" d="M605.05,527.42 C605.49,548.83 605.96,571.73 606.37,591.7 " fill="none" id="Residence-backto-House" style="stroke:#181818;stroke-width:1.0;"/><polygon fill="none" points="598.04,527.24,604.63,507.1,612.04,526.95,598.04,527.24" style="stroke:#181818;stroke-width:1.0;"/></g><!--link Residence to Equipment--><g id="link_Residence_Equipment"><path codeLine="70" d="M727.92,451 C774.66,451 825.78,451 864.44,451 " fill="none" id="Residence-Equipment" style="stroke:#181818;stroke-width:1.0;"/><polygon fill="#000000" points="761,435.7773,746.5279,431.0751,746.5279,440.4796,761,435.7773" style="stroke:#000000;stroke-width:1.0;"/><text fill="#000000" font-family="sans-serif" font-size="20" lengthAdjust="spacing" textLength="80" x="766" y="443.3359">contains</text><text fill="#000000" font-family="sans-serif" font-size="20" lengthAdjust="spacing" textLength="13" x="735.4888" y="446.6808">1</text><text fill="#000000" font-family="sans-serif" font-size="20" lengthAdjust="spacing" textLength="10" x="846.6862" y="446.032">*</text></g><!--link Property to Photograph--><g id="link_Property_Photograph"><path codeLine="71" d="M686.59,265.5 C736,265.5 794.62,265.5 837.16,265.5 " fill="none" id="Property-Photograph" style="stroke:#181818;stroke-width:1.0;"/><polygon fill="#000000" points="704,250.2773,718.4721,254.9796,718.4721,245.5751,704,250.2773" style="stroke:#000000;stroke-width:1.0;"/><text fill="#000000" font-family="sans-serif" font-size="20" lengthAdjust="spacing" textLength="94" x="725" y="257.8359">illustrates</text><text fill="#000000" font-family="sans-serif" font-size="20" lengthAdjust="spacing" textLength="13" x="694.4445" y="260.9896">1</text><text fill="#000000" font-family="sans-serif" font-size="20" lengthAdjust="spacing" textLength="51" x="778.431" y="285.9166">1..30</text></g><!--link TypeOfProperty to Property--><g id="link_TypeOfProperty_Property"><path codeLine="72" d="M590.5,95.77 C590.5,129.56 590.5,183.23 590.5,220.95 " fill="none" id="TypeOfProperty-Property" style="stroke:#181818;stroke-width:1.0;"/><polygon fill="#000000" points="598.5,162.2773,593.7977,176.7495,603.2023,176.7495,598.5,162.2773" style="stroke:#000000;stroke-width:1.0;"/><text fill="#000000" font-family="sans-serif" font-size="20" lengthAdjust="spacing" textLength="158" x="611.5" y="177.8359">characterized by</text><text fill="#000000" font-family="sans-serif" font-size="20" lengthAdjust="spacing" textLength="13" x="576.3422" y="123.0312">1</text><text fill="#000000" font-family="sans-serif" font-size="20" lengthAdjust="spacing" textLength="10" x="579.7344" y="208.7715">*</text></g><!--link Agent to AdvertisementRequest--><g id="link_Agent_AdvertisementRequest"><path codeLine="73" d="M328.72,191.06 C329.2,235.92 330.37,345.18 331.03,406.47 " fill="none" id="Agent-AdvertisementRequest" style="stroke:#181818;stroke-width:1.0;"/><polygon fill="#000000" points="337.5858,273.7769,342.1326,259.2552,332.7286,259.356,337.5858,273.7769" style="stroke:#000000;stroke-width:1.0;"/><text fill="#000000" font-family="sans-serif" font-size="20" lengthAdjust="spacing" textLength="85" x="350.5" y="273.3359">validates</text><text fill="#000000" font-family="sans-serif" font-size="20" lengthAdjust="spacing" textLength="13" x="314.2678" y="218.0411">1</text><text fill="#000000" font-family="sans-serif" font-size="20" lengthAdjust="spacing" textLength="10" x="320.1924" y="394.2945">*</text></g><!--link Role to Employee--><g id="link_Role_Employee"><path codeLine="74" d="M239.33,95.04 C218.99,108.6 198.74,126.6 187.5,149 C172.23,179.43 181.92,220.02 190.26,244.09 " fill="none" id="Role-Employee" style="stroke:#181818;stroke-width:1.0;"/><polygon fill="#000000" points="192.9983,177.8761,201.9903,165.6002,193.0574,162.6593,192.9983,177.8761" style="stroke:#000000;stroke-width:1.0;"/><text fill="#000000" font-family="sans-serif" font-size="20" lengthAdjust="spacing" textLength="70" x="208.5" y="177.8359">defines</text><text fill="#000000" font-family="sans-serif" font-size="20" lengthAdjust="spacing" textLength="13" x="218.39" y="93.7766">1</text><text fill="#000000" font-family="sans-serif" font-size="20" lengthAdjust="spacing" textLength="10" x="176.8672" y="232.1209">*</text></g><!--reverse link Role to Agent--><g id="link_Role_Agent"><path codeLine="75" d="M314.64,115.1 C317.71,127.06 320.81,139.11 323.3,148.78 " fill="none" id="Role-backto-Agent" style="stroke:#181818;stroke-width:1.0;"/><polygon fill="none" points="307.8,116.62,309.6,95.5,321.36,113.13,307.8,116.62" style="stroke:#181818;stroke-width:1.0;"/></g><!--reverse link Person to Employee--><g id="link_Person_Employee"><path codeLine="76" d="M131.04,137.53 C139.02,155.2 147.8,173.9 156.5,191 C165.83,209.34 177.51,229.6 186.19,244.2 " fill="none" id="Person-backto-Employee" style="stroke:#181818;stroke-width:1.0;"/><polygon fill="none" points="124.64,140.37,122.9,119.25,137.43,134.67,124.64,140.37" style="stroke:#181818;stroke-width:1.0;"/></g><!--SRC=[TLJRZjem47ttLrWyLc85xHjQLQ9ego9L1K7x0SQU91QEdVLCsCtI_did2S5XIv_0C-VCxSm4ZzPNAghI1Nq48mragdRqDNZQspUG7sS21uWiWm-wYA44IR66aQTI-gXos5FZG4RGf7pknW0ib0alrkSoKmv1Z5pQASGbKRI7cc2jW-yopuGeh06fRTGSgljV0XN1e10THsuXOl1duLK90afbtTAO28Y2m45L10y_wl80KVmPA2jdmTFv-jwyU8WolPVc194iGicm7JpNW2JFeefMWp2AO9DTh1pp3eMnFUh6cl8lymvqVMzZg1ZNC4z5KC9OvDbfM5bgLWoDaBW_cue33mnE16XphyW6dq3R8b38ewgAit3M7t_jricvOuO13i_fV3UPJVO5J0oXn6HGLDnQjYgoMlcULGPCqRw56k4iu9LhReEsr4k_8zlQ5-fWIHqSV0yP2QpzqsiLi1wtzlHSssgOtxssTi71lxv-0UJZx-bKNgGL_KzlwzGLzpITV9Z8wTJ9oNpIenQyjfq7vUDznhnbT8GRzu9l9jeJeCpuCfWy29G8zyArDDIyyu0ZZkphlkeaacATenjvClOfekHkqWGNaa-8bFKeFxyhXf7pXuTFiqdQaeMqpjL8aRTsN4a_eBfgwxzTF8vVyE5guhRV-9DnQ3ZF_sVSX-WNVo5FobbpITLgEWo96oWh5ng0TZ2PzT1MtwdUDXvx_etW0q68lm00]--></g></svg>