<?xml version="1.0" encoding="UTF-8" standalone="no"?><svg xmlns="http://www.w3.org/2000/svg" xmlns:xlink="http://www.w3.org/1999/xlink" contentStyleType="text/css" height="451px" preserveAspectRatio="none" style="width:966px;height:451px;background:#FFFFFF;" version="1.1" viewBox="0 0 966 451" width="966px" zoomAndPan="magnify"><defs/><g><!--class Agent--><g id="elem_Agent"><rect codeLine="11" fill="#F1F1F1" height="41.5547" id="Agent" rx="2.5" ry="2.5" style="stroke:#181818;stroke-width:0.5;" width="62" x="578" y="34.5"/><text fill="#000000" font-family="sans-serif" font-size="20" lengthAdjust="spacing" textLength="56" x="581" y="58.8359">Agent</text><line style="stroke:#181818;stroke-width:0.5;" x1="579" x2="639" y1="68.0547" y2="68.0547"/></g><!--class Owner--><g id="elem_Owner"><rect codeLine="13" fill="#F1F1F1" height="41.5547" id="Owner" rx="2.5" ry="2.5" style="stroke:#181818;stroke-width:0.5;" width="68" x="7" y="34.5"/><text fill="#000000" font-family="sans-serif" font-size="20" lengthAdjust="spacing" textLength="62" x="10" y="58.8359">Owner</text><line style="stroke:#181818;stroke-width:0.5;" x1="8" x2="74" y1="68.0547" y2="68.0547"/></g><!--class AdvertisementRequest--><g id="elem_AdvertisementRequest"><rect codeLine="15" fill="#F1F1F1" height="96.6641" id="AdvertisementRequest" rx="2.5" ry="2.5" style="stroke:#181818;stroke-width:0.5;" width="222" x="214" y="7"/><text fill="#000000" font-family="sans-serif" font-size="20" lengthAdjust="spacing" textLength="216" x="217" y="31.3359">AdvertisementRequest</text><line style="stroke:#181818;stroke-width:0.5;" x1="215" x2="435" y1="40.5547" y2="40.5547"/><text fill="#000000" font-family="sans-serif" font-size="20" lengthAdjust="spacing" textLength="48" x="220" y="63.8906">price</text><text fill="#000000" font-family="sans-serif" font-size="20" lengthAdjust="spacing" textLength="142" x="220" y="87.4453">dateOfRequest</text><line style="stroke:#181818;stroke-width:0.5;" x1="215" x2="435" y1="95.6641" y2="95.6641"/></g><!--class Advertisement--><g id="elem_Advertisement"><rect codeLine="20" fill="#F1F1F1" height="73.1094" id="Advertisement" rx="2.5" ry="2.5" style="stroke:#181818;stroke-width:0.5;" width="216" x="369" y="371"/><text fill="#000000" font-family="sans-serif" font-size="20" lengthAdjust="spacing" textLength="139" x="407.5" y="395.3359">Advertisement</text><line style="stroke:#181818;stroke-width:0.5;" x1="370" x2="584" y1="404.5547" y2="404.5547"/><text fill="#000000" font-family="sans-serif" font-size="20" lengthAdjust="spacing" textLength="204" x="375" y="427.8906">dateOfAdvertisement</text><line style="stroke:#181818;stroke-width:0.5;" x1="370" x2="584" y1="436.1094" y2="436.1094"/></g><!--class TypeOfCommission--><g id="elem_TypeOfCommission"><rect codeLine="26" fill="#F1F1F1" height="73.1094" id="TypeOfCommission" rx="2.5" ry="2.5" style="stroke:#181818;stroke-width:0.5;" width="196" x="683" y="371"/><text fill="#000000" font-family="sans-serif" font-size="20" lengthAdjust="spacing" textLength="190" x="686" y="395.3359">TypeOfCommission</text><line style="stroke:#181818;stroke-width:0.5;" x1="684" x2="878" y1="404.5547" y2="404.5547"/><text fill="#000000" font-family="sans-serif" font-size="20" lengthAdjust="spacing" textLength="112" x="689" y="427.8906">designation</text><line style="stroke:#181818;stroke-width:0.5;" x1="684" x2="878" y1="436.1094" y2="436.1094"/></g><!--class Commission--><g id="elem_Commission"><rect codeLine="30" fill="#F1F1F1" height="73.1094" id="Commission" rx="2.5" ry="2.5" style="stroke:#181818;stroke-width:0.5;" width="126" x="715" y="201"/><text fill="#000000" font-family="sans-serif" font-size="20" lengthAdjust="spacing" textLength="120" x="718" y="225.3359">Commission</text><line style="stroke:#181818;stroke-width:0.5;" x1="716" x2="840" y1="234.5547" y2="234.5547"/><text fill="#000000" font-family="sans-serif" font-size="20" lengthAdjust="spacing" textLength="50" x="721" y="257.8906">value</text><line style="stroke:#181818;stroke-width:0.5;" x1="716" x2="840" y1="266.1094" y2="266.1094"/></g><!--class Property--><g id="elem_Property"><rect codeLine="34" fill="#F1F1F1" height="96.6641" id="Property" rx="2.5" ry="2.5" style="stroke:#181818;stroke-width:0.5;" width="192" x="303" y="189"/><text fill="#000000" font-family="sans-serif" font-size="20" lengthAdjust="spacing" textLength="80" x="359" y="213.3359">Property</text><line style="stroke:#181818;stroke-width:0.5;" x1="304" x2="494" y1="222.5547" y2="222.5547"/><text fill="#000000" font-family="sans-serif" font-size="20" lengthAdjust="spacing" textLength="41" x="309" y="245.8906">area</text><text fill="#000000" font-family="sans-serif" font-size="20" lengthAdjust="spacing" textLength="180" x="309" y="269.4453">distanceCityCentre</text><line style="stroke:#181818;stroke-width:0.5;" x1="304" x2="494" y1="277.6641" y2="277.6641"/></g><!--link Agent to Advertisement--><g id="link_Agent_Advertisement"><path codeLine="39" d="M604.36,76.51 C589.34,141.26 543,341 543,341 C543,341 528.5,355.39 513.09,370.68 " fill="none" id="Agent-Advertisement" style="stroke:#181818;stroke-width:1.0;"/><polygon fill="#000000" points="583.6294,245.418,592.409,232.9893,583.4268,230.2025,583.6294,245.418" style="stroke:#000000;stroke-width:1.0;"/><text fill="#000000" font-family="sans-serif" font-size="20" lengthAdjust="spacing" textLength="93" x="599" y="245.3359">publishes</text><text fill="#000000" font-family="sans-serif" font-size="20" lengthAdjust="spacing" textLength="13" x="588.7839" y="103.4795">1</text><text fill="#000000" font-family="sans-serif" font-size="20" lengthAdjust="spacing" textLength="10" x="508.4336" y="358.7492">*</text></g><!--link Agent to Commission--><g id="link_Agent_Commission"><path codeLine="40" d="M628.06,76.8 C656.29,106.86 709.62,163.67 744.47,200.79 " fill="none" id="Agent-Commission" style="stroke:#181818;stroke-width:1.0;"/><polygon fill="#000000" points="716.4758,152.6097,709.9982,138.8403,703.1419,145.2775,716.4758,152.6097" style="stroke:#000000;stroke-width:1.0;"/><text fill="#000000" font-family="sans-serif" font-size="20" lengthAdjust="spacing" textLength="38" x="724" y="154.3359">sets</text><text fill="#000000" font-family="sans-serif" font-size="20" lengthAdjust="spacing" textLength="13" x="617.8075" y="103.4203">1</text><text fill="#000000" font-family="sans-serif" font-size="20" lengthAdjust="spacing" textLength="10" x="727.8477" y="188.8781">*</text></g><!--link Commission to TypeOfCommission--><g id="link_Commission_TypeOfCommission"><path codeLine="42" d="M778.64,274.13 C779.15,302.64 779.86,342.43 780.36,370.92 " fill="none" id="Commission-TypeOfCommission" style="stroke:#181818;stroke-width:1.0;"/><polygon fill="#000000" points="787.1421,336.7761,791.5865,322.2227,782.1835,322.3898,787.1421,336.7761" style="stroke:#000000;stroke-width:1.0;"/><text fill="#000000" font-family="sans-serif" font-size="20" lengthAdjust="spacing" textLength="158" x="800" y="336.3359">characterized by</text><text fill="#000000" font-family="sans-serif" font-size="20" lengthAdjust="spacing" textLength="10" x="767.9179" y="301.4743">*</text><text fill="#000000" font-family="sans-serif" font-size="20" lengthAdjust="spacing" textLength="13" x="766.0882" y="358.7313">1</text></g><!--link Commission to Advertisement--><g id="link_Commission_Advertisement"><path codeLine="43" d="M714.9,273.72 C663.79,302.25 592.09,342.26 540.79,370.89 " fill="none" id="Commission-Advertisement" style="stroke:#181818;stroke-width:1.0;"/><polygon fill="#000000" points="637.0143,332.676,651.9432,329.7293,647.36,321.5171,637.0143,332.676" style="stroke:#000000;stroke-width:1.0;"/><text fill="#000000" font-family="sans-serif" font-size="20" lengthAdjust="spacing" textLength="96" x="657" y="336.3359">present in</text><text fill="#000000" font-family="sans-serif" font-size="20" lengthAdjust="spacing" textLength="13" x="693.8525" y="272.9399">1</text><text fill="#000000" font-family="sans-serif" font-size="20" lengthAdjust="spacing" textLength="13" x="537.9948" y="358.696">1</text></g><!--link Property to Advertisement--><g id="link_Property_Advertisement"><path codeLine="45" d="M411.09,286.15 C417.88,312.92 425,341 425,341 C425,341 436.43,355.39 448.57,370.68 " fill="none" id="Property-Advertisement" style="stroke:#181818;stroke-width:1.0;"/><polygon fill="#000000" points="429.7573,321.464,431.3247,336.6,439.9221,332.788,429.7573,321.464" style="stroke:#000000;stroke-width:1.0;"/><text fill="#000000" font-family="sans-serif" font-size="20" lengthAdjust="spacing" textLength="92" x="446" y="336.3359">describes</text><text fill="#000000" font-family="sans-serif" font-size="20" lengthAdjust="spacing" textLength="13" x="398.7713" y="312.871">1</text><text fill="#000000" font-family="sans-serif" font-size="20" lengthAdjust="spacing" textLength="13" x="429.5664" y="358.7492">1</text></g><!--link AdvertisementRequest to Property--><g id="link_AdvertisementRequest_Property"><path codeLine="46" d="M344.64,104.26 C355.38,130.41 368.66,162.7 379.4,188.83 " fill="none" id="AdvertisementRequest-Property" style="stroke:#181818;stroke-width:1.0;"/><polygon fill="#000000" points="378.0413,154.1767,376.8888,139.0035,368.1903,142.5788,378.0413,154.1767" style="stroke:#000000;stroke-width:1.0;"/><text fill="#000000" font-family="sans-serif" font-size="20" lengthAdjust="spacing" textLength="92" x="388" y="154.3359">describes</text><text fill="#000000" font-family="sans-serif" font-size="20" lengthAdjust="spacing" textLength="13" x="333.2414" y="130.9944">1</text><text fill="#000000" font-family="sans-serif" font-size="20" lengthAdjust="spacing" textLength="13" x="362.7297" y="176.7672">1</text></g><!--link AdvertisementRequest to Agent--><g id="link_AdvertisementRequest_Agent"><path codeLine="48" d="M436.02,55.5 C487.05,55.5 543.69,55.5 577.81,55.5 " fill="none" id="AdvertisementRequest-Agent" style="stroke:#181818;stroke-width:1.0;"/><polygon fill="#000000" points="453.5,40.2773,467.9721,44.9796,467.9721,35.5751,453.5,40.2773" style="stroke:#000000;stroke-width:1.0;"/><text fill="#000000" font-family="sans-serif" font-size="20" lengthAdjust="spacing" textLength="85" x="474.5" y="47.8359">validates</text><text fill="#000000" font-family="sans-serif" font-size="20" lengthAdjust="spacing" textLength="10" x="444.1777" y="51.0587">*</text><text fill="#000000" font-family="sans-serif" font-size="20" lengthAdjust="spacing" textLength="13" x="557.0364" y="49.5672">1</text></g><!--link AdvertisementRequest to Advertisement--><g id="link_AdvertisementRequest_Advertisement"><path codeLine="49" d="M259.19,104.15 C206.73,142.13 142,189 142,189 C142,189 142,286 142,286 C142,286 279.48,335.45 378.3,371 " fill="none" id="AdvertisementRequest-Advertisement" style="stroke:#181818;stroke-width:1.0;"/><polygon fill="#000000" points="146.7392,230.472,148.3441,245.6041,156.932,241.7708,146.7392,230.472" style="stroke:#000000;stroke-width:1.0;"/><text fill="#000000" font-family="sans-serif" font-size="20" lengthAdjust="spacing" textLength="121" x="163" y="245.3359">derives from</text><text fill="#000000" font-family="sans-serif" font-size="20" lengthAdjust="spacing" textLength="13" x="237.3772" y="130.871">1</text><text fill="#000000" font-family="sans-serif" font-size="20" lengthAdjust="spacing" textLength="13" x="347.8763" y="359.4228">1</text></g><!--link Owner to AdvertisementRequest--><g id="link_Owner_AdvertisementRequest"><path codeLine="50" d="M75.26,55.5 C109.63,55.5 164.44,55.5 213.97,55.5 " fill="none" id="Owner-AdvertisementRequest" style="stroke:#181818;stroke-width:1.0;"/><polygon fill="#000000" points="108.5,40.2773,94.0279,35.5751,94.0279,44.9796,108.5,40.2773" style="stroke:#000000;stroke-width:1.0;"/><text fill="#000000" font-family="sans-serif" font-size="20" lengthAdjust="spacing" textLength="82" x="113.5" y="47.8359">requests</text><text fill="#000000" font-family="sans-serif" font-size="20" lengthAdjust="spacing" textLength="13" x="83.0299" y="49.7391">1</text><text fill="#000000" font-family="sans-serif" font-size="20" lengthAdjust="spacing" textLength="10" x="196.1742" y="51.0932">*</text></g><!--SRC=[TPFDJkCm4CVlVefHZYiXKOxH2gcgXCIfYEuBkFOa6TMnWpqfoYBUdR4XD2tbvfdv_JrVTZgG7tJKlGlcW1OiDdfq_10yx-W_mjsjIZC2VV31T37q21n7N4G6RGwwnHrF3Y6YOUrRjmHIfsru9Tz2errQHXnvv6b068ARig4MGUDqIclcIFkHyT44NwgwLQeZYs0e6abJpjWFF453w6nIgWXXtQ9dU7kVxUshnxYmr_Q8aIbXBzmpleoO15T398FAQiPjy-LLrpK2Vs9dtWpF-3zfRTjiGjzJIXIy231HwpMBSRfr2Hora-5-XvvY6EJkINBfY5fPIZ9UWnlYQIFPOc5BgzMgWfiRgFvKP_NKC8nxHwd31FUNv2bp3Gav4-ha4w1mg-goaHfC9pioZ55MOc4_YN8XNCt2or8YfZmvyZdJtDolk4pBoFQbyh_dyFYJ_jhLkKXTGqfRMV_vH6gGcLFUP5PS5NpN1pyAZ7GKNIF_uZTn6Q8hwl84Q_aZ9PBJVG00]--></g></svg>